<svg width="17" height="17" viewBox="0 0 21 21" fill="none" xmlns="http://www.w3.org/2000/svg">
<path d="M10.01 0.0109863C10.7878 0.0110336 11.5389 0.294357 12.123 0.807986L12.277 0.952986L12.975 1.65099C13.1666 1.8413 13.4167 1.96144 13.685 1.99199L13.82 1.99999H14.82C15.6372 1.99994 16.4235 2.31256 17.0176 2.87373C17.6116 3.4349 17.9685 4.20209 18.015 5.01799L18.02 5.19999V6.19999C18.02 6.46999 18.112 6.73299 18.278 6.94299L18.368 7.04299L19.065 7.74099C19.6427 8.31543 19.9796 9.08861 20.0069 9.90285C20.0342 10.7171 19.7499 11.5111 19.212 12.123L19.067 12.277L18.369 12.975C18.1787 13.1665 18.0585 13.4167 18.028 13.685L18.02 13.82V14.82C18.02 15.6372 17.7074 16.4235 17.1463 17.0176C16.5851 17.6116 15.8179 17.9685 15.002 18.015L14.82 18.02H13.82C13.5504 18.0201 13.2886 18.111 13.077 18.278L12.977 18.368L12.279 19.065C11.7046 19.6427 10.9314 19.9796 10.1171 20.0069C9.30288 20.0342 8.50887 19.7499 7.897 19.212L7.743 19.067L7.045 18.369C6.85344 18.1787 6.60329 18.0585 6.335 18.028L6.2 18.02H5.2C4.38278 18.02 3.59651 17.7074 3.00243 17.1462C2.40835 16.5851 2.05148 15.8179 2.005 15.002L2 14.82V13.82C1.99991 13.5504 1.90903 13.2886 1.742 13.077L1.652 12.977L0.955 12.279C0.377281 11.7045 0.0404226 10.9314 0.0131075 10.1171C-0.0142076 9.30287 0.270078 8.50886 0.808 7.89699L0.953 7.74299L1.651 7.04499C1.84131 6.85343 1.96145 6.60328 1.992 6.33499L2 6.19999V5.19999L2.005 5.01799C2.04965 4.23343 2.38143 3.49274 2.93709 2.93707C3.49275 2.38141 4.23345 2.04964 5.018 2.00499L5.2 1.99999H6.2C6.46962 1.9999 6.73135 1.90901 6.943 1.74199L7.043 1.65199L7.741 0.954986C8.03834 0.655875 8.39187 0.418492 8.78127 0.256486C9.17066 0.0944798 9.58825 0.0110474 10.01 0.0109863Z" fill="#1C4481"/>
</svg>
