<svg width="32" height="29" viewBox="0 0 32 29" fill="none" xmlns="http://www.w3.org/2000/svg">
<path d="M12.4357 22.3638L11.9854 21.4709L12.4357 22.3638C12.6666 22.2474 12.8561 22.0806 13.0059 21.9488C13.0194 21.9368 13.0327 21.9252 13.0456 21.9139L22.9384 13.2577C22.9533 13.2447 22.9681 13.2317 22.983 13.2187C23.3448 12.9022 23.6911 12.5993 23.938 12.3134C24.2135 11.9943 24.4814 11.5675 24.4814 11C24.4814 10.4325 24.2135 10.0057 23.938 9.6866C23.6911 9.40069 23.3448 9.09778 22.983 8.78132C22.9681 8.76833 22.9533 8.75531 22.9384 8.74228L22.91 8.71746L21.9755 7.89981C21.9631 7.88894 21.9507 7.87807 21.9383 7.86721C21.657 7.62099 21.38 7.37846 21.1227 7.20521C20.8306 7.00853 20.4628 6.82877 20 6.82877C19.5372 6.82877 19.1694 7.00853 18.8774 7.20521C18.6201 7.37846 18.343 7.62099 18.0617 7.86721C18.0493 7.87807 18.0369 7.88894 18.0245 7.89981L7.78549 16.8589C7.77068 16.8719 7.75541 16.8852 7.73976 16.8988C7.5676 17.0484 7.34955 17.238 7.19148 17.4873C7.0334 17.7366 6.95493 18.0146 6.89296 18.2342C6.88733 18.2541 6.88183 18.2736 6.87643 18.2925L5.93506 21.5873C5.93188 21.5984 5.92856 21.61 5.92513 21.6219C5.88329 21.7677 5.82542 21.9693 5.80183 22.1485C5.77474 22.3544 5.75274 22.8074 6.11076 23.1887C6.46877 23.5699 6.92221 23.5765 7.1294 23.5624C7.30979 23.5501 7.51461 23.5051 7.66271 23.4725C7.67483 23.4698 7.68657 23.4672 7.69789 23.4647L11.7112 22.5868C11.728 22.5831 11.7453 22.5794 11.7629 22.5756C11.958 22.5335 12.2048 22.4803 12.4357 22.3638Z" stroke="#1C4481" stroke-width="2"/>
<path d="M16.6667 9.25002L20.6667 6.91669L24.6667 10.4167L22 13.9167L16.6667 9.25002Z" fill="#1C4481"/>
</svg>
