<svg width="17" height="17" viewBox="0 0 24 24" fill="none" xmlns="http://www.w3.org/2000/svg">
<g clip-path="url(#clip0_1733_732)">
<path d="M3 12.5C3 15.0196 4.00089 17.4359 5.78249 19.2175C7.56408 20.9991 9.98044 22 12.5 22C15.0196 22 17.4359 20.9991 19.2175 19.2175C20.9991 17.4359 22 15.0196 22 12.5C22 9.98044 20.9991 7.56408 19.2175 5.78249C17.4359 4.00089 15.0196 3 12.5 3C9.98044 3 7.56408 4.00089 5.78249 5.78249C4.00089 7.56408 3 9.98044 3 12.5Z" stroke="#A7C8FF" stroke-width="2" stroke-linecap="round" stroke-linejoin="round"/>
<path fill-rule="evenodd" clip-rule="evenodd" d="M14.5 8.5C14.5 7.67157 13.8284 7 13 7C12.1716 7 11.5 7.67157 11.5 8.5V11L8.5 11C7.67157 11 7 11.6716 7 12.5C7 13.3284 7.67157 14 8.5 14H11.5V17C11.5 17.8284 12.1716 18.5 13 18.5C13.8284 18.5 14.5 17.8284 14.5 17V14H17C17.8284 14 18.5 13.3284 18.5 12.5C18.5 11.6716 17.8284 11 17 11L14.5 11V8.5Z" fill="#A7C8FF"/>
</g>
<defs>
<clipPath id="clip0_1733_732">
<rect width="24" height="24" fill="white"/>
</clipPath>
</defs>
</svg>
