<svg width="70" height="70" viewBox="0 0 70 70" fill="none" xmlns="http://www.w3.org/2000/svg">
<g filter="url(#filter0_d_80_568)">
<circle cx="35" cy="33" r="32" fill="white"/>
</g>
<path d="M12 33C12 20.2975 22.2975 10 35 10C47.7025 10 58 20.2975 58 33C58 45.7025 47.7025 56 35 56C22.2975 56 12 45.7025 12 33Z" fill="white" stroke="#1C4481" stroke-width="3"/>
<path d="M44.9544 31.7042C45.4802 32.1044 45.4802 32.8956 44.9544 33.2958L31.1056 43.8354C30.4473 44.3364 29.5 43.8669 29.5 43.0397L29.5 21.9603C29.5 21.1331 30.4473 20.6636 31.1056 21.1646L44.9544 31.7042Z" fill="#1C4481"/>
<defs>
<filter id="filter0_d_80_568" x="0" y="0" width="70" height="70" filterUnits="userSpaceOnUse" color-interpolation-filters="sRGB">
<feFlood flood-opacity="0" result="BackgroundImageFix"/>
<feColorMatrix in="SourceAlpha" type="matrix" values="0 0 0 0 0 0 0 0 0 0 0 0 0 0 0 0 0 0 127 0" result="hardAlpha"/>
<feOffset dy="2"/>
<feGaussianBlur stdDeviation="1.5"/>
<feComposite in2="hardAlpha" operator="out"/>
<feColorMatrix type="matrix" values="0 0 0 0 0 0 0 0 0 0 0 0 0 0 0 0 0 0 0.12 0"/>
<feBlend mode="normal" in2="BackgroundImageFix" result="effect1_dropShadow_80_568"/>
<feBlend mode="normal" in="SourceGraphic" in2="effect1_dropShadow_80_568" result="shape"/>
</filter>
</defs>
</svg>
