<svg width="70" height="70" viewBox="0 0 70 70" fill="none" xmlns="http://www.w3.org/2000/svg">
<g filter="url(#filter0_d_80_582)">
<circle cx="35" cy="33" r="32" fill="white"/>
</g>
<path d="M35 12.25C22.9878 12.25 13.25 21.9878 13.25 34C13.25 46.0122 22.9878 55.75 35 55.75C47.0122 55.75 56.75 46.0122 56.75 34C56.75 21.9878 47.0122 12.25 35 12.25Z" fill="white" stroke="#1C4481" stroke-width="3"/>
<rect x="32" y="25" width="6" height="11" rx="3" stroke="#1C4481" stroke-width="2" stroke-linejoin="round"/>
<path d="M28 33C28 34.8565 28.7375 36.637 30.0503 37.9497C31.363 39.2625 33.1435 40 35 40C36.8565 40 38.637 39.2625 39.9497 37.9497C41.2625 36.637 42 34.8565 42 33" stroke="#1C4481" stroke-width="2" stroke-linecap="round" stroke-linejoin="round"/>
<path d="M35 43V41" stroke="#1C4481" stroke-width="2" stroke-linecap="round" stroke-linejoin="round"/>
<defs>
<filter id="filter0_d_80_582" x="0" y="0" width="70" height="70" filterUnits="userSpaceOnUse" color-interpolation-filters="sRGB">
<feFlood flood-opacity="0" result="BackgroundImageFix"/>
<feColorMatrix in="SourceAlpha" type="matrix" values="0 0 0 0 0 0 0 0 0 0 0 0 0 0 0 0 0 0 127 0" result="hardAlpha"/>
<feOffset dy="2"/>
<feGaussianBlur stdDeviation="1.5"/>
<feComposite in2="hardAlpha" operator="out"/>
<feColorMatrix type="matrix" values="0 0 0 0 0 0 0 0 0 0 0 0 0 0 0 0 0 0 0.12 0"/>
<feBlend mode="normal" in2="BackgroundImageFix" result="effect1_dropShadow_80_582"/>
<feBlend mode="normal" in="SourceGraphic" in2="effect1_dropShadow_80_582" result="shape"/>
</filter>
</defs>
</svg>
