<svg width="17" height="17" viewBox="0 0 21 16" fill="none" xmlns="http://www.w3.org/2000/svg">
<path d="M5.04591 6.89754C5.18884 6.45766 5.81116 6.45766 5.95409 6.89754V6.89754C6.01801 7.09427 6.20133 7.22746 6.40818 7.22746V7.22746C6.8707 7.22746 7.06301 7.81932 6.68882 8.09119V8.09119C6.52148 8.21277 6.45145 8.42828 6.51537 8.625V8.625C6.6583 9.06489 6.15483 9.43068 5.78064 9.15881V9.15881C5.6133 9.03723 5.3867 9.03723 5.21936 9.15881V9.15881C4.84517 9.43068 4.3417 9.06489 4.48463 8.625V8.625C4.54855 8.42828 4.47852 8.21277 4.31118 8.09119V8.09119C3.93699 7.81932 4.1293 7.22746 4.59182 7.22746V7.22746C4.79867 7.22746 4.98199 7.09427 5.04591 6.89754V6.89754Z" fill="#1C4481"/>
<path d="M10.0459 6.89754C10.1888 6.45766 10.8112 6.45766 10.9541 6.89754V6.89754C11.018 7.09427 11.2013 7.22746 11.4082 7.22746V7.22746C11.8707 7.22746 12.063 7.81932 11.6888 8.09119V8.09119C11.5215 8.21277 11.4515 8.42828 11.5154 8.625V8.625C11.6583 9.06489 11.1548 9.43068 10.7806 9.15881V9.15881C10.6133 9.03723 10.3867 9.03723 10.2194 9.15881V9.15881C9.84517 9.43068 9.3417 9.06489 9.48463 8.625V8.625C9.54855 8.42828 9.47852 8.21277 9.31118 8.09119V8.09119C8.93699 7.81932 9.1293 7.22746 9.59182 7.22746V7.22746C9.79867 7.22746 9.98199 7.09427 10.0459 6.89754V6.89754Z" fill="#1C4481"/>
<path d="M15.0459 6.89754C15.1888 6.45766 15.8112 6.45766 15.9541 6.89754V6.89754C16.018 7.09427 16.2013 7.22746 16.4082 7.22746V7.22746C16.8707 7.22746 17.063 7.81932 16.6888 8.09119V8.09119C16.5215 8.21277 16.4515 8.42828 16.5154 8.625V8.625C16.6583 9.06489 16.1548 9.43068 15.7806 9.15881V9.15881C15.6133 9.03723 15.3867 9.03723 15.2194 9.15881V9.15881C14.8452 9.43068 14.3417 9.06489 14.4846 8.625V8.625C14.5485 8.42828 14.4785 8.21277 14.3112 8.09119V8.09119C13.937 7.81932 14.1293 7.22746 14.5918 7.22746V7.22746C14.7987 7.22746 14.982 7.09427 15.0459 6.89754V6.89754Z" fill="#1C4481"/>
<rect x="1" y="1.5" width="19" height="13" rx="2" stroke="#1C4481" stroke-width="2"/>
</svg>
