<svg width="70" height="70" viewBox="0 0 70 70" fill="none" xmlns="http://www.w3.org/2000/svg">
<g filter="url(#filter0_d_80_551)">
<circle cx="35" cy="33" r="32" fill="white"/>
</g>
<path d="M20.1109 18.1109C19.2 19.0219 18.8286 20.1555 18.6598 21.411C18.4999 22.6006 18.4999 24.099 18.5 25.896L18.5 26V40L18.5 40.104C18.4999 41.901 18.4999 43.3994 18.6598 44.589C18.8286 45.8445 19.2 46.9781 20.1109 47.8891C21.0219 48.8 22.1555 49.1714 23.411 49.3402C24.6006 49.5001 26.099 49.5001 27.896 49.5L28 49.5H42L42.104 49.5C43.901 49.5001 45.3994 49.5001 46.589 49.3402C47.8445 49.1714 48.9781 48.8 49.8891 47.8891C50.8 46.9781 51.1714 45.8445 51.3402 44.589C51.5001 43.3994 51.5001 41.901 51.5 40.104L51.5 40V26L51.5 25.896C51.5001 24.099 51.5001 22.6006 51.3402 21.411C51.1714 20.1555 50.8 19.0219 49.8891 18.1109C48.9781 17.2 47.8445 16.8286 46.589 16.6598C45.3994 16.4999 43.901 16.4999 42.104 16.5L42 16.5H28L27.896 16.5C26.099 16.4999 24.6006 16.4999 23.411 16.6598C22.1555 16.8286 21.0219 17.2 20.1109 18.1109Z" fill="white" stroke="#1C4481" stroke-width="3"/>
<path fill-rule="evenodd" clip-rule="evenodd" d="M48 37.9187L45.2021 35.1208L45.1555 35.0742C44.5288 34.4473 43.9887 33.9072 43.498 33.5329C42.9722 33.1317 42.3874 32.8279 41.6666 32.8279C40.9458 32.8279 40.361 33.1317 39.8351 33.5329C39.3445 33.9072 38.8044 34.4473 38.1776 35.0742L38.1776 35.0742L38.1311 35.1208L36.3817 36.8702C35.8852 37.3666 35.5911 37.657 35.3627 37.8266L35.3528 37.834L35.3462 37.8234C35.1972 37.5812 35.032 37.2023 34.7554 36.557L33.2464 33.036L33.2149 32.9626C32.7146 31.795 32.2951 30.8162 31.8624 30.1128C31.4099 29.3773 30.8194 28.7351 29.8926 28.5566C28.9658 28.3782 28.1791 28.7551 27.4857 29.27C26.8227 29.7623 26.0698 30.5153 25.1716 31.4136L25.1151 31.47L22 34.5852V37.4136L26.5293 32.8843C27.499 31.9146 28.148 31.2693 28.6781 30.8757C29.1917 30.4943 29.3992 30.4984 29.5144 30.5206C29.6296 30.5427 29.8238 30.616 30.159 31.1609C30.505 31.7232 30.8679 32.5634 31.4081 33.8238L32.9171 37.3448L32.9439 37.4073C33.1842 37.9684 33.4067 38.4877 33.6428 38.8714C33.8984 39.2869 34.2927 39.7502 34.959 39.8785C35.6253 40.0068 36.1635 39.7231 36.5551 39.4323C36.9168 39.1637 37.3162 38.7642 37.7478 38.3325L37.7478 38.3325L37.7959 38.2844L39.5453 36.535C40.2319 35.8483 40.6773 35.406 41.0483 35.1229C41.3962 34.8574 41.5589 34.8279 41.6666 34.8279C41.7742 34.8279 41.9369 34.8574 42.2849 35.1229C42.6559 35.406 43.1012 35.8483 43.7879 36.535L47.6261 40.3732L48 39.9994V37.9187ZM35.2169 37.9187C35.2163 37.919 35.216 37.9191 35.216 37.9192C35.216 37.9193 35.2174 37.9188 35.2204 37.9175C35.2188 37.918 35.2176 37.9184 35.2169 37.9187ZM35.4481 37.9639C35.4481 37.9638 35.4469 37.9626 35.4446 37.9607C35.446 37.9621 35.447 37.963 35.4476 37.9635C35.4479 37.9638 35.4481 37.9639 35.4481 37.9639Z" fill="#1C4481"/>
<circle cx="42.5" cy="25.5" r="2.5" fill="#1C4481"/>
<defs>
<filter id="filter0_d_80_551" x="0" y="0" width="70" height="70" filterUnits="userSpaceOnUse" color-interpolation-filters="sRGB">
<feFlood flood-opacity="0" result="BackgroundImageFix"/>
<feColorMatrix in="SourceAlpha" type="matrix" values="0 0 0 0 0 0 0 0 0 0 0 0 0 0 0 0 0 0 127 0" result="hardAlpha"/>
<feOffset dy="2"/>
<feGaussianBlur stdDeviation="1.5"/>
<feComposite in2="hardAlpha" operator="out"/>
<feColorMatrix type="matrix" values="0 0 0 0 0 0 0 0 0 0 0 0 0 0 0 0 0 0 0.12 0"/>
<feBlend mode="normal" in2="BackgroundImageFix" result="effect1_dropShadow_80_551"/>
<feBlend mode="normal" in="SourceGraphic" in2="effect1_dropShadow_80_551" result="shape"/>
</filter>
</defs>
</svg>
