<svg width="20" height="20" viewBox="0 0 36 36" fill="none" xmlns="http://www.w3.org/2000/svg">
<path d="M18 7.5L16.9393 6.43934L18 5.37868L19.0607 6.43934L18 7.5ZM19.5 21C19.5 21.8284 18.8284 22.5 18 22.5C17.1716 22.5 16.5 21.8284 16.5 21L19.5 21ZM9.43934 13.9393L16.9393 6.43934L19.0607 8.56066L11.5607 16.0607L9.43934 13.9393ZM19.0607 6.43934L26.5607 13.9393L24.4393 16.0607L16.9393 8.56066L19.0607 6.43934ZM19.5 7.5L19.5 21L16.5 21L16.5 7.5L19.5 7.5Z" fill="#1C4481"/>
<path d="M7.5 24L7.5 25.5C7.5 27.1569 8.84315 28.5 10.5 28.5L25.5 28.5C27.1569 28.5 28.5 27.1569 28.5 25.5V24" stroke="#1C4481" stroke-width="3"/>
</svg>
