<svg width="17" height="24" viewBox="0 0 17 24" fill="none" xmlns="http://www.w3.org/2000/svg">
<path d="M2.81551 21.4492V18.9036C2.28955 18.8588 1.8793 18.6235 1.55832 18.2308C1.24644 17.8488 1.08052 17.409 1.02208 16.9262C0.945618 16.3397 1.06463 15.7446 1.36126 15.2301C1.39283 15.1664 1.40824 15.096 1.4062 15.0251C1.40913 14.0532 1.38182 13.0804 1.4153 12.1088C1.45583 10.9506 2.00998 10.0876 3.08715 9.57994C3.40843 9.42835 3.75525 9.36627 4.11176 9.36598C6.97914 9.36598 9.84681 9.37522 12.7142 9.36136C14.0257 9.35501 15.1044 10.2524 15.4054 11.4594C15.4639 11.7025 15.4943 11.9514 15.4958 12.2012C15.5064 13.0963 15.4979 13.9914 15.5035 14.8865C15.5059 14.9755 15.5326 15.0621 15.5807 15.1375C16.218 16.1102 16.119 17.5196 15.3508 18.3345C15.0166 18.689 14.6087 18.8906 14.0903 18.9033V21.5629C13.9602 21.5211 13.8448 21.4859 13.7312 21.4474C13.0851 21.2251 12.4282 21.0432 11.7401 20.9855C10.5537 20.8896 9.54111 21.2329 8.73734 22.1156C8.62956 22.234 8.52267 22.3527 8.4143 22.4708C8.39849 22.4819 8.38168 22.4915 8.36408 22.4996C8.1732 22.3059 7.98848 22.0954 7.7791 21.91C6.9536 21.1832 5.97127 20.9387 4.8847 21.0149C4.2263 21.0611 3.59637 21.2312 2.96704 21.4093C2.92211 21.4229 2.8763 21.4333 2.81551 21.4492ZM13.1553 20.3046C13.1553 19.8157 13.1494 19.3448 13.1582 18.8738C13.1617 18.6925 13.1198 18.566 12.9729 18.43C12.3809 17.8814 12.1738 17.1766 12.2249 16.399C12.2708 15.7014 12.5345 15.0941 13.0986 14.6359C13.1347 14.607 13.1529 14.5374 13.1529 14.4866C13.1565 13.7746 13.1553 13.0625 13.1547 12.3499C13.1547 12.3129 13.1491 12.276 13.145 12.2278C12.5547 12.2153 11.9744 12.2021 11.3956 12.2789C10.3173 12.4215 9.44243 12.8933 8.82837 13.7948C8.72295 13.9493 8.61282 14.1003 8.48155 14.2857C7.30688 12.6903 5.76512 11.9312 3.75349 12.1986C3.75349 12.8627 3.76347 13.5228 3.7482 14.1814C3.74292 14.4144 3.76817 14.605 3.999 14.7191C4.01922 14.7328 4.03724 14.7494 4.05244 14.7684C4.61952 15.3329 4.83037 16.0268 4.77428 16.7986C4.72113 17.5292 4.43744 18.1557 3.82133 18.6091C3.78168 18.6379 3.75701 18.7119 3.75642 18.7653C3.75143 19.2175 3.75349 19.6696 3.75408 20.1224C3.75408 20.1628 3.76054 20.2032 3.76435 20.2506C5.44326 19.9041 7.00792 20.0516 8.36085 21.1815C9.77546 19.926 11.4077 19.8625 13.1547 20.3046H13.1553ZM8.41724 12.8096C8.44132 12.7879 8.45659 12.7767 8.46892 12.7628C9.20838 11.9526 10.1475 11.531 11.2294 11.3788C12.0537 11.2633 12.8789 11.2974 13.7047 11.3425C13.8301 11.3491 13.9555 11.3592 14.0941 11.3687V14.275L14.5593 14.3376C14.5611 14.3062 14.564 14.2828 14.564 14.2594C14.564 13.5473 14.5669 12.835 14.5608 12.1227C14.5575 11.9737 14.5378 11.8256 14.502 11.6809C14.3123 10.8805 13.5975 10.288 12.8105 10.2874C9.90398 10.2845 6.99745 10.2845 4.09091 10.2874C3.96392 10.2885 3.83756 10.3051 3.71472 10.3367C2.93826 10.5337 2.36003 11.2659 2.3477 12.0857C2.33654 12.8263 2.34476 13.5675 2.34476 14.309C2.34647 14.3286 2.35001 14.3479 2.35533 14.3668L2.82285 14.2727V11.3829C2.8446 11.3749 2.86687 11.3685 2.88952 11.3635C3.5444 11.2723 4.20104 11.2093 4.86356 11.244C5.4829 11.2763 6.08404 11.3953 6.65846 11.6312C7.32156 11.9038 7.89598 12.3063 8.41724 12.8096ZM15.0668 16.6161C15.0606 16.1948 14.9672 15.8183 14.6938 15.5027C14.3496 15.106 13.8642 15.1071 13.5191 15.5027C13.3053 15.7484 13.1961 16.0395 13.1635 16.356C13.1109 16.8777 13.199 17.3651 13.5917 17.7544C13.8997 18.0599 14.3097 18.0573 14.6219 17.7544C14.9508 17.4379 15.0541 17.0357 15.0668 16.6161ZM3.84864 16.6424C3.84864 16.2367 3.7667 15.9052 3.56319 15.609C3.19669 15.0765 2.59966 15.0734 2.22729 15.6009C1.83055 16.1628 1.83554 17.0446 2.23816 17.5999C2.60436 18.1066 3.18553 18.1061 3.54968 17.5979C3.7477 17.3177 3.85209 16.9839 3.84834 16.6427L3.84864 16.6424Z" fill="#1C4481" stroke="#1C4481" stroke-width="0.3"/>
<path d="M8.33014 1.50001C10.3976 1.49481 12.0929 3.14269 12.0964 5.16104C12.1003 7.22789 10.4352 8.89483 8.36186 8.90002C6.27241 8.90638 4.57735 7.26196 4.57471 5.22889C4.57177 3.15396 6.23218 1.50521 8.33014 1.50001ZM5.50652 5.19424C5.50571 5.55925 5.57803 5.92084 5.71934 6.25837C5.86065 6.59589 6.0682 6.90275 6.33013 7.16141C6.59205 7.42007 6.90323 7.62547 7.24589 7.76589C7.58855 7.90631 7.95598 7.97899 8.32721 7.97979C9.88629 7.98181 11.1582 6.74539 11.1611 5.22427C11.164 3.66504 9.90568 2.41361 8.33543 2.41419C7.5857 2.4151 6.86692 2.70825 6.33664 3.22937C5.80636 3.75049 5.50784 4.45707 5.50652 5.19424Z" fill="#1C4481" stroke="#1C4481" stroke-width="0.3"/>
</svg>
