<svg width="19" height="19" viewBox="0 0 19 19" fill="none" xmlns="http://www.w3.org/2000/svg">
<path d="M7.85026 2.67608C8.64467 1.51694 10.3553 1.51694 11.1497 2.67608L12.1278 4.10313C12.6479 4.86205 13.4137 5.41847 14.2962 5.67862L15.9557 6.16779C17.3036 6.56512 17.8322 8.19205 16.9753 9.30578L15.9203 10.6769C15.3592 11.4061 15.0667 12.3064 15.092 13.2261L15.1396 14.9555C15.1782 16.3602 13.7942 17.3657 12.4702 16.8949L10.8402 16.3152C9.97332 16.007 9.02668 16.007 8.15981 16.3152L6.52978 16.8949C5.20576 17.3657 3.8218 16.3602 3.86044 14.9555L3.908 13.2261C3.9333 12.3064 3.64077 11.4061 3.07972 10.6769L2.02474 9.30578C1.16782 8.19206 1.69644 6.56512 3.04434 6.16779L4.70376 5.67862C5.58627 5.41847 6.35212 4.86205 6.87224 4.10313L7.85026 2.67608Z" stroke="#1C4481" stroke-width="2"/>
</svg>
