<svg width="22" height="24" viewBox="0 0 22 24" fill="none" xmlns="http://www.w3.org/2000/svg">
<mask id="path-1-outside-1_13_810" maskUnits="userSpaceOnUse" x="-0.5" y="0" width="19" height="24" fill="black">
<rect fill="white" x="-0.5" width="19" height="24"/>
<path fill-rule="evenodd" clip-rule="evenodd" d="M0.95576 23.2805H9.15099V23.2783H12.5515H17.4449C17.7744 23.2783 17.8528 23.2065 17.8304 22.8793C17.8035 22.4691 17.7587 22.0611 17.7116 21.6531C17.5861 20.5458 17.4292 19.4452 17.1624 18.3625C16.9786 17.6093 16.5796 17.0355 15.934 16.6006C14.9993 15.9707 13.9704 15.5874 12.8832 15.3475C12.5806 15.2803 12.343 15.2086 12.2735 14.8499C12.2287 14.6146 12.0292 14.5742 11.8297 14.7311C11.7311 14.8096 11.6795 14.7984 11.601 14.7132C11.2424 14.3209 11.0317 13.8547 10.9196 13.3413C10.8994 13.2494 10.9465 13.1934 11.0138 13.1396C12.0449 12.3304 12.7891 11.3082 13.2486 10.0821C13.2867 9.97671 13.3405 9.92292 13.4593 9.91171C13.7261 9.88705 13.9502 9.75928 14.1385 9.57099C14.7208 8.98868 14.7191 7.76861 14.187 7.30147L14.233 7.26041L14.1142 7.1271C14.1157 7.10966 14.1187 7.09125 14.1228 7.07162L14.1347 7.01532L14.1347 7.01527C14.1869 6.76729 14.2392 6.51918 14.2663 6.26913C14.3985 5.02505 14.1475 3.89305 13.2621 2.95831C12.5089 2.16255 11.5831 1.65595 10.543 1.34213C9.43568 1.00813 8.30143 0.949853 7.15823 1.03503C6.76371 1.06417 6.36919 1.1247 5.97915 1.20539C5.77068 1.24798 5.67654 1.34661 5.66981 1.56853C5.66561 1.71018 5.67017 1.85096 5.67473 1.9914V1.99141V1.99143V1.99144V1.99146C5.67746 2.07547 5.68018 2.15936 5.68102 2.24325C5.68102 2.35084 5.64964 2.41361 5.54653 2.4562C4.8337 2.74985 4.4347 3.30576 4.23744 4.02979C3.99759 4.90849 4.05139 5.79168 4.21502 6.67038C4.24605 6.83632 4.26166 6.97059 4.21345 7.09714L4.06327 7.25239L4.09158 7.27977C4.07043 7.30139 4.04666 7.32312 4.02001 7.34509C3.6479 7.64995 3.621 8.11844 3.65239 8.57348C3.70394 9.31321 4.12984 9.78394 4.85388 9.91619C4.95026 9.93412 4.98613 9.99016 5.01303 10.0686C5.44565 11.2724 6.16744 12.2676 7.16047 13.0701L7.16128 13.0708C7.21927 13.1176 7.27475 13.1624 7.26582 13.2472C7.20978 13.7628 7.12236 14.2716 6.8444 14.7244C6.79061 14.8118 6.74353 14.8432 6.64042 14.7737C6.35574 14.5854 6.22797 14.637 6.12485 14.9687C6.12082 14.9822 6.11618 14.9956 6.11154 15.0091C6.10071 15.0405 6.08989 15.0718 6.08675 15.1032C6.06882 15.2601 5.97691 15.3184 5.82672 15.352C4.63868 15.621 3.49099 15.9976 2.43521 16.623C1.82774 16.9839 1.32114 17.4277 1.11267 18.1428C0.96921 18.6337 0.863855 19.1313 0.7854 19.6357C0.627423 20.6625 0.568239 21.698 0.509044 22.7336L0.505202 22.8008C0.480544 23.2267 0.529859 23.2805 0.95576 23.2805ZM13.5531 7.26592C13.6696 6.89781 13.7443 6.53765 13.7821 6.16826C13.8897 5.06764 13.6566 4.07238 12.8631 3.25869C12.1951 2.575 11.3859 2.1222 10.478 1.84425C9.22721 1.46093 7.94951 1.42731 6.66508 1.60215C6.61119 1.60953 6.56291 1.61567 6.5197 1.62117C6.32631 1.64577 6.2343 1.65747 6.19362 1.7094C6.15671 1.75652 6.16208 1.83677 6.17232 1.98986C6.17586 2.04269 6.17998 2.10419 6.18314 2.176C6.23021 3.25196 6.70094 4.07238 7.68051 4.57674C8.46507 4.98022 9.31015 5.16403 10.1709 5.28059C11.5953 5.47453 12.74 6.05172 13.3641 7.43431L13.5531 7.26592ZM12.9649 7.79015C12.9497 7.74639 12.933 7.70265 12.9146 7.65892C12.4484 6.5583 11.5629 6.0248 10.4421 5.83202C10.3619 5.81825 10.2817 5.80466 10.2015 5.79108L10.2015 5.79107L10.2014 5.79107L10.2014 5.79107C9.39367 5.65427 8.58657 5.51758 7.82398 5.19541C7.71862 5.15058 7.65362 5.17524 7.59309 5.27163C7.4967 5.42406 7.36445 5.5451 7.22996 5.66391C7.05951 5.81516 6.86918 5.93913 6.67898 6.06301C6.49147 6.18514 6.3041 6.30718 6.13606 6.45518C5.71375 6.82751 5.32988 7.22104 5.20869 7.73668L5.76932 8.27902C5.9638 7.67905 6.52775 7.24448 7.19198 7.24448C7.8892 7.24448 8.47592 7.72329 8.64086 8.36959C8.88096 8.26305 9.19364 8.20445 9.51416 8.31971C9.67374 7.66576 10.2642 7.17948 10.9668 7.17948C11.6567 7.17948 12.2385 7.64832 12.4104 8.28437L12.9649 7.79015ZM12.4616 8.70592C12.4449 9.5164 11.7813 10.1698 10.9668 10.1698C10.1823 10.1698 9.53762 9.56349 9.47643 8.79451C9.14221 8.59965 8.82404 8.75898 8.68281 8.85381C8.62435 9.6255 7.97847 10.2348 7.19198 10.2348C6.39932 10.2348 5.74948 9.61589 5.69989 8.83561L5.17759 8.33035C5.19292 9.12126 5.39859 9.8312 5.73482 10.508C6.24814 11.5369 6.95424 12.3999 7.9495 12.9984C8.418 13.2786 8.92011 13.4624 9.48275 13.357C9.86158 13.2853 10.1978 13.1127 10.5072 12.893C11.7871 11.9762 12.6075 10.7433 12.9908 9.21906C13.0678 8.90973 13.1032 8.60119 13.074 8.29344L12.5278 8.78021L12.4616 8.70592ZM12.4035 22.7851H9.1622L9.16893 22.7874H3.58066C3.36098 22.7874 3.34305 22.765 3.36995 22.5475L3.53807 21.1465C3.55824 20.9874 3.50444 20.8618 3.33857 20.835C3.17045 20.8081 3.07854 20.9089 3.05837 21.0703L3.03358 21.2621L3.03358 21.2622L3.03358 21.2622L3.03357 21.2622L3.03357 21.2622C2.97653 21.7031 2.91929 22.1455 2.87232 22.5879C2.85662 22.7403 2.80058 22.7896 2.6504 22.7896C2.17294 22.7806 1.69548 22.7784 1.21803 22.7896C1.04094 22.7941 1.00283 22.7179 1.01628 22.5632C1.037 22.3193 1.05553 22.0753 1.07406 21.8313C1.1257 21.1512 1.17733 20.4712 1.27631 19.7949C1.33907 19.3757 1.42873 18.9632 1.52064 18.5485C1.66634 17.8895 2.05414 17.4322 2.62574 17.0915C3.59186 16.5132 4.64093 16.1568 5.72361 15.8833C5.86259 15.8474 5.88501 15.8855 5.8469 16.0155C5.72137 16.4549 5.60032 16.8942 5.47928 17.3358C5.38513 17.6743 5.48825 17.7998 5.83345 17.7595C5.94458 17.7463 6.05572 17.7335 6.16681 17.7208L6.16752 17.7207L6.16835 17.7206L6.16917 17.7206C6.47183 17.6859 6.77415 17.6513 7.07529 17.6071C7.23668 17.5824 7.33083 17.6272 7.41377 17.7685C7.78391 18.3905 8.15928 19.0099 8.5349 19.6297C8.65063 19.8207 8.76638 20.0117 8.882 20.2028L8.91102 20.251C8.94567 20.3089 8.98015 20.3664 9.01874 20.4225C9.16444 20.6354 9.35722 20.6354 9.48947 20.418C9.76974 19.9612 10.0477 19.5031 10.3258 19.0448L10.6461 18.5171C10.6934 18.4397 10.7416 18.3624 10.7898 18.285L10.7898 18.285C10.8992 18.1094 11.009 17.9333 11.1101 17.7528C11.1841 17.6228 11.2783 17.5869 11.4195 17.6048C11.7156 17.6415 12.0128 17.6762 12.3096 17.7109L12.3097 17.7109L12.3099 17.711L12.31 17.711L12.3102 17.711L12.3129 17.7113C12.4688 17.7295 12.6246 17.7477 12.7801 17.7662C13.0917 17.8043 13.2105 17.6586 13.1096 17.3538L13.1095 17.3534L13.1094 17.353L13.1093 17.3526L13.1091 17.3522L13.109 17.3519C12.959 16.8997 12.8091 16.4475 12.6613 15.9954C12.6568 15.9817 12.6497 15.9674 12.6426 15.9529C12.6217 15.9105 12.5999 15.8663 12.6367 15.8295C12.6705 15.794 12.717 15.8108 12.7619 15.8269L12.7619 15.8269L12.7619 15.8269L12.7619 15.8269C12.7765 15.8322 12.791 15.8374 12.8048 15.8407C13.8583 16.0895 14.8581 16.4549 15.7525 17.0825C16.2725 17.4479 16.5527 17.9455 16.6939 18.5485C16.871 19.3084 17.0212 20.0751 17.1198 20.8506C17.1675 21.2238 17.2064 21.5987 17.2454 21.9737L17.2454 21.9738L17.2454 21.9739L17.2454 21.974L17.2454 21.9741C17.2687 22.1982 17.2919 22.4223 17.3171 22.6461C17.3305 22.7605 17.2812 22.7851 17.1848 22.7851C17.0178 22.7851 16.8505 22.7849 16.6831 22.7846H16.6826C16.3468 22.7841 16.0104 22.7836 15.674 22.7851C15.5619 22.7874 15.5036 22.747 15.488 22.6305C15.4229 22.1463 15.3535 21.6599 15.284 21.1757C15.2825 21.164 15.2813 21.1523 15.28 21.1407C15.2755 21.0987 15.2711 21.0574 15.2571 21.0188C15.2122 20.8843 15.1203 20.8013 14.9724 20.8305C14.8267 20.8574 14.7594 20.9627 14.7729 21.1062C14.7886 21.2788 14.8132 21.4491 14.8379 21.6195L14.8575 21.7585L14.8575 21.7585C14.8955 22.0277 14.9332 22.2955 14.9791 22.5632C15.0083 22.7268 14.9679 22.7896 14.7908 22.7896C14.194 22.7829 13.5972 22.7837 13.0004 22.7846C12.8015 22.7848 12.6025 22.7851 12.4035 22.7851ZM7.72806 13.5802C7.72623 13.5362 7.7243 13.4898 7.79259 13.4915H7.79035C7.83614 13.5125 7.87991 13.5323 7.9225 13.5515C7.97999 13.5775 8.03536 13.6025 8.09072 13.6283C8.79907 13.9533 9.50516 13.9802 10.2157 13.6283C10.4377 13.5184 10.4421 13.5296 10.5184 13.774C10.6618 14.2424 10.8815 14.6706 11.22 15.027C11.3029 15.1167 11.2917 15.1593 11.2043 15.2287C10.5879 15.7174 9.97366 16.2106 9.3617 16.7059C9.28549 16.7687 9.22497 16.7597 9.15099 16.7037L9.15038 16.7032C8.52518 16.2237 7.89999 15.7442 7.27479 15.2669C7.19633 15.2063 7.16271 15.1503 7.22771 15.0517C7.51688 14.6168 7.64465 14.1259 7.72759 13.6193C7.72919 13.6075 7.72863 13.594 7.72806 13.5802ZM6.65163 5.48234C5.93432 5.92841 5.27754 6.43277 4.85388 7.25319L4.85163 7.25095C4.7418 6.87436 4.68352 6.54933 4.64541 6.22206C4.56247 5.49579 4.52212 4.76727 4.74852 4.05669C4.88974 3.6151 5.12511 3.24075 5.54204 3.00314C5.75275 2.8821 5.77517 2.88658 5.84017 3.11298C6.04864 3.83029 6.46782 4.39293 7.08874 4.8009C7.23892 4.89953 7.21427 4.97126 7.11339 5.07661C6.97217 5.2268 6.82871 5.3725 6.65163 5.48234ZM7.98537 17.5107C8.41127 17.4591 8.83717 17.4053 9.26083 17.3515C9.68001 17.4031 10.0925 17.4524 10.5072 17.5017C10.6215 17.5152 10.6551 17.5533 10.5856 17.6653C10.1642 18.3535 9.74501 19.0439 9.32808 19.7343C9.27204 19.8262 9.23393 19.8262 9.17789 19.7343C8.75872 19.0372 8.3373 18.3401 7.91364 17.6452C7.85312 17.5465 7.88898 17.5219 7.98537 17.5107ZM9.88447 16.9212C10.7271 17.0243 11.5205 17.1207 12.3139 17.2148C12.5223 17.2394 12.5425 17.2103 12.4775 17.0153L12.4769 17.0136L12.4764 17.0119C12.3288 16.5669 12.1812 16.122 12.0337 15.6793C11.9104 15.305 11.9081 15.3027 11.6055 15.5448C11.0437 15.9924 10.482 16.4423 9.88447 16.9212ZM8.5724 16.8984C8.57496 16.9066 8.57824 16.917 8.58387 16.9301C8.2635 16.969 7.94641 17.0083 7.63113 17.0474C7.16552 17.105 6.70387 17.1622 6.24142 17.217C6.0195 17.2439 6.01726 17.2394 6.07778 17.0175C6.19175 16.6039 6.30723 16.1918 6.42298 15.7788L6.42304 15.7785L6.4992 15.5067C6.50175 15.4971 6.50405 15.4867 6.50639 15.4762C6.52255 15.4034 6.54059 15.3222 6.65611 15.4103C6.97306 15.6545 7.29057 15.8986 7.60808 16.1428L7.60889 16.1434C7.9266 16.3877 8.24431 16.632 8.56146 16.8763C8.56667 16.8802 8.56885 16.8871 8.5724 16.8984ZM4.14774 8.31626L4.14778 8.31346V8.31794L4.14774 8.31626ZM4.32486 7.74185C4.19972 7.92733 4.14364 8.13509 4.14774 8.31626C4.14368 8.61757 4.20645 8.85886 4.33159 9.08232C4.41228 9.22578 4.53333 9.32665 4.688 9.38494C4.75749 9.41184 4.81129 9.40735 4.79111 9.31096C4.7591 9.14291 4.73913 8.9725 4.71917 8.80217V8.80217C4.67764 8.44769 4.63615 8.09361 4.48626 7.76203C4.48339 7.75548 4.48053 7.74841 4.47759 7.74117C4.46446 7.70876 4.44996 7.67297 4.42798 7.66564C4.38371 7.65024 4.35763 7.69102 4.33553 7.72556C4.33188 7.73126 4.32835 7.73678 4.32486 7.74185ZM13.9345 7.79565C13.6162 8.28656 13.5355 8.82902 13.484 9.38045C14.0085 9.33338 14.2708 8.28656 13.9345 7.79565ZM6.14516 8.74186C6.14516 8.16353 6.61589 7.69504 7.19198 7.69504C7.77031 7.69504 8.2388 8.16353 8.2388 8.74186C8.2388 9.32019 7.77031 9.78868 7.19198 9.78868C6.61365 9.78868 6.14516 9.32019 6.14516 8.74186ZM10.9668 7.63003C10.3907 7.63003 9.91999 8.09853 9.91999 8.67686C9.91999 9.25518 10.3885 9.72367 10.9668 9.72367C11.5451 9.72367 12.0136 9.25518 12.0136 8.67686C12.0136 8.09853 11.5451 7.63003 10.9668 7.63003Z"/>
</mask>
<path fill-rule="evenodd" clip-rule="evenodd" d="M0.95576 23.2805H9.15099V23.2783H12.5515H17.4449C17.7744 23.2783 17.8528 23.2065 17.8304 22.8793C17.8035 22.4691 17.7587 22.0611 17.7116 21.6531C17.5861 20.5458 17.4292 19.4452 17.1624 18.3625C16.9786 17.6093 16.5796 17.0355 15.934 16.6006C14.9993 15.9707 13.9704 15.5874 12.8832 15.3475C12.5806 15.2803 12.343 15.2086 12.2735 14.8499C12.2287 14.6146 12.0292 14.5742 11.8297 14.7311C11.7311 14.8096 11.6795 14.7984 11.601 14.7132C11.2424 14.3209 11.0317 13.8547 10.9196 13.3413C10.8994 13.2494 10.9465 13.1934 11.0138 13.1396C12.0449 12.3304 12.7891 11.3082 13.2486 10.0821C13.2867 9.97671 13.3405 9.92292 13.4593 9.91171C13.7261 9.88705 13.9502 9.75928 14.1385 9.57099C14.7208 8.98868 14.7191 7.76861 14.187 7.30147L14.233 7.26041L14.1142 7.1271C14.1157 7.10966 14.1187 7.09125 14.1228 7.07162L14.1347 7.01532L14.1347 7.01527C14.1869 6.76729 14.2392 6.51918 14.2663 6.26913C14.3985 5.02505 14.1475 3.89305 13.2621 2.95831C12.5089 2.16255 11.5831 1.65595 10.543 1.34213C9.43568 1.00813 8.30143 0.949853 7.15823 1.03503C6.76371 1.06417 6.36919 1.1247 5.97915 1.20539C5.77068 1.24798 5.67654 1.34661 5.66981 1.56853C5.66561 1.71018 5.67017 1.85096 5.67473 1.9914V1.99141V1.99143V1.99144V1.99146C5.67746 2.07547 5.68018 2.15936 5.68102 2.24325C5.68102 2.35084 5.64964 2.41361 5.54653 2.4562C4.8337 2.74985 4.4347 3.30576 4.23744 4.02979C3.99759 4.90849 4.05139 5.79168 4.21502 6.67038C4.24605 6.83632 4.26166 6.97059 4.21345 7.09714L4.06327 7.25239L4.09158 7.27977C4.07043 7.30139 4.04666 7.32312 4.02001 7.34509C3.6479 7.64995 3.621 8.11844 3.65239 8.57348C3.70394 9.31321 4.12984 9.78394 4.85388 9.91619C4.95026 9.93412 4.98613 9.99016 5.01303 10.0686C5.44565 11.2724 6.16744 12.2676 7.16047 13.0701L7.16128 13.0708C7.21927 13.1176 7.27475 13.1624 7.26582 13.2472C7.20978 13.7628 7.12236 14.2716 6.8444 14.7244C6.79061 14.8118 6.74353 14.8432 6.64042 14.7737C6.35574 14.5854 6.22797 14.637 6.12485 14.9687C6.12082 14.9822 6.11618 14.9956 6.11154 15.0091C6.10071 15.0405 6.08989 15.0718 6.08675 15.1032C6.06882 15.2601 5.97691 15.3184 5.82672 15.352C4.63868 15.621 3.49099 15.9976 2.43521 16.623C1.82774 16.9839 1.32114 17.4277 1.11267 18.1428C0.96921 18.6337 0.863855 19.1313 0.7854 19.6357C0.627423 20.6625 0.568239 21.698 0.509044 22.7336L0.505202 22.8008C0.480544 23.2267 0.529859 23.2805 0.95576 23.2805ZM13.5531 7.26592C13.6696 6.89781 13.7443 6.53765 13.7821 6.16826C13.8897 5.06764 13.6566 4.07238 12.8631 3.25869C12.1951 2.575 11.3859 2.1222 10.478 1.84425C9.22721 1.46093 7.94951 1.42731 6.66508 1.60215C6.61119 1.60953 6.56291 1.61567 6.5197 1.62117C6.32631 1.64577 6.2343 1.65747 6.19362 1.7094C6.15671 1.75652 6.16208 1.83677 6.17232 1.98986C6.17586 2.04269 6.17998 2.10419 6.18314 2.176C6.23021 3.25196 6.70094 4.07238 7.68051 4.57674C8.46507 4.98022 9.31015 5.16403 10.1709 5.28059C11.5953 5.47453 12.74 6.05172 13.3641 7.43431L13.5531 7.26592ZM12.9649 7.79015C12.9497 7.74639 12.933 7.70265 12.9146 7.65892C12.4484 6.5583 11.5629 6.0248 10.4421 5.83202C10.3619 5.81825 10.2817 5.80466 10.2015 5.79108L10.2015 5.79107L10.2014 5.79107L10.2014 5.79107C9.39367 5.65427 8.58657 5.51758 7.82398 5.19541C7.71862 5.15058 7.65362 5.17524 7.59309 5.27163C7.4967 5.42406 7.36445 5.5451 7.22996 5.66391C7.05951 5.81516 6.86918 5.93913 6.67898 6.06301C6.49147 6.18514 6.3041 6.30718 6.13606 6.45518C5.71375 6.82751 5.32988 7.22104 5.20869 7.73668L5.76932 8.27902C5.9638 7.67905 6.52775 7.24448 7.19198 7.24448C7.8892 7.24448 8.47592 7.72329 8.64086 8.36959C8.88096 8.26305 9.19364 8.20445 9.51416 8.31971C9.67374 7.66576 10.2642 7.17948 10.9668 7.17948C11.6567 7.17948 12.2385 7.64832 12.4104 8.28437L12.9649 7.79015ZM12.4616 8.70592C12.4449 9.5164 11.7813 10.1698 10.9668 10.1698C10.1823 10.1698 9.53762 9.56349 9.47643 8.79451C9.14221 8.59965 8.82404 8.75898 8.68281 8.85381C8.62435 9.6255 7.97847 10.2348 7.19198 10.2348C6.39932 10.2348 5.74948 9.61589 5.69989 8.83561L5.17759 8.33035C5.19292 9.12126 5.39859 9.8312 5.73482 10.508C6.24814 11.5369 6.95424 12.3999 7.9495 12.9984C8.418 13.2786 8.92011 13.4624 9.48275 13.357C9.86158 13.2853 10.1978 13.1127 10.5072 12.893C11.7871 11.9762 12.6075 10.7433 12.9908 9.21906C13.0678 8.90973 13.1032 8.60119 13.074 8.29344L12.5278 8.78021L12.4616 8.70592ZM12.4035 22.7851H9.1622L9.16893 22.7874H3.58066C3.36098 22.7874 3.34305 22.765 3.36995 22.5475L3.53807 21.1465C3.55824 20.9874 3.50444 20.8618 3.33857 20.835C3.17045 20.8081 3.07854 20.9089 3.05837 21.0703L3.03358 21.2621L3.03358 21.2622L3.03358 21.2622L3.03357 21.2622L3.03357 21.2622C2.97653 21.7031 2.91929 22.1455 2.87232 22.5879C2.85662 22.7403 2.80058 22.7896 2.6504 22.7896C2.17294 22.7806 1.69548 22.7784 1.21803 22.7896C1.04094 22.7941 1.00283 22.7179 1.01628 22.5632C1.037 22.3193 1.05553 22.0753 1.07406 21.8313C1.1257 21.1512 1.17733 20.4712 1.27631 19.7949C1.33907 19.3757 1.42873 18.9632 1.52064 18.5485C1.66634 17.8895 2.05414 17.4322 2.62574 17.0915C3.59186 16.5132 4.64093 16.1568 5.72361 15.8833C5.86259 15.8474 5.88501 15.8855 5.8469 16.0155C5.72137 16.4549 5.60032 16.8942 5.47928 17.3358C5.38513 17.6743 5.48825 17.7998 5.83345 17.7595C5.94458 17.7463 6.05572 17.7335 6.16681 17.7208L6.16752 17.7207L6.16835 17.7206L6.16917 17.7206C6.47183 17.6859 6.77415 17.6513 7.07529 17.6071C7.23668 17.5824 7.33083 17.6272 7.41377 17.7685C7.78391 18.3905 8.15928 19.0099 8.5349 19.6297C8.65063 19.8207 8.76638 20.0117 8.882 20.2028L8.91102 20.251C8.94567 20.3089 8.98015 20.3664 9.01874 20.4225C9.16444 20.6354 9.35722 20.6354 9.48947 20.418C9.76974 19.9612 10.0477 19.5031 10.3258 19.0448L10.6461 18.5171C10.6934 18.4397 10.7416 18.3624 10.7898 18.285L10.7898 18.285C10.8992 18.1094 11.009 17.9333 11.1101 17.7528C11.1841 17.6228 11.2783 17.5869 11.4195 17.6048C11.7156 17.6415 12.0128 17.6762 12.3096 17.7109L12.3097 17.7109L12.3099 17.711L12.31 17.711L12.3102 17.711L12.3129 17.7113C12.4688 17.7295 12.6246 17.7477 12.7801 17.7662C13.0917 17.8043 13.2105 17.6586 13.1096 17.3538L13.1095 17.3534L13.1094 17.353L13.1093 17.3526L13.1091 17.3522L13.109 17.3519C12.959 16.8997 12.8091 16.4475 12.6613 15.9954C12.6568 15.9817 12.6497 15.9674 12.6426 15.9529C12.6217 15.9105 12.5999 15.8663 12.6367 15.8295C12.6705 15.794 12.717 15.8108 12.7619 15.8269L12.7619 15.8269L12.7619 15.8269L12.7619 15.8269C12.7765 15.8322 12.791 15.8374 12.8048 15.8407C13.8583 16.0895 14.8581 16.4549 15.7525 17.0825C16.2725 17.4479 16.5527 17.9455 16.6939 18.5485C16.871 19.3084 17.0212 20.0751 17.1198 20.8506C17.1675 21.2238 17.2064 21.5987 17.2454 21.9737L17.2454 21.9738L17.2454 21.9739L17.2454 21.974L17.2454 21.9741C17.2687 22.1982 17.2919 22.4223 17.3171 22.6461C17.3305 22.7605 17.2812 22.7851 17.1848 22.7851C17.0178 22.7851 16.8505 22.7849 16.6831 22.7846H16.6826C16.3468 22.7841 16.0104 22.7836 15.674 22.7851C15.5619 22.7874 15.5036 22.747 15.488 22.6305C15.4229 22.1463 15.3535 21.6599 15.284 21.1757C15.2825 21.164 15.2813 21.1523 15.28 21.1407C15.2755 21.0987 15.2711 21.0574 15.2571 21.0188C15.2122 20.8843 15.1203 20.8013 14.9724 20.8305C14.8267 20.8574 14.7594 20.9627 14.7729 21.1062C14.7886 21.2788 14.8132 21.4491 14.8379 21.6195L14.8575 21.7585L14.8575 21.7585C14.8955 22.0277 14.9332 22.2955 14.9791 22.5632C15.0083 22.7268 14.9679 22.7896 14.7908 22.7896C14.194 22.7829 13.5972 22.7837 13.0004 22.7846C12.8015 22.7848 12.6025 22.7851 12.4035 22.7851ZM7.72806 13.5802C7.72623 13.5362 7.7243 13.4898 7.79259 13.4915H7.79035C7.83614 13.5125 7.87991 13.5323 7.9225 13.5515C7.97999 13.5775 8.03536 13.6025 8.09072 13.6283C8.79907 13.9533 9.50516 13.9802 10.2157 13.6283C10.4377 13.5184 10.4421 13.5296 10.5184 13.774C10.6618 14.2424 10.8815 14.6706 11.22 15.027C11.3029 15.1167 11.2917 15.1593 11.2043 15.2287C10.5879 15.7174 9.97366 16.2106 9.3617 16.7059C9.28549 16.7687 9.22497 16.7597 9.15099 16.7037L9.15038 16.7032C8.52518 16.2237 7.89999 15.7442 7.27479 15.2669C7.19633 15.2063 7.16271 15.1503 7.22771 15.0517C7.51688 14.6168 7.64465 14.1259 7.72759 13.6193C7.72919 13.6075 7.72863 13.594 7.72806 13.5802ZM6.65163 5.48234C5.93432 5.92841 5.27754 6.43277 4.85388 7.25319L4.85163 7.25095C4.7418 6.87436 4.68352 6.54933 4.64541 6.22206C4.56247 5.49579 4.52212 4.76727 4.74852 4.05669C4.88974 3.6151 5.12511 3.24075 5.54204 3.00314C5.75275 2.8821 5.77517 2.88658 5.84017 3.11298C6.04864 3.83029 6.46782 4.39293 7.08874 4.8009C7.23892 4.89953 7.21427 4.97126 7.11339 5.07661C6.97217 5.2268 6.82871 5.3725 6.65163 5.48234ZM7.98537 17.5107C8.41127 17.4591 8.83717 17.4053 9.26083 17.3515C9.68001 17.4031 10.0925 17.4524 10.5072 17.5017C10.6215 17.5152 10.6551 17.5533 10.5856 17.6653C10.1642 18.3535 9.74501 19.0439 9.32808 19.7343C9.27204 19.8262 9.23393 19.8262 9.17789 19.7343C8.75872 19.0372 8.3373 18.3401 7.91364 17.6452C7.85312 17.5465 7.88898 17.5219 7.98537 17.5107ZM9.88447 16.9212C10.7271 17.0243 11.5205 17.1207 12.3139 17.2148C12.5223 17.2394 12.5425 17.2103 12.4775 17.0153L12.4769 17.0136L12.4764 17.0119C12.3288 16.5669 12.1812 16.122 12.0337 15.6793C11.9104 15.305 11.9081 15.3027 11.6055 15.5448C11.0437 15.9924 10.482 16.4423 9.88447 16.9212ZM8.5724 16.8984C8.57496 16.9066 8.57824 16.917 8.58387 16.9301C8.2635 16.969 7.94641 17.0083 7.63113 17.0474C7.16552 17.105 6.70387 17.1622 6.24142 17.217C6.0195 17.2439 6.01726 17.2394 6.07778 17.0175C6.19175 16.6039 6.30723 16.1918 6.42298 15.7788L6.42304 15.7785L6.4992 15.5067C6.50175 15.4971 6.50405 15.4867 6.50639 15.4762C6.52255 15.4034 6.54059 15.3222 6.65611 15.4103C6.97306 15.6545 7.29057 15.8986 7.60808 16.1428L7.60889 16.1434C7.9266 16.3877 8.24431 16.632 8.56146 16.8763C8.56667 16.8802 8.56885 16.8871 8.5724 16.8984ZM4.14774 8.31626L4.14778 8.31346V8.31794L4.14774 8.31626ZM4.32486 7.74185C4.19972 7.92733 4.14364 8.13509 4.14774 8.31626C4.14368 8.61757 4.20645 8.85886 4.33159 9.08232C4.41228 9.22578 4.53333 9.32665 4.688 9.38494C4.75749 9.41184 4.81129 9.40735 4.79111 9.31096C4.7591 9.14291 4.73913 8.9725 4.71917 8.80217V8.80217C4.67764 8.44769 4.63615 8.09361 4.48626 7.76203C4.48339 7.75548 4.48053 7.74841 4.47759 7.74117C4.46446 7.70876 4.44996 7.67297 4.42798 7.66564C4.38371 7.65024 4.35763 7.69102 4.33553 7.72556C4.33188 7.73126 4.32835 7.73678 4.32486 7.74185ZM13.9345 7.79565C13.6162 8.28656 13.5355 8.82902 13.484 9.38045C14.0085 9.33338 14.2708 8.28656 13.9345 7.79565ZM6.14516 8.74186C6.14516 8.16353 6.61589 7.69504 7.19198 7.69504C7.77031 7.69504 8.2388 8.16353 8.2388 8.74186C8.2388 9.32019 7.77031 9.78868 7.19198 9.78868C6.61365 9.78868 6.14516 9.32019 6.14516 8.74186ZM10.9668 7.63003C10.3907 7.63003 9.91999 8.09853 9.91999 8.67686C9.91999 9.25518 10.3885 9.72367 10.9668 9.72367C11.5451 9.72367 12.0136 9.25518 12.0136 8.67686C12.0136 8.09853 11.5451 7.63003 10.9668 7.63003Z" fill="#1C4481"/>
<path d="M9.15099 23.2805V23.5805H9.45099V23.2805H9.15099ZM9.15099 23.2783V22.9783H8.85099V23.2783H9.15099ZM17.8304 22.8793L17.5311 22.8989L17.5311 22.8998L17.8304 22.8793ZM17.7116 21.6531L17.4135 21.6869L17.4136 21.6875L17.7116 21.6531ZM17.1624 18.3625L16.871 18.4336L16.8711 18.4342L17.1624 18.3625ZM15.934 16.6006L15.7664 16.8494L15.7664 16.8494L15.934 16.6006ZM12.8832 15.3475L12.8182 15.6404L12.8186 15.6405L12.8832 15.3475ZM12.2735 14.8499L11.9788 14.9061L11.979 14.907L12.2735 14.8499ZM11.8297 14.7311L11.6442 14.4953L11.6429 14.4963L11.8297 14.7311ZM11.601 14.7132L11.3796 14.9156L11.3804 14.9164L11.601 14.7132ZM10.9196 13.3413L11.2127 13.2773L11.2126 13.277L10.9196 13.3413ZM11.0138 13.1396L10.8285 12.9036L10.8263 12.9053L11.0138 13.1396ZM13.2486 10.0821L13.5295 10.1874L13.5307 10.1841L13.2486 10.0821ZM13.4593 9.91171L13.4317 9.61298L13.4311 9.61303L13.4593 9.91171ZM14.1385 9.57099L13.9264 9.35886L13.9264 9.35886L14.1385 9.57099ZM14.187 7.30147L13.9874 7.07751L13.7342 7.30317L13.989 7.52692L14.187 7.30147ZM14.233 7.26041L14.4326 7.48437L14.6566 7.28476L14.457 7.0608L14.233 7.26041ZM14.1142 7.1271L13.8153 7.10107L13.8041 7.23006L13.8903 7.32671L14.1142 7.1271ZM14.1228 7.07162L13.8293 7.00983L13.8292 7.01016L14.1228 7.07162ZM14.1347 7.01532L13.8426 6.94659L13.8411 6.95353L14.1347 7.01532ZM14.1347 7.01527L14.4268 7.084L14.4282 7.07711L14.1347 7.01527ZM14.2663 6.26913L14.5645 6.30144L14.5646 6.30085L14.2663 6.26913ZM13.2621 2.95831L13.0442 3.16453L13.0443 3.16462L13.2621 2.95831ZM10.543 1.34213L10.6297 1.05492L10.6296 1.05491L10.543 1.34213ZM7.15823 1.03503L7.18032 1.33422L7.18052 1.3342L7.15823 1.03503ZM5.97915 1.20539L6.0392 1.49932L6.03993 1.49917L5.97915 1.20539ZM5.66981 1.56853L5.36995 1.55944L5.36995 1.55962L5.66981 1.56853ZM5.67473 1.9914L5.97489 1.9914L5.97458 1.98167L5.67473 1.9914ZM5.67473 1.99146L5.37458 1.99146L5.37489 2.00119L5.67473 1.99146ZM5.68102 2.24325L5.98104 2.24325L5.98101 2.24025L5.68102 2.24325ZM5.54653 2.4562L5.6608 2.73358L5.66105 2.73348L5.54653 2.4562ZM4.23744 4.02979L4.52685 4.10879L4.52689 4.10865L4.23744 4.02979ZM4.21502 6.67038L3.9201 6.7253L3.92014 6.72552L4.21502 6.67038ZM4.21345 7.09714L4.42907 7.30573L4.47188 7.26147L4.4938 7.20393L4.21345 7.09714ZM4.06327 7.25239L3.84765 7.0438L3.63906 7.25942L3.85468 7.46801L4.06327 7.25239ZM4.09158 7.27977L4.306 7.48959L4.51703 7.27394L4.30017 7.06415L4.09158 7.27977ZM4.02001 7.34509L4.21013 7.57716L4.21086 7.57656L4.02001 7.34509ZM3.65239 8.57348L3.3531 8.59412L3.35311 8.59434L3.65239 8.57348ZM4.85388 9.91619L4.90875 9.62125L4.90778 9.62107L4.85388 9.91619ZM5.01303 10.0686L4.72921 10.1659L4.73071 10.1701L5.01303 10.0686ZM7.16047 13.0701L6.9719 13.3034L6.97212 13.3036L7.16047 13.0701ZM7.16128 13.0708L7.34977 12.8374L7.34962 12.8372L7.16128 13.0708ZM7.26582 13.2472L7.56407 13.2796L7.56417 13.2786L7.26582 13.2472ZM6.8444 14.7244L7.0999 14.8816L7.10007 14.8813L6.8444 14.7244ZM6.64042 14.7737L6.80808 14.5249L6.80592 14.5235L6.64042 14.7737ZM6.12485 14.9687L5.83836 14.8797L5.83751 14.8825L6.12485 14.9687ZM6.11154 15.0091L6.39514 15.1069L6.39514 15.1069L6.11154 15.0091ZM6.08675 15.1032L6.38484 15.1373L6.38526 15.1331L6.08675 15.1032ZM5.82672 15.352L5.76118 15.0593L5.76048 15.0594L5.82672 15.352ZM2.43521 16.623L2.28231 16.3649L2.28198 16.3651L2.43521 16.623ZM1.11267 18.1428L1.40063 18.227L1.40068 18.2268L1.11267 18.1428ZM0.7854 19.6357L0.488965 19.5896L0.488888 19.5901L0.7854 19.6357ZM0.509044 22.7336L0.808555 22.7507L0.808556 22.7507L0.509044 22.7336ZM0.505202 22.8008L0.8047 22.8182L0.804713 22.8179L0.505202 22.8008ZM13.7821 6.16826L14.0806 6.1988L14.0807 6.19745L13.7821 6.16826ZM13.5531 7.26592L13.7527 7.48988L13.8142 7.43505L13.8391 7.3565L13.5531 7.26592ZM12.8631 3.25869L13.0778 3.04923L13.0776 3.04903L12.8631 3.25869ZM10.478 1.84425L10.3901 2.13108L10.3902 2.1311L10.478 1.84425ZM6.66508 1.60215L6.62461 1.3049L6.62439 1.30493L6.66508 1.60215ZM6.5197 1.62117L6.48185 1.32357L6.48185 1.32357L6.5197 1.62117ZM6.19362 1.7094L5.95746 1.52439L5.95746 1.52439L6.19362 1.7094ZM6.17232 1.98986L5.87299 2.00989L5.87299 2.00989L6.17232 1.98986ZM6.18314 2.176L6.48285 2.16289L6.48285 2.16281L6.18314 2.176ZM7.68051 4.57674L7.54319 4.84346L7.54331 4.84352L7.68051 4.57674ZM10.1709 5.28059L10.2114 4.98334L10.2112 4.98331L10.1709 5.28059ZM13.3641 7.43431L13.0907 7.55774L13.2588 7.93008L13.5637 7.65827L13.3641 7.43431ZM12.9649 7.79015L13.1645 8.01411L13.3139 7.88097L13.2483 7.69191L12.9649 7.79015ZM12.9146 7.65892L13.1912 7.54276L13.1909 7.5419L12.9146 7.65892ZM10.4421 5.83202L10.493 5.53637L10.4929 5.53635L10.4421 5.83202ZM10.2015 5.79108L10.2516 5.49519L10.2439 5.49409L10.2015 5.79108ZM10.2014 5.79107L10.1513 6.08695L10.159 6.08805L10.2014 5.79107ZM7.82398 5.19541L7.70651 5.47146L7.70723 5.47177L7.82398 5.19541ZM7.59309 5.27163L7.84665 5.43197L7.84716 5.43116L7.59309 5.27163ZM7.22996 5.66391L7.03135 5.43906L7.03083 5.43952L7.22996 5.66391ZM6.67898 6.06301L6.51525 5.81163L6.51525 5.81163L6.67898 6.06301ZM6.13606 6.45518L5.93777 6.23006L5.93767 6.23015L6.13606 6.45518ZM5.20869 7.73668L4.91665 7.66804L4.87767 7.83386L5.0001 7.9523L5.20869 7.73668ZM5.76932 8.27902L5.56073 8.49464L5.90639 8.82902L6.0547 8.37153L5.76932 8.27902ZM8.64086 8.36959L8.35017 8.44377L8.43797 8.78784L8.76254 8.64381L8.64086 8.36959ZM9.51416 8.31971L9.41264 8.60201L9.72653 8.71489L9.80561 8.39083L9.51416 8.31971ZM12.4104 8.28437L12.1208 8.36264L12.2475 8.83144L12.61 8.50833L12.4104 8.28437ZM12.4616 8.70592L12.6856 8.50631L12.1774 7.93616L12.1617 8.69974L12.4616 8.70592ZM9.47643 8.79451L9.77548 8.77071L9.76304 8.61435L9.62753 8.53534L9.47643 8.79451ZM8.68281 8.85381L8.51557 8.60475L8.39467 8.68594L8.38367 8.83115L8.68281 8.85381ZM5.69989 8.83561L5.99928 8.81658L5.99192 8.70071L5.90847 8.61999L5.69989 8.83561ZM5.17759 8.33035L5.38617 8.11473L4.86355 7.60916L4.87764 8.33616L5.17759 8.33035ZM5.73482 10.508L5.46615 10.6414L5.46637 10.6419L5.73482 10.508ZM7.9495 12.9984L7.7949 13.2555L7.79552 13.2558L7.9495 12.9984ZM9.48275 13.357L9.53796 13.6519L9.53856 13.6518L9.48275 13.357ZM10.5072 12.893L10.6809 13.1376L10.6818 13.1369L10.5072 12.893ZM12.9908 9.21906L13.2818 9.29222L13.2819 9.29153L12.9908 9.21906ZM13.074 8.29344L13.3727 8.26514L13.3168 7.6752L12.8744 8.06948L13.074 8.29344ZM12.5278 8.78021L12.3039 8.97982L12.5035 9.20378L12.7275 9.00417L12.5278 8.78021ZM9.1622 22.7851V22.4851L9.06735 23.0697L9.1622 22.7851ZM9.16893 22.7874V23.0874L9.26378 22.5028L9.16893 22.7874ZM3.36995 22.5475L3.66768 22.5844L3.66781 22.5833L3.36995 22.5475ZM3.53807 21.1465L3.24044 21.1088L3.2402 21.1108L3.53807 21.1465ZM3.33857 20.835L3.38659 20.5388L3.38596 20.5387L3.33857 20.835ZM3.05837 21.0703L3.3559 21.1088L3.35605 21.1075L3.05837 21.0703ZM3.03358 21.2621L2.73605 21.2237L2.7359 21.2249L3.03358 21.2621ZM3.03357 21.2622L3.3311 21.3007L3.33126 21.2994L3.03357 21.2622ZM2.87232 22.5879L2.57399 22.5562L2.57389 22.5571L2.87232 22.5879ZM2.6504 22.7896L2.64476 23.0896H2.6504V22.7896ZM1.21803 22.7896L1.21099 22.4897L1.21043 22.4897L1.21803 22.7896ZM1.01628 22.5632L1.31516 22.5892L1.31521 22.5886L1.01628 22.5632ZM1.07406 21.8313L0.77492 21.8086L0.77492 21.8086L1.07406 21.8313ZM1.27631 19.7949L0.979613 19.7504L0.979469 19.7514L1.27631 19.7949ZM1.52064 18.5485L1.81353 18.6134L1.81357 18.6133L1.52064 18.5485ZM2.62574 17.0915L2.77935 17.3492L2.77983 17.3489L2.62574 17.0915ZM5.72361 15.8833L5.79708 16.1742L5.79858 16.1738L5.72361 15.8833ZM5.8469 16.0155L5.559 15.9312L5.55844 15.9331L5.8469 16.0155ZM5.47928 17.3358L5.76831 17.4162L5.76861 17.4151L5.47928 17.3358ZM5.83345 17.7595L5.86828 18.0575L5.86887 18.0574L5.83345 17.7595ZM6.16681 17.7208L6.13322 17.4227L6.13268 17.4228L6.16681 17.7208ZM6.16752 17.7207L6.20111 18.0189L6.2027 18.0187L6.16752 17.7207ZM6.16835 17.7206L6.1333 17.4227L6.13318 17.4227L6.16835 17.7206ZM6.16917 17.7206L6.13504 17.4225L6.13412 17.4226L6.16917 17.7206ZM7.07529 17.6071L7.11884 17.9039L7.1206 17.9036L7.07529 17.6071ZM7.41377 17.7685L7.15508 17.9204L7.15596 17.9219L7.41377 17.7685ZM8.5349 19.6297L8.79146 19.4742L8.79146 19.4742L8.5349 19.6297ZM8.882 20.2028L9.13906 20.0482L9.13869 20.0475L8.882 20.2028ZM8.91102 20.251L9.16833 20.0968L9.16807 20.0964L8.91102 20.251ZM9.01874 20.4225L9.26633 20.2531L9.26595 20.2525L9.01874 20.4225ZM9.48947 20.418L9.23376 20.2611L9.23316 20.2621L9.48947 20.418ZM10.3258 19.0448L10.0694 18.8891L10.0693 18.8892L10.3258 19.0448ZM10.6461 18.5171L10.3901 18.3608L10.3897 18.3615L10.6461 18.5171ZM10.7898 18.285L11.0444 18.4437L11.0458 18.4415L10.7898 18.285ZM10.7898 18.285L10.5352 18.1263L10.5338 18.1286L10.7898 18.285ZM11.1101 17.7528L10.8494 17.6044L10.8484 17.6061L11.1101 17.7528ZM11.4195 17.6048L11.3817 17.9024L11.3826 17.9026L11.4195 17.6048ZM12.3096 17.7109L12.2748 18.0089L12.2752 18.0089L12.3096 17.7109ZM12.3102 17.711L12.3449 17.413L12.3446 17.413L12.3102 17.711ZM12.3129 17.7113L12.3477 17.4133L12.3477 17.4133L12.3129 17.7113ZM12.7801 17.7662L12.8165 17.4684L12.8155 17.4683L12.7801 17.7662ZM13.1096 17.3538L12.8246 17.4474L12.8248 17.448L13.1096 17.3538ZM13.109 17.3519L13.394 17.2583L13.3937 17.2574L13.109 17.3519ZM12.6613 15.9954L12.9465 15.9022L12.9459 15.9005L12.6613 15.9954ZM12.6426 15.9529L12.3735 16.0855L12.3735 16.0855L12.6426 15.9529ZM12.6367 15.8295L12.8489 16.0417L12.8539 16.0364L12.6367 15.8295ZM12.7619 15.8269L12.6602 16.1093L12.667 16.1115L12.7619 15.8269ZM12.7619 15.8269L12.8636 15.5446L12.8568 15.5423L12.7619 15.8269ZM12.8048 15.8407L12.7348 16.1324L12.7358 16.1327L12.8048 15.8407ZM15.7525 17.0825L15.9249 16.8371L15.9248 16.837L15.7525 17.0825ZM16.6939 18.5485L16.9861 18.4804L16.986 18.4801L16.6939 18.5485ZM17.1198 20.8506L16.8222 20.8885L16.8222 20.8887L17.1198 20.8506ZM17.2454 21.9737L17.544 21.9452L17.5438 21.9427L17.2454 21.9737ZM17.2454 21.9741L16.9467 22.0026L16.947 22.0051L17.2454 21.9741ZM17.3171 22.6461L17.019 22.6797L17.0191 22.6812L17.3171 22.6461ZM16.6831 22.7846L16.6835 22.4846H16.6831V22.7846ZM16.6826 22.7846L16.6821 23.0846H16.6826V22.7846ZM15.674 22.7851L15.6727 22.4851L15.668 22.4852L15.674 22.7851ZM15.488 22.6305L15.1906 22.6704L15.1906 22.6705L15.488 22.6305ZM15.284 21.1757L14.9862 21.2129L14.987 21.2183L15.284 21.1757ZM15.28 21.1407L15.5783 21.1088L15.5783 21.1088L15.28 21.1407ZM15.2571 21.0188L14.9724 21.1137L14.9751 21.1213L15.2571 21.0188ZM14.9724 20.8305L15.0269 21.1255L15.0304 21.1248L14.9724 20.8305ZM14.7729 21.1062L15.0717 21.079L15.0716 21.0782L14.7729 21.1062ZM14.8379 21.6195L15.1349 21.5775L15.1348 21.5765L14.8379 21.6195ZM14.8575 21.7585L15.1549 21.7188L15.1546 21.7165L14.8575 21.7585ZM14.8575 21.7585L14.5602 21.7982L14.5605 21.8004L14.8575 21.7585ZM14.9791 22.5632L14.6834 22.6139L14.6838 22.6158L14.9791 22.5632ZM14.7908 22.7896L14.7874 23.0896H14.7908V22.7896ZM13.0004 22.7846L13.0008 23.0846L13.0008 23.0846L13.0004 22.7846ZM7.79259 13.4915V13.7915L7.80009 13.1916L7.79259 13.4915ZM7.72806 13.5802L7.42832 13.5927L7.42832 13.5927L7.72806 13.5802ZM7.79035 13.4915V13.1915L7.66536 13.7642L7.79035 13.4915ZM7.9225 13.5515L7.79899 13.8249L7.79899 13.8249L7.9225 13.5515ZM8.09072 13.6283L7.9642 13.9003L7.96561 13.9009L8.09072 13.6283ZM10.2157 13.6283L10.0827 13.3594L10.0826 13.3594L10.2157 13.6283ZM10.5184 13.774L10.8052 13.6861L10.8048 13.6846L10.5184 13.774ZM11.22 15.027L11.4402 14.8233L11.4375 14.8204L11.22 15.027ZM11.2043 15.2287L11.3906 15.4638L11.391 15.4636L11.2043 15.2287ZM9.3617 16.7059L9.17294 16.4728L9.17099 16.4744L9.3617 16.7059ZM9.15099 16.7037L8.96851 16.9418L8.96984 16.9428L9.15099 16.7037ZM9.15038 16.7032L8.9678 16.9413L8.9679 16.9414L9.15038 16.7032ZM7.27479 15.2669L7.09154 15.5044L7.09274 15.5053L7.27479 15.2669ZM7.22771 15.0517L6.9779 14.8855L6.97723 14.8866L7.22771 15.0517ZM7.72759 13.6193L8.02375 13.6678L8.02484 13.6598L7.72759 13.6193ZM4.85388 7.25319L4.64174 7.46532L4.93206 7.75563L5.12043 7.39084L4.85388 7.25319ZM6.65163 5.48234L6.4935 5.22739L6.4932 5.22758L6.65163 5.48234ZM4.85163 7.25095L4.56363 7.33495L4.58516 7.40873L4.6395 7.46308L4.85163 7.25095ZM4.64541 6.22206L4.34735 6.2561L4.34742 6.25676L4.64541 6.22206ZM4.74852 4.05669L4.46278 3.96531L4.46268 3.96562L4.74852 4.05669ZM5.54204 3.00314L5.69058 3.26379L5.69148 3.26328L5.54204 3.00314ZM5.84017 3.11298L5.55182 3.19578L5.55209 3.19671L5.84017 3.11298ZM7.08874 4.8009L6.924 5.05162L6.92406 5.05166L7.08874 4.8009ZM7.11339 5.07661L6.89669 4.86913L6.89484 4.8711L7.11339 5.07661ZM9.26083 17.3515L9.29746 17.0538L9.26024 17.0492L9.22304 17.0539L9.26083 17.3515ZM7.98537 17.5107L8.02002 17.8087L8.02142 17.8085L7.98537 17.5107ZM10.5072 17.5017L10.4717 17.7996L10.4721 17.7997L10.5072 17.5017ZM10.5856 17.6653L10.3306 17.5073L10.3298 17.5087L10.5856 17.6653ZM9.32808 19.7343L9.58422 19.8905L9.58489 19.8894L9.32808 19.7343ZM9.17789 19.7343L8.92079 19.8889L8.92175 19.8905L9.17789 19.7343ZM7.91364 17.6452L8.16979 17.489L8.16934 17.4883L7.91364 17.6452ZM12.3139 17.2148L12.2785 17.5127L12.2786 17.5127L12.3139 17.2148ZM9.88447 16.9212L9.69685 16.6871L9.14115 17.1325L9.84804 17.219L9.88447 16.9212ZM12.4775 17.0153L12.1928 17.1097L12.1929 17.1102L12.4775 17.0153ZM12.4764 17.0119L12.1916 17.1063L12.1916 17.1063L12.4764 17.0119ZM12.0337 15.6793L11.7487 15.7732L11.7491 15.7742L12.0337 15.6793ZM11.6055 15.5448L11.7925 15.7794L11.7929 15.7791L11.6055 15.5448ZM8.58387 16.9301L8.62005 17.2279L9.01721 17.1797L8.85962 16.8119L8.58387 16.9301ZM8.5724 16.8984L8.28625 16.9885L8.28626 16.9886L8.5724 16.8984ZM7.63113 17.0474L7.66801 17.3451L7.66801 17.3451L7.63113 17.0474ZM6.24142 17.217L6.20612 16.9191L6.20532 16.9192L6.24142 17.217ZM6.07778 17.0175L5.78856 16.9378L5.78835 16.9386L6.07778 17.0175ZM6.42298 15.7788L6.13424 15.6973L6.13411 15.6978L6.42298 15.7788ZM6.42304 15.7785L6.71178 15.86L6.71192 15.8595L6.42304 15.7785ZM6.4992 15.5067L6.78811 15.5876L6.78921 15.5835L6.4992 15.5067ZM6.50639 15.4762L6.21353 15.4111L6.21353 15.4111L6.50639 15.4762ZM6.65611 15.4103L6.83919 15.1726L6.83805 15.1718L6.65611 15.4103ZM7.60808 16.1428L7.79115 15.9051L7.79095 15.9049L7.60808 16.1428ZM7.60889 16.1434L7.42581 16.3811L7.42601 16.3812L7.60889 16.1434ZM8.56146 16.8763L8.37837 17.114L8.38145 17.1163L8.56146 16.8763ZM4.14778 8.31346H4.44778L3.84781 8.30923L4.14778 8.31346ZM4.14778 8.31794L3.84786 8.32502L4.44778 8.31794H4.14778ZM4.32486 7.74185L4.07764 7.57189L4.07617 7.57406L4.32486 7.74185ZM4.33159 9.08232L4.06983 9.2289L4.07011 9.2294L4.33159 9.08232ZM4.688 9.38494L4.7963 9.10515L4.79378 9.10421L4.688 9.38494ZM4.79111 9.31096L4.49636 9.36711L4.49747 9.37242L4.79111 9.31096ZM4.71917 8.80217H4.41917V8.81969L4.42121 8.83709L4.71917 8.80217ZM4.71917 8.80217H5.01917V8.78465L5.01714 8.76725L4.71917 8.80217ZM4.48626 7.76203L4.21139 7.88228L4.21289 7.8856L4.48626 7.76203ZM4.47759 7.74117L4.19955 7.85382L4.19955 7.85382L4.47759 7.74117ZM4.42798 7.66564L4.32941 7.94901L4.33311 7.95025L4.42798 7.66564ZM4.33553 7.72556L4.08282 7.56389L4.08282 7.56389L4.33553 7.72556ZM13.9345 7.79565L14.182 7.62613L13.9277 7.25478L13.6828 7.63244L13.9345 7.79565ZM13.484 9.38045L13.1853 9.35253L13.1517 9.71148L13.5108 9.67925L13.484 9.38045ZM9.15099 22.9805H0.95576V23.5805H9.15099V22.9805ZM8.85099 23.2783V23.2805H9.45099V23.2783H8.85099ZM12.5515 22.9783H9.15099V23.5783H12.5515V22.9783ZM17.4449 22.9783H12.5515V23.5783H17.4449V22.9783ZM17.5311 22.8998C17.5361 22.9729 17.5336 23.0103 17.5306 23.0273C17.5283 23.0403 17.53 23.0172 17.556 22.9909C17.5808 22.9657 17.6009 22.9649 17.5823 22.9691C17.561 22.9738 17.5201 22.9783 17.4449 22.9783V23.5783C17.5343 23.5783 17.6268 23.5738 17.7123 23.5548C17.8003 23.5353 17.9004 23.4961 17.9833 23.4121C18.1456 23.2474 18.1404 23.0144 18.1297 22.8588L17.5311 22.8998ZM17.4136 21.6875C17.4606 22.0951 17.5047 22.4967 17.5311 22.8989L18.1298 22.8596C18.1023 22.4414 18.0567 22.027 18.0096 21.6187L17.4136 21.6875ZM16.8711 18.4342C17.1333 19.4985 17.2885 20.5843 17.4135 21.6869L18.0097 21.6193C17.8836 20.5073 17.725 19.3919 17.4537 18.2907L16.8711 18.4342ZM15.7664 16.8494C16.35 17.2425 16.7049 17.753 16.871 18.4336L17.4539 18.2914C17.2524 17.4657 16.8092 16.8284 16.1016 16.3518L15.7664 16.8494ZM12.8186 15.6405C13.8789 15.8744 14.8704 16.2456 15.7664 16.8494L16.1017 16.3518C15.1282 15.6958 14.0619 15.3004 12.9479 15.0546L12.8186 15.6405ZM11.979 14.907C12.0271 15.1551 12.1438 15.3362 12.3236 15.457C12.483 15.5641 12.6722 15.608 12.8182 15.6404L12.9483 15.0547C12.7916 15.0199 12.7107 14.9943 12.6583 14.959C12.6262 14.9375 12.5895 14.9033 12.568 14.7929L11.979 14.907ZM12.0152 14.9669C12.0418 14.9459 12.0594 14.9389 12.0651 14.9371C12.0706 14.9354 12.0595 14.9401 12.0376 14.9346C12.0267 14.9319 12.0153 14.9272 12.0046 14.9204C11.9939 14.9136 11.9861 14.9061 11.981 14.8998C11.9709 14.8875 11.9748 14.8849 11.9788 14.9061L12.5682 14.7938C12.5308 14.5971 12.4077 14.4081 12.1816 14.3522C11.9774 14.3017 11.7837 14.3856 11.6442 14.4953L12.0152 14.9669ZM11.3804 14.9164C11.4248 14.9646 11.5232 15.0659 11.6768 15.0819C11.8354 15.0984 11.9544 15.0152 12.0164 14.9659L11.6429 14.4963C11.629 14.5074 11.6304 14.5041 11.6439 14.4982C11.6606 14.491 11.6945 14.4805 11.7388 14.4851C11.7825 14.4897 11.8121 14.5063 11.8244 14.5147C11.8343 14.5214 11.8342 14.5236 11.8217 14.5099L11.3804 14.9164ZM10.6265 13.4053C10.7475 13.9593 10.9784 14.4768 11.3796 14.9156L11.8225 14.5108C11.5064 14.165 11.3159 13.75 11.2127 13.2773L10.6265 13.4053ZM10.8263 12.9053C10.7844 12.9389 10.7177 12.9964 10.6708 13.082C10.6172 13.1798 10.6014 13.2911 10.6266 13.4057L11.2126 13.277C11.2143 13.2847 11.2163 13.2998 11.2135 13.3197C11.2107 13.3398 11.2042 13.3572 11.197 13.3703C11.1904 13.3824 11.1847 13.3882 11.1852 13.3876C11.186 13.3868 11.1902 13.3826 11.2012 13.3739L10.8263 12.9053ZM12.9677 9.97679C12.5273 11.1519 11.816 12.1287 10.8285 12.9036L11.199 13.3756C12.2738 12.5321 13.0509 11.4645 13.5295 10.1873L12.9677 9.97679ZM13.4311 9.61303C13.3304 9.62254 13.2228 9.65387 13.1297 9.73271C13.0403 9.80848 12.9943 9.90327 12.9665 9.98003L13.5307 10.1841C13.5411 10.1555 13.5409 10.1707 13.5177 10.1905C13.5059 10.2004 13.4941 10.2065 13.4857 10.2096C13.4785 10.2123 13.4776 10.2113 13.4875 10.2104L13.4311 9.61303ZM13.9264 9.35886C13.775 9.51021 13.6129 9.59624 13.4317 9.61298L13.4869 10.2104C13.8393 10.1779 14.1254 10.0084 14.3507 9.78312L13.9264 9.35886ZM13.989 7.52692C14.1641 7.68062 14.2859 8.00061 14.2807 8.38902C14.2756 8.77156 14.1471 9.13817 13.9264 9.35886L14.3507 9.78312C14.7123 9.42149 14.8741 8.88692 14.8806 8.39706C14.8871 7.91308 14.7419 7.38946 14.3849 7.07602L13.989 7.52692ZM14.3866 7.52542L14.4326 7.48437L14.0334 7.03645L13.9874 7.07751L14.3866 7.52542ZM14.457 7.0608L14.3382 6.92749L13.8903 7.32671L14.0091 7.46002L14.457 7.0608ZM13.8292 7.01016C13.8235 7.03757 13.8182 7.06832 13.8153 7.10107L14.4131 7.15312C14.4133 7.151 14.414 7.14492 14.4165 7.13308L13.8292 7.01016ZM13.8411 6.95353L13.8293 7.00983L14.4164 7.13341L14.4282 7.07711L13.8411 6.95353ZM13.8427 6.94656L13.8427 6.94661L14.4267 7.08403L14.4267 7.08398L13.8427 6.94656ZM13.968 6.23682C13.9428 6.46948 13.8939 6.70291 13.8411 6.95343L14.4282 7.07711C14.48 6.83168 14.5356 6.56889 14.5645 6.30144L13.968 6.23682ZM13.0443 3.16462C13.8548 4.02027 14.0934 5.05716 13.968 6.23742L14.5646 6.30085C14.7036 4.99295 14.4402 3.76584 13.4799 2.752L13.0443 3.16462ZM10.4564 1.62934C11.457 1.93127 12.3339 2.41406 13.0442 3.16453L13.4799 2.75209C12.6839 1.91104 11.7092 1.38064 10.6297 1.05492L10.4564 1.62934ZM7.18052 1.3342C8.29949 1.25083 9.39459 1.30909 10.4564 1.62935L10.6296 1.05491C9.47676 0.707176 8.30338 0.648877 7.13593 0.735863L7.18052 1.3342ZM6.03993 1.49917C6.42002 1.42053 6.80138 1.36221 7.18032 1.33422L7.13613 0.735848C6.72603 0.76614 6.31836 0.82886 5.91837 0.911616L6.03993 1.49917ZM5.96968 1.57762C5.97188 1.50482 5.98706 1.50301 5.97474 1.51711C5.96404 1.52936 5.96627 1.51422 6.0392 1.49932L5.9191 0.911465C5.78357 0.939154 5.63449 0.99463 5.52292 1.12232C5.40973 1.25186 5.37447 1.41032 5.36995 1.55944L5.96968 1.57762ZM5.97458 1.98167C5.96997 1.83971 5.9658 1.70823 5.96968 1.57744L5.36995 1.55962C5.36542 1.71213 5.37038 1.8622 5.37489 2.00113L5.97458 1.98167ZM5.97473 1.99141V1.9914H5.37473V1.99141H5.97473ZM5.97473 1.99143V1.99141H5.37473V1.99143H5.97473ZM5.97473 1.99144V1.99143H5.37473V1.99144H5.97473ZM5.97473 1.99146V1.99144H5.37473V1.99146H5.97473ZM5.98101 2.24025C5.98013 2.15243 5.97728 2.06517 5.97458 1.98173L5.37489 2.00119C5.37764 2.08576 5.38024 2.16629 5.38104 2.24625L5.98101 2.24025ZM5.66105 2.73348C5.75119 2.69625 5.84563 2.63493 5.9095 2.52876C5.97041 2.42752 5.98102 2.32203 5.98102 2.24325H5.38102C5.38102 2.27206 5.37594 2.25175 5.39538 2.21944C5.40534 2.20288 5.41724 2.19076 5.42696 2.1832C5.43558 2.17651 5.4392 2.17595 5.432 2.17892L5.66105 2.73348ZM4.52689 4.10865C4.70546 3.45321 5.05242 2.9842 5.6608 2.73358L5.43226 2.17881C4.61498 2.51549 4.16394 3.15831 3.94799 3.95093L4.52689 4.10865ZM4.50995 6.61545C4.35043 5.75883 4.30374 4.92618 4.52685 4.10879L3.94803 3.95079C3.69145 4.8908 3.75235 5.82452 3.9201 6.7253L4.50995 6.61545ZM4.4938 7.20393C4.57513 6.99042 4.54059 6.77927 4.50991 6.61524L3.92014 6.72552C3.95152 6.89337 3.94818 6.95075 3.9331 6.99035L4.4938 7.20393ZM4.27889 7.46097L4.42907 7.30573L3.99783 6.88856L3.84765 7.0438L4.27889 7.46097ZM4.30017 7.06415L4.27186 7.03677L3.85468 7.46801L3.883 7.49539L4.30017 7.06415ZM4.21086 7.57656C4.24481 7.54856 4.27658 7.51965 4.306 7.48959L3.87716 7.06995C3.86428 7.08312 3.8485 7.09768 3.82915 7.11363L4.21086 7.57656ZM3.95168 8.55284C3.92049 8.10068 3.9645 7.7784 4.21013 7.57716L3.82988 7.11303C3.33131 7.5215 3.32152 8.1362 3.3531 8.59412L3.95168 8.55284ZM4.90778 9.62107C4.59831 9.56454 4.37525 9.44056 4.22423 9.27227C4.0733 9.10409 3.97369 8.86869 3.95166 8.55262L3.35311 8.59434C3.38264 9.018 3.52175 9.38783 3.77768 9.67301C4.0335 9.95808 4.38541 10.1356 4.79997 10.2113L4.90778 9.62107ZM5.29681 9.97132C5.27869 9.91847 5.24629 9.83713 5.17859 9.76476C5.10425 9.68529 5.01027 9.64014 4.90875 9.62125L4.799 10.2111C4.79867 10.2111 4.79014 10.2094 4.77739 10.2028C4.76396 10.1958 4.7511 10.1861 4.74043 10.1747C4.73036 10.1639 4.72554 10.1552 4.72444 10.1531C4.72366 10.1516 4.72534 10.1545 4.72925 10.1659L5.29681 9.97132ZM7.34903 12.8368C6.39726 12.0676 5.70875 11.1174 5.29535 9.96715L4.73071 10.1701C5.18256 11.4273 5.93763 12.4676 6.9719 13.3034L7.34903 12.8368ZM7.34962 12.8372L7.34881 12.8366L6.97212 13.3036L6.97293 13.3043L7.34962 12.8372ZM7.56417 13.2786C7.59239 13.0106 7.38755 12.8679 7.34977 12.8374L6.97278 13.3041C6.98866 13.317 6.99553 13.3226 7.00064 13.3273C7.00509 13.3314 7.00154 13.3288 6.99556 13.3206C6.98886 13.3113 6.97943 13.2954 6.97311 13.2734C6.96666 13.251 6.9659 13.2307 6.96747 13.2158L7.56417 13.2786ZM7.10007 14.8813C7.41516 14.3681 7.50731 13.8017 7.56407 13.2796L6.96758 13.2148C6.91225 13.7238 6.82956 14.1751 6.58873 14.5674L7.10007 14.8813ZM6.47276 15.0225C6.54691 15.0725 6.6866 15.1469 6.85271 15.0935C6.99826 15.0467 7.07276 14.9257 7.0999 14.8816L6.58891 14.5672C6.58007 14.5815 6.58003 14.5792 6.58796 14.5709C6.59711 14.5614 6.62364 14.5369 6.6691 14.5223C6.77245 14.4891 6.83704 14.5444 6.80808 14.5249L6.47276 15.0225ZM6.41134 15.0578C6.42205 15.0233 6.43201 14.996 6.44109 14.9746C6.45025 14.953 6.45744 14.94 6.4619 14.933C6.47105 14.9186 6.46069 14.9415 6.42192 14.9563C6.40353 14.9634 6.38679 14.9653 6.37496 14.9652C6.36418 14.965 6.36056 14.9631 6.36622 14.9649C6.372 14.9667 6.38397 14.9711 6.40321 14.981C6.42229 14.9909 6.44595 15.0048 6.47492 15.0239L6.80592 14.5235C6.72412 14.4694 6.6353 14.4198 6.5423 14.3913C6.44575 14.3617 6.32786 14.3498 6.20718 14.3961C6.08799 14.4418 6.00856 14.5279 5.95586 14.6106C5.90437 14.6914 5.86763 14.7856 5.83837 14.8797L6.41134 15.0578ZM6.39514 15.1069C6.39942 15.0945 6.40611 15.0752 6.4122 15.0549L5.83751 14.8825C5.83553 14.8891 5.83293 14.8968 5.82794 14.9112L6.39514 15.1069ZM6.38526 15.1331C6.38448 15.1409 6.3833 15.1435 6.38487 15.138C6.38558 15.1355 6.38669 15.1319 6.38845 15.1265C6.39029 15.121 6.39232 15.1151 6.39514 15.1069L5.82794 14.9112C5.81953 14.9356 5.79549 15.0009 5.78824 15.0734L6.38526 15.1331ZM5.89227 15.6448C5.98398 15.6243 6.10314 15.5875 6.20358 15.4999C6.31488 15.4028 6.36916 15.2742 6.38481 15.1373L5.78869 15.0692C5.78723 15.0819 5.78556 15.0813 5.78929 15.0736C5.79114 15.0697 5.7939 15.065 5.79767 15.0601C5.80145 15.0551 5.80543 15.051 5.80909 15.0478C5.81634 15.0415 5.81938 15.0413 5.81173 15.0446C5.80349 15.048 5.78802 15.0533 5.76118 15.0593L5.89227 15.6448ZM2.5881 16.8811C3.60737 16.2774 4.7222 15.9097 5.89297 15.6446L5.76048 15.0594C4.55516 15.3323 3.37461 15.7179 2.28231 16.3649L2.5881 16.8811ZM1.40068 18.2268C1.57823 17.6178 2.00895 17.2252 2.58843 16.8809L2.28198 16.3651C1.64653 16.7426 1.06405 17.2377 0.824661 18.0588L1.40068 18.2268ZM1.08183 19.6818C1.15863 19.1881 1.26139 18.7034 1.40063 18.227L0.824715 18.0587C0.677034 18.564 0.569079 19.0746 0.488965 19.5896L1.08183 19.6818ZM0.808556 22.7507C0.867886 21.7127 0.926479 20.6916 1.08191 19.6813L0.488888 19.5901C0.328368 20.6335 0.268592 21.6833 0.209533 22.7165L0.808556 22.7507ZM0.804713 22.8179L0.808555 22.7507L0.209534 22.7165L0.205691 22.7837L0.804713 22.8179ZM0.95576 22.9805C0.850278 22.9805 0.791144 22.9767 0.756052 22.9703C0.72308 22.9643 0.7497 22.9625 0.78044 22.9953C0.810951 23.0278 0.807269 23.0538 0.80316 23.0196C0.798825 22.9836 0.798585 22.9238 0.8047 22.8182L0.205703 22.7835C0.19949 22.8908 0.196168 22.9974 0.207454 23.0913C0.218966 23.187 0.249608 23.3063 0.342603 23.4055C0.435828 23.505 0.553092 23.5432 0.64838 23.5606C0.741548 23.5776 0.848292 23.5805 0.95576 23.5805V22.9805ZM13.4837 6.13772C13.448 6.4863 13.3776 6.82636 13.2671 7.17534L13.8391 7.3565C13.9617 6.96926 14.0406 6.58899 14.0805 6.1988L13.4837 6.13772ZM12.6483 3.46814C13.3653 4.20337 13.5848 5.10297 13.4835 6.13907L14.0807 6.19745C14.1946 5.03232 13.9479 3.94139 13.0778 3.04923L12.6483 3.46814ZM10.3902 2.1311C11.2574 2.39661 12.0206 2.82575 12.6485 3.46834L13.0776 3.04903C12.3695 2.32426 11.5143 1.8478 10.5658 1.55739L10.3902 2.1311ZM6.70554 1.89941C7.95853 1.72885 9.19073 1.76353 10.3901 2.13108L10.5659 1.55741C9.26368 1.15834 7.94048 1.12577 6.62461 1.3049L6.70554 1.89941ZM6.55756 1.91877C6.60069 1.91328 6.65028 1.90698 6.70576 1.89938L6.62439 1.30493C6.57209 1.31208 6.52513 1.31806 6.48185 1.32357L6.55756 1.91877ZM6.42978 1.8944C6.40782 1.92244 6.38384 1.93784 6.36992 1.94488C6.35852 1.95065 6.35512 1.95017 6.36913 1.94682C6.38255 1.94361 6.40335 1.93972 6.43659 1.93483C6.46952 1.92998 6.50832 1.92503 6.55756 1.91877L6.48185 1.32357C6.39242 1.33494 6.30157 1.34607 6.22965 1.36326C6.15966 1.37998 6.04237 1.416 5.95746 1.52439L6.42978 1.8944ZM6.47165 1.96982C6.46903 1.93064 6.46702 1.90032 6.46582 1.87432C6.46462 1.84814 6.46458 1.83254 6.465 1.82312C6.46543 1.81338 6.46607 1.81821 6.46264 1.83077C6.45864 1.84537 6.44942 1.86934 6.42978 1.8944L5.95746 1.52439C5.88095 1.62205 5.8685 1.73059 5.86558 1.79666C5.86268 1.86235 5.86834 1.94036 5.87299 2.00989L6.47165 1.96982ZM6.48285 2.16281C6.47952 2.0872 6.47519 2.02261 6.47165 1.96982L5.87299 2.00989C5.87653 2.06276 5.88043 2.12118 5.88343 2.18919L6.48285 2.16281ZM7.81784 4.31001C6.94248 3.85931 6.52565 3.1412 6.48285 2.16289L5.88342 2.18911C5.93477 3.36272 6.4594 4.28545 7.54319 4.84346L7.81784 4.31001ZM10.2112 4.98331C9.36391 4.86857 8.5579 4.69061 7.81772 4.30995L7.54331 4.84352C8.37224 5.26983 9.25639 5.45949 10.1307 5.57788L10.2112 4.98331ZM13.6376 7.31089C12.9571 5.80347 11.6998 5.18599 10.2114 4.98334L10.1304 5.57785C11.4908 5.76308 12.5229 6.29996 13.0907 7.55774L13.6376 7.31089ZM13.3534 7.04196L13.1645 7.21036L13.5637 7.65827L13.7527 7.48988L13.3534 7.04196ZM13.2483 7.69191C13.2311 7.64209 13.212 7.59237 13.1912 7.54276L12.638 7.77507C12.6539 7.81292 12.6684 7.85069 12.6814 7.8884L13.2483 7.69191ZM13.1909 7.5419C12.6751 6.3244 11.6872 5.74178 10.493 5.53637L10.3913 6.12768C11.4386 6.30783 12.2216 6.79219 12.6384 7.77594L13.1909 7.5419ZM10.4929 5.53635C10.4123 5.52251 10.3318 5.50887 10.2516 5.49529L10.1514 6.08686C10.2317 6.10046 10.3116 6.11399 10.3914 6.1277L10.4929 5.53635ZM10.2439 5.49409L10.2439 5.49409L10.159 6.08806L10.1591 6.08806L10.2439 5.49409ZM10.2439 5.49409L10.2439 5.49408L10.159 6.08805L10.159 6.08806L10.2439 5.49409ZM10.2439 5.49408L10.2438 5.49408L10.159 6.08805L10.159 6.08805L10.2439 5.49408ZM10.2515 5.49528C9.43809 5.35752 8.66583 5.22539 7.94072 4.91906L7.70723 5.47177C8.5073 5.80976 9.34925 5.95102 10.1513 6.08685L10.2515 5.49528ZM7.94144 4.91937C7.85384 4.88209 7.72972 4.85066 7.59492 4.89661C7.46384 4.9413 7.38539 5.03825 7.33903 5.1121L7.84716 5.43116C7.86131 5.40861 7.84563 5.44505 7.78852 5.46452C7.7277 5.48525 7.68875 5.4639 7.70651 5.47146L7.94144 4.91937ZM7.33953 5.11129C7.2688 5.22315 7.16743 5.31885 7.03135 5.43906L7.42857 5.88875C7.56147 5.77135 7.72461 5.62496 7.84665 5.43197L7.33953 5.11129ZM7.03083 5.43952C6.87985 5.5735 6.70856 5.68572 6.51525 5.81163L6.84271 6.31439C7.02979 6.19254 7.23917 6.05682 7.42908 5.88829L7.03083 5.43952ZM6.51525 5.81163C6.33081 5.93176 6.12486 6.06528 5.93777 6.23006L6.33435 6.68031C6.48334 6.54908 6.65213 6.43852 6.84271 6.31439L6.51525 5.81163ZM5.93767 6.23015C5.51549 6.60236 5.06169 7.05095 4.91665 7.66804L5.50073 7.80532C5.59808 7.39112 5.91202 7.05266 6.33446 6.68022L5.93767 6.23015ZM5.0001 7.9523L5.56073 8.49464L5.9779 8.0634L5.41727 7.52106L5.0001 7.9523ZM6.0547 8.37153C6.21032 7.89144 6.66177 7.54448 7.19198 7.54448V6.94448C6.39373 6.94448 5.71728 7.46666 5.48394 8.18651L6.0547 8.37153ZM7.19198 7.54448C7.74862 7.54448 8.21828 7.92694 8.35017 8.44377L8.93154 8.29541C8.73357 7.51964 8.02978 6.94448 7.19198 6.94448V7.54448ZM8.76254 8.64381C8.95519 8.55832 9.18555 8.52035 9.41264 8.60201L9.61568 8.03741C9.20173 7.88855 8.80673 7.96778 8.51917 8.09538L8.76254 8.64381ZM9.80561 8.39083C9.93321 7.86794 10.4058 7.47948 10.9668 7.47948V6.87948C10.1225 6.87948 9.41427 7.46359 9.22271 8.24859L9.80561 8.39083ZM10.9668 7.47948C11.5176 7.47948 11.9833 7.85394 12.1208 8.36264L12.7 8.2061C12.4937 7.4427 11.7959 6.87948 10.9668 6.87948V7.47948ZM12.7653 7.5662L12.2108 8.06041L12.61 8.50833L13.1645 8.01411L12.7653 7.5662ZM12.1617 8.69974C12.1483 9.34734 11.6176 9.86975 10.9668 9.86975V10.4698C11.9449 10.4698 12.7415 9.68547 12.7616 8.7121L12.1617 8.69974ZM10.9668 9.86975C10.34 9.86975 9.82437 9.38505 9.77548 8.77071L9.17737 8.81831C9.25087 9.74193 10.0245 10.4698 10.9668 10.4698V9.86975ZM9.62753 8.53534C9.13665 8.24915 8.68062 8.49393 8.51557 8.60475L8.85005 9.10287C8.96746 9.02403 9.14777 8.95016 9.32533 9.05368L9.62753 8.53534ZM8.38367 8.83115C8.33697 9.44765 7.82031 9.93476 7.19198 9.93476V10.5348C8.13662 10.5348 8.91174 9.80334 8.98195 8.87647L8.38367 8.83115ZM7.19198 9.93476C6.55869 9.93476 6.0389 9.43996 5.99928 8.81658L5.40049 8.85464C5.46005 9.79183 6.23996 10.5348 7.19198 10.5348V9.93476ZM5.90847 8.61999L5.38617 8.11473L4.969 8.54597L5.4913 9.05123L5.90847 8.61999ZM4.87764 8.33616C4.89397 9.17853 5.11361 9.93185 5.46615 10.6414L6.00349 10.3745C5.68356 9.73054 5.49186 9.064 5.47753 8.32454L4.87764 8.33616ZM5.46637 10.6419C5.99939 11.7103 6.74075 12.6215 7.7949 13.2555L8.10411 12.7413C7.16774 12.1782 6.49689 11.3634 6.00326 10.374L5.46637 10.6419ZM7.79552 13.2558C8.29284 13.5533 8.87216 13.7766 9.53796 13.6519L9.42753 13.0621C8.96806 13.1482 8.54315 13.0039 8.10349 12.7409L7.79552 13.2558ZM9.53856 13.6518C9.97289 13.5695 10.349 13.3733 10.6809 13.1376L10.3335 12.6484C10.0466 12.8521 9.75026 13.001 9.42694 13.0623L9.53856 13.6518ZM10.6818 13.1369C12.0213 12.1775 12.8817 10.8832 13.2818 9.29222L12.6999 9.1459C12.3334 10.6034 11.5529 11.7749 10.3325 12.6491L10.6818 13.1369ZM13.2819 9.29153C13.365 8.95804 13.4058 8.61462 13.3727 8.26514L12.7753 8.32174C12.8005 8.58777 12.7707 8.86142 12.6997 9.14659L13.2819 9.29153ZM12.7275 9.00417L13.2736 8.51739L12.8744 8.06948L12.3282 8.55626L12.7275 9.00417ZM12.2377 8.90552L12.3039 8.97982L12.7518 8.5806L12.6856 8.50631L12.2377 8.90552ZM9.1622 23.0851H12.4035V22.4851H9.1622V23.0851ZM9.26378 22.5028L9.25706 22.5005L9.06735 23.0697L9.07407 23.072L9.26378 22.5028ZM3.58066 23.0874H9.16893V22.4874H3.58066V23.0874ZM3.07222 22.5107C3.06564 22.5639 3.05842 22.6286 3.06088 22.6889C3.06333 22.7491 3.07656 22.8542 3.1567 22.9461C3.23731 23.0386 3.34028 23.0658 3.4007 23.0762C3.46087 23.0865 3.52652 23.0874 3.58066 23.0874V22.4874C3.55516 22.4874 3.53635 22.487 3.52192 22.4863C3.5071 22.4856 3.5016 22.4847 3.50185 22.4848C3.50233 22.4848 3.50557 22.4854 3.51083 22.4869C3.51611 22.4884 3.52433 22.4911 3.53444 22.4957C3.55583 22.5054 3.58366 22.5228 3.60897 22.5518C3.63421 22.5808 3.6475 22.6105 3.65409 22.6323C3.65722 22.6427 3.65874 22.6509 3.65949 22.6561C3.66025 22.6612 3.66037 22.6643 3.66038 22.6645C3.66039 22.6648 3.66033 22.6633 3.66044 22.6595C3.66056 22.6558 3.66083 22.6505 3.66138 22.6434C3.66251 22.6287 3.66453 22.6098 3.66768 22.5844L3.07222 22.5107ZM3.2402 21.1108L3.07208 22.5118L3.66781 22.5833L3.83593 21.1823L3.2402 21.1108ZM3.29054 21.1311C3.29807 21.1323 3.29223 21.1326 3.28031 21.1249C3.26748 21.1167 3.25609 21.1046 3.24852 21.0916C3.24163 21.0797 3.24116 21.0727 3.24158 21.0757C3.24205 21.0791 3.24287 21.0897 3.24045 21.1088L3.83568 21.1843C3.85047 21.0676 3.84411 20.9227 3.76765 20.7907C3.68407 20.6465 3.54397 20.5643 3.38659 20.5388L3.29054 21.1311ZM3.35605 21.1075C3.35818 21.0905 3.36124 21.0833 3.36124 21.0833C3.36103 21.0838 3.35667 21.0933 3.34412 21.1046C3.33066 21.1168 3.31452 21.1249 3.2999 21.1286C3.28654 21.132 3.28208 21.1297 3.29117 21.1312L3.38596 20.5387C3.23118 20.514 3.06887 20.5447 2.94185 20.6594C2.82385 20.7661 2.7761 20.9097 2.76068 21.0331L3.35605 21.1075ZM3.33111 21.3006L3.35589 21.1088L2.76084 21.0319L2.73605 21.2237L3.33111 21.3006ZM3.33126 21.2994L3.33126 21.2993L2.7359 21.2249L2.7359 21.2249L3.33126 21.2994ZM3.33126 21.2994L3.33126 21.2994L2.7359 21.2249L2.73589 21.225L3.33126 21.2994ZM3.33126 21.2994L3.33126 21.2994L2.73589 21.225L2.73589 21.225L3.33126 21.2994ZM3.33126 21.2994L3.33126 21.2994L2.73589 21.225L2.73589 21.225L3.33126 21.2994ZM3.17064 22.6195C3.21719 22.1811 3.27398 21.7422 3.33109 21.3007L2.73605 21.2237C2.67908 21.664 2.62139 22.1098 2.57399 22.5562L3.17064 22.6195ZM2.6504 23.0896C2.74602 23.0896 2.89308 23.0767 3.01288 22.9685C3.13247 22.8605 3.16077 22.7154 3.17074 22.6186L2.57389 22.5571C2.57146 22.5808 2.56884 22.5847 2.57137 22.578C2.57484 22.5688 2.58574 22.5458 2.61071 22.5233C2.63571 22.5007 2.65986 22.492 2.66988 22.4894C2.67722 22.4875 2.67359 22.4896 2.6504 22.4896V23.0896ZM1.22507 23.0895C1.69701 23.0784 2.17001 23.0806 2.64477 23.0896L2.65603 22.4897C2.17587 22.4806 1.69396 22.4784 1.21099 22.4897L1.22507 23.0895ZM0.717411 22.5372C0.710102 22.6213 0.70253 22.7861 0.810597 22.9224C0.930765 23.0741 1.1092 23.0925 1.22562 23.0895L1.21043 22.4897C1.18522 22.4903 1.18575 22.4872 1.20029 22.4918C1.21927 22.4978 1.25265 22.5142 1.28081 22.5497C1.30706 22.5829 1.31277 22.6125 1.31372 22.6187C1.31442 22.6232 1.31282 22.6161 1.31516 22.5892L0.717411 22.5372ZM0.77492 21.8086C0.756374 22.0528 0.737945 22.2955 0.71736 22.5378L1.31521 22.5886C1.33606 22.3432 1.35469 22.0978 1.3732 21.854L0.77492 21.8086ZM0.979469 19.7514C0.878728 20.4398 0.826426 21.1302 0.77492 21.8086L1.3732 21.854C1.42497 21.1722 1.47593 20.5026 1.57315 19.8383L0.979469 19.7514ZM1.22775 18.4836C1.13596 18.8978 1.04412 19.3197 0.979614 19.7504L1.573 19.8393C1.63403 19.4317 1.72151 19.0287 1.81353 18.6134L1.22775 18.4836ZM2.47214 16.8338C1.84388 17.2083 1.3946 17.7289 1.22771 18.4838L1.81357 18.6133C1.93809 18.0501 2.26439 17.6561 2.77935 17.3492L2.47214 16.8338ZM5.65014 15.5924C4.5533 15.8695 3.47294 16.2347 2.47166 16.8341L2.77983 17.3489C3.71079 16.7916 4.72855 16.4441 5.79708 16.1742L5.65014 15.5924ZM6.13479 16.0999C6.14634 16.0605 6.15997 16.007 6.16287 15.9503C6.16555 15.8975 6.16187 15.7884 6.07965 15.6922C5.99273 15.5906 5.87829 15.5723 5.81485 15.5706C5.75194 15.569 5.6925 15.5815 5.64865 15.5928L5.79858 16.1738C5.82421 16.1672 5.81969 16.171 5.79888 16.1704C5.77754 16.1699 5.69238 16.1625 5.62367 16.0822C5.55966 16.0074 5.56313 15.9298 5.56364 15.9197C5.56436 15.9056 5.56651 15.9056 5.55901 15.9312L6.13479 16.0999ZM5.76861 17.4151C5.88962 16.9737 6.0103 16.5356 6.13536 16.098L5.55844 15.9331C5.43244 16.3741 5.31102 16.8148 5.18995 17.2565L5.76861 17.4151ZM5.79862 17.4615C5.76489 17.4655 5.73807 17.4669 5.71721 17.4668C5.69618 17.4666 5.68386 17.4649 5.67825 17.4638C5.67274 17.4627 5.67674 17.4628 5.68609 17.4677C5.69627 17.4732 5.70972 17.4828 5.72215 17.4978C5.73453 17.5126 5.74118 17.527 5.74432 17.5367C5.74719 17.5456 5.74643 17.5482 5.74621 17.5412C5.74599 17.5341 5.74643 17.5205 5.7498 17.4986C5.75314 17.477 5.75898 17.4497 5.76831 17.4162L5.19025 17.2554C5.16256 17.355 5.14337 17.4589 5.1465 17.5598C5.14971 17.6632 5.17729 17.7811 5.26106 17.8817C5.42691 18.0809 5.69058 18.0782 5.86828 18.0575L5.79862 17.4615ZM6.13268 17.4228C6.02169 17.4355 5.90991 17.4483 5.79802 17.4616L5.86887 18.0574C5.97926 18.0443 6.08975 18.0316 6.20095 18.0189L6.13268 17.4228ZM6.13393 17.4226L6.13322 17.4227L6.2004 18.0189L6.20111 18.0189L6.13393 17.4226ZM6.13318 17.4227L6.13235 17.4228L6.2027 18.0187L6.20352 18.0186L6.13318 17.4227ZM6.13412 17.4226L6.1333 17.4227L6.2034 18.0186L6.20423 18.0185L6.13412 17.4226ZM7.03173 17.3102C6.73608 17.3536 6.43847 17.3877 6.13504 17.4225L6.20331 18.0186C6.50518 17.984 6.81223 17.9489 7.11884 17.9039L7.03173 17.3102ZM7.67245 17.6165C7.61391 17.5169 7.53084 17.4157 7.40304 17.3548C7.27513 17.2938 7.14423 17.2931 7.02998 17.3105L7.1206 17.9036C7.14391 17.9001 7.15505 17.9006 7.15781 17.9008C7.15931 17.901 7.15357 17.9005 7.14486 17.8964C7.13616 17.8922 7.13228 17.8881 7.13345 17.8893C7.1355 17.8914 7.14303 17.8999 7.15508 17.9204L7.67245 17.6165ZM8.79146 19.4742C8.41574 18.8543 8.04099 18.2359 7.67158 17.6151L7.15596 17.9219C7.52682 18.5451 7.90282 19.1656 8.27833 19.7852L8.79146 19.4742ZM9.13869 20.0475C9.02299 19.8563 8.90718 19.6652 8.79146 19.4742L8.27833 19.7852C8.39407 19.9762 8.50976 20.1671 8.62532 20.3581L9.13869 20.0475ZM9.16807 20.0964L9.13906 20.0482L8.62495 20.3575L8.65396 20.4057L9.16807 20.0964ZM9.26595 20.2525C9.23352 20.2054 9.20373 20.1559 9.16833 20.0968L8.65371 20.4053C8.68761 20.4618 8.72678 20.5274 8.77153 20.5925L9.26595 20.2525ZM9.23316 20.2621C9.2162 20.29 9.20586 20.2965 9.20864 20.2946C9.2104 20.2933 9.21571 20.29 9.22468 20.287C9.23385 20.2839 9.24496 20.2817 9.25712 20.2817C9.26925 20.2816 9.27966 20.2835 9.28753 20.286C9.2952 20.2885 9.29907 20.2909 9.29927 20.2911C9.29938 20.2911 9.2961 20.289 9.29008 20.2828C9.28407 20.2767 9.27593 20.2671 9.26633 20.2531L8.77115 20.5919C8.87335 20.7413 9.0387 20.8831 9.26118 20.8816C9.48784 20.8801 9.65009 20.7312 9.74578 20.5739L9.23316 20.2621ZM10.0693 18.8892C9.79113 19.3476 9.51358 19.805 9.23376 20.2611L9.74519 20.5749C10.0259 20.1173 10.3042 19.6587 10.5823 19.2004L10.0693 18.8892ZM10.3897 18.3615L10.0694 18.8891L10.5822 19.2005L10.9026 18.6728L10.3897 18.3615ZM10.5352 18.1264C10.4871 18.2036 10.4382 18.282 10.3901 18.3608L10.9022 18.6735C10.9486 18.5974 10.9961 18.5213 11.0444 18.4437L10.5352 18.1264ZM10.5338 18.1286L10.5338 18.1286L11.0458 18.4415L11.0458 18.4414L10.5338 18.1286ZM10.8484 17.6061C10.7513 17.7795 10.6452 17.9498 10.5352 18.1263L11.0444 18.4437C11.1532 18.2691 11.2667 18.087 11.3719 17.8994L10.8484 17.6061ZM11.4573 17.3072C11.3561 17.2944 11.2351 17.2957 11.1152 17.3503C10.9919 17.4065 10.908 17.5014 10.8494 17.6044L11.3709 17.9011C11.379 17.8869 11.3831 17.8833 11.3816 17.8848C11.3808 17.8856 11.3787 17.8875 11.3754 17.8898C11.3721 17.8921 11.3682 17.8944 11.364 17.8963C11.355 17.9004 11.3493 17.9008 11.3507 17.9007C11.353 17.9005 11.3623 17.9 11.3817 17.9024L11.4573 17.3072ZM12.3444 17.4129C12.0474 17.3782 11.7513 17.3436 11.4563 17.3071L11.3826 17.9026C11.68 17.9394 11.9781 17.9742 12.2748 18.0089L12.3444 17.4129ZM12.3441 17.4129L12.344 17.4129L12.2752 18.0089L12.2754 18.009L12.3441 17.4129ZM12.3443 17.4129L12.3441 17.4129L12.2754 18.009L12.2755 18.009L12.3443 17.4129ZM12.3444 17.4129L12.3443 17.4129L12.2755 18.009L12.2757 18.009L12.3444 17.4129ZM12.3446 17.413L12.3444 17.4129L12.2757 18.009L12.2758 18.009L12.3446 17.413ZM12.3477 17.4133L12.3449 17.413L12.2754 18.009L12.2782 18.0093L12.3477 17.4133ZM12.8155 17.4683C12.6597 17.4498 12.5036 17.4315 12.3477 17.4133L12.2781 18.0093C12.434 18.0275 12.5895 18.0457 12.7447 18.0641L12.8155 17.4683ZM12.8248 17.448C12.8336 17.4746 12.8388 17.496 12.8417 17.5124C12.8446 17.5288 12.8448 17.5385 12.8447 17.5424C12.8446 17.5462 12.8442 17.5427 12.847 17.5342C12.8499 17.5252 12.8557 17.5131 12.8657 17.5007C12.8756 17.4883 12.8865 17.4797 12.8955 17.4745C12.9039 17.4695 12.9084 17.4687 12.9059 17.4693C12.9032 17.47 12.8949 17.4716 12.8794 17.4721C12.8639 17.4725 12.8432 17.4717 12.8165 17.4684L12.7437 18.064C12.9277 18.0865 13.1761 18.0723 13.3334 17.8765C13.4891 17.6827 13.4532 17.4372 13.3944 17.2595L12.8248 17.448ZM12.8245 17.447L12.8246 17.4474L13.3947 17.2602L13.3945 17.2598L12.8245 17.447ZM12.8244 17.4466L12.8245 17.447L13.3945 17.2598L13.3944 17.2594L12.8244 17.4466ZM12.8242 17.4462L12.8244 17.4466L13.3944 17.2594L13.3943 17.259L12.8242 17.4462ZM12.8241 17.4458L12.8242 17.4462L13.3943 17.259L13.3942 17.2586L12.8241 17.4458ZM12.824 17.4454L12.8241 17.4458L13.3942 17.2586L13.394 17.2583L12.824 17.4454ZM12.3762 16.0885C12.5241 16.5414 12.6743 16.9942 12.8243 17.4463L13.3937 17.2574C13.2437 16.8051 13.094 16.3536 12.9465 15.9022L12.3762 16.0885ZM12.3735 16.0855C12.3754 16.0893 12.3766 16.0919 12.3778 16.0943C12.3789 16.0965 12.3795 16.0978 12.3798 16.0985C12.3806 16.1003 12.3789 16.0969 12.3767 16.0902L12.9459 15.9005C12.9337 15.8637 12.9166 15.8304 12.9117 15.8203L12.3735 16.0855ZM12.4245 15.6174C12.3263 15.7156 12.3056 15.8387 12.322 15.938C12.3341 16.0114 12.3683 16.0749 12.3735 16.0855L12.9117 15.8204C12.9056 15.8081 12.905 15.8064 12.905 15.8065C12.9052 15.807 12.9106 15.8197 12.914 15.8401C12.9176 15.8621 12.9197 15.8976 12.908 15.9394C12.8958 15.9829 12.8729 16.0175 12.8488 16.0416L12.4245 15.6174ZM12.8635 15.5446C12.8508 15.5401 12.7885 15.5155 12.7198 15.5098C12.6319 15.5026 12.5138 15.5235 12.4194 15.6226L12.8539 16.0364C12.8287 16.0628 12.7953 16.0848 12.7563 16.0974C12.7195 16.1092 12.6885 16.1093 12.6704 16.1078C12.6614 16.1071 12.6545 16.1058 12.6504 16.105C12.6462 16.1041 12.6438 16.1034 12.6436 16.1034C12.6435 16.1033 12.6445 16.1036 12.6476 16.1047C12.6507 16.1058 12.6543 16.107 12.6603 16.1092L12.8635 15.5446ZM12.8568 15.5423L12.8568 15.5423L12.667 16.1115L12.667 16.1115L12.8568 15.5423ZM12.8568 15.5423L12.8568 15.5423L12.667 16.1115L12.667 16.1115L12.8568 15.5423ZM12.8568 15.5423L12.8568 15.5423L12.667 16.1115L12.667 16.1115L12.8568 15.5423ZM12.8748 15.549C12.879 15.55 12.8806 15.5506 12.878 15.5498C12.8751 15.5488 12.8715 15.5475 12.8635 15.5447L12.6603 16.1092C12.6713 16.1132 12.7019 16.1245 12.7348 16.1324L12.8748 15.549ZM15.9248 16.837C14.9885 16.1799 13.9491 15.8027 12.8737 15.5487L12.7358 16.1327C13.7675 16.3763 14.7276 16.7298 15.5801 17.3281L15.9248 16.837ZM16.986 18.4801C16.8319 17.8219 16.5178 17.2536 15.9249 16.8371L15.58 17.328C16.0273 17.6422 16.2735 18.0692 16.4018 18.6169L16.986 18.4801ZM17.4174 20.8128C17.3171 20.0242 17.1647 19.247 16.9861 18.4804L16.4018 18.6166C16.5773 19.3698 16.7253 20.1259 16.8222 20.8885L17.4174 20.8128ZM17.5438 21.9427C17.5049 21.5683 17.4656 21.1899 17.4174 20.8126L16.8222 20.8887C16.8694 21.2577 16.908 21.629 16.947 22.0046L17.5438 21.9427ZM17.544 21.9453L17.544 21.9452L16.9467 22.0021L16.9467 22.0022L17.544 21.9453ZM17.544 21.9455L17.544 21.9453L16.9467 22.0022L16.9467 22.0023L17.544 21.9455ZM17.544 21.9456L17.544 21.9455L16.9467 22.0023L16.9467 22.0025L17.544 21.9456ZM17.5441 21.9457L17.544 21.9456L16.9467 22.0025L16.9468 22.0026L17.5441 21.9457ZM17.6152 22.6126C17.5902 22.3903 17.5671 22.1675 17.5438 21.9432L16.947 22.0051C16.9703 22.229 16.9936 22.4544 17.019 22.6797L17.6152 22.6126ZM17.1848 23.0851C17.235 23.0851 17.3784 23.0847 17.493 22.9814C17.6267 22.8608 17.6252 22.6976 17.615 22.6111L17.0191 22.6812C17.0224 22.709 17.0029 22.6153 17.0913 22.5357C17.1293 22.5014 17.1668 22.4903 17.1813 22.487C17.1947 22.484 17.1988 22.4851 17.1848 22.4851V23.0851ZM16.6826 23.0846C16.85 23.0849 17.0175 23.0851 17.1848 23.0851V22.4851C17.0181 22.4851 16.851 22.4849 16.6835 22.4846L16.6826 23.0846ZM16.6826 23.0846H16.6831V22.4846H16.6826V23.0846ZM15.6753 23.0851C16.0107 23.0836 16.3462 23.0841 16.6821 23.0846L16.683 22.4846C16.3474 22.4841 16.0101 22.4836 15.6727 22.4851L15.6753 23.0851ZM15.1906 22.6705C15.2039 22.7689 15.2431 22.8953 15.3577 22.9868C15.468 23.0748 15.5944 23.0868 15.68 23.0851L15.668 22.4852C15.6415 22.4857 15.6828 22.4786 15.732 22.5179C15.7855 22.5606 15.7877 22.6086 15.7853 22.5904L15.1906 22.6705ZM14.987 21.2183C15.0565 21.7025 15.1258 22.1877 15.1906 22.6704L15.7853 22.5905C15.7201 22.1048 15.6504 21.6172 15.5809 21.1331L14.987 21.2183ZM14.9817 21.1726C14.9829 21.1838 14.9844 21.1981 14.9863 21.2129L15.5817 21.1385C15.5806 21.1299 15.5796 21.1208 15.5783 21.1088L14.9817 21.1726ZM14.9751 21.1213C14.974 21.1181 14.9747 21.119 14.9763 21.1281C14.9779 21.1381 14.9793 21.15 14.9817 21.1726L15.5783 21.1088C15.5746 21.0736 15.5677 20.995 15.539 20.9162L14.9751 21.1213ZM15.0304 21.1248C15.0349 21.1239 15.0292 21.1257 15.0165 21.1233C15.003 21.1207 14.9893 21.1148 14.9781 21.1067C14.9676 21.0991 14.9635 21.0928 14.9637 21.0932C14.9642 21.0939 14.9679 21.0999 14.9725 21.1136L15.5417 20.9239C15.507 20.8197 15.4435 20.7025 15.3287 20.6198C15.2056 20.5311 15.0587 20.5077 14.9144 20.5361L15.0304 21.1248ZM15.0716 21.0782C15.0697 21.0582 15.076 21.072 15.0587 21.0967C15.0505 21.1085 15.0405 21.117 15.0319 21.1222C15.0238 21.127 15.0207 21.1266 15.0269 21.1255L14.9179 20.5355C14.7819 20.5606 14.6534 20.6295 14.5672 20.7526C14.4833 20.8725 14.4626 21.0107 14.4742 21.1342L15.0716 21.0782ZM15.1348 21.5765C15.11 21.4049 15.0865 21.2424 15.0717 21.079L14.4741 21.1333C14.4907 21.3152 14.5165 21.4934 14.541 21.6625L15.1348 21.5765ZM15.1546 21.7165L15.1349 21.5775L14.5408 21.6615L14.5605 21.8004L15.1546 21.7165ZM15.1549 21.7189L15.1549 21.7188L14.5602 21.7981L14.5602 21.7982L15.1549 21.7189ZM15.2748 22.5125C15.2298 22.2499 15.1926 21.9866 15.1546 21.7167L14.5605 21.8004C14.5983 22.0688 14.6366 22.341 14.6834 22.6139L15.2748 22.5125ZM14.7908 23.0896C14.8884 23.0896 15.0754 23.0784 15.1976 22.9238C15.3153 22.775 15.2895 22.5948 15.2745 22.5106L14.6838 22.6158C14.6889 22.6448 14.6873 22.6504 14.688 22.6423C14.6889 22.6314 14.6945 22.5927 14.727 22.5517C14.7602 22.5097 14.7985 22.4942 14.8131 22.4898C14.824 22.4866 14.8206 22.4896 14.7908 22.4896V23.0896ZM13.0008 23.0846C13.598 23.0837 14.1929 23.0829 14.7874 23.0896L14.7942 22.4896C14.1952 22.4829 13.5965 22.4837 13 22.4846L13.0008 23.0846ZM12.4035 23.0851C12.6027 23.0851 12.8019 23.0848 13.0008 23.0846L13 22.4846C12.801 22.4848 12.6022 22.4851 12.4035 22.4851V23.0851ZM7.80009 13.1916C7.7517 13.1904 7.68497 13.1966 7.61699 13.2313C7.54262 13.2693 7.49138 13.3288 7.46184 13.3926C7.43557 13.4493 7.43 13.5013 7.4283 13.5296C7.4266 13.5581 7.42799 13.5848 7.42832 13.5927L8.0278 13.5678C8.02721 13.5536 8.02767 13.5581 8.02723 13.5655C8.02679 13.5728 8.02466 13.6051 8.00623 13.6449C7.9845 13.6917 7.94547 13.7373 7.8899 13.7656C7.8407 13.7908 7.79934 13.7918 7.78509 13.7914L7.80009 13.1916ZM7.79035 13.7915H7.79259V13.1915H7.79035V13.7915ZM8.04601 13.2781C8.00333 13.2588 7.96029 13.2394 7.91535 13.2188L7.66536 13.7642C7.712 13.7856 7.75649 13.8057 7.79899 13.8249L8.04601 13.2781ZM8.21725 13.3562C8.16012 13.3297 8.10324 13.304 8.04601 13.2781L7.79899 13.8249C7.85674 13.851 7.91059 13.8753 7.9642 13.9003L8.21725 13.3562ZM10.0826 13.3594C9.46254 13.6665 8.85197 13.6475 8.21584 13.3556L7.96561 13.9009C8.74616 14.2591 9.54779 14.2939 10.3489 13.8971L10.0826 13.3594ZM10.8048 13.6846C10.7877 13.6299 10.7679 13.5652 10.7454 13.5134C10.726 13.4686 10.6763 13.3615 10.5582 13.3011C10.4306 13.236 10.3093 13.2669 10.2539 13.2848C10.196 13.3034 10.1337 13.3341 10.0827 13.3594L10.3488 13.8971C10.3762 13.8836 10.3965 13.8737 10.413 13.8663C10.4209 13.8627 10.4269 13.8601 10.4314 13.8583C10.4336 13.8575 10.4352 13.8568 10.4364 13.8564C10.4375 13.856 10.438 13.8558 10.438 13.8559C10.4379 13.8559 10.4371 13.8561 10.4356 13.8565C10.4341 13.8569 10.4318 13.8575 10.4287 13.8581C10.4227 13.8594 10.4124 13.8611 10.3988 13.8615C10.3694 13.8625 10.3282 13.8574 10.2852 13.8354C10.2436 13.8142 10.2187 13.7865 10.2065 13.77C10.1955 13.7551 10.1923 13.746 10.1949 13.752C10.1971 13.7572 10.2013 13.7679 10.2081 13.7882C10.2148 13.8082 10.2222 13.832 10.232 13.8633L10.8048 13.6846ZM11.4375 14.8204C11.1382 14.5053 10.9385 14.1214 10.8052 13.6861L10.2315 13.8618C10.3851 14.3635 10.6248 14.8359 11.0024 15.2336L11.4375 14.8204ZM11.391 15.4636C11.4296 15.4329 11.5558 15.3355 11.5742 15.1683C11.5935 14.993 11.4835 14.8701 11.4402 14.8233L10.9997 15.2307C11.0125 15.2445 11.0073 15.2416 10.9989 15.2256C10.9887 15.206 10.9713 15.1619 10.9778 15.1026C10.9842 15.0447 11.0096 15.0074 11.0204 14.9939C11.0294 14.9826 11.033 14.9817 11.0176 14.9939L11.391 15.4636ZM9.55046 16.9391C10.1618 16.4442 10.7752 15.9517 11.3906 15.4638L11.0179 14.9937C10.4005 15.4831 9.78551 15.9769 9.17294 16.4728L9.55046 16.9391ZM8.96984 16.9428C9.02689 16.9861 9.11997 17.044 9.24312 17.0491C9.37487 17.0546 9.47913 16.9979 9.55242 16.9375L9.17099 16.4744C9.16806 16.4768 9.20395 16.447 9.26789 16.4496C9.32324 16.4519 9.34907 16.4774 9.33215 16.4646L8.96984 16.9428ZM8.9679 16.9414L8.96851 16.9418L9.33348 16.4656L9.33286 16.4651L8.9679 16.9414ZM7.09274 15.5053C7.71763 15.9824 8.34256 16.4617 8.9678 16.9413L9.33297 16.4652C8.70781 15.9857 8.08235 15.5059 7.45683 15.0284L7.09274 15.5053ZM6.97723 14.8866C6.91883 14.9752 6.86472 15.1072 6.90991 15.2591C6.94879 15.3898 7.04481 15.4683 7.09155 15.5044L7.45803 15.0293C7.44645 15.0204 7.4472 15.0196 7.4526 15.0259C7.45877 15.0331 7.47483 15.0538 7.485 15.088C7.49597 15.1249 7.495 15.1603 7.4885 15.1877C7.48285 15.2115 7.47481 15.2219 7.4782 15.2168L6.97723 14.8866ZM7.43153 13.5708C7.35104 14.0625 7.23192 14.5035 6.9779 14.8855L7.47753 15.2178C7.80184 14.7301 7.93826 14.1893 8.02365 13.6678L7.43153 13.5708ZM7.42832 13.5927C7.42847 13.5964 7.42855 13.5984 7.4286 13.6001C7.42865 13.6016 7.42864 13.6018 7.42864 13.601C7.42864 13.6003 7.42864 13.598 7.42883 13.5945C7.42901 13.5911 7.4294 13.5856 7.43034 13.5788L8.02484 13.6598C8.03075 13.6164 8.02807 13.5743 8.0278 13.5678L7.42832 13.5927ZM5.12043 7.39084C5.50657 6.64308 6.10747 6.17401 6.81005 5.73709L6.4932 5.22758C5.76117 5.68281 5.0485 6.22246 4.58732 7.11554L5.12043 7.39084ZM4.6395 7.46308L4.64174 7.46532L5.06601 7.04106L5.06377 7.03881L4.6395 7.46308ZM4.34742 6.25676C4.38714 6.59784 4.44835 6.93968 4.56363 7.33495L5.13963 7.16695C5.03525 6.80904 4.97989 6.50082 4.9434 6.18736L4.34742 6.25676ZM4.46268 3.96562C4.21569 4.74084 4.26373 5.52389 4.34735 6.2561L4.94347 6.18802C4.86121 5.46769 4.82856 4.79371 5.03436 4.14776L4.46268 3.96562ZM5.3935 2.7425C4.89161 3.02852 4.61894 3.47698 4.46278 3.96531L5.03427 4.14807C5.16054 3.75321 5.3586 3.45298 5.69058 3.26379L5.3935 2.7425ZM6.12852 3.03019C6.11294 2.97593 6.09329 2.90995 6.0664 2.85376C6.04075 2.80018 5.97969 2.6927 5.84652 2.6452C5.71949 2.5999 5.60699 2.6389 5.55722 2.65876C5.50154 2.68097 5.44263 2.71428 5.39261 2.74301L5.69148 3.26328C5.71701 3.24861 5.73661 3.23763 5.75257 3.22921C5.76892 3.2206 5.77695 3.21708 5.77954 3.21605C5.78287 3.21472 5.77168 3.21973 5.75076 3.22247C5.72762 3.2255 5.68924 3.22613 5.64497 3.21034C5.59979 3.19422 5.56814 3.16804 5.54889 3.14644C5.53989 3.13635 5.53397 3.12771 5.53054 3.12225C5.52712 3.1168 5.52543 3.11329 5.5252 3.11281C5.5251 3.11261 5.5277 3.11819 5.53298 3.13389C5.53809 3.14911 5.54411 3.16892 5.55182 3.19578L6.12852 3.03019ZM7.25347 4.55017C6.69167 4.18105 6.31661 3.67735 6.12825 3.02926L5.55209 3.19671C5.78068 3.98323 6.24397 4.60481 6.924 5.05162L7.25347 4.55017ZM7.33009 5.28408C7.36058 5.25224 7.39822 5.20992 7.42898 5.15975C7.46031 5.10865 7.49521 5.03213 7.49521 4.93623C7.49521 4.72875 7.34133 4.60787 7.25342 4.55013L6.92406 5.05166C6.94756 5.06709 6.94408 5.06883 6.93299 5.05451C6.91823 5.03547 6.89521 4.99405 6.89521 4.93623C6.89521 4.88376 6.91443 4.85109 6.91745 4.84616C6.91991 4.84215 6.91665 4.84831 6.8967 4.86914L7.33009 5.28408ZM6.80976 5.73728C7.0236 5.60464 7.19052 5.43253 7.33195 5.28212L6.89484 4.8711C6.75383 5.02107 6.63383 5.14035 6.4935 5.22739L6.80976 5.73728ZM9.22304 17.0539C8.79943 17.1077 8.37428 17.1614 7.94932 17.2129L8.02142 17.8085C8.44827 17.7568 8.87492 17.7029 9.29862 17.6491L9.22304 17.0539ZM10.5426 17.2038C10.128 17.1545 9.71601 17.1053 9.29746 17.0538L9.22421 17.6493C9.64401 17.7009 10.0569 17.7503 10.4717 17.7996L10.5426 17.2038ZM10.8406 17.8234C10.8653 17.7835 10.8944 17.7295 10.91 17.6664C10.9265 17.5995 10.9327 17.5001 10.8776 17.4008C10.8245 17.3054 10.7421 17.2598 10.6883 17.2384C10.6348 17.2171 10.5815 17.2084 10.5422 17.2038L10.4721 17.7997C10.49 17.8018 10.4838 17.8028 10.4666 17.796C10.449 17.789 10.3921 17.7625 10.3531 17.6922C10.3119 17.6182 10.3206 17.5502 10.3275 17.5224C10.3335 17.4983 10.3406 17.4911 10.3306 17.5073L10.8406 17.8234ZM9.58489 19.8894C10.0016 19.1994 10.4204 18.5095 10.8414 17.822L10.3298 17.5087C9.90796 18.1975 9.48845 18.8884 9.07127 19.5792L9.58489 19.8894ZM8.92175 19.8905C8.94126 19.9225 8.97087 19.9666 9.01261 20.0055C9.05489 20.0449 9.13639 20.1033 9.25299 20.1033C9.36958 20.1033 9.45108 20.0449 9.49337 20.0055C9.53511 19.9666 9.56472 19.9225 9.58422 19.8905L9.07194 19.5781C9.06342 19.5921 9.06726 19.5825 9.08434 19.5665C9.10196 19.5501 9.15993 19.5033 9.25299 19.5033C9.34604 19.5033 9.40401 19.5501 9.42164 19.5665C9.43872 19.5825 9.44255 19.5921 9.43403 19.5781L8.92175 19.8905ZM7.65749 17.8013C8.08076 18.4956 8.50185 19.1922 8.92079 19.8889L9.43499 19.5797C9.01558 18.8822 8.59384 18.1845 8.16979 17.489L7.65749 17.8013ZM7.95072 17.2127C7.92014 17.2162 7.87478 17.2228 7.82844 17.2385C7.78456 17.2534 7.70153 17.2893 7.64213 17.3771C7.57596 17.475 7.57724 17.5789 7.59293 17.6493C7.60711 17.713 7.63579 17.766 7.65794 17.8021L8.16934 17.4883C8.16123 17.4751 8.1717 17.488 8.17859 17.5189C8.18699 17.5567 8.19192 17.6352 8.1392 17.7132C8.09325 17.7811 8.03347 17.8025 8.02153 17.8066C8.00714 17.8115 8.00241 17.8107 8.02002 17.8087L7.95072 17.2127ZM12.3492 16.9169C11.5564 16.8228 10.7634 16.7265 9.9209 16.6234L9.84804 17.219C10.6908 17.3221 11.4846 17.4185 12.2785 17.5127L12.3492 16.9169ZM12.1929 17.1102C12.2088 17.158 12.2114 17.1729 12.2113 17.1721C12.2111 17.1702 12.2086 17.152 12.2128 17.1247C12.2175 17.0947 12.2307 17.0513 12.2644 17.0095C12.2982 16.9675 12.3378 16.945 12.3667 16.9339C12.3929 16.9239 12.4115 16.9225 12.4136 16.9223C12.4149 16.9222 12.3997 16.9228 12.3491 16.9169L12.2786 17.5127C12.3323 17.5191 12.3978 17.5253 12.4594 17.5206C12.5143 17.5164 12.6409 17.4987 12.7321 17.3854C12.8228 17.2726 12.8132 17.1456 12.806 17.0923C12.7979 17.032 12.7787 16.9701 12.7621 16.9204L12.1929 17.1102ZM12.1922 17.108L12.1928 17.1097L12.7623 16.9208L12.7617 16.9191L12.1922 17.108ZM12.1916 17.1063L12.1922 17.108L12.7617 16.9191L12.7611 16.9174L12.1916 17.1063ZM11.7491 15.7742C11.8965 16.2166 12.044 16.6613 12.1916 17.1063L12.7611 16.9174C12.6136 16.4725 12.4659 16.0274 12.3183 15.5844L11.7491 15.7742ZM11.7929 15.7791C11.8313 15.7484 11.8618 15.7241 11.888 15.704C11.9146 15.6837 11.9314 15.672 11.942 15.6653C11.9469 15.6622 11.9483 15.6617 11.9467 15.6624C11.9453 15.6631 11.9386 15.6664 11.9275 15.6697C11.9162 15.6731 11.8982 15.6772 11.8751 15.6779C11.8512 15.6787 11.8241 15.6757 11.796 15.6668C11.768 15.6579 11.7448 15.6449 11.7266 15.6313C11.709 15.6182 11.6974 15.6055 11.6907 15.5973C11.6842 15.5892 11.681 15.5837 11.6807 15.5831C11.6803 15.5824 11.6815 15.5844 11.6841 15.5903C11.6899 15.6029 11.6978 15.6231 11.7093 15.6556C11.7205 15.6877 11.7331 15.7257 11.7487 15.7731L12.3186 15.5855C12.29 15.4987 12.2611 15.4097 12.2305 15.3423C12.208 15.2928 12.141 15.1469 11.9777 15.095C11.8102 15.0418 11.6707 15.1273 11.6235 15.1568C11.5607 15.1961 11.4881 15.2545 11.4181 15.3105L11.7929 15.7791ZM10.0721 17.1553C10.6695 16.6764 11.2311 16.2268 11.7925 15.7794L11.4186 15.3102C10.8564 15.7581 10.2944 16.2082 9.69685 16.6871L10.0721 17.1553ZM8.85962 16.8119C8.85971 16.8122 8.85982 16.8124 8.85992 16.8127C8.85997 16.8128 8.86001 16.8129 8.86005 16.813C8.86006 16.8131 8.86008 16.8131 8.86008 16.8131C8.86009 16.8131 8.8601 16.8132 8.8601 16.8132C8.86002 16.8129 8.85986 16.8125 8.85854 16.8083L8.28626 16.9886C8.28928 16.9981 8.29624 17.0205 8.30813 17.0483L8.85962 16.8119ZM7.66801 17.3451C7.98334 17.306 8.30008 17.2668 8.62005 17.2279L8.5477 16.6323C8.22691 16.6713 7.90947 16.7106 7.59425 16.7496L7.66801 17.3451ZM6.27672 17.5149C6.74009 17.46 7.20254 17.4027 7.66801 17.3451L7.59425 16.7496C7.12851 16.8073 6.66764 16.8644 6.20612 16.9191L6.27672 17.5149ZM5.78835 16.9386C5.77487 16.988 5.75815 17.0485 5.75014 17.1002C5.74524 17.1319 5.72034 17.2762 5.82093 17.3999C5.92599 17.5291 6.07798 17.5283 6.11268 17.5284C6.16588 17.5286 6.22845 17.5208 6.27752 17.5149L6.20532 16.9192C6.17732 16.9226 6.15658 16.925 6.13973 16.9266C6.13158 16.9274 6.1255 16.9279 6.12099 16.9281C6.11641 16.9284 6.11456 16.9284 6.11475 16.9284C6.11482 16.9284 6.11875 16.9284 6.12542 16.9291C6.13196 16.9299 6.14388 16.9316 6.15913 16.9359C6.19111 16.9451 6.24315 16.9681 6.28644 17.0213C6.32885 17.0735 6.34005 17.1267 6.34292 17.155C6.34552 17.1807 6.34242 17.1962 6.34307 17.192C6.34474 17.1813 6.35043 17.158 6.36721 17.0965L5.78835 16.9386ZM6.13411 15.6978C6.01839 16.1108 5.90273 16.5235 5.78856 16.9378L6.367 17.0972C6.48077 16.6844 6.59607 16.2729 6.71185 15.8597L6.13411 15.6978ZM6.13431 15.6971L6.13424 15.6973L6.71171 15.8602L6.71178 15.86L6.13431 15.6971ZM6.21032 15.4258L6.13416 15.6976L6.71192 15.8595L6.78808 15.5876L6.21032 15.4258ZM6.21353 15.4111C6.21091 15.4229 6.20991 15.4272 6.20919 15.4299L6.78921 15.5835C6.79359 15.5669 6.7972 15.5505 6.79926 15.5412L6.21353 15.4111ZM6.83805 15.1718C6.79429 15.1384 6.7285 15.0957 6.64514 15.079C6.54321 15.0586 6.43272 15.0815 6.34624 15.1573C6.27725 15.2178 6.24866 15.291 6.23723 15.3236C6.22449 15.36 6.21668 15.3969 6.21353 15.4111L6.79926 15.5412C6.80419 15.519 6.8047 15.5185 6.80349 15.522C6.8024 15.5251 6.79862 15.5355 6.79067 15.5493C6.78273 15.5632 6.7676 15.5859 6.74174 15.6085C6.71433 15.6325 6.67813 15.6536 6.63457 15.6644C6.59189 15.675 6.5544 15.6728 6.52737 15.6674C6.48038 15.658 6.46017 15.6382 6.47418 15.6489L6.83805 15.1718ZM7.79095 15.9049C7.47342 15.6608 7.15602 15.4167 6.83919 15.1727L6.47303 15.648C6.7901 15.8922 7.10771 16.1364 7.4252 16.3806L7.79095 15.9049ZM7.79196 15.9057L7.79115 15.9051L7.425 16.3804L7.42581 16.3811L7.79196 15.9057ZM8.74453 16.6386C8.42726 16.3943 8.10945 16.1499 7.79176 15.9056L7.42601 16.3812C7.74374 16.6255 8.06135 16.8698 8.37838 17.114L8.74453 16.6386ZM8.85854 16.8083C8.85795 16.8064 8.85599 16.8001 8.85378 16.7937C8.85153 16.7871 8.84728 16.7751 8.84093 16.7611C8.82795 16.7323 8.7996 16.6799 8.74146 16.6363L8.38145 17.1163C8.32852 17.0766 8.30387 17.0296 8.29417 17.0081C8.28946 16.9977 8.28674 16.9898 8.28606 16.9878C8.28543 16.986 8.28508 16.9848 8.28625 16.9885L8.85854 16.8083ZM3.84781 8.30923L3.84777 8.31203L4.44771 8.3205L4.44775 8.31769L3.84781 8.30923ZM4.44778 8.31794V8.31346H3.84778V8.31794H4.44778ZM3.84782 8.32334L3.84786 8.32502L4.44769 8.31086L4.44765 8.30919L3.84782 8.32334ZM4.44766 8.30948C4.44501 8.19219 4.48213 8.04514 4.57355 7.90964L4.07617 7.57406C3.91731 7.80952 3.84227 8.07799 3.84781 8.32305L4.44766 8.30948ZM4.59334 8.93574C4.49562 8.76125 4.44432 8.57246 4.44771 8.3203L3.84776 8.31223C3.84305 8.66268 3.91727 8.95646 4.06984 9.2289L4.59334 8.93574ZM4.79378 9.10421C4.70198 9.06961 4.63758 9.01439 4.59306 8.93524L4.07011 9.2294C4.18699 9.43717 4.36468 9.5837 4.58222 9.66567L4.79378 9.10421ZM4.49747 9.37242C4.49732 9.37171 4.49591 9.3649 4.49551 9.35337C4.49511 9.34207 4.49553 9.32181 4.50176 9.29616C4.51643 9.23578 4.55957 9.16558 4.63901 9.12586C4.70402 9.09335 4.75941 9.0988 4.77436 9.10071C4.79277 9.10307 4.80131 9.10711 4.79629 9.10517L4.5797 9.66471C4.60943 9.67622 4.65076 9.68978 4.69817 9.69585C4.74212 9.70148 4.82272 9.70482 4.90734 9.66251C5.0064 9.61298 5.06356 9.52527 5.08481 9.43778C5.103 9.36287 5.09419 9.29462 5.08475 9.2495L4.49747 9.37242ZM4.42121 8.83709C4.44096 9.0056 4.46205 9.18673 4.49641 9.3671L5.08581 9.25483C5.05615 9.09909 5.03731 8.93939 5.01714 8.76726L4.42121 8.83709ZM4.41917 8.80217V8.80217H5.01917V8.80217H4.41917ZM4.21289 7.8856C4.34049 8.16788 4.3788 8.47508 4.42121 8.83708L5.01714 8.76725C4.97648 8.4203 4.93181 8.01934 4.75962 7.63845L4.21289 7.8856ZM4.19955 7.85382C4.20214 7.86022 4.20659 7.87125 4.21141 7.88227L4.76111 7.64179C4.7602 7.63971 4.75892 7.6366 4.75564 7.62852L4.19955 7.85382ZM4.33311 7.95025C4.27829 7.93197 4.24338 7.90122 4.22586 7.88281C4.20835 7.86441 4.19902 7.84872 4.19615 7.84373C4.19183 7.83624 4.19099 7.83269 4.19955 7.85382L4.75564 7.62852C4.75107 7.61724 4.73641 7.57958 4.71607 7.54426C4.70243 7.52059 4.64583 7.42203 4.52284 7.38104L4.33311 7.95025ZM4.58823 7.88724C4.5947 7.87713 4.59506 7.87678 4.59423 7.87791C4.59335 7.87909 4.58454 7.89118 4.56767 7.90551C4.55 7.92053 4.51713 7.94339 4.46901 7.95512C4.41776 7.96761 4.36876 7.96267 4.32942 7.94899L4.52653 7.38229C4.46506 7.36091 4.3962 7.3553 4.32692 7.37219C4.26077 7.38831 4.2117 7.42064 4.17921 7.44824C4.12351 7.49556 4.08758 7.55645 4.08282 7.56389L4.58823 7.88724ZM4.57207 7.91181C4.5789 7.90189 4.58518 7.89201 4.58824 7.88724L4.08282 7.56389C4.08088 7.56692 4.07973 7.56872 4.0787 7.57029C4.07774 7.57178 4.07747 7.57216 4.07765 7.57189L4.57207 7.91181ZM13.6828 7.63244C13.3218 8.18925 13.2373 8.79621 13.1853 9.35253L13.7827 9.40838C13.8338 8.86184 13.9107 8.38387 14.1863 7.95887L13.6828 7.63244ZM13.5108 9.67925C13.7445 9.65828 13.9267 9.52713 14.054 9.37334C14.1809 9.22011 14.2688 9.02778 14.3216 8.83292C14.4234 8.45701 14.4184 7.97117 14.182 7.62613L13.687 7.96518C13.7869 8.11104 13.8189 8.39407 13.7425 8.67606C13.7062 8.81015 13.6512 8.91904 13.5919 8.99067C13.533 9.06173 13.4858 9.07909 13.4572 9.08165L13.5108 9.67925ZM7.19198 7.39504C6.45063 7.39504 5.84516 7.99743 5.84516 8.74186H6.44516C6.44516 8.32964 6.78116 7.99504 7.19198 7.99504V7.39504ZM8.5388 8.74186C8.5388 7.99785 7.936 7.39504 7.19198 7.39504V7.99504C7.60462 7.99504 7.9388 8.32922 7.9388 8.74186H8.5388ZM7.19198 10.0887C7.936 10.0887 8.5388 9.48587 8.5388 8.74186H7.9388C7.9388 9.1545 7.60462 9.48868 7.19198 9.48868V10.0887ZM5.84516 8.74186C5.84516 9.48587 6.44797 10.0887 7.19198 10.0887V9.48868C6.77934 9.48868 6.44516 9.1545 6.44516 8.74186H5.84516ZM10.22 8.67686C10.22 8.26463 10.556 7.93003 10.9668 7.93003V7.33003C10.2255 7.33003 9.61999 7.93242 9.61999 8.67686H10.22ZM10.9668 9.42367C10.5542 9.42367 10.22 9.0895 10.22 8.67686H9.61999C9.61999 9.42087 10.2228 10.0237 10.9668 10.0237V9.42367ZM11.7136 8.67686C11.7136 9.0895 11.3795 9.42367 10.9668 9.42367V10.0237C11.7108 10.0237 12.3136 9.42087 12.3136 8.67686H11.7136ZM10.9668 7.93003C11.3795 7.93003 11.7136 8.26421 11.7136 8.67686H12.3136C12.3136 7.93284 11.7108 7.33003 10.9668 7.33003V7.93003Z" fill="#1C4481" mask="url(#path-1-outside-1_13_810)"/>
<path fill-rule="evenodd" clip-rule="evenodd" d="M20.1452 5.33353H21.8786L18.7007 2.15564L15.5228 5.33353H17.2562V12.8449H20.1452V5.33353Z" fill="#1C4481"/>
</svg>
