<svg width="97" height="96" viewBox="0 0 97 96" fill="none" xmlns="http://www.w3.org/2000/svg">
<circle cx="48.5" cy="48" r="48" fill="#1C4481"/>
<g clip-path="url(#clip0_632_14437)">
<path d="M49.5986 61.581V70.0392C49.6106 70.2746 49.5295 70.5054 49.3723 70.6832C49.215 70.8611 48.9938 70.9721 48.7552 70.993C48.6272 71.0083 48.4973 70.9968 48.3741 70.9592C48.2509 70.9217 48.1372 70.8589 48.0404 70.7751L37.1262 61.9888C35.4727 60.6576 33.8177 59.3296 32.161 58.0047C32.088 57.951 31.9996 57.9215 31.9085 57.9203C29.3878 57.9203 26.8663 57.9203 24.344 57.9203C24.0996 57.9278 23.8562 57.8859 23.6288 57.7972C23.4015 57.7086 23.1951 57.575 23.0223 57.4048C22.8495 57.2346 22.714 57.0313 22.6241 56.8076C22.5343 56.5839 22.492 56.3444 22.4999 56.104C22.4999 51.0464 22.4999 45.9889 22.4999 40.9313C22.4901 40.6884 22.5317 40.4461 22.622 40.2198C22.7122 39.9934 22.8492 39.788 23.0243 39.6164C23.1994 39.4448 23.4088 39.3109 23.6392 39.2229C23.8697 39.135 24.1162 39.0951 24.3631 39.1056H31.9109C32.0096 39.1099 32.1061 39.0763 32.1801 39.0119C35.6379 36.2261 39.0957 33.4419 42.5535 30.6592L48.0333 26.2485C48.1704 26.1247 48.3427 26.0451 48.5271 26.0204C48.7115 25.9957 48.8991 26.027 49.0649 26.1102C49.2329 26.184 49.3739 26.3067 49.4689 26.4618C49.5639 26.6168 49.6083 26.7967 49.5962 26.9774C49.5962 32.6224 49.5962 38.2666 49.5962 43.9101C49.5901 43.9651 49.604 44.0204 49.6354 44.0663C49.6668 44.1122 49.7137 44.1457 49.7677 44.1608C51.538 44.9131 52.5815 46.2232 52.765 48.1169C52.8604 49.1219 52.6188 50.13 52.0772 50.9874C51.5356 51.8447 50.7237 52.5042 49.7654 52.8651C49.7113 52.8807 49.6646 52.9148 49.6337 52.9611C49.6027 53.0075 49.5894 53.0631 49.5962 53.1182C49.5994 55.9368 49.6002 58.7577 49.5986 61.581Z" fill="#F2E8E0"/>
<path d="M73.4907 48.3418C73.5117 51.0999 73.0681 53.8423 72.1779 56.4578C71.127 59.5349 69.4761 62.3808 67.3176 64.8362C65.3256 67.1182 62.9338 69.0304 60.2559 70.4821C60.077 70.5903 59.8781 70.6623 59.6706 70.6939C59.4631 70.7255 59.2513 70.716 59.0476 70.666C58.8439 70.616 58.6524 70.5265 58.4843 70.4028C58.3162 70.279 58.1749 70.1235 58.0687 69.9454C57.9586 69.76 57.8879 69.5546 57.861 69.3415C57.834 69.1285 57.8514 68.9122 57.912 68.706C57.9726 68.4997 58.0752 68.3078 58.2135 68.1417C58.3518 67.9756 58.5231 67.839 58.7168 67.74C60.2502 66.9069 61.6798 65.9009 62.9767 64.7425C65.1467 62.8118 66.9083 60.4791 68.161 57.878C68.9918 56.1539 69.5886 54.3297 69.936 52.4525C70.2219 50.9281 70.3409 49.3779 70.291 47.8286C70.2066 45.0516 69.5839 42.316 68.4565 39.7688C67.406 37.3864 65.9301 35.2084 64.0989 33.3379C62.7664 31.9815 61.2702 30.7907 59.6435 29.792C59.2511 29.5373 58.915 29.2074 58.655 28.822C58.3951 28.4367 58.2168 28.0038 58.1307 27.5491C58.0532 27.2556 58.0532 26.9474 58.1307 26.6539C58.1524 26.5447 58.1965 26.4411 58.2606 26.3494C58.3246 26.2577 58.4071 26.1799 58.5029 26.1208C58.5987 26.0617 58.7058 26.0226 58.8176 26.0059C58.9294 25.9891 59.0434 25.9951 59.1528 26.0234C59.3498 26.0717 59.5396 26.145 59.7174 26.2414C61.8129 27.3069 63.7457 28.6567 65.4593 30.2513C68.0551 32.652 70.1129 35.5592 71.5013 38.7868C72.285 40.6077 72.8448 42.514 73.169 44.4655C73.3848 45.7466 73.4924 47.0432 73.4907 48.3418Z" fill="#F2E8E0"/>
<path d="M67.134 48.5856C67.1261 51.6095 66.3689 54.5859 64.9278 57.257C63.1397 60.6101 60.3624 63.3527 56.9607 65.1246C56.7057 65.2691 56.4153 65.3418 56.1211 65.3348C55.8269 65.3278 55.5404 65.2413 55.2929 65.0847C55.0451 64.945 54.8434 64.7382 54.7116 64.4889C54.5798 64.2396 54.5236 63.9584 54.5496 63.6786C54.5578 63.4044 54.642 63.1376 54.7932 62.9071C54.9443 62.6766 55.1567 62.4912 55.4073 62.3708C56.8189 61.6374 58.1124 60.7022 59.2455 59.596C60.4656 58.4034 61.4817 57.0248 62.2546 55.5134C63.0288 54.0042 63.5463 52.3804 63.7865 50.7066C63.9918 49.2916 63.9982 47.8555 63.8056 46.4388C63.5405 44.4278 62.8733 42.4882 61.8424 40.7321C60.4504 38.3353 58.438 36.3437 56.01 34.9597C55.7384 34.8004 55.4477 34.6691 55.1928 34.491C54.8906 34.2766 54.6754 33.9638 54.5856 33.6081C54.4957 33.2523 54.5369 32.8768 54.702 32.5482C54.8621 32.2255 55.1292 31.9661 55.4592 31.8127C55.7892 31.6594 56.1625 31.6212 56.5175 31.7044C56.6738 31.7395 56.8245 31.7955 56.9654 31.8709C59.9054 33.405 62.3879 35.6668 64.1678 38.433C65.3985 40.3298 66.268 42.4311 66.7337 44.6342C67.0039 45.9345 67.138 47.2585 67.134 48.5856Z" fill="#F2E8E0"/>
<path d="M60.751 48.8692C60.6957 51.2339 59.9442 53.5322 58.5877 55.4852C57.3356 57.3176 55.616 58.7942 53.6011 59.767C53.0436 60.0412 52.4885 60.0834 51.9572 59.7412C51.7064 59.5958 51.5019 59.3841 51.3672 59.1302C51.2324 58.8762 51.1727 58.5902 51.1948 58.3046C51.2084 58.0211 51.3031 57.7472 51.4679 57.5142C51.6327 57.2812 51.8609 57.0987 52.1264 56.9875C53.8226 56.1865 55.2413 54.9116 56.2052 53.322C56.9036 52.1889 57.3427 50.9197 57.4918 49.6027C57.7146 47.8234 57.4058 46.0188 56.6031 44.4092C55.6603 42.4785 54.0712 40.9254 52.1025 40.0103C51.8902 39.922 51.7008 39.7879 51.5482 39.6179C51.3956 39.4479 51.2838 39.2464 51.221 39.0283C51.1407 38.7353 51.1493 38.4256 51.2458 38.1374C51.3424 37.8492 51.5226 37.5951 51.7642 37.4065C51.977 37.2022 52.2492 37.0682 52.543 37.0233C52.8368 36.9784 53.1376 37.0246 53.4034 37.1557C54.1729 37.4922 54.8998 37.9161 55.5691 38.4189C58.047 40.2064 59.7809 42.8181 60.4485 45.7685C60.6766 46.7862 60.7782 47.8274 60.751 48.8692Z" fill="#F2E8E0"/>
</g>
<defs>
<clipPath id="clip0_632_14437">
<rect width="51" height="45" fill="white" transform="translate(22.5 26)"/>
</clipPath>
</defs>
</svg>
