<svg width="54" height="53" viewBox="0 0 54 53" fill="none" xmlns="http://www.w3.org/2000/svg">
<ellipse cx="27" cy="26.5" rx="27" ry="26.5" fill="#1C4481"/>
<path d="M15.886 29.2445C15.0191 27.5568 15.0191 25.5548 15.886 23.8672V23.8672C16.2017 23.2526 16.7714 22.8078 17.4442 22.6506L19.3156 22.2134C19.444 22.1834 19.5571 22.1077 19.6337 22.0003L22.8748 17.4573C24.0684 15.7843 24.6652 14.9478 25.2212 15.1259C25.7773 15.3039 25.7773 16.3314 25.7773 18.3866L25.7773 34.7251C25.7773 36.7802 25.7773 37.8077 25.2212 37.9858C24.6652 38.1638 24.0684 37.3273 22.8748 35.6543L19.6337 31.1113C19.5571 31.004 19.444 30.9282 19.3156 30.8982L17.4442 30.461C16.7714 30.3039 16.2017 29.859 15.886 29.2445V29.2445Z" stroke="white" stroke-width="3"/>
<path d="M31.4583 21.3832C32.6267 22.748 33.2859 24.5968 33.2925 26.5268C33.299 28.4569 32.6522 30.3117 31.493 31.6871" stroke="white" stroke-width="3" stroke-linecap="round"/>
<path d="M36.6202 18.28C38.4897 20.4636 39.5445 23.4217 39.5549 26.5098C39.5653 29.5979 38.5305 32.5656 36.6758 34.7663" stroke="white" stroke-width="3" stroke-linecap="round"/>
</svg>
