<svg width="23" height="27" viewBox="0 0 23 27" fill="none" xmlns="http://www.w3.org/2000/svg">
<path d="M1 4C1 2.34315 2.34315 1 4 1H12C13.6569 1 15 2.34315 15 4V21H1V4Z" stroke="white" stroke-width="2"/>
<path d="M5 11C5 9.89543 5.89543 9 7 9H9C10.1046 9 11 9.89543 11 11V20H5V11Z" fill="white"/>
<circle cx="14.5" cy="18.5" r="7.5" fill="white" stroke="#1C4481" stroke-width="2"/>
<path fill-rule="evenodd" clip-rule="evenodd" d="M13.1997 14.5528C13.5941 14.1869 14.1198 13.9903 14.6793 14.0004C15.8035 14.0198 16.6961 14.8755 16.711 15.9483C16.7185 16.4687 16.4943 16.983 16.096 17.3591C15.7071 17.7265 15.1995 17.9275 14.6632 17.9275H14.629C14.0812 17.9294 13.5677 17.7283 13.1788 17.3598C12.7833 16.9845 12.5666 16.4858 12.5694 15.955C12.5717 15.4328 12.8017 14.9217 13.1997 14.5528ZM15.5876 16.8268C15.8302 16.588 15.9572 16.2754 15.9454 15.9468L15.9458 15.9464V15.9434V15.9405C15.9541 15.2962 15.3772 14.7378 14.6864 14.7218C14.6746 14.7214 14.6628 14.7214 14.651 14.7214C14.292 14.7214 13.9586 14.8505 13.7089 15.0866C13.4549 15.3272 13.3192 15.6487 13.3271 15.9923C13.3428 16.6749 13.9212 17.2091 14.6439 17.2091H14.6471C14.9986 17.2084 15.3415 17.0688 15.5876 16.8268ZM13.0573 20.4924C13.0821 20.4122 13.0978 20.3298 13.0962 20.2455V20.2448C13.097 20.1452 13.0777 20.0866 13.0215 20.0366C12.9 19.9288 12.7781 19.8218 12.6546 19.7158C12.5984 19.6673 12.5308 19.6442 12.4533 19.6442C12.3519 19.6446 12.2555 19.6666 12.1631 19.702C12.123 19.7173 12.099 19.7158 12.0743 19.6789C12.0212 19.5998 11.95 19.5356 11.8718 19.4789C11.8089 19.4334 11.7385 19.4181 11.6598 19.4263C11.5808 19.4349 11.5024 19.448 11.424 19.4611L11.424 19.4611C11.3547 19.4727 11.2853 19.4843 11.2155 19.4927C11.1117 19.5051 11.0378 19.5517 10.9808 19.6334C10.9308 19.7054 10.8935 19.7822 10.8675 19.8639C10.8565 19.8986 10.8373 19.9064 10.8034 19.9034C10.6863 19.8934 10.573 19.9105 10.4617 19.946C10.4114 19.962 10.3721 19.9904 10.3461 20.0336C10.2596 20.1776 10.1739 20.3216 10.0882 20.466C10.0548 20.5227 10.0485 20.5827 10.0642 20.6458C10.0894 20.7468 10.1373 20.8379 10.1999 20.9218C10.218 20.9457 10.218 20.9595 10.1967 20.98C10.1228 21.0516 10.0697 21.1363 10.0257 21.2269C9.99226 21.2959 9.99186 21.3638 10.0221 21.4336C10.0725 21.5496 10.122 21.6656 10.1676 21.7835C10.201 21.8704 10.2357 21.958 10.3399 21.9968C10.4362 22.0326 10.5329 22.0632 10.6375 22.064C10.6764 22.0644 10.6933 22.0789 10.6981 22.1147C10.7067 22.1796 10.7252 22.2415 10.7504 22.3027C10.8007 22.4258 10.8813 22.5105 11.0248 22.5418C11.1352 22.5659 11.2431 22.6001 11.3508 22.6343L11.4086 22.6526C11.4927 22.6791 11.569 22.6653 11.6433 22.6261C11.731 22.5799 11.8108 22.5235 11.8777 22.4527C11.9017 22.4277 11.9209 22.4281 11.9492 22.4445C12.0365 22.4948 12.1325 22.5254 12.2323 22.5433C12.2976 22.5553 12.3645 22.5545 12.4219 22.5179C12.5431 22.4404 12.6633 22.3613 12.7835 22.2822L12.7835 22.2822L12.7836 22.2821L12.8532 22.2363C12.9083 22.2001 12.9389 22.1479 12.9527 22.0867C12.9759 21.9856 12.9794 21.8838 12.9602 21.7824C12.9535 21.748 12.9617 21.7335 12.996 21.7201C13.1068 21.6768 13.2091 21.6197 13.2901 21.5332C13.3219 21.4989 13.3475 21.4612 13.3514 21.4146C13.3652 21.2512 13.3789 21.0878 13.3899 20.9244C13.3943 20.8573 13.3711 20.7972 13.3215 20.7465C13.2523 20.676 13.1796 20.6096 13.0887 20.5641C13.0561 20.5477 13.0463 20.5279 13.0573 20.4924ZM10.923 21.6481C10.8797 21.613 10.8306 21.5895 10.7763 21.5958L10.7743 21.5955C10.7393 21.5932 10.7096 21.6 10.6804 21.6068L10.6678 21.6096C10.6379 21.6164 10.6143 21.6078 10.6029 21.582C10.5719 21.5116 10.5431 21.4401 10.5143 21.3689L10.5143 21.3689L10.5143 21.3689L10.5097 21.3575C10.5003 21.3344 10.5136 21.3153 10.5333 21.3067C10.6721 21.2471 10.7036 21.1329 10.7047 21.0042C10.705 20.9819 10.7076 20.9598 10.7101 20.9377C10.7147 20.8973 10.7194 20.8568 10.7102 20.8151C10.6977 20.7577 10.6701 20.7133 10.623 20.6752C10.5482 20.6152 10.549 20.6133 10.5966 20.5346C10.6171 20.5006 10.6382 20.4669 10.6594 20.4333L10.6594 20.4332L10.6835 20.3947C10.704 20.3619 10.7319 20.3496 10.77 20.3664C10.8785 20.4141 10.9757 20.3925 11.0681 20.3272C11.0924 20.3098 11.1178 20.2936 11.1431 20.2773L11.1431 20.2773L11.1432 20.2773C11.1706 20.2597 11.198 20.2421 11.2242 20.2231C11.2922 20.1739 11.3347 20.1116 11.3292 20.025C11.3248 19.9553 11.3382 19.9415 11.4109 19.9296C11.4472 19.9236 11.4837 19.9189 11.5203 19.9141C11.5499 19.9103 11.5795 19.9065 11.6091 19.902C11.6469 19.8964 11.6626 19.9176 11.6744 19.9452L11.6827 19.9656C11.6927 19.9905 11.7027 20.0152 11.7184 20.0381C11.7475 20.0803 11.7865 20.1094 11.8352 20.1261C11.9182 20.1545 12.0015 20.1817 12.0876 20.2C12.1686 20.2172 12.2418 20.2067 12.3071 20.1522C12.3664 20.1026 12.3837 20.1052 12.4431 20.1575C12.4643 20.1761 12.4854 20.195 12.5065 20.2138C12.533 20.2374 12.5595 20.261 12.5862 20.2843C12.6106 20.3056 12.6138 20.3279 12.5949 20.3541L12.5871 20.365L12.5871 20.365C12.575 20.3818 12.5629 20.3986 12.5532 20.4167C12.5186 20.4794 12.519 20.5443 12.5465 20.6096C12.5607 20.6426 12.5746 20.6756 12.5886 20.7086L12.5886 20.7087C12.6026 20.7417 12.6165 20.7747 12.6307 20.8076C12.668 20.8934 12.7349 20.9434 12.8316 20.9587C12.8831 20.9669 12.9016 20.9897 12.8973 21.0389C12.8953 21.0628 12.8929 21.0867 12.8905 21.1106L12.8905 21.1106L12.8905 21.1107C12.8866 21.1498 12.8827 21.189 12.8807 21.2284C12.8784 21.2702 12.8583 21.2941 12.8163 21.2952C12.692 21.2982 12.6161 21.3653 12.5603 21.4623C12.5308 21.5138 12.5001 21.5649 12.4687 21.6156C12.4246 21.6861 12.4305 21.7566 12.4655 21.8286C12.5009 21.9006 12.4985 21.9069 12.4297 21.9539C12.4082 21.9688 12.3865 21.9834 12.3648 21.998L12.3647 21.9981L12.3647 21.9981L12.3646 21.9982C12.3345 22.0185 12.3045 22.0387 12.2748 22.0595C12.2441 22.0808 12.2154 22.08 12.1938 22.0513C12.1164 21.948 12.0102 21.9338 11.8895 21.9573C11.8555 21.9639 11.8212 21.9688 11.7868 21.9738L11.7868 21.9738L11.7868 21.9738C11.7631 21.9772 11.7393 21.9806 11.7157 21.9845C11.6311 21.9991 11.571 22.0442 11.532 22.1166C11.4915 22.1908 11.4841 22.1916 11.3984 22.1636C11.3712 22.1547 11.3434 22.1473 11.3155 22.1399C11.2886 22.1328 11.2615 22.1256 11.2348 22.117C11.19 22.1028 11.1715 22.0774 11.1809 22.0375C11.2092 21.9192 11.1581 21.8349 11.0614 21.7656C11.032 21.7444 11.0052 21.7203 10.9783 21.6961C10.9601 21.6798 10.942 21.6635 10.923 21.6481ZM17.9979 21.5795C17.9959 21.5433 17.9944 21.5108 17.9932 21.4806L17.9932 21.4801C17.9904 21.4154 17.9881 21.3596 17.9798 21.3016C17.922 20.8797 17.8257 20.5398 17.6771 20.2321C17.541 19.9505 17.368 19.6976 17.1631 19.4808C16.9205 19.2242 16.6209 19.0164 16.2729 18.8631C16.0158 18.7497 15.7673 18.6744 15.5133 18.633C15.2876 18.596 15.0622 18.5744 14.8444 18.5692C14.4563 18.5599 13.9986 18.5658 13.5468 18.6844C13.3848 18.727 13.1733 18.7878 12.972 18.8833C12.7726 18.9776 12.6948 19.1809 12.7824 19.3775C12.8206 19.4629 12.9024 19.536 13.0015 19.573C13.1005 19.6103 13.2071 19.6084 13.3015 19.5689C13.3194 19.5614 13.3379 19.5549 13.3562 19.5484L13.3616 19.5465C13.3833 19.539 13.4049 19.5312 13.4261 19.523C13.7163 19.4074 14.0391 19.3413 14.3848 19.3272C14.5971 19.3186 14.7677 19.3204 14.9215 19.3335C15.1291 19.3507 15.3438 19.3689 15.5463 19.4204C16.1015 19.5622 16.5065 19.8363 16.7841 20.259C16.9481 20.5085 17.0641 20.7894 17.1376 21.118C17.1722 21.2717 17.1922 21.4321 17.1989 21.6074C17.2044 21.7477 17.2831 21.87 17.4097 21.9349C17.4683 21.9648 17.532 21.9797 17.5961 21.9797C17.6676 21.9797 17.7392 21.9611 17.8041 21.9238C17.937 21.8473 18.0125 21.713 17.9983 21.5802L17.9979 21.5795ZM10.971 21.0639C10.9749 21.4235 11.3028 21.7297 11.6748 21.7245V21.7241C12.0653 21.7297 12.3959 21.4212 12.3928 21.0437C12.3897 20.6584 12.0389 20.3544 11.6371 20.3775C11.2855 20.3977 10.9663 20.6782 10.971 21.0639ZM11.6913 21.2638C11.5482 21.266 11.4487 21.1657 11.4605 21.0489H11.4609C11.4597 20.9247 11.549 20.8386 11.6795 20.8382C11.8065 20.8378 11.9088 20.9322 11.9095 21.0508C11.9103 21.1664 11.8112 21.2619 11.6913 21.2638Z" fill="#1C4481"/>
<rect x="4" y="4" width="8" height="3" rx="1.5" fill="white"/>
</svg>
