<svg width="17" height="17" viewBox="0 0 24 18" fill="none" xmlns="http://www.w3.org/2000/svg">
<path d="M20.0753 6.41825L11.6105 0.0685972C11.55 0.0234213 11.4817 -0.00020778 11.4123 1.37655e-06C11.3429 0.000210533 11.2747 0.0242508 11.2143 0.069791L2.75673 6.47496C2.56311 6.62119 2.49483 6.94888 2.60489 7.20614C2.6387 7.2852 2.68708 7.35154 2.74549 7.39893L11.1137 14.1676C11.248 14.2768 11.412 14.2685 11.5377 14.1646L20.1072 7.36193C20.2981 7.20972 20.3605 6.88024 20.246 6.62657C20.2058 6.53628 20.1464 6.46381 20.0753 6.41825ZM8.67662 16.9443C8.46144 17.0195 8.33251 17.3138 8.38911 17.6003C8.44572 17.8862 8.66718 18.0575 8.88236 17.9823L10.2422 17.5048C10.4578 17.4296 10.5867 17.1353 10.5297 16.8488L10.1636 15.008C10.107 14.7215 9.88593 14.5508 9.6703 14.626C9.45468 14.7012 9.32575 14.9949 9.38235 15.2814L9.50858 15.9147L1.45038 9.73812L1.89286 9.58055C2.10849 9.50415 2.23652 9.20928 2.17902 8.92338C2.12152 8.63687 1.8996 8.46616 1.68397 8.54256L0.29991 9.03559C0.0842819 9.11199 -0.0437469 9.40685 0.0137539 9.69336L0.377626 11.4983C0.435127 11.7848 0.657045 11.955 0.872673 11.8786C1.0883 11.8022 1.21633 11.5073 1.15883 11.2208L1.04697 10.6657L9.06205 16.8088L8.67662 16.9443ZM13.8468 17.9817C14.0696 18.0062 14.2654 17.7859 14.2834 17.4905C14.3014 17.1944 14.1361 16.9342 13.9132 16.9103L13.5058 16.8643L21.9472 10.1613L21.8412 10.6878C21.7837 10.9737 21.9117 11.2685 22.1273 11.3449C22.343 11.4219 22.5649 11.2512 22.6224 10.9647L22.9862 9.16034C23.0437 8.87384 22.9157 8.57897 22.7001 8.50257L21.316 8.00955C21.1004 7.93315 20.8785 8.10326 20.821 8.38976C20.7635 8.67627 20.8915 8.97053 21.1071 9.04753L21.5689 9.21167L12.964 16.0454L13.0031 15.4348C13.0211 15.1393 12.8558 14.8791 12.6329 14.8552C12.4106 14.8307 12.2147 15.051 12.1967 15.3465L12.0755 17.2439C12.057 17.5394 12.2228 17.7996 12.4452 17.8241L13.8468 17.9817ZM11.4146 1.15135L19.0973 6.91426L11.3257 13.0837L3.75086 6.95605L11.4146 1.15135Z" fill="#1C4481" stroke="#1C4481" stroke-width="0.5"/>
</svg>
