<svg width="17" height="17" viewBox="0 0 24 24" fill="none" xmlns="http://www.w3.org/2000/svg">
<path fill-rule="evenodd" clip-rule="evenodd" d="M6 6.5C6 5.67157 6.56554 5 7.26316 5H20.7368C21.4345 5 22 5.67157 22 6.5C22 7.32843 21.4345 8 20.7368 8H7.26316C6.56554 8 6 7.32843 6 6.5Z" fill="#A7C8FF"/>
<path fill-rule="evenodd" clip-rule="evenodd" d="M6 11.5C6 10.6716 6.56554 10 7.26316 10H20.7368C21.4345 10 22 10.6716 22 11.5C22 12.3284 21.4345 13 20.7368 13H7.26316C6.56554 13 6 12.3284 6 11.5Z" fill="#A7C8FF"/>
<path fill-rule="evenodd" clip-rule="evenodd" d="M6 16.5C6 15.6716 6.56554 15 7.26316 15H20.7368C21.4345 15 22 15.6716 22 16.5C22 17.3284 21.4345 18 20.7368 18H7.26316C6.56554 18 6 17.3284 6 16.5Z" fill="#A7C8FF"/>
<circle cx="2.5" cy="6.5" r="1.5" fill="#A7C8FF"/>
<circle cx="2.5" cy="11.5" r="1.5" fill="#A7C8FF"/>
<circle cx="2.5" cy="16.5" r="1.5" fill="#A7C8FF"/>
</svg>
