<svg width="17" height="17" viewBox="0 0 22 22" fill="none" xmlns="http://www.w3.org/2000/svg">
<g clip-path="url(#clip0_13_830)">
<path d="M10.6036 0.49997C10.2164 0.623537 9.86062 0.794256 9.58645 1.11185C8.80559 2.01584 9.05704 3.40652 10.1153 3.9577C10.2678 4.03682 10.317 4.12625 10.3132 4.28884C10.3035 4.66387 10.3154 5.03946 10.3084 5.41504C10.3051 5.58304 10.3662 5.65729 10.5355 5.63507C10.8334 5.59605 11.132 5.60472 11.4299 5.63507C11.5813 5.65079 11.6365 5.58196 11.6349 5.43455C11.6305 5.03891 11.6376 4.64274 11.6316 4.24711C11.63 4.11595 11.6684 4.04008 11.7933 3.97775C12.5109 3.62114 12.8478 2.93339 12.8121 2.2684C12.7667 1.4148 12.2751 0.808347 11.491 0.559586C11.4396 0.543327 11.3899 0.520022 11.3396 0.49997H10.6031H10.6036Z" fill="#1C4481"/>
<path d="M0.5 11.2406C0.62762 11.6574 0.812561 12.0335 1.16298 12.3186C2.05956 13.0492 3.41363 12.789 3.9452 11.7636C4.03443 11.5913 4.13339 11.5295 4.32157 11.5366C4.68875 11.5501 5.05701 11.536 5.42473 11.5425C5.57723 11.5452 5.64266 11.4834 5.61995 11.336C5.57236 11.0293 5.614 10.7236 5.63022 10.4185C5.63779 10.2819 5.59399 10.2386 5.46042 10.2407C5.05863 10.2467 4.65685 10.2375 4.25506 10.2456C4.11122 10.2483 4.03821 10.1957 3.97386 10.0678C3.61263 9.34649 2.93073 8.98771 2.0839 9.05979C1.42038 9.11615 0.784982 9.65703 0.566514 10.3507C0.545965 10.4158 0.522171 10.4797 0.5 10.5437C0.5 10.7762 0.5 11.0081 0.5 11.2406Z" fill="#1C4481"/>
<path d="M15.3591 10.9864C15.3558 8.57359 13.3729 6.5938 10.9627 6.59705C8.55521 6.6003 6.5798 8.58768 6.58304 11.0032C6.58629 13.416 8.56927 15.3958 10.9794 15.3926C13.3869 15.3893 15.3623 13.4019 15.3591 10.9864ZM10.6285 10.9973C10.6285 11.2357 10.6252 11.4747 10.6301 11.7132C10.6323 11.8319 10.5928 11.8899 10.4663 11.8877C10.2007 11.8828 9.93523 11.8834 9.67026 11.8877C9.55832 11.8899 9.51452 11.8389 9.49722 11.7343C9.4161 11.239 9.41664 10.7452 9.4983 10.2499C9.51614 10.142 9.56643 10.0992 9.67513 10.1014C9.93361 10.1057 10.1926 10.1068 10.4511 10.1014C10.582 10.0987 10.635 10.1475 10.6312 10.2808C10.6247 10.5192 10.6296 10.7582 10.6296 10.9967L10.6285 10.9973ZM11.3142 10.994C11.3142 10.7555 11.3174 10.5165 11.3131 10.2781C11.3109 10.161 11.3482 10.1003 11.4759 10.1025C11.7414 10.1073 12.0069 10.1068 12.2719 10.1025C12.3827 10.1003 12.4287 10.1485 12.446 10.2542C12.5271 10.7496 12.5271 11.2433 12.446 11.7387C12.4282 11.846 12.3795 11.8904 12.2702 11.8882C12.0118 11.8839 11.7527 11.8828 11.4943 11.8882C11.3645 11.8909 11.3093 11.8443 11.3126 11.7099C11.319 11.4715 11.3142 11.2325 11.3142 10.994ZM8.33349 10.1036C8.42867 10.1036 8.52438 10.1073 8.61956 10.1025C8.75421 10.096 8.80233 10.1491 8.7807 10.2862C8.7077 10.7599 8.7104 11.2352 8.78179 11.7094C8.80017 11.8308 8.76394 11.8904 8.63362 11.8877C8.42975 11.8834 8.22534 11.8844 8.02093 11.8877C7.91602 11.8893 7.8587 11.8476 7.83491 11.7419C7.74731 11.3593 7.71702 10.9734 7.77651 10.5848C7.85059 10.1025 7.85492 10.103 8.33295 10.1036H8.33349ZM13.6259 11.8866C13.5167 11.8866 13.408 11.8839 13.2988 11.8872C13.1787 11.8909 13.1414 11.8286 13.156 11.7202C13.222 11.2379 13.222 10.7561 13.156 10.2737C13.1387 10.1491 13.1928 10.0992 13.3166 10.1025C13.5075 10.1073 13.6984 10.1095 13.8888 10.1014C14.0239 10.096 14.084 10.1534 14.1094 10.2835C14.1813 10.6542 14.2165 11.0233 14.1608 11.4016C14.0894 11.8861 14.098 11.8877 13.6265 11.8866H13.6259ZM10.628 14.0588C10.2278 13.6372 9.9547 13.2036 9.76219 12.718C9.73028 12.6378 9.76489 12.6042 9.84655 12.6047C10.0645 12.6063 10.2819 12.6063 10.4998 12.6058C10.5977 12.6058 10.6285 12.6616 10.628 12.7505C10.6269 13.1656 10.628 13.5808 10.628 14.0588ZM11.3147 7.92811C11.7089 8.3503 11.9809 8.77628 12.1745 9.2543C12.2167 9.3589 12.1724 9.38762 12.0734 9.38654C11.8695 9.38328 11.6651 9.38383 11.4613 9.38599C11.3585 9.38708 11.3136 9.34209 11.3136 9.23804C11.3153 8.82289 11.3142 8.40829 11.3142 7.92811H11.3147ZM11.3147 14.0539C11.3147 13.5808 11.3158 13.1656 11.3142 12.7505C11.3142 12.6459 11.3612 12.6031 11.4623 12.6042C11.6662 12.6063 11.8701 12.6063 12.074 12.6036C12.1735 12.602 12.2173 12.6324 12.1735 12.7359C11.9728 13.209 11.7079 13.6399 11.3147 14.0539ZM10.6285 7.9357C10.6285 8.4045 10.628 8.8126 10.6285 9.22124C10.6285 9.31283 10.6117 9.38491 10.4982 9.38491C10.2808 9.38437 10.0634 9.38491 9.84547 9.38599C9.76219 9.38599 9.73028 9.35077 9.76273 9.27218C9.96119 8.79092 10.2305 8.35572 10.6274 7.93624L10.6285 7.9357ZM12.3643 13.8962C12.5331 13.6014 12.6796 13.3515 12.7942 13.0849C13.0068 12.5906 13.0084 12.5912 13.5492 12.6042C13.5627 12.6042 13.5762 12.6053 13.5897 12.6042C13.7292 12.5982 13.7411 12.6551 13.6708 12.7608C13.4432 13.1055 13.162 13.3976 12.8262 13.6366C12.6958 13.7293 12.5623 13.8176 12.3643 13.8951V13.8962ZM9.57833 8.09449C9.40961 8.38932 9.26306 8.63917 9.14842 8.90581C8.9359 9.40008 8.93428 9.39954 8.39352 9.38654C8.38 9.38654 8.36648 9.38545 8.35296 9.38654C8.21344 9.3925 8.20155 9.33559 8.27185 9.22991C8.49951 8.88522 8.7807 8.5931 9.11652 8.3541C9.24684 8.26142 9.38041 8.17308 9.57887 8.09558L9.57833 8.09449ZM9.53615 13.8637C8.99431 13.616 8.57738 13.2296 8.2567 12.7353C8.22047 12.6795 8.19722 12.6107 8.30159 12.6085C8.49843 12.6042 8.69526 12.6074 8.8921 12.6112C8.95483 12.6123 8.98619 12.6589 9.00404 12.7142C9.13599 13.1163 9.3312 13.4892 9.53615 13.8637ZM12.4054 8.12701C12.6266 8.20939 12.8186 8.33404 12.9954 8.48091C13.2582 8.69933 13.4913 8.94592 13.6735 9.23695C13.7065 9.28952 13.7714 9.37353 13.6422 9.38057C13.4459 9.39141 13.2485 9.38328 13.0517 9.38003C12.9889 9.37895 12.957 9.33397 12.9386 9.27814C12.8061 8.87601 12.612 8.50314 12.4054 8.12647V8.12701Z" fill="#1C4481"/>
<path d="M10.3094 17.179C10.3094 17.3768 10.3057 17.5751 10.3111 17.773C10.3143 17.8835 10.2705 17.9442 10.1715 17.9946C9.53561 18.3182 9.1733 18.8466 9.13274 19.5522C9.07164 20.6101 9.86277 21.4464 10.8286 21.4968C11.9301 21.5548 12.7613 20.8204 12.8099 19.7164C12.8429 18.968 12.4893 18.3881 11.8225 18.0288C11.6814 17.9529 11.6262 17.8727 11.6305 17.7139C11.6408 17.3318 11.6294 16.9486 11.6354 16.5666C11.6376 16.4099 11.5824 16.3341 11.4207 16.3546C11.1157 16.3931 10.8102 16.3834 10.5052 16.3546C10.3646 16.3411 10.3067 16.405 10.31 16.5443C10.3149 16.7562 10.3111 16.9676 10.3111 17.1795C10.3111 17.1795 10.3105 17.1795 10.31 17.1795L10.3094 17.179Z" fill="#1C4481"/>
<path d="M17.1458 3.02342C15.8404 3.02287 14.9573 4.21953 15.332 5.41185C15.3818 5.5701 15.3623 5.67524 15.2407 5.79014C14.9681 6.04757 14.7129 6.32289 14.4419 6.58195C14.3241 6.69468 14.2997 6.77435 14.4414 6.88978C14.6631 7.07026 14.8746 7.26591 15.0481 7.49516C15.1758 7.66371 15.2699 7.63336 15.4002 7.49407C15.6511 7.22472 15.922 6.97487 16.1756 6.70768C16.2789 6.59875 16.3725 6.57978 16.5169 6.6253C17.4405 6.91688 18.4317 6.46001 18.7843 5.5907C19.1563 4.67369 18.7902 3.66998 17.9131 3.2169C17.6557 3.08412 17.381 3.00824 17.1463 3.02396L17.1458 3.02342Z" fill="#1C4481"/>
<path d="M6.69716 17.1264C6.69608 16.9351 6.69446 16.7405 6.6155 16.5639C6.54358 16.4034 6.59604 16.301 6.71284 16.1899C6.98431 15.9314 7.24009 15.6561 7.51155 15.3975C7.63809 15.2772 7.63052 15.1981 7.49695 15.0903C7.26388 14.9011 7.05352 14.6854 6.86317 14.4529C6.7707 14.3402 6.69986 14.3396 6.59982 14.4426C6.32457 14.7266 6.03905 15.0008 5.76434 15.2854C5.66863 15.3845 5.58265 15.4149 5.44205 15.3705C4.65253 15.1201 3.89492 15.3629 3.38499 16.0176C2.9302 16.6007 2.8837 17.4429 3.3109 18.1101C3.73324 18.7696 4.36701 19.0563 5.13381 18.9442C5.85681 18.8385 6.35378 18.4087 6.60523 17.7101C6.67283 17.5215 6.69878 17.3264 6.69662 17.127L6.69716 17.1264Z" fill="#1C4481"/>
<path d="M4.84935 6.71309C5.04782 6.71092 5.24736 6.7055 5.43122 6.62421C5.57506 6.5608 5.66915 6.60415 5.77136 6.71038C6.03525 6.98624 6.31266 7.24963 6.57709 7.52549C6.68471 7.63768 6.76149 7.65556 6.86965 7.52278C7.06324 7.28432 7.28171 7.06753 7.52235 6.87568C7.64294 6.77975 7.62077 6.70713 7.52397 6.61228C7.26062 6.35485 7.00916 6.08441 6.73932 5.83403C6.59656 5.70179 6.56628 5.58526 6.6209 5.38907C6.8107 4.70512 6.6647 4.07915 6.16449 3.57512C5.6724 3.07868 5.06025 2.90851 4.37889 3.09223C3.46716 3.33774 2.9118 4.19567 3.03077 5.14085C3.14162 6.021 3.916 6.69087 4.84881 6.71255L4.84935 6.71309Z" fill="#1C4481"/>
<path d="M17.1036 18.9614C18.0364 18.9587 18.8584 18.2157 18.9168 17.3209C18.9844 16.2922 18.3171 15.4197 17.3545 15.2956C17.0706 15.2587 16.7797 15.2625 16.5077 15.3725C16.3687 15.4289 16.2806 15.3899 16.1843 15.2907C15.9091 15.0062 15.6235 14.7319 15.3483 14.4474C15.2499 14.3455 15.179 14.3406 15.0849 14.4539C14.8849 14.6962 14.6626 14.9184 14.4209 15.1194C14.3057 15.2154 14.3181 15.2864 14.4176 15.3834C14.6961 15.6549 14.9643 15.9373 15.2455 16.2055C15.3591 16.3139 15.3851 16.412 15.3364 16.5659C14.9562 17.7745 15.8377 18.9647 17.1031 18.9614H17.1036Z" fill="#1C4481"/>
<path d="M17.1463 11.5453C17.3372 11.5453 17.5281 11.5512 17.7185 11.5431C17.8482 11.5377 17.9115 11.5924 17.9613 11.71C18.2787 12.4601 18.9741 12.8693 19.6998 12.846C20.4926 12.821 21.1582 12.317 21.3935 11.6136C21.6525 10.8375 21.434 10.07 20.8046 9.54922C19.955 8.84629 18.6551 9.0815 18.0786 10.0538C17.9883 10.2066 17.8893 10.2554 17.7206 10.2505C17.3259 10.2397 16.9306 10.2521 16.5353 10.2446C16.3898 10.2418 16.3487 10.2917 16.3568 10.4348C16.3741 10.7399 16.4152 11.0456 16.3671 11.3523C16.3455 11.4916 16.412 11.5507 16.5536 11.5458C16.751 11.5393 16.9489 11.5442 17.1463 11.5442V11.5453Z" fill="#1C4481"/>
</g>
<defs>
<clipPath id="clip0_13_830">
<rect width="21" height="21" fill="white" transform="matrix(1 0 0 -1 0.5 21.5)"/>
</clipPath>
</defs>
</svg>
