<svg width="18" height="17" viewBox="0 0 18 20" fill="none" xmlns="http://www.w3.org/2000/svg">
<g clip-path="url(#clip0_533_7550)">
<path d="M7.94059 12.9138H6.56493V11.3132H16.3387V3.23852H6.56493V1.61999H9.68926C9.88079 1.35795 10.0115 1.12478 10.1983 0.952611C10.3055 0.853285 10.5061 0.814501 10.6641 0.815447C11.0755 0.818757 11.357 1.10869 11.4657 1.61431H11.9804C13.6557 1.61431 15.3316 1.61431 17.0081 1.61431C17.6852 1.61431 17.993 1.92884 17.9926 2.60426C17.9926 5.72593 17.9868 8.8476 17.9993 11.9693C17.9993 12.4574 17.7077 12.9389 17.0455 12.9233C15.8963 12.8968 14.7471 12.9171 13.5979 12.9181H13.3106C13.4643 13.5273 13.6094 14.1048 13.7559 14.6823C14.0627 15.8941 14.3695 17.1057 14.6762 18.3171C14.8026 18.819 14.556 19.239 14.0763 19.3577C13.6338 19.4669 13.223 19.2092 13.0975 18.7201C12.6238 16.8613 12.1541 15.0017 11.6884 13.1413C11.6477 12.9777 11.5926 12.9048 11.4092 12.9114C10.8985 12.9253 10.3877 12.9253 9.87696 12.9114C9.6883 12.9062 9.61648 12.9729 9.57339 13.1479C9.11323 14.9926 8.64446 16.8372 8.18192 18.6818C8.08855 19.0545 7.87547 19.3033 7.48619 19.3695C7.15628 19.4253 6.89292 19.2957 6.69756 19.0327C6.53524 18.8133 6.52423 18.5721 6.58983 18.3138C7.03386 16.561 7.47549 14.8075 7.91473 13.0533C7.92335 13.0145 7.92862 12.9767 7.94059 12.9138Z" fill="#1C4481"/>
<path d="M4.91837 13.6642C4.91837 15.2558 4.91837 16.8479 4.91837 18.4413C4.91837 18.9143 4.69524 19.2289 4.29973 19.3447C3.83287 19.4814 3.3167 19.1929 3.25493 18.7157C3.18023 18.1386 3.15246 17.5554 3.11128 16.9742C3.02749 15.7567 2.94992 14.5383 2.8666 13.3209C2.85032 13.0844 2.66454 12.9136 2.44619 12.9221C2.23599 12.9306 2.07127 13.0957 2.05547 13.3261C1.95683 14.7715 1.85947 16.2171 1.76339 17.6628C1.74232 17.9769 1.73178 18.2928 1.69204 18.6045C1.63219 19.0742 1.25248 19.4086 0.827284 19.3849C0.357556 19.3618 0.0132819 19.0066 0.00514188 18.509C-0.0039558 17.7995 0.00178976 17.09 0.00178976 16.3806C0.00178976 13.6458 0.00178976 10.9113 0.00178976 8.1772C0.00178976 7.32158 0.496416 6.684 1.29701 6.50569C1.43772 6.47914 1.58093 6.46773 1.72412 6.47163C4.41193 6.46974 7.0999 6.46974 9.78802 6.47163C10.2846 6.47163 10.6284 6.80698 10.626 7.2757C10.626 7.73449 10.2673 8.07977 9.77797 8.07977C8.45385 8.08355 7.1291 8.0845 5.80372 8.0826C5.23918 8.0826 4.91693 8.39855 4.91645 8.95904C4.91741 10.5278 4.91805 12.0962 4.91837 13.6642Z" fill="#1C4481"/>
<path d="M0.00488281 2.42028C0.00488281 1.10398 1.12342 0.00146484 2.4603 0.00146484C3.79718 0.00146484 4.91572 1.10445 4.91763 2.4217C4.91763 3.75503 3.78521 4.87221 2.44833 4.85471C1.09565 4.83532 0.00488281 3.74747 0.00488281 2.42028Z" fill="#1C4481"/>
</g>
<defs>
<clipPath id="clip0_533_7550">
<rect width="18" height="19.3846" fill="white"/>
</clipPath>
</defs>
</svg>
