<svg width="17" height="17" viewBox="0 0 22 22" fill="none" xmlns="http://www.w3.org/2000/svg">
<g clip-path="url(#clip0_13_792)">
<path d="M4.875 4H8.375L10.125 8.375L7.9375 9.6875C8.87459 11.5876 10.4124 13.1254 12.3125 14.0625L13.625 11.875L18 13.625V17.125C18 17.5891 17.8156 18.0342 17.4874 18.3624C17.1592 18.6906 16.7141 18.875 16.25 18.875C12.8369 18.6676 9.61763 17.2182 7.19973 14.8003C4.78182 12.3824 3.33242 9.16314 3.125 5.75C3.125 5.28587 3.30937 4.84075 3.63756 4.51256C3.96575 4.18437 4.41087 4 4.875 4Z" stroke="#1C4481" stroke-width="2" stroke-linecap="round" stroke-linejoin="round"/>
</g>
<defs>
<clipPath id="clip0_13_792">
<rect width="21" height="21" fill="white" transform="translate(0.5 0.5)"/>
</clipPath>
</defs>
</svg>
