<svg width="17" height="17" viewBox="0 0 18 20" fill="none" xmlns="http://www.w3.org/2000/svg">
<g clip-path="url(#clip0_747_6793)">
<path d="M7.94035 13.2214H6.56468V11.6209H16.3385V3.54614H6.56468V1.9276H9.68902C9.88055 1.66557 10.0113 1.43239 10.198 1.26023C10.3053 1.1609 10.5059 1.12212 10.6639 1.12306C11.0752 1.12637 11.3568 1.41631 11.4655 1.92193H11.9802C13.6554 1.92193 15.3313 1.92193 17.0079 1.92193C17.6849 1.92193 17.9928 2.23646 17.9923 2.91187C17.9923 6.03354 17.9866 9.15521 17.999 12.2769C17.999 12.765 17.7074 13.2465 17.0452 13.2309C15.896 13.2044 14.7468 13.2247 13.5977 13.2257H13.3104C13.4641 13.8349 13.6092 14.4124 13.7557 14.9899C14.0624 16.2017 14.3692 17.4133 14.676 18.6247C14.8024 19.1266 14.5558 19.5466 14.076 19.6653C13.6336 19.7746 13.2227 19.5168 13.0973 19.0277C12.6236 17.1689 12.1538 15.3093 11.6881 13.4489C11.6474 13.2853 11.5923 13.2124 11.409 13.2191C10.8982 13.2329 10.3875 13.2329 9.87672 13.2191C9.68806 13.2139 9.61624 13.2805 9.57314 13.4555C9.11299 15.3002 8.64422 17.1448 8.18168 18.9894C8.0883 19.3621 7.87523 19.6109 7.48594 19.6771C7.15603 19.7329 6.89268 19.6033 6.69732 19.3404C6.535 19.1209 6.52398 18.8797 6.58958 18.6214C7.03361 16.8686 7.47525 15.1151 7.91449 13.361C7.92311 13.3222 7.92838 13.2843 7.94035 13.2214Z" fill="#1C4481"/>
<path d="M4.91861 13.9719C4.91861 15.5634 4.91861 17.1555 4.91861 18.749C4.91861 19.2219 4.69548 19.5365 4.29997 19.6524C3.83311 19.789 3.31694 19.5005 3.25517 19.0233C3.18048 18.4463 3.1527 17.8631 3.11153 17.2818C3.02773 16.0643 2.95016 14.8459 2.86685 13.6285C2.85057 13.392 2.66478 13.2212 2.44644 13.2298C2.23623 13.2383 2.07152 13.4033 2.05571 13.6337C1.95708 15.0791 1.85972 16.5247 1.76363 17.9704C1.74256 18.2845 1.73203 18.6004 1.69229 18.9121C1.63243 19.3818 1.25273 19.7162 0.827528 19.6926C0.357801 19.6694 0.0135261 19.3142 0.00538603 18.8166C-0.00371166 18.1071 0.0020339 17.3977 0.0020339 16.6882C0.0020339 13.9534 0.0020339 11.219 0.0020339 8.48482C0.0020339 7.6292 0.49666 6.99162 1.29726 6.81331C1.43797 6.78676 1.58117 6.77534 1.72437 6.77925C4.41217 6.77736 7.10014 6.77736 9.78827 6.77925C10.2848 6.77925 10.6286 7.11459 10.6262 7.58332C10.6262 8.04211 10.2676 8.38738 9.77821 8.38738C8.4541 8.39117 7.12935 8.39211 5.80396 8.39022C5.23942 8.39022 4.91718 8.70617 4.9167 9.26665C4.91765 10.8354 4.91829 12.4038 4.91861 13.9719Z" fill="#1C4481"/>
<path d="M0.00488281 2.7279C0.00488281 1.4116 1.12342 0.309082 2.4603 0.309082C3.79718 0.309082 4.91572 1.41207 4.91763 2.72932C4.91763 4.06265 3.78521 5.17983 2.44833 5.16233C1.09565 5.14294 0.00488281 4.05508 0.00488281 2.7279Z" fill="#1C4481"/>
</g>
<defs>
<clipPath id="clip0_747_6793">
<rect width="18" height="19.3846" fill="white" transform="translate(0 0.307617)"/>
</clipPath>
</defs>
</svg>
