<svg width="17" height="17" viewBox="0 0 32 20" fill="none" xmlns="http://www.w3.org/2000/svg">
<rect x="1.5" y="1.25" width="29.5" height="17.5" rx="4" stroke="#1C4481" stroke-width="2"/>
<path d="M8.05035 8.13821L8.50474 9.12212L6.75027 10.0001L8.51736 10.8629L8.03772 11.8771L6.51045 10.545L6.71241 12.8307H5.76575L5.95508 10.545L4.42781 11.8922L3.93555 10.8629L5.69002 9.98494L3.93555 9.13726L4.40256 8.12307L5.9677 9.47028L5.76575 7.16943H6.72503L6.51045 9.47028L8.05035 8.13821Z" fill="#1C4481"/>
<path d="M17.7867 8.13821L18.2411 9.12212L16.4866 10.0001L18.2537 10.8629L17.7741 11.8771L16.2468 10.545L16.4487 12.8307H15.5021L15.6914 10.545L14.1641 11.8922L13.6719 10.8629L15.4263 9.98494L13.6719 9.13726L14.1389 8.12307L15.704 9.47028L15.5021 7.16943H16.4614L16.2468 9.47028L17.7867 8.13821Z" fill="#1C4481"/>
<path d="M27.523 8.13821L27.9774 9.12212L26.2229 10.0001L27.99 10.8629L27.5104 11.8771L25.9831 10.545L26.1851 12.8307H25.2384L25.4277 10.545L23.9005 11.8922L23.4082 10.8629L25.1627 9.98494L23.4082 9.13726L23.8752 8.12307L25.4404 9.47028L25.2384 7.16943H26.1977L25.9831 9.47028L27.523 8.13821Z" fill="#1C4481"/>
</svg>
