<svg width="17" height="17" viewBox="0 0 17 24" fill="none" xmlns="http://www.w3.org/2000/svg">
<path d="M2.81551 21.3339V18.7884C2.28955 18.7436 1.8793 18.5083 1.55832 18.1156C1.24644 17.7336 1.08052 17.2938 1.02208 16.811C0.945618 16.2245 1.06463 15.6293 1.36126 15.1149C1.39283 15.0511 1.40824 14.9808 1.4062 14.9099C1.40913 13.938 1.38182 12.9652 1.4153 11.9936C1.45583 10.8354 2.00998 9.97233 3.08715 9.46471C3.40843 9.31312 3.75525 9.25104 4.11176 9.25075C6.97914 9.25075 9.84681 9.25999 12.7142 9.24613C14.0257 9.23977 15.1044 10.1372 15.4054 11.3442C15.4639 11.5873 15.4943 11.8361 15.4958 12.086C15.5064 12.9811 15.4979 13.8762 15.5035 14.7713C15.5059 14.8602 15.5326 14.9469 15.5807 15.0222C16.218 15.995 16.119 17.4044 15.3508 18.2192C15.0166 18.5738 14.6087 18.7754 14.0903 18.7881V21.4477C13.9602 21.4058 13.8448 21.3706 13.7312 21.3322C13.0851 21.1099 12.4282 20.928 11.7401 20.8702C10.5537 20.7744 9.54111 21.1177 8.73734 22.0004C8.62956 22.1188 8.52267 22.2374 8.4143 22.3555C8.39849 22.3666 8.38168 22.3763 8.36408 22.3844C8.1732 22.1907 7.98848 21.9802 7.7791 21.7948C6.9536 21.068 5.97127 20.8234 4.8847 20.8997C4.2263 20.9459 3.59637 21.1159 2.96704 21.2941C2.92211 21.3077 2.8763 21.3181 2.81551 21.3339ZM13.1553 20.1894C13.1553 19.7005 13.1494 19.2296 13.1582 18.7586C13.1617 18.5773 13.1198 18.4508 12.9729 18.3148C12.3809 17.7662 12.1738 17.0614 12.2249 16.2838C12.2708 15.5861 12.5345 14.9789 13.0986 14.5207C13.1347 14.4918 13.1529 14.4222 13.1529 14.3714C13.1565 13.6593 13.1553 12.9473 13.1547 12.2347C13.1547 12.1977 13.1491 12.1607 13.145 12.1125C12.5547 12.1001 11.9744 12.0868 11.3956 12.1636C10.3173 12.3063 9.44243 12.7781 8.82837 13.6796C8.72295 13.834 8.61282 13.985 8.48155 14.1704C7.30688 12.5751 5.76512 11.816 3.75349 12.0834C3.75349 12.7475 3.76347 13.4075 3.7482 14.0662C3.74292 14.2992 3.76817 14.4898 3.999 14.6038C4.01922 14.6176 4.03724 14.6342 4.05244 14.6532C4.61952 15.2177 4.83037 15.9116 4.77428 16.6834C4.72113 17.4139 4.43744 18.0405 3.82133 18.4938C3.78168 18.5227 3.75701 18.5966 3.75642 18.65C3.75143 19.1022 3.75349 19.5544 3.75408 20.0072C3.75408 20.0476 3.76054 20.088 3.76435 20.1354C5.44326 19.7889 7.00792 19.9364 8.36085 21.0663C9.77546 19.8108 11.4077 19.7473 13.1547 20.1894H13.1553ZM8.41724 12.6943C8.44132 12.6727 8.45659 12.6614 8.46892 12.6476C9.20838 11.8373 10.1475 11.4158 11.2294 11.2636C12.0537 11.1481 12.8789 11.1822 13.7047 11.2272C13.8301 11.2339 13.9555 11.244 14.0941 11.2535V14.1597L14.5593 14.2224C14.5611 14.1909 14.564 14.1675 14.564 14.1441C14.564 13.4321 14.5669 12.7198 14.5608 12.0074C14.5575 11.8585 14.5378 11.7104 14.502 11.5656C14.3123 10.7652 13.5975 10.1727 12.8105 10.1721C9.90398 10.1693 6.99745 10.1693 4.09091 10.1721C3.96392 10.1732 3.83756 10.1898 3.71472 10.2215C2.93826 10.4184 2.36003 11.1507 2.3477 11.9705C2.33654 12.7111 2.34476 13.4523 2.34476 14.1938C2.34647 14.2133 2.35001 14.2327 2.35533 14.2516L2.82285 14.1574V11.2676C2.8446 11.2597 2.86687 11.2532 2.88952 11.2483C3.5444 11.1571 4.20104 11.0941 4.86356 11.1288C5.4829 11.1611 6.08404 11.2801 6.65846 11.516C7.32156 11.7885 7.89598 12.1911 8.41724 12.6943ZM15.0668 16.5009C15.0606 16.0796 14.9672 15.7031 14.6938 15.3875C14.3496 14.9908 13.8642 14.9919 13.5191 15.3875C13.3053 15.6332 13.1961 15.9243 13.1635 16.2407C13.1109 16.7625 13.199 17.2499 13.5917 17.6391C13.8997 17.9446 14.3097 17.942 14.6219 17.6391C14.9508 17.3227 15.0541 16.9204 15.0668 16.5009ZM3.84864 16.5272C3.84864 16.1215 3.7667 15.79 3.56319 15.4937C3.19669 14.9613 2.59966 14.9581 2.22729 15.4857C1.83055 16.0476 1.83554 16.9294 2.23816 17.4847C2.60436 17.9914 3.18553 17.9908 3.54968 17.4826C3.7477 17.2025 3.85209 16.8686 3.84834 16.5275L3.84864 16.5272Z" fill="#1C4481" stroke="#1C4481" stroke-width="0.3"/>
<path d="M8.33014 1.38478C10.3976 1.37958 12.0929 3.02746 12.0964 5.0458C12.1003 7.11265 10.4352 8.77959 8.36186 8.78479C6.27241 8.79114 4.57735 7.14673 4.57471 5.11366C4.57177 3.03872 6.23218 1.38998 8.33014 1.38478ZM5.50652 5.07901C5.50571 5.44402 5.57803 5.8056 5.71934 6.14313C5.86065 6.48066 6.0682 6.78751 6.33013 7.04618C6.59205 7.30484 6.90323 7.51024 7.24589 7.65066C7.58855 7.79107 7.95598 7.86376 8.32721 7.86455C9.88629 7.86657 11.1582 6.63016 11.1611 5.10904C11.164 3.5498 9.90568 2.29837 8.33543 2.29895C7.5857 2.29987 6.86692 2.59301 6.33664 3.11414C5.80636 3.63526 5.50784 4.34184 5.50652 5.07901Z" fill="#1C4481" stroke="#1C4481" stroke-width="0.3"/>
</svg>
