<svg width="103" height="98" viewBox="0 0 103 98" fill="none" xmlns="http://www.w3.org/2000/svg">
<g clip-path="url(#clip0_76_1594)">
<path d="M57.0784 89.2167C52.5114 87.4114 47.9363 85.6267 43.3853 83.8039C39.7954 82.3611 38.5014 80.1052 39.3082 76.856C40.4566 72.2433 42.5635 70.6538 47.8715 70.4685C50.228 70.3851 52.5864 70.3355 54.9467 70.3196C56.8499 70.3028 57.5675 69.4051 57.0545 67.7988C56.3692 65.6408 56.3402 63.4608 54.628 61.3567C53.0039 59.3668 53.4118 56.848 55.0699 55.0811C56.303 53.6868 57.2441 52.0913 57.8538 50.3617C60.4656 43.7544 67.8865 41.0701 75.2209 44.0526C82.4375 46.9846 85.9243 54.0084 83.3825 60.4966C82.7306 62.1459 82.1546 63.7656 82.174 65.6565C82.2011 68.5732 79.8173 70.5845 76.7357 71.0155C74.2669 71.3598 72.8567 73.1732 71.1397 74.4965C70.3206 75.1282 71.0069 76.1567 71.721 76.8711C73.3809 78.5382 75.1076 80.1524 76.7728 81.8177C81.742 86.799 80.5368 88.5586 77.8675 93.7198C76.9112 95.5698 74.0336 95.8913 71.3898 94.8661C66.6001 93.0084 61.8454 91.0971 57.0784 89.2167ZM58.0828 86.676C62.7094 88.5049 67.332 90.3322 71.9586 92.1611C73.0785 92.6038 74.1534 92.8582 75.0758 92.1048C77.2051 90.3656 77.3398 86.4702 75.2578 84.2913C73.4523 82.3883 71.4571 80.6402 69.6504 78.7287C68.759 77.7777 68.1614 77.7793 67.2466 78.4207C65.5213 79.6258 63.73 80.7652 61.9139 81.8631C60.2726 82.8556 59.2613 82.4518 58.7368 80.6072C58.1897 78.6227 57.6851 76.6234 57.2601 74.6317C57.0131 73.4676 56.462 72.9683 55.1267 73.0589C53.1405 73.2166 51.1314 73.2542 49.1128 73.1714C45.456 72.9549 43.3382 74.2466 42.5584 77.4391C42.0079 79.6914 42.2096 80.3777 44.8041 81.4112C49.2504 83.1966 53.6825 84.9367 58.1066 86.6855L58.0828 86.676ZM73.5404 59.2465C73.368 59.88 73.2971 60.1058 73.2529 60.3222C73.0708 61.1779 72.9624 62.1143 71.6993 62.1383C70.5557 62.162 70.2016 61.2806 69.7388 60.5347C69.0374 59.3932 68.3161 58.2557 67.6308 57.1087C65.8604 54.1411 65.8842 54.1624 62.9241 55.8309C61.8889 56.4168 60.9945 57.5063 59.4938 57.0162C58.5375 56.7056 57.6884 56.2748 57.2842 57.3321C56.88 58.3894 56.3831 59.7511 57.575 60.4879C59.4252 61.6157 59.3384 62.9967 59.4619 64.4965C59.724 67.4229 60.7819 69.974 64.2195 71.3606C67.8861 72.8417 70.4218 71.4336 72.6823 69.4093C73.7363 68.4621 74.6112 67.6543 76.5127 68.0134C78.0985 68.3113 78.4755 66.8348 78.8826 65.7469C79.3312 64.612 78.1919 64.6017 77.4748 64.2667C76.7578 63.9317 76.381 63.2238 75.9436 62.6227C75.2305 61.6154 74.5084 60.5846 73.5642 59.2559L73.5404 59.2465ZM70.4072 55.6609C70.7383 54.6025 70.7422 53.4543 72.1264 53.5653C73.4138 53.654 73.8143 54.7202 74.3923 55.5116C75.6417 57.1949 76.7869 58.9559 78.0189 60.66C78.4523 61.2595 79.1322 62.0952 79.6828 61.0045C80.8243 58.744 81.7116 56.383 80.8901 53.6637C80.2218 51.4723 78.7483 49.4811 76.7204 48.029C74.6925 46.5768 72.2354 45.7534 69.7671 45.6988C64.5812 45.5518 60.8941 48.6297 60.1783 53.9486C61.8364 53.0183 63.3503 52.1855 64.8273 51.3183C66.1334 50.5581 67.1228 50.8897 67.9425 52.1731C68.6523 53.2466 69.1077 54.4296 70.431 55.6703L70.4072 55.6609ZM66.6054 75.2454C66.5628 75.0859 66.5163 74.9248 66.4698 74.7636C64.1336 74.6331 62.1358 73.542 59.7424 72.1043L61.0675 77.4411C61.2518 78.1364 61.5859 78.5341 62.3388 78.0467C63.7936 77.1311 65.2088 76.188 66.6292 75.2548L66.6054 75.2454Z" fill="#1C4481" fill-opacity="0.29"/>
<path d="M41.6708 44.7773C45.6465 34.7196 49.6223 24.6619 53.598 14.6042C54.5468 12.2041 54.8877 12.0851 57.7167 13.1876C59.1742 13.7637 60.6277 14.3383 62.0852 14.9144C65.7825 16.3759 65.8806 16.5575 64.65 19.6708C61.894 26.6426 59.1381 33.6144 56.3822 40.5862L46.2169 66.3019C46.0353 66.7613 45.855 67.2173 45.6748 67.6734C45.2581 68.6346 44.8668 69.9032 43.3117 69.2488C41.7566 68.5944 42.3902 67.4097 42.771 66.4462C48.8458 51.0786 54.9206 35.7109 60.9953 20.3432C61.8858 18.0905 60.0156 15.9913 57.2023 16.0686C56.9601 16.0755 56.7329 16.1476 56.5497 16.2757C56.3666 16.4039 56.2358 16.5823 56.1741 16.7881C55.97 17.2347 55.7897 17.6907 55.6081 18.1502C48.2457 36.7752 40.8815 55.4048 33.5156 74.0389C32.5668 76.4391 32.5587 76.4596 35.2115 77.6709C36.184 78.1147 37.1254 78.6375 36.7093 79.6901C36.2932 80.7427 35.2427 80.5773 34.2471 80.2035C28.0258 77.8553 28.4614 78.1821 30.2789 73.596C34.0899 63.9859 37.8872 54.3797 41.6708 44.7773Z" fill="#1C4481" fill-opacity="0.29"/>
<path d="M20.0708 50.1664C17.6122 56.3861 15.1526 62.6082 12.6922 68.8325C11.8207 71.0372 11.4453 71.1505 8.84784 70.1475C7.45787 69.5981 6.06791 69.0486 4.68192 68.5008C0.484224 66.8414 0.447611 66.7714 1.84906 63.2261L15.2537 29.3157C15.5695 28.5168 15.8853 27.7179 16.2024 26.9156C17.0578 24.9027 17.6198 24.7007 19.9406 25.5903C21.9263 26.3753 23.8902 27.215 25.9057 27.9245C27.8087 28.5935 28.2672 29.536 27.6089 31.1549C25.046 37.4643 22.5742 43.8335 20.0708 50.1664ZM11.7561 46.725C9.54412 52.3207 7.40228 57.9481 5.07108 63.5086C4.35765 65.2089 5.05212 65.8799 6.78602 66.4305C8.29995 66.9219 9.70047 67.979 10.5466 65.792C14.8921 54.5589 19.3164 43.3663 23.8197 32.2142C24.6948 30.0585 23.0142 29.8263 21.5455 29.1506C19.9102 28.3971 18.9184 28.3737 18.2751 30.1057C16.2054 35.6784 13.9437 41.191 11.7547 46.7284L11.7561 46.725Z" fill="#1C4481" fill-opacity="0.29"/>
<path d="M31.7899 61.9905C30.1634 66.105 28.537 70.2195 26.92 74.31C26.0445 76.525 25.4747 76.7002 22.8852 75.7004C20.967 74.9421 19.0733 74.1222 17.1387 73.4288C15.2041 72.7354 14.7291 71.6834 15.3137 70.1463C15.9919 68.3687 16.6776 66.5954 17.3708 64.8263C19.8954 58.4397 22.4204 52.052 24.946 45.663C26.0018 42.992 26.4824 42.845 29.5033 44.0312C31.3539 44.7628 33.1788 45.5595 35.0631 46.229C37.0138 46.905 37.3853 47.9399 36.7527 49.5055C35.0582 53.6526 33.4353 57.828 31.7899 61.9905ZM28.8264 60.9261C30.2252 57.3876 31.5802 53.8319 33.0519 50.3064C33.5772 49.0472 33.2405 48.3075 31.7303 47.8414C31.1231 47.641 30.5274 47.4055 29.9472 47.1365C28.8118 46.6401 28.0904 46.8505 27.6904 47.8738C24.8252 55.1222 21.9599 62.3706 19.0947 69.619C18.6881 70.6476 19.0508 71.2866 20.2361 71.6917C20.8446 71.8886 21.4406 72.1242 22.0192 72.3966C23.4134 73.0864 24.1553 72.8009 24.6609 71.522C25.9813 67.9842 27.4277 64.4646 28.8264 60.9261Z" fill="#1C4481" fill-opacity="0.29"/>
<path d="M61.7644 34.7531C62.6887 32.4147 63.6145 30.0728 64.5388 27.7344C65.1013 26.3115 66.0804 25.9254 67.7587 26.6285C69.9861 27.5684 72.2393 28.4433 74.5099 29.2972C76.019 29.8938 76.4332 30.7394 75.9131 32.0205C74.7168 34.9769 73.5669 37.9556 72.3891 40.9352C72.0516 41.789 71.5089 42.5695 70.2768 42.0389C69.0447 41.5082 69.2102 40.5786 69.5236 39.7391C70.3365 37.5549 71.1627 35.3719 72.0988 33.2245C72.628 31.9787 72.2624 31.2077 70.7827 30.7457C70.3068 30.6012 69.8428 30.4178 69.3967 30.1979C67.9272 29.4663 67.1188 29.7573 66.6085 31.1295C65.2431 34.8159 63.748 38.4472 62.2991 42.1125C62.1189 42.5685 61.9386 43.0246 61.7332 43.4746C61.3913 44.2117 60.8336 44.7048 59.8257 44.3738C58.6961 43.9788 58.5713 43.1445 58.8647 42.3209C59.4447 40.7027 60.0961 39.1127 60.7265 37.5065C61.087 36.5944 61.4475 35.6824 61.8108 34.7635L61.7644 34.7531Z" fill="#1C4481" fill-opacity="0.29"/>
</g>
<defs>
<clipPath id="clip0_76_1594">
<rect width="82.2298" height="70.9585" fill="white" transform="translate(26.4966 0.850464) rotate(21.5686)"/>
</clipPath>
</defs>
</svg>
