<svg width="133" height="134" viewBox="0 0 133 134" fill="none" xmlns="http://www.w3.org/2000/svg">
<g clip-path="url(#clip0_76_1589)">
<path d="M27.1538 45.8515C35.8227 45.8533 44.0576 47.002 49.5435 54.9264C50.3468 56.1136 51.4307 56.0939 52.6322 55.979C55.4685 55.6778 58.3174 55.3752 61.1627 55.2193C66.2476 54.9782 69.5659 57.7117 69.969 62.2883C70.3426 66.5881 67.4235 69.8378 62.5336 70.4717C59.5903 70.848 56.646 71.1544 53.69 71.4111C52.0224 71.5882 51.3502 72.2959 51.3438 74.04C51.3498 81.5539 51.2992 81.5592 58.9485 81.8857C60.4304 81.9446 61.9077 81.9595 63.3866 82.0505C68.5343 82.4009 71.0511 84.6851 71.5127 89.8727C72.3859 99.5363 73.1732 109.194 73.8748 118.846C74.2794 124.46 71.4992 127.574 65.8601 128.071C62.9042 128.328 59.9833 128.313 56.9952 128.809C47.9311 130.319 38.7037 131.013 29.5645 131.875C26.2441 132.19 24.0697 130.423 23.6547 127.057C22.7604 119.841 21.0047 112.513 21.6293 105.403C22.2137 98.8759 18.7166 93.3172 19.2862 87.0721C19.3992 85.8511 18.6383 84.8821 17.5614 84.2457C17.1936 84.0302 16.8723 83.7716 16.4762 83.591C4.84448 77.8274 3.57138 69.691 10.3091 59.571C11.5925 57.6404 12.6347 55.5445 13.96 53.6476C17.1434 49.0973 21.3112 46.1158 27.1538 45.8515ZM42.5908 97.3032C46.5894 96.8785 50.588 96.4538 54.5928 96.0284C57.6123 95.7077 59.0735 96.895 59.3372 99.9784C59.9063 106.599 60.7406 113.191 61.4108 119.801C61.6781 122.318 62.766 123.659 65.5292 123.391C68.1254 123.116 69.441 121.85 69.2392 119.288C68.4779 109.515 67.6788 99.7457 66.8417 89.9807C66.6703 87.8864 65.5426 86.7718 63.3445 86.7062C59.4345 86.5807 55.5256 86.3469 51.6205 86.2081C47.895 86.0757 47.0697 85.4635 46.9312 81.8132C46.6294 75.1834 46.2162 68.5272 46.3191 61.918C46.384 57.5971 44.4299 54.8969 40.9082 53.0758C36.7321 50.9695 32.0432 50.0804 27.3804 50.5105C25.5739 50.5886 23.8118 51.0945 22.2401 51.9862C20.6684 52.878 19.3324 54.1298 18.3428 55.6381C16.0229 59.037 13.9198 62.5777 12.0459 66.2393C9.80166 70.6708 10.9394 74.4058 15.0906 77.2227C17.2759 78.7082 19.5427 80.0712 21.8805 81.3054C23.9658 82.4137 26.4601 85.0884 28.4417 81.9128C30.315 78.9206 27.2528 77.5152 25.1541 76.1601C18.2959 71.7347 18.2752 71.5396 22.518 64.6943C23.3572 63.3326 24.3317 62.1029 26.0451 62.958C28.0658 63.9396 27.5122 65.7036 26.5254 66.9983C24.4176 69.7673 25.5837 71.3041 28.1688 72.6075C29.0041 73.0644 29.796 73.5958 30.5349 74.1951C33.3735 76.3814 34.4557 79.3525 33.5002 82.5654C32.5141 85.8515 30.0853 87.7639 26.7825 87.9429C24.3947 88.0756 24.1951 89.083 24.5109 90.9138C24.6673 91.8453 24.7114 92.8014 24.811 93.7389C25.3632 97.4343 27.1088 98.8332 30.8986 98.4879C34.7816 98.1773 38.6681 97.7199 42.5908 97.3032ZM40.3926 102.589L40.3685 102.362C36.5784 102.765 32.7983 103.262 28.9948 103.539C26.8833 103.687 25.8966 104.44 26.1332 106.668C26.8116 112.634 27.4661 118.615 28.0365 124.587C28.2517 126.613 29.1382 127.32 31.1393 127.095C38.8152 126.229 46.4965 125.413 54.1831 124.647C56.3245 124.42 57.1127 123.541 56.8429 121.362C56.1423 115.608 55.5175 109.846 55.0064 104.072C54.794 101.651 53.6107 101.096 51.4248 101.385C47.7395 101.872 44.05 102.2 40.3673 102.592L40.3926 102.589ZM57.964 66.2422C59.3285 66.0973 60.7032 65.9895 62.0637 65.8068C63.9078 65.5473 65.4016 64.8159 65.2 62.6167C64.9983 60.4175 63.4244 59.853 61.5811 59.9406C59.0383 60.058 56.5243 60.4459 53.9822 60.5696C51.4401 60.6933 50.8619 62.0463 51.0098 64.3403C51.1713 66.8238 52.6081 66.9384 54.4888 66.6623C55.6165 66.4534 56.7828 66.3677 57.9388 66.2449L57.964 66.2422Z" fill="#1C4481" fill-opacity="0.15"/>
<path d="M90.164 70.4319L121.117 67.1442C121.963 67.0543 122.803 66.965 123.643 66.8758C125.341 66.74 127.074 66.8741 127.232 68.9697C127.376 70.8633 125.803 71.3294 124.217 71.4979C121.059 71.8333 117.915 72.3072 114.742 72.5043C112.139 72.6536 111.138 73.6952 111.657 76.2934C112.102 78.4986 112.001 80.5581 109.269 81.3574C107.937 81.747 107.943 82.828 108.06 83.9291C108.906 91.8946 109.752 99.86 110.599 107.838C110.782 109.556 111.593 110.278 113.317 110.031C114.157 109.942 114.998 109.852 115.844 109.763C120.462 109.399 122.489 111.093 122.967 115.719C123.44 120.167 121.864 122.11 117.254 122.618C108.835 123.542 100.413 124.437 91.9869 125.302C87.7483 125.752 85.4529 123.928 84.9274 119.944C84.3669 115.689 86.3638 113.078 90.6588 112.438C95.5582 111.714 95.5646 111.713 95.0413 106.786C94.3289 100.079 93.6164 93.3722 92.9027 86.6526C92.7136 84.872 92.4308 83.4131 90.2375 82.9716C88.0442 82.5301 88.0638 80.5492 88.0416 78.8972C88.0125 76.037 86.7062 75.4059 84.0135 75.7365C75.6142 76.7686 67.1851 77.5812 58.7508 78.4644C57.6957 78.6063 56.6287 78.6386 55.567 78.5608C55.0265 78.5435 54.514 78.3183 54.137 77.9324C53.7601 77.5464 53.5481 77.0298 53.5457 76.4912C53.5172 76.0083 53.66 75.5306 53.9492 75.1416C54.2383 74.7527 54.6554 74.4772 55.1275 74.3634C56.1543 74.0875 57.2041 73.9057 58.2639 73.8203C68.8968 72.6867 79.5302 71.5572 90.164 70.4319ZM104.638 96.401C104.227 92.5252 103.765 88.6611 103.405 84.7863C103.226 82.801 102.357 82.0215 100.317 82.2445C98.2777 82.4675 97.556 83.3714 97.7799 85.3582C98.6402 93.0974 99.4627 100.841 100.247 108.588C100.458 110.57 101.335 111.31 103.363 111.101C105.392 110.892 106.123 110.019 105.872 108.016C105.403 104.146 105.049 100.27 104.638 96.401ZM103.844 115.746L91.8419 117.02C90.6227 117.15 89.4083 117.324 89.6582 119.015C89.8864 120.562 91.0439 120.694 92.2883 120.562C100.172 119.724 108.055 118.887 115.939 118.05C117.202 117.915 118.304 117.582 118.113 115.967C117.922 114.352 116.668 114.39 115.493 114.515C111.619 114.913 107.748 115.331 103.844 115.746ZM99.9113 77.5792C101.693 77.39 103.474 77.2007 105.255 77.0115C105.469 77.0157 105.68 76.9737 105.876 76.8884C106.071 76.8031 106.246 76.6766 106.388 76.5176C106.529 76.3585 106.635 76.1708 106.696 75.9673C106.758 75.7638 106.775 75.5494 106.745 75.3389C106.681 74.1941 106.083 73.5577 104.919 73.6686C101.353 74.0092 97.79 74.3877 94.225 74.8045C93.1511 74.9186 92.4622 75.469 92.5905 76.677C92.7188 77.885 93.4638 78.2831 94.5642 78.1789C96.3436 77.9708 98.1236 77.7691 99.905 77.5798L99.9113 77.5792Z" fill="#1C4481" fill-opacity="0.15"/>
<path d="M56.9704 24.7157C57.2137 27.006 57.6162 29.292 57.3275 31.626C56.4002 39.0736 51.3212 44.3025 44.2869 44.9542C37.4161 45.5822 31.1667 41.1748 29.1474 34.0721C27.9615 30.1347 27.4622 26.0234 27.671 21.9168C28.1324 14.2324 33.1086 9.05898 40.93 8.41908C48.8813 7.73994 54.8611 12.0741 56.4019 19.724C56.7462 21.3418 56.7926 23.0421 56.9704 24.7157ZM52.421 24.6454C52.2216 22.9145 51.9091 21.1984 51.4856 19.5081C50.0604 14.6902 46.5312 12.5581 41.2224 13.0965C35.7457 13.6783 32.9241 16.5231 32.3945 21.7014C31.9927 25.6763 32.7162 29.4808 33.7662 33.2315C34.32 35.3406 35.586 37.1949 37.3515 38.4825C39.117 39.77 41.2743 40.4124 43.4605 40.3017C48.0005 40.163 51.3534 37.1472 52.4217 32.3507C52.991 30.0123 52.5815 27.7207 52.421 24.6454Z" fill="#1C4481" fill-opacity="0.15"/>
<path d="M94.6675 67.0585C90.4541 67.5061 86.2408 67.9536 82.0338 68.4005C80.3472 68.5796 78.2584 68.9415 77.9725 66.6112C77.7052 64.0945 79.8939 63.9511 81.6809 63.7549C88.8339 62.9569 95.9871 62.1017 103.162 61.5114C105.91 61.2831 107.009 60.1419 107.374 57.5008C108.336 50.5013 109.506 43.537 110.624 36.5591C110.79 35.4148 111.064 34.2885 111.442 33.1953C111.586 32.7318 111.897 32.3377 112.316 32.0898C112.735 31.8419 113.231 31.7578 113.708 31.8539C114.191 31.8944 114.643 32.109 114.979 32.4575C115.315 32.806 115.511 33.2645 115.532 33.7472C115.599 34.5854 115.564 35.4288 115.428 36.2588C114.105 44.671 112.681 53.094 111.473 61.5703C111.067 64.3622 109.807 65.6095 106.984 65.8011C102.867 66.073 98.7734 66.6224 94.6675 67.0585Z" fill="#1C4481" fill-opacity="0.15"/>
</g>
<defs>
<clipPath id="clip0_76_1589">
<rect width="120.568" height="121.774" fill="white" transform="translate(0 12.7349) rotate(-6.06316)"/>
</clipPath>
</defs>
</svg>
