<svg width="140" height="143" viewBox="0 0 140 143" fill="none" xmlns="http://www.w3.org/2000/svg">
<g clip-path="url(#clip0_76_1577)">
<path d="M43.4039 99.5207C43.5605 98.8174 43.7802 98.1297 44.0603 97.4659C45.1919 94.9245 44.6187 92.8987 42.9236 90.7074C33.8528 79.0486 33.066 63.8143 40.6725 50.9923C47.75 39.0818 61.9042 32.7128 76.1863 35.0271C91.0531 37.4303 102.769 49.8491 104.62 65.1514C106.409 79.9667 98.0028 95.054 84.3474 100.822C81.0318 102.221 79.2425 104.031 78.7064 107.542C78.3082 110.16 77.404 112.704 76.7401 115.297C76.3608 117.067 75.472 118.687 74.1841 119.955C72.8962 121.224 71.2661 122.085 69.4965 122.432C68.0119 122.748 66.685 123.58 65.7495 124.781C62.8122 128.346 59.0342 129.625 54.5128 128.413C49.9914 127.202 47.725 124.143 46.8303 119.781C46.6034 118.685 46.6162 117.544 45.6011 116.751C41.3929 113.465 40.9621 109.098 42.161 104.285C42.4878 102.983 42.8368 101.694 43.4039 99.5207ZM73.4104 81.5844C72.4548 85.3929 70.8278 88.4983 73.7688 91.4471C74.2669 91.9651 74.432 93.2738 74.2163 94.0762C73.3477 97.284 75.3918 97.652 77.6343 97.9636C79.3498 98.2076 80.8439 97.5289 82.3511 96.8727C94.9463 91.4072 102.332 77.2238 99.7305 63.5322C97.1292 49.8406 85.1949 39.4254 71.4031 38.9691C63.6615 38.6384 56.0857 41.3254 50.2597 46.4682C44.4338 51.611 40.8089 58.8114 40.143 66.5638C39.349 75.0192 41.8427 82.5706 47.3005 89.0509C49.9788 92.2301 52.4431 91.9826 54.5358 88.5726C55.0083 87.8054 55.6336 86.792 56.3745 86.5973C59.6991 85.722 59.9802 82.946 60.8778 80.3308C62.4763 75.6597 62.6636 71.1801 60.7728 66.5845C60.2099 65.2229 59.561 63.5844 61.1356 62.3543C62.7102 61.1242 64.0478 62.3317 65.342 63.0256C69.1161 65.0852 73.3411 66.1744 77.6405 66.1961C79.0258 66.2014 80.6422 65.8789 81.3601 67.5927C82.0781 69.3064 80.7899 70.3123 79.7699 71.261C76.5942 74.3567 73.4321 77.4242 73.4401 81.5921L73.4104 81.5844ZM58.8489 112.982C55.9915 112.237 53.1515 111.401 50.2643 110.794C49.1358 110.556 47.4278 109.119 46.8602 110.809C46.3804 112.235 48.2574 113.049 49.5149 113.715C49.9658 113.952 50.4411 114.14 50.9325 114.275C55.5644 115.484 60.1963 116.692 64.8283 117.901C66.0172 118.205 67.2613 118.225 68.4604 117.958C69.2441 117.793 70.3058 117.632 70.3963 116.727C70.5055 115.604 69.3001 115.735 68.5977 115.539C65.388 114.663 62.1331 113.839 58.8786 112.99L58.8489 112.982ZM61.5489 101.469C65.1947 102.42 68.8346 103.37 72.4805 104.321C73.2808 104.53 74.3664 105.271 74.8083 103.917C75.2502 102.563 74.0773 102.181 73.1007 101.92C65.9117 100.044 58.7228 98.1685 51.5338 96.2929C50.6328 96.0578 49.5658 95.9003 49.2314 97.0851C48.8694 98.4726 50.0868 98.4658 50.9152 98.6883C54.4837 99.6448 58.0319 100.558 61.5607 101.472L61.5489 101.469ZM60.1128 108.599C63.6697 109.527 67.2266 110.455 70.7361 111.371C71.5068 111.572 72.5146 111.835 72.8499 110.841C73.2669 109.583 72.1225 109.309 71.2703 109.081C64.0955 107.183 56.9145 105.31 49.7272 103.46C48.9566 103.259 47.9488 102.996 47.6088 104.008C47.1812 105.283 48.3484 105.517 49.1946 105.744C52.8579 106.726 56.5025 107.657 60.1424 108.607L60.1128 108.599ZM68.4407 82.4312C68.7763 81.1449 69.1103 79.8647 69.4459 78.5784C69.5155 78.3843 69.5422 78.1775 69.5242 77.9722C69.5062 77.7669 69.444 77.5681 69.3418 77.3896C69.2396 77.2111 69.0999 77.057 68.9324 76.9383C68.7648 76.8195 68.5735 76.7388 68.3716 76.7017C67.3095 76.3801 66.5387 76.7132 66.2441 77.7939C65.6009 80.2592 64.9561 82.7305 64.3426 85.2035C64.0956 86.1503 64.6583 86.736 65.5846 86.9713C66.511 87.2067 67.2144 86.9132 67.497 85.9756C67.8876 84.8182 68.1627 83.618 68.4704 82.4389L68.4407 82.4312ZM63.8303 94.3748L63.793 94.5177L67.6049 95.5122C68.4407 95.7303 69.2481 95.8392 69.5696 94.7528C69.6635 94.54 69.7086 94.3088 69.7015 94.0763C69.6945 93.8438 69.6354 93.6161 69.5286 93.4099C69.4219 93.2037 69.2703 93.0243 69.085 92.8851C68.8997 92.7459 68.6854 92.6504 68.4582 92.6057C65.7307 91.8474 62.9919 91.1329 60.2417 90.462C60.0481 90.3902 59.841 90.3629 59.6353 90.3819C59.4297 90.4009 59.2308 90.4659 59.0532 90.572C58.8756 90.6781 58.7238 90.8226 58.6089 90.9951C58.494 91.1675 58.4188 91.3635 58.389 91.5686C58.1736 92.6127 58.918 93.0359 59.7224 93.2776C61.1059 93.7022 62.4905 94.0252 63.86 94.3825L63.8303 94.3748Z" fill="#1C4481" fill-opacity="0.17"/>
<path d="M100.027 96.1038C100.493 96.3593 100.932 96.6613 101.337 97.0052C104.244 99.8413 107.13 102.702 109.995 105.586C110.994 106.61 111.563 107.852 110.418 109.086C109.273 110.32 107.998 109.892 106.944 108.861C103.97 105.939 101.021 102.999 98.0951 100.039C97.2723 99.1884 96.7364 98.209 97.4454 97.0202C97.9801 96.1357 98.7995 95.8343 100.027 96.1038Z" fill="#1C4481" fill-opacity="0.17"/>
<path d="M61.4552 30.0644C61.3522 30.5098 61.1073 30.9095 60.7576 31.2029C60.4079 31.4962 59.9726 31.6672 59.5179 31.6896C59.0519 31.7746 58.5714 31.6836 58.1689 31.4342C57.7664 31.1848 57.4704 30.7945 57.3377 30.3385C56.0462 25.8484 54.7964 21.3437 53.648 16.8145C53.3689 15.7241 54.0789 14.8472 55.1637 14.4751C56.2486 14.103 57.3333 14.5323 57.6497 15.6007C58.9878 20.1793 60.2125 24.8047 61.467 29.4124C61.495 29.6291 61.491 29.8488 61.4552 30.0644Z" fill="#1C4481" fill-opacity="0.17"/>
<path d="M32.8383 80.2914C32.734 80.8502 32.4656 81.3652 32.0676 81.7703C31.6697 82.1754 31.1605 82.452 30.6053 82.5645C26.6926 83.6637 22.7755 84.747 18.8542 85.8143C17.4288 86.2056 16.1341 86.0714 15.5885 84.498C15.043 82.9246 16.1004 81.9539 17.4693 81.5605C21.5778 80.3746 25.6707 79.2482 29.8192 78.1999C31.6663 77.7214 32.6795 78.6917 32.8383 80.2914Z" fill="#1C4481" fill-opacity="0.17"/>
<path d="M43.075 41.055C42.2606 42.6233 40.9043 43.2108 39.4687 41.8695C36.2047 38.8236 33.0806 35.6299 29.9565 32.4361C29.0923 31.5746 28.9046 30.4253 29.8655 29.4358C30.6701 28.609 31.8131 28.3538 32.6264 29.1194C36.0809 32.4057 39.4332 35.7926 42.8005 39.1707C43.0073 39.4324 43.1417 39.7444 43.1899 40.0753C43.2381 40.4061 43.1985 40.744 43.075 41.055Z" fill="#1C4481" fill-opacity="0.17"/>
<path d="M98.2586 41.9688C96.6516 41.187 96.3021 39.7601 97.5456 38.3673C100.566 35.0658 103.747 31.9015 106.941 28.7344C107.125 28.5153 107.354 28.3379 107.611 28.214C107.868 28.0901 108.149 28.0224 108.434 28.0156C108.719 28.0087 109.002 28.0629 109.264 28.1743C109.526 28.2858 109.762 28.452 109.955 28.6621C110.858 29.5717 111.002 30.7414 110.098 31.6822C106.935 34.9974 103.707 38.2448 100.473 41.4907C100.178 41.7597 99.8183 41.9456 99.4293 42.0296C99.0403 42.1136 98.6364 42.0926 98.2586 41.9688Z" fill="#1C4481" fill-opacity="0.17"/>
<path d="M122.749 52.4544C124.108 52.9235 124.634 53.5058 124.722 54.4065C124.811 54.8645 124.734 55.3398 124.505 55.7466C124.276 56.1533 123.909 56.4647 123.472 56.6245C118.985 57.9512 114.474 59.2081 109.939 60.3951C108.953 60.6532 108.139 60.0145 107.74 59.1155C107.341 58.2164 107.344 57.3076 108.129 56.8955C112.853 54.4199 118.126 53.767 122.749 52.4544Z" fill="#1C4481" fill-opacity="0.17"/>
<path d="M115.755 83.3146C113.787 82.8011 111.825 82.2891 109.862 81.7772C108.475 81.4153 107.315 80.6674 107.723 79.0058C108.095 77.5826 109.359 77.1301 110.628 77.4357C114.799 78.435 118.893 79.4903 122.988 80.6606C124.354 81.0551 125.313 82.113 124.727 83.7028C124.19 85.1529 122.915 85.1382 121.649 84.846C119.675 84.3564 117.717 83.8265 115.755 83.3146Z" fill="#1C4481" fill-opacity="0.17"/>
<path d="M23.2085 59.1754C21.3411 58.6882 19.4796 58.2025 17.6122 57.7153C16.231 57.355 15.0755 56.6146 15.4808 54.9396C15.8646 53.4687 17.1484 53.1104 18.4114 53.4145C22.5489 54.3986 26.6749 55.475 30.7658 56.6378C32.0107 56.9626 32.9646 57.9174 32.584 59.3763C32.149 61.0437 30.7835 61.1326 29.39 60.7945C27.2986 60.268 25.2478 59.7075 23.2085 59.1754Z" fill="#1C4481" fill-opacity="0.17"/>
<path d="M84.2534 23.5211C83.7391 25.4922 83.253 27.4769 82.7091 29.4402C82.3751 30.7205 81.6559 31.754 80.1443 31.4805C78.6327 31.207 78.1623 29.9521 78.4546 28.6864C79.4559 24.4277 80.5616 20.1898 81.7715 15.9728C82.129 14.7241 83.1497 13.8455 84.5953 14.299C86.0409 14.7525 86.1916 16.0193 85.8797 17.3118C85.3644 19.3843 84.7941 21.4488 84.2534 23.5211Z" fill="#1C4481" fill-opacity="0.17"/>
<path d="M46.3054 61.8496C49.1179 50.2446 63.5333 41.5397 75.0963 44.4229C76.6376 44.825 78.3016 45.291 77.8726 47.3479C77.4436 49.4048 75.7758 49.1477 74.1837 48.8914C63.6345 47.1948 55.0191 52.2104 51.1255 62.2803C50.9739 62.6669 50.8418 63.0522 50.6606 63.4311C50.0381 64.7251 49.1928 65.7321 47.5737 65.2397C46.3799 64.8647 45.9109 63.483 46.3054 61.8496Z" fill="#1C4481" fill-opacity="0.17"/>
</g>
<defs>
<clipPath id="clip0_76_1577">
<rect width="113" height="118" fill="white" transform="translate(29.7891) rotate(14.6226)"/>
</clipPath>
</defs>
</svg>
