<svg width="20" height="18" viewBox="0 0 20 18" fill="none" xmlns="http://www.w3.org/2000/svg">
<path d="M3 5V13C3 14.8856 3 15.8284 3.58579 16.4142C4.17157 17 5.11438 17 7 17H13C14.8856 17 15.8284 17 16.4142 16.4142C17 15.8284 17 14.8856 17 13V5M3 5H17M3 5H1.36364C1.21017 5 1.13343 5 1.08014 4.96011C1.06488 4.94868 1.05132 4.93512 1.03989 4.91986C1 4.86657 1 4.78983 1 4.63636V4.63636C1 3.10168 1 2.33434 1.39892 1.80144C1.51321 1.64876 1.64876 1.51321 1.80144 1.39892C2.33434 1 3.10168 1 4.63636 1H15.3636C16.8983 1 17.6657 1 18.1986 1.39892C18.3512 1.51321 18.4868 1.64876 18.6011 1.80144C19 2.33434 19 3.10168 19 4.63636V4.63636C19 4.78983 19 4.86657 18.9601 4.91986C18.9487 4.93512 18.9351 4.94868 18.9199 4.96011C18.8666 5 18.7898 5 18.6364 5H17" stroke="#33363F" stroke-width="2"/>
</svg>
