<svg width="17" height="17" viewBox="0 0 38 22" fill="none" xmlns="http://www.w3.org/2000/svg">
<path d="M19.1736 14.3847L18.8962 15.0815L19.1736 14.3847C18.7579 14.2192 18.2947 14.2192 17.879 14.3847L14.1506 15.8691C13.9799 15.937 13.7967 15.8039 13.8086 15.6207L14.0682 11.616C14.0972 11.1695 13.954 10.7289 13.6682 10.3847L11.1042 7.29751C10.9869 7.15622 11.0569 6.94086 11.2349 6.89552L15.1237 5.90492C15.5573 5.79448 15.9321 5.52217 16.1711 5.14396L18.315 1.75153C18.4131 1.59627 18.6395 1.59627 18.7376 1.75153L20.8815 5.14396C21.1205 5.52217 21.4953 5.79448 21.9289 5.90492L25.8177 6.89552C25.9957 6.94086 26.0657 7.15622 25.9483 7.29751L23.3844 10.3847C23.0986 10.7289 22.9554 11.1695 22.9844 11.616L23.244 15.6207C23.2559 15.804 23.0727 15.937 22.902 15.8691L19.1736 14.3847Z" stroke="#1C4481" stroke-width="1.5"/>
<path d="M6.19479 18.5294L6.47221 19.2262L6.19479 18.5294L4.01316 19.398C3.84253 19.4659 3.65933 19.3328 3.67121 19.1495L3.82312 16.8063C3.85207 16.3598 3.70891 15.9192 3.42306 15.575L1.92283 13.7686C1.80549 13.6273 1.87546 13.4119 2.05345 13.3666L4.32895 12.7869C4.76252 12.6765 5.13732 12.4042 5.37633 12.026L6.63077 10.041C6.72889 9.8857 6.95532 9.88569 7.05344 10.041L8.30788 12.026L8.94189 11.6253L8.30788 12.026C8.54689 12.4042 8.92169 12.6765 9.35526 12.7869L11.6308 13.3666C11.8087 13.4119 11.8787 13.6273 11.7614 13.7686L10.2612 15.575L10.7143 15.9514L10.2612 15.575C9.97531 15.9192 9.83214 16.3598 9.86109 16.8063L10.013 19.1495C10.0249 19.3328 9.84169 19.4659 9.67105 19.398L7.48942 18.5294C7.07375 18.3639 6.61047 18.3639 6.19479 18.5294Z" stroke="#1C4481" stroke-width="1.5"/>
<path d="M30.6419 9.01988C30.7419 8.88619 30.9423 8.8862 31.0423 9.01988L32.5776 11.0726C32.7891 11.3553 33.081 11.5675 33.4152 11.6812L35.842 12.507C36 12.5608 36.062 12.7514 35.9657 12.8878L34.4879 14.9824C34.2843 15.2708 34.1728 15.6141 34.1679 15.967L34.1324 18.5302C34.1301 18.6971 33.9679 18.8149 33.8085 18.7655L31.3598 18.0073L31.1379 18.7237L31.3598 18.0073C31.0226 17.9028 30.6617 17.9028 30.3244 18.0073L30.5463 18.7237L30.3244 18.0073L27.8757 18.7655C27.7163 18.8149 27.5541 18.6971 27.5518 18.5302L27.5163 15.967C27.5114 15.6141 27.3999 15.2708 27.1964 14.9824L25.7185 12.8878C25.6223 12.7514 25.6842 12.5608 25.8422 12.507L28.269 11.6812C28.6032 11.5675 28.8951 11.3553 29.1066 11.0726L30.6419 9.01988Z" stroke="#1C4481" stroke-width="1.5"/>
</svg>
