<svg width="106" height="105" viewBox="0 0 106 105" fill="none" xmlns="http://www.w3.org/2000/svg">
<g clip-path="url(#clip0_74_536)">
<path d="M78.5369 104.967C72.2064 104.967 65.8759 105 59.5564 104.967C54.569 104.934 51.9488 102.534 51.3763 97.6239C50.5671 90.6515 52.3396 87.3181 58.6151 84.1756C61.4005 82.779 64.2042 81.4278 67.0264 80.1221C69.2998 79.0637 69.7347 77.4379 68.3585 75.5065C66.5144 72.9096 65.4465 69.9254 62.3968 67.9614C59.5068 66.1064 58.8022 62.4184 59.9527 59.085C60.7702 56.4954 61.1424 53.788 61.0537 51.076C61.0537 40.5629 68.6778 32.8322 78.8837 32.9468C88.9244 33.0559 96.4329 40.8248 96.4604 51.136C96.4604 53.7602 96.5375 56.3026 97.4568 58.894C98.8715 62.893 96.9669 66.9575 93.4768 69.2271C90.6804 71.0438 89.8492 74.3063 88.4179 77.0614C87.7353 78.3762 89.0455 79.4183 90.24 80.0129C93.0199 81.4041 95.8549 82.6862 98.6403 84.072C106.958 88.2237 106.347 91.3007 105.593 99.8552C105.323 102.921 102.026 104.929 98.3706 104.956C91.7483 105.005 85.1426 104.962 78.5369 104.967ZM78.5369 100.925C84.9499 100.925 91.3575 100.925 97.7705 100.925C99.3229 100.925 100.732 100.69 101.481 99.1515C103.209 95.5998 101.525 90.166 97.9962 88.3001C94.9301 86.6634 91.7098 85.3431 88.6381 83.6955C87.1188 82.8717 86.4032 83.1991 85.6105 84.5793C84.1132 87.1762 82.5058 89.7186 80.8489 92.2173C79.3516 94.4759 77.9478 94.4705 76.445 92.2173C74.8487 89.7841 73.2963 87.3072 71.843 84.7976C70.9953 83.33 70.098 82.9426 68.5402 83.7937C66.2338 85.0913 63.8431 86.2358 61.384 87.2199C56.8976 88.9112 54.9709 91.8409 55.5489 96.6582C55.9562 100.057 56.5232 100.892 60.1234 100.903C66.2997 100.941 72.4376 100.925 78.5699 100.925H78.5369ZM84.0691 54.7695C84.1627 55.7352 84.1848 56.0843 84.2343 56.4062C84.4215 57.6829 84.7352 59.0304 83.2324 59.7505C81.8727 60.4052 81.0305 59.385 80.1222 58.6103C78.7405 57.421 77.3368 56.248 75.9716 55.0423C72.4431 51.9217 72.4816 51.938 69.7237 55.8443C68.7604 57.2137 68.2044 59.1995 66.1731 59.3414C64.8795 59.4341 63.6574 59.3032 63.674 60.9781C63.6905 62.653 63.74 64.7971 65.5181 65.1626C68.2704 65.7082 68.8209 67.6558 69.6797 69.6526C71.3806 73.5371 73.8578 76.4722 78.6359 76.5104C83.7334 76.554 86.1059 73.237 87.8564 69.2216C88.6711 67.3449 89.3372 65.7572 91.7869 65.2171C93.8291 64.7643 93.5814 62.5275 93.5539 60.8089C93.5539 59.0031 92.1832 59.6087 91.1648 59.5378C90.1464 59.4669 89.3592 58.6976 88.55 58.1084C87.2179 57.11 85.8637 56.0843 84.1022 54.7695H84.0691ZM78.6139 51.5397C78.5093 49.903 77.9699 48.3209 79.6818 47.7208C81.2672 47.1425 82.2526 48.3918 83.3205 49.1665C85.616 50.8032 87.8234 52.6036 90.1079 54.2785C90.9116 54.8677 92.1226 55.6479 92.2658 53.8475C92.563 50.1158 92.508 46.3841 90.2345 43.0889C88.3948 40.4368 85.6848 38.4982 82.5656 37.6031C79.4464 36.7079 76.1106 36.9113 73.1257 38.1788C66.8392 40.7975 63.8776 47.0388 65.5401 54.7477C67.0869 52.5654 68.5071 50.5959 69.8668 48.5992C71.0724 46.8424 72.4155 46.7606 74.0064 48.0809C75.3661 49.172 76.4726 50.5523 78.647 51.5397H78.6139ZM83.337 80.5585C83.2104 80.3621 83.0783 80.1657 82.9462 79.9693C80.0837 81.0605 77.1717 80.6458 73.6211 79.9693L77.7387 86.5925C78.2891 87.449 78.8781 87.8146 79.5497 86.7343C80.8599 84.683 82.1095 82.6153 83.37 80.5585H83.337Z" fill="white" fill-opacity="0.29"/>
<path d="M39.0068 52.1946C39.0068 36.1912 39.0068 20.1879 39.0068 4.18459C39.0068 0.365611 39.3591 0.0164516 43.273 -0.00537109C45.2932 -0.00537109 47.308 -0.00537109 49.3282 -0.00537109C54.4532 -0.00537109 54.6568 0.191035 54.6568 5.14479C54.6568 16.238 54.6568 27.3312 54.6568 38.4244V79.342C54.6568 80.0731 54.6568 80.7987 54.6568 81.5243C54.6128 83.0737 54.7449 85.0323 52.5705 84.9778C50.3961 84.9232 50.5943 82.9482 50.5943 81.4152C50.5943 56.9628 50.5943 32.5105 50.5943 8.05811C50.5943 4.47372 47.3575 2.60243 44.0216 4.23913C43.7344 4.38032 43.4962 4.60313 43.3374 4.8791C43.1786 5.15507 43.1063 5.4717 43.1298 5.78856C43.0968 6.51416 43.0968 7.23977 43.0968 7.97083C43.0968 37.6061 43.0968 67.2486 43.0968 96.8984C43.0968 100.717 43.0968 100.75 46.8511 100.974C48.2273 101.056 49.6035 101.263 49.6035 102.938C49.6035 104.613 48.2658 104.956 46.8951 104.984C38.3242 105.136 39.0013 105.349 39.0068 98.0495C39.0214 82.7518 39.0214 67.4668 39.0068 52.1946Z" fill="white" fill-opacity="0.29"/>
<path d="M15.6668 71.3603C15.6668 81.2569 15.6668 91.1571 15.6668 101.061C15.6668 104.569 15.2705 104.929 11.6813 104.962C9.75468 104.962 7.82801 104.962 5.90684 104.962C0.0882928 104.962 0.0112305 104.885 0.0112305 99.2443V45.2876C0.0112305 44.0164 0.0112305 42.7453 0.0112305 41.4686C0.0827926 38.2334 0.660794 37.6497 3.86457 37.6115C6.61696 37.6115 9.36935 37.6988 12.1217 37.5787C14.72 37.4642 15.7164 38.5117 15.6943 41.0977C15.6118 51.1743 15.6668 61.2837 15.6668 71.3603ZM4.06825 71.1475C4.06825 80.0512 4.16733 88.9603 4.00769 97.8803C3.95814 100.608 5.10864 101.154 7.44817 100.968C9.49595 100.821 11.6759 101.514 11.6538 98.044C11.5401 80.2221 11.5401 62.413 11.6538 44.6165C11.6814 41.174 9.55651 41.7687 7.47571 41.6378C5.1582 41.4905 3.95814 41.9978 4.00769 44.7311C4.16733 53.5257 4.06825 62.3421 4.06825 71.153V71.1475Z" fill="white" fill-opacity="0.29"/>
<path d="M35.3188 81.257C35.3188 87.8038 35.3188 94.3506 35.3188 100.859C35.3188 104.384 34.7188 104.935 31.1407 104.967C28.4819 104.967 25.823 104.869 23.1752 104.967C20.5274 105.066 19.4595 103.876 19.432 101.443C19.4026 98.6278 19.3843 95.8145 19.377 93.003C19.377 82.8409 19.377 72.677 19.377 62.5112C19.377 58.2613 19.8834 57.7975 24.067 57.7866C26.6322 57.7866 29.1975 57.8903 31.7737 57.7866C34.4325 57.6557 35.3683 58.8778 35.3518 61.3765C35.2858 68.0051 35.3188 74.6338 35.3188 81.257ZM31.2618 81.4042C31.2618 75.774 31.2012 70.1437 31.2948 64.4916C31.3278 62.473 30.5737 61.6383 28.5424 61.8184C27.7194 61.8729 26.8937 61.8729 26.0708 61.8184C24.4744 61.7529 23.7092 62.4348 23.7147 64.0606C23.7147 75.5939 23.7147 87.1272 23.7147 98.6605C23.7147 100.297 24.4524 100.979 26.0653 100.892C26.888 100.832 27.7141 100.832 28.5369 100.892C30.5351 101.083 31.2893 100.286 31.2893 98.2514C31.1957 92.6648 31.2618 87.0345 31.2618 81.4042Z" fill="white" fill-opacity="0.29"/>
<path d="M58.3452 27.4693C58.3452 23.7485 58.3452 20.0223 58.3452 16.3015C58.3452 14.0374 59.3361 12.9736 61.6811 13.0281C64.7968 13.11 67.9125 13.0881 71.0392 13.0281C73.131 13.0281 74.0283 13.9665 74.0118 16.0124C73.9788 20.7315 74.0118 25.4561 74.0118 30.1971C74.0118 31.5556 73.7311 32.925 72.0026 32.865C70.2741 32.8049 70.0319 31.4356 70.0098 30.1098C69.9493 26.6619 69.9052 23.2084 70.0098 19.7441C70.0539 17.7418 69.2502 16.8798 67.2575 17.049C66.6185 17.1089 65.9752 17.1089 65.3363 17.049C63.2279 16.8416 62.3967 17.6818 62.4353 19.8477C62.5454 25.6635 62.4738 31.4738 62.4738 37.3059C62.4738 38.0315 62.4738 38.7571 62.4408 39.4882C62.3802 40.6884 61.9453 41.6704 60.5802 41.7632C59.0388 41.8341 58.4938 40.7539 58.4553 39.4609C58.3837 36.9185 58.4113 34.3762 58.4058 31.8229C58.4058 30.3717 58.4058 28.9205 58.4058 27.4584L58.3452 27.4693Z" fill="white" fill-opacity="0.29"/>
</g>
<defs>
<clipPath id="clip0_74_536">
<rect width="106" height="105" fill="white"/>
</clipPath>
</defs>
</svg>
