<svg width="49" height="49" viewBox="0 0 49 49" fill="none" xmlns="http://www.w3.org/2000/svg">
<path d="M24.5 42.875C22.087 42.875 19.6975 42.3997 17.4682 41.4763C15.2388 40.5529 13.2132 39.1994 11.5069 37.4931C9.80064 35.7868 8.44714 33.7612 7.52371 31.5318C6.60028 29.3024 6.125 26.913 6.125 24.5C6.125 22.087 6.60028 19.6975 7.52371 17.4682C8.44715 15.2388 9.80064 13.2132 11.5069 11.5069C13.2132 9.80063 15.2388 8.44714 17.4682 7.52371C19.6976 6.60028 22.087 6.125 24.5 6.125C26.913 6.125 29.3025 6.60028 31.5318 7.52372C33.7612 8.44715 35.7868 9.80064 37.4931 11.5069C39.1994 13.2132 40.5529 15.2388 41.4763 17.4682C42.3997 19.6976 42.875 22.087 42.875 24.5C42.875 26.913 42.3997 29.3025 41.4763 31.5318C40.5529 33.7612 39.1994 35.7868 37.4931 37.4931C35.7868 39.1994 33.7612 40.5529 31.5318 41.4763C29.3024 42.3997 26.913 42.875 24.5 42.875L24.5 42.875Z" stroke="#1C4481" stroke-width="3" stroke-linecap="round"/>
<path d="M18.375 18.375L30.625 30.625" stroke="#1C4481" stroke-width="3" stroke-linecap="round"/>
<path d="M30.625 18.375L18.375 30.625" stroke="#1C4481" stroke-width="3" stroke-linecap="round"/>
</svg>
