<svg width="140" height="143" viewBox="0 0 140 143" fill="none" xmlns="http://www.w3.org/2000/svg">
<g clip-path="url(#clip0_74_519)">
<path d="M43.4036 99.5207C43.5602 98.8174 43.7799 98.1297 44.06 97.4659C45.1916 94.9245 44.6185 92.8987 42.9234 90.7074C33.8526 79.0486 33.0658 63.8143 40.6723 50.9923C47.7498 39.0818 61.9039 32.7128 76.1861 35.0271C91.0528 37.4303 102.768 49.8491 104.62 65.1514C106.409 79.9667 98.0026 95.054 84.3472 100.822C81.0315 102.221 79.2423 104.031 78.7062 107.542C78.308 110.16 77.4038 112.704 76.7398 115.297C76.3606 117.067 75.4718 118.687 74.1839 119.955C72.896 121.224 71.2659 122.085 69.4963 122.432C68.0117 122.748 66.6847 123.58 65.7492 124.781C62.812 128.346 59.0339 129.625 54.5126 128.413C49.9912 127.202 47.7247 124.143 46.8301 119.781C46.6031 118.685 46.616 117.544 45.6008 116.751C41.3927 113.465 40.9619 109.098 42.1607 104.285C42.4876 102.983 42.8366 101.694 43.4036 99.5207ZM73.4102 81.5844C72.4546 85.3929 70.8276 88.4983 73.7686 91.4471C74.2666 91.9651 74.4317 93.2738 74.2161 94.0762C73.3475 97.284 75.3916 97.652 77.6341 97.9636C79.3496 98.2076 80.8437 97.5289 82.3509 96.8727C94.946 91.4072 102.332 77.2238 99.7303 63.5322C97.129 49.8406 85.1946 39.4254 71.4029 38.9691C63.6612 38.6384 56.0854 41.3254 50.2595 46.4682C44.4336 51.611 40.8087 58.8114 40.1428 66.5638C39.3487 75.0192 41.8424 82.5706 47.3003 89.0509C49.9786 92.2301 52.4429 91.9826 54.5356 88.5726C55.008 87.8054 55.6333 86.792 56.3743 86.5973C59.6989 85.722 59.9799 82.946 60.8775 80.3308C62.4761 75.6597 62.6634 71.1801 60.7725 66.5845C60.2097 65.2229 59.5608 63.5844 61.1354 62.3543C62.71 61.1242 64.0475 62.3317 65.3418 63.0256C69.1158 65.0852 73.3408 66.1744 77.6403 66.1961C79.0256 66.2014 80.642 65.8789 81.3599 67.5927C82.0778 69.3064 80.7896 70.3123 79.7697 71.261C76.5939 74.3567 73.4319 77.4242 73.4398 81.5922L73.4102 81.5844ZM58.8487 112.983C55.9913 112.237 53.1513 111.401 50.2641 110.794C49.1356 110.556 47.4276 109.119 46.86 110.809C46.3801 112.235 48.2572 113.049 49.5146 113.715C49.9655 113.952 50.4408 114.14 50.9323 114.275C55.5642 115.484 60.1961 116.692 64.828 117.901C66.0169 118.205 67.2611 118.225 68.4602 117.958C69.2439 117.793 70.3055 117.632 70.396 116.727C70.5053 115.604 69.2998 115.735 68.5975 115.539C65.3878 114.663 62.1329 113.839 58.8783 112.99L58.8487 112.983ZM61.5486 101.469C65.1945 102.42 68.8344 103.37 72.4802 104.321C73.2806 104.53 74.3662 105.271 74.8081 103.917C75.25 102.563 74.077 102.181 73.1004 101.92C65.9115 100.044 58.7225 98.1685 51.5336 96.2929C50.6325 96.0578 49.5656 95.9003 49.2311 97.0851C48.8691 98.4726 50.0866 98.4658 50.915 98.6883C54.4835 99.6448 58.0316 100.558 61.5605 101.472L61.5486 101.469ZM60.1125 108.599C63.6695 109.527 67.2264 110.455 70.7359 111.371C71.5066 111.572 72.5144 111.835 72.8496 110.841C73.2666 109.583 72.1222 109.309 71.2701 109.081C64.0953 107.183 56.9142 105.31 49.727 103.46C48.9563 103.259 47.9485 102.996 47.6086 104.008C47.181 105.283 48.3482 105.517 49.1943 105.744C52.8577 106.726 56.5023 107.657 60.1422 108.607L60.1125 108.599ZM68.4405 82.4312C68.7761 81.1449 69.1101 79.8647 69.4457 78.5784C69.5152 78.3843 69.542 78.1775 69.524 77.9722C69.506 77.7669 69.4437 77.5681 69.3415 77.3896C69.2393 77.2111 69.0996 77.057 68.9321 76.9383C68.7646 76.8195 68.5732 76.7388 68.3714 76.7017C67.3092 76.3801 66.5385 76.7132 66.2439 77.7939C65.6007 80.2592 64.9559 82.7305 64.3423 85.2035C64.0953 86.1503 64.658 86.736 65.5844 86.9713C66.5107 87.2067 67.2141 86.9132 67.4967 85.9756C67.8873 84.8182 68.1625 83.618 68.4701 82.4389L68.4405 82.4312ZM63.8301 94.3748L63.7928 94.5177L67.6046 95.5122C68.4405 95.7303 69.2479 95.8392 69.5693 94.7528C69.6633 94.54 69.7084 94.3088 69.7013 94.0763C69.6942 93.8438 69.6351 93.6161 69.5284 93.4099C69.4216 93.2037 69.27 93.0243 69.0847 92.8851C68.8994 92.7459 68.6852 92.6504 68.4579 92.6057C65.7305 91.8474 62.9917 91.1329 60.2414 90.462C60.0479 90.3902 59.8407 90.3629 59.6351 90.3819C59.4295 90.4009 59.2306 90.4659 59.053 90.572C58.8754 90.6781 58.7236 90.8226 58.6086 90.9951C58.4937 91.1675 58.4186 91.3635 58.3888 91.5686C58.1733 92.6127 58.9177 93.0359 59.7221 93.2776C61.1056 93.7022 62.4903 94.0252 63.8597 94.3825L63.8301 94.3748Z" fill="white" fill-opacity="0.17"/>
<path d="M100.027 96.1038C100.493 96.3594 100.932 96.6614 101.337 97.0052C104.244 99.8414 107.13 102.702 109.995 105.586C110.994 106.61 111.563 107.852 110.418 109.086C109.273 110.321 107.998 109.892 106.944 108.861C103.97 105.939 101.021 102.999 98.0951 100.039C97.2723 99.1884 96.7364 98.2091 97.4454 97.0203C97.9801 96.1358 98.7995 95.8344 100.027 96.1038Z" fill="white" fill-opacity="0.17"/>
<path d="M61.4552 30.0645C61.3522 30.5099 61.1073 30.9096 60.7576 31.2029C60.4079 31.4963 59.9726 31.6672 59.5179 31.6897C59.0519 31.7747 58.5714 31.6837 58.1689 31.4343C57.7664 31.1848 57.4704 30.7946 57.3377 30.3386C56.0462 25.8484 54.7964 21.3437 53.648 16.8146C53.3689 15.7242 54.0789 14.8472 55.1637 14.4752C56.2486 14.1031 57.3333 14.5324 57.6497 15.6008C58.9878 20.1794 60.2125 24.8048 61.467 29.4125C61.495 29.6292 61.491 29.8488 61.4552 30.0645Z" fill="white" fill-opacity="0.17"/>
<path d="M32.8383 80.2914C32.734 80.8502 32.4656 81.3653 32.0676 81.7704C31.6697 82.1754 31.1605 82.452 30.6053 82.5646C26.6926 83.6638 22.7755 84.7471 18.8542 85.8144C17.4288 86.2057 16.1341 86.0714 15.5885 84.498C15.043 82.9247 16.1004 81.9539 17.4693 81.5606C21.5778 80.3746 25.6707 79.2482 29.8192 78.1999C31.6663 77.7215 32.6795 78.6918 32.8383 80.2914Z" fill="white" fill-opacity="0.17"/>
<path d="M43.075 41.055C42.2606 42.6233 40.9043 43.2108 39.4687 41.8695C36.2047 38.8236 33.0806 35.6299 29.9565 32.4361C29.0923 31.5746 28.9046 30.4253 29.8655 29.4358C30.6701 28.609 31.8131 28.3538 32.6264 29.1194C36.0809 32.4057 39.4332 35.7926 42.8005 39.1707C43.0073 39.4324 43.1417 39.7444 43.1899 40.0753C43.2381 40.4061 43.1985 40.744 43.075 41.055Z" fill="white" fill-opacity="0.17"/>
<path d="M98.2583 41.9688C96.6514 41.187 96.3018 39.7602 97.5453 38.3674C100.566 35.0659 103.747 31.9016 106.941 28.7344C107.125 28.5154 107.353 28.338 107.611 28.214C107.868 28.0901 108.148 28.0225 108.433 28.0156C108.718 28.0088 109.001 28.0629 109.264 28.1744C109.526 28.2858 109.762 28.4521 109.955 28.6621C110.857 29.5717 111.002 30.7415 110.098 31.6823C106.934 34.9975 103.706 38.2449 100.473 41.4907C100.178 41.7597 99.818 41.9457 99.4291 42.0297C99.0401 42.1137 98.6361 42.0927 98.2583 41.9688Z" fill="white" fill-opacity="0.17"/>
<path d="M122.749 52.4543C124.108 52.9234 124.634 53.5058 124.722 54.4064C124.811 54.8644 124.734 55.3398 124.505 55.7465C124.276 56.1533 123.909 56.4646 123.472 56.6244C118.985 57.9511 114.474 59.208 109.939 60.395C108.953 60.6531 108.139 60.0144 107.74 59.1154C107.341 58.2164 107.344 57.3076 108.129 56.8955C112.853 54.4199 118.126 53.7669 122.749 52.4543Z" fill="white" fill-opacity="0.17"/>
<path d="M115.755 83.3146C113.787 82.8011 111.825 82.2891 109.862 81.7772C108.475 81.4153 107.315 80.6674 107.723 79.0058C108.095 77.5826 109.359 77.1301 110.628 77.4357C114.799 78.435 118.893 79.4903 122.988 80.6606C124.354 81.0551 125.313 82.113 124.727 83.7028C124.19 85.1529 122.915 85.1382 121.649 84.846C119.675 84.3564 117.717 83.8265 115.755 83.3146Z" fill="white" fill-opacity="0.17"/>
<path d="M23.2082 59.1753C21.3408 58.6881 19.4794 58.2025 17.612 57.7153C16.2307 57.3549 15.0752 56.6146 15.4806 54.9395C15.8643 53.4687 17.1482 53.1103 18.4112 53.4144C22.5487 54.3985 26.6747 55.475 30.7656 56.6377C32.0105 56.9625 32.9644 57.9173 32.5838 59.3763C32.1487 61.0436 30.7832 61.1326 29.3898 60.7945C27.2984 60.2679 25.2475 59.7074 23.2082 59.1753Z" fill="white" fill-opacity="0.17"/>
<path d="M84.2534 23.521C83.7391 25.4921 83.253 27.4768 82.7091 29.4402C82.3751 30.7204 81.6559 31.754 80.1443 31.4804C78.6327 31.2069 78.1623 29.9521 78.4546 28.6863C79.4559 24.4276 80.5616 20.1897 81.7715 15.9727C82.129 14.724 83.1497 13.8455 84.5953 14.299C86.0409 14.7525 86.1916 16.0193 85.8797 17.3117C85.3644 19.3842 84.7941 21.4488 84.2534 23.521Z" fill="white" fill-opacity="0.17"/>
<path d="M46.3052 61.8496C49.1176 50.2446 63.533 41.5397 75.096 44.4229C76.6374 44.825 78.3014 45.291 77.8724 47.3479C77.4434 49.4048 75.7755 49.1477 74.1835 48.8914C63.6342 47.1948 55.0188 52.2104 51.1252 62.2803C50.9737 62.6669 50.8415 63.0522 50.6604 63.4311C50.0378 64.7251 49.1926 65.7321 47.5735 65.2397C46.3797 64.8647 45.9107 63.483 46.3052 61.8496Z" fill="white" fill-opacity="0.17"/>
</g>
<defs>
<clipPath id="clip0_74_519">
<rect width="113" height="118" fill="white" transform="translate(29.7891) rotate(14.6226)"/>
</clipPath>
</defs>
</svg>
