<svg width="126" height="127" viewBox="0 0 126 127" fill="none" xmlns="http://www.w3.org/2000/svg">
<g clip-path="url(#clip0_294_2256)">
<path d="M63.281 94.1144C62.979 93.6233 62.7218 93.1059 62.5127 92.5686C61.7462 90.4787 60.2881 89.6348 58.0935 89.3212C46.3874 87.6816 37.4454 79.3722 34.6676 67.7704C32.0939 56.9868 36.6721 45.4414 46.163 38.8109C56.0392 31.9056 69.6875 32.5077 79.2789 40.2626C88.5627 47.7729 92.1437 61.1214 87.5167 72.0435C86.3926 74.6948 86.3739 76.7313 88.0227 79.0461C89.2532 80.7715 90.1515 82.736 91.2156 84.5952C91.9841 85.8228 92.3765 87.2483 92.3439 88.6945C92.3114 90.1407 91.8554 91.5438 91.0326 92.7293C90.3563 93.7382 90.0579 94.9553 90.19 96.1662C90.4901 99.8502 89.0332 102.69 85.7618 104.514C82.4903 106.338 79.484 105.845 76.5398 103.839C75.7988 103.336 75.17 102.674 74.1453 102.784C69.8977 103.242 67.2163 100.975 65.2222 97.5426C64.6847 96.6132 64.1667 95.6785 63.281 94.1144ZM70.5155 67.0922C72.0892 69.8117 72.8856 72.5016 76.2178 72.5559C76.7925 72.5757 77.6166 73.2352 77.9399 73.8162C79.2289 76.1423 80.6078 75.2144 82.0691 74.1435C83.1902 73.3276 83.6699 72.1052 84.1697 70.8885C88.3562 60.7307 84.6927 48.4703 75.5686 42.058C66.4445 35.6456 53.7871 36.316 45.6133 43.7401C40.9835 47.8647 38.1308 53.6297 37.6515 59.8296C37.1722 66.0295 39.1035 72.1843 43.0416 77.007C47.2978 82.3048 52.9382 85.2513 59.6837 85.9308C62.9934 86.2637 64.2705 84.7482 63.5718 81.6239C63.4155 80.92 63.2098 79.9896 63.5268 79.4649C64.948 77.1095 63.5623 75.3588 62.6203 73.3568C60.9351 69.7837 58.5461 67.107 54.8992 65.5219C53.8171 65.0537 52.5314 64.4745 52.75 62.8906C52.9687 61.3067 54.4097 61.2547 55.5396 60.9318C58.8545 60.0112 61.8877 58.2821 64.3686 55.8984C65.167 55.1294 65.9155 54.0435 67.2828 54.6274C68.6501 55.2114 68.471 56.5069 68.414 57.6201C68.3157 61.1676 68.2095 64.6912 70.5369 67.0801L70.5155 67.0922ZM79.6522 93.2369C77.5959 94.4013 75.499 95.5037 73.5028 96.7642C72.7226 97.2569 70.9405 97.3832 71.5565 98.67C72.076 99.7566 73.6076 99.178 74.7003 98.8592C75.0918 98.7445 75.4695 98.5875 75.8269 98.3911C79.1601 96.5036 82.4933 94.6162 85.8265 92.7288C86.679 92.2411 87.4044 91.5589 87.9441 90.7374C88.3025 90.2062 88.8219 89.5216 88.3695 88.9515C87.8066 88.2459 87.1872 88.9928 86.6747 89.2717C84.3437 90.5577 82.0156 91.8986 79.6735 93.2248L79.6522 93.2369ZM74.786 85.1209C77.4097 83.6353 80.0291 82.152 82.6527 80.6664C83.2286 80.3403 84.2651 80.1609 83.7643 79.1372C83.2635 78.1135 82.3769 78.5476 81.6706 78.9419C76.4972 81.8713 71.3239 84.8007 66.1505 87.7301C65.5021 88.0972 64.8016 88.6014 65.2699 89.4681C65.8352 90.4666 66.5306 89.7842 67.1303 89.4503C69.7124 88.0108 72.2587 86.5577 74.7946 85.1161L74.786 85.1209ZM77.9352 90.0156C80.4948 88.5662 83.0545 87.1168 85.58 85.6868C86.1346 85.3727 86.8598 84.9621 86.4985 84.2046C86.0365 83.2494 85.2271 83.7304 84.6104 84.074C79.433 86.983 74.2654 89.9092 69.1074 92.8525C68.5529 93.1665 67.8276 93.5772 68.1962 94.3475C68.6612 95.3179 69.4621 94.8022 70.0746 94.461C72.725 92.9829 75.3371 91.4868 77.9565 90.0036L77.9352 90.0156ZM68.1337 70.3481C67.6096 69.4225 67.0879 68.5011 66.5637 67.5755C66.4955 67.4253 66.3956 67.2916 66.2709 67.1838C66.1461 67.0759 65.9996 66.9965 65.8414 66.9509C65.6832 66.9053 65.5172 66.8948 65.3548 66.9199C65.1924 66.9451 65.0375 67.0054 64.901 67.0966C64.1118 67.5038 63.8549 68.1247 64.288 68.9094C65.2926 70.6835 66.2996 72.4619 67.3255 74.2239C67.7113 74.9053 68.3608 74.928 69.0239 74.5469C69.687 74.1657 69.9273 73.6052 69.5671 72.9093C69.1464 72.027 68.6355 71.1845 68.155 70.336L68.1337 70.3481ZM72.1425 79.7758L72.2007 79.8786L74.9438 78.3254C75.5453 77.9848 76.0696 77.5973 75.6488 76.7943C75.5841 76.6198 75.4812 76.4619 75.3475 76.3323C75.2139 76.2028 75.053 76.1049 74.8768 76.046C74.7006 75.9871 74.5136 75.9686 74.3296 75.9919C74.1456 76.0153 73.9694 76.0798 73.814 76.1808C71.8252 77.2654 69.8543 78.3814 67.9012 79.5289C67.7501 79.5956 67.6159 79.6953 67.5084 79.8208C67.4009 79.9464 67.3229 80.0945 67.28 80.2544C67.2372 80.4143 67.2306 80.5819 67.2607 80.745C67.2908 80.908 67.3569 81.0624 67.4541 81.1969C67.9123 81.9165 68.5755 81.7446 69.1721 81.4351C70.2032 80.9079 71.1784 80.3217 72.1638 79.7637L72.1425 79.7758Z" fill="#1E239C" fill-opacity="0.4"/>
<path d="M93.8913 60.5959C94.3011 60.4831 94.7214 60.4119 95.1457 60.3835C98.3956 60.392 101.647 60.426 104.9 60.4857C106.044 60.5168 107.063 60.9133 107.093 62.2601C107.123 63.6068 106.153 64.0716 104.972 64.0665C101.637 64.0462 98.3043 64.0015 94.9749 63.9324C94.0284 63.9025 93.1748 63.6388 92.9194 62.561C92.7335 61.7551 93.0361 61.1254 93.8913 60.5959Z" fill="#1E239C" fill-opacity="0.4"/>
<path d="M34.9384 44.1708C35.1275 44.4839 35.2096 44.85 35.1723 45.2133C35.135 45.5766 34.9803 45.9174 34.7317 46.1837C34.5115 46.4922 34.1848 46.7077 33.8147 46.7888C33.4446 46.8699 33.0571 46.8108 32.7268 46.6229C29.4828 44.7643 26.2546 42.8741 23.0711 40.9134C22.3032 40.4427 22.2222 39.5435 22.6377 38.7253C23.0533 37.907 23.9154 37.549 24.6925 37.9862C28.0126 39.8696 31.2935 41.8431 34.5818 43.7898C34.7186 43.8986 34.8388 44.027 34.9384 44.1708Z" fill="#1E239C" fill-opacity="0.4"/>
<path d="M46.4975 88.9605C46.7489 89.3395 46.8819 89.7849 46.8791 90.2392C46.8764 90.6936 46.7381 91.1362 46.482 91.5102C44.8478 94.322 43.2023 97.127 41.5454 99.9253C40.9449 100.944 40.1267 101.589 38.9366 100.989C37.7464 100.39 37.8126 99.2432 38.3795 98.2545C40.0777 95.2838 41.8002 92.356 43.5982 89.4421C44.3922 88.1379 45.5147 88.1304 46.4975 88.9605Z" fill="#1E239C" fill-opacity="0.4"/>
<path d="M30.5092 60.7251C30.9156 62.0796 30.4642 63.1728 28.8923 63.2026C25.3206 63.2727 21.7468 63.1798 18.1729 63.0869C17.1965 63.0738 16.4482 62.5185 16.4486 61.4147C16.4498 60.4916 16.964 59.7081 17.8576 59.6944C21.6728 59.6563 25.4853 59.7329 29.3014 59.7961C29.5661 59.8311 29.8171 59.9354 30.0292 60.0985C30.2412 60.2616 30.4068 60.4778 30.5092 60.7251Z" fill="#1E239C" fill-opacity="0.4"/>
<path d="M62.7061 30.4961C61.3477 30.9428 60.3518 30.3182 60.2896 28.8255C60.1841 25.2463 60.2472 21.6565 60.3165 18.0577C60.3 17.8294 60.3321 17.6003 60.4108 17.3858C60.4895 17.1713 60.6128 16.9761 60.7727 16.8133C60.9325 16.6506 61.1253 16.5239 61.338 16.4417C61.5508 16.3595 61.7787 16.3236 62.0067 16.3365C63.0318 16.356 63.7667 16.9472 63.7719 17.9912C63.803 21.6578 63.7591 25.3215 63.7111 28.9876C63.6919 29.3062 63.5888 29.6136 63.4123 29.8786C63.2357 30.1436 62.992 30.3567 62.7061 30.4961Z" fill="#1E239C" fill-opacity="0.4"/>
<path d="M82.6129 22.8684C83.6549 22.3802 84.2812 22.4217 84.8336 22.8899C85.1401 23.1032 85.3609 23.419 85.4559 23.7803C85.551 24.1416 85.5141 24.5246 85.352 24.86C83.5148 28.1226 81.6249 31.3583 79.6823 34.5673C79.2603 35.2647 78.4364 35.352 77.7065 35.058C76.9766 34.7639 76.4717 34.2404 76.6928 33.5663C78.0256 29.5123 80.69 26.1983 82.6129 22.8684Z" fill="#1E239C" fill-opacity="0.4"/>
<path d="M95.7951 44.4869C94.3787 45.2889 92.9667 46.0885 91.5546 46.8881C90.5563 47.4534 89.4735 47.6704 88.7819 46.4887C88.202 45.4646 88.6756 44.5002 89.5746 43.9686C92.5269 42.2176 95.4657 40.5422 98.4694 38.9319C99.4737 38.3972 100.614 38.4704 101.163 39.7097C101.663 40.8414 100.923 41.5437 100.033 42.0815C98.6265 42.9006 97.2071 43.6874 95.7951 44.4869Z" fill="#1E239C" fill-opacity="0.4"/>
<path d="M29.1996 82.2022C27.8558 82.9631 26.5162 83.7216 25.1724 84.4826C24.1784 85.0454 23.1023 85.2643 22.4016 84.0765C21.8022 83.018 22.3398 82.0968 23.2345 81.5675C26.1587 79.8268 29.1279 78.1455 32.125 76.5333C33.0209 76.026 34.1008 76.0427 34.6953 77.0926C35.3747 78.2924 34.6401 79.1045 33.6516 79.6869C32.1572 80.5501 30.6671 81.3712 29.1996 82.2022Z" fill="#1E239C" fill-opacity="0.4"/>
<path d="M44.3832 27.708C45.1864 29.1264 46.0133 30.5371 46.7952 31.9676C47.3169 32.8889 47.4799 33.8832 46.4594 34.5685C45.439 35.2538 44.4696 34.7954 43.932 33.9057C42.1336 30.9022 40.4067 27.8526 38.7514 24.7567C38.2607 23.8405 38.3572 22.7672 39.4401 22.2219C40.5229 21.6767 41.3154 22.3202 41.8566 23.2361C42.7157 24.7134 43.5388 26.2168 44.3832 27.708Z" fill="#1E239C" fill-opacity="0.4"/>
<path d="M43.9528 70.8658C39.1003 62.6346 42.5267 49.6023 50.7733 44.8138C51.8824 44.1857 53.0976 43.5259 53.9976 44.9461C54.8976 46.3663 53.7966 47.1482 52.7395 47.8883C45.7364 52.7932 43.5844 60.4746 46.9606 68.4269C47.0891 68.7334 47.2279 69.0283 47.335 69.3468C47.6987 70.4368 47.7745 71.4861 46.5704 72.1057C45.6759 72.5556 44.6366 72.0236 43.9528 70.8658Z" fill="#1E239C" fill-opacity="0.4"/>
</g>
<defs>
<clipPath id="clip0_294_2256">
<rect width="90.4225" height="94.4235" fill="white" transform="translate(0 44.5547) rotate(-29.5206)"/>
</clipPath>
</defs>
</svg>
