<svg width="156" height="156" viewBox="0 0 156 156" fill="none" xmlns="http://www.w3.org/2000/svg">
<circle cx="78" cy="78" r="78" fill="#E7F0FE"/>
<circle cx="78" cy="78" r="50" fill="#1C4481"/>
<g clip-path="url(#clip0_533_5945)">
<path d="M52 93.5675V69.7166C52.0427 69.6114 52.0783 69.5033 52.1065 69.3932C52.6 66.7452 54.8106 64.6086 57.454 64.4107C59.3563 64.2713 61.2738 64.3284 63.1844 64.3215C63.3321 64.333 63.4799 64.301 63.61 64.2295C63.74 64.158 63.8467 64.0501 63.9172 63.9187C64.7771 62.5723 65.6577 61.2385 66.5439 59.9089C67.7384 58.1166 69.4223 57.0894 71.5499 57.056C75.8468 56.9877 80.1449 56.9946 84.4431 57.056C85.3722 57.0521 86.2882 57.2762 87.1122 57.7089C87.9362 58.1416 88.6433 58.7699 89.1727 59.5396C90.1708 60.9333 91.0957 62.3828 92.0165 63.8323C92.2612 64.2155 92.5252 64.3326 92.958 64.3257C94.4981 64.3006 96.0382 64.3075 97.5783 64.3173C101.33 64.341 103.999 67.0392 104 70.8093C104 78.0427 103.998 85.2757 103.993 92.5082C104.003 93.0528 103.951 93.5967 103.837 94.1291C103.146 97.0797 100.701 98.9932 97.6336 98.9946C87.2261 98.9946 76.8191 98.9946 66.4126 98.9946C63.6545 98.9946 60.8964 99.0351 58.1383 98.9807C55.7991 98.9347 53.9784 97.8657 52.8212 95.8002C52.4383 95.1117 52.2668 94.3117 52 93.5675ZM78.0021 65.6483C70.2919 65.6413 63.9669 71.9466 63.9932 79.7013C64.0208 87.5716 70.2144 93.7779 77.9896 93.8309C85.6611 93.8783 91.9985 87.5117 92.0151 79.7765C92.0317 72.0413 85.7178 65.6553 78.0021 65.6483ZM95.7105 73.1744C96.2193 73.1521 96.7128 73.1647 97.1953 73.1006C98.0967 72.9807 98.7023 72.1988 98.6691 71.2622C98.6359 70.3257 97.9322 69.5284 97.035 69.4964C96.175 69.4657 95.3124 69.4643 94.4524 69.4964C93.5331 69.5284 92.828 70.2713 92.7658 71.2149C92.7357 71.6617 92.8738 72.1037 93.1526 72.4524C93.4314 72.8012 93.8304 73.0311 94.27 73.0964C94.7483 73.1647 95.2377 73.1507 95.7105 73.1744Z" fill="white"/>
<path d="M85.8116 79.7064C85.8116 84.0186 82.2766 87.5921 78.0005 87.5935C73.7244 87.5949 70.1935 84.073 70.188 79.7775C70.1825 75.482 73.7244 71.8876 77.9991 71.8862C82.2738 71.8848 85.8061 75.4151 85.8116 79.7064Z" fill="white"/>
</g>
<defs>
<clipPath id="clip0_533_5945">
<rect width="52" height="42" fill="white" transform="translate(52 57)"/>
</clipPath>
</defs>
</svg>
