<svg width="35" height="35" viewBox="0 0 35 35" fill="none" xmlns="http://www.w3.org/2000/svg">
<path d="M17.5 30.625C15.7764 30.625 14.0697 30.2855 12.4773 29.6259C10.8849 28.9663 9.43799 27.9995 8.21922 26.7808C7.00045 25.562 6.03367 24.1151 5.37408 22.5227C4.71449 20.9303 4.375 19.2236 4.375 17.5C4.375 15.7764 4.71449 14.0697 5.37408 12.4773C6.03368 10.8849 7.00046 9.43799 8.21922 8.21922C9.43799 7.00045 10.8849 6.03367 12.4773 5.37408C14.0697 4.71449 15.7764 4.375 17.5 4.375C19.2236 4.375 20.9303 4.71449 22.5227 5.37408C24.1151 6.03368 25.562 7.00046 26.7808 8.21923C27.9995 9.43799 28.9663 10.8849 29.6259 12.4773C30.2855 14.0697 30.625 15.7764 30.625 17.5C30.625 19.2236 30.2855 20.9303 29.6259 22.5227C28.9663 24.1151 27.9995 25.562 26.7808 26.7808C25.562 27.9995 24.1151 28.9663 22.5227 29.6259C20.9303 30.2855 19.2236 30.625 17.5 30.625L17.5 30.625Z" stroke="#FA6E6E" stroke-width="3" stroke-linecap="round"/>
<path d="M13.125 13.125L21.875 21.875" stroke="#FA6E6E" stroke-width="3" stroke-linecap="round"/>
<path d="M21.875 13.125L13.125 21.875" stroke="#FA6E6E" stroke-width="3" stroke-linecap="round"/>
</svg>
