<svg width="250" height="267" viewBox="0 0 250 267" fill="none" xmlns="http://www.w3.org/2000/svg">
<rect width="250" height="250" rx="20.6038" fill="url(#paint0_linear_535_8614)"/>
<mask id="mask0_535_8614" style="mask-type:alpha" maskUnits="userSpaceOnUse" x="0" y="0" width="250" height="178">
<rect width="250" height="177.04" rx="20.6038" fill="#1C8DB7"/>
</mask>
<g mask="url(#mask0_535_8614)">
<path d="M84.4088 126.503C65.5916 151.611 36.2905 171.246 0.269043 159.658V0.161133H239.516C239.516 44.5886 159.504 13.1977 128.495 44.743C97.4857 76.2883 103.226 101.396 84.4088 126.503Z" fill="white" fill-opacity="0.1"/>
</g>
<g clip-path="url(#clip0_535_8614)">
<path d="M191.92 52.1714H37.2053C31.4536 52.1714 26.791 56.8471 26.791 62.6149V161.818C26.791 167.586 31.4536 172.262 37.2053 172.262H191.92C197.672 172.262 202.335 167.586 202.335 161.818V62.6149C202.335 56.8471 197.672 52.1714 191.92 52.1714Z" fill="#EAEAEA" stroke="#231F20" stroke-width="7" stroke-miterlimit="10"/>
<path d="M179.274 62.2407H49.1052C43.3535 62.2407 38.6909 66.9164 38.6909 72.6842V151.749C38.6909 157.517 43.3535 162.192 49.1052 162.192H179.274C185.025 162.192 189.688 157.517 189.688 151.749V72.6842C189.688 66.9164 185.025 62.2407 179.274 62.2407Z" fill="#92D8F0" stroke="#231F20" stroke-width="6" stroke-miterlimit="10"/>
<path d="M118.49 112.929H99.4224V138.917H118.49V112.929Z" fill="#FBD5A6" stroke="#030302" stroke-width="4" stroke-miterlimit="10"/>
<path d="M144.837 160.86C144.837 140.99 128.774 131.151 108.953 131.151C89.1326 131.151 73.0693 140.99 73.0693 160.86H144.83H144.837Z" fill="#F9B861" stroke="#030302" stroke-width="6" stroke-miterlimit="10"/>
<path d="M128.283 97.339C128.283 110.205 121.783 120.635 108.953 120.635C96.1236 120.635 90.7495 110.205 90.7495 97.339C90.7495 84.4733 96.1236 74.043 108.953 74.043C121.783 74.043 128.283 84.4733 128.283 97.339Z" fill="#FBD5A6" stroke="#030302" stroke-width="5" stroke-miterlimit="10"/>
<path d="M119.649 72.8485C119.649 72.8485 115.63 70.9252 115.591 71.0303C80.1781 68.1158 90.7102 101.337 90.7102 101.337L97.544 93.7224C110.577 90.5847 116.284 82.3862 118.628 77.3318C118.124 81.8742 118.726 89.2654 125.403 96.5909L126.528 104.691C126.528 104.691 141.394 81.5657 119.649 72.8485Z" fill="#050606"/>
<path d="M209.993 45.5352H149.831C142.356 45.5352 136.294 51.6135 136.294 59.1097V89.6788C136.294 97.175 142.356 103.253 149.831 103.253H159.61V116.25L172.571 103.253H209.999C217.475 103.253 223.536 97.175 223.536 89.6788V59.1097C223.536 51.6135 217.475 45.5352 209.999 45.5352H209.993Z" fill="#F15F69" stroke="#030302" stroke-width="6" stroke-miterlimit="10"/>
</g>
<path d="M30.1992 191.517C30.1992 192.38 29.9957 193.194 29.5887 193.959C29.1818 194.725 28.5306 195.351 27.6352 195.84C26.7398 196.312 25.5921 196.548 24.1921 196.548H21.1152V203.434H18.3314V186.463H24.1921C25.4944 186.463 26.5933 186.691 27.4887 187.146C28.4003 187.586 29.0759 188.188 29.5155 188.953C29.9713 189.719 30.1992 190.573 30.1992 191.517ZM24.1921 194.277C25.2502 194.277 26.0398 194.041 26.5607 193.569C27.0817 193.08 27.3422 192.397 27.3422 191.517C27.3422 189.662 26.2921 188.734 24.1921 188.734H21.1152V194.277H24.1921ZM31.9263 194.912C31.9263 193.251 32.3089 191.762 33.074 190.443C33.8554 189.124 34.9055 188.099 36.2241 187.366C37.559 186.617 39.016 186.243 40.5952 186.243C42.4022 186.243 44.0057 186.691 45.4058 187.586C46.8221 188.465 47.8477 189.719 48.4826 191.347H45.1371C44.6976 190.451 44.0871 189.784 43.3057 189.344C42.5243 188.905 41.6208 188.685 40.5952 188.685C39.4719 188.685 38.4707 188.937 37.5916 189.442C36.7125 189.946 36.0206 190.671 35.5159 191.615C35.0276 192.559 34.7834 193.658 34.7834 194.912C34.7834 196.165 35.0276 197.264 35.5159 198.208C36.0206 199.153 36.7125 199.885 37.5916 200.406C38.4707 200.911 39.4719 201.163 40.5952 201.163C41.6208 201.163 42.5243 200.943 43.3057 200.504C44.0871 200.064 44.6976 199.397 45.1371 198.501H48.4826C47.8477 200.129 46.8221 201.383 45.4058 202.262C44.0057 203.141 42.4022 203.581 40.5952 203.581C38.9998 203.581 37.5427 203.214 36.2241 202.482C34.9055 201.733 33.8554 200.699 33.074 199.38C32.3089 198.062 31.9263 196.572 31.9263 194.912ZM62.0704 193.422V195.766H52.0341V193.422H62.0704ZM80.6525 186.463L74.2791 203.434H71.0557L64.6579 186.463H67.637L72.6674 200.577L77.7222 186.463H80.6525ZM84.3969 188.196C83.8922 188.196 83.4689 188.026 83.1271 187.684C82.7852 187.342 82.6143 186.919 82.6143 186.414C82.6143 185.909 82.7852 185.486 83.1271 185.144C83.4689 184.802 83.8922 184.631 84.3969 184.631C84.8853 184.631 85.3004 184.802 85.6423 185.144C85.9841 185.486 86.1551 185.909 86.1551 186.414C86.1551 186.919 85.9841 187.342 85.6423 187.684C85.3004 188.026 84.8853 188.196 84.3969 188.196ZM85.7644 189.979V203.434H82.9806V189.979H85.7644ZM94.6205 200.943L98.43 189.979H101.385L96.2566 203.434H92.9356L87.832 189.979H90.8111L94.6205 200.943ZM102.561 196.646C102.561 195.294 102.838 194.098 103.391 193.056C103.961 192.014 104.726 191.208 105.687 190.638C106.663 190.052 107.738 189.759 108.91 189.759C109.968 189.759 110.888 189.971 111.669 190.394C112.467 190.801 113.102 191.314 113.574 191.933V189.979H116.382V203.434H113.574V201.432C113.102 202.067 112.459 202.596 111.645 203.019C110.831 203.442 109.903 203.654 108.861 203.654C107.705 203.654 106.647 203.361 105.687 202.775C104.726 202.172 103.961 201.342 103.391 200.284C102.838 199.21 102.561 197.997 102.561 196.646ZM113.574 196.694C113.574 195.766 113.379 194.961 112.988 194.277C112.614 193.593 112.117 193.072 111.498 192.714C110.88 192.356 110.212 192.177 109.496 192.177C108.78 192.177 108.112 192.356 107.494 192.714C106.875 193.056 106.37 193.569 105.98 194.252C105.605 194.92 105.418 195.718 105.418 196.646C105.418 197.573 105.605 198.387 105.98 199.087C106.37 199.787 106.875 200.325 107.494 200.699C108.129 201.057 108.796 201.236 109.496 201.236C110.212 201.236 110.88 201.057 111.498 200.699C112.117 200.341 112.614 199.82 112.988 199.136C113.379 198.436 113.574 197.622 113.574 196.694ZM138.25 191.517C138.25 192.38 138.046 193.194 137.639 193.959C137.232 194.725 136.581 195.351 135.686 195.84C134.79 196.312 133.643 196.548 132.243 196.548H129.166V203.434H126.382V186.463H132.243C133.545 186.463 134.644 186.691 135.539 187.146C136.451 187.586 137.127 188.188 137.566 188.953C138.022 189.719 138.25 190.573 138.25 191.517ZM132.243 194.277C133.301 194.277 134.09 194.041 134.611 193.569C135.132 193.08 135.393 192.397 135.393 191.517C135.393 189.662 134.343 188.734 132.243 188.734H129.166V194.277H132.243ZM143.689 191.933C144.096 191.249 144.633 190.72 145.3 190.345C145.984 189.955 146.79 189.759 147.718 189.759V192.641H147.01C145.919 192.641 145.089 192.918 144.519 193.471C143.965 194.025 143.689 194.985 143.689 196.352V203.434H140.905V189.979H143.689V191.933ZM149.349 196.646C149.349 195.294 149.626 194.098 150.179 193.056C150.749 192.014 151.514 191.208 152.474 190.638C153.451 190.052 154.526 189.759 155.698 189.759C156.756 189.759 157.676 189.971 158.457 190.394C159.255 190.801 159.89 191.314 160.362 191.933V189.979H163.17V203.434H160.362V201.432C159.89 202.067 159.247 202.596 158.433 203.019C157.619 203.442 156.691 203.654 155.649 203.654C154.493 203.654 153.435 203.361 152.474 202.775C151.514 202.172 150.749 201.342 150.179 200.284C149.626 199.21 149.349 197.997 149.349 196.646ZM160.362 196.694C160.362 195.766 160.166 194.961 159.776 194.277C159.401 193.593 158.905 193.072 158.286 192.714C157.668 192.356 157 192.177 156.284 192.177C155.568 192.177 154.9 192.356 154.281 192.714C153.663 193.056 153.158 193.569 152.767 194.252C152.393 194.92 152.206 195.718 152.206 196.646C152.206 197.573 152.393 198.387 152.767 199.087C153.158 199.787 153.663 200.325 154.281 200.699C154.916 201.057 155.584 201.236 156.284 201.236C157 201.236 157.668 201.057 158.286 200.699C158.905 200.341 159.401 199.82 159.776 199.136C160.166 198.436 160.362 197.622 160.362 196.694ZM165.899 196.694C165.899 195.311 166.175 194.098 166.729 193.056C167.299 191.998 168.08 191.184 169.073 190.614C170.066 190.044 171.206 189.759 172.492 189.759C174.12 189.759 175.463 190.15 176.521 190.931C177.595 191.697 178.32 192.795 178.694 194.228H175.691C175.446 193.561 175.056 193.04 174.519 192.665C173.981 192.291 173.306 192.104 172.492 192.104C171.352 192.104 170.441 192.511 169.757 193.324C169.089 194.122 168.756 195.245 168.756 196.694C168.756 198.143 169.089 199.275 169.757 200.089C170.441 200.903 171.352 201.31 172.492 201.31C174.103 201.31 175.17 200.601 175.691 199.185H178.694C178.304 200.553 177.571 201.643 176.497 202.457C175.422 203.255 174.087 203.654 172.492 203.654C171.206 203.654 170.066 203.369 169.073 202.799C168.08 202.213 167.299 201.399 166.729 200.357C166.175 199.299 165.899 198.078 165.899 196.694ZM184.716 192.25V199.698C184.716 200.203 184.83 200.569 185.058 200.797C185.302 201.008 185.709 201.114 186.279 201.114H187.988V203.434H185.791C184.537 203.434 183.577 203.141 182.909 202.555C182.242 201.969 181.908 201.017 181.908 199.698V192.25H180.321V189.979H181.908V186.634H184.716V189.979H187.988V192.25H184.716ZM191.971 188.196C191.466 188.196 191.043 188.026 190.701 187.684C190.359 187.342 190.188 186.919 190.188 186.414C190.188 185.909 190.359 185.486 190.701 185.144C191.043 184.802 191.466 184.631 191.971 184.631C192.459 184.631 192.874 184.802 193.216 185.144C193.558 185.486 193.729 185.909 193.729 186.414C193.729 186.919 193.558 187.342 193.216 187.684C192.874 188.026 192.459 188.196 191.971 188.196ZM193.338 189.979V203.434H190.554V189.979H193.338ZM196.065 196.694C196.065 195.311 196.342 194.098 196.895 193.056C197.465 191.998 198.246 191.184 199.239 190.614C200.233 190.044 201.372 189.759 202.658 189.759C204.286 189.759 205.629 190.15 206.687 190.931C207.762 191.697 208.486 192.795 208.861 194.228H205.857C205.613 193.561 205.222 193.04 204.685 192.665C204.148 192.291 203.472 192.104 202.658 192.104C201.519 192.104 200.607 192.511 199.923 193.324C199.256 194.122 198.922 195.245 198.922 196.694C198.922 198.143 199.256 199.275 199.923 200.089C200.607 200.903 201.519 201.31 202.658 201.31C204.27 201.31 205.336 200.601 205.857 199.185H208.861C208.47 200.553 207.737 201.643 206.663 202.457C205.588 203.255 204.254 203.654 202.658 203.654C201.372 203.654 200.233 203.369 199.239 202.799C198.246 202.213 197.465 201.399 196.895 200.357C196.342 199.299 196.065 198.078 196.065 196.694ZM210.707 196.646C210.707 195.294 210.984 194.098 211.537 193.056C212.107 192.014 212.872 191.208 213.833 190.638C214.809 190.052 215.884 189.759 217.056 189.759C218.114 189.759 219.034 189.971 219.815 190.394C220.613 190.801 221.248 191.314 221.72 191.933V189.979H224.528V203.434H221.72V201.432C221.248 202.067 220.605 202.596 219.791 203.019C218.977 203.442 218.049 203.654 217.007 203.654C215.851 203.654 214.793 203.361 213.833 202.775C212.872 202.172 212.107 201.342 211.537 200.284C210.984 199.21 210.707 197.997 210.707 196.646ZM221.72 196.694C221.72 195.766 221.525 194.961 221.134 194.277C220.76 193.593 220.263 193.072 219.644 192.714C219.026 192.356 218.358 192.177 217.642 192.177C216.926 192.177 216.258 192.356 215.64 192.714C215.021 193.056 214.516 193.569 214.126 194.252C213.751 194.92 213.564 195.718 213.564 196.646C213.564 197.573 213.751 198.387 214.126 199.087C214.516 199.787 215.021 200.325 215.64 200.699C216.275 201.057 216.942 201.236 217.642 201.236C218.358 201.236 219.026 201.057 219.644 200.699C220.263 200.341 220.76 199.82 221.134 199.136C221.525 198.436 221.72 197.622 221.72 196.694ZM230.969 185.364V203.434H228.185V185.364H230.969Z" fill="white"/>
<defs>
<linearGradient id="paint0_linear_535_8614" x1="125" y1="0" x2="125" y2="250" gradientUnits="userSpaceOnUse">
<stop stop-color="#86DB52"/>
<stop offset="1" stop-color="#849E19"/>
</linearGradient>
<clipPath id="clip0_535_8614">
<rect width="201" height="131" fill="white" transform="translate(24.5 43.5659)"/>
</clipPath>
</defs>
</svg>
