<svg width="17" height="17" viewBox="0 0 25 25" fill="none" xmlns="http://www.w3.org/2000/svg">
<path d="M19 11.5V8.7C19 7.5799 19 7.01984 18.782 6.59202C18.5903 6.21569 18.2843 5.90973 17.908 5.71799C17.4802 5.5 16.9201 5.5 15.8 5.5H7.2C6.0799 5.5 5.51984 5.5 5.09202 5.71799C4.71569 5.90973 4.40973 6.21569 4.21799 6.59202C4 7.01984 4 7.57989 4 8.7V14.3C4 15.4201 4 15.9802 4.21799 16.408C4.40973 16.7843 4.71569 17.0903 5.09202 17.282C5.51984 17.5 6.07989 17.5 7.2 17.5H14" stroke="white" stroke-width="2" stroke-linecap="round"/>
<path d="M8 13.5H12" stroke="white" stroke-width="2" stroke-linecap="round"/>
<path d="M8 9.5H15" stroke="white" stroke-width="2" stroke-linecap="round"/>
<circle cx="18" cy="15.5" r="1" stroke="white" stroke-width="2"/>
<path d="M20 20.5C20 20.5 19.5 19.5 18 19.5C16.5 19.5 16 20.5 16 20.5" stroke="white" stroke-width="2" stroke-linecap="round"/>
</svg>
