<svg width="17" height="17" viewBox="0 0 21 25" fill="none" xmlns="http://www.w3.org/2000/svg">
<path d="M7.96552 3.94824L10.8621 3.94824" stroke="#1C4481" stroke-width="2" stroke-linecap="round"/>
<path d="M7.96552 9.74136L10.1379 9.74136" stroke="#1C4481" stroke-width="2" stroke-linecap="round"/>
<path d="M7.96552 6.84479L12.3103 6.84479" stroke="#1C4481" stroke-width="2" stroke-linecap="round"/>
<path d="M15.2069 6.8448V6.12066C15.2069 4.18606 15.2069 3.21875 14.7775 2.50504C14.5249 2.08525 14.1734 1.7337 13.7536 1.48113C13.0398 1.0517 12.0725 1.0517 10.1379 1.0517V1.0517C8.20333 1.0517 7.23602 1.0517 6.52231 1.48113C6.10252 1.7337 5.75098 2.08525 5.4984 2.50504C5.06897 3.21875 5.06897 4.18606 5.06897 6.12066V9.01722C5.06897 10.9518 5.06897 11.9191 5.4984 12.6328C5.75098 13.0526 6.10252 13.4042 6.52231 13.6568C7.23602 14.0862 8.20333 14.0862 10.1379 14.0862V14.0862" stroke="#1C4481" stroke-width="2"/>
<path d="M13.3016 8.72846C13.7 8.16445 14.5414 8.16445 14.9398 8.72846C15.1391 9.01057 15.4724 9.17109 15.8173 9.15101C16.5067 9.11087 17.0313 9.76869 16.8387 10.4319C16.7424 10.7636 16.8247 11.1243 17.0554 11.3813C17.5166 11.8953 17.3294 12.7156 16.6909 12.9785C16.3715 13.11 16.1408 13.3993 16.0837 13.7399C15.9694 14.421 15.2113 14.786 14.6076 14.4508C14.3057 14.2831 13.9357 14.2831 13.6338 14.4508C13.0301 14.786 12.272 14.421 12.1577 13.7399C12.1006 13.3993 11.8699 13.11 11.5505 12.9785C10.912 12.7156 10.7248 11.8953 11.186 11.3813C11.4167 11.1243 11.499 10.7636 11.4027 10.4319C11.2101 9.76869 11.7347 9.11087 12.4241 9.15101C12.7689 9.17109 13.1023 9.01057 13.3016 8.72846Z" fill="#1C4481"/>
<path d="M13.7586 17.707V14.0863H15.2069V17.707L14.4827 17.0487L13.7586 17.707Z" fill="#1C4481"/>
<path d="M0 16.2586H4.07174H4.34483V23.4745C4.32196 23.4863 4.29697 23.4941 4.27109 23.4975L0 23.5V16.2586Z" fill="#1C4481"/>
<path d="M5.08573 16.9984C6.04923 16.9984 6.98871 16.9535 7.92284 17.0159C8.40867 17.0694 8.88094 17.2011 9.31871 17.4053C10.0073 17.6999 10.6532 18.0669 11.3311 18.3915C11.4725 18.4633 11.6295 18.5042 11.7902 18.5113C12.412 18.5238 13.0366 18.4988 13.6585 18.5263C13.9152 18.5364 14.1658 18.6031 14.3897 18.721C14.5014 18.7785 14.5969 18.8601 14.668 18.959C14.7392 19.058 14.7841 19.1714 14.799 19.2898C14.8139 19.4082 14.7983 19.5283 14.7536 19.6399C14.7089 19.7516 14.6363 19.8517 14.5419 19.9318C14.1562 20.3039 13.6351 20.5267 13.082 20.556C12.6469 20.5909 12.2092 20.5709 11.7715 20.5734C11.622 20.5734 11.4699 20.5535 11.3204 20.561C11.2133 20.5663 11.1118 20.6072 11.034 20.6763C10.9562 20.7454 10.9073 20.8382 10.8961 20.9379C10.886 21.0378 10.9131 21.1379 10.973 21.2212C11.0328 21.3045 11.1216 21.3658 11.2244 21.3948C11.3024 21.42 11.3847 21.4318 11.4672 21.4297C12.1959 21.3748 12.9298 21.3499 13.6504 21.2425C13.9632 21.1969 14.2621 21.0898 14.5275 20.9285C14.7929 20.7671 15.0188 20.5551 15.1904 20.3063C15.3224 20.0835 15.4418 19.8543 15.5481 19.6198C15.5944 19.5311 15.6678 19.4572 15.7589 19.4076C16.7731 18.9282 17.7891 18.4555 18.8069 17.9895C19.0112 17.8903 19.2371 17.8362 19.4672 17.8312C19.6974 17.8263 19.9256 17.8707 20.1346 17.9611C20.3435 18.0515 20.5276 18.1854 20.6726 18.3526C20.8177 18.5198 20.9199 18.7159 20.9714 18.9257C21.0263 19.1699 21.0018 19.4238 20.9009 19.6547C20.8001 19.8857 20.6275 20.0831 20.4056 20.2214C18.2065 21.7241 15.8565 23.0234 13.3889 24.101C12.9672 24.2833 12.5668 24.5105 12.1345 24.6628C11.4855 24.8913 10.7909 24.9844 10.0994 24.9357C9.4079 24.887 8.73611 24.6975 8.13102 24.3806C7.15685 23.9138 6.19068 23.437 5.21651 22.9701C5.17006 22.9531 5.1307 22.9225 5.10426 22.883C5.07782 22.8434 5.06571 22.7969 5.06972 22.7504C5.06972 20.883 5.06972 19.0056 5.06972 17.1457C5.07773 17.1008 5.08306 17.0583 5.08573 16.9984Z" fill="#1C4481"/>
</svg>
