<svg width="17" height="17" viewBox="0 0 22 22" fill="none" xmlns="http://www.w3.org/2000/svg">
<g clip-path="url(#clip0_2_355)">
<path d="M15.3361 0.863428C14.6969 1.41424 14.1674 1.92716 13.5756 2.35211C13.3955 2.48744 13.034 2.39271 12.7631 2.34128C8.15893 1.46431 3.66983 4.24544 2.53638 8.78051C1.67241 12.237 2.58783 15.263 5.27182 17.6043C7.9558 19.9456 11.0948 20.4667 14.3854 19.1052C17.6951 17.7356 19.4975 15.1453 19.8265 11.5603C19.8414 11.406 19.8536 11.2517 19.8712 11.046H21.9946C22.2492 14.3874 20.0175 19.1417 15.3483 21.1284C13.066 22.0945 10.5246 22.2637 8.13435 21.6085C5.7441 20.9534 3.64457 19.5122 2.17481 17.5177C0.702481 15.5376 -0.0569736 13.1182 0.0197231 10.6524C0.0964197 8.18662 1.00476 5.8191 2.59731 3.93417C5.78505 0.104201 10.9323 -0.950056 15.3361 0.863428Z" fill="#1C4481"/>
<path d="M9.8476 15.1602L5.05515 10.368L6.5285 9.01463L9.75687 12.2627L19.2849 2.74323L20.7081 4.36724L9.8476 15.1602Z" fill="#1C4481"/>
</g>
<defs>
<clipPath id="clip0_2_355">
<rect width="22" height="22" fill="white"/>
</clipPath>
</defs>
</svg>
