<svg width="77" height="74" viewBox="0 0 77 74" fill="none" xmlns="http://www.w3.org/2000/svg">
<path d="M46.5703 18.0884C46.9129 16.3845 44.7868 15.7008 44.4243 16.8298C44.2987 16.9762 44.2043 17.1466 44.1469 17.3306C44.0895 17.5146 44.0703 17.7084 44.0903 17.9002C44.2186 19.47 46.2533 19.6588 46.5703 18.0884Z" fill="#FFFFFF" fill-opacity="0.21"/>
<path d="M58.0338 20.6723C58.3762 18.9694 56.2532 18.2802 55.8891 19.4119C55.7635 19.5577 55.6691 19.7276 55.6117 19.9111C55.5544 20.0947 55.5354 20.2881 55.5557 20.4793C55.6824 22.0468 57.7162 22.2456 58.0338 20.6723Z" fill="#FFFFFF" fill-opacity="0.21"/>
<path d="M50.8716 20.3426C51.5805 20.8658 52.58 20.4864 52.7793 19.4851C53.1278 17.7497 50.9937 17.1083 50.6356 18.2249C50.13 18.7392 50.1646 19.8208 50.8716 20.3426Z" fill="#FFFFFF" fill-opacity="0.21"/>
<path d="M63.5722 56.138C65.3412 45.756 67.1357 34.0421 68.9239 23.565C68.9586 23.3612 68.9116 23.1518 68.7932 22.9819C68.6749 22.812 68.4944 22.6951 68.2907 22.6562L68.2848 22.6551C66.9204 22.4049 65.5559 22.1445 64.1448 21.8772C65.1453 17.1216 62.4669 11.3443 56.4271 8.89465C48.7234 5.69378 39.1282 8.71744 37.8827 16.8111C30.0209 15.3107 23.4551 14.1248 17.313 13.089C17.1097 13.0547 16.901 13.1007 16.7314 13.2174C16.5618 13.334 16.4445 13.5121 16.4045 13.7137C14.5369 23.1943 12.0506 35.5956 10.0517 45.7271C0.76369 58.5263 0.27891 57.5888 0.615868 58.5144C0.660738 58.632 0.733533 58.7371 0.828015 58.8206C0.915704 59.3616 1.05225 59.7857 1.3237 60.6264C1.37784 60.7975 1.47708 60.951 1.61105 61.0707C1.74501 61.1905 1.90877 61.2722 2.08517 61.3072L63.902 73.2261C64.1522 73.2752 64.4102 73.2672 64.6566 73.2026C64.9031 73.138 65.1316 73.0186 65.3251 72.8533C65.8644 72.3923 66.5679 71.761 66.9847 71.1391C67.0443 71.1108 67.0999 71.0749 67.1501 71.0323C67.241 70.9331 67.3049 70.8125 67.3359 70.6818C67.3669 70.5511 67.364 70.4146 67.3274 70.2853C65.9165 65.3087 65.2562 62.6957 63.5722 56.138ZM16.7522 42.2426C17.9047 35.9473 19.7952 26.5658 21.6252 19.283C27.3811 20.24 33.1006 21.2542 38.6477 22.2996C38.9425 22.9297 39.2916 23.5332 39.6911 24.1032C39.878 30.7854 39.2336 31.1602 39.8743 31.7732C39.9667 31.8726 40.0828 31.947 40.2119 31.9894C40.3409 32.0319 40.4787 32.041 40.6121 32.0158L40.6269 32.0186C41.3283 32.1209 42.6848 31.7487 43.1315 31.2007C43.6037 30.6149 44.4202 29.7985 45.0319 29.0703C48.197 30.7514 51.3586 31.4505 54.7358 30.795C57.3921 30.284 59.8248 28.9759 61.5456 26.9894C61.6491 27.0091 61.6118 26.9959 61.8722 27.0436C61.1569 34.8791 59.7851 43.5809 58.2352 50.1291L16.7522 42.2426ZM47.7878 9.42439C55.3261 8.1633 63.1273 13.0951 62.7684 20.3257C62.5158 25.7096 56.1694 30.1209 48.4136 28.0808C44.9572 27.1666 45.282 25.9887 42.8471 28.2125C42.7403 28.3123 41.356 29.6056 41.2331 29.7145C41.3044 28.0515 41.3413 26.162 41.2692 23.8169C41.2638 23.6564 41.2098 23.5013 41.1141 23.372C37.1458 18.0132 40.099 10.6557 47.7878 9.42439ZM17.8099 14.776C23.7742 15.7911 30.167 16.9531 37.7811 18.4032C37.7863 19.1381 37.8787 19.8699 38.0562 20.5834C32.5414 19.5512 26.8704 18.5504 21.164 17.6069C20.9684 17.5745 20.7677 17.6165 20.6018 17.7244C20.4358 17.8324 20.3165 17.9986 20.2675 18.1901C18.3032 25.882 16.2317 36.2012 15.0605 42.6965C15.0233 42.9012 15.0687 43.1123 15.1868 43.284C15.305 43.4556 15.4862 43.5739 15.6912 43.613L15.6991 43.6145C15.7178 43.618 15.7355 43.6112 15.7536 43.6127C16.0954 43.7797 12.7617 43.062 58.6788 51.8172C58.8782 51.8549 59.0845 51.8149 59.2549 51.7054C59.4254 51.5958 59.547 51.4251 59.5948 51.2285C61.2797 44.3476 62.7793 34.869 63.5084 26.4905C63.5247 26.3025 63.4729 26.1149 63.3624 25.9615C63.2519 25.8082 63.0901 25.6994 62.9061 25.6548L62.5841 25.5822C62.8115 25.2056 63.0155 24.8155 63.195 24.414C63.5926 23.7325 63.6508 23.4972 63.6953 23.3978C63.779 23.4138 65.0883 23.6637 67.2352 24.0673C65.6326 33.5344 63.9103 44.6562 62.2002 54.7665L11.7465 45.3319C13.7645 35.1063 15.8619 24.6515 17.8099 14.776ZM11.205 46.837L61.9965 56.3371C63.4289 61.9286 64.143 64.789 65.4581 69.4867L45.7259 65.7788C45.826 65.3134 45.6282 65.2583 44.3109 61.3696C44.2657 61.2373 44.1863 61.1193 44.0805 61.0276C43.9748 60.9359 43.8466 60.8738 43.7091 60.8475C38.3455 59.8412 32.8344 58.9441 27.6468 57.9683C27.5097 57.9429 27.3684 57.9539 27.2371 58.0004C27.1058 58.0468 26.9891 58.127 26.8989 58.2328C25.1269 60.3052 24.1234 61.4066 23.9516 61.6914L2.8331 57.72C6.54523 53.2498 7.71692 51.6421 11.205 46.837ZM25.7186 62.0205L27.8014 59.6032C32.7084 60.5193 38.0897 61.4059 42.9603 62.3151C43.368 63.4852 43.5917 64.0786 44.0725 65.4704L25.7186 62.0205Z" fill="#FFFFFF" fill-opacity="0.21"/>
<path d="M36.3969 37.9872C35.6654 36.7481 34.5887 35.6915 33.1864 34.8426C28.9157 32.2562 23.4085 34.2816 20.1287 38.1237C20.0392 38.2289 19.9789 38.3557 19.9539 38.4915C19.9289 38.6272 19.94 38.7672 19.9861 38.8974C20.0322 39.0276 20.1118 39.1436 20.2167 39.2337C20.3217 39.3238 20.4485 39.3849 20.5845 39.4109L36.8992 42.5246C37.0269 42.5488 37.1586 42.5414 37.2827 42.5028C37.4068 42.4643 37.5195 42.3959 37.6107 42.3037C37.702 42.2115 37.7691 42.0982 37.806 41.974C37.843 41.8497 37.8487 41.7183 37.8227 41.5912C37.5561 40.3181 37.0739 39.0993 36.3969 37.9872ZM22.3051 38.1319C24.1926 36.3685 26.4998 35.29 29.1404 35.2626C31.7198 35.2458 34.6784 37.0728 35.9509 40.7362L22.3051 38.1319Z" fill="#FFFFFF" fill-opacity="0.21"/>
<path d="M35.3154 30.5082C36.3023 27.8787 33.7746 24.8106 31.4271 24.7463C29.8739 24.7044 28.6912 25.1343 27.8162 26.0596C27.3153 26.5995 26.9609 27.258 26.7866 27.9729C26.6123 28.6878 26.6238 29.4355 26.82 30.1451C28.0595 34.4629 34.0544 33.8734 35.3154 30.5082ZM31.3902 26.3254C32.6237 26.3572 34.4501 28.3172 33.8353 29.9549C33.3785 31.1769 31.5911 31.9179 30.2412 31.5646C27.4095 30.8226 27.4178 26.2157 31.3902 26.3254Z" fill="#FFFFFF" fill-opacity="0.21"/>
<path d="M52.886 38.3103L41.4839 35.9927C41.3819 35.9727 41.277 35.9728 41.1752 35.9932C41.0733 36.0136 40.9765 36.0537 40.8902 36.1114C40.804 36.1691 40.73 36.2432 40.6725 36.3295C40.615 36.4157 40.5751 36.5124 40.5551 36.6141C40.5351 36.7157 40.5354 36.8204 40.5559 36.922C40.5764 37.0236 40.6168 37.1202 40.6748 37.2062C40.7328 37.2923 40.8071 37.3662 40.8937 37.4236C40.9802 37.481 41.0773 37.5209 41.1792 37.541L52.5683 39.8571L52.5772 39.8588C52.7799 39.8914 52.9873 39.8442 53.1557 39.7272C53.3241 39.6103 53.4403 39.4326 53.4798 39.2318C53.5193 39.0309 53.4791 38.8225 53.3676 38.6505C53.2561 38.4785 53.082 38.3562 52.8821 38.3096L52.886 38.3103Z" fill="#FFFFFF" fill-opacity="0.21"/>
<path d="M47.6567 41.3345C44.5529 40.5844 44.6175 40.6741 41.5066 39.9236C41.3027 39.8792 41.0897 39.915 40.9118 40.0235C40.734 40.132 40.6051 40.3048 40.552 40.5059C40.5276 40.6066 40.5233 40.7112 40.5394 40.8136C40.5556 40.916 40.5918 41.0142 40.6461 41.1027C40.7003 41.1912 40.7715 41.2681 40.8556 41.3291C40.9397 41.3901 41.035 41.434 41.1361 41.4583C44.2421 42.2078 44.1814 42.1189 47.2864 42.8683C47.388 42.8943 47.4938 42.9 47.5976 42.8849C47.7013 42.8699 47.8011 42.8344 47.8909 42.7806C47.9808 42.7267 48.059 42.6556 48.121 42.5713C48.183 42.487 48.2276 42.3913 48.2521 42.2896C48.2767 42.188 48.2807 42.0824 48.264 41.9791C48.2472 41.8759 48.2101 41.7769 48.1547 41.6881C48.0993 41.5992 48.0267 41.5222 47.9413 41.4615C47.8558 41.4008 47.7591 41.3576 47.6567 41.3345Z" fill="#FFFFFF" fill-opacity="0.21"/>
</svg>
