<svg width="100" height="101" viewBox="0 0 100 101" fill="none" xmlns="http://www.w3.org/2000/svg">
<g clip-path="url(#clip0_74_531)">
<path d="M20.4489 34.5298C26.9773 34.5312 33.1788 35.3962 37.3101 41.3639C37.915 42.258 38.7313 42.2432 39.6361 42.1566C41.7721 41.9298 43.9175 41.7019 46.0603 41.5845C49.8896 41.4029 52.3885 43.4615 52.6921 46.908C52.9735 50.1461 50.7751 52.5934 47.0927 53.0707C44.8762 53.3541 42.6589 53.5848 40.4328 53.7782C39.1769 53.9116 38.6707 54.4445 38.6658 55.7579C38.6704 61.4165 38.6323 61.4205 44.3928 61.6663C45.5088 61.7107 46.6213 61.7219 47.7351 61.7905C51.6117 62.0544 53.507 63.7745 53.8546 67.6812C54.5122 74.9586 55.1051 82.2317 55.6335 89.5005C55.9382 93.728 53.8444 96.0731 49.5978 96.4475C47.3717 96.6409 45.1721 96.6301 42.9218 97.0033C36.0959 98.1404 29.1469 98.6629 22.2643 99.3125C19.7639 99.5494 18.1264 98.2187 17.8138 95.6836C17.1404 90.2494 15.8182 84.7309 16.2885 79.3765C16.7286 74.4614 14.0951 70.2752 14.524 65.5721C14.6091 64.6526 14.0361 63.9229 13.2251 63.4436C12.9481 63.2814 12.7061 63.0866 12.4078 62.9506C3.64825 58.6102 2.6895 52.4828 7.76355 44.8617C8.73002 43.4078 9.5149 41.8294 10.5129 40.4009C12.9103 36.9741 16.049 34.7288 20.4489 34.5298ZM32.0742 73.277C35.0854 72.9571 38.0967 72.6373 41.1127 72.3169C43.3865 72.0754 44.487 72.9696 44.6855 75.2916C45.1141 80.2774 45.7424 85.2419 46.2471 90.2196C46.4484 92.1149 47.2677 93.1252 49.3486 92.9234C51.3037 92.7157 52.2945 91.7623 52.1425 89.833C51.5692 82.4732 50.9674 75.1163 50.337 67.7625C50.208 66.1854 49.3587 65.346 47.7034 65.2966C44.7588 65.2021 41.8151 65.026 38.8743 64.9215C36.0686 64.8218 35.4472 64.3607 35.3428 61.6118C35.1156 56.619 34.8044 51.6064 34.8819 46.6292C34.9307 43.3752 33.4591 41.3417 30.8071 39.9703C27.6622 38.3841 24.131 37.7145 20.6195 38.0384C19.2591 38.0972 17.9321 38.4782 16.7485 39.1497C15.5649 39.8213 14.5588 40.764 13.8136 41.8999C12.0665 44.4595 10.4826 47.126 9.07148 49.8834C7.38138 53.2207 8.2382 56.0334 11.3644 58.1547C13.0101 59.2735 14.7172 60.2999 16.4777 61.2294C18.0481 62.064 19.9265 64.0783 21.4188 61.6868C22.8296 59.4334 20.5234 58.375 18.9429 57.3545C13.7782 54.0219 13.7626 53.875 16.9578 48.7199C17.5897 47.6945 18.3236 46.7684 19.614 47.4123C21.1357 48.1516 20.7188 49.48 19.9756 50.455C18.3883 52.5403 19.2665 53.6976 21.2133 54.6792C21.8423 55.0233 22.4387 55.4234 22.9952 55.8747C25.1328 57.5212 25.9478 59.7586 25.2282 62.1782C24.4856 64.653 22.6566 66.0931 20.1693 66.2279C18.3711 66.3279 18.2208 67.0865 18.4586 68.4652C18.5764 69.1667 18.6096 69.8867 18.6846 70.5927C19.1005 73.3757 20.415 74.4292 23.2691 74.1691C26.1932 73.9352 29.12 73.5908 32.0742 73.277ZM30.4187 77.2574L30.4006 77.0869C27.5464 77.39 24.6997 77.7643 21.8354 77.9727C20.2452 78.0841 19.5021 78.6518 19.6803 80.3291C20.1912 84.8222 20.6841 89.3268 21.1137 93.8237C21.2757 95.3494 21.9433 95.8822 23.4503 95.7126C29.2309 95.0602 35.0155 94.4458 40.8041 93.8693C42.4168 93.698 43.0103 93.036 42.8071 91.3948C42.2795 87.0617 41.809 82.7224 41.4241 78.3741C41.2641 76.5511 40.373 76.133 38.7269 76.351C35.9515 76.7177 33.1731 76.9649 30.3997 77.2595L30.4187 77.2574ZM43.6514 49.8856C44.6789 49.7765 45.7143 49.6953 46.7388 49.5577C48.1276 49.3622 49.2525 48.8115 49.1006 47.1553C48.9488 45.4992 47.7635 45.074 46.3754 45.14C44.4605 45.2284 42.5672 45.5205 40.6528 45.6137C38.7384 45.7068 38.303 46.7258 38.4143 48.4533C38.536 50.3236 39.618 50.4099 41.0343 50.2019C41.8835 50.0447 42.7619 49.9801 43.6324 49.8876L43.6514 49.8856Z" fill="white" fill-opacity="0.29"/>
<path d="M67.9008 53.0406L91.2105 50.5647C91.8479 50.497 92.4806 50.4298 93.1133 50.3626C94.3917 50.2603 95.6966 50.3613 95.8161 51.9395C95.9243 53.3655 94.7396 53.7165 93.5456 53.8434C91.167 54.096 88.7996 54.4529 86.41 54.6013C84.4495 54.7137 83.6957 55.4982 84.0864 57.4548C84.4215 59.1155 84.3458 60.6664 82.2881 61.2683C81.285 61.5618 81.2897 62.3759 81.3778 63.2051C82.0149 69.2037 82.6521 75.2023 83.2903 81.2104C83.4277 82.5039 84.0386 83.0476 85.337 82.8618C85.9697 82.7946 86.6024 82.7274 87.2399 82.6596C90.7178 82.3861 92.2436 83.6615 92.6041 87.1451C92.9599 90.4951 91.7731 91.958 88.3019 92.3411C81.9615 93.0369 75.6187 93.7106 69.2736 94.3623C66.0816 94.7013 64.3529 93.3276 63.9572 90.3269C63.5351 87.123 65.0389 85.1568 68.2734 84.6742C71.963 84.129 71.9678 84.1285 71.5737 80.4184C71.0372 75.3675 70.5007 70.3165 69.9632 65.256C69.8208 63.9151 69.6078 62.8165 67.9561 62.484C66.3044 62.1515 66.3191 60.6597 66.3025 59.4157C66.2805 57.2617 65.2967 56.7864 63.269 57.0354C56.9436 57.8127 50.5959 58.4246 44.2442 59.0897C43.4496 59.1966 42.646 59.2209 41.8465 59.1623C41.4395 59.1493 41.0535 58.9797 40.7696 58.6891C40.4858 58.3984 40.3262 58.0094 40.3243 57.6037C40.3028 57.2401 40.4104 56.8803 40.6281 56.5874C40.8459 56.2945 41.16 56.0871 41.5156 56.0014C42.2888 55.7936 43.0794 55.6567 43.8775 55.5924C51.8849 54.7386 59.8927 53.8881 67.9008 53.0406ZM78.801 72.5974C78.491 69.6786 78.1434 66.7686 77.8719 63.8506C77.7372 62.3555 77.0831 61.7685 75.5471 61.9365C74.011 62.1044 73.4676 62.7851 73.6361 64.2813C74.284 70.1095 74.9034 75.9407 75.4943 81.7749C75.6528 83.2675 76.3134 83.825 77.8409 83.6676C79.3684 83.5101 79.9192 82.8527 79.7301 81.3442C79.3772 78.43 79.1105 75.5114 78.801 72.5974ZM78.2028 87.1654L69.1643 88.1255C68.2462 88.223 67.3316 88.3537 67.5198 89.6274C67.6917 90.7927 68.5634 90.8918 69.5005 90.7923C75.4374 90.1617 81.3742 89.5311 87.311 88.9005C88.2625 88.7994 89.0921 88.5484 88.9485 87.3322C88.8049 86.1159 87.8602 86.1444 86.9754 86.2384C84.0583 86.5387 81.1427 86.8532 78.2028 87.1654ZM75.2412 58.4231C76.5827 58.2806 77.9242 58.1381 79.2657 57.9956C79.4263 57.9987 79.5858 57.9671 79.733 57.9029C79.8802 57.8387 80.0117 57.7434 80.1184 57.6236C80.225 57.5038 80.3044 57.3624 80.3508 57.2092C80.3973 57.0559 80.4098 56.8945 80.3875 56.736C80.3393 55.8738 79.8891 55.3946 79.0127 55.4781C76.3267 55.7346 73.6437 56.0196 70.959 56.3335C70.1503 56.4194 69.6315 56.8339 69.7281 57.7437C69.8247 58.6534 70.3857 58.9532 71.2145 58.8747C72.5545 58.718 73.895 58.5661 75.2365 58.4236L75.2412 58.4231Z" fill="white" fill-opacity="0.29"/>
<path d="M42.9035 18.6128C43.0866 20.3375 43.3898 22.0591 43.1724 23.8168C42.474 29.4254 38.6492 33.3631 33.3518 33.8539C28.1775 34.3269 23.4712 31.0078 21.9505 25.6588C21.0575 22.6937 20.6815 19.5975 20.8387 16.505C21.1862 10.718 24.9337 6.822 30.8238 6.34011C36.8117 5.82866 41.3149 9.09266 42.4753 14.8536C42.7346 16.0719 42.7696 17.3524 42.9035 18.6128ZM39.4774 18.5598C39.3272 17.2563 39.0919 15.9639 38.773 14.691C37.6996 11.0627 35.0419 9.4571 31.044 9.86259C26.9196 10.3007 24.7947 12.4431 24.3959 16.3427C24.0932 19.3362 24.6381 22.2012 25.4289 25.0258C25.8459 26.6141 26.7993 28.0105 28.1289 28.9802C29.4585 29.9498 31.0831 30.4336 32.7295 30.3502C36.1484 30.2458 38.6734 27.9747 39.478 24.3625C39.9067 22.6015 39.5983 20.8757 39.4774 18.5598Z" fill="white" fill-opacity="0.29"/>
<path d="M71.2918 50.5003C68.1188 50.8374 64.9458 51.1744 61.7776 51.5109C60.5075 51.6458 58.9344 51.9183 58.7192 50.1635C58.5178 48.2682 60.1661 48.1602 61.5119 48.0124C66.8986 47.4115 72.2856 46.7674 77.689 46.3229C79.7586 46.151 80.5861 45.2916 80.8608 43.3026C81.5853 38.0314 82.4666 32.7867 83.3084 27.5319C83.4332 26.6701 83.6395 25.8219 83.9245 24.9987C84.0327 24.6496 84.2672 24.3528 84.5825 24.1662C84.8979 23.9795 85.2715 23.9161 85.6309 23.9885C85.9948 24.019 86.335 24.1806 86.5878 24.4431C86.8406 24.7055 86.9886 25.0508 87.0043 25.4143C87.055 26.0455 87.0288 26.6806 86.9261 27.3057C85.9297 33.6408 84.8572 39.9839 83.9477 46.3673C83.6418 48.4698 82.6928 49.4091 80.5674 49.5534C77.4669 49.7582 74.3839 50.1719 71.2918 50.5003Z" fill="white" fill-opacity="0.29"/>
</g>
<defs>
<clipPath id="clip0_74_531">
<rect width="90.7974" height="91.7053" fill="white" transform="translate(0 9.59033) rotate(-6.06316)"/>
</clipPath>
</defs>
</svg>
