<svg width="32" height="32" viewBox="0 0 32 32" fill="none" xmlns="http://www.w3.org/2000/svg">
<path d="M25.4504 6.606C25.4407 6.59558 25.4378 6.58174 25.4276 6.57157C25.4174 6.5614 25.4033 6.5583 25.3928 6.54846C22.8989 4.06253 19.5212 2.66663 15.9998 2.66663C12.4785 2.66663 9.10081 4.06253 6.60686 6.54846C6.59636 6.5583 6.58236 6.56132 6.57211 6.57157C6.56186 6.58182 6.559 6.59557 6.54924 6.606C4.69092 8.47323 3.42737 10.8491 2.91806 13.4338C2.40876 16.0184 2.67652 18.6961 3.68756 21.1287C4.69859 23.5613 6.40759 25.6399 8.59887 27.1022C10.7901 28.5645 13.3655 29.3449 15.9998 29.3449C18.6342 29.3449 21.2095 28.5645 23.4008 27.1022C25.5921 25.6399 27.3011 23.5613 28.3121 21.1287C29.3232 18.6961 29.5909 16.0184 29.0816 13.4338C28.5723 10.8491 27.3088 8.47323 25.4504 6.606V6.606ZM15.9998 26.6666C14.4028 26.6661 12.8264 26.3063 11.3873 25.6139C9.94826 24.9215 8.68341 23.9142 7.68644 22.6666H13.0401C13.4109 23.0858 13.8665 23.4214 14.3767 23.6512C14.8869 23.8811 15.4402 24 15.9998 24C16.5594 24 17.1126 23.8811 17.6228 23.6512C18.1331 23.4214 18.5886 23.0858 18.9594 22.6666H24.3132C23.3162 23.9142 22.0513 24.9215 20.6123 25.6139C19.1732 26.3063 17.5968 26.6661 15.9998 26.6666V26.6666ZM14.6664 20C14.6664 19.7362 14.7446 19.4785 14.8912 19.2592C15.0377 19.0399 15.2459 18.869 15.4895 18.7681C15.7332 18.6672 16.0013 18.6408 16.2599 18.6922C16.5185 18.7437 16.7561 18.8707 16.9426 19.0571C17.1291 19.2436 17.256 19.4812 17.3075 19.7398C17.3589 19.9985 17.3325 20.2666 17.2316 20.5102C17.1307 20.7538 16.9598 20.9621 16.7405 21.1086C16.5213 21.2551 16.2635 21.3333 15.9998 21.3333C15.6463 21.3329 15.3073 21.1923 15.0574 20.9424C14.8074 20.6924 14.6668 20.3535 14.6664 20V20ZM25.8801 20.0027L25.8663 20H19.9998C19.9972 19.1754 19.7396 18.3719 19.2621 17.6997C18.7846 17.0275 18.1108 16.5196 17.3331 16.2457V12C17.3331 11.6463 17.1926 11.3072 16.9426 11.0571C16.6925 10.8071 16.3534 10.6666 15.9998 10.6666C15.6462 10.6666 15.307 10.8071 15.057 11.0571C14.8069 11.3072 14.6664 11.6463 14.6664 12V16.2457C13.8888 16.5196 13.2149 17.0275 12.7375 17.6997C12.26 18.3719 12.0023 19.1754 11.9998 20H6.13324L6.11948 20.0027C5.77268 19.147 5.53944 18.2496 5.42572 17.3333H6.66644C7.02007 17.3333 7.3592 17.1928 7.60925 16.9428C7.8593 16.6927 7.99978 16.3536 7.99978 16C7.99978 15.6463 7.8593 15.3072 7.60925 15.0571C7.3592 14.8071 7.02007 14.6666 6.66644 14.6666H5.42572C5.66397 12.7714 6.40985 10.9757 7.5845 9.46944L8.45746 10.3424C8.58126 10.4662 8.72823 10.5644 8.88998 10.6314C9.05173 10.6984 9.22509 10.7329 9.40017 10.7329C9.57525 10.7329 9.74861 10.6984 9.91036 10.6314C10.0721 10.5644 10.2191 10.4662 10.3429 10.3424C10.4667 10.2186 10.5649 10.0716 10.6319 9.90988C10.6989 9.74813 10.7334 9.57477 10.7334 9.39969C10.7334 9.22462 10.6989 9.05125 10.6319 8.8895C10.5649 8.72775 10.4667 8.58078 10.3429 8.45699L9.46999 7.5841C10.9762 6.40984 12.7715 5.66418 14.6664 5.4259V6.66662C14.6664 7.02025 14.8069 7.35939 15.057 7.60943C15.307 7.85948 15.6462 7.99996 15.9998 7.99996C16.3534 7.99996 16.6925 7.85948 16.9426 7.60943C17.1926 7.35939 17.3331 7.02025 17.3331 6.66662V5.4259C19.228 5.66418 21.0234 6.40984 22.5296 7.5841L21.6567 8.45699C21.4067 8.70701 21.2662 9.04611 21.2662 9.39969C21.2662 9.75328 21.4067 10.0924 21.6567 10.3424C21.9067 10.5924 22.2458 10.7329 22.5994 10.7329C22.953 10.7329 23.2921 10.5924 23.5421 10.3424L24.4151 9.46944C25.5897 10.9757 26.3356 12.7714 26.5738 14.6666H25.3331C24.9795 14.6666 24.6403 14.8071 24.3903 15.0571C24.1403 15.3072 23.9998 15.6463 23.9998 16C23.9998 16.3536 24.1403 16.6927 24.3903 16.9428C24.6403 17.1928 24.9795 17.3333 25.3331 17.3333H26.5738C26.4601 18.2496 26.2269 19.147 25.8801 20.0027V20.0027Z" fill="#fff"/>
</svg>
