<svg width="17" height="17" viewBox="0 0 24 24" fill="none" xmlns="http://www.w3.org/2000/svg">
<g clip-path="url(#clip0_1_6944)">
<path d="M13 19H5C4.46957 19 3.96086 18.7893 3.58579 18.4142C3.21071 18.0391 3 17.5304 3 17V7C3 6.46957 3.21071 5.96086 3.58579 5.58579C3.96086 5.21071 4.46957 5 5 5H19C19.5304 5 20.0391 5.21071 20.4142 5.58579C20.7893 5.96086 21 6.46957 21 7V13" stroke="#1C4481" stroke-width="2" stroke-linecap="round" stroke-linejoin="round"/>
<path d="M3 7L12 13L21 7" stroke="#1C4481" stroke-width="2" stroke-linecap="round" stroke-linejoin="round"/>
<path d="M16 22L21 17" stroke="#1C4481" stroke-width="2" stroke-linecap="round" stroke-linejoin="round"/>
<path d="M21 21.5V17H16.5" stroke="#1C4481" stroke-width="2" stroke-linecap="round" stroke-linejoin="round"/>
</g>
<defs>
<clipPath id="clip0_1_6944">
<rect width="24" height="24" fill="white"/>
</clipPath>
</defs>
</svg>
