<svg width="17" height="17" viewBox="0 0 20 24" fill="none" xmlns="http://www.w3.org/2000/svg">
<path d="M9.24045 14.9549V14.8531C8.46244 14.4972 7.91098 13.7594 7.79093 12.9145C7.4629 12.7956 7.23162 12.4787 7.23162 12.1199C7.23162 11.811 7.39846 11.5345 7.6567 11.387C7.62983 11.3029 7.60777 11.218 7.59077 11.1333C7.45338 10.452 7.60991 9.75562 8.03146 9.17249C8.44622 8.5988 9.06961 8.20321 9.78686 8.05855C9.97976 8.0197 10.1764 8 10.3714 8C10.9866 8 11.5867 8.19835 12.0614 8.55856C12.5503 8.92945 12.8845 9.45643 13.0027 10.0424C13.0923 10.4867 13.0557 10.945 12.8973 11.375C13.1658 11.5193 13.3435 11.8029 13.3435 12.12C13.3435 12.4835 13.1087 12.8014 12.7759 12.9177C12.6526 13.7827 12.0832 14.5275 11.2796 14.8746V14.9549C12.9487 15.333 14.0996 16.5815 14.0996 18.0404V18.4301H12.6469V18.4294H12.4856V18.4301H6.42038V18.0404C6.42038 16.5814 7.5713 15.333 9.24045 14.9549ZM10.3714 8.77932C10.2283 8.77932 10.0834 8.79387 9.9408 8.82249C9.41645 8.92833 8.96261 9.21473 8.66307 9.62915C8.38371 10.0154 8.27118 10.4697 8.3431 10.9156C8.72655 10.7366 9.23061 10.5474 9.76082 10.4748C10.7574 10.3385 10.7734 10.2922 10.8328 10.1199L11.0231 9.5693L11.4607 9.95661C11.5073 9.99755 11.86 10.3076 12.2669 10.6448C12.2782 10.4952 12.2688 10.3452 12.2388 10.1963C12.0732 9.37524 11.2879 8.77932 10.3714 8.77932ZM12.0225 11.4519C11.7492 11.2308 11.4793 11.0025 11.2839 10.8349C11.0131 11.0791 10.5909 11.1478 9.86652 11.2469C9.37514 11.3141 8.89326 11.5109 8.54468 11.6837V12.5619C8.54468 13.5208 9.32469 14.3008 10.2835 14.3008C11.2425 14.3008 12.0225 13.5208 12.0225 12.5619V11.4519H12.0225ZM10.5002 15.0706C10.3391 15.0848 10.179 15.0831 10.0198 15.0663V15.3069L10.2606 15.4404L10.5002 15.3073V15.0706ZM13.2805 17.6503C13.1016 16.7776 12.3353 16.0522 11.2796 15.7584V15.7659L10.2613 16.3316L9.24044 15.7662V15.7584C8.18459 16.0522 7.41818 16.7778 7.23946 17.6507L12.4888 17.65V17.6503L13.2805 17.6503Z" fill="#1C4481" stroke="#1C4481" stroke-width="0.5"/>
<path d="M6.42076 20.1296H14.1C14.3322 20.1296 14.5205 19.9413 14.5205 19.7091C14.5205 19.4768 14.3322 19.2886 14.1 19.2886H6.42077C6.18853 19.2886 6.00027 19.4768 6.00027 19.7091C6.00027 19.9413 6.18852 20.1296 6.42076 20.1296Z" fill="#1C4481"/>
<path d="M2.43002 3.62046H8.31867V2.56476C8.31867 2.04469 8.74178 1.62158 9.26185 1.62158H10.7387C11.2587 1.62158 11.6818 2.04469 11.6818 2.56476V3.62045H17.5705C18.0906 3.62045 18.5137 4.04356 18.5137 4.56363V20.4355C18.5137 20.9555 18.0906 21.3787 17.5705 21.3787H2.43C1.90995 21.3787 1.48684 20.9555 1.48684 20.4355V4.56364C1.48685 4.04356 1.90996 3.62046 2.43002 3.62046ZM10.9869 2.56476C10.9869 2.4279 10.8755 2.31655 10.7387 2.31655H9.26185C9.12501 2.31655 9.01365 2.4279 9.01365 2.56476V3.62045V4.31542V5.74177C9.01365 5.87862 9.12499 5.98997 9.26185 5.98997H10.7387C10.8755 5.98997 10.9869 5.87863 10.9869 5.74177V4.31543V3.62046V2.56476ZM2.18182 20.4355C2.18182 20.5723 2.29316 20.6837 2.43002 20.6837H17.5705C17.7073 20.6837 17.8187 20.5724 17.8187 20.4355V4.56364C17.8187 4.42678 17.7073 4.31543 17.5705 4.31543H11.6818V5.74178C11.6818 6.26185 11.2587 6.68496 10.7387 6.68496H9.26184C8.74177 6.68496 8.31866 6.26185 8.31866 5.74178V4.31543H2.43C2.29316 4.31543 2.1818 4.42678 2.1818 4.56364L2.18182 20.4355Z" fill="#1C4481" stroke="#1C4481"/>
</svg>
