<svg width="59" height="59" viewBox="0 0 59 59" fill="none" xmlns="http://www.w3.org/2000/svg">
<circle cx="29.5" cy="29.5" r="29.5" fill="#84A7F0"/>
<path d="M9.31585 36.9142C11.4561 36.8546 13.6038 36.8677 15.7411 36.8807C16.6426 36.8861 17.5423 36.8916 18.4388 36.8916H19.6544L19.6523 36.8937C20.2036 36.894 20.7549 36.8945 21.306 36.895C23.4081 36.8969 25.5089 36.8987 27.6105 36.8916H27.6107C28.6616 36.8885 29.5183 36.548 30.1119 35.9859C30.7034 35.4258 31.069 34.6129 31.0822 33.5937L31.0822 33.5935C31.1291 30.1178 31.136 26.6399 31.0805 23.1664L31.5804 23.1584L31.0805 23.1664C31.063 22.0737 30.7165 21.2606 30.1482 20.7127C29.5771 20.1621 28.7272 19.8267 27.6055 19.7997L9.31585 36.9142ZM9.31585 36.9142C7.5938 36.9612 5.83086 35.7668 5.79885 33.5089L9.31585 36.9142ZM5.79016 22.9512C5.80361 21.9103 6.12513 21.1574 6.6594 20.6537C7.19893 20.145 8.01775 19.8317 9.1353 19.7996L5.79885 33.5087C5.75019 29.9903 5.74499 26.4706 5.79016 22.9512ZM5.79016 22.9512L5.2902 22.9447L5.79016 22.9512ZM12.3517 19.8045C11.2874 19.757 10.2141 19.7687 9.13535 19.7996L12.3517 19.8045ZM12.3517 19.8045C12.7215 19.8214 13.1385 19.7768 13.4254 19.4691C13.7052 19.1689 13.7278 18.7575 13.7066 18.4178C13.6675 17.7814 13.6793 17.1445 13.6916 16.4849C13.6941 16.3485 13.6967 16.2112 13.6988 16.0727L13.6988 16.0724C13.7056 15.609 13.8148 15.3353 13.965 15.1696C14.1125 15.0069 14.3693 14.8719 14.8386 14.835C16.0801 14.7372 17.3034 14.753 18.5527 14.7691C19.2232 14.7778 19.9011 14.7866 20.5934 14.7779L12.3517 19.8045ZM16.245 26.6534C16.2572 25.8968 16.5964 25.5504 17.355 25.5246L16.245 26.6534ZM16.245 26.6534C16.2364 27.1981 16.2389 27.7429 16.2414 28.2876M16.245 26.6534L16.2414 28.2876M19.5808 25.0267C20.013 25.0433 20.4213 25.1591 20.7201 25.4649C21.0173 25.7692 21.1248 26.1787 21.1392 26.6037C21.1511 26.9559 21.1487 27.3151 21.1459 27.663H21.1466L21.1447 28.1649C21.1441 28.3182 21.1452 28.4771 21.1462 28.639C21.1482 28.9529 21.1503 29.2776 21.141 29.5926C21.141 29.5926 21.141 29.5927 21.141 29.5927L20.6412 29.5779L19.5808 25.0267ZM19.5808 25.0267C18.832 24.9968 18.0819 25.0004 17.3385 25.0248L17.3379 25.0249C16.8947 25.04 16.4712 25.1513 16.1634 25.4646C15.8557 25.7779 15.7522 26.2031 15.7451 26.6453L15.7451 26.6454C15.7365 27.1858 15.739 27.7473 15.7414 28.3026C15.7434 28.7458 15.7453 29.1849 15.7416 29.6062L15.7416 29.6066C15.7383 30.0192 15.8461 30.4108 16.1116 30.7111C16.3796 31.0142 16.7539 31.163 17.1609 31.1916L19.5808 25.0267ZM20.6837 14.7768C20.6538 14.7772 20.6238 14.7775 20.5936 14.7779L20.6837 14.7768ZM20.6837 14.7768C21.2245 14.7699 21.7119 14.7637 22.1926 14.8435M20.6837 14.7768L22.1926 14.8435M22.1926 14.8435C22.5577 14.9044 22.7883 15.0342 22.93 15.1919M22.1926 14.8435L22.93 15.1919M22.93 15.1919C23.0694 15.347 23.1684 15.5797 23.1753 15.9369M22.93 15.1919L23.1753 15.9369M23.1753 15.9369C23.1927 16.8363 23.2029 17.7304 23.1755 18.6182M23.1753 15.9369L23.1755 18.6182M23.1755 18.6182C23.1652 18.9255 23.2145 19.2817 23.4906 19.534C23.7531 19.774 24.1008 19.8054 24.3745 19.7997C25.4525 19.7774 26.5305 19.774 27.6053 19.7997L23.1755 18.6182ZM16.2414 28.2876C16.2434 28.7286 16.2454 29.1696 16.2416 29.6106L16.2414 28.2876ZM21.5568 19.7876L21.5577 19.7877C21.8396 19.7928 22.1769 19.748 22.4272 19.5011C22.6804 19.2513 22.7255 18.9131 22.7172 18.6293C22.6966 17.889 22.7034 17.145 22.7121 16.3914C22.7154 16.1265 22.6616 15.8189 22.4293 15.5867C22.1979 15.3553 21.8905 15.3003 21.6255 15.3014L21.6276 15.8014L21.6264 15.3014C19.5013 15.3066 17.3745 15.3066 15.2494 15.3014H15.2482C14.9806 15.3014 14.6716 15.3585 14.442 15.595C14.2139 15.8298 14.1656 16.1374 14.1689 16.3955L14.1689 16.396C14.1794 17.1481 14.1879 17.8909 14.1656 18.6316L14.1656 18.632C14.1572 18.9183 14.2032 19.2585 14.4601 19.5077C14.7122 19.7522 15.05 19.7937 15.3287 19.7876L15.3178 19.2877L15.3277 19.7876C16.0657 19.773 16.7999 19.7758 17.5413 19.7786C17.8402 19.7797 18.1403 19.7808 18.4423 19.7808C18.7442 19.7808 19.0444 19.7797 19.3434 19.7786C20.0853 19.7758 20.82 19.773 21.5568 19.7876Z" fill="#535F70" stroke="black"/>
<mask id="path-3-inside-1_0_2018" fill="white">
<path d="M9.21842 37.6743C8.12242 37.6743 7.06295 37.259 6.29052 36.5266C5.48853 35.7649 5.05534 34.724 5.03969 33.5193C4.98924 29.8831 4.9875 26.3243 5.03099 22.9414C5.0623 20.5373 6.55148 19.1155 9.11404 19.0414C10.01 19.0156 11.1912 18.9932 12.3864 19.0466C12.6334 19.0586 12.7935 19.0276 12.8648 18.957C12.9361 18.8863 12.964 18.7209 12.9483 18.4658C12.9083 17.7989 12.9205 17.1233 12.9327 16.4702L12.9396 16.0617C12.9588 14.8416 13.5781 14.1747 14.7802 14.0799C16.0502 13.9799 17.3393 13.9954 18.5849 14.0127C19.2408 14.0213 19.9193 14.0299 20.5856 14.0213H20.676C21.2119 14.0127 21.7651 14.0058 22.3183 14.0971C23.3412 14.2677 23.9153 14.9174 23.9362 15.9239C23.9536 16.7959 23.9658 17.7282 23.9345 18.645C23.9293 18.8122 23.9519 18.9242 23.9988 18.9725C24.0476 19.0225 24.1728 19.0466 24.3572 19.0431C25.5472 19.019 26.6153 19.019 27.6226 19.0431C30.2235 19.1052 31.8014 20.6424 31.8414 23.1551C31.8936 26.4174 31.8936 29.8365 31.8431 33.6038C31.8118 36.0165 30.1121 37.6433 27.6139 37.6502C25.5106 37.6571 23.3726 37.6554 21.3058 37.6537C20.3507 37.6537 19.3939 37.6537 18.4388 37.6537C17.5341 37.6537 16.6295 37.6485 15.7249 37.6433C13.6303 37.6313 11.4644 37.6175 9.33846 37.6761C9.29845 37.6761 9.25844 37.6761 9.21842 37.6761V37.6743ZM10.8172 19.5309C10.1996 19.5309 9.62029 19.5446 9.1297 19.5584C6.85071 19.6239 5.58073 20.8285 5.5529 22.9483C5.50766 26.326 5.51114 29.8796 5.56159 33.5124C5.57551 34.5757 5.95302 35.4891 6.65238 36.1543C7.35174 36.8196 8.32422 37.1815 9.32281 37.1573C11.4574 37.0987 13.6285 37.1108 15.7266 37.1246C16.7008 37.1315 17.6768 37.1367 18.651 37.1349C19.5365 37.1349 20.4203 37.1349 21.3058 37.1349C23.3726 37.1349 25.5106 37.1367 27.6122 37.1315C29.8024 37.1246 31.2934 35.7028 31.3212 33.5952C31.3717 29.8314 31.3699 26.4191 31.3195 23.1602C31.2847 20.925 29.9329 19.6118 27.6104 19.5567C26.6101 19.5326 25.5506 19.5326 24.3694 19.5567C24.1537 19.5601 23.837 19.5429 23.6283 19.3327C23.4213 19.1259 23.4073 18.8294 23.4143 18.6244C23.4439 17.7196 23.4334 16.7959 23.4143 15.9308C23.3986 15.169 23.0124 14.7347 22.2313 14.6038C21.7251 14.5193 21.2171 14.5262 20.683 14.5331H20.5908C19.9193 14.5435 19.2356 14.5331 18.5762 14.5262C17.3428 14.5107 16.0658 14.4952 14.8202 14.5917C13.8808 14.6658 13.4737 15.107 13.4598 16.0669L13.4528 16.4771C13.4407 17.1199 13.4285 17.7851 13.4668 18.4313C13.4841 18.7174 13.4737 19.0759 13.2336 19.3172C12.9918 19.5601 12.6195 19.5722 12.3603 19.5619C11.8349 19.5377 11.3113 19.5291 10.8137 19.5291L10.8172 19.5309ZM18.4684 30.9981C18.0387 30.9981 17.6072 30.9826 17.1758 30.9515C16.419 30.8964 15.9719 30.3949 15.9789 29.609C15.9823 29.1679 15.9806 28.7284 15.9789 28.2872C15.9771 27.7513 15.9736 27.1963 15.9823 26.6483C15.9963 25.747 16.4434 25.2955 17.3445 25.2645C18.1326 25.2386 18.8598 25.2386 19.5696 25.2662C20.422 25.2989 20.8691 25.7522 20.8987 26.6104C20.9109 26.9706 20.9074 27.3359 20.9057 27.6875C20.9057 27.846 20.9022 28.0046 20.9022 28.1614C20.9022 28.3182 20.9022 28.4751 20.9022 28.6319C20.9039 28.9438 20.9057 29.2644 20.897 29.5832C20.8726 30.45 20.4725 30.8981 19.6722 30.9533C19.2756 30.9808 18.872 30.9946 18.4666 30.9946L18.4684 30.9981ZM18.4562 25.7642C18.103 25.7642 17.7394 25.7711 17.3637 25.7832C16.7478 25.8039 16.5147 26.04 16.506 26.6587C16.4973 27.1998 16.499 27.753 16.5025 28.2872C16.5043 28.7301 16.506 29.173 16.5025 29.6159C16.4973 30.1278 16.7374 30.4052 17.2158 30.438C18.0317 30.4966 18.8476 30.4983 19.6409 30.4431C20.1698 30.4052 20.3629 30.1777 20.3803 29.5728C20.389 29.2626 20.3872 28.9455 20.3855 28.6388C20.3855 28.4802 20.3838 28.3234 20.3855 28.1649C20.3855 28.0046 20.3855 27.846 20.389 27.6858C20.3925 27.3394 20.3959 26.9809 20.3838 26.6311C20.3629 26.0382 20.1385 25.809 19.5557 25.7849C19.1973 25.7711 18.8337 25.7642 18.4614 25.7642H18.4562ZM15.2795 19.5464C15.0794 19.5464 14.8115 19.5171 14.6202 19.3258C14.4671 19.1724 14.3975 18.9484 14.4062 18.6382C14.4288 17.8764 14.4201 17.1113 14.4097 16.3926C14.4062 16.1117 14.474 15.9032 14.6202 15.7567C14.7646 15.6119 14.9681 15.5413 15.2447 15.5413H15.2499C17.3149 15.5464 19.4617 15.5464 21.6294 15.5413H21.6346C21.913 15.5413 22.12 15.6119 22.2661 15.7584C22.4122 15.9049 22.4818 16.11 22.4784 16.3874C22.4679 17.1474 22.461 17.8919 22.4818 18.633C22.4905 18.9432 22.4209 19.1689 22.2661 19.3223C22.1113 19.4774 21.8834 19.5481 21.565 19.5429C20.8291 19.5291 20.0776 19.5326 19.3521 19.5343C19.0494 19.5343 18.7485 19.536 18.4457 19.536H18.437C18.1361 19.536 17.8351 19.536 17.5359 19.5343C16.8104 19.5308 16.0624 19.5291 15.3265 19.5429C15.3126 19.5429 15.2969 19.5429 15.2812 19.5429L15.2795 19.5464ZM15.2465 16.06C15.1577 16.06 15.0429 16.0703 14.9925 16.1221C14.9403 16.1738 14.9316 16.2944 14.9333 16.3857C14.9437 17.1113 14.9524 17.8833 14.9298 18.6537C14.9246 18.8088 14.9472 18.9156 14.9925 18.9621C15.0394 19.0087 15.1525 19.0328 15.316 19.0294C16.0572 19.0138 16.8087 19.0173 17.5376 19.0207C17.8403 19.0207 18.1448 19.0242 18.4457 19.0225C18.7467 19.0225 19.0494 19.0225 19.3504 19.0207C20.0793 19.0173 20.8326 19.0156 21.5755 19.0294C21.7372 19.0328 21.8486 19.0087 21.8956 18.9621C21.9425 18.9156 21.9651 18.807 21.9599 18.6502C21.939 17.8988 21.946 17.1492 21.9547 16.3823C21.9547 16.2927 21.946 16.1755 21.8938 16.1238C21.8416 16.0721 21.7233 16.0652 21.6311 16.06C19.4635 16.0652 17.3167 16.0652 15.2499 16.06H15.2465Z"/>
</mask>
<path d="M9.21842 37.6743C8.12242 37.6743 7.06295 37.259 6.29052 36.5266C5.48853 35.7649 5.05534 34.724 5.03969 33.5193C4.98924 29.8831 4.9875 26.3243 5.03099 22.9414C5.0623 20.5373 6.55148 19.1155 9.11404 19.0414C10.01 19.0156 11.1912 18.9932 12.3864 19.0466C12.6334 19.0586 12.7935 19.0276 12.8648 18.957C12.9361 18.8863 12.964 18.7209 12.9483 18.4658C12.9083 17.7989 12.9205 17.1233 12.9327 16.4702L12.9396 16.0617C12.9588 14.8416 13.5781 14.1747 14.7802 14.0799C16.0502 13.9799 17.3393 13.9954 18.5849 14.0127C19.2408 14.0213 19.9193 14.0299 20.5856 14.0213H20.676C21.2119 14.0127 21.7651 14.0058 22.3183 14.0971C23.3412 14.2677 23.9153 14.9174 23.9362 15.9239C23.9536 16.7959 23.9658 17.7282 23.9345 18.645C23.9293 18.8122 23.9519 18.9242 23.9988 18.9725C24.0476 19.0225 24.1728 19.0466 24.3572 19.0431C25.5472 19.019 26.6153 19.019 27.6226 19.0431C30.2235 19.1052 31.8014 20.6424 31.8414 23.1551C31.8936 26.4174 31.8936 29.8365 31.8431 33.6038C31.8118 36.0165 30.1121 37.6433 27.6139 37.6502C25.5106 37.6571 23.3726 37.6554 21.3058 37.6537C20.3507 37.6537 19.3939 37.6537 18.4388 37.6537C17.5341 37.6537 16.6295 37.6485 15.7249 37.6433C13.6303 37.6313 11.4644 37.6175 9.33846 37.6761C9.29845 37.6761 9.25844 37.6761 9.21842 37.6761V37.6743ZM10.8172 19.5309C10.1996 19.5309 9.62029 19.5446 9.1297 19.5584C6.85071 19.6239 5.58073 20.8285 5.5529 22.9483C5.50766 26.326 5.51114 29.8796 5.56159 33.5124C5.57551 34.5757 5.95302 35.4891 6.65238 36.1543C7.35174 36.8196 8.32422 37.1815 9.32281 37.1573C11.4574 37.0987 13.6285 37.1108 15.7266 37.1246C16.7008 37.1315 17.6768 37.1367 18.651 37.1349C19.5365 37.1349 20.4203 37.1349 21.3058 37.1349C23.3726 37.1349 25.5106 37.1367 27.6122 37.1315C29.8024 37.1246 31.2934 35.7028 31.3212 33.5952C31.3717 29.8314 31.3699 26.4191 31.3195 23.1602C31.2847 20.925 29.9329 19.6118 27.6104 19.5567C26.6101 19.5326 25.5506 19.5326 24.3694 19.5567C24.1537 19.5601 23.837 19.5429 23.6283 19.3327C23.4213 19.1259 23.4073 18.8294 23.4143 18.6244C23.4439 17.7196 23.4334 16.7959 23.4143 15.9308C23.3986 15.169 23.0124 14.7347 22.2313 14.6038C21.7251 14.5193 21.2171 14.5262 20.683 14.5331H20.5908C19.9193 14.5435 19.2356 14.5331 18.5762 14.5262C17.3428 14.5107 16.0658 14.4952 14.8202 14.5917C13.8808 14.6658 13.4737 15.107 13.4598 16.0669L13.4528 16.4771C13.4407 17.1199 13.4285 17.7851 13.4668 18.4313C13.4841 18.7174 13.4737 19.0759 13.2336 19.3172C12.9918 19.5601 12.6195 19.5722 12.3603 19.5619C11.8349 19.5377 11.3113 19.5291 10.8137 19.5291L10.8172 19.5309ZM18.4684 30.9981C18.0387 30.9981 17.6072 30.9826 17.1758 30.9515C16.419 30.8964 15.9719 30.3949 15.9789 29.609C15.9823 29.1679 15.9806 28.7284 15.9789 28.2872C15.9771 27.7513 15.9736 27.1963 15.9823 26.6483C15.9963 25.747 16.4434 25.2955 17.3445 25.2645C18.1326 25.2386 18.8598 25.2386 19.5696 25.2662C20.422 25.2989 20.8691 25.7522 20.8987 26.6104C20.9109 26.9706 20.9074 27.3359 20.9057 27.6875C20.9057 27.846 20.9022 28.0046 20.9022 28.1614C20.9022 28.3182 20.9022 28.4751 20.9022 28.6319C20.9039 28.9438 20.9057 29.2644 20.897 29.5832C20.8726 30.45 20.4725 30.8981 19.6722 30.9533C19.2756 30.9808 18.872 30.9946 18.4666 30.9946L18.4684 30.9981ZM18.4562 25.7642C18.103 25.7642 17.7394 25.7711 17.3637 25.7832C16.7478 25.8039 16.5147 26.04 16.506 26.6587C16.4973 27.1998 16.499 27.753 16.5025 28.2872C16.5043 28.7301 16.506 29.173 16.5025 29.6159C16.4973 30.1278 16.7374 30.4052 17.2158 30.438C18.0317 30.4966 18.8476 30.4983 19.6409 30.4431C20.1698 30.4052 20.3629 30.1777 20.3803 29.5728C20.389 29.2626 20.3872 28.9455 20.3855 28.6388C20.3855 28.4802 20.3838 28.3234 20.3855 28.1649C20.3855 28.0046 20.3855 27.846 20.389 27.6858C20.3925 27.3394 20.3959 26.9809 20.3838 26.6311C20.3629 26.0382 20.1385 25.809 19.5557 25.7849C19.1973 25.7711 18.8337 25.7642 18.4614 25.7642H18.4562ZM15.2795 19.5464C15.0794 19.5464 14.8115 19.5171 14.6202 19.3258C14.4671 19.1724 14.3975 18.9484 14.4062 18.6382C14.4288 17.8764 14.4201 17.1113 14.4097 16.3926C14.4062 16.1117 14.474 15.9032 14.6202 15.7567C14.7646 15.6119 14.9681 15.5413 15.2447 15.5413H15.2499C17.3149 15.5464 19.4617 15.5464 21.6294 15.5413H21.6346C21.913 15.5413 22.12 15.6119 22.2661 15.7584C22.4122 15.9049 22.4818 16.11 22.4784 16.3874C22.4679 17.1474 22.461 17.8919 22.4818 18.633C22.4905 18.9432 22.4209 19.1689 22.2661 19.3223C22.1113 19.4774 21.8834 19.5481 21.565 19.5429C20.8291 19.5291 20.0776 19.5326 19.3521 19.5343C19.0494 19.5343 18.7485 19.536 18.4457 19.536H18.437C18.1361 19.536 17.8351 19.536 17.5359 19.5343C16.8104 19.5308 16.0624 19.5291 15.3265 19.5429C15.3126 19.5429 15.2969 19.5429 15.2812 19.5429L15.2795 19.5464ZM15.2465 16.06C15.1577 16.06 15.0429 16.0703 14.9925 16.1221C14.9403 16.1738 14.9316 16.2944 14.9333 16.3857C14.9437 17.1113 14.9524 17.8833 14.9298 18.6537C14.9246 18.8088 14.9472 18.9156 14.9925 18.9621C15.0394 19.0087 15.1525 19.0328 15.316 19.0294C16.0572 19.0138 16.8087 19.0173 17.5376 19.0207C17.8403 19.0207 18.1448 19.0242 18.4457 19.0225C18.7467 19.0225 19.0494 19.0225 19.3504 19.0207C20.0793 19.0173 20.8326 19.0156 21.5755 19.0294C21.7372 19.0328 21.8486 19.0087 21.8956 18.9621C21.9425 18.9156 21.9651 18.807 21.9599 18.6502C21.939 17.8988 21.946 17.1492 21.9547 16.3823C21.9547 16.2927 21.946 16.1755 21.8938 16.1238C21.8416 16.0721 21.7233 16.0652 21.6311 16.06C19.4635 16.0652 17.3167 16.0652 15.2499 16.06H15.2465Z" fill="#181818" stroke="black" stroke-width="2" mask="url(#path-3-inside-1_0_2018)"/>
<path d="M39.916 34.3703C39.7256 34.4087 39.5315 34.448 39.3425 34.5062L39.342 34.5063C38.3489 34.8142 37.562 35.2805 36.9911 35.9241C36.4193 36.5688 36.0786 37.3753 35.9522 38.3384C35.8881 38.8204 35.8935 39.3241 35.8985 39.7932C35.8986 39.8061 35.8988 39.819 35.8989 39.8319L35.8989 39.8325L35.899 39.8369C35.9006 39.969 35.9023 40.0975 35.9023 40.2275L35.9023 40.228C35.9049 41.6374 36.3192 42.7798 37.1227 43.5701C37.9257 44.3598 39.0849 44.766 40.5143 44.7686H40.5147L39.9662 34.6152M39.916 34.3703C39.9163 34.3702 39.9165 34.3702 39.9168 34.3701L39.9662 34.6152M39.916 34.3703C39.9157 34.3703 39.9155 34.3704 39.9152 34.3705L39.9662 34.6152M39.916 34.3703C39.9322 34.3669 39.9483 34.3636 39.9644 34.3602C40.1121 34.3295 40.2552 34.2998 40.3955 34.2611L40.3967 34.2608C40.5632 34.2158 40.7217 34.1914 40.8775 34.1914C41.3011 34.1914 41.6489 34.3708 41.9926 34.7131L41.993 34.7136C42.4534 35.1745 42.9538 35.606 43.447 36.0311L43.4693 36.0504M39.9662 34.6152C39.9827 34.6118 39.9992 34.6083 40.0157 34.6049C40.1623 34.5745 40.3135 34.5431 40.4619 34.5021C40.6118 34.4616 40.7481 34.4414 40.8775 34.4414C41.2165 34.4414 41.5044 34.5798 41.8161 34.8902C42.2832 35.3579 42.7897 35.7945 43.2807 36.2178L43.3066 36.2402M43.4693 36.0504L43.3066 36.2402M43.4693 36.0504L43.4699 36.0508L43.3066 36.2402M43.4693 36.0504C43.7611 36.3005 44.0628 36.562 44.3529 36.8239C44.353 36.824 44.353 36.824 44.3531 36.8241L44.1856 37.0096C43.8977 36.7498 43.5979 36.4899 43.3066 36.2402M45.9244 35.9885C45.9243 35.9886 45.9242 35.9886 45.9241 35.9887L46.0934 36.1727L45.9247 35.9881C45.9246 35.9883 45.9245 35.9884 45.9244 35.9885ZM47.2877 34.7001C47.2877 34.7002 47.2877 34.7002 47.2877 34.7002L47.4646 34.8767L47.2877 34.7001ZM48.8384 34.2522C48.8382 34.2521 48.838 34.2521 48.8378 34.2521L48.7882 34.4971L48.8391 34.2523C48.8389 34.2523 48.8387 34.2522 48.8384 34.2522ZM52.8089 36.7654C52.8089 36.7653 52.8089 36.7652 52.8088 36.7652L52.5817 36.8696L52.809 36.7656C52.809 36.7655 52.809 36.7655 52.8089 36.7654ZM46.0248 44.772C46.371 44.7734 46.7184 44.7736 47.0647 44.7737L46.0243 44.772C46.0244 44.772 46.0246 44.772 46.0248 44.772ZM40.3391 42.6369L40.339 42.6369C39.5049 42.6321 38.8472 42.3695 38.4103 41.9085C37.9691 41.4415 37.7456 40.764 37.7952 39.9236C37.8092 39.6917 37.8732 39.5564 37.9518 39.4785C38.0206 39.4104 38.1286 39.3585 38.3032 39.3487H38.365H38.379C38.5499 39.3505 38.7093 39.3559 38.8386 39.4187C38.9425 39.4691 39.057 39.5718 39.0949 39.8571C39.1268 40.0991 39.1562 40.3218 39.1932 40.4962C39.2117 40.5838 39.234 40.6683 39.2631 40.742C39.2905 40.8113 39.3335 40.8962 39.4075 40.96C39.4794 41.0223 39.5666 41.0527 39.6382 41.0703C39.7136 41.0888 39.799 41.0993 39.8877 41.1058C40.0622 41.1188 40.2865 41.1188 40.5412 41.1188H40.5505H44.8175C45.4537 41.1188 46.0904 41.1183 46.7271 41.1179H46.7274C47.3643 41.1175 48.0013 41.1171 48.6383 41.1171C49.0183 41.1171 49.35 41.0867 49.5764 40.8843C49.8057 40.6791 49.8632 40.3556 49.8925 39.9893L49.8925 39.989C49.9138 39.7189 49.9859 39.5713 50.0761 39.4874C50.166 39.4037 50.3167 39.3436 50.5836 39.3436H50.6175C50.7888 39.3463 50.8988 39.3821 50.9704 39.4237C51.0409 39.4647 51.0879 39.5195 51.1215 39.5837C51.1949 39.7243 51.2006 39.8998 51.2023 40.0467C51.212 40.9075 50.9826 41.5415 50.558 41.9681C50.1312 42.3967 49.493 42.6337 48.6186 42.6369L48.618 42.6369C48.0891 42.6403 47.5585 42.6403 47.0269 42.6403H44.4786H41.9405C41.4072 42.6403 40.8731 42.6403 40.3391 42.6369ZM47.0269 42.8903C47.5583 42.8903 48.0898 42.8903 48.6196 42.8869L38.2287 42.0803C38.7227 42.6017 39.4518 42.8818 40.3376 42.8869C40.8724 42.8903 41.4073 42.8903 41.9405 42.8903H44.4786H47.0269Z" fill="#9BD8DD" stroke="black" stroke-width="0.5"/>
<path d="M40.8776 34.691C41.0564 34.691 41.3034 34.7332 41.6339 35.0656C42.1159 35.5482 42.6372 35.9953 43.1397 36.429C43.4293 36.6787 43.7291 36.9369 44.0135 37.1951C44.2265 37.3875 44.453 37.4853 44.6864 37.4853C45.0203 37.4853 45.2638 37.2896 45.4171 37.1445C45.6965 36.8795 45.9861 36.6129 46.2672 36.3564C46.7237 35.9363 47.1972 35.5026 47.6452 35.0538C47.8888 34.8108 48.1153 34.7062 48.4083 34.7062C48.5088 34.7062 48.6162 34.718 48.7371 34.7433C49.8205 34.9626 50.9396 35.2883 51.7964 36.181C52.04 36.4358 52.2206 36.6939 52.3483 36.9724C53.0263 38.4455 53.1029 40.0907 52.5783 41.8591C52.1507 43.2968 50.7659 44.2417 49.0488 44.2637C48.5378 44.2704 47.9859 44.2738 47.3147 44.2738C46.8855 44.2738 46.4562 44.2738 46.027 44.2721C45.5977 44.2721 45.1667 44.2704 44.7358 44.2704H44.5927H43.3203H42.0495C41.5385 44.2704 41.0258 44.2704 40.5147 44.2704C39.227 44.2687 38.1777 43.9043 37.4793 43.2158C36.7706 42.5189 36.4112 41.5149 36.4078 40.2308C36.4078 40.0974 36.4061 39.9641 36.4044 39.8291C36.3976 39.3314 36.3925 38.8623 36.4521 38.4067C36.6804 36.6703 37.6751 35.5515 39.491 34.9896C39.6545 34.939 39.83 34.9036 40.0156 34.8648C40.1826 34.831 40.3546 34.7956 40.5284 34.7483C40.6561 34.7129 40.7685 34.696 40.8742 34.696M44.8312 40.6189H42.3118H40.5386C40.1962 40.6189 39.8436 40.6189 39.7346 40.5817C39.6801 40.4737 39.6307 40.0991 39.5898 39.7954C39.4671 38.8606 38.704 38.8521 38.377 38.8488H38.3599C37.9818 38.8488 37.3396 38.9854 37.2851 39.9C37.2289 40.8635 37.4878 41.6786 38.038 42.259C38.5814 42.8328 39.3752 43.1399 40.3308 43.1449C40.8656 43.1483 41.4005 43.1483 41.9354 43.1483C42.3544 43.1483 42.7752 43.1483 43.1942 43.1483C43.6132 43.1483 44.0323 43.1483 44.4513 43.1483H44.4735C44.8976 43.1483 45.3218 43.1483 45.7442 43.1483C46.1684 43.1483 46.5925 43.1483 47.0167 43.1483C47.5498 43.1483 48.0813 43.1483 48.6145 43.1449C49.6024 43.1415 50.3758 42.8648 50.9106 42.3265C51.4455 41.7882 51.7113 41.0205 51.701 40.0451C51.6925 39.2588 51.328 38.8555 50.616 38.8437H50.5768C49.8426 38.8437 49.4406 39.2166 49.3827 39.9523C49.3333 40.5666 49.2771 40.6172 48.6332 40.6172C47.3659 40.6172 46.0985 40.6189 44.8312 40.6189ZM40.8742 34.1898C40.7208 34.1898 40.5607 34.2134 40.3904 34.2607C40.0429 34.3569 39.6801 34.4007 39.3377 34.507C37.4213 35.101 36.2085 36.3278 35.9445 38.3425C35.8627 38.9652 35.8934 39.603 35.8951 40.2324C35.9019 43.0943 37.6087 44.7716 40.513 44.7767C41.0258 44.7767 41.5368 44.7767 42.0495 44.7767C42.8978 44.7767 43.7444 44.7767 44.5927 44.7767C44.6404 44.7767 44.6881 44.7767 44.7358 44.7767C45.5943 44.7767 46.4545 44.7817 47.313 44.7817C47.8939 44.7817 48.4731 44.78 49.0539 44.7716C50.9175 44.7463 52.5613 43.7085 53.0672 42.0042C53.5833 40.2662 53.6003 38.4775 52.8134 36.7648C52.6532 36.4172 52.4352 36.1151 52.1661 35.835C51.2564 34.8867 50.0879 34.502 48.8393 34.2506C48.6877 34.2202 48.5446 34.2033 48.4083 34.2033C47.9842 34.2033 47.6248 34.3569 47.2824 34.7011C46.567 35.4182 45.7987 36.0848 45.0645 36.7817C44.9334 36.9065 44.8141 36.9825 44.6864 36.9825C44.5859 36.9825 44.4803 36.9352 44.3593 36.8255C43.5775 36.1168 42.7445 35.4587 41.9984 34.7146C41.6475 34.3636 41.2915 34.1915 40.8793 34.1915L40.8742 34.1898ZM44.8312 41.1251C46.0985 41.1251 47.3659 41.1251 48.6332 41.1234C49.5241 41.1234 49.8205 40.8838 49.892 39.9928C49.9312 39.5069 50.1271 39.3499 50.5768 39.3499C50.587 39.3499 50.5972 39.3499 50.6091 39.3499C51.1185 39.3584 51.1866 39.6435 51.1917 40.0502C51.2104 41.7258 50.3196 42.6319 48.6145 42.6387C48.083 42.6404 47.5498 42.6421 47.0184 42.6421C46.1701 42.6421 45.3218 42.6404 44.4752 42.6404H44.453C43.6149 42.6404 42.7769 42.6421 41.9371 42.6421C41.4039 42.6421 40.869 42.6421 40.3359 42.6387C38.6614 42.6303 37.699 41.5857 37.7978 39.9304C37.8199 39.5423 37.9681 39.3567 38.3616 39.3567C38.365 39.3567 38.3701 39.3567 38.3735 39.3567C38.7398 39.36 39.0208 39.3837 39.0839 39.8629C39.2508 41.1285 39.2712 41.1268 40.5454 41.1268C41.9746 41.1268 43.402 41.1268 44.8312 41.1268V41.1251Z" fill="#181818"/>
<path d="M41.8698 31.2453L41.87 31.2455C42.3517 31.7447 43.2039 32.344 44.536 32.357H44.5773C45.6523 32.357 46.6278 31.9415 47.3314 31.1892L47.3315 31.1892C47.9975 30.4773 48.3338 29.5511 48.2647 28.6541L48.2639 28.6445V28.6348V28.6165C48.2623 26.4885 46.7154 24.9515 44.562 24.9515C42.4432 24.9515 40.9152 26.4526 40.8412 28.6348L41.8698 31.2453ZM41.8698 31.2453C41.1826 30.5345 40.8095 29.5804 40.8412 28.6349L40.5914 28.6264C40.5573 29.6422 40.9576 30.6614 41.6901 31.4191C42.2062 31.954 43.1192 32.5935 44.5348 32.607L41.8698 31.2453Z" fill="#9BD8DD" stroke="black" stroke-width="0.5"/>
<path d="M44.562 24.9548C46.7373 24.9548 48.2567 26.46 48.2584 28.6165V28.6351V28.6536C48.3283 29.5564 47.9876 30.4794 47.325 31.1864C46.6215 31.939 45.6454 32.3524 44.5757 32.3524H44.5348C43.2078 32.3389 42.3544 31.7416 41.8724 31.2421C41.1961 30.5435 40.8128 29.5682 40.8452 28.6334C40.9202 26.4313 42.414 24.9531 44.5603 24.9531M44.5603 24.4469C42.1142 24.4469 40.4159 26.1951 40.3342 28.6165C40.2643 30.66 41.8775 32.8334 44.5297 32.8587C44.545 32.8587 44.5603 32.8587 44.5757 32.8587C47.1597 32.8587 48.9296 30.7258 48.7678 28.6148C48.7678 26.19 47.0081 24.4469 44.5603 24.4469Z" fill="#181818"/>
<path d="M27.8144 44.9494H27.814C26.188 44.9464 24.874 44.4844 23.9653 43.5907C23.0561 42.6964 22.5851 41.4017 22.5821 39.7989L22.5821 39.7985C22.5821 39.6498 22.5802 39.5027 22.5783 39.352L22.5782 39.3468L22.5782 39.3463C22.578 39.3319 22.5779 39.3174 22.5777 39.303C22.572 38.7665 22.5659 38.1934 22.6387 37.6456C22.7823 36.5514 23.169 35.6372 23.8167 34.9071C24.4634 34.178 25.3559 33.6484 26.4856 33.2982L26.4861 33.298C26.7 33.2322 26.9201 33.1876 27.1378 33.1437M27.8144 44.9494L27.188 33.3886M27.8144 44.9494H27.8178H27.8211H27.8245H27.8278H27.8312H27.8345H27.8379H27.8412H27.8446H27.848H27.8513H27.8547H27.858H27.8614H27.8647H27.8681H27.8714H27.8748H27.8781H27.8815H27.8848H27.8882H27.8915H27.8949H27.8982H27.9016H27.9049H27.9083H27.9116H27.915H27.9183H27.9217H27.925H27.9284H27.9317H27.9351H27.9384H27.9418H27.9451H27.9485H27.9518H27.9552H27.9585H27.9619H27.9652H27.9686H27.972H27.9753H27.9787H27.982H27.9854H27.9887H27.9921H27.9954H27.9988H28.0021H28.0055H28.0088H28.0122H28.0155H28.0189H28.0222H28.0256H28.0289H28.0323H28.0356H28.039H28.0423H28.0457H28.049H28.0524H28.0557H28.0591H28.0624H28.0658H28.0691H28.0725H28.0758H28.0792H28.0825H28.0859H28.0893H28.0926H28.096H28.0993H28.1027H28.106H28.1094H28.1127H28.1161H28.1194H28.1228H28.1261H28.1295H28.1328H28.1362H28.1395H28.1429H28.1462H28.1496H28.1529H28.1563H28.1596H28.163H28.1663H28.1697H28.173H28.1764H28.1797H28.1831H28.1864H28.1898H28.1931H28.1965H28.1998H28.2032H28.2065H28.2099H28.2133H28.2166H28.22H28.2233H28.2267H28.23H28.2334H28.2367H28.2401H28.2434H28.2468H28.2501H28.2535H28.2568H28.2602H28.2635H28.2669H28.2702H28.2736H28.2769H28.2803H28.2836H28.287H28.2903H28.2937H28.297H28.3004H28.3037H28.3071H28.3104H28.3138H28.3171H28.3205H28.3238H28.3272H28.3306H28.3339H28.3373H28.3406H28.344H28.3473H28.3507H28.354H28.3574H28.3607H28.3641H28.3674H28.3708H28.3741H28.3775H28.3808H28.3842H28.3875H28.3909H28.3942H28.3976H28.4009H28.4043H28.4076H28.411H28.4143H28.4177H28.421H28.4244H28.4277H28.4311H28.4344H28.4378H28.4411H28.4445H28.4478H28.4512H28.4546H28.4579H28.4613H28.4646H28.468H28.4713H28.4747H28.478H28.4814H28.4847H28.4881H28.4914H28.4948H28.4981H28.5015H28.5048H28.5082H28.5115H28.5149H28.5182H28.5216H28.5249H28.5283H28.5316H28.535H28.5383H28.5417H28.545H28.5484H28.5517H28.5551H28.5584H28.5618H28.5651H28.5685H28.5719H28.5752H28.5786H28.5819H28.5853H28.5886H28.592H28.5953H28.5987H28.602H28.6054H28.6087H28.6121H28.6154H28.6188H28.6221H28.6255H28.6288H28.6322H28.6355H28.6389H28.6422H28.6456H28.6489H28.6523H28.6556H28.659H28.6623H28.6657H28.669H28.6724H28.6757H28.6791H28.6824H28.6858H28.6891H28.6925H28.6959H28.6992H28.7026H28.7059H28.7093H28.7126H28.716H28.7193H28.7227H28.726H28.7294H28.7327H28.7361H28.7394H28.7428H28.7461H28.7495H28.7528H28.7562H28.7595H28.7629H28.7662H28.7696H28.7729H28.7763H28.7796H28.783H28.7863H28.7897H28.793H28.7964H28.7997H28.8031H28.8064H28.8098H28.8132H28.8165H28.8199H28.8232H28.8266H28.8299H28.8333H28.8366H28.84H28.8433H28.8467H28.85H28.8534H28.8567H28.8601H28.8634H28.8668H28.8701H28.8735H28.8768H28.8802H28.8835H28.8869H28.8902H28.8936H28.8969H28.9003H28.9036H28.907H28.9103H28.9137H28.917H28.9204H28.9237H28.9271H28.9305H28.9338H28.9372H28.9405H28.9439H28.9472H28.9506H28.9539H28.9573H28.9606H28.964H28.9673H28.9707H28.974H28.9774H28.9807H28.9841H28.9874H28.9908H28.9941H28.9975H29.0008H29.0042H29.0075H29.0109H29.0142H29.0176H29.0209H29.0243H29.0276H29.031H29.0343H29.0377H29.041H29.0444H29.0477H29.0511H29.0545H29.0578H29.0612H29.0645H29.0679H29.0712H29.0746H29.0779H29.0813H29.0846H29.088H29.0913H29.0947H29.098H29.1014H29.1047H29.1081H29.1114H29.1148H29.1181H29.1215H29.1248H29.1282H29.1315H29.1349H29.1382H29.1416H29.1449H29.1483H29.1516H29.155H29.1583H29.1617H29.165H29.1684H29.1718H29.1751H29.1785H29.1818H29.1852H29.1885H29.1919H29.1952H29.1986H29.2019H29.2053H29.2086H29.212H29.2153H29.2187H29.222H29.2254H29.2287H29.2321H29.2354H29.2388H29.2421H29.2455H29.2488H29.2522H29.2555H29.2589H29.2622H29.2656H29.2689H29.2723H29.2756H29.279H29.2823H29.2857H29.289H29.2924H29.2958H29.2991H29.3025H29.3058H29.3092H29.3125H29.3159H29.3192H29.3226H29.3259H29.3293H29.3326H29.336H29.3393H29.3427H29.346H29.3494H29.3527H29.3561H29.3594H29.3628H29.3661H29.3695H29.3728H29.3762H29.3795H29.3829H29.3862H29.3896H29.3929H29.3963H29.3996H29.403H29.4063H29.4097H29.4131H29.4164H29.4198H29.4231H29.4265H29.4298H29.4332H29.4365H29.4399H29.4432H29.4466H29.4499H29.4533H29.4566H29.46H29.4633H29.4667H29.47H29.4734H29.4767H29.4801H29.4834H29.4868H29.4901H29.4935H29.4968H29.5002H29.5035H29.5069H29.5102H29.5136H29.5169H29.5203H29.5236H29.527H29.5303H32.6334C32.8788 44.9494 33.1239 44.9503 33.3695 44.9513H33.3697L33.3702 44.9513C33.6154 44.9523 33.8612 44.9532 34.1076 44.9532M27.8144 44.9494L34.1076 44.9532M27.1378 33.1437C27.138 33.1436 27.1383 33.1436 27.1386 33.1435L27.188 33.3886M27.1378 33.1437C27.1375 33.1437 27.1372 33.1438 27.137 33.1438L27.188 33.3886M27.1378 33.1437C27.1563 33.1398 27.1748 33.136 27.1932 33.1321C27.3617 33.0971 27.5264 33.0629 27.6877 33.0184L27.6889 33.0181C27.8767 32.9674 28.0546 32.9401 28.2288 32.9401C28.7006 32.9401 29.0893 33.1392 29.4772 33.5256L29.4777 33.526C30.0044 34.0534 30.5768 34.5469 31.1397 35.0322L31.1658 35.0547M27.188 33.3886C27.2068 33.3847 27.2256 33.3807 27.2445 33.3768C27.4119 33.3421 27.5846 33.3062 27.7541 33.2594C27.9253 33.2132 28.081 33.1901 28.2288 33.1901C28.616 33.1901 28.9448 33.3481 29.3008 33.7027M31.1658 35.0547L31.0031 35.2445M31.1658 35.0547C31.499 35.3404 31.8433 35.6387 32.1744 35.9376M31.1658 35.0547L31.1663 35.0551L31.0031 35.2445M31.0031 35.2445L30.9735 35.2189C30.4127 34.7355 29.8342 34.2368 29.3008 33.7027M31.0031 35.2445C31.3358 35.5297 31.6782 35.8265 32.0069 36.1233M29.3008 33.7027L29.3008 33.7027L29.3008 33.7027ZM41.5962 35.9633C42.3997 37.7113 42.4931 39.6578 41.8725 41.7469M41.5962 35.9633L41.8236 35.8593C41.8235 35.8592 41.8234 35.8591 41.8234 35.8589M41.5962 35.9633L41.8234 35.8589M41.5962 35.9633C41.4367 35.6145 41.2129 35.2946 40.9114 34.9804C39.8764 33.9031 38.5476 33.5138 37.2636 33.2537M41.8725 41.7469L35.5808 44.9552C35.4975 44.9552 35.4142 44.9552 35.3308 44.9551M41.8725 41.7469C41.3472 43.5141 39.6566 44.6724 37.5652 44.7013L41.8725 41.7469ZM41.8234 35.8589C42.6555 37.6693 42.7476 39.6791 42.1121 41.8181L42.1121 41.8181C41.5503 43.7082 39.7494 44.9211 37.5686 44.9513L37.5685 44.9513C36.9816 44.959 36.3501 44.9629 35.5808 44.9629H35.3308V44.9551M41.8234 35.8589C41.6505 35.4812 41.4097 35.1385 41.0918 34.8073L41.0917 34.8072C40.0012 33.6722 38.6076 33.2709 37.3139 33.0088M35.3308 44.9551C34.9234 44.9551 34.5149 44.9548 34.1076 44.9532M35.3308 44.9551L34.1076 44.9532M34.1076 44.9532C34.1074 44.9532 34.1072 44.9532 34.1071 44.9532L34.1081 44.7032V44.9532C34.1079 44.9532 34.1077 44.9532 34.1076 44.9532ZM37.3139 33.0088C37.3141 33.0088 37.3143 33.0089 37.3145 33.0089L37.2636 33.2537M37.3139 33.0088C37.1423 32.9731 36.9834 32.9555 36.8298 32.9555C36.3415 32.9555 35.9475 33.1374 35.575 33.5107M37.3139 33.0088C37.3137 33.0087 37.3135 33.0087 37.3133 33.0086L37.2636 33.2537M37.2636 33.2537C37.106 33.2209 36.964 33.2055 36.8298 33.2055C36.4173 33.2055 36.0847 33.3539 35.752 33.6873M35.575 33.5107C35.575 33.5107 35.575 33.5107 35.575 33.5107L35.752 33.6873M35.575 33.5107C35.0982 33.9884 34.5933 34.4529 34.0988 34.9078C34.0714 34.933 34.0441 34.9581 34.0169 34.9832M35.575 33.5107L35.752 33.6873M35.752 33.6873C35.2713 34.1689 34.7627 34.6368 34.2691 35.0908C34.2413 35.1164 34.2136 35.1419 34.1859 35.1674M34.0169 34.9832C34.017 34.9831 34.0171 34.983 34.0172 34.9828L34.1859 35.1674M34.0169 34.9832C34.0168 34.9833 34.0167 34.9833 34.0166 34.9834L34.1859 35.1674M34.0169 34.9832C33.6899 35.282 33.3637 35.5819 33.0411 35.8879L33.0407 35.8883C32.8953 36.0268 32.7474 36.1296 32.5789 36.1296C32.4648 36.1296 32.335 36.0821 32.1744 35.9376M34.1859 35.1674C33.859 35.4661 33.5341 35.7648 33.2131 36.0693C33.0614 36.2139 32.8513 36.3796 32.5789 36.3796C32.3844 36.3796 32.1976 36.2948 32.0069 36.1233M32.1744 35.9376C32.1744 35.9377 32.1744 35.9377 32.1745 35.9377L32.0069 36.1233M32.1744 35.9376C32.1743 35.9376 32.1742 35.9375 32.1742 35.9374L32.0069 36.1233M27.6137 42.5858L27.6135 42.5858C26.6537 42.5803 25.8924 42.2779 25.3853 41.7428C24.8731 41.2008 24.6158 40.4165 24.673 39.4492C24.6893 39.1791 24.7642 39.0149 24.8623 38.9178C24.9487 38.8322 25.0814 38.7706 25.2877 38.7592H25.3592H25.3754C25.5695 38.7612 25.7596 38.7669 25.9156 38.8427C26.0463 38.9062 26.1834 39.0345 26.2281 39.3708L26.4759 39.3379L26.2281 39.3705C26.2646 39.6475 26.298 39.9003 26.3398 40.0979C26.3608 40.1971 26.3858 40.2914 26.418 40.3729C26.4485 40.4501 26.495 40.5408 26.5731 40.6081C26.649 40.6739 26.7423 40.707 26.8218 40.7265C26.9052 40.7469 27.0005 40.7587 27.101 40.7662C27.2989 40.7808 27.554 40.7808 27.8459 40.7808H27.8553H32.7287C33.4546 40.7808 34.1809 40.7803 34.9074 40.7799L34.91 40.7799C35.6374 40.7794 36.3649 40.7789 37.0924 40.7789C37.5276 40.7789 37.8929 40.7431 38.1401 40.522C38.3904 40.2983 38.4559 39.9428 38.4895 39.5235L38.4895 39.5232C38.5141 39.2101 38.5983 39.0314 38.7104 38.9271C38.8222 38.8231 39.0045 38.7534 39.3142 38.7534H39.3532C39.5537 38.7565 39.6857 38.7984 39.7738 38.8497C39.8608 38.9004 39.919 38.9682 39.96 39.0467C40.0483 39.2158 40.0543 39.4245 40.0564 39.5912C40.0675 40.581 39.8038 41.3155 39.3101 41.8114C38.8141 42.3096 38.0749 42.5821 37.0701 42.5858L37.0694 42.5858C36.4653 42.5896 35.8591 42.5896 35.252 42.5896H32.3416H29.4428C28.8337 42.5896 28.2236 42.5896 27.6137 42.5858ZM35.2525 42.8396C35.8593 42.8396 36.4661 42.8396 37.071 42.8358L25.2036 41.9146C25.7678 42.5101 26.6005 42.83 27.6121 42.8358C28.2228 42.8396 28.8336 42.8396 29.4423 42.8396H29.4428H32.3416H35.252H35.2525Z" fill="#EF4B69" stroke="black" stroke-width="0.5"/>
<path d="M28.2288 33.4751C28.4331 33.4751 28.7152 33.5233 29.0926 33.903C29.6432 34.4542 30.2385 34.9649 30.8124 35.4602C31.1431 35.7454 31.4856 36.0403 31.8104 36.3351C32.0536 36.5548 32.3124 36.6666 32.5789 36.6666C32.9602 36.6666 33.2384 36.443 33.4135 36.2773C33.7326 35.9747 34.0633 35.6702 34.3843 35.3773C34.9057 34.8974 35.4465 34.4021 35.9582 33.8895C36.2364 33.612 36.4952 33.4925 36.8298 33.4925C36.9446 33.4925 37.0671 33.506 37.2053 33.5349C38.4426 33.7854 39.7208 34.1574 40.6993 35.1769C40.9775 35.4679 41.1838 35.7627 41.3297 36.0807C42.104 37.7632 42.1915 39.6422 41.5923 41.6619C41.104 43.3039 39.5223 44.3832 37.5613 44.4082C36.9776 44.4159 36.3473 44.4198 35.5808 44.4198C35.0905 44.4198 34.6003 44.4198 34.11 44.4178C33.6197 44.4178 33.1275 44.4159 32.6353 44.4159H32.4719H31.0186H29.5673C28.9837 44.4159 28.3981 44.4159 27.8144 44.4159C26.3437 44.414 25.1452 43.9977 24.3476 43.2114C23.5383 42.4155 23.1278 41.2688 23.1239 39.8022C23.1239 39.6499 23.1219 39.4977 23.12 39.3435C23.1122 38.775 23.1064 38.2392 23.1745 37.7189C23.4352 35.7358 24.5713 34.458 26.6452 33.8163C26.832 33.7584 27.0324 33.718 27.2444 33.6736C27.4351 33.6351 27.6316 33.5946 27.83 33.5407C27.9759 33.5002 28.1043 33.4809 28.2249 33.4809M32.7443 40.2454H29.8669H27.8417C27.4506 40.2454 27.0479 40.2454 26.9234 40.203C26.8612 40.0797 26.8047 39.6519 26.758 39.305C26.618 38.2373 25.7464 38.2276 25.3729 38.2238H25.3534C24.9215 38.2238 24.1881 38.3799 24.1258 39.4244C24.0616 40.5249 24.3573 41.4557 24.9857 42.1187C25.6063 42.7739 26.5129 43.1247 27.6043 43.1305C28.2152 43.1343 28.8261 43.1343 29.437 43.1343C29.9155 43.1343 30.3961 43.1343 30.8747 43.1343C31.3533 43.1343 31.8318 43.1343 32.3104 43.1343H32.3357C32.8202 43.1343 33.3046 43.1343 33.7871 43.1343C34.2715 43.1343 34.7559 43.1343 35.2403 43.1343C35.8493 43.1343 36.4563 43.1343 37.0652 43.1305C38.1936 43.1266 39.0768 42.8106 39.6877 42.1958C40.2986 41.581 40.6021 40.7041 40.5904 39.5902C40.5807 38.6921 40.1643 38.2315 39.3511 38.218H39.3064C38.4679 38.218 38.0087 38.6439 37.9426 39.4842C37.8862 40.1857 37.822 40.2435 37.0866 40.2435C35.6391 40.2435 34.1917 40.2454 32.7443 40.2454ZM28.2249 32.9028C28.0498 32.9028 27.867 32.9297 27.6724 32.9837C27.2755 33.0935 26.8612 33.1437 26.4701 33.2651C24.2814 33.9434 22.8963 35.3445 22.5947 37.6456C22.5013 38.3568 22.5364 39.0853 22.5383 39.8041C22.5461 43.0727 24.4955 44.9883 27.8125 44.9941C28.3981 44.9941 28.9817 44.9941 29.5673 44.9941C30.5362 44.9941 31.5031 44.9941 32.4719 44.9941C32.5264 44.9941 32.5809 44.9941 32.6353 44.9941C33.6159 44.9941 34.5983 44.9999 35.5788 44.9999C36.2422 44.9999 36.9037 44.9979 37.5671 44.9883C39.6955 44.9594 41.5729 43.7742 42.1507 41.8277C42.7401 39.8426 42.7596 37.7998 41.8608 35.8437C41.6779 35.4467 41.4289 35.1017 41.1215 34.7818C40.0826 33.6987 38.748 33.2593 37.322 32.9721C37.1488 32.9374 36.9854 32.9182 36.8298 32.9182C36.3454 32.9182 35.9349 33.0935 35.5438 33.4867C34.7267 34.3058 33.8493 35.067 33.0108 35.863C32.861 36.0056 32.7248 36.0923 32.5789 36.0923C32.4641 36.0923 32.3435 36.0383 32.2054 35.9131C31.3124 35.1036 30.3611 34.352 29.5089 33.5021C29.1082 33.1013 28.7016 32.9047 28.2308 32.9047L28.2249 32.9028ZM32.7443 40.8236C34.1917 40.8236 35.6391 40.8236 37.0866 40.8217C38.1041 40.8217 38.4426 40.548 38.5243 39.5304C38.569 38.9754 38.7928 38.7962 39.3064 38.7962C39.3181 38.7962 39.3297 38.7962 39.3433 38.7962C39.925 38.8058 40.0029 39.1315 40.0087 39.596C40.0301 41.5097 39.0126 42.5446 37.0652 42.5523C36.4582 42.5542 35.8493 42.5562 35.2423 42.5562C34.2734 42.5562 33.3046 42.5542 32.3377 42.5542H32.3124C31.3552 42.5542 30.398 42.5562 29.4389 42.5562C28.83 42.5562 28.2191 42.5562 27.6102 42.5523C25.6978 42.5427 24.5986 41.3497 24.7114 39.4591C24.7367 39.0159 24.9059 38.8039 25.3553 38.8039C25.3592 38.8039 25.3651 38.8039 25.369 38.8039C25.7872 38.8077 26.1082 38.8347 26.1802 39.382C26.3709 40.8275 26.3942 40.8255 27.8495 40.8255C29.4817 40.8255 31.112 40.8255 32.7443 40.8255V40.8236Z" fill="#181818"/>
<path d="M29.3366 29.5647L29.3367 29.5648C29.8918 30.1401 30.8738 30.8302 32.407 30.8452H32.4544C33.6916 30.8452 34.8152 30.3669 35.6258 29.5002L35.6258 29.5002C36.3928 28.6803 36.781 27.6129 36.7011 26.5778L36.7004 26.5682V26.5585V26.5375C36.6986 24.0873 34.9156 22.3162 32.4369 22.3162C29.9971 22.3162 28.237 24.0466 28.1518 26.5573L29.3366 29.5647ZM29.3366 29.5647C28.5453 28.7462 28.1153 27.6472 28.1518 26.5574L27.902 26.5489C27.8631 27.7091 28.3203 28.8731 29.1568 29.7384C29.7463 30.3494 30.7891 31.0798 32.4058 31.0952L29.3366 29.5647Z" fill="#EF4B69" stroke="black" stroke-width="0.5"/>
<path d="M32.4369 22.3555C34.9213 22.3555 36.6566 24.0745 36.6586 26.5375V26.5587V26.5799C36.7384 27.611 36.3493 28.6651 35.5925 29.4726C34.789 30.3322 33.6742 30.8043 32.4525 30.8043H32.4058C30.8902 30.7889 29.9156 30.1067 29.365 29.5362C28.5926 28.7384 28.1549 27.6244 28.1919 26.5568C28.2775 24.0418 29.9836 22.3535 32.4349 22.3535M32.4349 21.7754C29.6412 21.7754 27.7016 23.772 27.6082 26.5375C27.5285 28.8714 29.3708 31.3536 32.3999 31.3825C32.4174 31.3825 32.4349 31.3825 32.4525 31.3825C35.4037 31.3825 37.4251 28.9465 37.2403 26.5356C37.2403 23.7662 35.2306 21.7754 32.4349 21.7754Z" fill="#181818"/>
<path d="M13.0946 44.3837H13.0941C11.8754 44.3814 10.882 44.035 10.1924 43.3567C9.50225 42.6779 9.14873 41.6987 9.14647 40.4965L9.14647 40.4961C9.14647 40.3861 9.14508 40.2773 9.14365 40.1653L9.1436 40.1617L9.1436 40.1611C9.14348 40.1498 9.14336 40.1385 9.14324 40.1272C9.139 39.7303 9.13442 39.3009 9.18908 38.8896C9.29706 38.0669 9.58851 37.3758 10.0791 36.8227C10.5687 36.2708 11.2423 35.8723 12.0891 35.6098L12.0896 35.6096C12.2519 35.5597 12.4183 35.526 12.5794 35.4935M13.0946 44.3837L12.6296 35.7384M13.0946 44.3837H13.097H13.0995H13.102H13.1045H13.107H13.1095H13.112H13.1145H13.1169H13.1194H13.1219H13.1244H13.1269H13.1294H13.1319H13.1344H13.1368H13.1393H13.1418H13.1443H13.1468H13.1493H13.1518H13.1543H13.1567H13.1592H13.1617H13.1642H13.1667H13.1692H13.1717H13.1742H13.1766H13.1791H13.1816H13.1841H13.1866H13.1891H13.1916H13.1941H13.1965H13.199H13.2015H13.204H13.2065H13.209H13.2115H13.214H13.2164H13.2189H13.2214H13.2239H13.2264H13.2289H13.2314H13.2339H13.2363H13.2388H13.2413H13.2438H13.2463H13.2488H13.2513H13.2538H13.2562H13.2587H13.2612H13.2637H13.2662H13.2687H13.2712H13.2737H13.2761H13.2786H13.2811H13.2836H13.2861H13.2886H13.2911H13.2936H13.296H13.2985H13.301H13.3035H13.306H13.3085H13.311H13.3135H13.3159H13.3184H13.3209H13.3234H13.3259H13.3284H13.3309H13.3334H13.3358H13.3383H13.3408H13.3433H13.3458H13.3483H13.3508H13.3533H13.3557H13.3582H13.3607H13.3632H13.3657H13.3682H13.3707H13.3732H13.3756H13.3781H13.3806H13.3831H13.3856H13.3881H13.3906H13.3931H13.3955H13.398H13.4005H13.403H13.4055H13.408H13.4105H13.413H13.4154H13.4179H13.4204H13.4229H13.4254H13.4279H13.4304H13.4329H13.4353H13.4378H13.4403H13.4428H13.4453H13.4478H13.4503H13.4528H13.4552H13.4577H13.4602H13.4627H13.4652H13.4677H13.4702H13.4727H13.4751H13.4776H13.4801H13.4826H13.4851H13.4876H13.4901H13.4926H13.495H13.4975H13.5H13.5025H13.505H13.5075H13.51H13.5125H13.5149H13.5174H13.5199H13.5224H13.5249H13.5274H13.5299H13.5324H13.5348H13.5373H13.5398H13.5423H13.5448H13.5473H13.5498H13.5523H13.5547H13.5572H13.5597H13.5622H13.5647H13.5672H13.5697H13.5722H13.5746H13.5771H13.5796H13.5821H13.5846H13.5871H13.5896H13.5921H13.5945H13.597H13.5995H13.602H13.6045H13.607H13.6095H13.612H13.6144H13.6169H13.6194H13.6219H13.6244H13.6269H13.6294H13.6319H13.6343H13.6368H13.6393H13.6418H13.6443H13.6468H13.6493H13.6518H13.6542H13.6567H13.6592H13.6617H13.6642H13.6667H13.6692H13.6717H13.6741H13.6766H13.6791H13.6816H13.6841H13.6866H13.6891H13.6916H13.694H13.6965H13.699H13.7015H13.704H13.7065H13.709H13.7115H13.7139H13.7164H13.7189H13.7214H13.7239H13.7264H13.7289H13.7314H13.7338H13.7363H13.7388H13.7413H13.7438H13.7463H13.7488H13.7513H13.7537H13.7562H13.7587H13.7612H13.7637H13.7662H13.7687H13.7712H13.7736H13.7761H13.7786H13.7811H13.7836H13.7861H13.7886H13.7911H13.7935H13.796H13.7985H13.801H13.8035H13.806H13.8085H13.811H13.8134H13.8159H13.8184H13.8209H13.8234H13.8259H13.8284H13.8309H13.8333H13.8358H13.8383H13.8408H13.8433H13.8458H13.8483H13.8508H13.8532H13.8557H13.8582H13.8607H13.8632H13.8657H13.8682H13.8707H13.8731H13.8756H13.8781H13.8806H13.8831H13.8856H13.8881H13.8906H13.893H13.8955H13.898H13.9005H13.903H13.9055H13.908H13.9105H13.9129H13.9154H13.9179H13.9204H13.9229H13.9254H13.9279H13.9304H13.9328H13.9353H13.9378H13.9403H13.9428H13.9453H13.9478H13.9503H13.9527H13.9552H13.9577H13.9602H13.9627H13.9652H13.9677H13.9702H13.9726H13.9751H13.9776H13.9801H13.9826H13.9851H13.9876H13.9901H13.9925H13.995H13.9975H14H14.0025H14.005H14.0075H14.01H14.0124H14.0149H14.0174H14.0199H14.0224H14.0249H14.0274H14.0299H14.0323H14.0348H14.0373H14.0398H14.0423H14.0448H14.0473H14.0498H14.0522H14.0547H14.0572H14.0597H14.0622H14.0647H14.0672H14.0697H14.0721H14.0746H14.0771H14.0796H14.0821H14.0846H14.0871H14.0896H14.092H14.0945H14.097H14.0995H14.102H14.1045H14.107H14.1095H14.1119H14.1144H14.1169H14.1194H14.1219H14.1244H14.1269H14.1294H14.1318H14.1343H14.1368H14.1393H14.1418H14.1443H14.1468H14.1493H14.1517H14.1542H14.1567H14.1592H14.1617H14.1642H14.1667H14.1692H14.1716H14.1741H14.1766H14.1791H14.1816H14.1841H14.1866H14.1891H14.1915H14.194H14.1965H14.199H14.2015H14.204H14.2065H14.209H14.2114H14.2139H14.2164H14.2189H14.2214H14.2239H14.2264H14.2289H14.2313H14.2338H14.2363H14.2388H14.2413H14.2438H14.2463H14.2488H14.2512H14.2537H14.2562H14.2587H14.2612H14.2637H14.2662H14.2687H14.2711H14.2736H14.2761H14.2786H14.2811H14.2836H14.2861H14.2886H14.291H14.2935H14.296H14.2985H14.301H14.3035H14.306H14.3085H14.3109H14.3134H14.3159H14.3184H14.3209H14.3234H14.3259H14.3284H14.3308H14.3333H14.3358H14.3383H14.3408H14.3433H14.3458H14.3483H14.3507H14.3532H14.3557H14.3582H14.3607H14.3632H14.3657H14.3682H16.6713C16.8534 44.3837 17.0353 44.3844 17.2176 44.3851C17.3997 44.3858 17.5823 44.3865 17.7654 44.3865M13.0946 44.3837L17.7654 44.3865M12.5794 35.4935C12.5796 35.4935 12.5799 35.4934 12.5802 35.4933L12.6296 35.7384M12.5794 35.4935C12.5791 35.4936 12.5788 35.4936 12.5785 35.4937L12.6296 35.7384M12.5794 35.4935C12.593 35.4907 12.6067 35.4878 12.6202 35.485C12.7456 35.459 12.8657 35.434 12.9833 35.4016L12.9846 35.4012L12.9846 35.4012C13.1282 35.3624 13.266 35.3411 13.4021 35.3411C13.7741 35.3411 14.078 35.4995 14.3742 35.7944L14.3747 35.7949C14.7639 36.1846 15.1872 36.5496 15.6056 36.9103L15.624 36.9261M12.6296 35.7384C12.6435 35.7355 12.6575 35.7326 12.6715 35.7297C12.7958 35.7039 12.9239 35.6773 13.0498 35.6426C13.1769 35.6082 13.2924 35.5911 13.4021 35.5911C13.6895 35.5911 13.9335 35.7084 14.1978 35.9716C14.5937 36.368 15.023 36.7381 15.4393 37.097L15.4613 37.1159M15.624 36.9261L15.4613 37.1159M15.624 36.9261L15.6245 36.9266L15.4613 37.1159M15.624 36.9261C15.8715 37.1383 16.1275 37.3602 16.3739 37.5826L16.2064 37.7682M15.4613 37.1159C15.7082 37.3276 15.9623 37.5479 16.2064 37.7682M23.5289 41.9422C23.9895 40.3916 23.9202 38.9469 23.3238 37.6495C23.2054 37.3906 23.0394 37.1531 22.8156 36.92C22.0474 36.1203 21.0611 35.8314 20.1081 35.6383M23.5289 41.9422L18.859 44.388C18.7758 44.388 18.6924 44.388 18.609 44.3879M23.5289 41.9422C23.139 43.254 21.8842 44.1136 20.3319 44.1351L23.5289 41.9422ZM20.1081 35.6383L20.1589 35.3935C20.1587 35.3935 20.1585 35.3934 20.1583 35.3934M20.1081 35.6383L20.1577 35.3933C20.1579 35.3933 20.1581 35.3933 20.1583 35.3934M20.1081 35.6383C19.9911 35.614 19.8857 35.6025 19.786 35.6025C19.4799 35.6025 19.233 35.7127 18.9861 35.9601C18.6293 36.3176 18.2518 36.6649 17.8855 37.0019C17.8648 37.0208 17.8442 37.0398 17.8237 37.0587M20.1583 35.3934C21.1211 35.5885 22.1722 35.8894 22.9958 36.7468L22.9959 36.7468C23.2361 36.9971 23.4193 37.2572 23.551 37.5451M20.1583 35.3934C20.0274 35.3662 19.905 35.3525 19.786 35.3525C19.4041 35.3525 19.0958 35.4962 18.8091 35.7835M23.551 37.5451L23.3239 37.6495L23.5512 37.5455C23.5511 37.5454 23.5511 37.5452 23.551 37.5451ZM23.551 37.5451C24.176 38.9049 24.244 40.4129 23.7685 42.0134L23.7685 42.0135C23.3422 43.448 21.977 44.3624 20.3353 44.3851L20.3352 44.3851C19.8992 44.3908 19.4302 44.3937 18.859 44.3937H18.609V44.3879M18.609 44.3879C18.328 44.3879 18.0463 44.3876 17.7654 44.3865M18.609 44.3879L17.7654 44.3865M17.7654 44.3865C17.7652 44.3865 17.7651 44.3865 17.7649 44.3865L17.7659 44.1365V44.3865C17.7657 44.3865 17.7656 44.3865 17.7654 44.3865ZM18.8091 35.7835C18.4562 36.1371 18.0824 36.481 17.7151 36.8189C17.6949 36.8374 17.6748 36.856 17.6546 36.8745M18.8091 35.7835L18.986 35.96L18.8091 35.7836C18.8091 35.7835 18.8091 35.7835 18.8091 35.7835ZM17.8237 37.0587L17.655 36.8742C17.6549 36.8743 17.6548 36.8744 17.6546 36.8745M17.8237 37.0587L17.6544 36.8747C17.6545 36.8747 17.6545 36.8746 17.6546 36.8745M17.8237 37.0587L16.2064 37.7682M17.6546 36.8745C17.4119 37.0963 17.1695 37.3192 16.9296 37.5468L16.9292 37.5471C16.8229 37.6484 16.7292 37.7085 16.6309 37.7085C16.5668 37.7085 16.4852 37.6828 16.3736 37.5824L16.2064 37.7682M10.5777 40.2257L10.8272 40.2407C10.8387 40.0498 10.891 39.9454 10.9487 39.8882C10.9986 39.8387 11.0803 39.7972 11.2209 39.7891H11.2722H11.2839C11.4299 39.7906 11.5563 39.7957 11.657 39.8446C11.7323 39.8812 11.8226 39.9564 11.8533 40.1872L11.8533 40.1873C11.8802 40.3918 11.9053 40.5821 11.937 40.7317C11.9529 40.8069 11.9723 40.8809 11.9982 40.9461C12.0223 41.0071 12.0615 41.0857 12.131 41.1457C12.1986 41.2044 12.2794 41.232 12.3424 41.2474C12.4094 41.2639 12.4841 41.2729 12.5602 41.2786C12.7096 41.2896 12.9009 41.2896 13.1158 41.2896H13.1249H16.7421C17.2814 41.2896 17.8211 41.2893 18.3609 41.2889H18.3612C18.9011 41.2886 19.441 41.2882 19.981 41.2882C20.3019 41.2882 20.5976 41.2636 20.8016 41.0812C21.0086 40.896 21.0574 40.6066 21.0822 40.2971L21.0822 40.2968C21.0998 40.0729 21.159 39.9586 21.2258 39.8965C21.2922 39.8347 21.4089 39.7848 21.63 39.7848H21.6585C21.7985 39.787 21.8849 39.8162 21.9388 39.8475C21.9916 39.8783 22.0267 39.919 22.0523 39.9679C22.1097 40.0779 22.115 40.2176 22.1165 40.3432C22.1246 41.066 21.9321 41.5924 21.5814 41.9447C21.2288 42.2988 20.6987 42.4977 19.9642 42.5004L19.9635 42.5004C19.5154 42.5033 19.0656 42.5033 18.615 42.5033H16.4547H14.3032C13.8511 42.5033 13.3985 42.5033 12.946 42.5004L12.9458 42.5004C12.2466 42.4964 11.6999 42.2765 11.3382 41.8948C10.9731 41.5082 10.7855 40.945 10.8272 40.2405L10.5777 40.2257ZM10.5777 40.2257C10.5992 39.8668 10.7486 39.6468 11.0222 39.5692L10.5777 40.2257ZM18.6152 42.7533C19.0656 42.7533 19.5161 42.7533 19.9651 42.7504L11.1567 42.0667C11.5755 42.5087 12.1935 42.7461 12.9444 42.7504C13.3977 42.7533 13.8511 42.7533 14.303 42.7533H14.3032H16.4547H18.615H18.6152Z" fill="#ACB838" stroke="black" stroke-width="0.5"/>
<path d="M13.4021 35.8026C13.5537 35.8026 13.7631 35.8384 14.0433 36.1202C14.4519 36.5293 14.8938 36.9084 15.3198 37.276C15.5652 37.4877 15.8194 37.7065 16.0605 37.9254C16.241 38.0885 16.4331 38.1714 16.6309 38.1714C16.9139 38.1714 17.1204 38.0055 17.2504 37.8825C17.4872 37.6579 17.7327 37.4319 17.9709 37.2145C18.3579 36.8583 18.7594 36.4907 19.1391 36.1102C19.3456 35.9042 19.5377 35.8155 19.786 35.8155C19.8712 35.8155 19.9622 35.8255 20.0647 35.847C20.9831 36.0329 21.9318 36.309 22.6582 37.0657C22.8647 37.2817 23.0177 37.5006 23.126 37.7366C23.7007 38.9854 23.7657 40.38 23.321 41.8791C22.9585 43.0979 21.7845 43.8989 20.329 43.9175C19.8958 43.9232 19.4279 43.9261 18.859 43.9261C18.4951 43.9261 18.1312 43.9261 17.7673 43.9247C17.4034 43.9247 17.0381 43.9232 16.6728 43.9232H16.5515H15.4728H14.3956C13.9624 43.9232 13.5277 43.9232 13.0945 43.9232C12.0029 43.9218 11.1134 43.6128 10.5213 43.0292C9.92064 42.4384 9.61596 41.5873 9.61307 40.4988C9.61307 40.3858 9.61162 40.2728 9.61018 40.1583C9.6044 39.7363 9.60007 39.3387 9.65061 38.9525C9.84411 37.4805 10.6874 36.5322 12.2267 36.0558C12.3653 36.0129 12.5141 35.9829 12.6715 35.95C12.813 35.9214 12.9588 35.8913 13.1061 35.8513C13.2144 35.8212 13.3097 35.8069 13.3992 35.8069M16.7536 40.8278H14.618H13.1148C12.8245 40.8278 12.5256 40.8278 12.4332 40.7963C12.387 40.7048 12.3451 40.3872 12.3105 40.1297C12.2065 39.3373 11.5596 39.3301 11.2823 39.3272H11.2679C10.9473 39.3272 10.4029 39.4431 10.3567 40.2184C10.3091 41.0352 10.5286 41.7261 10.995 42.2182C11.4556 42.7045 12.1285 42.9649 12.9386 42.9691C13.392 42.972 13.8454 42.972 14.2988 42.972C14.6541 42.972 15.0107 42.972 15.366 42.972C15.7212 42.972 16.0764 42.972 16.4316 42.972H16.4504C16.81 42.972 17.1695 42.972 17.5276 42.972C17.8872 42.972 18.2467 42.972 18.6063 42.972C19.0583 42.972 19.5088 42.972 19.9608 42.9691C20.7983 42.9663 21.4539 42.7317 21.9073 42.2754C22.3607 41.8191 22.586 41.1682 22.5773 40.3414C22.5701 39.6748 22.2611 39.333 21.6575 39.3229H21.6243C21.0019 39.3229 20.6611 39.6391 20.612 40.2627C20.5701 40.7834 20.5225 40.8263 19.9767 40.8263C18.9023 40.8263 17.828 40.8278 16.7536 40.8278ZM13.3992 35.3778C13.2693 35.3778 13.1335 35.3978 12.9891 35.4379C12.6946 35.5194 12.387 35.5566 12.0967 35.6467C10.4722 36.1502 9.44412 37.1902 9.2203 38.8981C9.15099 39.4259 9.17698 39.9666 9.17842 40.5002C9.1842 42.9262 10.6311 44.3481 13.0931 44.3524C13.5278 44.3524 13.961 44.3524 14.3956 44.3524C15.1147 44.3524 15.8324 44.3524 16.5515 44.3524C16.5919 44.3524 16.6323 44.3524 16.6728 44.3524C17.4006 44.3524 18.1298 44.3567 18.8576 44.3567C19.35 44.3567 19.8409 44.3552 20.3333 44.3481C21.9131 44.3266 23.3065 43.4469 23.7354 42.0022C24.1729 40.5288 24.1874 39.0125 23.5202 37.5606C23.3845 37.266 23.1997 37.0099 22.9715 36.7725C22.2004 35.9686 21.2098 35.6424 20.1514 35.4293C20.0229 35.4035 19.9016 35.3892 19.786 35.3892C19.4265 35.3892 19.1218 35.5194 18.8316 35.8112C18.2251 36.4192 17.5738 36.9842 16.9515 37.5749C16.8403 37.6808 16.7392 37.7452 16.6309 37.7452C16.5457 37.7452 16.4562 37.7051 16.3537 37.6121C15.6909 37.0114 14.9847 36.4535 14.3523 35.8227C14.0548 35.5251 13.753 35.3792 13.4036 35.3792L13.3992 35.3778ZM16.7536 41.2569C17.828 41.2569 18.9023 41.2569 19.9767 41.2555C20.7319 41.2555 20.9831 41.0524 21.0438 40.2971C21.077 39.8851 21.243 39.7521 21.6243 39.7521C21.6329 39.7521 21.6416 39.7521 21.6517 39.7521C22.0834 39.7592 22.1412 40.001 22.1455 40.3457C22.1614 41.7661 21.4062 42.5343 19.9608 42.54C19.5102 42.5414 19.0583 42.5429 18.6077 42.5429C17.8886 42.5429 17.1695 42.5414 16.4518 42.5414H16.4331C15.7226 42.5414 15.0122 42.5429 14.3003 42.5429C13.8483 42.5429 13.3949 42.5429 12.9429 42.54C11.5235 42.5329 10.7076 41.6474 10.7914 40.2442C10.8101 39.9152 10.9358 39.7578 11.2693 39.7578C11.2722 39.7578 11.2766 39.7578 11.2794 39.7578C11.5899 39.7607 11.8282 39.7807 11.8816 40.1869C12.0231 41.2598 12.0404 41.2583 13.1205 41.2583C14.3321 41.2583 15.5421 41.2583 16.7536 41.2583V41.2569Z" fill="#181818"/>
<path d="M14.2707 32.8553L14.2708 32.8555C14.6739 33.2732 15.3871 33.7751 16.5036 33.7861H16.5385C17.4397 33.7861 18.2564 33.4379 18.8454 32.8082L18.8454 32.8082C19.4032 32.2119 19.6841 31.4371 19.6263 30.6881L19.6256 30.6785V30.6688V30.6533C19.6242 28.8708 18.3302 27.5845 16.5255 27.5845C14.7506 27.5845 13.4715 28.84 13.4094 30.6701L14.2707 32.8553ZM14.2707 32.8553C13.695 32.2599 13.3829 31.461 13.4094 30.6702L13.1595 30.6617C13.1307 31.5228 13.47 32.3868 14.0909 33.0291C14.5284 33.4825 15.3024 34.0247 16.5024 34.0361L14.2707 32.8553Z" fill="#ACB838" stroke="black" stroke-width="0.5"/>
<path d="M16.5255 27.5492C18.3695 27.5492 19.6575 28.8252 19.659 30.6533V30.669V30.6847C19.7182 31.45 19.4294 32.2325 18.8677 32.8318C18.2713 33.4698 17.4439 33.8203 16.5371 33.8203H16.5024C15.3775 33.8088 14.6541 33.3024 14.2454 32.879C13.6722 32.2868 13.3473 31.46 13.3747 30.6676C13.4382 28.8009 14.7046 27.5478 16.5241 27.5478M16.5241 27.1187C14.4505 27.1187 13.0108 28.6006 12.9415 30.6533C12.8823 32.3855 14.2498 34.2279 16.4981 34.2494C16.5111 34.2494 16.5241 34.2494 16.5371 34.2494C18.7276 34.2494 20.2279 32.4413 20.0907 30.6518C20.0907 28.5963 18.5991 27.1187 16.5241 27.1187Z" fill="#181818"/>
</svg>
