<svg width="17" height="17" viewBox="0 0 26 16" fill="none" xmlns="http://www.w3.org/2000/svg">
<path fill-rule="evenodd" clip-rule="evenodd" d="M13.6019 0.765323C14.7145 0.817557 15.8079 0.993408 16.8752 1.31551C17.2147 1.4165 17.3122 1.58713 17.2025 1.91619C16.7359 3.33171 16.2641 4.74723 15.7905 6.16101C15.6773 6.49704 15.5119 6.56843 15.195 6.41521C14.6344 6.14534 14.0581 5.92596 13.4504 5.78493C13.1806 5.72225 13.1249 5.6439 13.1231 5.33224C13.1196 4.75536 13.1208 4.17847 13.122 3.60158L13.122 3.60017C13.1225 3.3122 13.1231 3.02423 13.1231 2.73626C13.1231 2.61003 13.1228 2.48379 13.1225 2.35756V2.35744C13.1215 1.97879 13.1205 1.60014 13.1283 1.22149C13.137 0.862825 13.2624 0.751394 13.6037 0.763582L13.6019 0.765323ZM20.2148 9.6991C20.079 9.70432 19.992 9.63816 19.931 9.54588C19.5671 8.98873 19.1371 8.48381 18.6931 7.99107C18.5573 7.84134 18.5904 7.70902 18.6931 7.56625C18.8591 7.33286 19.0246 7.09947 19.1901 6.86608L19.1905 6.86554L19.1909 6.86499L19.1913 6.86445L19.1917 6.8639L19.1921 6.86335L19.1925 6.86281L19.1928 6.86226L19.1932 6.86171L19.1936 6.86117C19.3603 6.62609 19.5271 6.39102 19.6942 6.15595L19.695 6.15493L19.6957 6.15392L19.6964 6.15291C19.9621 5.77784 20.2277 5.40278 20.4951 5.02771C20.5404 4.96329 20.5874 4.89887 20.6397 4.83967C20.8782 4.56806 21.0157 4.55935 21.2943 4.79266C22.05 5.42643 22.6994 6.15769 23.2652 6.96382C23.4898 7.28244 23.4672 7.42347 23.1625 7.65504C22.2972 8.31318 21.4075 8.94172 20.5126 9.55981C20.4185 9.62597 20.321 9.68865 20.2148 9.6991ZM23.2987 15.0739C23.4815 15.0738 23.6644 15.0736 23.8472 15.0736C24.0344 15.0736 24.2215 15.0741 24.4087 15.0747L24.4096 15.0747C24.7845 15.0759 25.1595 15.077 25.5344 15.0736C25.8634 15.0718 25.9923 14.936 25.9992 14.6104C26.001 14.546 26.001 14.4798 25.9975 14.4154C25.954 13.5118 25.799 12.6256 25.5744 11.7515C25.4717 11.3511 25.3498 11.2867 24.9476 11.4155C24.5084 11.5547 24.07 11.6986 23.6319 11.8424L23.6311 11.8426C23.4669 11.8965 23.3027 11.9504 23.1386 12.004C23.0039 12.0482 22.8688 12.0918 22.7336 12.1353L22.7335 12.1353C22.3952 12.2443 22.0565 12.3534 21.7231 12.4741C21.4428 12.5751 21.3975 12.6778 21.455 12.9529C21.5716 13.517 21.6709 14.0846 21.737 14.6574C21.7736 14.9691 21.892 15.0736 22.2036 15.0736C22.568 15.0747 22.9332 15.0743 23.2987 15.0739ZM25.2151 10.768C25.2047 10.9717 25.1089 11.0832 24.94 11.1389L22.8873 11.8179L22.8055 11.8449L22.8054 11.845C22.422 11.9717 22.0398 12.0981 21.6546 12.2184C21.3446 12.3141 21.228 12.2688 21.1235 11.9607C20.939 11.4192 20.6969 10.9056 20.4445 10.3954C20.3087 10.1203 20.3383 10.0054 20.5855 9.82085L20.9143 9.57454L20.9144 9.5745C21.7165 8.97332 22.5184 8.37225 23.3486 7.81162C23.6272 7.62358 23.7526 7.65317 23.9284 7.9422C24.4212 8.76052 24.8199 9.62237 25.1472 10.519C25.1693 10.5803 25.1853 10.6442 25.1995 10.7009L25.1995 10.7009C25.2055 10.7248 25.2112 10.7474 25.2169 10.768H25.2151ZM17.5777 2.50528C17.5586 2.50054 17.5402 2.49597 17.5231 2.49085V2.48737C17.2707 2.50826 17.1627 2.67366 17.0948 2.87389C17.0363 3.04523 16.9816 3.21845 16.9268 3.39167C16.8903 3.50713 16.8539 3.62258 16.8162 3.73748C16.6108 4.3695 16.4053 4.99978 16.1999 5.63006C16.139 5.81636 16.1372 5.99395 16.3253 6.10887C16.9242 6.47624 17.4709 6.90977 18.0054 7.36246C18.1534 7.48782 18.3101 7.47389 18.4633 7.36594C18.5591 7.29978 18.627 7.20576 18.6949 7.11174C19.2642 6.32302 19.8336 5.53256 20.4012 4.7421C20.6606 4.38169 20.6415 4.24588 20.2898 3.96556L20.2794 3.95789L20.2723 3.95251L20.2667 3.94814L20.2549 3.93945C19.4749 3.34225 18.5939 2.92961 17.699 2.54308C17.6592 2.52551 17.617 2.51503 17.5777 2.50528ZM12.8778 3.54311V3.5433V3.54341V3.54342C12.8793 3.8031 12.8808 4.06311 12.8747 4.32228C12.8678 4.63568 12.6902 4.79412 12.3872 4.75756C11.6264 4.66702 10.8638 4.67573 10.0994 4.68617C9.76861 4.68966 9.67633 4.62698 9.57883 4.32228C9.41169 3.79299 9.24802 3.26369 9.0861 2.73439C8.9973 2.44363 9.06347 2.29041 9.35771 2.20336C10.3536 1.90911 11.36 1.66361 12.4099 1.66884C12.7564 1.67058 12.873 1.78723 12.8765 2.14068C12.8788 2.37636 12.878 2.61204 12.8773 2.8472V2.84725V2.8473V2.84734V2.84739V2.84744V2.84782V2.84821V2.8486V2.84899V2.84938C12.8769 2.96616 12.8765 3.08281 12.8765 3.19927V3.19753C12.8765 3.31234 12.8771 3.42731 12.8778 3.54235V3.54254V3.54273V3.54292V3.54311ZM14.1467 6.52413C14.1662 6.4729 14.1867 6.41912 14.1436 6.36115C14.0613 6.36399 14.0334 6.42463 14.007 6.48185C14.001 6.49485 13.9951 6.50767 13.9886 6.51959C13.9239 6.63686 13.8634 6.75647 13.8028 6.87605C13.759 6.96242 13.7153 7.04877 13.67 7.1342C12.966 8.47051 12.2891 9.82042 11.6122 11.1703L11.6122 11.1705L11.6121 11.1706L11.612 11.1708L11.6119 11.171C11.2059 11.9807 10.7999 12.7904 10.388 13.5972C10.3027 13.7643 10.2174 13.935 10.1634 14.1126C10.0572 14.4677 10.1791 14.769 10.4542 15.0023C10.7258 15.2338 11.0288 15.3157 11.3752 15.152C11.7165 14.9918 11.861 14.6958 11.955 14.3598L12.3449 12.9651C12.9409 10.8327 13.5368 8.70112 14.1314 6.56835C14.1354 6.5538 14.141 6.53907 14.1467 6.52413ZM11.0671 13.8949C11.3369 13.9036 11.4832 14.0621 11.4762 14.3389C11.4693 14.6297 11.2986 14.7968 11.0166 14.7881C10.7676 14.7811 10.5813 14.5914 10.583 14.3493C10.5848 14.0655 10.7763 13.8862 11.0671 13.8949ZM9.36426 4.39384C9.37645 4.67242 9.23019 4.75251 9.04912 4.79603L8.99763 4.80862C8.61609 4.90185 8.2349 4.99499 7.86168 5.12162C7.44556 5.26439 7.04162 5.4385 6.64465 5.62654C6.43572 5.72579 6.27902 5.70663 6.13625 5.52034L6.10096 5.4743C5.88456 5.19202 5.66837 4.91001 5.48507 4.60451C5.34927 4.37817 5.37016 4.23714 5.57387 4.07696C6.40612 3.4223 7.31498 2.89997 8.30218 2.51519C8.57554 2.40898 8.74791 2.4734 8.84019 2.73805C8.98322 3.14596 9.11014 3.55992 9.23703 3.9738C9.27695 4.10402 9.31687 4.23423 9.35729 4.36424C9.36076 4.37463 9.36257 4.38585 9.36327 4.39384H9.36426ZM5.75706 6.08262C5.87371 6.01123 5.94162 5.90154 5.95206 5.73614V5.7344C5.94765 5.7236 5.94337 5.7106 5.93868 5.69635L5.93868 5.69635C5.92674 5.66004 5.91216 5.6157 5.8859 5.57944C5.84845 5.52714 5.81119 5.47471 5.77394 5.42229C5.61897 5.20421 5.46411 4.98628 5.29566 4.77853C5.08499 4.52084 4.92481 4.5104 4.67061 4.72455C4.25448 5.07278 3.87666 5.46104 3.51277 5.8615C3.21156 6.19231 2.9208 6.53182 2.67182 6.90616C2.45418 7.23349 2.47681 7.38496 2.78499 7.61827C2.85367 7.67003 2.92519 7.71837 2.99696 7.76688L2.99697 7.76689L2.99698 7.7669C3.05074 7.80324 3.10464 7.83967 3.15759 7.8777C3.33344 8.0048 3.49014 7.97694 3.63987 7.82721C4.28582 7.17429 4.97356 6.56839 5.75706 6.08262ZM1.24356 11.219C0.839622 11.2225 0.615019 10.9439 0.738638 10.5713C1.03637 9.67118 1.41245 8.80759 1.93826 8.01538C2.19072 7.63582 2.28474 7.61841 2.67301 7.86217C3.19186 8.18949 3.20753 8.28003 2.83319 8.76232C2.35372 9.38272 2.00686 10.08 1.66083 10.7756L1.58307 10.9317C1.47164 11.1546 1.39852 11.2173 1.24356 11.219ZM0.435939 11.7535C0.195667 12.7285 0.0145915 13.7123 0.00414487 14.7221C-0.0115251 15.0581 0.000662644 15.0703 0.345402 15.0738C0.349982 15.0738 0.35475 15.0736 0.359583 15.0734C0.369448 15.073 0.379581 15.0726 0.388929 15.0738C0.608309 15.1139 0.681435 15.0007 0.693623 14.7987C0.712775 14.4679 0.73715 14.1371 0.775455 13.808C0.852064 13.1534 1.02443 12.5214 1.22814 11.8963C1.31346 11.6369 1.22118 11.4575 0.966977 11.3722C0.709293 11.2852 0.521253 11.4088 0.435939 11.7535Z" fill="#1C4481"/>
</svg>
