<svg width="17" height="17" viewBox="0 0 24 24" fill="none" xmlns="http://www.w3.org/2000/svg">
<g clip-path="url(#clip0_100_4368)">
<path d="M15 6C15 6.53043 15.2107 7.03914 15.5858 7.41421C15.9609 7.78929 16.4696 8 17 8C17.5304 8 18.0391 7.78929 18.4142 7.41421C18.7893 7.03914 19 6.53043 19 6C19 5.46957 18.7893 4.96086 18.4142 4.58579C18.0391 4.21071 17.5304 4 17 4C16.4696 4 15.9609 4.21071 15.5858 4.58579C15.2107 4.96086 15 5.46957 15 6Z" stroke="#1C4481" stroke-width="2" stroke-linecap="round" stroke-linejoin="round"/>
<path d="M8.99956 11C8.14114 10.9852 7.29337 11.1916 6.53788 11.5994C5.7824 12.0073 5.14466 12.6028 4.68608 13.3286C4.22751 14.0544 3.96355 14.8861 3.91963 15.7435C3.87572 16.6009 4.05332 17.4552 4.43533 18.2241C4.81735 18.9929 5.39091 19.6505 6.10077 20.1334C6.81063 20.6163 7.63287 20.9083 8.48831 20.9812C9.34375 21.0541 10.2036 20.9056 10.9849 20.5498C11.7663 20.1941 12.4429 19.6431 12.9496 18.95" stroke="#1C4481" stroke-width="2" stroke-linecap="round" stroke-linejoin="round"/>
<path d="M19 20L15 15H11L14 10L10 7L6 8" stroke="#1C4481" stroke-width="2" stroke-linecap="round" stroke-linejoin="round"/>
</g>
<defs>
<clipPath id="clip0_100_4368">
<rect width="24" height="24" fill="white"/>
</clipPath>
</defs>
</svg>
