<svg width="17" height="17" viewBox="0 0 24 25" fill="none" xmlns="http://www.w3.org/2000/svg">
<path d="M21 17.4004V6.36974C21 6.05138 20.6785 5.83369 20.3829 5.95193L16.1351 7.65104C16.0473 7.68617 15.9506 7.69273 15.8588 7.66979L8.14116 5.74037C8.04939 5.71743 7.95273 5.72399 7.8649 5.75912L3.28287 7.59193C3.11203 7.66027 3 7.82574 3 8.00974V19.0404C3 19.3588 3.32154 19.5765 3.61713 19.4582L7.8649 17.7591C7.95273 17.724 8.04939 17.7174 8.14117 17.7404L15.8588 19.6698C15.9506 19.6927 16.0473 19.6862 16.1351 19.651L20.7171 17.8182C20.888 17.7499 21 17.5844 21 17.4004Z" stroke="#1C4481" stroke-width="2" stroke-linejoin="round"/>
<path d="M16 19.7051V7.70508" stroke="#1C4481" stroke-width="2"/>
<path d="M8 17.7051L8 5.70508" stroke="#1C4481" stroke-width="2"/>
</svg>
