<svg width="56" height="55" viewBox="0 0 56 55" fill="none" xmlns="http://www.w3.org/2000/svg">
<path d="M30.6849 6.875H21.125C16.8038 6.875 14.6432 6.875 13.3008 8.21743C11.9584 9.55985 11.9584 11.7205 11.9584 16.0417V38.9583C11.9584 43.2795 11.9584 45.4401 13.3008 46.7826C14.6432 48.125 16.8038 48.125 21.125 48.125H34.875C39.1963 48.125 41.3569 48.125 42.6993 46.7826C44.0417 45.4401 44.0417 43.2795 44.0417 38.9583V20.2318C44.0417 19.2951 44.0417 18.8267 43.8673 18.4056C43.6928 17.9844 43.3616 17.6533 42.6993 16.9909L33.9258 8.21743C33.2634 7.55507 32.9323 7.22389 32.5111 7.04944C32.09 6.875 31.6216 6.875 30.6849 6.875Z" stroke="#1C4481" stroke-width="4"/>
<path d="M21.125 29.792L34.875 29.792" stroke="#1C4481" stroke-width="4" stroke-linecap="round"/>
<path d="M21.125 38.958L30.2917 38.958" stroke="#1C4481" stroke-width="4" stroke-linecap="round"/>
<path d="M30.2916 6.875V16.0417C30.2916 18.2023 30.2916 19.2826 30.9628 19.9538C31.6341 20.625 32.7144 20.625 34.875 20.625H44.0416" stroke="#1C4481" stroke-width="4"/>
</svg>
