<svg width="43" height="44" viewBox="0 0 43 44" fill="none" xmlns="http://www.w3.org/2000/svg">
<circle cx="21.25" cy="22" r="20.25" stroke="#1C4481" stroke-width="2"/>
<path d="M12.125 20.4584V20.4584C12.125 21.5078 12.125 22.0325 12.317 22.4385C12.5149 22.8568 12.8516 23.1935 13.2699 23.3914C13.6759 23.5834 14.2006 23.5834 15.25 23.5834H15.9536C16.5886 23.5834 16.9061 23.5834 17.153 23.742C17.1831 23.7613 17.2121 23.7822 17.2398 23.8046C17.4684 23.9887 17.5688 24.2899 17.7696 24.8923L17.9192 25.3408C18.1392 26.0008 18.2492 26.3309 18.511 26.5196C18.7729 26.7084 19.1208 26.7084 19.8165 26.7084H23.1835C23.8792 26.7084 24.2271 26.7084 24.489 26.5196C24.7508 26.3309 24.8608 26.0008 25.0808 25.3408L25.2304 24.8923C25.4312 24.2899 25.5316 23.9887 25.7602 23.8046C25.7879 23.7822 25.8169 23.7613 25.847 23.742C26.0939 23.5834 26.4114 23.5834 27.0464 23.5834H27.75C28.7994 23.5834 29.3241 23.5834 29.7301 23.3914C30.1484 23.1935 30.4851 22.8568 30.683 22.4385C30.875 22.0325 30.875 21.5078 30.875 20.4584V20.4584" stroke="#1C4481" stroke-width="2"/>
<path d="M17.3333 18.375L21.4999 21.5M21.4999 21.5L25.6666 18.375M21.4999 21.5L21.4999 11.0833" stroke="#1C4481" stroke-width="2"/>
<path d="M25.6667 14.2084H26.875C28.7606 14.2084 29.7034 14.2084 30.2892 14.7942C30.875 15.3799 30.875 16.3228 30.875 18.2084V26.875C30.875 28.7607 30.875 29.7035 30.2892 30.2893C29.7034 30.875 28.7606 30.875 26.875 30.875H16.125C14.2394 30.875 13.2966 30.875 12.7108 30.2893C12.125 29.7035 12.125 28.7607 12.125 26.875V18.2084C12.125 16.3228 12.125 15.3799 12.7108 14.7942C13.2966 14.2084 14.2394 14.2084 16.125 14.2084H17.3333" stroke="#1C4481" stroke-width="2"/>
</svg>
