<svg width="25" height="25" viewBox="0 0 25 25" fill="none" xmlns="http://www.w3.org/2000/svg">
<mask id="path-1-outside-1_241_13336" maskUnits="userSpaceOnUse" x="3.5" y="4.89844" width="17" height="17" fill="black">
<rect fill="white" x="3.5" y="4.89844" width="17" height="17"/>
<path d="M14.0858 8.31265L6.89171 15.5067C6.69706 15.7014 6.59974 15.7987 6.53276 15.917C6.46579 16.0353 6.43241 16.1688 6.36564 16.4359L5.70211 19.09C5.61186 19.451 5.56673 19.6315 5.66682 19.7316C5.7669 19.8317 5.94742 19.7866 6.30844 19.6963L6.30845 19.6963L8.96257 19.0328C9.22963 18.966 9.36316 18.9326 9.48145 18.8657C9.59974 18.7987 9.69706 18.7014 9.89171 18.5067L17.0858 11.3127L17.0858 11.3126C17.7525 10.646 18.0858 10.3127 18.0858 9.89844C18.0858 9.48422 17.7525 9.15089 17.0858 8.48422L16.9142 8.31265C16.2475 7.64598 15.9142 7.31265 15.5 7.31265C15.0858 7.31265 14.7525 7.64598 14.0858 8.31265Z"/>
</mask>
<path d="M6.89171 15.5067L8.30593 16.9209L8.30593 16.9209L6.89171 15.5067ZM14.0858 8.31265L12.6716 6.89844L12.6716 6.89844L14.0858 8.31265ZM16.9142 8.31265L15.5 9.72686L15.5 9.72687L16.9142 8.31265ZM17.0858 8.48422L18.5 7.07001L18.5 7.07001L17.0858 8.48422ZM17.0858 11.3127L18.5 12.7269L18.5 12.7269L17.0858 11.3127ZM9.89171 18.5067L8.4775 17.0925L8.4775 17.0925L9.89171 18.5067ZM6.36564 16.4359L8.30593 16.9209L8.30593 16.9209L6.36564 16.4359ZM5.70211 19.09L3.76183 18.6049L3.76183 18.6049L5.70211 19.09ZM6.30845 19.6963L5.82338 17.756L5.73624 17.7778L5.65141 17.8073L6.30845 19.6963ZM8.96257 19.0328L8.47751 17.0925L8.4775 17.0925L8.96257 19.0328ZM5.66682 19.7316L7.08103 18.3174L7.08103 18.3174L5.66682 19.7316ZM6.30844 19.6963L6.79351 21.6366L6.88065 21.6148L6.96549 21.5853L6.30844 19.6963ZM9.48145 18.8657L8.49605 17.1253L8.49605 17.1253L9.48145 18.8657ZM17.0858 11.3126L18.5 12.7269L18.5 12.7269L17.0858 11.3126ZM6.53276 15.917L4.79236 14.9316L4.79236 14.9316L6.53276 15.917ZM8.30593 16.9209L15.5 9.72686L12.6716 6.89844L5.4775 14.0925L8.30593 16.9209ZM15.5 9.72687L15.6716 9.89844L18.5 7.07001L18.3284 6.89844L15.5 9.72687ZM15.6716 9.89844L8.4775 17.0925L11.3059 19.9209L18.5 12.7269L15.6716 9.89844ZM4.42536 15.9508L3.76183 18.6049L7.6424 19.5751L8.30593 16.9209L4.42536 15.9508ZM6.79352 21.6366L9.44764 20.9731L8.4775 17.0925L5.82338 17.756L6.79352 21.6366ZM3.76183 18.6049C3.733 18.7202 3.65055 19.028 3.62259 19.3139C3.5922 19.6246 3.56509 20.4583 4.2526 21.1458L7.08103 18.3174C7.34671 18.5831 7.49914 18.8989 7.56644 19.1913C7.62513 19.4462 7.60965 19.6413 7.60358 19.7034C7.59698 19.7708 7.58792 19.8025 7.597 19.7615C7.60537 19.7238 7.61788 19.6731 7.6424 19.5751L3.76183 18.6049ZM5.65141 17.8073L5.6514 17.8073L6.96549 21.5853L6.96549 21.5853L5.65141 17.8073ZM5.82338 17.756C5.72531 17.7806 5.67467 17.7931 5.63694 17.8014C5.59595 17.8105 5.62762 17.8015 5.69506 17.7949C5.75712 17.7888 5.95223 17.7733 6.20717 17.832C6.49955 17.8993 6.81535 18.0517 7.08103 18.3174L4.2526 21.1458C4.94011 21.8333 5.77387 21.8062 6.08449 21.7759C6.37039 21.7479 6.67822 21.6654 6.79351 21.6366L5.82338 17.756ZM8.4775 17.0925C8.45279 17.1172 8.4317 17.1383 8.41214 17.1578C8.39271 17.1771 8.37671 17.1929 8.36293 17.2064C8.34916 17.2199 8.33911 17.2296 8.33172 17.2366C8.32812 17.24 8.32545 17.2425 8.3236 17.2442C8.32176 17.2459 8.3209 17.2467 8.32092 17.2467C8.32094 17.2467 8.32198 17.2457 8.32395 17.244C8.32592 17.2423 8.32893 17.2397 8.33291 17.2364C8.34086 17.2298 8.35292 17.2201 8.36866 17.2083C8.38455 17.1964 8.40362 17.1828 8.42564 17.1683C8.44776 17.1537 8.47131 17.1393 8.49605 17.1253L10.4668 20.6061C10.876 20.3744 11.1864 20.0405 11.3059 19.9209L8.4775 17.0925ZM9.44764 20.9731C9.61169 20.9321 10.0577 20.8377 10.4669 20.6061L8.49605 17.1253C8.52079 17.1113 8.5453 17.0985 8.56917 17.087C8.59292 17.0756 8.61438 17.0662 8.63277 17.0587C8.65098 17.0513 8.66553 17.046 8.67529 17.0426C8.68017 17.0409 8.68394 17.0396 8.68642 17.0388C8.6889 17.038 8.69024 17.0376 8.69026 17.0376C8.69028 17.0376 8.68918 17.0379 8.68677 17.0386C8.68435 17.0393 8.68084 17.0403 8.67606 17.0416C8.66625 17.0444 8.65278 17.048 8.63414 17.0529C8.61548 17.0578 8.59368 17.0633 8.5671 17.07C8.54034 17.0768 8.5114 17.084 8.47751 17.0925L9.44764 20.9731ZM15.6716 9.89844C15.8435 10.0704 15.9698 10.1969 16.0738 10.3063C16.1786 10.4164 16.2263 10.4736 16.2457 10.4992C16.2644 10.5237 16.2226 10.4748 16.1774 10.3663C16.1254 10.2418 16.0858 10.0795 16.0858 9.89844H20.0858C20.0858 9.07821 19.7282 8.46918 19.4258 8.07284C19.1586 7.72264 18.7934 7.36336 18.5 7.07001L15.6716 9.89844ZM18.5 12.7269L18.5 12.7269L15.6716 9.89843L15.6716 9.89844L18.5 12.7269ZM18.5 12.7269C18.7934 12.4335 19.1586 12.0742 19.4258 11.724C19.7282 11.3277 20.0858 10.7187 20.0858 9.89844H16.0858C16.0858 9.71742 16.1254 9.55512 16.1774 9.43062C16.2226 9.32206 16.2644 9.2732 16.2457 9.29771C16.2263 9.32326 16.1786 9.38044 16.0738 9.49059C15.9698 9.60001 15.8435 9.72651 15.6716 9.89843L18.5 12.7269ZM15.5 9.72686C15.6719 9.55494 15.7984 9.42863 15.9078 9.32459C16.018 9.21986 16.0752 9.17218 16.1007 9.15269C16.1252 9.13399 16.0764 9.1758 15.9678 9.22107C15.8433 9.27299 15.681 9.31265 15.5 9.31265V5.31265C14.6798 5.31265 14.0707 5.6702 13.6744 5.97261C13.3242 6.2398 12.9649 6.60508 12.6716 6.89844L15.5 9.72686ZM18.3284 6.89844C18.0351 6.60508 17.6758 6.2398 17.3256 5.97261C16.9293 5.6702 16.3202 5.31265 15.5 5.31265V9.31265C15.319 9.31265 15.1567 9.27299 15.0322 9.22107C14.9236 9.1758 14.8748 9.13399 14.8993 9.15269C14.9248 9.17219 14.982 9.21986 15.0922 9.32459C15.2016 9.42863 15.3281 9.55494 15.5 9.72686L18.3284 6.89844ZM5.4775 14.0925C5.35793 14.2121 5.02401 14.5225 4.79236 14.9316L8.27316 16.9024C8.25915 16.9271 8.2447 16.9507 8.23014 16.9728C8.21565 16.9948 8.20207 17.0139 8.19016 17.0298C8.17837 17.0455 8.16863 17.0576 8.16202 17.0655C8.15871 17.0695 8.15613 17.0725 8.15442 17.0745C8.15271 17.0765 8.15178 17.0775 8.15176 17.0775C8.15174 17.0775 8.15252 17.0767 8.15422 17.0748C8.15593 17.073 8.15842 17.0703 8.16184 17.0667C8.16884 17.0593 8.17852 17.0493 8.192 17.0355C8.2055 17.0217 8.22132 17.0057 8.24066 16.9863C8.26013 16.9667 8.28122 16.9456 8.30593 16.9209L5.4775 14.0925ZM8.30593 16.9209C8.3144 16.887 8.32164 16.8581 8.32839 16.8313C8.3351 16.8048 8.34068 16.783 8.34556 16.7643C8.35043 16.7457 8.35407 16.7322 8.3568 16.7224C8.35813 16.7176 8.35914 16.7141 8.35984 16.7117C8.36054 16.7093 8.36088 16.7082 8.36088 16.7082C8.36087 16.7082 8.36046 16.7095 8.35965 16.712C8.35884 16.7145 8.35758 16.7183 8.35588 16.7231C8.35246 16.7329 8.34713 16.7475 8.3397 16.7657C8.3322 16.7841 8.32284 16.8055 8.31141 16.8293C8.29993 16.8531 8.28717 16.8776 8.27316 16.9024L4.79236 14.9316C4.56071 15.3407 4.46637 15.7867 4.42536 15.9508L8.30593 16.9209Z" fill="#33363F" mask="url(#path-1-outside-1_241_13336)"/>
<path d="M13 8.39844L16 6.39844L19 9.39844L17 12.3984L13 8.39844Z" fill="#33363F"/>
</svg>
