<svg width="17" height="17" viewBox="0 0 25 24" fill="none" xmlns="http://www.w3.org/2000/svg">
<path d="M4.5 10.4721C4.5 9.26932 4.5 8.66791 4.7987 8.18461C5.0974 7.7013 5.63531 7.43234 6.71115 6.89443L10.7111 4.89443C11.589 4.45552 12.0279 4.23607 12.5 4.23607C12.9721 4.23607 13.411 4.45552 14.2889 4.89443L18.2889 6.89443C19.3647 7.43234 19.9026 7.7013 20.2013 8.18461C20.5 8.66791 20.5 9.26932 20.5 10.4721V16C20.5 17.8856 20.5 18.8284 19.9142 19.4142C19.3284 20 18.3856 20 16.5 20H8.5C6.61438 20 5.67157 20 5.08579 19.4142C4.5 18.8284 4.5 17.8856 4.5 16V10.4721Z" stroke="#1C4481" stroke-width="2"/>
<path d="M4.5 10L6.91421 12.4142C7.28929 12.7893 7.79799 13 8.32843 13H16.6716C17.202 13 17.7107 12.7893 18.0858 12.4142L20.5 10" stroke="#1C4481" stroke-width="2" stroke-linecap="round"/>
</svg>
