<svg width="17" height="17" viewBox="0 0 20 19" fill="none" xmlns="http://www.w3.org/2000/svg">
<g clip-path="url(#clip0_208_1633)">
<path d="M18.4766 19H0.429687C0.241025 18.9153 0.0891538 18.771 0 18.5918V0.408203C0.0885738 0.228586 0.240617 0.0841451 0.429687 0H11.3281C11.4458 0.0836198 11.5755 0.155365 11.6786 0.252839C12.7948 1.30724 13.9052 2.36758 15.0219 3.42198C15.1062 3.49811 15.1725 3.59044 15.2163 3.69283C15.2602 3.79521 15.2805 3.90529 15.276 4.01573C15.2698 5.59906 15.2729 7.1824 15.2734 8.76227V8.98146C15.5969 8.98146 15.8896 8.98146 16.1823 8.98146C17.0333 8.98393 17.6146 9.53513 17.6177 10.3431C17.6177 10.6257 17.6177 10.9082 17.6177 11.2065C18.1625 11.2065 18.6885 11.2209 19.213 11.2016C19.5776 11.1882 19.8443 11.2931 19.9995 11.6147V17.5522C19.9854 17.5992 19.9698 17.6458 19.9573 17.6933C19.8068 18.2588 19.451 18.6581 18.8833 18.8808C18.75 18.927 18.6142 18.9668 18.4766 19ZM1.1849 1.12219V17.8748H9.52083C9.49792 17.7056 9.45781 17.5473 9.45729 17.389C9.45174 15.515 9.45035 13.6412 9.45312 11.7676C9.45312 11.443 9.70469 11.212 10.0505 11.2085C10.5193 11.2036 10.988 11.2085 11.4568 11.2085H11.7578C11.7578 10.9225 11.7578 10.6578 11.7578 10.3931C11.7578 9.51039 12.3115 8.98393 13.2365 8.98344H14.0859V4.45312H11.2615C10.8167 4.45312 10.5844 4.23542 10.5844 3.81534C10.5844 2.98673 10.5844 2.15795 10.5844 1.32901V1.12219H1.1849ZM10.6229 15.1743C10.6229 15.8947 10.6229 16.5923 10.6229 17.29C10.6229 17.6596 10.8667 17.8862 11.262 17.8867C13.5717 17.8867 15.8818 17.8867 18.1922 17.8867C18.5828 17.8867 18.8245 17.6557 18.826 17.2841C18.826 16.6285 18.826 15.9734 18.826 15.3178C18.826 15.2757 18.8203 15.2332 18.8161 15.1782L15.3193 15.5943C15.2484 16.003 15.049 16.2079 14.7286 16.2153C14.4083 16.2227 14.2078 16.0273 14.1068 15.5894L10.6229 15.1743ZM18.8224 12.3332H10.6354V14.0521L14.125 14.4662C14.2094 14.1877 14.3766 14.0031 14.6849 13.9902C15.0297 13.9764 15.2141 14.1763 15.3099 14.4702L18.8224 14.0521V12.3332ZM16.4464 11.2001C16.4464 10.9032 16.4464 10.6257 16.4464 10.3481C16.4464 10.1551 16.3823 10.0972 16.1766 10.0957C15.8839 10.0957 15.5911 10.0957 15.2984 10.0957C14.5964 10.0957 13.8922 10.0957 13.1917 10.0957C13.0625 10.0957 12.9411 10.117 12.9365 10.2605C12.926 10.5727 12.9333 10.8854 12.9333 11.2006L16.4464 11.2001ZM11.7677 3.325H13.1937L11.7677 1.96878V3.325Z" fill="white"/>
<path d="M7.63542 10.0773C6.89376 10.0773 6.15209 10.0773 5.41042 10.0773C4.91042 10.0773 4.68438 9.84569 4.71407 9.37119C4.75085 8.6788 5.05952 8.02467 5.57913 7.5379C6.09875 7.05114 6.79157 6.76711 7.52084 6.74187C9.00365 6.67507 10.3042 7.69632 10.5359 9.11687C10.6401 9.76009 10.4839 10.1134 9.68438 10.0847C9.00209 10.058 8.31824 10.0773 7.63542 10.0773ZM9.27084 8.95556C9.07084 8.23811 8.2573 7.77548 7.39115 7.86702C6.74844 7.9353 6.04792 8.48996 6.02344 8.95556H9.27084Z" fill="white"/>
<path d="M9.39115 5.07278C9.37917 5.94114 8.6698 6.73429 7.62292 6.72142C6.53855 6.70806 5.86823 5.88374 5.8823 5.02726C5.88524 4.80577 5.93455 4.58704 6.02736 4.38384C6.12017 4.18063 6.25462 3.99701 6.42288 3.84366C6.59114 3.69031 6.78983 3.5703 7.0074 3.49063C7.22496 3.41096 7.45704 3.37321 7.69011 3.3796C8.15053 3.39407 8.58661 3.57952 8.90468 3.89611C9.22274 4.2127 9.3974 4.63518 9.39115 5.07278ZM7.63751 4.49189C7.48299 4.49319 7.33519 4.55211 7.22598 4.65595C7.11676 4.7598 7.05487 4.90026 7.05365 5.04705C7.05378 5.19396 7.11499 5.33487 7.22394 5.43912C7.3329 5.54337 7.48079 5.60251 7.63542 5.60369C7.79006 5.60304 7.93817 5.54439 8.04751 5.44051C8.15686 5.33663 8.21859 5.19593 8.21928 5.04903C8.21874 4.90219 8.15742 4.76145 8.04857 4.65721C7.93971 4.55296 7.79206 4.49358 7.63751 4.49189Z" fill="white"/>
<path d="M6.19374 12.3203C5.72499 12.3203 5.25624 12.3203 4.78749 12.3203C4.40676 12.3203 4.1427 12.0937 4.13906 11.7706C4.13489 11.4391 4.39947 11.2085 4.79322 11.208C5.72274 11.208 6.65242 11.208 7.58228 11.208C7.9776 11.208 8.24218 11.4346 8.2401 11.7666C8.23801 12.0986 7.97708 12.3203 7.57864 12.3203H6.19374Z" fill="white"/>
<path d="M6.21197 13.3964C6.67343 13.3964 7.13541 13.3964 7.59687 13.3964C7.97864 13.3964 8.2401 13.6226 8.24218 13.9481C8.24427 14.2737 7.98177 14.5077 7.60572 14.5087C6.66232 14.5087 5.71944 14.5087 4.77708 14.5087C4.40208 14.5087 4.13802 14.2717 4.14114 13.9471C4.14427 13.6226 4.40729 13.3974 4.78802 13.3964C5.26041 13.3954 5.7375 13.3964 6.21197 13.3964Z" fill="white"/>
<path d="M6.19011 15.6216C6.65886 15.6216 7.12761 15.6216 7.59636 15.6216C7.98073 15.6216 8.24063 15.8452 8.24375 16.1713C8.24688 16.4974 7.98334 16.7339 7.58959 16.7344C6.66007 16.7344 5.73021 16.7344 4.8 16.7344C4.40782 16.7344 4.14063 16.5048 4.14271 16.1743C4.1448 15.8438 4.40886 15.6226 4.80677 15.6216C5.26789 15.6209 5.729 15.6209 6.19011 15.6216Z" fill="white"/>
<path d="M3.5224 11.731C3.52157 11.8775 3.45957 12.0178 3.35001 12.1209C3.24045 12.2241 3.09228 12.2817 2.93802 12.2812C2.78403 12.2775 2.63757 12.2171 2.52953 12.1128C2.42148 12.0085 2.36029 11.8684 2.35886 11.7221C2.36251 11.5756 2.42603 11.4362 2.53598 11.3334C2.64592 11.2306 2.79367 11.1725 2.94792 11.1714C3.02432 11.1723 3.09978 11.1875 3.17 11.2161C3.24022 11.2447 3.30382 11.2862 3.35717 11.3381C3.41052 11.3901 3.45257 11.4516 3.48092 11.519C3.50927 11.5864 3.52336 11.6584 3.5224 11.731Z" fill="white"/>
<path d="M3.52239 13.962C3.52006 14.1083 3.45673 14.2478 3.34631 14.3498C3.23588 14.4519 3.08736 14.5081 2.93333 14.5063C2.77959 14.5011 2.63394 14.4395 2.52707 14.3344C2.4202 14.2293 2.36045 14.0889 2.36041 13.9427C2.36568 13.7965 2.43058 13.658 2.54137 13.5565C2.65217 13.4549 2.80019 13.3982 2.95416 13.3984C3.10815 13.4017 3.25448 13.4629 3.36102 13.5685C3.46756 13.6742 3.5256 13.8157 3.52239 13.962Z" fill="white"/>
<path d="M3.5224 16.1752C3.52365 16.3218 3.46363 16.4628 3.35554 16.5674C3.24744 16.6719 3.10009 16.7314 2.94583 16.7329C2.79163 16.7308 2.64426 16.6721 2.53477 16.5689C2.42528 16.4657 2.36221 16.3262 2.35886 16.1797C2.36046 16.0333 2.42206 15.8933 2.53059 15.7893C2.63912 15.6854 2.78603 15.6257 2.94011 15.623C3.01654 15.6229 3.09227 15.637 3.16294 15.6647C3.23361 15.6923 3.29784 15.733 3.35194 15.7843C3.40604 15.8356 3.44894 15.8965 3.47819 15.9636C3.50744 16.0307 3.52247 16.1026 3.5224 16.1752Z" fill="white"/>
</g>
<defs>
<clipPath id="clip0_208_1633">
<rect width="20" height="19" fill="white"/>
</clipPath>
</defs>
</svg>
