<svg width="52" height="52" viewBox="0 0 52 52" fill="none" xmlns="http://www.w3.org/2000/svg">
<rect width="52" height="52" rx="26" fill="#DDF9F7"/>
<path fill-rule="evenodd" clip-rule="evenodd" d="M28.9993 40.0832L36.1327 34.7332C38.1471 33.2223 39.3327 30.8512 39.3327 28.3332V17.6665C39.3327 16.5619 38.4373 15.6665 37.3327 15.6665H14.666C13.5614 15.6665 12.666 16.5619 12.666 17.6665V28.3332C12.666 30.8512 13.8516 33.2223 15.866 34.7332L22.9993 40.0832C24.7771 41.4165 27.2216 41.4165 28.9993 40.0832ZM22.666 25.6665C22.666 26.587 21.9198 27.3332 20.9993 27.3332C20.0789 27.3332 19.3327 26.587 19.3327 25.6665C19.3327 24.746 20.0789 23.9998 20.9993 23.9998C21.9198 23.9998 22.666 24.746 22.666 25.6665ZM27.666 25.6665C27.666 26.587 26.9198 27.3332 25.9993 27.3332C25.0789 27.3332 24.3327 26.587 24.3327 25.6665C24.3327 24.746 25.0789 23.9998 25.9993 23.9998C26.9198 23.9998 27.666 24.746 27.666 25.6665ZM30.9993 27.3332C31.9198 27.3332 32.666 26.587 32.666 25.6665C32.666 24.746 31.9198 23.9998 30.9993 23.9998C30.0789 23.9998 29.3327 24.746 29.3327 25.6665C29.3327 26.587 30.0789 27.3332 30.9993 27.3332Z" fill="#19DCCD"/>
</svg>
