<svg width="53" height="52" viewBox="0 0 53 52" fill="none" xmlns="http://www.w3.org/2000/svg">
<rect x="0.5" width="52" height="52" rx="26" fill="#B8FEB7"/>
<path fill-rule="evenodd" clip-rule="evenodd" d="M20.0834 30.6667H31.1667C33.3666 30.6667 34.4666 30.6667 35.15 29.9832C35.8334 29.2998 35.8334 28.1999 35.8334 26V20.1667C35.8334 17.9668 35.8334 16.8668 35.15 16.1834C34.4666 15.5 33.3666 15.5 31.1667 15.5H21.8334C19.6335 15.5 18.5336 15.5 17.8502 16.1834C17.1667 16.8668 17.1667 17.9668 17.1667 20.1667V33.5833C17.1667 31.9725 18.4726 30.6667 20.0834 30.6667ZM31.4143 22.7475C32.1953 21.9665 32.1953 20.7002 31.4143 19.9191C30.6332 19.1381 29.3669 19.1381 28.5859 19.9191L25.3334 23.1716L24.4143 22.2525C23.6332 21.4714 22.3669 21.4714 21.5859 22.2525C20.8048 23.0335 20.8048 24.2998 21.5859 25.0809L23.2121 26.7071C24.3837 27.8787 26.2832 27.8787 27.4547 26.7071L31.4143 22.7475Z" fill="#5C9F44"/>
<path d="M35.15 29.9832L34.4429 29.2761L34.4429 29.2761L35.15 29.9832ZM35.15 16.1834L34.4429 16.8905L34.4429 16.8905L35.15 16.1834ZM31.4143 22.7475L32.1214 23.4547V23.4547L31.4143 22.7475ZM28.5859 19.9191L27.8788 19.212L28.5859 19.9191ZM25.3334 23.1716L24.6263 23.8787L25.3334 24.5858L26.0405 23.8787L25.3334 23.1716ZM21.5859 22.2525L20.8788 21.5453L20.8788 21.5453L21.5859 22.2525ZM21.5859 25.0809L22.293 24.3738H22.293L21.5859 25.0809ZM23.2121 26.7071L23.9192 26L23.2121 26.7071ZM27.4547 26.7071L26.7476 26L27.4547 26.7071ZM31.1667 29.6667H20.0834V31.6667H31.1667V29.6667ZM34.4429 29.2761C34.3179 29.4011 34.1183 29.5196 33.5938 29.5902C33.0405 29.6645 32.295 29.6667 31.1667 29.6667V31.6667C32.2384 31.6667 33.1428 31.6688 33.8603 31.5723C34.6066 31.472 35.2986 31.2488 35.8571 30.6904L34.4429 29.2761ZM34.8334 26C34.8334 27.1282 34.8313 27.8738 34.7569 28.4271C34.6864 28.9516 34.5678 29.1512 34.4429 29.2761L35.8571 30.6904C36.4156 30.1319 36.6387 29.4398 36.7391 28.6935C36.8355 27.976 36.8334 27.0717 36.8334 26H34.8334ZM34.8334 20.1667V26H36.8334V20.1667H34.8334ZM34.4429 16.8905C34.5678 17.0155 34.6864 17.2151 34.7569 17.7396C34.8313 18.2929 34.8334 19.0385 34.8334 20.1667H36.8334C36.8334 19.095 36.8355 18.1906 36.7391 17.4731C36.6387 16.7268 36.4156 16.0348 35.8571 15.4763L34.4429 16.8905ZM31.1667 16.5C32.295 16.5 33.0405 16.5021 33.5938 16.5765C34.1183 16.647 34.3179 16.7656 34.4429 16.8905L35.8571 15.4763C35.2986 14.9178 34.6066 14.6947 33.8603 14.5943C33.1428 14.4979 32.2384 14.5 31.1667 14.5V16.5ZM21.8334 16.5H31.1667V14.5H21.8334V16.5ZM18.5573 16.8905C18.6822 16.7656 18.8819 16.647 19.4064 16.5765C19.9596 16.5021 20.7052 16.5 21.8334 16.5V14.5C20.7617 14.5 19.8574 14.4979 19.1399 14.5943C18.3936 14.6947 17.7015 14.9178 17.1431 15.4763L18.5573 16.8905ZM18.1667 20.1667C18.1667 19.0385 18.1689 18.2929 18.2433 17.7396C18.3138 17.2151 18.4323 17.0155 18.5573 16.8905L17.1431 15.4763C16.5846 16.0348 16.3614 16.7268 16.2611 17.4731C16.1646 18.1906 16.1667 19.095 16.1667 20.1667H18.1667ZM18.1667 33.5833V20.1667H16.1667V33.5833H18.1667ZM20.0834 29.6667C17.9203 29.6667 16.1667 31.4202 16.1667 33.5833H18.1667C18.1667 32.5248 19.0249 31.6667 20.0834 31.6667V29.6667ZM30.7072 20.6262C31.0977 21.0168 31.0977 21.6499 30.7072 22.0404L32.1214 23.4547C33.293 22.2831 33.293 20.3836 32.1214 19.212L30.7072 20.6262ZM29.293 20.6262C29.6835 20.2357 30.3167 20.2357 30.7072 20.6262L32.1214 19.212C30.9498 18.0404 29.0503 18.0404 27.8788 19.212L29.293 20.6262ZM26.0405 23.8787L29.293 20.6262L27.8788 19.212L24.6263 22.4645L26.0405 23.8787ZM23.7072 22.9596L24.6263 23.8787L26.0405 22.4645L25.1214 21.5453L23.7072 22.9596ZM22.293 22.9596C22.6835 22.569 23.3167 22.569 23.7072 22.9596L25.1214 21.5453C23.9498 20.3738 22.0503 20.3738 20.8788 21.5453L22.293 22.9596ZM22.293 24.3738C21.9025 23.9832 21.9025 23.3501 22.293 22.9596L20.8788 21.5453C19.7072 22.7169 19.7072 24.6164 20.8788 25.788L22.293 24.3738ZM23.9192 26L22.293 24.3738L20.8788 25.788L22.505 27.4142L23.9192 26ZM26.7476 26C25.9666 26.781 24.7003 26.7811 23.9192 26L22.505 27.4142C24.0671 28.9763 26.5997 28.9763 28.1618 27.4142L26.7476 26ZM30.7072 22.0404L26.7476 26L28.1618 27.4142L32.1214 23.4547L30.7072 22.0404ZM25.3334 35.5H20.0834V37.5H25.3334V35.5ZM16.1667 33.5833C16.1667 35.7464 17.9203 37.5 20.0834 37.5V35.5C19.0249 35.5 18.1667 34.6419 18.1667 33.5833H16.1667Z" fill="#5C9F44"/>
<path d="M35.8334 36.5H24.1667" stroke="#5C9F44" stroke-width="2" stroke-linecap="round"/>
</svg>
