<svg width="17" height="17" viewBox="0 0 28 26" fill="none" xmlns="http://www.w3.org/2000/svg">
<path d="M27.997 17.5477C27.997 18.3317 27.9913 19.117 27.9999 19.9009C28.0042 20.2385 27.868 20.4673 27.5553 20.61C26.0767 21.2823 24.601 21.9589 23.1253 22.6355C22.9403 22.7202 22.7625 22.7231 22.5761 22.6383C22.0626 22.4067 21.5464 22.1835 21.0344 21.949C20.9082 21.8911 20.8049 21.8939 20.6845 21.9631C19.464 22.668 18.2422 23.37 17.0203 24.0706C16.2545 24.5084 15.4843 24.9378 14.7214 25.3813C14.4532 25.5381 14.2123 25.5395 13.9369 25.3856C11.8388 24.2132 9.73927 23.0395 7.65693 21.8417C7.49057 21.747 7.3572 21.7541 7.19227 21.8332C6.64157 22.0959 6.08227 22.3431 5.533 22.6058C5.30067 22.7174 5.08699 22.716 4.85179 22.6086C3.5238 22.0069 2.1829 21.4335 0.869244 20.8007C0.720095 20.7286 0.568079 20.6608 0.414628 20.5987C0.136409 20.4885 0.014509 20.2781 0.0102066 19.9956C0.00447014 19.5916 0.00590426 19.1876 0.00590426 18.7837C0.00590426 17.6071 0.0159431 16.4305 0.00016778 15.2525C-0.00556869 14.8344 0.134975 14.5801 0.548001 14.4036C1.93623 13.8075 3.30725 13.1719 4.6883 12.556C4.89051 12.4656 5.09129 12.347 5.33366 12.4134C5.38959 12.4289 5.42257 12.3908 5.42544 12.3343C5.42831 12.2877 5.42831 12.241 5.42831 12.1944C5.42831 11.2933 5.43548 10.3907 5.42401 9.48954C5.4197 9.14772 5.55308 8.92031 5.85281 8.74657C6.87246 8.15616 7.88208 7.5502 8.92182 6.9951C9.08531 6.90752 9.14267 6.803 9.14124 6.62079C9.13264 5.50776 9.14124 4.39614 9.13407 3.2831C9.1312 2.92151 9.25454 2.68562 9.6102 2.52884C11.0587 1.89181 12.4985 1.23642 13.9384 0.579616C14.1879 0.466618 14.4059 0.477917 14.6526 0.588091C16.0982 1.23218 17.5394 1.88475 18.9779 2.54437C19.3235 2.70398 19.4698 2.93139 19.4683 3.29299C19.4626 4.39896 19.4683 5.50634 19.4612 6.61232C19.4612 6.78746 19.5171 6.8821 19.6763 6.96685C20.7261 7.5276 21.7629 8.11237 22.7912 8.71126C23.0422 8.85816 23.1483 9.06862 23.1483 9.35111C23.144 10.3229 23.1497 11.2947 23.144 12.2665C23.144 12.4162 23.1913 12.4981 23.3333 12.5589C24.7789 13.1747 26.2015 13.84 27.6256 14.501C27.8909 14.6239 27.9985 14.8273 27.9985 15.1041C27.9985 15.9177 27.9985 16.7313 27.9985 17.5463L27.997 17.5477ZM21.9795 11.8498C21.9694 11.8498 21.958 11.8498 21.9479 11.8498C21.9479 11.1478 21.9465 10.4458 21.9494 9.74237C21.9494 9.6209 21.9035 9.54886 21.7988 9.48954C21.0702 9.08274 20.3431 8.67312 19.616 8.26068C19.5171 8.20559 19.454 8.17452 19.4196 8.32706C19.388 8.46973 19.2819 8.57142 19.1514 8.64064C19.0324 8.70561 18.9119 8.772 18.7886 8.82708C17.4175 9.44716 16.0422 10.063 14.6741 10.6887C14.4102 10.8088 14.1764 10.813 13.9097 10.6916C12.4512 10.0333 10.9927 9.37654 9.5471 8.68866C9.37787 8.60815 9.24306 8.50362 9.17996 8.32706C9.13837 8.21124 9.08388 8.18723 8.97058 8.25785C8.23631 8.71267 7.48483 9.14065 6.72618 9.55451C6.62006 9.61242 6.59281 9.68305 6.59281 9.79322C6.59568 10.789 6.59711 11.7848 6.59281 12.7792C6.59281 12.9162 6.63727 12.9925 6.76491 13.0476C7.32995 13.2933 7.89356 13.5434 8.45573 13.7962C8.95911 14.0222 9.45962 14.2524 9.96156 14.4812C10.1609 14.5716 10.3158 14.7016 10.3359 14.9332C10.3516 15.1253 10.366 15.3188 10.366 15.5109C10.3688 16.7002 10.3688 17.8881 10.366 19.0774C10.366 19.3811 10.366 19.6862 10.3488 19.9899C10.3316 20.2738 10.2097 20.4645 9.95295 20.5832C9.63028 20.7329 9.3076 20.8826 8.98779 21.038C8.92899 21.0662 8.82717 21.0719 8.83004 21.1566C8.8329 21.2216 8.92325 21.2371 8.97919 21.2682C10.6413 22.2019 12.3192 23.1087 13.9584 24.0819C14.218 24.2358 14.4045 24.2457 14.6741 24.0847C16.2244 23.1694 17.789 22.2795 19.3479 21.3812C19.3966 21.353 19.4798 21.336 19.4798 21.2767C19.4798 21.2117 19.3952 21.2061 19.345 21.182C18.942 20.9942 18.5405 20.8035 18.1346 20.6227C17.8091 20.4786 17.6628 20.2442 17.6656 19.891C17.6742 18.843 17.6685 17.7949 17.6699 16.7469C17.6699 16.22 17.6742 15.6931 17.6699 15.1663C17.6671 14.8287 17.789 14.5773 18.1289 14.4516C18.2508 14.4064 18.3641 14.34 18.4831 14.2863C19.5816 13.7821 20.6816 13.2778 21.7945 12.8046C21.9336 12.7453 21.9952 12.6676 21.9866 12.5137C21.9737 12.2919 21.9838 12.0687 21.9838 11.847L21.9795 11.8498ZM13.7032 7.45557C13.7032 6.89905 13.6974 6.34394 13.706 5.78743C13.7089 5.6377 13.6645 5.55154 13.5225 5.49222C13.1668 5.34391 12.8155 5.18712 12.4655 5.0261C11.7987 4.71959 11.1332 4.41026 10.4707 4.09386C10.3201 4.02183 10.29 4.05714 10.2971 4.20828C10.3072 4.41309 10.3014 4.61789 10.3014 4.8227C10.3014 5.74082 10.3014 6.66034 10.3014 7.57845C10.3014 7.67874 10.2943 7.77055 10.4162 7.82705C11.4616 8.30164 12.5157 8.7607 13.5483 9.26636C13.6817 9.33134 13.7075 9.28896 13.706 9.15902C13.7017 8.5912 13.7046 8.02338 13.7046 7.45698L13.7032 7.45557ZM14.8691 7.43297C14.8691 7.98948 14.8691 8.54459 14.8691 9.1011C14.8691 9.33275 14.8705 9.33558 15.0857 9.2367C16.1096 8.76776 17.1307 8.29599 18.1547 7.82846C18.245 7.7875 18.2751 7.72959 18.2751 7.63778C18.2737 6.49084 18.2723 5.3425 18.2737 4.19556C18.2737 4.08398 18.2522 4.04584 18.1317 4.10093C17.0963 4.57128 16.0594 5.04023 15.0211 5.50352C14.9064 5.55437 14.8662 5.62358 14.8662 5.74647C14.872 6.30863 14.8691 6.8708 14.8691 7.43297ZM5.75385 19.3275C5.75385 19.3275 5.76102 19.3275 5.76533 19.3275C5.76533 19.8953 5.76963 20.4631 5.76246 21.0295C5.76102 21.1905 5.80691 21.2089 5.94459 21.1467C6.97429 20.6778 8.00398 20.2117 9.03512 19.7456C9.13264 19.7018 9.17709 19.641 9.17709 19.5294C9.17279 18.4009 9.17136 17.2709 9.17566 16.1423C9.17566 15.9869 9.1355 15.9587 8.99209 16.0251C8.52457 16.2426 8.05418 16.4516 7.58379 16.6621C7.02735 16.9107 6.46948 17.1579 5.9116 17.4065C5.82412 17.446 5.74812 17.4828 5.74955 17.6071C5.75672 18.1805 5.75242 18.754 5.75242 19.326L5.75385 19.3275ZM26.8311 17.8373C26.8311 17.2935 26.8311 16.7497 26.8311 16.2045C26.8311 15.9276 26.8225 15.922 26.5744 16.0378C25.5705 16.5053 24.5681 16.9743 23.5627 17.439C23.4695 17.4813 23.4265 17.5336 23.4265 17.6367C23.4294 18.778 23.4294 19.9179 23.4265 21.0592C23.4265 21.1933 23.4667 21.2032 23.5828 21.1496C24.6082 20.6863 25.6236 20.2018 26.6647 19.771C26.7967 19.7173 26.8354 19.6396 26.834 19.504C26.8268 18.9489 26.8311 18.3924 26.8311 17.8359V17.8373ZM4.5707 19.3585C4.5707 18.7964 4.56784 18.2356 4.57214 17.6734C4.57214 17.5619 4.54489 17.4898 4.43446 17.439C3.4062 16.9658 2.38081 16.4898 1.35684 16.0095C1.21917 15.9446 1.16897 15.9601 1.16897 16.1225C1.17328 17.2525 1.17328 18.3811 1.16897 19.5111C1.16897 19.6509 1.22634 19.7244 1.34967 19.7752C1.61355 19.8826 1.87456 19.9941 2.13414 20.1114C2.89565 20.4546 3.65717 20.7978 4.41582 21.1481C4.55063 21.2103 4.57501 21.1764 4.57501 21.0436C4.5707 20.4815 4.57357 19.9207 4.57214 19.3585H4.5707ZM22.2347 19.3557C22.2347 18.7935 22.2319 18.2314 22.2376 17.6706C22.2376 17.5548 22.2003 17.4856 22.0928 17.439C21.8647 17.3401 21.6396 17.2327 21.4144 17.1282C20.6128 16.7582 19.8111 16.3881 19.0108 16.0166C18.9062 15.9686 18.8201 15.9248 18.8215 16.1056C18.8258 17.2469 18.8273 18.3882 18.8273 19.5294C18.8273 19.6311 18.8646 19.6919 18.9578 19.7342C19.9932 20.2046 21.0287 20.6764 22.0627 21.151C22.1975 21.2131 22.239 21.1877 22.2376 21.0408C22.2333 20.4786 22.2362 19.9165 22.2347 19.3557ZM14.2869 4.55998C14.3485 4.55998 14.4016 4.53597 14.4561 4.51196C15.1172 4.20828 15.7798 3.90318 16.4423 3.60091C16.7392 3.46531 17.0375 3.33819 17.3344 3.204C17.3688 3.18847 17.4247 3.18564 17.4175 3.12914C17.4118 3.091 17.3702 3.08112 17.3387 3.06558C17.3071 3.05004 17.2741 3.03451 17.2426 3.02038C16.2975 2.60935 15.3581 2.18843 14.4317 1.73785C14.3241 1.68559 14.2309 1.69406 14.1277 1.7435C13.6343 1.97515 13.141 2.20679 12.6448 2.43138C12.1816 2.64184 11.7141 2.84382 11.248 3.05004C11.2064 3.0684 11.1461 3.0797 11.1476 3.1362C11.1476 3.18282 11.2021 3.19412 11.2379 3.20965C12.2103 3.61786 13.1639 4.06562 14.1176 4.5162C14.1707 4.54162 14.2266 4.56281 14.2883 4.55998H14.2869ZM5.18881 13.6083C5.08842 13.614 5.01528 13.6549 4.94071 13.6888C4.02144 14.1154 3.10503 14.5434 2.17429 14.9459C2.1284 14.9657 2.05526 14.9728 2.05383 15.0349C2.05383 15.0971 2.1241 15.107 2.16999 15.1282C3.11938 15.559 4.0702 15.9869 5.01958 16.4192C5.14005 16.4742 5.24044 16.4601 5.3566 16.4064C6.29452 15.9785 7.2353 15.5575 8.17464 15.1338C8.22054 15.1126 8.29368 15.1112 8.29368 15.0462C8.29368 14.9827 8.22054 14.9756 8.17608 14.9544C7.22669 14.5236 6.27731 14.0942 5.32648 13.6648C5.27772 13.6436 5.22753 13.6253 5.19024 13.6112L5.18881 13.6083ZM25.9921 15.0674C25.9635 15.0039 25.9161 14.9897 25.8745 14.97C24.8965 14.5293 23.9184 14.09 22.9403 13.6493C22.8586 13.6126 22.7854 13.614 22.7023 13.6521C21.773 14.0716 20.8436 14.4869 19.9143 14.9078C19.8441 14.9403 19.7207 14.9488 19.725 15.0378C19.7293 15.1169 19.8527 15.1253 19.9229 15.1663C19.9588 15.1875 19.9975 15.2016 20.0362 15.2186C20.8666 15.5957 21.7041 15.9615 22.5259 16.3556C22.7453 16.4615 22.916 16.4502 23.1239 16.3528C23.9084 15.9884 24.6914 15.6197 25.4902 15.2892C25.658 15.22 25.8215 15.1423 25.9907 15.0674H25.9921Z" fill="#1C4481"/>
</svg>
