<svg width="31" height="31" viewBox="0 0 31 31" fill="none" xmlns="http://www.w3.org/2000/svg">
<rect x="1" y="0.5" width="29" height="30" rx="14.5" fill="#FFF8B6" fill-opacity="0.69"/>
<path d="M17.282 4.6189L16.879 19.6539H13.934L13.531 4.6189H17.282ZM15.515 26.3809C14.8743 26.3809 14.337 26.1639 13.903 25.7299C13.469 25.2959 13.252 24.7586 13.252 24.1179C13.252 23.4772 13.469 22.9399 13.903 22.5059C14.337 22.0719 14.8743 21.8549 15.515 21.8549C16.135 21.8549 16.662 22.0719 17.096 22.5059C17.53 22.9399 17.747 23.4772 17.747 24.1179C17.747 24.7586 17.53 25.2959 17.096 25.7299C16.662 26.1639 16.135 26.3809 15.515 26.3809Z" fill="#090909"/>
<rect x="1" y="0.5" width="29" height="30" rx="14.5" stroke="black"/>
</svg>
