<svg width="25" height="25" viewBox="0 0 45 45" fill="none" xmlns="http://www.w3.org/2000/svg">
<path d="M9.24175 35.7583C11.864 38.3805 15.2049 40.1663 18.8421 40.8897C22.4792 41.6132 26.2492 41.2419 29.6753 39.8227C33.1014 38.4036 36.0298 36.0004 38.0901 32.9169C40.1503 29.8335 41.25 26.2084 41.25 22.5C41.25 18.7916 40.1503 15.1665 38.0901 12.0831C36.0298 8.99964 33.1014 6.5964 29.6753 5.17726C26.2492 3.75812 22.4792 3.3868 18.8421 4.11028C15.2049 4.83375 11.864 6.61951 9.24175 9.24175" stroke="#1C4481" stroke-width="4"/>
<path d="M28.125 22.5L29.6867 21.2506L30.6862 22.5L29.6867 23.7494L28.125 22.5ZM5.625 24.5C4.52043 24.5 3.625 23.6046 3.625 22.5C3.625 21.3954 4.52043 20.5 5.625 20.5V24.5ZM22.1867 11.8756L29.6867 21.2506L26.5633 23.7494L19.0633 14.3744L22.1867 11.8756ZM29.6867 23.7494L22.1867 33.1244L19.0633 30.6256L26.5633 21.2506L29.6867 23.7494ZM28.125 24.5H5.625V20.5H28.125V24.5Z" fill="#1C4481"/>
</svg>
