<svg width="52" height="53" viewBox="0 0 52 53" fill="none" xmlns="http://www.w3.org/2000/svg">
<rect y="0.5" width="52" height="52" rx="26" fill="#FFE1EB"/>
<path fill-rule="evenodd" clip-rule="evenodd" d="M36.228 20.214C37.009 19.433 37.009 18.1666 36.228 17.3856C35.4469 16.6045 34.1806 16.6045 33.3996 17.3856L26.6658 24.1193L20.1867 17.6402C19.4056 16.8591 18.1393 16.8591 17.3582 17.6402C16.5772 18.4212 16.5772 19.6876 17.3582 20.4686L23.8374 26.9478L17.8675 32.9176C17.0865 33.6987 17.0865 34.965 17.8675 35.746C18.6486 36.5271 19.9149 36.5271 20.696 35.746L26.6658 29.7762L32.8903 36.0006C33.6713 36.7817 34.9376 36.7817 35.7187 36.0006C36.4997 35.2196 36.4997 33.9533 35.7187 33.1722L29.4942 26.9478L36.228 20.214Z" fill="#892913"/>
</svg>
