<svg width="27" height="28" viewBox="0 0 27 28" fill="none" xmlns="http://www.w3.org/2000/svg">
<path d="M2.00305 10.4813C2.00305 8.36561 2.00244 6.2499 2.00305 4.13419C2.00366 2.90991 2.87284 2.00137 4.04333 2.00073C7.92302 2.0001 11.8027 1.99946 15.6824 2.00073C16.8255 2.00073 17.705 2.91498 17.7063 4.10313C17.7081 6.09203 17.7111 8.08094 17.7014 10.0698C17.7002 10.3139 17.7683 10.3761 17.9972 10.3748C19.6522 10.3653 21.3072 10.3685 22.9628 10.3697C24.1205 10.371 24.9957 11.2808 24.9964 12.4861C24.9976 16.7568 24.9957 21.0282 25 25.2989C25 25.574 24.9507 25.8048 24.6951 25.9329C24.4412 26.0603 24.2191 25.9982 23.9981 25.8226C23.1703 25.1651 22.334 24.5203 21.5056 23.8641C21.3705 23.757 21.2347 23.7132 21.0661 23.7132C17.8316 23.717 14.5971 23.6974 11.3633 23.7259C10.2366 23.736 9.26454 22.7318 9.28402 21.5652C9.31628 19.5927 9.28889 17.6191 9.29802 15.646C9.29924 15.4019 9.23045 15.3385 9.0022 15.3417C7.97719 15.3537 6.95218 15.3499 5.92718 15.3436C5.75736 15.3423 5.62345 15.3937 5.48954 15.4995C4.66052 16.1545 3.8242 16.7999 2.99641 17.4567C2.77485 17.6324 2.55146 17.6888 2.29886 17.5595C2.05539 17.4358 1.9994 17.2152 2 16.947C2.00548 14.792 2.00305 12.6363 2.00305 10.4813ZM9.85556 3.17429C7.96563 3.17429 6.07569 3.17429 4.18576 3.17429C3.77125 3.17429 3.41943 3.303 3.2277 3.72145C3.13762 3.91736 3.12666 4.13229 3.12666 4.34849C3.12788 6.91498 3.12727 9.48147 3.12727 12.048C3.12727 13.2203 3.12666 14.3926 3.12849 15.5648C3.12849 15.6397 3.08892 15.7455 3.1644 15.7823C3.23866 15.8178 3.29405 15.7195 3.35187 15.6745C3.8942 15.2542 4.43836 14.8364 4.97156 14.404C5.17424 14.2398 5.38241 14.1681 5.63988 14.1687C8.38014 14.1757 11.1198 14.1732 13.86 14.1732C14.4291 14.1732 14.9989 14.177 15.568 14.1713C15.9472 14.1675 16.2704 14.0388 16.4609 13.6685C16.5638 13.4682 16.5826 13.2469 16.582 13.0231C16.582 11.0348 16.582 9.04654 16.582 7.05827C16.582 6.12373 16.5839 5.18856 16.5808 4.25402C16.5796 3.82987 16.4481 3.47291 16.0567 3.27764C15.876 3.18761 15.6781 3.17239 15.4785 3.17239C13.6038 3.17366 11.7291 3.17303 9.85435 3.17303L9.85556 3.17429ZM23.8727 18.2772C23.8727 18.1028 23.8727 17.9285 23.8727 17.7541C23.8727 16.0505 23.8746 14.3475 23.8715 12.6439C23.8703 11.9693 23.5337 11.5553 22.9256 11.5496C21.2481 11.5338 19.5706 11.5446 17.8925 11.5414C17.7549 11.5414 17.702 11.5953 17.7056 11.7379C17.7117 11.9674 17.7154 12.1976 17.7044 12.4271C17.6953 12.6091 17.7489 12.6807 17.9351 12.7194C20.1105 13.1702 21.5646 15.2231 21.3443 17.5132C21.1325 19.7126 19.3162 21.4054 17.1986 21.4409C15.4913 21.4694 13.8649 20.3643 13.227 18.6779C12.8387 17.6508 12.8265 16.6091 13.1704 15.5655C13.2203 15.414 13.2368 15.3404 13.0389 15.3423C12.2343 15.3512 11.4296 15.348 10.6249 15.3442C10.488 15.3442 10.4149 15.3772 10.4155 15.5414C10.4192 17.5461 10.4107 19.5503 10.4241 21.5544C10.4283 22.1472 10.7917 22.4997 11.3608 22.5377C11.4515 22.5441 11.5428 22.5403 11.6341 22.5403C14.8753 22.5403 18.1171 22.5428 21.3583 22.5358C21.6164 22.5358 21.8252 22.6056 22.0278 22.7698C22.5556 23.1971 23.093 23.6105 23.6293 24.0264C23.6932 24.0759 23.7559 24.1849 23.8344 24.1481C23.9178 24.1088 23.8703 23.9903 23.8703 23.9085C23.8727 22.0305 23.8721 20.1532 23.8721 18.2753L23.8727 18.2772ZM15.358 15.3474C15.1273 15.3474 14.9374 15.3569 14.7481 15.3442C14.5874 15.3341 14.4973 15.4044 14.4279 15.549C14.151 16.1221 14.042 16.7213 14.098 17.3635C14.2526 19.1445 15.862 20.5305 17.7075 20.19C19.1251 19.9288 20.3522 18.5257 20.1939 16.7321C20.0758 15.3937 19.0977 14.2068 17.8359 13.9196C17.6819 13.8847 17.6131 13.9177 17.5468 14.0743C17.2686 14.733 16.7859 15.1439 16.1109 15.3093C15.8474 15.374 15.5814 15.329 15.358 15.3467V15.3474Z" fill="white" stroke="white"/>
<path d="M5.64783 8.65906C5.60644 6.27136 7.57611 4.24125 9.90855 4.27295C12.1911 4.30402 14.095 6.31511 14.0725 8.72373C14.0506 11.0766 12.1369 13.0877 9.83551 13.0756C7.58402 13.0642 5.59974 11.0969 5.64783 8.65906ZM9.85255 5.46363C8.23226 5.49977 6.79762 6.75385 6.78727 8.68189C6.77814 10.4032 8.04236 11.8393 9.79899 11.8742C11.5246 11.9084 12.9026 10.5383 12.9209 8.70218C12.9385 6.94088 11.6561 5.51879 9.85255 5.46363Z" fill="white"/>
<path d="M17.2273 17.2109C17.9218 17.2236 18.5573 17.5159 19.0272 18.1588C19.2488 18.4618 19.208 18.841 18.9462 19.0451C18.6936 19.2423 18.3443 19.1777 18.1227 18.893C17.6102 18.2349 16.6808 18.2349 16.167 18.893C15.9443 19.1783 15.5961 19.2423 15.3435 19.0451C15.0879 18.8454 15.0361 18.4714 15.2485 18.1772C15.7245 17.5184 16.3715 17.2141 17.228 17.2109H17.2273Z" fill="white"/>
<path d="M15.8686 15.5057C16.2058 15.5057 16.4347 15.7479 16.431 16.103C16.4274 16.4422 16.1973 16.678 15.8704 16.678C15.5351 16.678 15.3044 16.4333 15.308 16.0808C15.3117 15.7422 15.5418 15.5064 15.8686 15.5057Z" fill="white"/>
<path d="M18.9819 16.0888C18.9825 16.4401 18.7494 16.681 18.4116 16.6772C18.0871 16.674 17.8601 16.4337 17.8589 16.0933C17.8583 15.7414 18.0908 15.5017 18.4298 15.5049C18.7555 15.5081 18.9813 15.7471 18.9825 16.0882L18.9819 16.0888Z" fill="white"/>
<path d="M9.94019 10.8834C9.21404 10.8866 8.61024 10.6076 8.1306 10.0408C7.99852 9.88419 7.88713 9.7092 7.90965 9.4873C7.93461 9.23813 8.0606 9.05744 8.28885 8.97058C8.52259 8.88182 8.77093 8.95917 8.93953 9.18044C9.30534 9.66039 9.7795 9.76944 10.3243 9.62805C10.5683 9.56528 10.7516 9.39917 10.9135 9.20263C11.1588 8.90527 11.4972 8.85582 11.7565 9.07139C12.0139 9.28568 12.0395 9.64517 11.8015 9.96028C11.3286 10.5867 10.6968 10.8745 9.94019 10.8834Z" fill="white"/>
<path d="M9.14095 7.72007C9.14156 8.07131 8.90844 8.31224 8.57062 8.30843C8.2462 8.30526 8.01916 8.06497 8.01795 7.72451C8.01734 7.37263 8.24985 7.13297 8.58888 7.13614C8.91452 7.13931 9.14034 7.37833 9.14156 7.71943L9.14095 7.72007Z" fill="white"/>
<path d="M11.1381 8.30903C10.8009 8.31157 10.5678 8.06937 10.569 7.71876C10.5702 7.3783 10.7978 7.13927 11.1229 7.13674C11.4613 7.1342 11.6932 7.37449 11.692 7.72701C11.6908 8.06684 11.4625 8.3065 11.1381 8.30903Z" fill="white"/>
</svg>
