<svg width="17" height="17" viewBox="0 0 31 26" fill="none" xmlns="http://www.w3.org/2000/svg">
<g clip-path="url(#clip0_208_13522)">
<path d="M31 23.5699C30.5616 21.8676 29.4209 20.7373 27.9622 19.8692C27.3632 19.5126 26.7318 19.2213 26.0747 18.989C25.219 18.6864 24.469 18.2 23.736 17.6796C23.5681 17.561 23.4986 17.4214 23.5156 17.2213C23.5277 17.0818 23.5285 16.939 23.5156 16.7994C23.4954 16.5929 23.5858 16.4686 23.7546 16.3557C25.177 15.4013 26.0384 14.0555 26.4646 12.4202C26.5373 12.1427 26.6519 11.987 26.9272 11.8676C27.7264 11.5223 28.1874 10.8801 28.3351 10.0322C28.4756 9.22053 28.0009 8.49685 27.1266 8.22094C26.8182 8.12412 26.7528 7.97648 26.7528 7.68443C26.7528 6.46216 26.6196 5.25603 26.1861 4.10153C25.4935 2.25321 24.289 0.892175 22.3491 0.335499C20.4091 -0.221983 18.5023 -0.116296 16.7021 0.891369C16.3662 1.07935 16.0675 1.31977 15.7858 1.57955C15.6566 1.69895 15.5581 1.70057 15.4249 1.57955C14.0146 0.2879 12.3144 -0.0670823 10.4641 0.0490936C9.29112 0.12251 8.20208 0.43554 7.23737 1.11807C6.02643 1.97568 5.3031 3.17051 4.87927 4.56624C4.56443 5.60456 4.42638 6.66708 4.46674 7.75059C4.47643 8.00149 4.39651 8.11364 4.14544 8.19512C2.91352 8.59367 2.5026 9.74817 3.17669 10.8793C3.46893 11.3698 3.87177 11.7417 4.41911 11.9305C4.59752 11.9918 4.66776 12.104 4.70732 12.2742C5.00278 13.5352 5.58081 14.6445 6.4995 15.5715C6.82081 15.895 7.16875 16.183 7.55625 16.421C7.71771 16.5203 7.79198 16.6364 7.7944 16.8341C7.80489 17.7659 7.81055 17.7659 6.96128 18.1814C6.22583 18.5412 5.44276 18.7792 4.68229 19.0737C3.1557 19.6643 1.77604 20.4678 0.786299 21.8216C0.399607 22.3508 0.16065 22.9422 -0.00161552 23.5707V25.5634C0.194557 25.895 0.502132 26.0007 0.86945 25.9991C1.70661 25.995 2.54378 25.9983 3.38094 25.9983C12.2563 25.9983 21.1317 25.9983 30.007 26.0007C30.4091 26.0007 30.7748 25.9499 30.9984 25.5642V23.5715L31 23.5699ZM25.3635 9.82804C25.4135 10.8042 25.29 11.9378 24.8186 13.0293C23.824 15.3311 21.235 16.5775 18.8147 15.8902C16.7997 15.3182 15.6744 13.9136 15.1537 11.9595C14.8299 10.7429 15.0011 9.49726 14.9648 8.2645C14.9591 8.08298 15.0665 8.02408 15.2312 8.00875C15.5121 7.98374 15.793 7.95631 16.0708 7.91113C17.4149 7.69008 18.688 7.25926 19.8925 6.62191C20.0216 6.55333 20.1419 6.45894 20.2985 6.60577C20.7434 7.02287 21.2947 7.23828 21.8687 7.41497C22.915 7.73606 23.9935 7.87322 25.0753 7.99181C25.3264 8.01924 25.3716 8.12574 25.3667 8.33792C25.3578 8.77035 25.3643 9.20359 25.3643 9.82804H25.3635ZM5.83107 9.69573C5.83107 9.13582 5.84237 8.74292 5.82703 8.35163C5.81734 8.09911 5.92713 8.00795 6.16448 8.00714C6.54955 8.00553 6.92414 7.92243 7.29953 7.85063C8.51612 7.61908 9.66732 7.2044 10.7612 6.62433C10.867 6.56866 10.98 6.44845 11.1156 6.5735C11.7412 7.14712 12.5292 7.36495 13.3227 7.56583C13.485 7.60698 13.598 7.65216 13.6012 7.85224C13.6053 8.05958 13.5028 8.11848 13.3227 8.17092C12.379 8.44603 11.847 9.16971 11.9883 10.0176C12.136 10.9035 12.6268 11.5537 13.4656 11.899C13.6949 11.9934 13.7926 12.1241 13.8418 12.346C13.9879 13.0092 14.2414 13.6336 14.5966 14.2105C14.7331 14.4315 14.6935 14.5517 14.5191 14.7171C12.2248 16.893 7.99542 16.4888 6.43169 13.1181C5.90211 11.9757 5.78021 10.7655 5.82945 9.69492L5.83107 9.69573ZM15.2756 6.64046C15.0059 6.65095 15.01 6.6445 15.018 6.40166C15.031 6.00553 15.1303 5.62473 15.2296 5.24796C15.676 3.56099 16.5656 2.24111 18.3094 1.66023C19.1845 1.36898 20.0886 1.32541 20.9952 1.43272C22.4096 1.59972 23.5584 2.22416 24.3415 3.44805C24.93 4.36777 25.2085 5.38431 25.3264 6.45571C25.3514 6.68725 25.2004 6.64127 25.0745 6.62352C24.536 6.5501 23.9967 6.48556 23.4615 6.39278C22.8262 6.28225 22.1949 6.14187 21.6096 5.85869C21.3868 5.75139 21.164 5.64248 21.0832 5.3593C20.942 4.86797 20.5117 4.7042 20.0604 4.95107C19.7956 5.09629 19.5405 5.26007 19.2733 5.40044C18.0123 6.0612 16.6778 6.48879 15.2748 6.63965L15.2756 6.64046ZM11.1334 1.37624C11.29 1.38754 11.5314 1.40045 11.7719 1.42465C12.8133 1.52792 13.7466 1.8829 14.5296 2.5977C14.7056 2.75825 14.7452 2.88007 14.6152 3.10517C14.1365 3.93292 13.8668 4.83651 13.7223 5.77802C13.6505 6.24756 13.6561 6.24837 13.2121 6.11686C13.1153 6.08782 13.0143 6.07088 12.9223 6.03215C12.5017 5.85789 12.0521 5.7522 11.8971 5.20601C11.7986 4.85829 11.3707 4.74696 11.0333 4.90347C10.8968 4.96721 10.7717 5.05434 10.6409 5.13018C9.34763 5.88451 7.96958 6.39843 6.47851 6.58883C5.87627 6.66547 5.86336 6.65902 5.94893 6.05635C6.1225 4.82683 6.54068 3.69573 7.40286 2.77197C8.38614 1.71751 9.66732 1.40609 11.1342 1.37624H11.1334ZM25.793 24.6364C24.603 24.6364 23.4123 24.6316 22.2223 24.6405C21.9761 24.6421 21.9244 24.5719 22.0035 24.3428C22.3047 23.4682 22.5912 22.5888 22.8916 21.7143C22.9909 21.4255 22.9925 21.1471 22.8916 20.8599C22.7309 20.4049 22.6034 19.937 22.4209 19.4908C22.295 19.1834 22.4613 19.0697 22.6599 18.9051C22.8609 18.7389 22.9876 18.8155 23.1572 18.9357C23.849 19.4255 24.5772 19.8522 25.3538 20.2C26.4864 20.7066 27.6118 21.2383 28.5555 22.0636C29.2215 22.6453 29.6704 23.3504 29.6655 24.2823C29.6639 24.5566 29.5856 24.6461 29.3039 24.6429C28.1341 24.6284 26.9635 24.6372 25.7938 24.6372L25.793 24.6364ZM5.33943 24.6364C4.1293 24.6364 2.91836 24.63 1.70823 24.6413C1.44424 24.6437 1.33687 24.584 1.33445 24.2927C1.32638 23.3133 1.80107 22.5872 2.50987 21.9821C3.11049 21.469 3.80476 21.0987 4.49823 20.726C5.71643 20.0717 7.0856 19.7522 8.26909 19.0253C8.46526 18.9043 8.56133 19.0769 8.69049 19.1536C8.82773 19.2359 8.83258 19.3512 8.78414 19.4932C8.62753 19.9499 8.49271 20.4138 8.32398 20.8656C8.21096 21.1665 8.22388 21.444 8.32883 21.7433C8.62672 22.5977 8.89797 23.4618 9.19747 24.3153C9.28627 24.5687 9.2564 24.6445 8.97062 24.6413C7.76049 24.6284 6.55036 24.6356 5.33943 24.6356V24.6364ZM14.591 24.6364C13.401 24.6364 12.2119 24.6316 11.022 24.6405C10.7701 24.6421 10.6861 24.5388 10.67 24.3048C10.632 23.7578 10.8008 23.273 11.0922 22.8236C11.8599 21.6376 13.0039 20.9261 14.2842 20.4468C15.3426 20.0507 16.3299 19.5465 17.2373 18.8873C17.515 18.6856 17.6272 18.9164 17.8048 19.0108C17.9816 19.1052 18.0026 19.227 17.9372 19.4093C17.7645 19.8918 17.6159 20.3823 17.444 20.8656C17.3414 21.1536 17.3414 21.4287 17.4407 21.7183C17.7281 22.5549 18.0034 23.3956 18.2827 24.2347C18.3715 24.502 18.2701 24.6356 17.9784 24.6356C16.849 24.6356 15.7196 24.6356 14.591 24.6356V24.6364ZM20.1613 24.6308C19.9417 24.6752 19.8311 24.5808 19.7633 24.371C19.4541 23.4158 19.132 22.4646 18.8139 21.5126C18.7752 21.3964 18.7469 21.2835 18.7889 21.1608C18.931 20.7429 19.0723 20.3234 19.2095 19.9039C19.2563 19.7611 19.3346 19.724 19.484 19.7595C19.9417 19.8692 20.4027 19.8643 20.8604 19.757C20.9944 19.7256 21.0719 19.7595 21.1147 19.8894C21.2608 20.3274 21.4086 20.7655 21.5587 21.202C21.5959 21.3085 21.5523 21.4013 21.5216 21.494C21.2051 22.4468 20.8814 23.398 20.5714 24.3532C20.5012 24.5703 20.3954 24.6848 20.1613 24.6316V24.6308ZM14.3157 17.1318C14.3577 16.9035 14.193 16.6146 14.5014 16.4347C14.8501 16.2322 15.1706 15.9862 15.4516 15.6949C15.5638 15.5787 15.6461 15.5965 15.7535 15.699C16.0296 15.9644 16.3315 16.1983 16.652 16.4089C16.7384 16.4662 16.7981 16.5348 16.8118 16.6485C16.8764 17.1979 16.8296 17.6917 16.229 17.9426C16.1741 17.9652 16.1273 18.0071 16.0756 18.0386C15.4669 18.4154 15.4742 18.4033 14.8493 18.0725C14.461 17.8676 14.1672 17.6368 14.3165 17.1302L14.3157 17.1318ZM10.8661 18.4823C10.7128 18.463 10.5319 18.4493 10.3543 18.4154C9.94987 18.3387 9.59143 18.1669 9.28547 17.8861C9.08607 17.703 9.1232 17.461 9.19344 17.2706C9.25479 17.1036 9.4445 17.2512 9.56964 17.273C10.0266 17.3512 10.4819 17.4246 10.9477 17.4311C11.5362 17.4392 12.1126 17.3625 12.6842 17.2334C12.7681 17.2149 12.8892 17.1503 12.9159 17.2738C12.9538 17.4537 13.0039 17.6602 12.8045 17.7958C12.2272 18.1887 11.5976 18.4372 10.8661 18.4831V18.4823ZM20.2453 18.4775C19.5728 18.4775 18.6751 18.0741 18.2714 17.6384C18.1592 17.5174 18.1431 17.3698 18.1947 17.2472C18.2609 17.0898 18.403 17.2028 18.5072 17.2278C19.6123 17.4965 20.7167 17.4981 21.8211 17.2262C21.9228 17.2012 22.0609 17.1084 22.1222 17.223C22.1916 17.352 22.1803 17.5207 22.052 17.6393C21.5184 18.133 20.8951 18.4291 20.2445 18.4775H20.2453ZM9.90466 22.1354C9.80779 21.7917 9.59547 21.5142 9.66732 21.2028C9.76581 20.7752 9.93615 20.3637 10.0742 19.945C10.1162 19.8192 10.2058 19.7675 10.3301 19.7942C10.7943 19.8942 11.2488 19.82 11.7049 19.7336C11.8284 19.7102 11.9431 19.7127 12.0004 19.8635C12.0553 20.0088 11.9851 20.0894 11.8801 20.1669C11.6541 20.3339 11.4256 20.4977 11.206 20.6727C10.7015 21.0745 10.2881 21.5602 9.90466 22.1362V22.1354Z" fill="#1C4481"/>
<path d="M5.68576 22.2232C5.16182 22.2232 4.63708 22.2336 4.11396 22.2191C3.85966 22.2119 3.77328 22.3095 3.78862 22.5531C3.80396 22.8032 3.79992 23.0558 3.79024 23.3067C3.78136 23.5172 3.8742 23.589 4.07763 23.5882C5.15617 23.5834 6.23391 23.5826 7.31245 23.5882C7.52396 23.589 7.59823 23.5003 7.59097 23.2978C7.58128 23.0267 7.58208 22.7548 7.59097 22.4837C7.59742 22.2861 7.50943 22.2191 7.31972 22.2215C6.7756 22.228 6.23149 22.224 5.68737 22.2232H5.68576Z" fill="#1C4481"/>
<path d="M14.809 23.5877C15.3232 23.5877 15.8383 23.574 16.3525 23.5934C16.6504 23.6047 16.7489 23.4893 16.7279 23.2069C16.7109 22.977 16.7182 22.7438 16.7255 22.5131C16.7319 22.313 16.6577 22.2219 16.4437 22.2227C15.3442 22.2283 14.2447 22.2275 13.1451 22.2235C12.9473 22.2235 12.8755 22.309 12.8803 22.497C12.8868 22.7688 12.8884 23.0407 12.8803 23.3118C12.8739 23.5256 12.9772 23.5918 13.1758 23.5901C13.7207 23.5845 14.2657 23.5877 14.8098 23.5885L14.809 23.5877Z" fill="#1C4481"/>
</g>
<defs>
<clipPath id="clip0_208_13522">
<rect width="31" height="26" fill="white" transform="matrix(-1 0 0 1 31 0)"/>
</clipPath>
</defs>
</svg>
