<svg width="428" height="428" viewBox="0 0 428 428" fill="none" xmlns="http://www.w3.org/2000/svg">
<g filter="url(#filter0_i_0_363)">
<path d="M376 214C376 303.47 303.47 376 214 376C124.53 376 52 303.47 52 214C52 124.53 124.53 52 214 52C303.47 52 376 124.53 376 214ZM128.24 214C128.24 261.364 166.636 299.76 214 299.76C261.364 299.76 299.76 261.364 299.76 214C299.76 166.636 261.364 128.24 214 128.24C166.636 128.24 128.24 166.636 128.24 214Z" fill="#DFDFDF"/>
</g>
<g filter="url(#filter1_i_0_363)">
<path d="M333.347 186.768C348.739 183.256 364.355 192.935 364.907 208.712C365.645 229.773 361.97 250.864 353.992 270.596C342.423 299.214 322.361 323.598 296.509 340.464C270.657 357.331 240.257 365.87 209.404 364.93C178.55 363.99 148.726 353.618 123.948 335.209C99.1707 316.801 80.6298 291.241 70.8231 261.973C61.0165 232.704 60.4153 201.134 69.1005 171.513C77.7857 141.893 95.3401 115.645 119.399 96.3069C135.988 82.9726 155.12 73.3648 175.497 67.9913C190.762 63.9656 204.537 76.1224 205.618 91.8725C206.699 107.623 194.492 120.873 179.792 126.628C170.975 130.08 162.681 134.866 155.216 140.867C140.266 152.884 129.358 169.193 123.961 187.599C118.564 206.005 118.938 225.623 125.032 243.81C131.125 261.997 142.646 277.879 158.043 289.318C173.44 300.757 191.972 307.202 211.144 307.786C230.316 308.37 249.206 303.064 265.27 292.583C281.334 282.103 293.8 266.951 300.99 249.168C304.579 240.288 306.767 230.966 307.527 221.528C308.794 205.792 317.956 190.28 333.347 186.768Z" fill="#DB4453"/>
</g>
<g filter="url(#filter2_i_0_363)">
<path d="M169.996 99.739C164.328 85.0204 171.67 68.1984 187.192 65.3984C210.863 61.1285 235.355 62.5509 258.597 69.7359C281.839 76.9209 302.861 89.5684 319.992 106.452C331.226 117.523 327.795 135.554 314.809 144.506C301.823 153.458 284.218 149.717 271.787 140.009C262.865 133.041 252.694 127.695 241.728 124.305C230.762 120.915 219.349 119.588 208.05 120.306C192.31 121.305 175.664 114.458 169.996 99.739Z" fill="#434A54"/>
</g>
<g filter="url(#filter3_di_0_363)">
<path d="M281.859 110.677C290.161 98.0348 307.361 94.361 318.298 104.808C332.956 118.809 344.714 135.684 352.777 154.485C360.839 173.285 364.96 193.436 365 213.705C365.029 228.83 350.512 238.758 335.63 236.059C320.748 233.36 311.284 218.938 309.696 203.897C308.69 194.362 306.258 184.979 302.438 176.072C298.619 167.166 293.497 158.937 287.283 151.635C277.481 140.116 273.556 123.319 281.859 110.677Z" fill="#8CC051"/>
</g>
<circle cx="214.5" cy="214.5" r="97" fill="white" stroke="#E6E6E6" stroke-width="5"/>
<path d="M174.791 178.49V180.164H171.461V191H169.409V180.164H166.061V178.49H174.791ZM181.172 191.162C180.236 191.162 179.39 190.952 178.634 190.532C177.878 190.1 177.284 189.5 176.852 188.732C176.42 187.952 176.204 187.052 176.204 186.032C176.204 185.024 176.426 184.13 176.87 183.35C177.314 182.57 177.92 181.97 178.688 181.55C179.456 181.13 180.314 180.92 181.262 180.92C182.21 180.92 183.068 181.13 183.836 181.55C184.604 181.97 185.21 182.57 185.654 183.35C186.098 184.13 186.32 185.024 186.32 186.032C186.32 187.04 186.092 187.934 185.636 188.714C185.18 189.494 184.556 190.1 183.764 190.532C182.984 190.952 182.12 191.162 181.172 191.162ZM181.172 189.38C181.7 189.38 182.192 189.254 182.648 189.002C183.116 188.75 183.494 188.372 183.782 187.868C184.07 187.364 184.214 186.752 184.214 186.032C184.214 185.312 184.076 184.706 183.8 184.214C183.524 183.71 183.158 183.332 182.702 183.08C182.246 182.828 181.754 182.702 181.226 182.702C180.698 182.702 180.206 182.828 179.75 183.08C179.306 183.332 178.952 183.71 178.688 184.214C178.424 184.706 178.292 185.312 178.292 186.032C178.292 187.1 178.562 187.928 179.102 188.516C179.654 189.092 180.344 189.38 181.172 189.38ZM190.742 182.756V188.246C190.742 188.618 190.826 188.888 190.994 189.056C191.174 189.212 191.474 189.29 191.894 189.29H193.154V191H191.534C190.61 191 189.902 190.784 189.41 190.352C188.918 189.92 188.672 189.218 188.672 188.246V182.756H187.502V181.082H188.672V178.616H190.742V181.082H193.154V182.756H190.742ZM194.361 185.996C194.361 185 194.565 184.118 194.973 183.35C195.393 182.582 195.957 181.988 196.665 181.568C197.385 181.136 198.177 180.92 199.041 180.92C199.821 180.92 200.499 181.076 201.075 181.388C201.663 181.688 202.131 182.066 202.479 182.522V181.082H204.549V191H202.479V189.524C202.131 189.992 201.657 190.382 201.057 190.694C200.457 191.006 199.773 191.162 199.005 191.162C198.153 191.162 197.373 190.946 196.665 190.514C195.957 190.07 195.393 189.458 194.973 188.678C194.565 187.886 194.361 186.992 194.361 185.996ZM202.479 186.032C202.479 185.348 202.335 184.754 202.047 184.25C201.771 183.746 201.405 183.362 200.949 183.098C200.493 182.834 200.001 182.702 199.473 182.702C198.945 182.702 198.453 182.834 197.997 183.098C197.541 183.35 197.169 183.728 196.881 184.232C196.605 184.724 196.467 185.312 196.467 185.996C196.467 186.68 196.605 187.28 196.881 187.796C197.169 188.312 197.541 188.708 197.997 188.984C198.465 189.248 198.957 189.38 199.473 189.38C200.001 189.38 200.493 189.248 200.949 188.984C201.405 188.72 201.771 188.336 202.047 187.832C202.335 187.316 202.479 186.716 202.479 186.032ZM209.297 177.68V191H207.245V177.68H209.297ZM218.718 180.146V183.818H223.038V185.492H218.718V189.326H223.578V191H216.666V178.472H223.578V180.146H218.718ZM230.354 185.978L233.558 191H231.236L229.094 187.634L227.078 191H224.936L228.14 186.122L224.936 181.082H227.258L229.4 184.448L231.416 181.082H233.558L230.354 185.978ZM234.404 185.996C234.404 185 234.608 184.118 235.016 183.35C235.436 182.582 236 181.988 236.708 181.568C237.428 181.136 238.22 180.92 239.084 180.92C239.864 180.92 240.542 181.076 241.118 181.388C241.706 181.688 242.174 182.066 242.522 182.522V181.082H244.592V191H242.522V189.524C242.174 189.992 241.7 190.382 241.1 190.694C240.5 191.006 239.816 191.162 239.048 191.162C238.196 191.162 237.416 190.946 236.708 190.514C236 190.07 235.436 189.458 235.016 188.678C234.608 187.886 234.404 186.992 234.404 185.996ZM242.522 186.032C242.522 185.348 242.378 184.754 242.09 184.25C241.814 183.746 241.448 183.362 240.992 183.098C240.536 182.834 240.044 182.702 239.516 182.702C238.988 182.702 238.496 182.834 238.04 183.098C237.584 183.35 237.212 183.728 236.924 184.232C236.648 184.724 236.51 185.312 236.51 185.996C236.51 186.68 236.648 187.28 236.924 187.796C237.212 188.312 237.584 188.708 238.04 188.984C238.508 189.248 239 189.38 239.516 189.38C240.044 189.38 240.536 189.248 240.992 188.984C241.448 188.72 241.814 188.336 242.09 187.832C242.378 187.316 242.522 186.716 242.522 186.032ZM259.294 180.92C260.074 180.92 260.77 181.082 261.382 181.406C262.006 181.73 262.492 182.21 262.84 182.846C263.2 183.482 263.38 184.25 263.38 185.15V191H261.346V185.456C261.346 184.568 261.124 183.89 260.68 183.422C260.236 182.942 259.63 182.702 258.862 182.702C258.094 182.702 257.482 182.942 257.026 183.422C256.582 183.89 256.36 184.568 256.36 185.456V191H254.326V185.456C254.326 184.568 254.104 183.89 253.66 183.422C253.216 182.942 252.61 182.702 251.842 182.702C251.074 182.702 250.462 182.942 250.006 183.422C249.562 183.89 249.34 184.568 249.34 185.456V191H247.288V181.082H249.34V182.216C249.676 181.808 250.102 181.49 250.618 181.262C251.134 181.034 251.686 180.92 252.274 180.92C253.066 180.92 253.774 181.088 254.398 181.424C255.022 181.76 255.502 182.246 255.838 182.882C256.138 182.282 256.606 181.808 257.242 181.46C257.878 181.1 258.562 180.92 259.294 180.92Z" fill="black"/>
<path d="M188.852 211.4V204.176H202.348V245H194.284V211.4H188.852ZM237.533 210.952H219.389V220.528C220.173 219.557 221.293 218.773 222.749 218.176C224.205 217.541 225.754 217.224 227.397 217.224C230.384 217.224 232.829 217.877 234.733 219.184C236.637 220.491 238.018 222.171 238.877 224.224C239.736 226.24 240.165 228.405 240.165 230.72C240.165 235.013 238.933 238.467 236.469 241.08C234.042 243.693 230.57 245 226.053 245C221.797 245 218.4 243.936 215.861 241.808C213.322 239.68 211.885 236.899 211.549 233.464H219.165C219.501 234.957 220.248 236.152 221.405 237.048C222.6 237.944 224.112 238.392 225.941 238.392C228.144 238.392 229.805 237.701 230.925 236.32C232.045 234.939 232.605 233.109 232.605 230.832C232.605 228.517 232.026 226.763 230.869 225.568C229.749 224.336 228.088 223.72 225.885 223.72C224.317 223.72 223.01 224.112 221.965 224.896C220.92 225.68 220.173 226.725 219.725 228.032H212.221V204.064H237.533V210.952Z" fill="#1C4481"/>
<defs>
<filter id="filter0_i_0_363" x="52" y="52" width="324" height="331" filterUnits="userSpaceOnUse" color-interpolation-filters="sRGB">
<feFlood flood-opacity="0" result="BackgroundImageFix"/>
<feBlend mode="normal" in="SourceGraphic" in2="BackgroundImageFix" result="shape"/>
<feColorMatrix in="SourceAlpha" type="matrix" values="0 0 0 0 0 0 0 0 0 0 0 0 0 0 0 0 0 0 127 0" result="hardAlpha"/>
<feOffset dy="7"/>
<feGaussianBlur stdDeviation="5.5"/>
<feComposite in2="hardAlpha" operator="arithmetic" k2="-1" k3="1"/>
<feColorMatrix type="matrix" values="0 0 0 0 0 0 0 0 0 0 0 0 0 0 0 0 0 0 0.13 0"/>
<feBlend mode="normal" in2="shape" result="effect1_innerShadow_0_363"/>
</filter>
<filter id="filter1_i_0_363" x="63" y="67.214" width="316" height="309.786" filterUnits="userSpaceOnUse" color-interpolation-filters="sRGB">
<feFlood flood-opacity="0" result="BackgroundImageFix"/>
<feBlend mode="normal" in="SourceGraphic" in2="BackgroundImageFix" result="shape"/>
<feColorMatrix in="SourceAlpha" type="matrix" values="0 0 0 0 0 0 0 0 0 0 0 0 0 0 0 0 0 0 127 0" result="hardAlpha"/>
<feOffset dx="15" dy="12"/>
<feGaussianBlur stdDeviation="7"/>
<feComposite in2="hardAlpha" operator="arithmetic" k2="-1" k3="1"/>
<feColorMatrix type="matrix" values="0 0 0 0 1 0 0 0 0 0.529167 0 0 0 0 0.576986 0 0 0 1 0"/>
<feBlend mode="normal" in2="shape" result="effect1_innerShadow_0_363"/>
</filter>
<filter id="filter2_i_0_363" x="168.091" y="62.9999" width="167.676" height="97.5873" filterUnits="userSpaceOnUse" color-interpolation-filters="sRGB">
<feFlood flood-opacity="0" result="BackgroundImageFix"/>
<feBlend mode="normal" in="SourceGraphic" in2="BackgroundImageFix" result="shape"/>
<feColorMatrix in="SourceAlpha" type="matrix" values="0 0 0 0 0 0 0 0 0 0 0 0 0 0 0 0 0 0 127 0" result="hardAlpha"/>
<feOffset dx="9" dy="12"/>
<feGaussianBlur stdDeviation="5.5"/>
<feComposite in2="hardAlpha" operator="arithmetic" k2="-1" k3="1"/>
<feColorMatrix type="matrix" values="0 0 0 0 0.8875 0 0 0 0 0.880104 0 0 0 0 0.880104 0 0 0 0.25 0"/>
<feBlend mode="normal" in2="shape" result="effect1_innerShadow_0_363"/>
</filter>
<filter id="filter3_di_0_363" x="269.342" y="97.7198" width="103.658" height="153.782" filterUnits="userSpaceOnUse" color-interpolation-filters="sRGB">
<feFlood flood-opacity="0" result="BackgroundImageFix"/>
<feColorMatrix in="SourceAlpha" type="matrix" values="0 0 0 0 0 0 0 0 0 0 0 0 0 0 0 0 0 0 127 0" result="hardAlpha"/>
<feOffset dy="7"/>
<feGaussianBlur stdDeviation="4"/>
<feComposite in2="hardAlpha" operator="out"/>
<feColorMatrix type="matrix" values="0 0 0 0 0 0 0 0 0 0 0 0 0 0 0 0 0 0 0.25 0"/>
<feBlend mode="normal" in2="BackgroundImageFix" result="effect1_dropShadow_0_363"/>
<feBlend mode="normal" in="SourceGraphic" in2="effect1_dropShadow_0_363" result="shape"/>
<feColorMatrix in="SourceAlpha" type="matrix" values="0 0 0 0 0 0 0 0 0 0 0 0 0 0 0 0 0 0 127 0" result="hardAlpha"/>
<feOffset dx="-3" dy="10"/>
<feGaussianBlur stdDeviation="9.5"/>
<feComposite in2="hardAlpha" operator="arithmetic" k2="-1" k3="1"/>
<feColorMatrix type="matrix" values="0 0 0 0 0.816 0 0 0 0 1 0 0 0 0 0.425 0 0 0 0.83 0"/>
<feBlend mode="normal" in2="shape" result="effect2_innerShadow_0_363"/>
</filter>
</defs>
</svg>
