<svg width="268" height="158" viewBox="0 0 268 158" fill="none" xmlns="http://www.w3.org/2000/svg">
<g clip-path="url(#clip0_1_773)">
<path d="M134 166.832C59.9938 166.832 0 163.326 0 159.001C0 154.675 59.9938 151.169 134 151.169C208.006 151.169 268 154.675 268 159.001C268 163.326 208.006 166.832 134 166.832Z" fill="#F5F5F5"/>
<path d="M248.359 0H228.503C225.123 0 222.387 2.73972 222.387 6.12286V23.4191C222.387 26.8022 225.123 29.5419 228.503 29.5419H242.581L246.728 35.0006V29.5419H248.359C251.738 29.5419 254.475 26.8022 254.475 23.4191V6.12286C254.468 2.73972 251.731 0 248.359 0Z" fill="#407BFF"/>
<path opacity="0.7" d="M248.359 0H228.503C225.123 0 222.387 2.73972 222.387 6.12286V23.4191C222.387 26.8022 225.123 29.5419 228.503 29.5419H242.581L246.728 35.0006V29.5419H248.359C251.738 29.5419 254.475 26.8022 254.475 23.4191V6.12286C254.468 2.73972 251.731 0 248.359 0Z" fill="white"/>
<path d="M231.461 21.6722C227.613 17.8194 227.613 11.5728 231.461 7.71997C235.31 3.86715 241.55 3.86715 245.399 7.71996C249.247 11.5728 249.247 17.8194 245.399 21.6722C241.55 25.5251 235.31 25.5251 231.461 21.6722Z" fill="#407BFF"/>
<path d="M237.397 19.1019C237.135 19.1019 236.879 18.9843 236.706 18.7837L232.843 14.2244C232.518 13.8439 232.567 13.2696 232.947 12.9445C233.327 12.6193 233.9 12.6677 234.225 13.0483L237.404 16.7912L242.65 10.606C242.975 10.2255 243.548 10.1771 243.929 10.5023C244.309 10.8274 244.357 11.4017 244.032 11.7822L238.096 18.7837C237.923 18.9843 237.674 19.1019 237.404 19.1019H237.397Z" fill="white"/>
<path d="M165.294 122.505L150.462 121.779L151.907 134.696C151.907 134.696 162.204 136.668 166.8 129.327L165.301 122.505H165.294Z" fill="#EBB376"/>
<path d="M140.89 126.276L144.27 135.651L151.9 134.689L150.455 121.772L140.89 126.276Z" fill="#EBB376"/>
<path d="M179.537 143.469C170.677 138.999 164.278 132.122 164.278 132.122L165.287 122.499C179.309 124.546 187.395 127.542 187.395 127.542C187.395 127.542 182.205 108.89 186.953 102.096L200.008 104.462C200.008 104.462 213.879 133.326 204.549 143.455H179.531L179.537 143.469Z" fill="#407BFF"/>
<path opacity="0.7" d="M179.558 143.469C170.691 139.006 164.285 132.129 164.285 132.129L165.294 122.499C178.867 124.491 186.891 127.355 187.382 127.528C187.209 126.85 182.295 108.772 186.953 102.096L200.001 104.469C200.001 104.469 204.127 113.041 206.366 122.499C208.233 130.379 208.778 138.861 204.535 143.469H179.551H179.558Z" fill="white"/>
<path opacity="0.2" d="M190.291 143.469C185.681 114.224 189.773 106.807 189.773 106.807L206.38 122.499C208.246 130.379 208.792 138.861 204.549 143.469H190.298H190.291Z" fill="black"/>
<path d="M193.173 143.469C190.063 128.691 186.573 105.548 186.96 102.103C187.52 97.1009 214.736 75.6328 238.351 91.2617C243.175 94.4511 245.656 128.857 246.499 143.469H193.173Z" fill="#407BFF"/>
<path opacity="0.7" d="M193.173 143.469C190.063 128.684 186.573 105.548 186.953 102.096C187.506 97.1009 214.729 75.6397 238.344 91.2617C240.1 92.4309 241.537 97.7166 242.719 104.69C244.302 114.183 245.387 126.781 246.036 136.287C246.216 138.978 246.368 141.414 246.486 143.469H193.166H193.173Z" fill="white"/>
<path d="M204.832 27.7638C213.022 24.4499 232.332 36.3428 234.025 57.5479C235.718 78.7531 224.978 72.8723 224.978 72.8723C224.978 72.8723 223.071 80.967 215.247 78.4625C215.247 78.4625 208.785 85.7892 202.773 82.8073C202.773 82.8073 195.288 90.6113 191.273 86.4948C191.273 86.4948 186.905 91.49 182.917 87.7056C178.929 83.9212 167.54 45.3645 185.419 36.4465C203.298 27.5286 204.839 27.7569 204.839 27.7569L204.832 27.7638Z" fill="#263238"/>
<path d="M204.818 114.535L205.606 114.466C204.701 104.255 206.94 99.7368 206.968 99.6884L206.263 99.3286C206.166 99.5154 203.885 104.061 204.818 114.535Z" fill="#263238"/>
<path d="M201.114 114.653C206.532 101.854 200.437 98.8789 200.174 98.7613L199.842 99.4808C199.898 99.5085 205.482 102.311 200.381 114.349L201.107 114.66L201.114 114.653Z" fill="#263238"/>
<path d="M206.415 101.792C206.415 101.792 216.885 93.5033 233.14 88.8125L238.351 91.2617C238.351 91.2617 247.101 80.4204 232.518 76.8712C217.936 73.329 198.101 83.0771 193.118 91.4692C188.135 99.8614 201.771 102.525 201.771 102.525C201.771 102.525 203.042 100.844 206.422 101.792H206.415Z" fill="#407BFF"/>
<path opacity="0.6" d="M206.415 101.792C206.415 101.792 216.885 93.5033 233.14 88.8125L238.351 91.2617C238.351 91.2617 247.101 80.4204 232.518 76.8712C217.936 73.329 198.101 83.0771 193.118 91.4692C188.135 99.8614 201.771 102.525 201.771 102.525C201.771 102.525 203.042 100.844 206.422 101.792H206.415Z" fill="white"/>
<path d="M200.098 114.501C200.098 114.881 200.409 115.193 200.789 115.193C201.169 115.193 201.48 114.881 201.48 114.501C201.48 114.12 201.169 113.809 200.789 113.809C200.409 113.809 200.098 114.12 200.098 114.501Z" fill="white"/>
<path d="M204.59 114.501C204.59 114.881 204.901 115.193 205.281 115.193C205.662 115.193 205.973 114.881 205.973 114.501C205.973 114.12 205.662 113.809 205.281 113.809C204.901 113.809 204.59 114.12 204.59 114.501Z" fill="white"/>
<path d="M211.978 62.6468C212.614 70.0773 214.888 83.2847 220.921 86.1904C220.921 86.1904 214.176 87.5672 203.657 100.934C197.665 96.7204 199.932 93.8561 199.932 93.8561C206.94 89.2553 205.123 83.5822 202.289 78.6631L211.978 62.6399V62.6468Z" fill="#EBB376"/>
<path opacity="0.2" d="M208.032 69.1848L202.296 78.6631C202.973 79.8254 203.581 81.0293 204.024 82.2607C206.781 80.7802 209.815 76.0895 209.248 72.8793C208.965 71.2811 208.481 69.8144 208.032 69.1848Z" fill="black"/>
<path d="M212.801 46.9696C214.729 58.6341 215.793 63.5186 211.474 71.032C204.984 82.3299 190.602 82.8626 185.315 72.1805C180.553 62.5638 178.197 45.1016 188.121 37.3944C197.9 29.7979 210.866 35.3119 212.794 46.9765L212.801 46.9696Z" fill="#EBB376"/>
<path d="M188.923 30.891C181.376 35.0905 174.181 48.1941 184.928 44.9148C186.545 48.0627 192.337 45.1777 195.696 41.4002C196.262 44.0223 202.462 46.6513 207.016 42.5902C204.811 45.7727 208.564 53.805 212.469 52.4213C216.381 51.0376 225.137 49.2181 217.369 36.834C209.601 24.4499 196.988 26.4078 188.916 30.891H188.923Z" fill="#263238"/>
<path d="M191.673 57.9769C191.673 57.9769 190.975 62.6122 189.669 65.1237C191.148 65.9746 193.118 64.8331 193.118 64.8331L191.68 57.9769H191.673Z" fill="#D58745"/>
<path d="M199.207 66.9086C198.743 67.1369 198.239 67.3307 197.679 67.4898C197.527 67.5313 197.382 67.4413 197.347 67.2822C197.313 67.1231 197.403 66.964 197.562 66.9225C201.632 65.7671 202.911 62.2456 202.925 62.211C202.98 62.0519 203.139 61.9688 203.284 62.0173C203.429 62.0657 203.498 62.2317 203.45 62.3909C203.402 62.5292 202.372 65.3658 199.213 66.9086H199.207Z" fill="#263238"/>
<path d="M218.668 55.3548C217.936 58.0461 216.132 60.0801 214.259 61.1109C211.446 62.6538 209.387 60.0109 209.629 56.7177C209.843 53.7566 211.571 49.3841 214.66 49.2112C217.701 49.0382 219.511 52.283 218.668 55.3548Z" fill="#EBB376"/>
<path d="M200.001 47.2878C199.863 47.3432 199.704 47.3363 199.566 47.2671C197.389 46.0978 195.564 47.184 195.544 47.1979C195.274 47.357 194.935 47.274 194.79 46.9903C194.645 46.7067 194.749 46.3469 195.025 46.1809C195.122 46.1255 197.41 44.7557 200.112 46.2085C200.381 46.3538 200.478 46.7067 200.326 47.0042C200.257 47.1425 200.14 47.2463 200.008 47.2947L200.001 47.2878Z" fill="#263238"/>
<path d="M181.431 51.8402C181.307 51.9093 181.155 51.9301 181.016 51.8817C180.726 51.7917 180.567 51.4596 180.671 51.1483C181.673 48.0073 184.161 47.1771 184.272 47.1494C184.569 47.0526 184.873 47.2325 184.949 47.5438C185.025 47.8551 184.845 48.1872 184.548 48.2841C184.451 48.3187 182.523 48.9828 181.728 51.4873C181.68 51.6464 181.569 51.7779 181.431 51.8471V51.8402Z" fill="#263238"/>
<path d="M196.29 54.9258C196.629 55.846 197.403 56.4133 198.018 56.185C198.633 55.9567 198.854 55.0296 198.515 54.1094C198.177 53.1893 197.403 52.622 196.795 52.8503C196.179 53.0786 195.958 54.0057 196.297 54.9258H196.29Z" fill="#263238"/>
<path d="M197.057 52.7949L194.763 52.7465C194.763 52.7465 196.38 54.0679 197.057 52.7949Z" fill="#263238"/>
<path d="M184.679 58.6065C185.018 59.5266 185.792 60.0939 186.407 59.8656C187.022 59.6373 187.243 58.7102 186.905 57.7901C186.566 56.8699 185.792 56.3026 185.184 56.5309C184.569 56.7592 184.348 57.6863 184.686 58.6065H184.679Z" fill="#263238"/>
<path d="M185.453 56.4756L183.159 56.4271C183.159 56.4271 184.776 57.7486 185.453 56.4756Z" fill="#263238"/>
<path d="M197.375 61.4638C198.08 61.4638 198.778 61.3185 199.435 61.0279C200.81 60.4122 201.826 59.2222 202.303 57.6794C202.766 56.1573 202.648 54.4623 201.957 52.9195C201.266 51.3766 200.091 50.1521 198.647 49.481C197.182 48.803 195.62 48.7684 194.237 49.3841C192.862 49.9999 191.846 51.1898 191.369 52.7327C190.906 54.2547 191.024 55.9498 191.715 57.4926C192.406 59.0354 193.581 60.26 195.025 60.9311C195.792 61.2839 196.594 61.4638 197.375 61.4638ZM196.29 49.73C196.96 49.73 197.645 49.8823 198.308 50.1936C199.58 50.7817 200.616 51.8609 201.232 53.2377C201.847 54.6076 201.957 56.102 201.543 57.4441C201.142 58.7656 200.271 59.7826 199.11 60.3015C197.949 60.8204 196.615 60.7927 195.357 60.2115C194.085 59.6235 193.049 58.5442 192.434 57.1674C191.819 55.7975 191.708 54.3032 192.123 52.961C192.524 51.6395 193.394 50.6225 194.555 50.1036C195.108 49.8546 195.689 49.737 196.29 49.737V49.73Z" fill="#263238"/>
<path d="M185.875 64.9853C186.573 64.9853 187.264 64.8469 187.921 64.5494C189.296 63.9337 190.312 62.7437 190.789 61.2009C191.252 59.6719 191.134 57.9838 190.443 56.441C189.752 54.8982 188.577 53.6736 187.133 53.0025C185.668 52.3245 184.106 52.2899 182.723 52.9056C181.348 53.5214 180.332 54.7114 179.855 56.2542C179.392 57.7832 179.51 59.4713 180.201 61.0141C181.3 63.4771 183.594 64.9784 185.875 64.9784V64.9853ZM184.776 53.2585C185.446 53.2585 186.131 53.4107 186.794 53.722C188.066 54.3101 189.102 55.3894 189.718 56.7661C190.333 58.136 190.443 59.6304 190.029 60.9726C189.628 62.294 188.757 63.311 187.596 63.8299C185.17 64.9161 182.178 63.5117 180.92 60.6958C180.305 59.326 180.194 57.8316 180.609 56.4894C181.016 55.168 181.88 54.151 183.041 53.6321C183.587 53.383 184.175 53.2654 184.776 53.2654V53.2585Z" fill="#263238"/>
<path d="M190.81 57.7762C190.872 57.624 190.948 57.5825 191.017 57.5548C191.293 57.4441 191.763 57.6171 191.908 57.6863L192.254 56.9737C192.164 56.9322 191.383 56.5655 190.734 56.8146C190.429 56.9322 190.201 57.1605 190.077 57.4857L190.81 57.7762Z" fill="#263238"/>
<path d="M210.96 50.1989L211.194 50.9522L201.886 53.8417L201.653 53.0884L210.96 50.1989Z" fill="#263238"/>
<path opacity="0.2" d="M211.902 123.177C211.902 123.177 230.086 137.124 246.043 136.287C245.394 126.781 244.309 114.176 242.726 104.69C241.102 102.885 240.024 101.799 240.024 101.799L230.321 109.042L232.677 111.996C232.677 111.996 218.033 111.256 212.932 111.996L211.902 123.177Z" fill="black"/>
<path d="M210.022 111.996L195.468 109.028L194.942 122.014C194.942 122.014 204.825 125.522 210.472 118.963L210.022 111.989V111.996Z" fill="#EBB376"/>
<path d="M185.336 112.038L187.257 121.814L194.949 122.021L195.475 109.035L185.336 112.038Z" fill="#EBB376"/>
<path d="M210.022 111.996L209.318 122.021L212.932 123.647L214.48 111.996H210.022Z" fill="#407BFF"/>
<path opacity="0.6" d="M210.022 111.996L209.318 122.021L212.932 123.647L214.48 111.996H210.022Z" fill="white"/>
<path d="M233.14 88.8125C233.14 88.8125 238.731 89.4352 243.127 94.5964C247.515 99.7576 262.989 115.089 259.548 127.598C256.106 140.106 223.036 130.801 212.932 123.647L214.48 111.996L237.391 113.678L230.327 109.028C225.483 95.5304 233.14 88.8056 233.14 88.8056V88.8125Z" fill="#407BFF"/>
<path opacity="0.7" d="M233.14 88.8125C233.14 88.8125 238.731 89.4352 243.127 94.5964C247.515 99.7576 262.989 115.089 259.548 127.598C256.106 140.106 223.036 130.801 212.932 123.647L214.48 111.996L237.391 113.678L230.327 109.028C225.483 95.5304 233.14 88.8056 233.14 88.8056V88.8125Z" fill="white"/>
<path d="M166.793 122.727L162.619 122.021V133.208L165.923 133.748L166.793 122.727Z" fill="#407BFF"/>
<path opacity="0.6" d="M166.793 122.727L162.619 122.021V133.208L165.923 133.748L166.793 122.727Z" fill="white"/>
<path d="M175.211 133.098C175.218 132.489 175.197 131.852 175.121 131.264L174.997 130.344L175.888 130.87L176.421 131.181C176.607 131.244 176.78 131.347 176.96 131.389C177.319 131.5 177.644 131.5 177.927 131.41C178.211 131.313 178.466 131.112 178.701 130.849C178.922 130.586 179.137 130.213 179.247 129.908L180.028 127.729L180.581 130.033C180.636 130.261 180.671 130.496 180.719 130.725C180.775 130.946 180.851 131.154 180.913 131.368C181.092 131.749 181.3 132.081 181.556 132.247C181.811 132.42 182.178 132.427 182.599 132.337C183.014 132.247 183.463 132.025 183.836 131.79L185.039 131.043L184.548 132.268C184.348 132.773 184.182 133.326 184.05 133.873C183.995 134.149 183.947 134.426 183.94 134.703C183.94 134.98 183.947 135.27 184.12 135.519C183.871 135.346 183.726 135.042 183.65 134.744C183.567 134.447 183.532 134.136 183.525 133.831C183.518 133.589 183.532 133.347 183.553 133.105C183.359 133.215 183.152 133.319 182.931 133.409C182.378 133.63 181.625 133.7 180.961 133.368C180.291 133.035 179.931 132.44 179.669 131.901C179.662 131.873 179.648 131.839 179.634 131.811C179.282 132.191 178.805 132.517 178.245 132.641C177.658 132.773 177.043 132.696 176.559 132.468C176.345 132.385 176.165 132.261 175.971 132.15C175.971 132.178 175.971 132.198 175.964 132.226C175.923 132.551 175.854 132.876 175.764 133.195C175.681 133.513 175.57 133.831 175.418 134.129C175.273 134.426 175.08 134.71 174.817 134.91C174.997 134.641 175.059 134.329 175.121 134.032C175.17 133.727 175.197 133.423 175.204 133.112L175.211 133.098Z" fill="#407BFF"/>
<path d="M150.49 117.483C150.946 117.545 151.561 117.483 152.086 117.317C152.612 117.151 153.178 116.888 153.593 116.59C154.028 116.279 154.402 115.871 154.706 115.393C155.01 114.937 155.286 114.39 155.445 113.906L155.901 112.536L156.675 113.761C156.986 114.252 157.429 114.757 157.864 115.137C158.306 115.525 158.811 115.781 159.253 115.767H159.419C159.481 115.746 159.557 115.732 159.626 115.719C159.772 115.698 159.91 115.649 160.055 115.608C160.338 115.518 160.615 115.393 160.891 115.248C161.423 114.957 161.956 114.549 162.384 114.141L163.587 112.986L163.338 114.57C163.206 115.4 163.13 116.293 163.172 117.13C163.2 117.545 163.262 117.967 163.414 118.306C163.566 118.652 163.849 118.825 164.257 118.79L164.575 118.763L164.478 119.019C164.278 119.538 164.07 120.056 163.856 120.568C163.925 120.105 164.001 119.648 164.077 119.192L163.953 119.212C163.822 119.212 163.676 119.171 163.538 119.143C163.414 119.088 163.289 119.005 163.172 118.922C163.082 118.825 162.985 118.721 162.902 118.617C162.598 118.181 162.488 117.697 162.384 117.234C162.294 116.763 162.246 116.3 162.232 115.836C162.232 115.829 162.232 115.822 162.232 115.815C162.004 115.995 161.769 116.168 161.52 116.32C161.195 116.514 160.857 116.694 160.497 116.832C160.117 116.964 159.792 117.081 159.302 117.102C158.362 117.13 157.581 116.673 156.993 116.182C156.71 115.947 156.468 115.698 156.24 115.435C156.109 115.677 155.964 115.912 155.791 116.141C155.383 116.694 154.879 117.199 154.277 117.587C153.655 117.981 153.033 118.181 152.363 118.334C151.927 118.41 151.499 118.458 151.043 118.431C151.098 118.576 151.16 118.714 151.209 118.853C151.326 119.254 151.43 119.655 151.492 120.07C151.568 120.478 151.575 120.907 151.547 121.322C151.513 121.738 151.409 122.16 151.181 122.499C151.326 122.118 151.305 121.71 151.264 121.322C151.216 120.935 151.126 120.555 150.994 120.188C150.746 119.448 150.386 118.749 149.992 118.078L149.557 117.337L150.504 117.469L150.49 117.483Z" fill="#407BFF"/>
<path d="M12.2258 158.364L254.599 158.364C256.293 158.364 257.668 156.987 257.668 155.292V147.82L9.15726 147.82L9.15726 155.292C9.15726 156.987 10.5326 158.364 12.2258 158.364Z" fill="#407BFF"/>
<path opacity="0.2" d="M257.675 153.092L9.15726 153.092V147.82L257.675 147.82V153.092Z" fill="black"/>
<path d="M262.879 149.197H3.93934C2.3014 149.197 0.974459 147.869 0.974459 146.229C0.974459 144.589 2.3014 143.261 3.93934 143.261H262.879C264.517 143.261 265.844 144.589 265.844 146.229C265.844 147.869 264.517 149.197 262.879 149.197Z" fill="#407BFF"/>
<path d="M21.4936 106.974L29.0544 141.303C29.3032 142.431 30.4021 143.254 31.5079 143.254H72.8019C73.9008 143.254 74.6057 142.23 74.35 141.096L66.803 107.029C66.5473 105.908 65.4553 105.348 64.3496 105.348H23.0555C21.9428 105.348 21.2517 105.853 21.4936 106.974Z" fill="#263238"/>
<path opacity="0.4" d="M21.4936 106.974L29.0544 141.303C29.3032 142.431 30.4021 143.254 31.5079 143.254H71.3989C72.5116 143.254 73.2028 142.23 72.9609 141.096L65.4001 107.029C65.1513 105.908 64.0524 105.348 62.9466 105.348H23.0555C21.9428 105.348 21.2517 105.853 21.4936 106.974Z" fill="white"/>
<path d="M28.0799 142.175L20.5606 108.018C20.3118 106.897 21.0099 106.392 22.1226 106.392H62.0136C63.1263 106.392 64.2252 106.953 64.4671 108.074L72.1039 142.618L28.0799 142.175Z" fill="#407BFF"/>
<path opacity="0.4" d="M20.5676 108.011L24.5345 126.055L28.0868 142.168L51.6607 142.403L72.1039 142.611L64.474 108.074C64.2183 106.953 63.1332 106.399 62.0274 106.399H22.1226C21.0168 106.399 20.3187 106.904 20.5744 108.011H20.5676Z" fill="white"/>
<path opacity="0.2" d="M24.5276 126.055L28.08 142.168L51.6538 142.403H71.2262L68.0263 127.667C67.819 126.719 66.9827 126.048 66.0221 126.048H24.5345L24.5276 126.055Z" fill="black"/>
<path d="M23.8503 128.303C24.0991 127.182 25.198 126.622 26.3038 126.622H66.1949C67.3075 126.622 67.9987 127.127 67.7568 128.248L64.7297 141.981H71.4611C71.8136 141.981 72.097 142.265 72.097 142.618C72.097 142.97 71.8136 143.254 71.4611 143.254H22.323C21.3969 143.254 20.7127 142.396 20.9131 141.497L23.8434 128.303H23.8503Z" fill="#407BFF"/>
<path opacity="0.4" d="M23.8503 128.303C24.0991 127.182 25.198 126.622 26.3038 126.622H66.1949C67.3075 126.622 67.9987 127.127 67.7568 128.248L64.7297 141.981H71.4611C71.8136 141.981 72.097 142.265 72.097 142.618C72.097 142.97 71.8136 143.254 71.4611 143.254H22.323C21.3969 143.254 20.7127 142.396 20.9131 141.497L23.8434 128.303H23.8503Z" fill="white"/>
<path d="M72.6637 136.633H74.9789L75.2692 137.885H73.0161L72.6637 136.633Z" fill="black"/>
<path d="M87.2945 143.42H93.9638C94.1849 143.42 94.3577 143.24 94.3577 143.026C94.3577 142.811 94.178 142.631 93.9638 142.631H87.2945C85.0692 142.631 82.9889 141.635 81.5859 139.899C80.0378 137.975 77.7364 136.868 75.2623 136.868H74.0874C73.8662 136.868 73.6934 137.048 73.6934 137.263C73.6934 137.477 73.8731 137.657 74.0874 137.657H75.2623C77.4876 137.657 79.5679 138.653 80.9709 140.39C82.519 142.313 84.8204 143.42 87.2945 143.42Z" fill="black"/>
<path d="M198.426 138.529V141.421C198.426 142.721 196.857 143.254 195.557 143.254H94.2541C92.9686 143.254 91.4412 142.721 91.4412 141.421V138.529H198.426Z" fill="#263238"/>
<path opacity="0.4" d="M198.426 138.529V141.421C198.426 142.721 196.857 143.254 195.557 143.254H94.2541C92.9686 143.254 91.4412 142.721 91.4412 141.421V138.529H198.426Z" fill="white"/>
<path opacity="0.2" d="M163.911 138.529V141.421C163.911 142.721 162.37 143.254 161.071 143.254H94.2541C92.9686 143.254 91.4412 142.721 91.4412 141.421V138.529H163.918H163.911Z" fill="black"/>
<path d="M74.4882 83.6583L86.5482 138.418C86.9421 140.224 88.6906 141.531 90.4668 141.531H156.344C158.099 141.531 159.226 139.892 158.818 138.093L146.772 83.7482C146.364 81.9633 144.629 81.0708 142.853 81.0708H76.9762C75.207 81.0708 74.0943 81.8733 74.4882 83.6583Z" fill="#263238"/>
<path opacity="0.4" d="M74.4882 83.6583L86.5481 138.418C86.9421 140.224 88.6906 141.531 90.4667 141.531H154.104C155.874 141.531 156.986 139.892 156.592 138.093L144.533 83.7482C144.139 81.9633 142.39 81.0708 140.614 81.0708H76.9762C75.207 81.0708 74.0943 81.8733 74.4882 83.6583Z" fill="white"/>
<path opacity="0.2" d="M106.971 111.491V111.505C106.971 116.196 111.995 120.001 115.672 120.001C119.348 120.001 121.532 116.189 120.482 111.505C119.431 106.911 115.768 103.161 112.168 103.023C113.218 107.714 110.972 111.505 107.302 111.505C107.226 111.505 106.964 111.505 106.964 111.491H106.971Z" fill="black"/>
</g>
<defs>
<clipPath id="clip0_1_773">
<rect width="268" height="158" fill="white" transform="matrix(-1 0 0 1 268 0)"/>
</clipPath>
</defs>
</svg>
