<svg width="17" height="17" viewBox="0 0 24 24" fill="none" xmlns="http://www.w3.org/2000/svg">
<circle cx="11.75" cy="12" r="11.75" fill="#1C4481"/>
<path d="M13.1657 5.96631L12.8528 13.8308H10.5845L10.2716 5.96631H13.1657ZM11.7578 18.0339C11.2885 18.0339 10.9026 17.8916 10.6001 17.607C10.3081 17.3115 10.1621 16.9503 10.1621 16.5234C10.1621 16.0856 10.3081 15.7189 10.6001 15.4233C10.9026 15.1278 11.2885 14.98 11.7578 14.98C12.2167 14.98 12.5921 15.1278 12.8841 15.4233C13.1866 15.7189 13.3378 16.0856 13.3378 16.5234C13.3378 16.9503 13.1866 17.3115 12.8841 17.607C12.5921 17.8916 12.2167 18.0339 11.7578 18.0339Z" fill="white"/>
</svg>
