<svg width="17" height="17" viewBox="0 0 22 22" fill="none" xmlns="http://www.w3.org/2000/svg">
<path d="M12.6214 20.1919C11.4143 20.4047 10.1772 20.3777 8.98055 20.1124C7.78393 19.8471 6.65128 19.3488 5.64727 18.6457C4.64326 17.9427 3.78755 17.0488 3.129 16.0151C2.47044 14.9814 2.02195 13.8281 1.80911 12.621C1.59628 11.414 1.62327 10.1768 1.88855 8.98022C2.15384 7.78361 2.65221 6.65096 3.35523 5.64695C4.05825 4.64294 4.95213 3.78723 5.98585 3.12867C7.01957 2.47012 8.17288 2.02162 9.37993 1.80879C10.587 1.59595 11.8241 1.62295 13.0208 1.88823C14.2174 2.15351 15.35 2.65189 16.354 3.35491C17.358 4.05792 18.2138 4.95181 18.8723 5.98553C19.5309 7.01925 19.9794 8.17256 20.1922 9.37961C20.405 10.5867 20.378 11.8238 20.1127 13.0204C19.8475 14.217 19.3491 15.3497 18.6461 16.3537C17.9431 17.3577 17.0492 18.2134 16.0154 18.872C14.9817 19.5305 13.8284 19.979 12.6214 20.1919L12.6214 20.1919Z" stroke="black" stroke-width="2"/>
<path d="M11 11L11 16" stroke="black" stroke-width="3" stroke-linecap="square"/>
<path d="M11 6.83301L11 5.99967" stroke="black" stroke-width="3" stroke-linecap="square"/>
</svg>
