<svg width="17" height="17" viewBox="0 0 20 23" fill="none" xmlns="http://www.w3.org/2000/svg">
<path d="M9.24045 14.4549V14.3531C8.46244 13.9972 7.91098 13.2594 7.79093 12.4145C7.4629 12.2956 7.23162 11.9787 7.23162 11.6199C7.23162 11.311 7.39846 11.0345 7.6567 10.887C7.62983 10.8029 7.60777 10.718 7.59077 10.6333C7.45338 9.95198 7.60991 9.25562 8.03146 8.67249C8.44622 8.0988 9.06961 7.70321 9.78686 7.55855C9.97976 7.5197 10.1764 7.5 10.3714 7.5C10.9866 7.5 11.5867 7.69835 12.0614 8.05856C12.5503 8.42945 12.8845 8.95643 13.0027 9.54239C13.0923 9.98672 13.0557 10.445 12.8973 10.875C13.1658 11.0193 13.3435 11.3029 13.3435 11.62C13.3435 11.9835 13.1087 12.3014 12.7759 12.4177C12.6526 13.2827 12.0832 14.0275 11.2796 14.3746V14.4549C12.9487 14.833 14.0996 16.0815 14.0996 17.5404V17.9301H12.6469V17.9294H12.4856V17.9301H6.42038V17.5404C6.42038 16.0814 7.5713 14.833 9.24045 14.4549ZM10.3714 8.27932C10.2283 8.27932 10.0834 8.29387 9.9408 8.32249C9.41645 8.42833 8.96261 8.71473 8.66307 9.12915C8.38371 9.51541 8.27118 9.96972 8.3431 10.4156C8.72655 10.2366 9.23061 10.0474 9.76082 9.97476C10.7574 9.83853 10.7734 9.79218 10.8328 9.61994L11.0231 9.0693L11.4607 9.45661C11.5073 9.49755 11.86 9.80755 12.2669 10.1448C12.2782 9.99517 12.2688 9.84522 12.2388 9.69631C12.0732 8.87524 11.2879 8.27932 10.3714 8.27932ZM12.0225 10.9519C11.7492 10.7308 11.4793 10.5025 11.2839 10.3349C11.0131 10.5791 10.5909 10.6478 9.86652 10.7469C9.37514 10.8141 8.89326 11.0109 8.54468 11.1837V12.0619C8.54468 13.0208 9.32469 13.8008 10.2835 13.8008C11.2425 13.8008 12.0225 13.0208 12.0225 12.0619V10.9519H12.0225ZM10.5002 14.5706C10.3391 14.5848 10.179 14.5831 10.0198 14.5663V14.8069L10.2606 14.9404L10.5002 14.8073V14.5706ZM13.2805 17.1503C13.1016 16.2776 12.3353 15.5522 11.2796 15.2584V15.2659L10.2613 15.8316L9.24044 15.2662V15.2584C8.18459 15.5522 7.41818 16.2778 7.23946 17.1507L12.4888 17.15V17.1503L13.2805 17.1503Z" fill="#1C4481" stroke="#1C4481" stroke-width="0.5"/>
<path d="M6.42076 19.6291H14.1C14.3322 19.6291 14.5205 19.4408 14.5205 19.2086C14.5205 18.9763 14.3322 18.7881 14.1 18.7881H6.42077C6.18853 18.7881 6.00027 18.9763 6.00027 19.2086C6.00027 19.4408 6.18852 19.6291 6.42076 19.6291Z" fill="#1C4481"/>
<path d="M2.43002 3.11997H8.31867V2.06427C8.31867 1.5442 8.74178 1.12109 9.26185 1.12109H10.7387C11.2587 1.12109 11.6818 1.5442 11.6818 2.06427V3.11996H17.5705C18.0906 3.11996 18.5137 3.54307 18.5137 4.06314V19.935C18.5137 20.4551 18.0906 20.8782 17.5705 20.8782H2.43C1.90995 20.8782 1.48684 20.4551 1.48684 19.935V4.06315C1.48685 3.54307 1.90996 3.11997 2.43002 3.11997ZM10.9869 2.06427C10.9869 1.92742 10.8755 1.81606 10.7387 1.81606H9.26185C9.12501 1.81606 9.01365 1.92742 9.01365 2.06427V3.11996V3.81493V5.24128C9.01365 5.37813 9.12499 5.48948 9.26185 5.48948H10.7387C10.8755 5.48948 10.9869 5.37814 10.9869 5.24128V3.81494V3.11997V2.06427ZM2.18182 19.935C2.18182 20.0719 2.29316 20.1832 2.43002 20.1832H17.5705C17.7073 20.1832 17.8187 20.0719 17.8187 19.935V4.06315C17.8187 3.92629 17.7073 3.81494 17.5705 3.81494H11.6818V5.24129C11.6818 5.76136 11.2587 6.18447 10.7387 6.18447H9.26184C8.74177 6.18447 8.31866 5.76136 8.31866 5.24129V3.81494H2.43C2.29316 3.81494 2.1818 3.92629 2.1818 4.06315L2.18182 19.935Z" fill="#1C4481" stroke="#1C4481"/>
</svg>
