<svg width="17" height="17" viewBox="0 0 17 18" fill="none" xmlns="http://www.w3.org/2000/svg">
<g clip-path="url(#clip0_1_8334)">
<path d="M-2.3758e-06 11.6549C0.454196 10.3849 1.20288 9.41493 2.59043 9.07993C2.63081 9.0643 2.67259 9.05258 2.71521 9.04492C5.16089 9.04492 7.60825 9.04492 10.0573 9.04492C10.0922 9.04492 10.1271 9.08993 10.207 9.14493C9.67293 9.70993 9.42336 10.4599 8.53992 10.7549C8.12774 10.9017 7.7711 11.1728 7.51905 11.5309C7.26699 11.8891 7.1319 12.3167 7.1324 12.7549C7.08249 13.5899 7.1324 14.4299 7.1324 15.3549H6.13416C4.36728 15.3549 2.6004 15.3549 0.838514 15.3549C0.546068 15.3087 0.260842 15.2247 -0.00999451 15.1049L-2.3758e-06 11.6549Z" fill="#1C4481"/>
<path d="M9.28901 17.4998C9.00676 17.3291 8.78011 17.0799 8.63657 16.7826C8.49302 16.4852 8.43878 16.1525 8.48044 15.8248C8.53534 14.9948 8.48044 14.1548 8.48044 13.2148C9.72325 13.8648 10.9012 14.4498 12.0492 15.0898C12.2486 15.221 12.4819 15.291 12.7205 15.291C12.959 15.291 13.1924 15.221 13.3918 15.0898C14.5398 14.4498 15.7177 13.8648 16.9605 13.2148C16.9605 14.3498 17.0304 15.3899 16.9255 16.4099C16.8856 16.7949 16.4264 17.1299 16.1719 17.4899L9.28901 17.4998Z" fill="#1C4481"/>
<path d="M6.3583 0.500034C7.29359 0.495936 8.19288 0.86085 8.86166 1.51584C9.53045 2.17083 9.91497 3.06325 9.93201 4.00003C9.9307 4.47059 9.83679 4.93627 9.65567 5.37044C9.47456 5.80461 9.20977 6.19875 8.87647 6.53032C8.54317 6.86189 8.14787 7.1244 7.71321 7.3028C7.27855 7.4812 6.81307 7.57202 6.34334 7.57004C5.40597 7.56216 4.50943 7.1846 3.84799 6.51918C3.18655 5.85377 2.81348 4.95408 2.80957 4.01503C2.82008 3.07914 3.1986 2.18515 3.86298 1.52709C4.52736 0.869023 5.42399 0.499975 6.3583 0.500034Z" fill="#1C4481"/>
<path d="M14.8589 11.7146L16.5559 12.0096L16.5858 12.2296C16.0568 12.5096 15.5377 12.8046 15.0036 13.0796C14.2599 13.4596 13.5063 14.1146 12.7626 14.1196C12.0189 14.1246 11.2652 13.4696 10.5166 13.0946C9.98749 12.8246 9.46342 12.5396 8.89941 12.2396C9.34363 11.6396 9.99248 11.8746 10.5814 11.7746C10.5814 11.5746 10.5815 11.3846 10.6214 11.1946C10.6401 10.8938 10.7712 10.6111 10.9885 10.4026C11.2058 10.1942 11.4935 10.0753 11.7943 10.0696C12.4132 10.0696 13.0321 10.0696 13.646 10.0696C13.9589 10.0629 14.2617 10.1807 14.4881 10.3972C14.7145 10.6136 14.8461 10.9112 14.8539 11.2246C14.8689 11.3946 14.8589 11.5696 14.8589 11.7146ZM13.7608 11.7746C13.8706 11.3096 13.7608 11.0796 13.2617 11.1146C12.9111 11.1396 12.5592 11.1396 12.2086 11.1146C11.7095 11.0846 11.5997 11.3146 11.7095 11.7746H13.7608Z" fill="#1C4481"/>
</g>
<defs>
<clipPath id="clip0_1_8334">
<rect width="17" height="17" fill="white" transform="translate(0 0.5)"/>
</clipPath>
</defs>
</svg>
