<svg width="17" height="17" viewBox="0 0 17 16" fill="none" xmlns="http://www.w3.org/2000/svg">
<circle cx="4" cy="11.25" r="3" fill="#1C4481" stroke="#1C4481" stroke-width="2"/>
<path d="M14.2071 2.45711C14.5976 2.06658 14.5976 1.43342 14.2071 1.04289C13.8166 0.652369 13.1834 0.652369 12.7929 1.04289L14.2071 2.45711ZM14.2929 5.95711L15 6.66421L16.4142 5.25L15.7071 4.54289L14.2929 5.95711ZM12.2929 5.95711L13 6.66421L14.4142 5.25L13.7071 4.54289L12.2929 5.95711ZM5.29289 8.54289C4.90237 8.93342 4.90237 9.56658 5.29289 9.95711C5.68342 10.3476 6.31658 10.3476 6.70711 9.95711L5.29289 8.54289ZM11.7929 7.45711L12.5 8.16421L13.9142 6.75L13.2071 6.04289L11.7929 7.45711ZM13.2071 3.45711L14.2071 2.45711L12.7929 1.04289L11.7929 2.04289L13.2071 3.45711ZM11.7929 3.45711L14.2929 5.95711L15.7071 4.54289L13.2071 2.04289L11.7929 3.45711ZM12.2071 4.45711L13.2071 3.45711L11.7929 2.04289L10.7929 3.04289L12.2071 4.45711ZM10.7929 4.45711L12.2929 5.95711L13.7071 4.54289L12.2071 3.04289L10.7929 4.45711ZM6.70711 9.95711L11.2071 5.45711L9.79289 4.04289L5.29289 8.54289L6.70711 9.95711ZM11.2071 5.45711L12.2071 4.45711L10.7929 3.04289L9.79289 4.04289L11.2071 5.45711ZM9.79289 5.45711L11.7929 7.45711L13.2071 6.04289L11.2071 4.04289L9.79289 5.45711Z" fill="#1C4481"/>
</svg>
