<svg width="9" height="18" viewBox="0 0 9 18" fill="none" xmlns="http://www.w3.org/2000/svg">
<mask id="path-1-inside-1_1_192" fill="white">
<path fill-rule="evenodd" clip-rule="evenodd" d="M2.59045e-06 8.89679L0.600559 8.22842L7.33964 0.728423L8.8273 2.06516L2.68878 8.89679L8.8273 15.7284L7.33964 17.0652L0.600559 9.56515L2.59045e-06 8.89679Z"/>
</mask>
<path d="M0.600559 8.22842L-0.143274 7.56006L-0.143274 7.56006L0.600559 8.22842ZM2.59045e-06 8.89679L-0.74383 8.22842L-1.34439 8.89679L-0.74383 9.56515L2.59045e-06 8.89679ZM7.33964 0.728423L8.008 -0.0154097L7.26417 -0.683776L6.5958 0.0600565L7.33964 0.728423ZM8.8273 2.06516L9.57113 2.73352L10.2395 1.98969L9.49567 1.32132L8.8273 2.06516ZM2.68878 8.89679L1.94495 8.22842L1.34439 8.89679L1.94495 9.56515L2.68878 8.89679ZM8.8273 15.7284L9.49567 16.4723L10.2395 15.8039L9.57113 15.0601L8.8273 15.7284ZM7.33964 17.0652L6.5958 17.7335L7.26417 18.4774L8.008 17.809L7.33964 17.0652ZM0.600559 9.56515L1.34439 8.89679L1.34439 8.89679L0.600559 9.56515ZM-0.143274 7.56006L-0.74383 8.22842L0.743835 9.56515L1.34439 8.89679L-0.143274 7.56006ZM6.5958 0.0600565L-0.143274 7.56006L1.34439 8.89679L8.08347 1.39679L6.5958 0.0600565ZM9.49567 1.32132L8.008 -0.0154097L6.67127 1.47225L8.15893 2.80899L9.49567 1.32132ZM3.43261 9.56515L9.57113 2.73352L8.08347 1.39679L1.94495 8.22842L3.43261 9.56515ZM9.57113 15.0601L3.43261 8.22842L1.94495 9.56515L8.08347 16.3968L9.57113 15.0601ZM8.008 17.809L9.49567 16.4723L8.15893 14.9846L6.67127 16.3213L8.008 17.809ZM-0.143274 10.2335L6.5958 17.7335L8.08347 16.3968L1.34439 8.89679L-0.143274 10.2335ZM-0.74383 9.56515L-0.143274 10.2335L1.34439 8.89679L0.743835 8.22842L-0.74383 9.56515Z" fill="#1C4481" mask="url(#path-1-inside-1_1_192)"/>
</svg>
