<svg width="30" height="30" viewBox="0 0 52 52" fill="none" xmlns="http://www.w3.org/2000/svg">
<rect width="52" height="52" rx="26" fill="#FFE1EB"/>
<g clip-path="url(#clip0_2977_704)">
<path d="M21.25 23.4167C21.25 24.6765 21.7504 25.8847 22.6412 26.7755C23.532 27.6663 24.7402 28.1667 26 28.1667C27.2598 28.1667 28.468 27.6663 29.3588 26.7755C30.2496 25.8847 30.75 24.6765 30.75 23.4167C30.75 22.157 30.2496 20.9488 29.3588 20.058C28.468 19.1672 27.2598 18.6667 26 18.6667C24.7402 18.6667 23.532 19.1672 22.6412 20.058C21.7504 20.9488 21.25 22.157 21.25 23.4167Z" stroke="#EB7676" stroke-width="2" stroke-linecap="round" stroke-linejoin="round"/>
<path d="M34.9575 32.3736L28.2394 39.0917C27.6456 39.6849 26.8406 40.0181 26.0013 40.0181C25.162 40.0181 24.3571 39.6849 23.7633 39.0917L17.0436 32.3736C15.2722 30.6021 14.0659 28.3451 13.5772 25.8881C13.0885 23.431 13.3394 20.8842 14.2981 18.5697C15.2569 16.2552 16.8804 14.277 18.9634 12.8852C21.0464 11.4934 23.4953 10.7505 26.0005 10.7505C28.5057 10.7505 30.9547 11.4934 33.0377 12.8852C35.1207 14.277 36.7442 16.2552 37.7029 18.5697C38.6617 20.8842 38.9126 23.431 38.4239 25.8881C37.9352 28.3451 36.7289 30.6021 34.9575 32.3736Z" stroke="#EB7676" stroke-width="2" stroke-linecap="round" stroke-linejoin="round"/>
</g>
<defs>
<clipPath id="clip0_2977_704">
<rect width="38" height="38" fill="white" transform="translate(7 6)"/>
</clipPath>
</defs>
</svg>
