<svg width="25" height="25" viewBox="0 0 26 31" fill="none" xmlns="http://www.w3.org/2000/svg">
<path d="M1.66602 15.125C1.66602 13.2394 1.66602 12.2966 2.2518 11.7108C2.83759 11.125 3.7804 11.125 5.66602 11.125H20.3327C22.2183 11.125 23.1611 11.125 23.7469 11.7108C24.3327 12.2966 24.3327 13.2394 24.3327 15.125V22.625C24.3327 25.4534 24.3327 26.8676 23.454 27.7463C22.5753 28.625 21.1611 28.625 18.3327 28.625H7.66601C4.83759 28.625 3.42337 28.625 2.5447 27.7463C1.66602 26.8676 1.66602 25.4534 1.66602 22.625V15.125Z" stroke="#1C4481" stroke-width="3"/>
<path d="M18.6654 9.66667V8.04167C18.6654 7.42253 18.6654 7.11296 18.638 6.85236C18.3912 4.5045 16.5359 2.64916 14.188 2.40239C13.9274 2.375 13.6178 2.375 12.9987 2.375V2.375C12.3796 2.375 12.07 2.375 11.8094 2.40239C9.46153 2.64916 7.60619 4.5045 7.35942 6.85236C7.33203 7.11296 7.33203 7.42253 7.33203 8.04167V9.66667" stroke="#1C4481" stroke-width="3" stroke-linecap="round"/>
<ellipse cx="12.9993" cy="19.8747" rx="2.83333" ry="2.91667" fill="#1C4481"/>
</svg>
