<svg width="56" height="56" viewBox="0 0 56 56" fill="none" xmlns="http://www.w3.org/2000/svg">
<circle cx="28" cy="28" r="26" stroke="white" stroke-width="4"/>
<path d="M17.3189 27.4557L18.3795 29.0313L16.6224 29.5L18.3795 29.9427L17.2239 31.5964L15.8467 30.4766L16.2899 32H14.0896L14.5328 30.4766L13.1873 31.6094L12 29.9297L13.7571 29.4609L12.0317 29.0443L13.0923 27.4688L14.5486 28.5495L14.0579 27H16.3058L15.8467 28.5495L17.3189 27.4557Z" fill="white"/>
<path d="M26.1924 27.4557L27.253 29.0313L25.4959 29.5L27.253 29.9427L26.0974 31.5964L24.7202 30.4766L25.1634 32H22.9631L23.4063 30.4766L22.0607 31.6094L20.8735 29.9297L22.6306 29.4609L20.9052 29.0443L21.9658 27.4688L23.4221 28.5495L22.9314 27H25.1793L24.7202 28.5495L26.1924 27.4557Z" fill="white"/>
<path d="M35.0659 27.4557L36.1265 29.0313L34.3694 29.5L36.1265 29.9427L34.9709 31.5964L33.5937 30.4766L34.0369 32H31.8366L32.2798 30.4766L30.9342 31.6094L29.747 29.9297L31.5041 29.4609L29.7786 29.0443L30.8393 27.4688L32.2956 28.5495L31.8049 27H34.0528L33.5937 28.5495L35.0659 27.4557Z" fill="white"/>
<path d="M43.9394 27.4557L45 29.0313L43.2429 29.5L45 29.9427L43.8444 31.5964L42.4672 30.4766L42.9104 32H40.7101L41.1533 30.4766L39.8077 31.6094L38.6205 29.9297L40.3776 29.4609L38.6521 29.0443L39.7128 27.4688L41.1691 28.5495L40.6784 27H42.9263L42.4672 28.5495L43.9394 27.4557Z" fill="white"/>
</svg>
