<svg width="17" height="17" viewBox="0 0 32 32" fill="none" xmlns="http://www.w3.org/2000/svg">
<path d="M10.6667 25.2378C12.2882 26.174 14.1276 26.6668 16 26.6668C17.8724 26.6668 19.7118 26.174 21.3333 25.2378C22.9549 24.3016 24.3014 22.955 25.2376 21.3335C26.1738 19.712 26.6667 17.8726 26.6667 16.0002C26.6667 14.1278 26.1738 12.2884 25.2376 10.6668C24.3014 9.04529 22.9549 7.69875 21.3333 6.76256C19.7118 5.82636 17.8724 5.3335 16 5.3335C14.1276 5.3335 12.2882 5.82636 10.6667 6.76256" stroke="white" stroke-width="2"/>
<path d="M2.66669 16.0002L1.88582 15.3755L1.38606 16.0002L1.88582 16.6249L2.66669 16.0002ZM14.6667 17.0002C15.219 17.0002 15.6667 16.5524 15.6667 16.0002C15.6667 15.4479 15.219 15.0002 14.6667 15.0002V17.0002ZM7.21915 8.7088L1.88582 15.3755L3.44756 16.6249L8.78089 9.95819L7.21915 8.7088ZM1.88582 16.6249L7.21915 23.2915L8.78089 22.0421L3.44756 15.3755L1.88582 16.6249ZM2.66669 17.0002H14.6667V15.0002H2.66669V17.0002Z" fill="white"/>
</svg>
