<svg width="17" height="17" viewBox="0 0 24 24" fill="none" xmlns="http://www.w3.org/2000/svg">
<g clip-path="url(#clip0_100_4336)">
<path d="M13 8C13 8.79565 13.3161 9.55871 13.8787 10.1213C14.4413 10.6839 15.2044 11 16 11C16.7956 11 17.5587 10.6839 18.1213 10.1213C18.6839 9.55871 19 8.79565 19 8C19 7.20435 18.6839 6.44129 18.1213 5.87868C17.5587 5.31607 16.7956 5 16 5C15.2044 5 14.4413 5.31607 13.8787 5.87868C13.3161 6.44129 13 7.20435 13 8Z" stroke="#1C4481" stroke-width="2" stroke-linecap="round" stroke-linejoin="round"/>
<path d="M10 20V18.3333C10 17.4493 10.3161 16.6014 10.8787 15.9763C11.4413 15.3512 12.2044 15 13 15H19C19.7956 15 20.5587 15.3512 21.1213 15.9763C21.6839 16.6014 22 17.4493 22 18.3333V20" stroke="#1C4481" stroke-width="2" stroke-linecap="round" stroke-linejoin="round"/>
<path d="M4 8C4 8.79565 4.31607 9.55871 4.87868 10.1213C5.44129 10.6839 6.20435 11 7 11C7.79565 11 8.55871 10.6839 9.12132 10.1213C9.68393 9.55871 10 8.79565 10 8C10 7.20435 9.68393 6.44129 9.12132 5.87868C8.55871 5.31607 7.79565 5 7 5C6.20435 5 5.44129 5.31607 4.87868 5.87868C4.31607 6.44129 4 7.20435 4 8Z" stroke="#1C4481" stroke-width="2" stroke-linecap="round" stroke-linejoin="round"/>
<path d="M1 20V18.3333C1 17.4493 1.31607 16.6014 1.87868 15.9763C2.44129 15.3512 3.20435 15 4 15H7" stroke="#1C4481" stroke-width="2" stroke-linecap="round" stroke-linejoin="round"/>
</g>
<defs>
<clipPath id="clip0_100_4336">
<rect width="24" height="24" fill="white"/>
</clipPath>
</defs>
</svg>
