<svg width="56" height="56" viewBox="0 0 56 56" fill="none" xmlns="http://www.w3.org/2000/svg">
<circle cx="28" cy="28" r="28" fill="white"/>
<rect x="9.5" y="11.5" width="36" height="36" rx="4.5" stroke="#5B8FDE" stroke-width="3"/>
<rect x="13" y="15" width="6" height="6" rx="1" fill="#1C4481"/>
<rect x="13" y="24" width="6" height="6" rx="1" fill="#1C4481"/>
<rect x="13" y="33" width="6" height="6" rx="1" fill="#1C4481"/>
<path d="M23.189 17.003V15.89H25.128V21H23.882V17.003H23.189Z" fill="#1C4481"/>
<path d="M23.273 28.041C23.4317 27.915 23.504 27.8567 23.49 27.866C23.9473 27.488 24.3067 27.1777 24.568 26.935C24.834 26.6923 25.058 26.438 25.24 26.172C25.422 25.906 25.513 25.647 25.513 25.395C25.513 25.2037 25.4687 25.0543 25.38 24.947C25.2913 24.8397 25.1583 24.786 24.981 24.786C24.8037 24.786 24.6637 24.8537 24.561 24.989C24.463 25.1197 24.414 25.3063 24.414 25.549H23.259C23.2683 25.1523 23.3523 24.821 23.511 24.555C23.6743 24.289 23.8867 24.093 24.148 23.967C24.414 23.841 24.708 23.778 25.03 23.778C25.5853 23.778 26.003 23.9203 26.283 24.205C26.5677 24.4897 26.71 24.8607 26.71 25.318C26.71 25.8173 26.5397 26.2817 26.199 26.711C25.8583 27.1357 25.4243 27.551 24.897 27.957H26.787V28.93H23.273V28.041Z" fill="#1C4481"/>
<path d="M23.357 35.332C23.3757 34.8327 23.539 34.4477 23.847 34.177C24.155 33.9063 24.5727 33.771 25.1 33.771C25.45 33.771 25.7487 33.8317 25.996 33.953C26.248 34.0743 26.437 34.24 26.563 34.45C26.6937 34.66 26.759 34.8957 26.759 35.157C26.759 35.465 26.682 35.717 26.528 35.913C26.374 36.1043 26.1943 36.235 25.989 36.305V36.333C26.255 36.4217 26.465 36.5687 26.619 36.774C26.773 36.9793 26.85 37.243 26.85 37.565C26.85 37.8543 26.7823 38.111 26.647 38.335C26.5163 38.5543 26.3227 38.727 26.066 38.853C25.814 38.979 25.513 39.042 25.163 39.042C24.603 39.042 24.155 38.9043 23.819 38.629C23.4877 38.3537 23.3127 37.9383 23.294 37.383H24.456C24.4607 37.5883 24.519 37.7517 24.631 37.873C24.743 37.9897 24.9063 38.048 25.121 38.048C25.303 38.048 25.443 37.9967 25.541 37.894C25.6437 37.7867 25.695 37.6467 25.695 37.474C25.695 37.25 25.6227 37.089 25.478 36.991C25.338 36.8883 25.1117 36.837 24.799 36.837H24.575V35.864H24.799C25.037 35.864 25.2283 35.8243 25.373 35.745C25.5223 35.661 25.597 35.514 25.597 35.304C25.597 35.136 25.5503 35.0053 25.457 34.912C25.3637 34.8187 25.2353 34.772 25.072 34.772C24.8947 34.772 24.7617 34.8257 24.673 34.933C24.589 35.0403 24.54 35.1733 24.526 35.332H23.357Z" fill="#1C4481"/>
<rect x="15" y="45" width="24" height="6" rx="3" fill="#1C4481"/>
<rect x="29.5" y="15.5" width="12" height="12" rx="1.5" fill="#1C4481"/>
<path d="M39.685 26.0753C39.4381 25.3843 38.8941 24.7736 38.1373 24.3381C37.3805 23.9026 36.4533 23.6665 35.4993 23.6665C34.5454 23.6665 33.6182 23.9026 32.8614 24.3381C32.1046 24.7736 31.5606 25.3843 31.3137 26.0753" stroke="white" stroke-linecap="round"/>
<ellipse cx="35.5007" cy="19.3332" rx="2.16667" ry="2.16667" stroke="white" stroke-linecap="round"/>
<rect x="29.5" y="15.5" width="12" height="12" rx="1.5" stroke="white"/>
</svg>
