<svg width="61" height="84" viewBox="0 0 61 84" fill="none" xmlns="http://www.w3.org/2000/svg">
<rect width="61" height="60" rx="30" fill="#1C4481"/>
<path d="M27.75 40.0526L36 30.5263L27.75 21" stroke="white" stroke-width="4" stroke-linecap="round"/>
<path d="M23.75 78H22.476L17.352 70.23V78H16.078V68.228H17.352L22.476 75.984V68.228H23.75V78ZM32.9218 73.87C32.9218 74.1127 32.9078 74.3693 32.8798 74.64H26.7478C26.7944 75.396 27.0511 75.9887 27.5178 76.418C27.9938 76.838 28.5678 77.048 29.2398 77.048C29.7904 77.048 30.2478 76.922 30.6118 76.67C30.9851 76.4087 31.2464 76.0633 31.3958 75.634H32.7678C32.5624 76.3713 32.1518 76.9733 31.5358 77.44C30.9198 77.8973 30.1544 78.126 29.2398 78.126C28.5118 78.126 27.8584 77.9627 27.2798 77.636C26.7104 77.3093 26.2624 76.8473 25.9358 76.25C25.6091 75.6433 25.4458 74.9433 25.4458 74.15C25.4458 73.3567 25.6044 72.6613 25.9218 72.064C26.2391 71.4667 26.6824 71.0093 27.2518 70.692C27.8304 70.3653 28.4931 70.202 29.2398 70.202C29.9678 70.202 30.6118 70.3607 31.1718 70.678C31.7318 70.9953 32.1611 71.434 32.4598 71.994C32.7678 72.5447 32.9218 73.17 32.9218 73.87ZM31.6058 73.604C31.6058 73.1187 31.4984 72.7033 31.2838 72.358C31.0691 72.0033 30.7751 71.7373 30.4018 71.56C30.0378 71.3733 29.6318 71.28 29.1838 71.28C28.5398 71.28 27.9891 71.4853 27.5318 71.896C27.0838 72.3067 26.8271 72.876 26.7618 73.604H31.6058ZM38.6074 78L36.7874 75.144L35.0374 78H33.7074L36.1854 74.192L33.7074 70.328H35.1494L36.9694 73.17L38.7054 70.328H40.0354L37.5714 74.122L40.0494 78H38.6074ZM42.8566 71.378V75.9C42.8566 76.2733 42.9359 76.5393 43.0946 76.698C43.2533 76.8473 43.5286 76.922 43.9206 76.922H44.8586V78H43.7106C43.0013 78 42.4693 77.8367 42.1146 77.51C41.7599 77.1833 41.5826 76.6467 41.5826 75.9V71.378H40.5886V70.328H41.5826V68.396H42.8566V70.328H44.8586V71.378H42.8566Z" fill="black"/>
</svg>
