<svg width="17" height="17" viewBox="0 0 23 22" fill="none" xmlns="http://www.w3.org/2000/svg">
<path d="M1.99994 14.0142C2.52984 12.5326 3.4033 11.4009 5.02211 11.0101C5.06922 10.9918 5.11797 10.9782 5.16768 10.9692C8.02098 10.9692 10.8762 10.9692 13.7334 10.9692C13.7742 10.9692 13.8149 11.0217 13.9081 11.0859C13.285 11.7451 12.9939 12.6201 11.9632 12.9642C11.4823 13.1355 11.0662 13.4517 10.7722 13.8696C10.4781 14.2874 10.3205 14.7863 10.3211 15.2976C10.2628 16.2717 10.3211 17.2517 10.3211 18.3309H9.15646C7.0951 18.3309 5.03375 18.3309 2.97821 18.3309C2.63702 18.277 2.30426 18.179 1.98828 18.0392L1.99994 14.0142Z" fill="#1C4481"/>
<path d="M12.8372 20.8334C12.5079 20.6342 12.2435 20.3435 12.076 19.9966C11.9085 19.6497 11.8452 19.2615 11.8938 18.8792C11.9579 17.9109 11.8938 16.9309 11.8938 15.8342C13.3438 16.5926 14.718 17.2751 16.0573 18.0217C16.29 18.1748 16.5622 18.2564 16.8405 18.2564C17.1189 18.2564 17.3911 18.1748 17.6238 18.0217C18.9631 17.2751 20.3373 16.5926 21.7872 15.8342C21.7872 17.1584 21.8688 18.3717 21.7465 19.5617C21.6999 20.0109 21.1642 20.4017 20.8672 20.8217L12.8372 20.8334Z" fill="#1C4481"/>
<path d="M9.41753 1.00004C10.5087 0.995259 11.5579 1.42099 12.3381 2.18515C13.1184 2.94931 13.567 3.99045 13.5869 5.08337C13.5853 5.63235 13.4758 6.17565 13.2645 6.68218C13.0532 7.18871 12.7442 7.64854 12.3554 8.03538C11.9665 8.42221 11.5054 8.72846 10.9983 8.9366C10.4912 9.14474 9.94809 9.25068 9.40008 9.24838C8.30648 9.23919 7.26051 8.7987 6.48883 8.02238C5.71715 7.24606 5.2819 6.19643 5.27734 5.10087C5.28961 4.00899 5.73121 2.96601 6.50632 2.19827C7.28143 1.43053 8.32751 0.999971 9.41753 1.00004Z" fill="#1C4481"/>
<path d="M19.3355 14.0838L21.3154 14.4279L21.3503 14.6846C20.7331 15.0113 20.1275 15.3555 19.5044 15.6763C18.6368 16.1196 17.7575 16.8838 16.8899 16.8896C16.0222 16.8954 15.1429 16.1313 14.2695 15.6938C13.6522 15.3788 13.0408 15.0463 12.3828 14.6963C12.9011 13.9963 13.6581 14.2704 14.3452 14.1538C14.3452 13.9204 14.3452 13.6988 14.3918 13.4771C14.4137 13.1262 14.5665 12.7963 14.8201 12.5531C15.0736 12.31 15.4092 12.1713 15.7602 12.1646C16.4822 12.1646 17.2043 12.1646 17.9205 12.1646C18.2856 12.1568 18.6388 12.2942 18.903 12.5468C19.1671 12.7993 19.3206 13.1465 19.3297 13.5121C19.3472 13.7105 19.3355 13.9146 19.3355 14.0838ZM18.0545 14.1538C18.1826 13.6113 18.0545 13.343 17.4722 13.3838C17.0631 13.413 16.6525 13.413 16.2435 13.3838C15.6612 13.3488 15.5331 13.6171 15.6612 14.1538H18.0545Z" fill="#1C4481"/>
</svg>
