<svg width="17" height="17" viewBox="0 0 25 25" fill="none" xmlns="http://www.w3.org/2000/svg">
<path d="M3.125 7.125C3.125 5.72487 3.125 5.0248 3.39748 4.49002C3.63717 4.01962 4.01962 3.63717 4.49002 3.39748C5.0248 3.125 5.72487 3.125 7.125 3.125H17.875C19.2751 3.125 19.9752 3.125 20.51 3.39748C20.9804 3.63717 21.3628 4.01962 21.6025 4.49002C21.875 5.0248 21.875 5.72487 21.875 7.125V17.875C21.875 19.2751 21.875 19.9752 21.6025 20.51C21.3628 20.9804 20.9804 21.3628 20.51 21.6025C19.9752 21.875 19.2751 21.875 17.875 21.875H7.125C5.72487 21.875 5.0248 21.875 4.49002 21.6025C4.01962 21.3628 3.63717 20.9804 3.39748 20.51C3.125 19.9752 3.125 19.2751 3.125 17.875V7.125Z" stroke="white" stroke-width="2"/>
<path d="M10.4583 12.5C10.4583 13.6736 9.50695 14.625 8.33334 14.625C7.15974 14.625 6.20834 13.6736 6.20834 12.5C6.20834 11.3264 7.15974 10.375 8.33334 10.375C9.50695 10.375 10.4583 11.3264 10.4583 12.5Z" stroke="white" stroke-width="2"/>
<path d="M10.4167 12.5H14.5833M17.7083 14.5833V12.65C17.7083 12.5672 17.6412 12.5 17.5583 12.5H14.5833M14.5833 12.5V14.5833" stroke="white" stroke-width="2" stroke-linecap="round"/>
</svg>
