<svg width="17" height="17" viewBox="0 0 16 16" fill="none" xmlns="http://www.w3.org/2000/svg">
<path d="M0 4.00001C0 2.98668 0.293333 2.19334 0.88 1.62001C1.48 1.04668 2.24667 0.76001 3.18 0.76001C4.11333 0.76001 4.87333 1.04668 5.46 1.62001C6.06 2.19334 6.36 2.98668 6.36 4.00001C6.36 5.02668 6.06 5.82668 5.46 6.40001C4.87333 6.97334 4.11333 7.26001 3.18 7.26001C2.24667 7.26001 1.48 6.97334 0.88 6.40001C0.293333 5.82668 0 5.02668 0 4.00001ZM12.84 1.00001L4.98 15H2.26L10.1 1.00001H12.84ZM3.16 2.44001C2.42667 2.44001 2.06 2.96001 2.06 4.00001C2.06 5.05334 2.42667 5.58001 3.16 5.58001C3.52 5.58001 3.8 5.45334 4 5.20001C4.2 4.93334 4.3 4.53334 4.3 4.00001C4.3 2.96001 3.92 2.44001 3.16 2.44001ZM8.78 11.98C8.78 10.9533 9.07333 10.16 9.66 9.60001C10.26 9.02668 11.0267 8.74001 11.96 8.74001C12.8933 8.74001 13.6467 9.02668 14.22 9.60001C14.8067 10.16 15.1 10.9533 15.1 11.98C15.1 13.0067 14.8067 13.8067 14.22 14.38C13.6467 14.9533 12.8933 15.24 11.96 15.24C11.0133 15.24 10.2467 14.9533 9.66 14.38C9.07333 13.8067 8.78 13.0067 8.78 11.98ZM11.94 10.42C11.18 10.42 10.8 10.94 10.8 11.98C10.8 13.0333 11.18 13.56 11.94 13.56C12.6867 13.56 13.06 13.0333 13.06 11.98C13.06 10.94 12.6867 10.42 11.94 10.42Z" fill="#1C4481"/>
</svg>
