<svg width="24" height="25" viewBox="0 0 24 25" fill="none" xmlns="http://www.w3.org/2000/svg">
<circle cx="12" cy="8.00195" r="3" stroke="#33363F" stroke-width="2" stroke-linecap="round"/>
<path d="M15.2679 8.00195C15.5332 7.54258 15.97 7.20739 16.4824 7.0701C16.9947 6.93282 17.5406 7.00469 18 7.2699C18.4594 7.53512 18.7946 7.97196 18.9319 8.48431C19.0691 8.99667 18.9973 9.54258 18.7321 10.002C18.4668 10.4613 18.03 10.7965 17.5176 10.9338C17.0053 11.0711 16.4594 10.9992 16 10.734C15.5406 10.4688 15.2054 10.032 15.0681 9.51959C14.9309 9.00723 15.0027 8.46132 15.2679 8.00195L15.2679 8.00195Z" stroke="#33363F" stroke-width="2"/>
<path d="M5.26795 8.00195C5.53317 7.54258 5.97 7.20739 6.48236 7.0701C6.99472 6.93282 7.54063 7.00469 8 7.2699C8.45937 7.53512 8.79457 7.97196 8.93185 8.48431C9.06914 8.99667 8.99727 9.54258 8.73205 10.002C8.46683 10.4613 8.03 10.7965 7.51764 10.9338C7.00528 11.0711 6.45937 10.9992 6 10.734C5.54063 10.4688 5.20543 10.032 5.06815 9.51959C4.93086 9.00723 5.00273 8.46132 5.26795 8.00195L5.26795 8.00195Z" stroke="#33363F" stroke-width="2"/>
<path d="M16.8821 18.002L15.9017 18.1994L16.0634 19.002H16.8821V18.002ZM20.7206 16.9061L21.6631 16.5718L20.7206 16.9061ZM14.7812 14.7125L14.1764 13.9162L13.0198 14.7946L14.2531 15.5617L14.7812 14.7125ZM19.8676 17.002H16.8821V19.002H19.8676V17.002ZM19.7782 17.2404C19.7711 17.2205 19.7646 17.183 19.773 17.1373C19.7808 17.0941 19.7987 17.0613 19.8156 17.0403C19.8478 17.0001 19.8744 17.002 19.8676 17.002V19.002C21.0137 19.002 22.1418 17.9214 21.6631 16.5718L19.7782 17.2404ZM17.0004 15.002C18.642 15.002 19.4031 16.183 19.7782 17.2404L21.6631 16.5718C21.1981 15.2607 19.949 13.002 17.0004 13.002V15.002ZM15.3861 15.5088C15.7706 15.2168 16.2824 15.002 17.0004 15.002V13.002C15.8385 13.002 14.9032 13.3641 14.1764 13.9162L15.3861 15.5088ZM14.2531 15.5617C15.2923 16.2079 15.7275 17.3344 15.9017 18.1994L17.8624 17.8045C17.6444 16.7223 17.0378 14.9383 15.3094 13.8633L14.2531 15.5617Z" fill="#33363F"/>
<path d="M9.21924 14.7125L9.74736 15.5616L10.9807 14.7946L9.82409 13.9161L9.21924 14.7125ZM3.27986 16.9061L4.22233 17.2404L4.22233 17.2404L3.27986 16.9061ZM7.11841 18.002V19.002H7.93709L8.09873 18.1994L7.11841 18.002ZM7.00008 15.002C7.71809 15.002 8.22992 15.2168 8.61439 15.5088L9.82409 13.9161C9.09729 13.3641 8.16196 13.002 7.00008 13.002V15.002ZM4.22233 17.2404C4.59738 16.183 5.35849 15.002 7.00008 15.002V13.002C4.05157 13.002 2.80244 15.2607 2.33739 16.5718L4.22233 17.2404ZM4.13284 17.002C4.12606 17.002 4.1527 17.0001 4.18492 17.0403C4.20182 17.0613 4.21967 17.0941 4.22754 17.1373C4.23586 17.183 4.22937 17.2205 4.22233 17.2404L2.33739 16.5718C1.8587 17.9214 2.98683 19.002 4.13284 19.002V17.002ZM7.11841 17.002H4.13284V19.002H7.11841V17.002ZM8.09873 18.1994C8.27295 17.3344 8.7082 16.2079 9.74736 15.5616L8.69112 13.8633C6.96263 14.9383 6.35606 16.7223 6.1381 17.8045L8.09873 18.1994Z" fill="#33363F"/>
<path d="M12 14.002C15.5715 14.002 16.5919 16.5531 16.8834 18.0108C16.9917 18.5524 16.5523 19.002 16 19.002H8C7.44772 19.002 7.00829 18.5524 7.11659 18.0108C7.4081 16.5531 8.42846 14.002 12 14.002Z" stroke="#33363F" stroke-width="2" stroke-linecap="round"/>
</svg>
