<svg width="24" height="25" viewBox="0 0 24 25" fill="none" xmlns="http://www.w3.org/2000/svg">
<mask id="path-1-outside-1_2061_30457" maskUnits="userSpaceOnUse" x="3" y="4.00195" width="17" height="17" fill="black">
<rect fill="white" x="3" y="4.00195" width="17" height="17"/>
<path d="M13.5858 7.41616L6.39171 14.6102C6.19706 14.8049 6.09974 14.9022 6.03276 15.0205C5.96579 15.1388 5.93241 15.2723 5.86564 15.5394L5.20211 18.1935C5.11186 18.5545 5.06673 18.735 5.16682 18.8351C5.2669 18.9352 5.44742 18.8901 5.80844 18.7998L5.80845 18.7998L8.46257 18.1363C8.72963 18.0695 8.86316 18.0362 8.98145 17.9692C9.09974 17.9022 9.19706 17.8049 9.39171 17.6102L16.5858 10.4162L16.5858 10.4162C17.2525 9.7495 17.5858 9.41617 17.5858 9.00195C17.5858 8.58774 17.2525 8.25441 16.5858 7.58774L16.4142 7.41617C15.7475 6.7495 15.4142 6.41617 15 6.41617C14.5858 6.41617 14.2525 6.7495 13.5858 7.41616Z"/>
</mask>
<path d="M6.39171 14.6102L7.80593 16.0245L7.80593 16.0245L6.39171 14.6102ZM13.5858 7.41616L12.1716 6.00195L12.1716 6.00195L13.5858 7.41616ZM16.4142 7.41617L15 8.83038L15 8.83038L16.4142 7.41617ZM16.5858 7.58774L18 6.17353L18 6.17352L16.5858 7.58774ZM16.5858 10.4162L18 11.8304L16.5858 10.4162ZM9.39171 17.6102L7.9775 16.196L7.9775 16.196L9.39171 17.6102ZM5.86564 15.5394L7.80593 16.0245L7.80593 16.0245L5.86564 15.5394ZM5.20211 18.1935L3.26183 17.7084H3.26183L5.20211 18.1935ZM5.80845 18.7998L5.32338 16.8596L5.23624 16.8813L5.15141 16.9108L5.80845 18.7998ZM8.46257 18.1363L7.97751 16.196L7.9775 16.196L8.46257 18.1363ZM5.16682 18.8351L6.58103 17.4209L6.58103 17.4209L5.16682 18.8351ZM5.80844 18.7998L6.29351 20.7401L6.38065 20.7183L6.46549 20.6888L5.80844 18.7998ZM8.98145 17.9692L7.99605 16.2288L7.99605 16.2288L8.98145 17.9692ZM16.5858 10.4162L18 11.8304L18 11.8304L16.5858 10.4162ZM6.03276 15.0205L4.29236 14.0351L4.29236 14.0351L6.03276 15.0205ZM7.80593 16.0245L15 8.83038L12.1716 6.00195L4.9775 13.196L7.80593 16.0245ZM15 8.83038L15.1716 9.00195L18 6.17352L17.8284 6.00195L15 8.83038ZM15.1716 9.00195L7.9775 16.196L10.8059 19.0245L18 11.8304L15.1716 9.00195ZM3.92536 15.0543L3.26183 17.7084L7.1424 18.6786L7.80593 16.0245L3.92536 15.0543ZM6.29352 20.7401L8.94764 20.0766L7.9775 16.196L5.32338 16.8596L6.29352 20.7401ZM3.26183 17.7084C3.233 17.8237 3.15055 18.1316 3.12259 18.4175C3.0922 18.7281 3.06509 19.5618 3.7526 20.2494L6.58103 17.4209C6.84671 17.6866 6.99914 18.0024 7.06644 18.2948C7.12513 18.5497 7.10965 18.7448 7.10358 18.8069C7.09699 18.8743 7.08792 18.906 7.097 18.865C7.10537 18.8273 7.11788 18.7766 7.1424 18.6786L3.26183 17.7084ZM5.15141 16.9108L5.1514 16.9108L6.46549 20.6888L6.46549 20.6888L5.15141 16.9108ZM5.32338 16.8596C5.22531 16.8841 5.17467 16.8966 5.13694 16.9049C5.09595 16.914 5.12762 16.905 5.19506 16.8984C5.25712 16.8923 5.45223 16.8768 5.70717 16.9355C5.99955 17.0028 6.31535 17.1552 6.58103 17.4209L3.7526 20.2493C4.44011 20.9369 5.27387 20.9098 5.58449 20.8794C5.87039 20.8514 6.17822 20.769 6.29351 20.7401L5.32338 16.8596ZM7.9775 16.196C7.95279 16.2207 7.9317 16.2418 7.91214 16.2613C7.89271 16.2806 7.87671 16.2965 7.86293 16.3099C7.84916 16.3234 7.83911 16.3331 7.83172 16.3401C7.82812 16.3435 7.82545 16.346 7.8236 16.3477C7.82176 16.3494 7.8209 16.3502 7.82092 16.3502C7.82094 16.3502 7.82198 16.3492 7.82395 16.3475C7.82592 16.3458 7.82893 16.3432 7.83291 16.3399C7.84086 16.3333 7.85292 16.3236 7.86866 16.3118C7.88455 16.2999 7.90362 16.2863 7.92564 16.2718C7.94776 16.2572 7.97131 16.2428 7.99605 16.2288L9.96684 19.7096C10.376 19.4779 10.6864 19.144 10.8059 19.0245L7.9775 16.196ZM8.94764 20.0766C9.11169 20.0356 9.55771 19.9412 9.96685 19.7096L7.99605 16.2288C8.02079 16.2148 8.0453 16.202 8.06917 16.1905C8.09292 16.1791 8.11438 16.1698 8.13277 16.1623C8.15098 16.1548 8.16553 16.1495 8.17529 16.1461C8.18017 16.1444 8.18394 16.1431 8.18642 16.1423C8.1889 16.1415 8.19024 16.1411 8.19026 16.1411C8.19028 16.1411 8.18918 16.1414 8.18677 16.1421C8.18435 16.1428 8.18084 16.1438 8.17606 16.1452C8.16625 16.1479 8.15278 16.1515 8.13414 16.1564C8.11548 16.1613 8.09368 16.1668 8.0671 16.1736C8.04034 16.1803 8.0114 16.1875 7.97751 16.196L8.94764 20.0766ZM15.1716 9.00195C15.3435 9.17388 15.4698 9.30037 15.5738 9.4098C15.6786 9.51995 15.7263 9.57713 15.7457 9.60268C15.7644 9.62719 15.7226 9.57833 15.6774 9.46977C15.6254 9.34527 15.5858 9.18298 15.5858 9.00195H19.5858C19.5858 8.18173 19.2282 7.5727 18.9258 7.17635C18.6586 6.82616 18.2934 6.46688 18 6.17353L15.1716 9.00195ZM18 11.8304L18 11.8304L15.1716 9.00195L15.1716 9.00195L18 11.8304ZM18 11.8304C18.2934 11.537 18.6586 11.1777 18.9258 10.8275C19.2282 10.4312 19.5858 9.82217 19.5858 9.00195H15.5858C15.5858 8.82093 15.6254 8.65863 15.6774 8.53414C15.7226 8.42557 15.7644 8.37671 15.7457 8.40123C15.7263 8.42677 15.6786 8.48395 15.5738 8.59411C15.4698 8.70353 15.3435 8.83003 15.1716 9.00195L18 11.8304ZM15 8.83038C15.1719 8.65846 15.2984 8.53214 15.4078 8.42811C15.518 8.32338 15.5752 8.2757 15.6007 8.25621C15.6252 8.23751 15.5764 8.27932 15.4678 8.32459C15.3433 8.37651 15.181 8.41617 15 8.41617V4.41617C14.1798 4.41617 13.5707 4.77372 13.1744 5.07612C12.8242 5.34331 12.4649 5.7086 12.1716 6.00195L15 8.83038ZM17.8284 6.00195C17.5351 5.7086 17.1758 5.34331 16.8256 5.07612C16.4293 4.77372 15.8202 4.41617 15 4.41617V8.41617C14.819 8.41617 14.6567 8.37651 14.5322 8.32459C14.4236 8.27932 14.3748 8.23751 14.3993 8.25621C14.4248 8.2757 14.482 8.32338 14.5922 8.42811C14.7016 8.53214 14.8281 8.65846 15 8.83038L17.8284 6.00195ZM4.9775 13.196C4.85793 13.3156 4.52401 13.626 4.29236 14.0351L7.77316 16.0059C7.75915 16.0306 7.7447 16.0542 7.73014 16.0763C7.71565 16.0983 7.70207 16.1174 7.69016 16.1333C7.67837 16.149 7.66863 16.1611 7.66202 16.169C7.65871 16.173 7.65613 16.176 7.65442 16.178C7.65271 16.18 7.65178 16.181 7.65176 16.181C7.65174 16.1811 7.65252 16.1802 7.65422 16.1783C7.65593 16.1765 7.65842 16.1738 7.66184 16.1702C7.66884 16.1628 7.67852 16.1528 7.692 16.139C7.7055 16.1252 7.72132 16.1092 7.74066 16.0898C7.76013 16.0703 7.78122 16.0492 7.80593 16.0245L4.9775 13.196ZM7.80593 16.0245C7.8144 15.9906 7.82164 15.9616 7.82839 15.9349C7.8351 15.9083 7.84068 15.8865 7.84556 15.8678C7.85043 15.8492 7.85407 15.8357 7.8568 15.8259C7.85813 15.8211 7.85914 15.8176 7.85984 15.8152C7.86054 15.8128 7.86088 15.8117 7.86088 15.8117C7.86087 15.8117 7.86046 15.8131 7.85965 15.8155C7.85884 15.818 7.85758 15.8218 7.85588 15.8267C7.85246 15.8364 7.84713 15.851 7.8397 15.8692C7.8322 15.8876 7.82284 15.909 7.81141 15.9328C7.79993 15.9566 7.78717 15.9812 7.77316 16.0059L4.29236 14.0351C4.06071 14.4442 3.96637 14.8903 3.92536 15.0543L7.80593 16.0245Z" fill="#33363F" mask="url(#path-1-outside-1_2061_30457)"/>
<path d="M12.5 7.50195L15.5 5.50195L18.5 8.50195L16.5 11.502L12.5 7.50195Z" fill="#33363F"/>
</svg>
