<svg width="24" height="25" viewBox="0 0 24 25" fill="none" xmlns="http://www.w3.org/2000/svg">
<g clip-path="url(#clip0_47_706)">
<path d="M3 7.70508C3 7.17465 3.21071 6.66594 3.58579 6.29086C3.96086 5.91579 4.46957 5.70508 5 5.70508H19C19.5304 5.70508 20.0391 5.91579 20.4142 6.29086C20.7893 6.66594 21 7.17465 21 7.70508V17.7051C21 18.2355 20.7893 18.7442 20.4142 19.1193C20.0391 19.4944 19.5304 19.7051 19 19.7051H5C4.46957 19.7051 3.96086 19.4944 3.58579 19.1193C3.21071 18.7442 3 18.2355 3 17.7051V7.70508Z" stroke="#1C4481" stroke-width="2" stroke-linecap="round" stroke-linejoin="round"/>
<path d="M3 7.70508L12 13.7051L21 7.70508" stroke="#33363F" stroke-width="2" stroke-linecap="round" stroke-linejoin="round"/>
</g>
<defs>
<clipPath id="clip0_47_706">
<rect width="24" height="24" fill="white" transform="translate(0 0.705078)"/>
</clipPath>
</defs>
</svg>
