<svg width="24" height="25" viewBox="0 0 25 17" fill="none" xmlns="http://www.w3.org/2000/svg">
<g clip-path="url(#clip0_2061_30452)">
<path d="M18.0003 15.6183C17.9438 13.6366 17.1912 11.9835 15.6688 10.7051C15.423 10.4987 15.4198 10.4008 15.6523 10.1848C16.7999 9.11995 17.4135 7.7711 17.5113 6.23038C17.6281 4.38406 17.0095 2.78107 15.6758 1.47034C14.0486 -0.128831 11.4433 -0.468107 9.48842 0.708559C7.56717 1.8649 6.64815 3.61401 6.62782 5.83202C6.61195 7.55953 7.25596 9.02973 8.51731 10.2159C8.69197 10.3805 8.63862 10.4643 8.48746 10.5844C7.75009 11.1734 7.15815 11.8818 6.73326 12.7287C6.27025 13.6525 6.04732 14.6335 6.00096 15.6615C5.98889 15.929 6.08988 16.0211 6.34901 16.0027C6.59099 15.9862 6.83551 15.9989 7.07876 15.9995C7.32201 15.9995 7.56717 15.983 7.80852 16.004C8.10893 16.03 8.20039 15.9245 8.21309 15.6158C8.26453 14.3743 8.72436 13.3113 9.70309 12.5127C11 11.4542 12.7345 11.3519 14.0683 12.2503C15.2725 13.0617 15.8695 14.211 15.9127 15.6494C15.9216 15.936 16.0226 16.0141 16.2893 16.0046C16.7333 15.9881 17.1791 15.9836 17.6224 16.0059C17.9247 16.0211 18.0067 15.9023 17.9984 15.6189L18.0003 15.6183ZM14.2048 9.18285C12.4322 10.4815 9.92411 9.90524 8.83043 7.97568C7.84218 6.23165 8.13179 4.16232 9.56082 2.7582C10.9295 1.41316 13.2534 1.43858 14.6126 2.79314C15.4548 3.63244 15.8568 4.63692 15.8644 5.91525C15.8549 7.20628 15.3322 8.35689 14.2055 9.18285H14.2048Z" fill="#33363F"/>
<path d="M14.1118 4.93959C13.9892 4.66894 13.7987 4.47134 13.5129 4.36143C13.0391 4.17972 12.5519 4.11491 12.0489 4.16256C11.8165 4.16256 11.5815 4.14223 11.3516 4.16637C10.2617 4.2801 9.73264 4.98026 9.90222 6.06543C9.91555 6.1493 9.92699 6.23317 9.9435 6.3164C10.2191 7.71734 11.5681 8.47404 12.8835 7.96576C13.9479 7.55406 14.5856 5.98601 14.1124 4.94023L14.1118 4.93959ZM12.0572 6.93523C11.5154 6.92443 11.0651 6.4422 11.0823 5.89071C11.1001 5.31572 11.551 4.87352 12.0997 4.89258C12.6523 4.91164 13.0531 5.34368 13.0499 5.91676C13.0467 6.48476 12.597 6.94603 12.0566 6.93523H12.0572Z" fill="#33363F"/>
</g>
<defs>
<clipPath id="clip0_2061_30452">
<rect width="25" height="16" fill="white" transform="translate(0 0.00195312)"/>
</clipPath>
</defs>
</svg>
