<svg width="24" height="25" viewBox="0 0 30 30" fill="none" xmlns="http://www.w3.org/2000/svg">
<path d="M25.9977 20.0191C25.8653 20.4393 25.5743 20.7159 25.1759 20.9233C24.3759 21.3414 23.5895 21.7825 22.7974 22.2137C22.7118 22.2609 22.625 22.307 22.5235 22.2949C22.3808 22.2774 22.2815 22.2006 22.2495 22.0634C22.2107 21.8988 22.2975 21.7869 22.439 21.709C22.9423 21.4335 23.4457 21.1603 23.949 20.886C24.3165 20.6851 24.6909 20.4953 25.0493 20.2802C25.5092 20.0026 25.491 19.3969 25.0299 19.1577C24.8655 19.0721 24.6909 19.0699 24.5174 19.1094C23.1215 19.4298 21.7839 19.9126 20.4759 20.4745C20.4028 20.5052 20.3686 20.5392 20.3697 20.627C20.3766 21.6014 19.5423 22.284 18.5459 22.104C17.7971 21.969 17.0827 21.7101 16.3499 21.518C15.9858 21.4226 15.6252 21.3172 15.2656 21.2119C15.0214 21.1405 14.9175 20.999 14.9689 20.8245C15.0237 20.6358 15.1914 20.5611 15.4437 20.6303C16.4173 20.9002 17.3908 21.1724 18.3632 21.4478C18.6874 21.54 19.0024 21.5411 19.3106 21.394C19.6393 21.2382 19.7568 20.9726 19.7386 20.6391C19.7215 20.3197 19.5137 20.1409 19.2204 20.0509C18.3849 19.7952 17.546 19.5472 16.7083 19.297C15.6651 18.9865 14.6208 18.6814 13.5799 18.3643C12.3061 17.9769 11.0575 18.0274 9.83168 18.5421C9.63537 18.6244 9.44134 18.7143 9.24274 18.7911C9.11491 18.8405 9.08067 18.8965 9.13774 19.0293C9.62281 20.1683 10.1022 21.3106 10.577 22.4541C10.6318 22.5857 10.6968 22.6121 10.8258 22.5539C11.0381 22.4584 11.2538 22.3718 11.4684 22.2818C11.9432 22.0821 12.4077 22.1062 12.8517 22.3586C13.3778 22.6571 13.8937 22.9742 14.421 23.2694C15.1058 23.6523 15.8454 23.8641 16.6387 23.9168C17.7526 23.9892 18.7741 23.7281 19.7306 23.1882C20.1963 22.9248 20.6676 22.6735 21.139 22.42C21.3638 22.2993 21.5305 22.3279 21.6309 22.4914C21.7348 22.6593 21.6709 22.8304 21.4426 22.95C20.7133 23.3341 20.0228 23.7939 19.2512 24.0968C17.449 24.8045 15.6948 24.6827 14.009 23.7445C13.5422 23.4844 13.0834 23.2112 12.6268 22.9325C12.3073 22.7372 11.9888 22.7141 11.6464 22.8688C11.3999 22.9808 11.1477 23.0828 10.8954 23.1838C10.7847 23.2277 10.7265 23.2902 10.6991 23.412C10.6009 23.8532 10.343 24.2021 9.91157 24.3799C9.00991 24.7519 8.1014 25.1107 7.18261 25.4432C6.58911 25.6583 6.00246 25.2358 6.00132 24.6279C5.99904 23.5964 6.00018 22.5638 6.00132 21.5323C6.00132 21.3128 6.12458 21.1735 6.30948 21.1757C6.49438 21.1779 6.60966 21.315 6.61308 21.5378C6.61308 21.5883 6.61308 21.6376 6.61308 21.6881C6.61308 22.589 6.61308 23.4888 6.61308 24.3897C6.61308 24.4457 6.6108 24.5028 6.61536 24.5587C6.63477 24.8462 6.79684 24.9472 7.07761 24.8397C7.7841 24.5686 8.48831 24.2921 9.19367 24.0188C9.32606 23.9673 9.46074 23.9201 9.59085 23.8619C10.0234 23.6655 10.2197 23.2397 10.044 22.8129C9.53607 21.5817 9.01904 20.3527 8.49288 19.128C8.29657 18.6726 7.84459 18.508 7.36409 18.6825C7.19973 18.7418 7.0388 18.8109 6.87445 18.8691C6.68955 18.9338 6.61308 19.06 6.61422 19.2432C6.6165 19.5307 6.61536 19.8183 6.61422 20.1058C6.61308 20.3296 6.4978 20.4668 6.31291 20.4701C6.12801 20.4734 6.00474 20.334 6.0036 20.1145C6.00132 19.7766 6.00246 19.4386 6.0036 19.1017C6.00474 18.8252 6.1223 18.5947 6.36312 18.451C6.70667 18.2469 7.08103 18.0932 7.4805 18.0241C7.87427 17.9561 8.24406 18.0428 8.56935 18.2721C8.66636 18.3401 8.74397 18.3423 8.8524 18.2952C9.48585 18.0208 10.1159 17.7377 10.8052 17.6049C11.845 17.4052 12.8562 17.5007 13.8618 17.8057C15.6902 18.361 17.5232 18.902 19.3539 19.4484C19.6062 19.5242 19.8413 19.6306 20.0171 19.8259C20.1118 19.9313 20.1963 19.9291 20.3218 19.8753C21.6013 19.331 22.9127 18.8767 24.2686 18.5311C25.0413 18.3347 25.8037 18.7099 26 19.455V20.018L25.9977 20.0191Z" fill="#33363F" stroke="#33363F" stroke-width="0.5"/>
<path d="M13.7878 8.166C13.7338 10.6757 15.5971 12.8249 17.9267 13.1174C20.4594 13.435 22.8785 11.5354 23.1883 8.93708C23.3632 7.47322 22.9979 6.17185 22.0897 5.03592C22.0641 5.00342 22.0342 4.97388 22.0101 4.93991C21.8651 4.73901 21.8708 4.51892 22.0243 4.36973C22.1806 4.2161 22.4208 4.22201 22.59 4.39927C22.8813 4.70652 23.1201 5.05956 23.3148 5.43918C24.2728 7.31369 24.2657 9.18967 23.3035 11.0583C23.2153 11.2311 23.2168 11.3493 23.3106 11.5147C23.8094 12.3907 24.2955 13.2755 24.783 14.1588C24.9209 14.4084 25.046 14.6596 24.9834 14.9668C24.8712 15.5237 24.3936 15.8516 23.8606 15.7202C23.5138 15.6345 23.1713 15.5326 22.8259 15.4424C22.5672 15.3745 22.4237 15.4543 22.3469 15.7202C22.2588 16.0259 22.1778 16.3346 22.1053 16.6448C22.003 17.0806 21.7883 17.4026 21.3335 17.4765C20.8844 17.5489 20.5902 17.379 20.3258 16.9048C19.854 16.0614 19.3892 15.212 18.913 14.37C18.8178 14.2016 18.7794 13.9727 18.498 13.9786C18.2337 13.9845 18.1924 14.1957 18.1001 14.3597C17.6097 15.2312 17.1293 16.1101 16.6375 16.9802C16.3419 17.5031 15.7919 17.6464 15.3242 17.3421C15.1111 17.2047 14.9973 16.9964 14.932 16.7556C14.8481 16.4484 14.7714 16.1382 14.6903 15.8309C14.5866 15.4321 14.4615 15.3582 14.0721 15.4661C13.7679 15.5503 13.4638 15.6389 13.1582 15.7216C12.7844 15.8221 12.4617 15.7142 12.2201 15.41C11.9643 15.0865 11.9287 14.7157 12.1277 14.3494C12.6209 13.4409 13.117 12.5325 13.6343 11.6388C13.7807 11.3847 13.7821 11.203 13.6457 10.9357C11.8477 7.40379 13.92 3.15255 17.722 2.56169C18.8676 2.38444 19.962 2.59419 20.9995 3.12597C21.0578 3.15551 21.1146 3.18801 21.1672 3.22789C21.3406 3.36231 21.3918 3.58388 21.2966 3.76409C21.1999 3.94578 20.9953 4.02703 20.7949 3.93101C20.4111 3.74932 20.0288 3.57354 19.6166 3.46866C16.9374 2.7877 14.2568 4.65186 13.8347 7.48799C13.7978 7.74058 13.7992 7.99022 13.7907 8.16748L13.7878 8.166ZM24.007 14.9181C24.2074 14.921 24.2472 14.8368 24.1435 14.6507C23.6886 13.8279 23.2281 13.0066 22.7747 12.1824C22.6966 12.0391 22.6411 12.0228 22.5303 12.1484C21.7713 12.9978 20.846 13.5517 19.763 13.822C19.5882 13.8663 19.5782 13.9269 19.6621 14.0746C20.1183 14.887 20.5689 15.7039 21.0223 16.5193C21.0621 16.5902 21.0962 16.6818 21.1971 16.6655C21.2937 16.6493 21.3108 16.5518 21.3321 16.4735C21.4202 16.1426 21.5055 15.8088 21.5908 15.4764C21.6533 15.2342 21.7699 15.0274 21.9575 14.8678C22.283 14.5901 22.6497 14.5325 23.0505 14.6522C23.3759 14.7497 23.7057 14.8353 24.007 14.9195V14.9181ZM17.4136 13.9343C17.4093 13.8353 17.3397 13.8486 17.2885 13.8353C16.187 13.5665 15.2461 13.0066 14.4715 12.1514C14.3563 12.0228 14.3038 12.0509 14.227 12.1898C13.7821 13.0007 13.3302 13.8058 12.881 14.6138C12.837 14.6935 12.7787 14.7822 12.8498 14.8693C12.9194 14.955 13.0132 14.9107 13.0985 14.887C13.4026 14.8028 13.7054 14.7113 14.0124 14.6359C14.6704 14.4734 15.2091 14.7925 15.4067 15.4631C15.4991 15.7763 15.5716 16.0953 15.6597 16.41C15.6867 16.509 15.681 16.6537 15.8189 16.6611C15.9326 16.667 15.9653 16.5429 16.0122 16.4587C16.4585 15.6596 16.9033 14.859 17.3482 14.0584C17.3724 14.0155 17.3937 13.9697 17.4107 13.9343H17.4136Z" fill="#33363F" stroke="#33363F" stroke-width="0.5"/>
<path d="M16.4347 6.57702C16.6576 6.57702 16.879 6.56978 17.1018 6.57991C17.255 6.58715 17.333 6.52346 17.3776 6.37438C17.5015 5.95753 17.6352 5.54357 17.7676 5.12817C17.8971 4.72 18.1561 4.50145 18.4987 4.5C18.8497 4.5 19.0976 4.70698 19.2327 5.12238C19.3566 5.50449 19.489 5.88516 19.5934 6.27306C19.6547 6.5003 19.7536 6.59439 19.9917 6.58281C20.3873 6.5611 20.7856 6.57557 21.1811 6.57846C21.5794 6.58136 21.8524 6.76952 21.9582 7.10677C22.0669 7.45704 21.9638 7.76967 21.6463 8.01573C21.3092 8.27626 20.9694 8.53535 20.624 8.7843C20.4764 8.89141 20.4402 9.00286 20.5015 9.18233C20.6449 9.60208 20.7772 10.0247 20.8998 10.4517C21.0432 10.954 20.8009 11.3751 20.3246 11.4851C20.085 11.5401 19.8887 11.4345 19.7048 11.2984C19.3622 11.0437 19.0196 10.7904 18.6867 10.5255C18.5586 10.4228 18.4625 10.417 18.3302 10.5197C17.9695 10.8034 17.6074 11.0857 17.2314 11.3476C16.7718 11.669 16.2008 11.4316 16.0712 10.883C16.042 10.7586 16.0503 10.6384 16.0879 10.5183C16.23 10.0638 16.3637 9.60642 16.5127 9.15483C16.5656 8.99562 16.5392 8.90299 16.4027 8.80601C16.0629 8.56429 15.7328 8.30666 15.3999 8.05192C15.0518 7.78559 14.932 7.48164 15.0364 7.14295C15.152 6.76518 15.418 6.58425 15.8637 6.58136C16.0545 6.58136 16.2439 6.58136 16.4347 6.58136V6.57702ZM15.8804 7.39335C15.9821 7.48164 16.0253 7.52506 16.0754 7.5627C16.3762 7.79138 16.6812 8.01573 16.9807 8.24731C17.3316 8.51943 17.4222 8.80456 17.2926 9.24168C17.1868 9.59629 17.0712 9.94656 16.9626 10.2997C16.9375 10.3808 16.8915 10.4604 16.9291 10.582C17.2578 10.3345 17.5712 10.0985 17.8845 9.86261C18.3887 9.48195 18.6171 9.48195 19.1255 9.86551C19.4486 10.1087 19.7717 10.3518 20.1477 10.6326C20.0015 10.1651 19.8761 9.76564 19.7522 9.3676C19.5683 8.7814 19.6547 8.51943 20.1366 8.16047C20.4555 7.9231 20.7716 7.67993 21.0892 7.43967C20.631 7.3919 20.1895 7.39624 19.748 7.39046C19.3274 7.38467 19.0851 7.1965 18.9486 6.78399C18.8636 6.52636 18.7856 6.26727 18.7021 6.00964C18.6436 5.82726 18.5823 5.64634 18.521 5.46397C18.3386 5.89674 18.209 6.32662 18.0712 6.75505C17.9277 7.20085 17.6715 7.38901 17.216 7.3919C16.7954 7.3948 16.3762 7.3919 15.8804 7.3919V7.39335Z" fill="#33363F"/>
</svg>
