<svg width="24" height="24" viewBox="0 0 21 22" fill="none" xmlns="http://www.w3.org/2000/svg">
<g clip-path="url(#clip0_2061_30470)">
<path d="M16.3776 0.00195312C18.1313 0.0850235 19.5158 0.804967 20.3922 2.37144C20.8462 3.18434 21.053 4.06944 20.988 5.00101C20.9072 6.16993 20.4612 7.18359 19.6271 8.01726C18.4691 9.17431 17.3121 10.3324 16.154 11.4904C15.9512 11.6931 15.7513 11.8998 15.5445 12.0986C15.2176 12.4121 14.7813 12.4942 14.3973 12.3221C13.9847 12.1372 13.7297 11.7366 13.7454 11.2946C13.7553 11.0197 13.8902 10.8021 14.0753 10.6132C14.4219 10.2582 14.7774 9.91107 15.1211 9.55307C15.6587 8.99334 16.222 8.4603 16.7606 7.90353C17.2658 7.38137 17.8192 6.90866 18.2958 6.35882C18.7212 5.86929 18.9457 5.30066 18.9408 4.64796C18.9319 3.60563 18.2869 2.69284 17.3101 2.3299C16.4238 2.00059 15.5878 2.10937 14.7932 2.6068C14.6425 2.70075 14.5125 2.8214 14.3884 2.94601C13.7553 3.58288 13.1251 4.22371 12.4909 4.86058C11.8223 5.53207 11.1517 6.20158 10.4821 6.87207C10.1896 7.1648 9.85187 7.33786 9.42942 7.23007C9.04539 7.13216 8.77951 6.88889 8.65347 6.50913C8.53235 6.14224 8.60128 5.80304 8.8642 5.52613C9.24528 5.12463 9.64508 4.73993 10.036 4.34832C11.0227 3.36136 12.0143 2.38034 12.9931 1.38646C13.7336 0.63487 14.6277 0.209629 15.6627 0.0553555C15.898 0.0207429 16.1353 0.00195312 16.3776 0.00195312Z" fill="#33363F"/>
<path d="M0.00204969 16.5735C0.0246981 14.9101 0.626358 13.6878 1.70462 12.6731C2.22455 12.1836 2.71887 11.6684 3.22403 11.164C3.96749 10.4213 4.70898 9.67665 5.45244 8.93594C5.96449 8.42565 6.70204 8.50773 7.09593 9.11395C7.33718 9.48579 7.31453 9.9674 7.02601 10.3066C6.69318 10.6972 6.31702 11.0483 5.94578 11.4013C5.43471 11.8879 4.95811 12.4091 4.45295 12.9025C3.90152 13.4415 3.35894 13.9904 2.81735 14.5402C2.45202 14.9111 2.20288 15.3511 2.10638 15.8664C1.87301 17.1204 2.60071 18.2903 3.70851 18.6908C4.39092 18.937 5.06545 18.9311 5.73505 18.6532C6.19196 18.4633 6.55433 18.1449 6.89209 17.7928C7.83938 16.8078 8.81622 15.8525 9.78124 14.8854C10.0796 14.5867 10.3849 14.294 10.6911 14.0032C11.148 13.5691 11.8491 13.7105 12.2046 14.2119C12.5276 14.6678 12.4666 15.1959 12.0313 15.6093C11.5636 16.0523 11.1185 16.5181 10.6616 16.972C9.732 17.8937 8.81228 18.8253 7.88468 19.7479C7.36672 20.2632 6.73847 20.5905 6.04622 20.8041C5.60015 20.9416 5.14324 21.0039 4.67648 21.0039C3.7932 21.0049 2.97588 20.7685 2.21864 20.3186C1.13939 19.6767 0.471758 18.7274 0.150741 17.5258C0.0532548 17.1609 -0.0137057 16.7881 0.00106497 16.5764L0.00204969 16.5735Z" fill="#33363F"/>
<path d="M12.9437 6.92149C13.4725 6.87501 13.9845 7.29432 14.0751 7.83131C14.1372 8.20216 13.9983 8.50477 13.7384 8.76289C13.2814 9.21681 12.8265 9.67369 12.3716 10.1296C11.1623 11.34 9.95311 12.5505 8.74388 13.761C8.55088 13.9538 8.35 14.1338 8.06542 14.1813C7.51595 14.2712 6.99503 13.9291 6.85126 13.3792C6.74984 12.9935 6.83649 12.6672 7.12698 12.3804C7.99944 11.5181 8.86303 10.6468 9.73057 9.77852C10.5597 8.94881 11.3888 8.1181 12.2209 7.29036C12.4287 7.08368 12.6611 6.91853 12.9437 6.92149Z" fill="#33363F"/>
</g>
<defs>
<clipPath id="clip0_2061_30470">
<rect width="21" height="21" fill="white" transform="translate(0 0.00195312)"/>
</clipPath>
</defs>
</svg>
