<svg width="24" height="25" viewBox="0 0 24 25" fill="none" xmlns="http://www.w3.org/2000/svg">
<path d="M3 11.002C3 7.23072 3 5.3451 4.17157 4.17353C5.34315 3.00195 7.22876 3.00195 11 3.00195H13C16.7712 3.00195 18.6569 3.00195 19.8284 4.17353C21 5.3451 21 7.23072 21 11.002V13.002C21 16.7732 21 18.6588 19.8284 19.8304C18.6569 21.002 16.7712 21.002 13 21.002H11C7.22876 21.002 5.34315 21.002 4.17157 19.8304C3 18.6588 3 16.7732 3 13.002V11.002Z" stroke="#33363F" stroke-width="2"/>
<path fill-rule="evenodd" clip-rule="evenodd" d="M18.9997 13.5873L18.9794 13.567C18.5898 13.1774 18.2537 12.8412 17.9536 12.5884C17.6367 12.3213 17.2917 12.0864 16.8665 11.9581C16.3014 11.7876 15.6986 11.7876 15.1335 11.9581C14.7083 12.0864 14.3633 12.3213 14.0464 12.5884C13.7463 12.8412 13.4102 13.1774 13.0206 13.567L12.9921 13.5955C12.6852 13.9024 12.5046 14.0815 12.3645 14.1974L12.3443 14.2138L12.3317 14.191C12.2447 14.0314 12.1435 13.798 11.9726 13.3992L11.9191 13.2746L11.8971 13.223L11.897 13.223C11.5411 12.3924 11.2422 11.6949 10.9464 11.1693C10.6416 10.6277 10.2618 10.1198 9.66982 9.82301C9.17604 9.57547 8.6235 9.46906 8.07311 9.51551C7.41323 9.5712 6.87197 9.90172 6.38783 10.2914C5.98249 10.6176 5.52754 11.0618 5 11.5878V13.0018C5 13.5186 5.0003 13.9867 5.00308 14.413L6.117 13.299C6.80615 12.6099 7.26639 12.1516 7.64186 11.8494C8.01276 11.5509 8.17233 11.5142 8.24128 11.5084C8.42475 11.4929 8.60893 11.5284 8.77352 11.6109C8.83539 11.6419 8.96994 11.7352 9.20344 12.1501C9.43981 12.5702 9.69693 13.1666 10.0809 14.0624L10.1343 14.187L10.1506 14.2251C10.2995 14.5727 10.4378 14.8956 10.5759 15.1487C10.7206 15.414 10.9308 15.7318 11.2847 15.9509C11.702 16.2092 12.1997 16.305 12.6831 16.2202C13.093 16.1482 13.4062 15.9312 13.6391 15.7386C13.8613 15.5549 14.1096 15.3065 14.3769 15.0391L14.377 15.0391L14.4063 15.0097C14.8325 14.5835 15.1083 14.3089 15.3353 14.1177C15.5526 13.9345 15.6552 13.8898 15.7112 13.8729C15.8995 13.8161 16.1005 13.8161 16.2888 13.8729C16.3448 13.8898 16.4474 13.9345 16.6647 14.1177C16.8917 14.3089 17.1675 14.5835 17.5937 15.0098L18.9441 16.3602C18.9902 15.6423 18.9983 14.7499 18.9997 13.5873Z" fill="#33363F"/>
<circle cx="16.5" cy="7.50195" r="1.5" fill="#33363F"/>
</svg>
