<svg width="24" height="30" viewBox="0 0 24 30" fill="none" xmlns="http://www.w3.org/2000/svg">
<g clip-path="url(#clip0_6_614)">
<path d="M10.554 19.5191C11.9406 19.5084 13.2056 19.6402 14.472 19.6969C15.1269 19.726 15.7832 19.7874 16.4426 19.723C17.1545 19.654 17.6213 19.9023 17.9002 20.4663C18.1945 21.0641 18.1005 21.7768 17.6644 22.2626C17.1837 22.7976 16.5474 23.0106 15.8603 23.0826C14.8403 23.1899 13.8219 23.0964 12.805 22.9891C12.5954 22.9677 12.3859 22.9432 12.1764 22.9386C11.8605 22.9309 11.6618 23.1026 11.6186 23.3984C11.5816 23.6497 11.748 23.8658 12.0423 23.9455C12.3458 24.0268 12.6617 24.0237 12.9729 24.0482C13.9081 24.1249 14.8464 24.1862 15.7848 24.1295C16.8032 24.0666 17.6937 23.7003 18.4055 22.9493C18.4194 22.9355 18.4348 22.9232 18.4441 22.9064C18.6089 22.5814 18.9032 22.4971 19.2375 22.4328C20.0834 22.2688 20.9123 22.0343 21.7274 21.7492C22.0062 21.6511 22.2913 21.5837 22.5902 21.6312C23.2958 21.7431 23.7396 22.1569 23.9306 22.8297C24.1186 23.4888 23.9275 24.059 23.4021 24.4866C22.7181 25.0429 21.9569 25.489 21.202 25.9396C19.5118 26.945 17.7646 27.8386 15.9342 28.5666C15.0745 28.9084 14.1963 29.1965 13.278 29.3483C12.5138 29.4755 11.7557 29.4341 10.9931 29.3253C9.52938 29.1168 8.09804 28.772 6.69135 28.3306C6.16442 28.165 5.71914 28.2355 5.30623 28.6003C5.04892 28.8271 4.77005 29.031 4.49734 29.2425C3.99198 29.6349 3.57598 29.5797 3.1831 29.0708C2.28485 27.9075 1.3866 26.7442 0.486815 25.5809C0.377423 25.4399 0.261868 25.3035 0.160179 25.1579C-0.0878787 24.7977 -0.0447381 24.4283 0.278816 24.1325C0.505304 23.9256 0.768769 23.7662 1.01529 23.5854C1.81801 22.9983 2.61919 22.4098 3.45735 21.8733C4.91026 20.943 6.45253 20.2073 8.12423 19.7521C8.96085 19.5253 9.81287 19.5038 10.554 19.5191Z" fill="white"/>
<path d="M16.8679 2.32236C18.401 2.32236 19.9325 2.32236 21.4655 2.32236C22.0063 2.32236 22.3915 2.60438 22.5271 3.08564C22.715 3.75543 22.2205 4.39456 21.484 4.43594C21.4393 4.439 21.3946 4.43747 21.3499 4.43747C18.3424 4.43747 15.3349 4.43747 12.3274 4.43747C12.141 4.43747 11.9561 4.42521 11.782 4.35777C11.2982 4.16772 11.0394 3.68952 11.1349 3.173C11.2227 2.6948 11.6541 2.33309 12.1764 2.32543C12.9175 2.3147 13.6571 2.32236 14.3981 2.32083C15.2224 2.32083 16.0452 2.32083 16.8695 2.32083L16.8679 2.32236Z" fill="white"/>
<path d="M16.8294 10.2785C15.3102 10.2785 13.7895 10.2785 12.2704 10.2785C12.0285 10.2785 11.7989 10.2326 11.5971 10.0992C11.2027 9.83713 11.0301 9.37733 11.1534 8.93131C11.2766 8.48224 11.6448 8.19409 12.1363 8.16344C12.1995 8.15884 12.2642 8.16037 12.3274 8.16037C15.3349 8.16037 18.3424 8.16037 21.3499 8.16037C21.5826 8.16037 21.8091 8.18336 22.0155 8.29985C22.4254 8.53281 22.6549 9.03094 22.5471 9.44936C22.4176 9.94442 22.0047 10.2755 21.484 10.277C20.2899 10.2816 19.0958 10.2785 17.9018 10.2785C17.5443 10.2785 17.1869 10.2785 16.8294 10.2785Z" fill="white"/>
<path d="M16.8294 16.1472C15.3041 16.1472 13.7772 16.1472 12.2519 16.1472C12.0717 16.1472 11.8945 16.1288 11.7281 16.0568C11.2751 15.8637 11.0455 15.4223 11.1334 14.918C11.215 14.4551 11.631 14.1011 12.1348 14.0674C12.198 14.0628 12.2627 14.0643 12.3259 14.0643C15.3519 14.0643 18.3794 14.0643 21.4054 14.0643C21.6334 14.0643 21.8507 14.0965 22.051 14.2084C22.4408 14.426 22.6457 14.8812 22.5425 15.2935C22.4146 15.8054 22.014 16.1426 21.5025 16.1457C20.5318 16.1518 19.5612 16.1472 18.5905 16.1457C18.0035 16.1457 17.4149 16.1457 16.8279 16.1457L16.8294 16.1472Z" fill="white"/>
<path d="M9.91928 8.26767C9.91311 8.37649 9.85457 8.45926 9.77599 8.52823C9.49866 8.77193 9.22287 9.01869 8.93783 9.25319C8.79146 9.37274 8.74216 9.50148 8.78992 9.68694C8.87466 10.0119 8.94554 10.3414 9.01949 10.6694C9.03644 10.743 9.04722 10.8196 9.04876 10.8962C9.05185 11.166 8.8346 11.3101 8.59579 11.1813C8.27532 11.0097 7.96101 10.8273 7.65748 10.628C7.45565 10.4962 7.28308 10.4809 7.07817 10.6142C6.78851 10.8012 6.48807 10.9698 6.19224 11.1445C6.07977 11.2104 5.96114 11.2625 5.83017 11.192C5.68072 11.1123 5.63142 10.9851 5.6684 10.8227C5.74697 10.4701 5.81785 10.1146 5.90875 9.76357C5.96884 9.53061 5.90875 9.36814 5.72078 9.21794C5.46656 9.01716 5.23083 8.79032 4.98893 8.57574C4.87184 8.47152 4.75628 8.35963 4.82099 8.18491C4.88262 8.01631 5.03361 7.97953 5.19231 7.96573C5.56054 7.93354 5.92878 7.89523 6.29701 7.86917C6.45417 7.85844 6.53583 7.77415 6.59284 7.6408C6.73612 7.30821 6.88249 6.97715 7.02732 6.64455C7.09049 6.50048 7.16291 6.36867 7.35088 6.3656C7.54347 6.36254 7.61126 6.50201 7.67443 6.64455C7.82234 6.97561 7.97025 7.30668 8.11046 7.6408C8.16746 7.77874 8.25066 7.84925 8.40628 7.86611C8.80533 7.90902 9.21054 7.89523 9.60651 7.9688C9.80526 8.00558 9.9239 8.11747 9.92082 8.2692L9.91928 8.26767Z" fill="white"/>
<path d="M8.76056 5.38468C8.64808 5.36629 8.54794 5.30958 8.44933 5.25133C8.15967 5.07814 7.86539 4.90954 7.58036 4.72869C7.42628 4.6306 7.2907 4.63213 7.13662 4.72562C6.87008 4.88962 6.60045 5.04442 6.32928 5.20229C6.25841 5.24367 6.18445 5.28352 6.1105 5.31877C5.98261 5.38161 5.8609 5.36629 5.75305 5.27586C5.65444 5.19309 5.63903 5.08274 5.66522 4.96319C5.75305 4.56009 5.83625 4.15546 5.93177 3.75543C5.96259 3.62515 5.92715 3.53779 5.83008 3.45502C5.54813 3.21592 5.2708 2.97376 4.99038 2.73159C4.86096 2.61971 4.74232 2.49556 4.81474 2.30704C4.88253 2.13385 5.03969 2.10319 5.20763 2.09246C5.55121 2.07101 5.89479 2.03882 6.23838 2.01889C6.4171 2.0097 6.53266 1.93919 6.60199 1.76753C6.73449 1.43801 6.88086 1.11308 7.02569 0.788145C7.0904 0.648671 7.15357 0.5 7.34308 0.5C7.53567 0.5 7.61271 0.639475 7.67896 0.792744C7.82225 1.12534 7.97016 1.4564 8.11191 1.78899C8.1797 1.94992 8.29063 2.01583 8.46628 2.02349C8.82989 2.03882 9.19196 2.06947 9.55403 2.10166C9.70194 2.11392 9.84369 2.14304 9.89762 2.3193C9.95 2.49096 9.86526 2.59365 9.74817 2.69634C9.47392 2.93391 9.20891 3.18221 8.93004 3.41517C8.78213 3.53932 8.74977 3.67726 8.79291 3.85506C8.88073 4.22597 8.96239 4.59688 9.04713 4.96932C9.07949 5.11339 9.04097 5.23294 8.92387 5.3249C8.87765 5.36169 8.82527 5.38161 8.7621 5.38621L8.76056 5.38468Z" fill="white"/>
<path d="M8.73901 17.099C8.63887 17.0929 8.54642 17.0346 8.45398 16.9795C8.14737 16.7971 7.84077 16.6147 7.53724 16.4262C7.40166 16.3419 7.28148 16.3465 7.1459 16.4292C6.86394 16.604 6.57891 16.771 6.29233 16.9381C6.21529 16.9825 6.13671 17.03 6.05197 17.0515C5.80238 17.1143 5.61595 16.9396 5.66679 16.6898C5.74537 16.2974 5.82395 15.9051 5.92255 15.5188C5.97032 15.3334 5.90715 15.2169 5.7731 15.1081C5.56664 14.9379 5.36481 14.7632 5.16143 14.59C5.08439 14.5241 5.0089 14.4551 4.93494 14.3846C4.83325 14.2881 4.75622 14.1823 4.81323 14.0321C4.87023 13.8819 4.99503 13.8237 5.14294 13.8114C5.391 13.7915 5.6406 13.7547 5.88712 13.77C6.33701 13.7991 6.62513 13.6474 6.74376 13.1876C6.80693 12.9378 6.93173 12.7033 7.0365 12.4642C7.09659 12.3278 7.17517 12.2005 7.35389 12.2021C7.53878 12.2051 7.61582 12.3324 7.67745 12.481C7.81766 12.8213 7.96248 13.16 8.09961 13.5018C8.15816 13.6505 8.2583 13.7179 8.417 13.7271C8.77291 13.747 9.12882 13.7746 9.48473 13.7991C9.52325 13.8022 9.56176 13.8022 9.59874 13.8083C9.73741 13.8298 9.85913 13.8712 9.90381 14.026C9.94849 14.1823 9.88224 14.2942 9.76668 14.3923C9.48627 14.6329 9.21356 14.8812 8.92852 15.1157C8.77907 15.2383 8.74826 15.3793 8.78832 15.5556C8.86843 15.902 8.95009 16.2468 9.02559 16.5948C9.05795 16.745 9.08414 16.8982 8.94085 17.0178C8.88538 17.0638 8.82684 17.0975 8.73901 17.099Z" fill="white"/>
</g>
<defs>
<clipPath id="clip0_6_614">
<rect width="24" height="29" fill="white" transform="translate(0 0.5)"/>
</clipPath>
</defs>
</svg>
