<svg width="62" height="84" viewBox="0 0 62 84" fill="none" xmlns="http://www.w3.org/2000/svg">
<rect width="61" height="60" rx="30" transform="matrix(-1 0 0 1 61 0)" fill="#1C4481"/>
<path d="M33.25 40.0526L25 30.5263L33.25 21" stroke="white" stroke-width="4" stroke-linecap="round"/>
<path d="M10.602 71.098C10.602 71.91 10.322 72.5867 9.762 73.128C9.21133 73.66 8.36667 73.926 7.228 73.926H5.352V78H4.078V68.242H7.228C8.32933 68.242 9.16467 68.508 9.734 69.04C10.3127 69.572 10.602 70.258 10.602 71.098ZM7.228 72.876C7.93733 72.876 8.46 72.722 8.796 72.414C9.132 72.106 9.3 71.6673 9.3 71.098C9.3 69.894 8.60933 69.292 7.228 69.292H5.352V72.876H7.228ZM19.1854 73.87C19.1854 74.1127 19.1714 74.3693 19.1434 74.64H13.0114C13.0581 75.396 13.3148 75.9887 13.7814 76.418C14.2574 76.838 14.8314 77.048 15.5034 77.048C16.0541 77.048 16.5114 76.922 16.8754 76.67C17.2488 76.4087 17.5101 76.0633 17.6594 75.634H19.0314C18.8261 76.3713 18.4154 76.9733 17.7994 77.44C17.1834 77.8973 16.4181 78.126 15.5034 78.126C14.7754 78.126 14.1221 77.9627 13.5434 77.636C12.9741 77.3093 12.5261 76.8473 12.1994 76.25C11.8728 75.6433 11.7094 74.9433 11.7094 74.15C11.7094 73.3567 11.8681 72.6613 12.1854 72.064C12.5028 71.4667 12.9461 71.0093 13.5154 70.692C14.0941 70.3653 14.7568 70.202 15.5034 70.202C16.2314 70.202 16.8754 70.3607 17.4354 70.678C17.9954 70.9953 18.4248 71.434 18.7234 71.994C19.0314 72.5447 19.1854 73.17 19.1854 73.87ZM17.8694 73.604C17.8694 73.1187 17.7621 72.7033 17.5474 72.358C17.3328 72.0033 17.0388 71.7373 16.6654 71.56C16.3014 71.3733 15.8954 71.28 15.4474 71.28C14.8034 71.28 14.2528 71.4853 13.7954 71.896C13.3474 72.3067 13.0908 72.876 13.0254 73.604H17.8694ZM22.1411 71.574C22.3651 71.1353 22.6824 70.7947 23.0931 70.552C23.5131 70.3093 24.0217 70.188 24.6191 70.188V71.504H24.2831C22.8551 71.504 22.1411 72.2787 22.1411 73.828V78H20.8671V70.328H22.1411V71.574ZM28.9457 76.824L31.3257 70.328H32.6837L29.6737 78H28.1897L25.1797 70.328H26.5517L28.9457 76.824ZM34.5954 69.082C34.3527 69.082 34.1474 68.998 33.9794 68.83C33.8114 68.662 33.7274 68.4567 33.7274 68.214C33.7274 67.9713 33.8114 67.766 33.9794 67.598C34.1474 67.43 34.3527 67.346 34.5954 67.346C34.8287 67.346 35.0247 67.43 35.1834 67.598C35.3514 67.766 35.4354 67.9713 35.4354 68.214C35.4354 68.4567 35.3514 68.662 35.1834 68.83C35.0247 68.998 34.8287 69.082 34.5954 69.082ZM35.2114 70.328V78H33.9374V70.328H35.2114ZM40.7287 78.126C40.01 78.126 39.3567 77.9627 38.7687 77.636C38.19 77.3093 37.7327 76.8473 37.3967 76.25C37.07 75.6433 36.9067 74.9433 36.9067 74.15C36.9067 73.366 37.0747 72.6753 37.4107 72.078C37.756 71.4713 38.2227 71.0093 38.8107 70.692C39.3987 70.3653 40.0567 70.202 40.7847 70.202C41.5127 70.202 42.1707 70.3653 42.7587 70.692C43.3467 71.0093 43.8087 71.4667 44.1447 72.064C44.49 72.6613 44.6627 73.3567 44.6627 74.15C44.6627 74.9433 44.4854 75.6433 44.1307 76.25C43.7854 76.8473 43.314 77.3093 42.7167 77.636C42.1194 77.9627 41.4567 78.126 40.7287 78.126ZM40.7287 77.006C41.186 77.006 41.6154 76.8987 42.0167 76.684C42.418 76.4693 42.74 76.1473 42.9827 75.718C43.2347 75.2887 43.3607 74.766 43.3607 74.15C43.3607 73.534 43.2394 73.0113 42.9967 72.582C42.754 72.1527 42.4367 71.8353 42.0447 71.63C41.6527 71.4153 41.228 71.308 40.7707 71.308C40.304 71.308 39.8747 71.4153 39.4827 71.63C39.1 71.8353 38.792 72.1527 38.5587 72.582C38.3254 73.0113 38.2087 73.534 38.2087 74.15C38.2087 74.7753 38.3207 75.3027 38.5447 75.732C38.778 76.1613 39.086 76.4833 39.4687 76.698C39.8514 76.9033 40.2714 77.006 40.7287 77.006ZM53.1418 70.328V78H51.8678V76.866C51.6251 77.258 51.2844 77.566 50.8458 77.79C50.4164 78.0047 49.9404 78.112 49.4178 78.112C48.8204 78.112 48.2838 77.9907 47.8078 77.748C47.3318 77.496 46.9538 77.1227 46.6738 76.628C46.4031 76.1333 46.2678 75.5313 46.2678 74.822V70.328H47.5278V74.654C47.5278 75.41 47.7191 75.9933 48.1018 76.404C48.4844 76.8053 49.0071 77.006 49.6698 77.006C50.3511 77.006 50.8878 76.796 51.2798 76.376C51.6718 75.956 51.8678 75.3447 51.8678 74.542V70.328H53.1418ZM58.0088 78.126C57.4208 78.126 56.8935 78.028 56.4268 77.832C55.9602 77.6267 55.5915 77.3467 55.3208 76.992C55.0502 76.628 54.9008 76.2127 54.8728 75.746H56.1888C56.2262 76.1287 56.4035 76.4413 56.7208 76.684C57.0475 76.9267 57.4722 77.048 57.9948 77.048C58.4802 77.048 58.8628 76.9407 59.1428 76.726C59.4228 76.5113 59.5628 76.2407 59.5628 75.914C59.5628 75.578 59.4135 75.3307 59.1148 75.172C58.8162 75.004 58.3542 74.8407 57.7288 74.682C57.1595 74.5327 56.6928 74.3833 56.3288 74.234C55.9742 74.0753 55.6662 73.8467 55.4048 73.548C55.1528 73.24 55.0268 72.8387 55.0268 72.344C55.0268 71.952 55.1435 71.5927 55.3768 71.266C55.6102 70.9393 55.9415 70.6827 56.3708 70.496C56.8002 70.3 57.2902 70.202 57.8408 70.202C58.6902 70.202 59.3762 70.4167 59.8988 70.846C60.4215 71.2753 60.7015 71.8633 60.7388 72.61H59.4648C59.4368 72.2087 59.2735 71.8867 58.9748 71.644C58.6855 71.4013 58.2935 71.28 57.7988 71.28C57.3415 71.28 56.9775 71.378 56.7068 71.574C56.4362 71.77 56.3008 72.0267 56.3008 72.344C56.3008 72.596 56.3802 72.806 56.5388 72.974C56.7068 73.1327 56.9122 73.2633 57.1548 73.366C57.4068 73.4593 57.7522 73.5667 58.1908 73.688C58.7415 73.8373 59.1895 73.9867 59.5348 74.136C59.8802 74.276 60.1742 74.4907 60.4168 74.78C60.6688 75.0693 60.7995 75.4473 60.8088 75.914C60.8088 76.334 60.6922 76.712 60.4588 77.048C60.2255 77.384 59.8942 77.65 59.4648 77.846C59.0448 78.0327 58.5595 78.126 58.0088 78.126Z" fill="black"/>
</svg>
