<svg width="24" height="24" viewBox="0 0 29 24" fill="none" xmlns="http://www.w3.org/2000/svg">
<g clip-path="url(#clip0_533_6037)">
<path d="M26.9126 0.649793C26.635 0.543049 26.3393 0.492651 26.0424 0.501476C25.7455 0.5103 25.4533 0.578175 25.1823 0.701222C24.9114 0.82427 24.6671 1.00008 24.4634 1.21861C24.2597 1.43714 24.1006 1.69411 23.9951 1.97483L23.6006 3.02495L27.8275 4.65082L28.2231 3.59958C28.3287 3.3189 28.3785 3.01993 28.3698 2.71977C28.3611 2.4196 28.2939 2.12411 28.1722 1.85019C28.0505 1.57626 27.8767 1.32926 27.6605 1.12329C27.4444 0.917321 27.1902 0.756426 26.9126 0.649793Z" fill="white"/>
<path d="M28.864 5.05065L24.5781 16.4487L19.7795 19.6035L18.2672 14.0217L22.1565 3.67717L22.6479 2.37354H2.91304C2.14045 2.37354 1.39951 2.68384 0.85321 3.23619C0.306909 3.78854 0 4.53768 0 5.31881V20.5545C0 21.3356 0.306909 22.0848 0.85321 22.6371C1.39951 23.1895 2.14045 23.4998 2.91304 23.4998H26.0925C26.8651 23.4998 27.6061 23.1895 28.1524 22.6371C28.6987 22.0848 29.0056 21.3356 29.0056 20.5545V5.31881C29.0055 5.14769 28.9906 4.9769 28.961 4.80841L28.864 5.05065ZM15.703 18.8238H3.41897C3.04953 18.8238 2.69522 18.6755 2.43398 18.4113C2.17274 18.1472 2.02598 17.789 2.02598 17.4154C2.02598 17.0419 2.17274 16.6836 2.43398 16.4195C2.69522 16.1554 3.04953 16.007 3.41897 16.007H15.703C16.0724 16.007 16.4268 16.1554 16.688 16.4195C16.9492 16.6836 17.096 17.0419 17.096 17.4154C17.096 17.789 16.9492 18.1472 16.688 18.4113C16.4268 18.6755 16.0724 18.8238 15.703 18.8238ZM15.703 14.3428H3.41897C3.04953 14.3428 2.69522 14.1944 2.43398 13.9303C2.17274 13.6662 2.02598 13.3079 2.02598 12.9344C2.02598 12.5609 2.17274 12.2026 2.43398 11.9385C2.69522 11.6744 3.04953 11.526 3.41897 11.526H15.703C16.0724 11.526 16.4268 11.6744 16.688 11.9385C16.9492 12.2026 17.096 12.5609 17.096 12.9344C17.096 13.3079 16.9492 13.6662 16.688 13.9303C16.4268 14.1944 16.0724 14.3428 15.703 14.3428ZM17.096 8.45789C17.096 8.83143 16.9492 9.18966 16.688 9.45379C16.4268 9.71792 16.0724 9.86631 15.703 9.86631H3.41897C3.04953 9.86631 2.69522 9.71792 2.43398 9.45379C2.17274 9.18966 2.02598 8.83143 2.02598 8.45789C2.02598 8.08436 2.17274 7.72612 2.43398 7.46199C2.69522 7.19786 3.04953 7.04948 3.41897 7.04948H15.703C16.0724 7.04948 16.4268 7.19786 16.688 7.46199C16.9492 7.72612 17.096 8.08436 17.096 8.45789Z" fill="white"/>
<path d="M19.4385 14.0795L20.4515 17.8191L23.6665 15.7042L27.4265 5.70336L23.1985 4.07861L19.4385 14.0795Z" fill="white"/>
</g>
<defs>
<clipPath id="clip0_533_6037">
<rect width="29" height="23" fill="white" transform="translate(0 0.5)"/>
</clipPath>
</defs>
</svg>
