<svg width="73" height="73" viewBox="0 0 73 73" fill="none" xmlns="http://www.w3.org/2000/svg">
<path d="M38.5053 3.06007C31.8062 2.65835 25.1408 4.27798 19.3731 7.70907C13.6053 11.1401 9.00103 16.2245 6.15695 22.3032C3.31286 28.3819 2.3601 35.1747 3.42212 41.8013C4.48414 48.4279 7.51198 54.5827 12.1133 59.4682C16.7145 64.3536 22.6771 67.7445 29.2282 69.2012C35.7793 70.658 42.617 70.1136 48.855 67.6384C55.0931 65.1633 60.4439 60.8717 64.2141 55.3196C67.9843 49.7676 70 43.2111 70 36.5" stroke="url(#paint0_linear_1157_953)" stroke-width="6"/>
<circle cx="36" cy="37" r="28" fill="#1C4481"/>
<path d="M18.7 30.46H28.34V32.54L23.02 45H20.18L25.54 32.86H18.7V30.46ZM29.277 30.38H38.317V32.84H31.837V36.26C32.377 35.6 33.477 35.08 34.697 35.08C38.097 35.08 39.257 37.64 39.257 39.9C39.257 42.88 37.537 45 34.217 45C31.077 45 29.277 43.26 29.037 40.88H31.757C31.997 41.9 32.817 42.64 34.177 42.64C35.817 42.64 36.557 41.48 36.557 39.94C36.557 38.3 35.737 37.4 34.157 37.4C32.997 37.4 32.257 38.04 31.957 38.94H29.277V30.38ZM42.8338 34C42.8338 31.92 44.1938 30.76 46.0138 30.76C47.8338 30.76 49.1938 31.92 49.1938 34C49.1938 36.1 47.8338 37.26 46.0138 37.26C44.1938 37.26 42.8338 36.1 42.8338 34ZM45.9938 32.44C45.3138 32.44 44.8938 32.9 44.8938 34C44.8938 35.1 45.3138 35.58 45.9938 35.58C46.6938 35.58 47.1338 35.1 47.1338 34C47.1338 32.9 46.6938 32.44 45.9938 32.44ZM45.0938 45L52.9338 31H55.6738L47.8138 45H45.0938ZM51.6138 41.98C51.6138 39.88 52.9738 38.74 54.7938 38.74C56.5938 38.74 57.9338 39.88 57.9338 41.98C57.9338 44.1 56.5938 45.24 54.7938 45.24C52.9738 45.24 51.6138 44.1 51.6138 41.98ZM54.7738 40.42C54.0738 40.42 53.6338 40.88 53.6338 41.98C53.6338 43.1 54.0738 43.56 54.7738 43.56C55.4538 43.56 55.8938 43.1 55.8938 41.98C55.8938 40.88 55.4538 40.42 54.7738 40.42Z" fill="#FBFF3C"/>
<defs>
<linearGradient id="paint0_linear_1157_953" x1="36.5" y1="-7.34375" x2="86.0625" y2="36.5" gradientUnits="userSpaceOnUse">
<stop offset="0.140625" stop-color="#FC2D00"/>
<stop offset="0.479167" stop-color="#FD9E34"/>
<stop offset="1" stop-color="#2A7B28"/>
</linearGradient>
</defs>
</svg>
