<svg width="95" height="138" viewBox="0 0 95 138" fill="none" xmlns="http://www.w3.org/2000/svg">
<path d="M116.595 63.2509C116.776 63.2039 116.945 63.1168 117.088 62.996C117.232 62.8752 117.346 62.7238 117.423 62.5529C117.895 62.1631 118.251 61.6586 118.782 61.1702C118.531 58.3703 118.223 56.2498 117.639 52.9801C120.99 52.5615 123.865 49.6658 124.258 46.303C124.494 44.2586 123.779 42.1712 122.488 40.5793C120.719 37.4246 117.094 37.0036 114.163 38.811C114.29 37.2975 113.616 34.1803 113.306 31.1838L112.111 29.7646C112.089 29.6677 112.073 29.5762 112.048 29.4782C111.975 29.1647 111.787 28.8902 111.521 28.7094C111.255 28.5285 110.93 28.4545 110.612 28.502C107.57 28.9709 105.465 29.1315 101.336 29.6318C101.753 27.4316 100.957 25.0138 99.2489 23.5519C98.6034 23.0362 97.8819 22.6237 97.1101 22.329C94.17 20.604 90.6564 21.5185 88.6665 23.801C86.9701 25.7476 86.472 28.6666 87.9481 30.8636C84.1571 31.3839 80.4592 32.3485 77.163 33.2572C76.8491 33.3438 76.58 33.5472 76.4109 33.8257C76.2418 34.1042 76.1854 34.4368 76.2533 34.7554C77.196 39.189 78.3853 43.7965 78.9768 48.2136C79.0145 48.4993 79.1477 48.7638 79.3547 48.9641C79.5616 49.1644 79.8303 49.2887 80.1169 49.3169C80.4036 49.3451 80.6914 49.2755 80.9335 49.1193C81.1757 48.9632 81.358 48.7297 81.4509 48.4568C81.9283 47.0617 83.6558 46.4384 85.0401 46.5608C86.517 46.6948 87.8736 47.8988 88.2028 49.3709C88.9245 52.6123 85.1235 55.331 82.4369 53.7218C82.2404 53.6045 82.0159 53.5422 81.787 53.5414C81.5582 53.5406 81.3332 53.6013 81.1357 53.7172C80.9382 53.8331 80.7754 53.9999 80.6643 54.2002C80.5532 54.4005 80.4979 54.6269 80.5041 54.8559C80.6285 59.2436 81.2293 63.6046 82.2959 67.8619C82.3747 68.1758 82.5696 68.448 82.8411 68.6237C83.1127 68.7994 83.4408 68.8655 83.7592 68.8087C87.8269 68.0763 92.093 67.5615 96.2561 66.8157C96.5062 66.7703 96.7371 66.6512 96.9193 66.4739C97.1016 66.2965 97.2268 66.0688 97.2791 65.8199C97.3314 65.571 97.3084 65.3122 97.2129 65.0765C97.1175 64.8409 96.954 64.6391 96.7433 64.4969C93.5787 62.3669 94.7526 58.2167 98.1941 57.783C102.161 57.284 104.221 61.0346 102.204 63.1799C102.017 63.3817 101.899 63.6386 101.869 63.9125C101.839 64.1864 101.898 64.4626 102.037 64.7002C102.176 64.9378 102.388 65.1241 102.642 65.2314C102.896 65.3387 103.177 65.3613 103.444 65.2958C107.339 64.3382 112.474 64.2821 116.595 63.2509ZM105.433 62.3059C106.204 58.6487 102.941 54.6257 97.8773 55.2597C93.2937 55.837 90.77 60.7415 93.4112 64.716C90.5673 65.175 87.4763 65.5954 84.4976 66.0977C83.7893 63.0011 83.3358 59.8515 83.1417 56.6805C87.419 57.4241 91.7192 53.4108 90.7024 48.8286C89.7837 44.7221 84.8936 42.544 81.0718 45.0705C80.507 41.8986 79.7619 38.8113 79.014 35.4138C83.0058 34.3358 87.5076 33.2631 91.9073 33.0746C92.2359 33.0556 92.5445 32.9105 92.7689 32.6696C92.9934 32.4286 93.1164 32.1104 93.1122 31.7812C93.1081 31.4519 92.9772 31.137 92.7468 30.902C92.5164 30.667 92.2043 30.53 91.8754 30.5195C90.9393 30.5034 89.9956 29.6977 89.7281 28.6837C89.0938 26.2943 91.5573 23.6815 94.3316 24.0275C95.007 24.1163 95.6483 24.377 96.194 24.7847C96.7397 25.1924 97.1717 25.7335 97.4487 26.3561C98.0147 27.7187 98.1482 29.6324 97.3883 30.4767C97.2132 30.6732 97.1028 30.9189 97.0722 31.1803C97.0416 31.4418 97.0922 31.7062 97.2173 31.9377C97.3423 32.1693 97.5356 32.3566 97.7708 32.4742C98.0061 32.5918 98.2719 32.634 98.5321 32.595C102.375 32.0029 105.955 31.7533 109.828 31.2144C112.042 41.3676 110.557 42.613 112.21 43.1573C113.724 43.6375 113.785 41.5929 116.259 40.5957C121.006 38.6942 122.372 45.8591 118.928 48.1327C117.736 48.9187 115.671 48.6399 114.757 47.5558C114.582 47.3494 114.345 47.2043 114.081 47.1414C113.818 47.0785 113.541 47.101 113.291 47.2058C113.041 47.3105 112.831 47.492 112.69 47.724C112.55 47.9561 112.487 48.2267 112.511 48.4968C112.876 52.621 113.793 56.9247 114.756 61.0415C111.871 61.6061 108.453 61.818 105.433 62.3059Z" fill="#1C4481" fill-opacity="0.21"/>
<path d="M93.9624 102.982C96.6563 100.611 97.3645 95.792 94.2244 92.8031C93.1664 91.161 91.0795 90.0815 88.4978 90.4061C88.618 89.8015 89.2084 85.7999 89.5795 83.4447L88.39 80.8987L88.4407 80.3209C88.4733 80 88.3834 79.6788 88.189 79.4216C87.9946 79.1645 87.7102 78.9905 87.3928 78.9345C84.3741 78.3999 82.2449 78.1221 79.0791 77.6312C80.0398 74.2179 79.1304 70.3739 75.843 68.5331C70.9257 64.8872 63.8047 69.5908 65.6058 74.9378C62.8117 74.5356 60.7477 74.3178 57.6951 73.817C57.956 71.0351 58.4685 68.3962 58.8791 65.716C58.8806 65.6727 58.8707 65.6299 58.8506 65.5916C58.8305 65.5533 58.8007 65.521 58.7643 65.4977C64.049 67.1691 69.8863 62.4151 67.8097 56.204C67.3678 52.993 64.7627 51.1202 61.5099 51.3944C62.1419 48.9216 62.7098 46.292 62.979 43.8017L61.6402 42.1096L61.6458 42.0684C61.6822 41.7481 61.5959 41.4261 61.4044 41.167C61.2128 40.908 60.9303 40.7313 60.6136 40.6725C57.1624 40.0273 53.9821 39.1712 50.5877 38.4421C51.2931 37.1529 51.567 35.5398 51.4888 34.1321C51.2377 29.4147 45.9209 26.4804 41.5326 28.9641C39.2719 30.2453 37.8596 32.8371 38.5109 35.3704C34.7762 34.6013 30.9802 34.2808 27.5829 34.0421C27.2578 34.0191 26.9361 34.1213 26.6837 34.3278C26.4313 34.5342 26.2672 34.8293 26.2249 35.1527C25.6403 39.6446 25.2301 44.371 24.3247 48.7192C24.2661 49.0008 24.3042 49.2939 24.4326 49.5511C24.561 49.8083 24.7724 50.0147 25.0325 50.1369C25.2937 50.256 25.5872 50.2848 25.8666 50.2188C26.1461 50.1528 26.3958 49.9958 26.5763 49.7723C27.4865 48.6216 29.3179 48.5979 30.5772 49.1806C31.9176 49.7914 32.796 51.3777 32.6155 52.8707C32.2212 56.1617 27.7461 57.4429 25.7567 55.0483C25.6106 54.8718 25.4198 54.7379 25.2041 54.6606C24.9885 54.5833 24.756 54.5655 24.531 54.6091C24.3061 54.6527 24.097 54.756 23.9257 54.9083C23.7543 55.0605 23.6271 55.2561 23.5573 55.4745C21.4902 61.9162 21.231 66.3208 20.9327 68.3274C20.8314 68.475 20.7623 68.6422 20.7299 68.8183C20.144 72.2138 19.3859 75.6328 18.7318 79.0921C16.436 77.8534 13.2533 77.9291 11.169 79.6052C8.47458 81.7757 8.03182 86.1213 10.234 88.7947C11.7825 90.662 14.4808 91.4855 16.9656 90.8472C16.3073 94.3309 15.1367 98.0344 14.7741 101.525C14.7392 101.86 14.8379 102.195 15.0487 102.458C15.2595 102.72 15.5654 102.888 15.8997 102.926C19.5119 103.34 23.2859 103.807 26.829 104.564C25.7736 105.942 25.282 107.785 25.6776 109.439C26.8609 114.356 33.7919 116.7 37.126 113.105C38.0471 112.463 38.7803 111.587 39.2502 110.566C39.7201 109.546 39.9096 108.419 39.7991 107.302C42.492 107.928 45.2181 108.401 47.9643 108.72C48.1647 108.74 48.3671 108.711 48.5539 108.636C48.652 108.774 48.7767 108.892 48.9209 108.981C49.065 109.07 49.2256 109.13 49.3932 109.156C52.7812 109.669 56.2486 110.362 59.698 110.941C57.1674 115.903 60.8432 121.714 66.6725 120.575C70.333 120.449 72.7011 117.46 72.7104 114.061C72.7314 113.595 72.6781 113.129 72.5525 112.68C76.6201 113.459 79.2559 114.188 82.1803 114.429C82.3654 114.443 82.5511 114.415 82.7242 114.348C82.8973 114.281 83.0534 114.176 83.1812 114.042C83.5538 113.976 83.9263 113.91 84.2779 113.854C84.6013 110.433 85.2251 107.047 85.5478 103.628C88.1082 105.24 91.703 104.97 93.9624 102.982ZM35.1656 53.173C35.6647 48.9952 31.7869 45.3361 27.3545 46.4358C27.8915 43.1707 28.2267 39.8533 28.6189 36.6796C32.7279 36.9896 37.317 37.4756 41.5218 38.759C41.8382 38.8566 42.1802 38.8273 42.4755 38.6774C42.7709 38.5274 42.9965 38.2686 43.1048 37.9554C43.2131 37.6423 43.1956 37.2993 43.0559 36.999C42.9163 36.6987 42.6654 36.4644 42.3563 36.3458L42.3156 36.33C41.4545 35.9956 40.8475 34.935 40.9307 33.9026C41.132 31.4398 44.3511 29.7996 46.801 31.0529C47.4058 31.3605 47.9216 31.8181 48.2991 32.3822C48.6765 32.9462 48.903 33.5978 48.9569 34.2746C49.0388 35.7444 48.53 37.5824 47.5367 38.1295C47.3067 38.2568 47.1215 38.4519 47.0062 38.6881C46.8908 38.9244 46.8509 39.1904 46.8919 39.4501C46.9328 39.7097 47.0527 39.9504 47.2352 40.1395C47.4176 40.3286 47.6539 40.4569 47.9118 40.5069C51.7054 41.2225 55.1844 42.1807 58.9879 42.9557C58.5596 46.5593 57.8332 50.1213 56.8162 53.605C56.744 53.8536 56.7489 54.1182 56.83 54.364C56.9112 54.6098 57.065 54.8251 57.271 54.9816C58.5523 55.9324 59.2699 54.0348 61.9297 53.9159C67.0259 53.6992 65.9185 60.8921 61.9405 61.8851C60.557 62.2303 58.705 61.2786 58.2119 59.9651C58.115 59.7119 57.9402 59.4962 57.7127 59.3489C57.4853 59.2017 57.2169 59.1307 56.9463 59.146C56.6758 59.1614 56.417 59.2624 56.2075 59.4345C55.998 59.6065 55.8485 59.8407 55.7806 60.1032C54.7173 64.2547 54.1468 68.7817 53.6851 73.1268C49.5561 72.5867 45.4246 72.129 41.6814 71.3149C41.4002 71.2541 41.1067 71.29 40.8483 71.4168C40.5899 71.5436 40.3819 71.7539 40.2577 72.0137C40.1336 72.2735 40.1006 72.5676 40.1642 72.8483C40.2278 73.129 40.3843 73.38 40.6082 73.5607C41.7522 74.4807 41.7478 76.3114 41.1639 77.5696C40.5434 78.904 38.949 79.77 37.4568 79.5814C34.1669 79.1552 32.9314 74.667 35.3423 72.6991C35.5187 72.5548 35.6532 72.3659 35.7316 72.1519C35.8101 71.938 35.8298 71.7069 35.7885 71.4828C35.7515 71.2558 35.652 71.0436 35.501 70.8702C35.35 70.6969 35.1535 70.5691 34.9339 70.5015C31.2336 69.2885 27.4247 68.4362 23.5602 67.9563C23.906 64.612 24.5412 61.3039 25.4585 58.0692C29.2235 60.1684 34.6085 57.8354 35.1656 53.173ZM49.6722 94.9601C48.9176 98.7678 47.9405 102.192 47.1254 106.021C36.9721 104.669 36.1769 102.837 35.1223 104.208C34.1543 105.463 36.0527 106.219 36.1431 108.878C36.3216 113.948 29.1465 112.837 28.1807 108.825C27.8503 107.441 28.8157 105.598 30.1356 105.108C30.3891 105.013 30.6058 104.839 30.7545 104.613C30.9031 104.386 30.9761 104.118 30.9628 103.848C30.9495 103.577 30.8507 103.318 30.6806 103.107C30.5105 102.896 30.2779 102.745 30.0163 102.675C26.0297 101.621 21.6838 101.023 17.4973 100.528C18.0896 96.718 19.4778 92.6284 19.8812 88.7417C19.9065 88.4879 19.8555 88.2324 19.7347 88.0079C19.614 87.7833 19.4289 87.6001 19.2033 87.4815C18.9777 87.3629 18.7218 87.3145 18.4684 87.3424C18.215 87.3703 17.9757 87.4732 17.7811 87.6381C16.2282 88.956 13.5153 88.7243 12.2192 87.1547C10.923 85.5851 11.199 82.8717 12.7821 81.5967C14.3653 80.3217 17.3357 80.5961 18.6132 82.2227C18.7659 82.4172 18.9716 82.5632 19.2055 82.643C19.4395 82.7229 19.6915 82.7331 19.9312 82.6725C20.1709 82.6119 20.388 82.4831 20.556 82.3016C20.7241 82.1201 20.836 81.8938 20.8782 81.6501C21.5114 77.9673 22.3671 74.1763 23.0509 70.4349C26.1908 70.8214 29.2937 71.4644 32.3286 72.3574C30.1707 76.1274 32.4867 81.5162 37.1258 82.1102C41.3118 82.6464 44.9869 78.7725 43.9275 74.3492C47.1133 74.8913 50.2899 75.2562 53.667 75.6989C53.3193 79.8087 52.7947 84.3917 51.4728 88.5834C51.3826 88.9007 51.4146 89.2401 51.5623 89.5348C51.7101 89.8295 51.963 90.0579 52.271 90.1751C52.5846 90.2842 52.9285 90.2669 53.2297 90.1268C53.531 89.9867 53.7659 89.7347 53.8848 89.4244C54.223 88.5535 55.2938 87.941 56.3337 88.0339C58.7919 88.2554 60.3884 91.4474 59.13 93.9288C58.8172 94.532 58.3548 95.0447 57.7872 95.418C57.2196 95.7913 56.5658 96.0125 55.8884 96.0605C54.4198 96.1329 52.592 95.6109 52.0502 94.6103C51.9259 94.3789 51.7333 94.1915 51.4987 94.0735C51.2641 93.9556 50.9989 93.9128 50.739 93.951C50.4792 93.9892 50.2374 94.1066 50.0465 94.2872C49.8556 94.4677 49.7249 94.7027 49.6722 94.9601ZM69.345 109.592C69.091 109.571 68.8366 109.627 68.6146 109.752C68.3925 109.878 68.2129 110.066 68.099 110.295C67.985 110.523 67.9419 110.78 67.9751 111.032C68.0084 111.285 68.1165 111.522 68.2856 111.713C69.6344 113.232 69.4547 115.957 67.9139 117.288C66.373 118.619 63.6537 118.395 62.3486 116.84C61.0436 115.284 61.2676 112.293 62.8565 110.995C63.0478 110.838 63.1895 110.629 63.2647 110.394C63.3399 110.158 63.3453 109.906 63.2801 109.667C63.215 109.429 63.0821 109.214 62.8976 109.05C62.7132 108.886 62.485 108.778 62.2407 108.741C58.9288 108.242 50.5285 106.625 49.6225 106.621C50.3869 103.012 50.9967 100.846 51.7104 97.6671C52.9956 98.3797 54.6024 98.6666 56.0112 98.6005C60.7321 98.3804 63.7085 93.0785 61.2633 88.6799C60.0053 86.413 57.4304 84.9722 54.8893 85.6078C55.5772 82.4012 55.9317 79.1591 56.1894 76.1485C61.1248 77.0121 64.0583 77.194 68.6906 78.0112C70.2004 78.2795 70.813 76.1205 69.3772 75.5631C67.397 74.7943 67.334 71.8051 69.753 70.3978C72.484 68.7991 75.7516 70.5922 75.9367 73.41C76.0321 74.8139 75.7901 76.653 74.808 77.2113C74.5785 77.3405 74.3946 77.5374 74.2813 77.7752C74.168 78.013 74.1309 78.2799 74.175 78.5395C74.2192 78.7991 74.3426 79.0387 74.5281 79.2254C74.7137 79.4121 74.9524 79.5368 75.2116 79.5824C79.0713 80.2664 82.137 80.6351 85.7968 81.2483C85.4254 85.0345 85.0449 88.9961 84.0337 92.6468C83.9645 92.896 83.9725 93.1604 84.0567 93.4049C84.1409 93.6494 84.2972 93.8625 84.5052 94.0161C85.7837 94.9606 86.4862 93.0484 89.1507 92.8949C94.1922 92.6135 93.2525 99.8124 89.2574 100.863C87.8785 101.227 86.0202 100.301 85.5055 98.9896C85.4058 98.7374 85.2285 98.5234 84.9993 98.3787C84.77 98.2339 84.5007 98.1659 84.2302 98.1844C83.9596 98.2029 83.702 98.307 83.4944 98.4817C83.2868 98.6563 83.1401 98.8925 83.0754 99.156C82.1005 103.165 81.5879 107.525 81.1794 111.724C77.3563 111.214 73.2281 109.912 69.345 109.592Z" fill="#1C4481" fill-opacity="0.21"/>
<path d="M51.8215 20.5441C51.7258 20.4025 51.6025 20.2815 51.4592 20.1884C51.3158 20.0952 51.1552 20.0318 50.9869 20.0019C50.8185 19.972 50.6459 19.9762 50.4792 20.0142C50.3125 20.0522 50.155 20.1233 50.0163 20.2233C49.8775 20.3233 49.7601 20.4501 49.6711 20.5962C49.5822 20.7424 49.5234 20.9049 49.4983 21.0741C49.4732 21.2434 49.4823 21.4159 49.5251 21.5815C49.5678 21.7471 49.6434 21.9025 49.7472 22.0383C51.7067 24.7602 54.0679 27.1684 56.7501 29.1808C56.8838 29.2859 57.0371 29.3632 57.2011 29.4082C57.3651 29.4532 57.5364 29.4649 57.705 29.4428C57.8736 29.4206 58.0361 29.3649 58.1829 29.2791C58.3298 29.1932 58.458 29.0788 58.5601 28.9427C58.6622 28.8066 58.7361 28.6515 58.7775 28.4864C58.8188 28.3214 58.8268 28.1497 58.801 27.9816C58.7752 27.8134 58.716 27.6521 58.627 27.5072C58.538 27.3623 58.4209 27.2366 58.2827 27.1376C55.8085 25.2788 53.6301 23.0558 51.8215 20.5441Z" fill="#1C4481" fill-opacity="0.21"/>
<path d="M62.3574 27.8216C62.5648 27.9015 62.7893 27.9259 63.0091 27.8925C63.2288 27.859 63.436 27.7689 63.6103 27.6309C63.7846 27.4929 63.9199 27.3118 64.003 27.1055C64.086 26.8993 64.1139 26.6749 64.0839 26.4546L62.9145 17.9383C62.8916 17.7721 62.8362 17.612 62.7515 17.4672C62.6668 17.3224 62.5544 17.1957 62.4208 17.0944C62.2871 16.9931 62.1348 16.9191 61.9725 16.8767C61.8103 16.8342 61.6412 16.8242 61.4751 16.8472C61.3089 16.8701 61.1488 16.9256 61.0041 17.0104C60.8593 17.0953 60.7327 17.2078 60.6313 17.3416C60.53 17.4754 60.456 17.6278 60.4135 17.7902C60.371 17.9526 60.3609 18.1217 60.3838 18.288L61.5532 26.8042C61.5842 27.0303 61.6751 27.2439 61.8165 27.4228C61.958 27.6017 62.1447 27.7394 62.3574 27.8216Z" fill="#1C4481" fill-opacity="0.21"/>
<path d="M70.5561 27.3834L75.0552 19.246C75.1364 19.0991 75.1878 18.9377 75.2067 18.771C75.2255 18.6043 75.2114 18.4355 75.165 18.2743C75.1187 18.1131 75.041 17.9626 74.9365 17.8315C74.8321 17.7003 74.7027 17.591 74.556 17.5099C74.4093 17.4288 74.248 17.3773 74.0814 17.3586C73.9148 17.3398 73.7461 17.3541 73.585 17.4005C73.4238 17.447 73.2734 17.5247 73.1423 17.6294C73.0111 17.734 72.9018 17.8634 72.8207 18.0102L68.3216 26.1477C68.1577 26.4443 68.1182 26.7938 68.2118 27.1194C68.3054 27.4449 68.5245 27.7199 68.8208 27.8838C69.1171 28.0476 69.4664 28.087 69.7918 27.9932C70.1173 27.8993 70.3922 27.68 70.5561 27.3834Z" fill="#1C4481" fill-opacity="0.21"/>
</svg>
