<svg width="52" height="52" viewBox="0 0 52 52" fill="none" xmlns="http://www.w3.org/2000/svg">
<rect width="52" height="52" rx="26" fill="#FFEFB5"/>
<path d="M13.875 17.875C13.875 15.9894 13.875 15.0466 14.4608 14.4608C15.0466 13.875 15.9894 13.875 17.875 13.875H33.125C35.0106 13.875 35.9534 13.875 36.5392 14.4608C37.125 15.0466 37.125 15.9894 37.125 17.875V33.125C37.125 35.0106 37.125 35.9534 36.5392 36.5392C35.9534 37.125 35.0106 37.125 33.125 37.125H17.875C15.9894 37.125 15.0466 37.125 14.4608 36.5392C13.875 35.9534 13.875 35.0106 13.875 33.125V17.875Z" stroke="#FF0303" stroke-width="2"/>
<path fill-rule="evenodd" clip-rule="evenodd" d="M33.25 22.9165H25.8652C25.0477 22.9165 24.6389 22.9165 24.2714 22.7643C23.9039 22.612 23.6148 22.323 23.0368 21.7449L21.5049 20.2131L21.5049 20.2131C20.9268 19.635 20.6378 19.346 20.2703 19.1937C19.9027 19.0415 19.494 19.0415 18.6765 19.0415H13.875V33.1248C13.875 35.0105 13.875 35.9533 14.4608 36.5391C15.0466 37.1248 15.9894 37.1248 17.875 37.1248H33.125C35.0106 37.1248 35.9534 37.1248 36.5392 36.5391C37.125 35.9533 37.125 35.0105 37.125 33.1248V19.0415C37.125 20.8058 37.125 21.688 36.6069 22.2596C36.5629 22.3081 36.5166 22.3544 36.4681 22.3984C35.8965 22.9165 35.0143 22.9165 33.25 22.9165ZM19.0417 29.6665C18.4894 29.6665 18.0417 30.1142 18.0417 30.6665C18.0417 31.2188 18.4894 31.6665 19.0417 31.6665H29.375C29.9273 31.6665 30.375 31.2188 30.375 30.6665C30.375 30.1142 29.9273 29.6665 29.375 29.6665H19.0417Z" fill="#FF0303"/>
</svg>
