<svg width="53" height="52" viewBox="0 0 53 52" fill="none" xmlns="http://www.w3.org/2000/svg">
<rect x="0.5" width="52" height="52" rx="26" fill="#D8E3FF"/>
<path d="M16.4365 22.7292L18.0191 25.25L15.3972 26L18.0191 26.7083L16.2948 29.3542L14.2398 27.5625L14.9012 30H11.6179L12.2793 27.5625L10.2715 29.375L8.5 26.6875L11.1219 25.9375L8.54724 25.2708L10.1298 22.75L12.3029 24.4792L11.5707 22H14.9248L14.2398 24.4792L16.4365 22.7292Z" fill="#3B6CFF"/>
<path d="M29.677 22.7292L31.2595 25.25L28.6377 26L31.2595 26.7083L29.5352 29.3542L27.4803 27.5625L28.1416 30H24.8584L25.5197 27.5625L23.512 29.375L21.7404 26.6875L24.3623 25.9375L21.7877 25.2708L23.3703 22.75L25.5434 24.4792L24.8111 22H28.1653L27.4803 24.4792L29.677 22.7292Z" fill="#3B6CFF"/>
<path d="M42.9174 22.7292L44.5 25.25L41.8781 26L44.5 26.7083L42.7757 29.3542L40.7207 27.5625L41.3821 30H38.0988L38.7602 27.5625L36.7524 29.375L34.9809 26.6875L37.6028 25.9375L35.0281 25.2708L36.6107 22.75L38.7838 24.4792L38.0516 22H41.4057L40.7207 24.4792L42.9174 22.7292Z" fill="#3B6CFF"/>
</svg>
