<svg width="22" height="26" viewBox="0 0 22 26" fill="none" xmlns="http://www.w3.org/2000/svg">
<path fill-rule="evenodd" clip-rule="evenodd" d="M15.1502 25.6249C18.404 25.6249 21.0418 22.9872 21.0418 19.7333C21.0418 16.4794 18.404 13.8416 15.1502 13.8416C11.8963 13.8416 9.25848 16.4794 9.25848 19.7333C9.25848 22.9872 11.8963 25.6249 15.1502 25.6249ZM16.9071 17.432C16.5321 17.0878 16.031 16.9156 15.4039 16.9156C14.992 16.9156 14.6293 16.9955 14.3158 17.1554C14.0084 17.3152 13.7717 17.5396 13.6057 17.8286C13.4397 18.1175 13.3567 18.4464 13.3567 18.8153H14.3434C14.3434 18.4956 14.4387 18.2466 14.6293 18.0683C14.8199 17.89 15.0812 17.8009 15.4132 17.8009C15.7451 17.8009 16.0033 17.8931 16.1878 18.0776C16.3784 18.262 16.4737 18.5171 16.4737 18.843C16.4737 19.2918 16.3138 19.5961 15.9941 19.7559C15.6806 19.9158 15.2256 19.9957 14.6293 19.9957H14.325L14.3711 21.4435H15.2841L15.3209 20.715C15.9726 20.715 16.4952 20.5582 16.8886 20.2447C17.2821 19.9311 17.4788 19.4639 17.4788 18.843C17.4788 18.2466 17.2882 17.7763 16.9071 17.432ZM14.3342 23.2878C14.4633 23.4169 14.6232 23.4815 14.8137 23.4815C14.9982 23.4815 15.1549 23.4169 15.2841 23.2878C15.4132 23.1587 15.4777 22.9989 15.4777 22.8083C15.4777 22.6177 15.4132 22.4579 15.2841 22.3288C15.1549 22.1997 14.9982 22.1351 14.8137 22.1351C14.6232 22.1351 14.4633 22.1997 14.3342 22.3288C14.2051 22.4579 14.1406 22.6177 14.1406 22.8083C14.1406 22.9989 14.2051 23.1587 14.3342 23.2878Z" fill="white"/>
<path fill-rule="evenodd" clip-rule="evenodd" d="M12.3843 2.375L10.1843 0.375H4C1.79086 0.375 0 2.16586 0 4.375V19.1C0 21.3091 1.79086 23.1 4 23.1H8.65851C8.25027 22.4921 7.94444 21.8184 7.76353 21.1H4C2.89543 21.1 2 20.2046 2 19.1V4.375C2 3.27043 2.89543 2.375 4 2.375H12.3843ZM15.675 5.36655V12.9707C16.3791 13.0573 17.0509 13.2392 17.675 13.5021V7.18473L15.675 5.36655Z" fill="white"/>
<path d="M11.0999 6.10833V2.60184L15.0447 6.10833H11.0999Z" stroke="white" stroke-width="2"/>
</svg>
