<svg width="25" height="25" viewBox="0 0 21 33" fill="none" xmlns="http://www.w3.org/2000/svg">
<path d="M10.4334 0.480469C13.4934 0.480469 15.9384 1.32047 17.7684 3.00047C19.6284 4.68047 20.5584 6.97547 20.5584 9.88547C20.5584 12.9155 19.5984 15.1955 17.6784 16.7255C15.7584 18.2555 13.2084 19.0205 10.0284 19.0205L9.84836 22.5755H5.39336L5.16836 15.5105H6.65336C9.56336 15.5105 11.7834 15.1205 13.3134 14.3405C14.8734 13.5605 15.6534 12.0755 15.6534 9.88547C15.6534 8.29547 15.1884 7.05047 14.2584 6.15047C13.3584 5.25047 12.0984 4.80047 10.4784 4.80047C8.85836 4.80047 7.58336 5.23547 6.65336 6.10547C5.72336 6.97547 5.25836 8.19047 5.25836 9.75047H0.443359C0.443359 7.95047 0.848359 6.34547 1.65836 4.93547C2.46836 3.52547 3.62336 2.43047 5.12336 1.65047C6.65336 0.87047 8.42336 0.480469 10.4334 0.480469ZM7.55336 32.5205C6.62336 32.5205 5.84336 32.2055 5.21336 31.5755C4.58336 30.9455 4.26836 30.1655 4.26836 29.2355C4.26836 28.3055 4.58336 27.5255 5.21336 26.8955C5.84336 26.2655 6.62336 25.9505 7.55336 25.9505C8.45336 25.9505 9.21836 26.2655 9.84836 26.8955C10.4784 27.5255 10.7934 28.3055 10.7934 29.2355C10.7934 30.1655 10.4784 30.9455 9.84836 31.5755C9.21836 32.2055 8.45336 32.5205 7.55336 32.5205Z" fill="#1C4481"/>
</svg>
