<svg width="27" height="42" viewBox="0 0 27 42" fill="none" xmlns="http://www.w3.org/2000/svg">
<path fill-rule="evenodd" clip-rule="evenodd" d="M4.63599 12.7485C4.63649 13.331 4.63699 13.9135 4.63699 14.4961H4.63788C4.63788 15.0782 4.63728 15.6604 4.63669 16.2427C4.6355 17.4075 4.6343 18.5726 4.63788 19.7377C4.65218 24.7257 9.07033 28.6482 14.0106 28.0621C18.2875 27.5549 21.4638 23.9864 21.4754 19.657C21.4853 16.1333 21.4853 12.6087 21.4754 9.08415C21.462 4.17858 17.0582 0.2543 12.194 0.800957C7.83571 1.29026 4.65218 4.8498 4.63699 9.25442C4.63401 10.4188 4.635 11.5836 4.63599 12.7485ZM11.7124 41.2476C12.1637 41.2466 12.6151 41.2456 13.0664 41.2456L13.07 41.2465H17.4944C17.8878 41.2465 18.2677 41.1946 18.5922 40.9427C19.092 40.5547 19.3003 39.9265 19.1224 39.3467C18.9311 38.723 18.392 38.3098 17.6687 38.2919C16.7756 38.2695 15.8807 38.2713 14.9876 38.2892C14.6122 38.2973 14.4986 38.1539 14.5022 37.7901C14.5156 36.2227 14.5138 34.6544 14.5022 33.0861C14.4995 32.7402 14.6032 32.604 14.9689 32.543C19.4737 31.793 22.7547 29.35 24.8136 25.2761C25.7022 23.5169 26.1063 21.6242 26.1143 19.6536C26.1179 18.8345 25.5511 18.2341 24.7876 18.1767C23.9768 18.1167 23.351 18.6114 23.2258 19.4448C23.1942 19.6543 23.184 19.8668 23.1738 20.0794C23.1647 20.2697 23.1556 20.46 23.1311 20.6483C22.6188 24.5708 20.568 27.3856 16.9562 28.9593C14.0176 30.2399 11.0424 30.0876 8.25672 28.5291C4.93194 26.6687 3.11801 23.7786 2.95083 19.9144C2.93385 19.5272 2.8963 19.1374 2.66386 18.8013C2.29732 18.2708 1.63934 18.0441 1.00192 18.2278C0.417243 18.3963 -0.0190285 19.0066 0.000639437 19.7181C0.102555 23.43 1.44266 26.5988 4.15773 29.1574C6.12721 31.0142 8.45161 32.1407 11.1211 32.5386C11.5019 32.595 11.6199 32.7303 11.6164 33.1031C11.6012 34.6562 11.5967 36.2092 11.619 37.7623C11.6253 38.1915 11.4608 38.2991 11.0683 38.2892C10.2199 38.2686 9.37064 38.274 8.52134 38.2874C7.74088 38.3009 7.18124 38.705 6.98903 39.3619C6.70295 40.3387 7.43066 41.2313 8.55263 41.2421C9.60588 41.2521 10.6591 41.2498 11.7124 41.2476Z" fill="white"/>
</svg>
