<svg width="184" height="184" viewBox="0 0 184 184" fill="none" xmlns="http://www.w3.org/2000/svg">
<g filter="url(#filter0_d_1240_1547)">
<circle cx="92" cy="83" r="68" fill="white"/>
</g>
<circle cx="92" cy="83" r="48" fill="#1C4481"/>
<path fill-rule="evenodd" clip-rule="evenodd" d="M81.7807 72.9611C81.7813 73.6874 81.7819 74.4138 81.7819 75.1402H81.7831C81.7831 75.8661 81.7823 76.5921 81.7816 77.3181C81.7801 78.7706 81.7786 80.2233 81.7831 81.6761C81.8009 87.8957 87.31 92.7867 93.47 92.0559C98.8029 91.4235 102.764 86.9738 102.778 81.5755C102.79 77.1817 102.79 72.7869 102.778 68.392C102.761 62.2752 97.2702 57.3819 91.2049 58.0635C85.7705 58.6737 81.8009 63.1121 81.7819 68.6043C81.7782 70.0562 81.7795 71.5086 81.7807 72.9611ZM90.6043 108.497C91.1671 108.496 91.7299 108.495 92.2927 108.495L92.2972 108.496H97.8141C98.3045 108.496 98.7783 108.431 99.183 108.117C99.8061 107.633 100.066 106.85 99.844 106.127C99.6055 105.349 98.9333 104.834 98.0314 104.812C96.9178 104.784 95.802 104.786 94.6883 104.808C94.2201 104.818 94.0786 104.64 94.083 104.186C94.0997 102.232 94.0975 100.276 94.083 98.3205C94.0797 97.8892 94.209 97.7193 94.6649 97.6433C100.282 96.708 104.373 93.6619 106.94 88.582C108.049 86.3885 108.552 84.0285 108.562 81.5712C108.567 80.5499 107.86 79.8012 106.908 79.7297C105.897 79.6548 105.117 80.2717 104.961 81.3109C104.921 81.5721 104.909 81.8371 104.896 82.1022C104.884 82.3394 104.873 82.5768 104.843 82.8116C104.204 87.7026 101.647 91.2125 97.143 93.1747C93.4788 94.7715 89.769 94.5815 86.2954 92.6383C82.1497 90.3185 79.8879 86.7148 79.6794 81.8964C79.6583 81.4137 79.6114 80.9276 79.3216 80.5086C78.8646 79.847 78.0441 79.5643 77.2493 79.7934C76.5203 80.0035 75.9763 80.7645 76.0008 81.6517C76.1279 86.2801 77.7989 90.2314 81.1843 93.4216C83.6401 95.737 86.5384 97.1416 89.8671 97.6377C90.3419 97.7081 90.4891 97.8769 90.4846 98.3417C90.4657 100.278 90.4601 102.215 90.488 104.151C90.4958 104.687 90.2907 104.821 89.8013 104.808C88.7434 104.783 87.6844 104.789 86.6254 104.806C85.6522 104.823 84.9544 105.327 84.7147 106.146C84.358 107.364 85.2654 108.477 86.6644 108.49C87.9777 108.503 89.291 108.5 90.6043 108.497Z" fill="white"/>
<defs>
<filter id="filter0_d_1240_1547" x="0" y="0" width="184" height="184" filterUnits="userSpaceOnUse" color-interpolation-filters="sRGB">
<feFlood flood-opacity="0" result="BackgroundImageFix"/>
<feColorMatrix in="SourceAlpha" type="matrix" values="0 0 0 0 0 0 0 0 0 0 0 0 0 0 0 0 0 0 127 0" result="hardAlpha"/>
<feOffset dy="9"/>
<feGaussianBlur stdDeviation="12"/>
<feComposite in2="hardAlpha" operator="out"/>
<feColorMatrix type="matrix" values="0 0 0 0 0.202222 0 0 0 0 0.357933 0 0 0 0 0.758333 0 0 0 0.52 0"/>
<feBlend mode="normal" in2="BackgroundImageFix" result="effect1_dropShadow_1240_1547"/>
<feBlend mode="normal" in="SourceGraphic" in2="effect1_dropShadow_1240_1547" result="shape"/>
</filter>
</defs>
</svg>
