<svg width="45" height="46" viewBox="0 0 45 46" fill="none" xmlns="http://www.w3.org/2000/svg">
<rect x="1" y="1" width="43" height="44" rx="21.5" fill="none" stroke="#1C4481" stroke-width="2"/>
<path d="M25.9167 26.125L21.0834 30.9583L25.9167 35.7917" stroke="#1C4481" stroke-width="3"/>
<path d="M30.8252 18.2707C31.5675 19.5565 31.9584 21.0151 31.9584 22.4998C31.9584 23.9846 31.5675 25.4432 30.8252 26.729C30.0828 28.0148 29.015 29.0826 27.7292 29.825C26.4434 30.5673 24.9848 30.9582 23.5 30.9582" stroke="#1C4481" stroke-width="3" stroke-linecap="round"/>
<path d="M21.0833 18.875L25.9166 14.0417L21.0833 9.20833" stroke="#1C4481" stroke-width="3"/>
<path d="M16.1748 26.7293C15.4325 25.4435 15.0416 23.9849 15.0416 22.5002C15.0416 21.0154 15.4325 19.5568 16.1748 18.271C16.9172 16.9852 17.985 15.9174 19.2708 15.175C20.5566 14.4327 22.0152 14.0418 23.5 14.0418" stroke="#1C4481" stroke-width="3" stroke-linecap="round"/>
</svg>
