<svg width="25" height="25" viewBox="0 0 49 49" fill="none" xmlns="http://www.w3.org/2000/svg">
<path d="M28.5846 30.625L20.418 38.7917L28.5846 46.9583" stroke="#1C4481" stroke-width="4"/>
<path d="M36.8782 17.3538C38.2274 19.6906 38.8874 22.3615 38.7821 25.0576C38.6767 27.7538 37.8103 30.365 36.283 32.5894C34.7557 34.8137 32.6299 36.5602 30.1516 37.627C27.6732 38.6937 24.9434 39.0371 22.2781 38.6174" stroke="#1C4481" stroke-width="4" stroke-linecap="round"/>
<path d="M20.4154 18.375L28.582 10.2083L20.4154 2.04167" stroke="#1C4481" stroke-width="4"/>
<path d="M12.1218 31.6462C10.7851 29.3311 10.1246 26.6875 10.2152 24.0158C10.3059 21.3441 11.144 18.7514 12.6344 16.5322C14.1249 14.313 16.2078 12.5563 18.6467 11.4617C21.0855 10.3671 23.7825 9.97844 26.4312 10.3399" stroke="#1C4481" stroke-width="4" stroke-linecap="round"/>
</svg>
