<svg width="17" height="17" viewBox="0 0 16 21" fill="none" xmlns="http://www.w3.org/2000/svg">
<path d="M15.3087 8.84283C15.6628 8.78172 15.8647 8.40462 15.64 8.12421C15.3273 7.73404 14.8834 7.39041 14.3361 7.11994C13.5224 6.71791 12.5256 6.5 11.5 6.5C10.4745 6.5 9.47756 6.71791 8.66394 7.11994C8.11657 7.39041 7.67272 7.73404 7.36003 8.12421C7.1353 8.40462 7.33719 8.78172 7.69131 8.84282C10.2118 9.27773 12.7882 9.27773 15.3087 8.84283Z" fill="#1C4481"/>
<circle cx="11.5" cy="3" r="2.5" fill="#1C4481"/>
<path d="M5 11.5L11 11.5" stroke="#1C4481" stroke-width="2" stroke-linecap="round"/>
<path d="M5 15.5L9 15.5" stroke="#1C4481" stroke-width="2" stroke-linecap="round"/>
<path d="M15 11.5V13.5C15 16.3284 15 17.7426 14.1213 18.6213C13.2426 19.5 11.8284 19.5 9 19.5H7C4.17157 19.5 2.75736 19.5 1.87868 18.6213C1 17.7426 1 16.3284 1 13.5V7.5C1 4.67157 1 3.25736 1.87868 2.37868C2.75736 1.5 4.17157 1.5 7 1.5V1.5" stroke="#1C4481" stroke-width="2"/>
</svg>
