<svg width="17" height="17" viewBox="0 0 24 25" fill="none" xmlns="http://www.w3.org/2000/svg">
<path d="M9 7.5L13 7.5" stroke="white" stroke-width="2" stroke-linecap="round"/>
<path d="M9 15.5L12 15.5" stroke="white" stroke-width="2" stroke-linecap="round"/>
<path d="M9 11.5L15 11.5" stroke="white" stroke-width="2" stroke-linecap="round"/>
<path d="M19 11.5V9.5C19 6.67157 19 5.25736 18.1213 4.37868C17.2426 3.5 15.8284 3.5 13 3.5H11C8.17157 3.5 6.75736 3.5 5.87868 4.37868C5 5.25736 5 6.67157 5 9.5V15.5C5 18.3284 5 19.7426 5.87868 20.6213C6.75736 21.5 8.17157 21.5 11 21.5H12" stroke="white" stroke-width="2"/>
<circle cx="17.5" cy="18" r="2.5" stroke="white" stroke-width="2"/>
<path d="M21 21.5L19.5 20" stroke="white" stroke-width="2" stroke-linecap="round"/>
</svg>
