<svg width="26" height="26" viewBox="0 0 26 26" fill="none" xmlns="http://www.w3.org/2000/svg">
<circle cx="13" cy="13" r="12.5" fill="#2D60AE"/>
<path d="M11.25 12.625L14.75 16.125L11.25 19.625" stroke="white" stroke-width="2"/>
<path d="M19.8199 14.1563C20.6867 13.4056 21.0339 12.5329 20.8076 11.6736C20.5814 10.8142 19.7943 10.0162 18.5685 9.40327C17.3427 8.79036 15.7466 8.39682 14.0279 8.28369C12.3092 8.17055 10.5638 8.34414 9.0625 8.77752C7.5612 9.21091 6.38785 9.87989 5.72445 10.6807C5.06105 11.4815 4.94466 12.3694 5.39333 13.2066C5.84201 14.0438 6.83068 14.7837 8.206 15.3113C9.58133 15.839 11.2664 16.125 13 16.125" stroke="white" stroke-width="2" stroke-linecap="round"/>
</svg>
