<svg width="10" height="17" viewBox="0 0 10 17" fill="none" xmlns="http://www.w3.org/2000/svg">
<mask id="path-1-inside-1_2061_31381" fill="white">
<path fill-rule="evenodd" clip-rule="evenodd" d="M9.45072 8.52922L8.76662 7.82993L1.42967 0.329927L0 1.72852L6.65286 8.52922L3.28087e-07 15.3299L1.42967 16.7285L8.76662 9.22852L9.45072 8.52922Z"/>
</mask>
<path d="M8.76662 7.82993L8.05179 8.52922L8.76662 7.82993ZM9.45072 8.52922L10.1656 7.82993L10.8496 8.52922L10.1656 9.22852L9.45072 8.52922ZM1.42967 0.329927L0.730374 -0.384907L1.44521 -1.0842L2.1445 -0.369368L1.42967 0.329927ZM0 1.72852L-0.714834 2.42781L-1.41413 1.71298L-0.699294 1.01368L0 1.72852ZM6.65286 8.52922L7.3677 7.82993L8.05179 8.52922L7.3677 9.22852L6.65286 8.52922ZM3.28087e-07 15.3299L-0.699294 16.0448L-1.41413 15.3455L-0.714834 14.6306L3.28087e-07 15.3299ZM1.42967 16.7285L2.1445 17.4278L1.44521 18.1426L0.730375 17.4433L1.42967 16.7285ZM8.76662 9.22852L8.05179 8.52922L8.76662 9.22852ZM9.48146 7.13063L10.1656 7.82993L8.73588 9.22852L8.05179 8.52922L9.48146 7.13063ZM2.1445 -0.369368L9.48146 7.13063L8.05179 8.52922L0.714834 1.02922L2.1445 -0.369368ZM-0.699294 1.01368L0.730374 -0.384907L2.12896 1.04476L0.699294 2.44335L-0.699294 1.01368ZM5.93803 9.22852L-0.714834 2.42781L0.714834 1.02922L7.3677 7.82993L5.93803 9.22852ZM-0.714834 14.6306L5.93803 7.82993L7.3677 9.22852L0.714834 16.0292L-0.714834 14.6306ZM0.730375 17.4433L-0.699294 16.0448L0.699294 14.6151L2.12896 16.0137L0.730375 17.4433ZM9.48146 9.92781L2.1445 17.4278L0.714835 16.0292L8.05179 8.52922L9.48146 9.92781ZM10.1656 9.22852L9.48146 9.92781L8.05179 8.52922L8.73588 7.82993L10.1656 9.22852Z" fill="#1C4481" mask="url(#path-1-inside-1_2061_31381)"/>
</svg>
