<svg width="17" height="17" viewBox="0 0 18 16" fill="none" xmlns="http://www.w3.org/2000/svg">
<g clip-path="url(#clip0_1_8376)">
<path d="M13.2138 12.7803C13.2138 12.8085 13.2138 12.8311 13.2138 12.8555V15.6767C13.2138 15.9024 13.0946 15.9983 12.8099 15.9983H4.67073C4.38794 15.9983 4.26675 15.9024 4.26675 15.6767V12.8555C4.26675 12.8329 4.26675 12.8085 4.26675 12.7803H13.2138Z" fill="#1C4481"/>
<path d="M9.00708 10.374H12.5525H17.4117C17.8234 10.374 18.0004 10.5471 18.0004 10.9533C18.0004 11.2354 18.0004 11.5176 18.0004 11.7978C18.0034 11.864 17.9922 11.9301 17.9677 11.9919C17.9431 12.0537 17.9057 12.1099 17.8577 12.1568C17.8098 12.2037 17.7524 12.2403 17.6892 12.2643C17.6259 12.2883 17.5583 12.2992 17.4906 12.2962H0.689033C0.617857 12.2962 0.544757 12.2962 0.473581 12.2962C0.348047 12.2928 0.228865 12.2415 0.141513 12.1533C0.0541621 12.065 0.00558478 11.9469 0.00613632 11.8241C0.00613632 11.5044 0.00613632 11.1828 0.00613632 10.8612C0.00386893 10.796 0.0155435 10.731 0.0404444 10.6705C0.0653452 10.6099 0.102929 10.5552 0.150742 10.5097C0.198555 10.4642 0.255548 10.4289 0.318102 10.4062C0.380657 10.3835 0.44739 10.3738 0.513994 10.3778H9.00901L9.00708 10.374Z" fill="#1C4481"/>
<path d="M14.1507 2.72521C14.2142 2.91329 14.2661 3.10136 14.3431 3.27251C14.5201 3.68817 14.3431 4.50257 13.9949 4.8129C13.9338 4.8737 13.886 4.94601 13.8544 5.02543C13.6039 5.64009 13.2184 6.19352 12.7252 6.64668C11.798 7.46483 10.7381 7.45919 9.81662 6.64668C9.4209 6.28317 9.09512 5.85317 8.85477 5.37714C8.7473 5.13566 8.60546 4.91023 8.43347 4.70756C8.30254 4.54871 8.20788 4.36433 8.15579 4.16679C8.1037 3.96924 8.0954 3.7631 8.13146 3.56216C8.17432 3.40564 8.23905 3.25564 8.32383 3.11641C8.34777 3.05578 8.36455 2.99268 8.37385 2.92833C8.42771 2.59355 8.46041 2.25124 8.53543 1.9221C8.74704 1.00239 9.35877 0.436271 10.2668 0.161674C10.9441 -0.0439226 11.6679 -0.0524188 12.3501 0.137223C13.4466 0.428747 14.1257 1.28262 14.2065 2.44872C14.2065 2.53523 14.2065 2.62175 14.22 2.70827L14.1507 2.72521Z" fill="#1C4481"/>
<path d="M9.04153 7.222L10.6767 9.18557L10.744 9.15547C10.8229 8.85642 10.9037 8.55737 10.9748 8.25456C10.9748 8.21882 10.9344 8.17182 10.9152 8.12668L10.7094 7.62449H11.7982C11.7651 7.78544 11.7094 7.94115 11.6327 8.08719C11.597 8.13064 11.5734 8.18243 11.5643 8.2375C11.5552 8.29257 11.5608 8.349 11.5808 8.40127C11.652 8.65141 11.7174 8.90156 11.7847 9.15359L11.852 9.18745L13.5045 7.20508C13.9566 7.2615 14.5087 7.30854 15.0435 7.40634C15.3149 7.45706 15.5714 7.56646 15.7941 7.72657C16.0167 7.88667 16.2 8.09342 16.3304 8.33168C16.5696 8.77877 16.7834 9.2384 16.971 9.70844C16.9883 9.76977 16.998 9.83292 16.9998 9.89652H5.5C5.52712 9.7742 5.56182 9.6536 5.60389 9.5354C5.72755 9.20312 5.87013 8.87785 6.03094 8.56113C6.22348 8.1899 6.51567 7.87687 6.87622 7.65556C7.23677 7.43424 7.65212 7.31299 8.07775 7.30477C8.42594 7.27279 8.76451 7.24269 9.04153 7.222Z" fill="#1C4481"/>
<path d="M2.43959 9.88779H1.22573C1.00065 9.88779 0.85254 9.76366 0.85254 9.57746C0.85242 9.53215 0.862197 9.48734 0.881236 9.44604C0.900274 9.40473 0.928114 9.36789 0.962908 9.33797C0.997702 9.30805 1.03864 9.28575 1.08297 9.27256C1.12731 9.25937 1.174 9.2556 1.21995 9.26149H3.67458C3.9035 9.26149 4.04009 9.38373 4.03816 9.57746C4.03624 9.77118 3.89775 9.88591 3.6669 9.88779H2.43959Z" fill="#1C4481"/>
<path d="M2.4492 8.39228H3.71691C3.78018 8.38955 3.84273 8.4062 3.89585 8.43992C3.94896 8.47364 3.98998 8.52274 4.01317 8.58036C4.0424 8.63335 4.05261 8.69439 4.04214 8.75372C4.03168 8.81306 4.00117 8.86726 3.95547 8.90762C3.88594 8.96823 3.79819 9.00517 3.70538 9.01293C2.86473 9.01293 2.02407 9.01293 1.18342 9.01293C1.14055 9.01498 1.09771 9.00846 1.05751 8.99376C1.01731 8.97906 0.980601 8.95648 0.949628 8.92743C0.918655 8.89838 0.894064 8.86346 0.877372 8.8248C0.86068 8.78614 0.852238 8.74456 0.852551 8.70259C0.85217 8.65946 0.860911 8.61673 0.878264 8.57708C0.895618 8.53742 0.92119 8.50173 0.953362 8.47222C0.985533 8.44271 1.02361 8.42002 1.06519 8.40562C1.10677 8.39121 1.15095 8.38539 1.19495 8.38851L2.4492 8.39228Z" fill="#1C4481"/>
<path d="M2.447 8.07953H1.17929C1.10909 8.08252 1.03992 8.06221 0.983001 8.02193C0.926081 7.98164 0.884749 7.92372 0.865729 7.85759C0.845074 7.79645 0.845561 7.73037 0.867115 7.66953C0.888668 7.60869 0.93009 7.55648 0.984997 7.52094C1.04993 7.48402 1.12343 7.46394 1.19852 7.46262C2.03148 7.46262 2.86252 7.46262 3.69933 7.46262C3.74308 7.4581 3.78731 7.4627 3.82911 7.4761C3.87092 7.48949 3.90935 7.51138 3.94188 7.54034C3.9744 7.5693 4.0003 7.60467 4.01784 7.64411C4.03539 7.68356 4.04419 7.72618 4.04367 7.76919C4.04509 7.81327 4.03675 7.85714 4.01925 7.89779C4.00175 7.93843 3.97549 7.97489 3.94225 8.00471C3.90902 8.03452 3.86959 8.05699 3.82667 8.07055C3.78375 8.08411 3.73835 8.08846 3.69355 8.0833L2.447 8.07953Z" fill="#1C4481"/>
</g>
<defs>
<clipPath id="clip0_1_8376">
<rect width="18" height="16" fill="white"/>
</clipPath>
</defs>
</svg>
