<svg width="17" height="17" viewBox="0 0 20 20" fill="none" xmlns="http://www.w3.org/2000/svg">
<g clip-path="url(#clip0_1_8364)">
<path d="M9.02855 11.3262H16.6252C17.2898 11.3262 17.4387 11.5205 17.3471 12.1662C17.2841 12.6062 16.9059 12.5948 16.6195 12.6519C16.4383 12.6666 16.2679 12.7436 16.1373 12.8697C16.0067 12.9958 15.924 13.1632 15.9034 13.3433C15.8487 13.4907 15.8456 13.6521 15.8945 13.8015C15.9433 13.9509 16.0414 14.0794 16.1726 14.1662C16.2769 14.2249 16.3663 14.3067 16.4337 14.4054C16.5012 14.5041 16.5449 14.617 16.5616 14.7353C16.5782 14.8535 16.5672 14.9741 16.5296 15.0874C16.492 15.2008 16.4286 15.304 16.3445 15.389C16.2797 15.4945 16.2204 15.6032 16.1669 15.7148C15.657 16.5948 15.657 16.5948 14.6602 16.3948C14.5359 16.386 14.4111 16.4032 14.2938 16.4451C14.1766 16.4869 14.0693 16.5527 13.9788 16.6381C13.8883 16.7235 13.8166 16.8268 13.7682 16.9413C13.7198 17.0558 13.6958 17.1791 13.6977 17.3033C13.9154 18.3033 13.9154 18.3091 13.0274 18.8233C12.8727 18.9148 12.7123 18.989 12.5633 19.0862C12.49 19.1519 12.4028 19.2004 12.3081 19.2281C12.2135 19.2557 12.1138 19.2618 12.0165 19.2459C11.9192 19.23 11.8267 19.1925 11.7458 19.1362C11.665 19.0798 11.5978 19.0061 11.5493 18.9205C11.4471 18.7468 11.2826 18.6183 11.089 18.561C10.8954 18.5037 10.6873 18.5219 10.5066 18.6119C10.3828 18.642 10.2699 18.7062 10.1808 18.7971C10.0917 18.888 10.0299 19.002 10.0025 19.1262C9.76759 19.9833 9.75613 19.9776 8.85668 19.9776H8.6447C7.39004 19.9776 7.5791 20.0976 7.26401 19.0119C7.20828 18.9047 7.13073 18.8102 7.03633 18.7346C6.94193 18.6589 6.83274 18.6037 6.71575 18.5725C6.59876 18.5413 6.47652 18.5348 6.35686 18.5534C6.23721 18.572 6.12275 18.6153 6.02081 18.6805C5.36198 19.3891 5.44791 19.4748 4.30211 18.8462C4.19855 18.776 4.09146 18.7112 3.98128 18.6519C3.87246 18.6169 3.7727 18.5585 3.68906 18.4808C3.60541 18.403 3.53994 18.3079 3.4973 18.2021C3.45465 18.0963 3.43587 17.9825 3.44228 17.8686C3.4487 17.7548 3.48015 17.6437 3.53441 17.5433C3.60598 17.39 3.62843 17.2184 3.59871 17.0519C3.56899 16.8853 3.48855 16.732 3.36833 16.6127C3.24811 16.4934 3.09395 16.414 2.92684 16.3852C2.75974 16.3564 2.5878 16.3797 2.43444 16.4519C2.33293 16.5047 2.221 16.5346 2.10662 16.5393C1.99223 16.5441 1.8782 16.5236 1.77264 16.4794C1.66707 16.4352 1.57256 16.3684 1.49584 16.2836C1.41912 16.1989 1.36207 16.0983 1.32875 15.989C1.24854 15.8176 1.12823 15.6576 1.03656 15.4862C0.612614 14.7148 0.612615 14.7148 1.22562 14.0576C1.32416 13.9508 1.39348 13.8205 1.42689 13.6792C1.46031 13.5379 1.4567 13.3904 1.41641 13.2509C1.37612 13.1114 1.30052 12.9846 1.19687 12.8827C1.09322 12.7808 0.965009 12.7072 0.82459 12.6691C-0.0347622 12.4233 -0.0347622 12.4233 -0.0347622 11.5262V11.2576C-0.0347622 10.0348 -0.132151 10.2348 0.927717 9.93191C1.0437 9.88002 1.14698 9.80359 1.2304 9.70791C1.31382 9.61224 1.37538 9.49961 1.41081 9.37784C1.44623 9.25607 1.45468 9.12807 1.43556 9.00272C1.41645 8.87737 1.37022 8.75766 1.3001 8.65191C0.618347 7.86334 0.618347 7.85762 1.13969 6.93762C1.19863 6.84949 1.2522 6.75789 1.3001 6.66334C1.33145 6.54343 1.39068 6.43257 1.47301 6.33976C1.55534 6.24695 1.65844 6.17481 1.77395 6.12917C1.88946 6.08353 2.01413 6.06568 2.13784 6.07708C2.26156 6.08848 2.38083 6.12879 2.486 6.19476C2.61943 6.26084 2.77138 6.27987 2.91705 6.24874C3.06272 6.2176 3.1935 6.13814 3.28807 6.02333C3.4429 5.91272 3.55248 5.75007 3.59669 5.5653C3.6409 5.38053 3.61675 5.18605 3.52869 5.01762C3.47516 4.93029 3.44208 4.83204 3.43193 4.73018C3.42178 4.62832 3.43482 4.5255 3.47006 4.42936C3.50531 4.33323 3.56187 4.24628 3.6355 4.17499C3.70914 4.10369 3.79796 4.0499 3.89534 4.01762C4.09013 3.92619 4.262 3.79476 4.46825 3.6919C5.28177 3.23476 5.2875 3.23477 5.94633 3.86905C6.05182 3.95969 6.17793 4.02322 6.31368 4.05409C6.44943 4.08497 6.59068 4.08226 6.72514 4.04619C6.85959 4.01013 6.98317 3.94181 7.08508 3.84719C7.187 3.75257 7.26416 3.63453 7.30984 3.50334C7.55619 2.50905 7.55619 2.66334 8.45565 2.63477C8.90824 2.63477 9.02855 2.84048 9.02855 3.25191C9.02855 4.6862 9.02855 6.10905 9.02855 7.55477V11.3262ZM8.31815 6.42905C5.91769 6.42905 3.73493 8.71476 3.70629 11.1662C3.65097 12.454 4.10216 13.7123 4.96369 14.6731C5.82521 15.6338 7.02891 16.2208 8.31815 16.309C11.028 16.4119 13.4055 14.4919 13.5487 12.0405H9.11448C8.37544 12.0405 8.34679 12.0119 8.34679 11.2519L8.31815 6.42905ZM1.44333 14.7948C1.53499 14.9719 1.60947 15.0919 1.66103 15.2233C1.67808 15.3361 1.72349 15.4426 1.79304 15.5331C1.86259 15.6235 1.95398 15.6949 2.0587 15.7406C2.16342 15.7863 2.27804 15.8047 2.39184 15.7942C2.50564 15.7837 2.61491 15.7445 2.70944 15.6805C2.79932 15.6394 2.89702 15.6181 2.99589 15.6181C3.09476 15.6181 3.19247 15.6394 3.28234 15.6805C3.69413 15.9728 4.05753 16.3276 4.35939 16.7319C4.48543 16.9319 4.35939 17.3319 4.25054 17.6291C4.13596 18.0862 4.51981 18.1433 4.76616 18.3033C5.0125 18.4633 5.20156 18.6119 5.45364 18.3033C5.62551 18.0919 5.88332 17.7776 6.08383 17.7891C6.61086 17.8192 7.12855 17.941 7.61348 18.149C7.80254 18.229 7.91139 18.6176 7.95149 18.8805C8.0317 19.3662 8.3697 19.269 8.67334 19.2748C8.97698 19.2805 9.32072 19.3548 9.38947 18.8748C9.42957 18.6233 9.51551 18.2576 9.68738 18.1776C10.1504 17.9578 10.649 17.8224 11.1597 17.7776C11.3832 17.7776 11.6639 18.0576 11.8587 18.2748C11.8954 18.3292 11.9441 18.3746 12.0009 18.4077C12.0578 18.4407 12.1214 18.4604 12.1871 18.4653C12.2527 18.4703 12.3186 18.4603 12.3798 18.4362C12.441 18.4121 12.4959 18.3745 12.5404 18.3262C12.7868 18.1376 13.2737 18.0862 13.0732 17.6233C13.0036 17.4969 12.96 17.3579 12.9451 17.2145C12.9302 17.071 12.9443 16.926 12.9865 16.7881C13.0287 16.6502 13.0981 16.522 13.1908 16.4113C13.2834 16.3006 13.3973 16.2094 13.5258 16.1433C13.6124 16.0817 13.6863 16.0042 13.7435 15.9148C13.7813 15.8385 13.8345 15.7709 13.8997 15.7161C13.9649 15.6613 14.0408 15.6205 14.1226 15.5964C14.2044 15.5722 14.2903 15.5652 14.3749 15.5758C14.4595 15.5863 14.541 15.6142 14.6143 15.6576C15.1872 15.9148 15.4622 15.7033 15.657 15.1948C15.7086 15.069 15.7831 14.9491 15.8289 14.8519C15.6055 14.3491 14.7862 14.1605 15.1815 13.4176C15.4279 12.9605 15.1815 12.2176 15.9435 12.0405H14.2706C13.7263 14.989 11.4462 16.9948 8.65616 16.989C7.3323 16.9801 6.05241 16.5141 5.03409 15.6703C4.01577 14.8265 3.32187 13.6569 3.07036 12.3605C2.82192 11.0417 3.05999 9.67787 3.74066 8.52048C4.19752 7.7138 4.84603 7.03138 5.6292 6.53319C6.41236 6.03501 7.30622 5.73631 8.23221 5.66334V3.37762H8.10044C8.01451 3.61191 7.94003 3.8519 7.84836 4.08619C7.79107 4.22905 7.74524 4.45191 7.63639 4.4862C7.16433 4.68291 6.66667 4.81181 6.1583 4.86905C5.93487 4.86905 5.64843 4.59477 5.4651 4.37762C5.17865 4.03477 4.94376 4.22334 4.68595 4.37762C4.42815 4.53191 4.05002 4.65763 4.25054 5.07477C4.31988 5.19176 4.3643 5.32176 4.38101 5.45664C4.39772 5.59152 4.38636 5.72839 4.34765 5.8587C4.30894 5.98901 4.24371 6.10996 4.15603 6.21399C4.06835 6.31802 3.9601 6.40291 3.83805 6.46334C3.73522 6.53737 3.64769 6.6305 3.58025 6.73762C3.54121 6.8127 3.48739 6.87916 3.422 6.933C3.35661 6.98685 3.281 7.02697 3.19969 7.05098C3.11838 7.07499 3.03306 7.08239 2.94882 7.07273C2.86458 7.06307 2.78316 7.03656 2.70944 6.99477C2.17091 6.74334 1.85581 6.9319 1.66676 7.4519C1.6152 7.57762 1.54072 7.69762 1.44333 7.89191C2.23393 8.32048 2.31986 8.92048 2.01623 9.74905C1.84436 10.2348 1.67821 10.5433 1.17406 10.5891C0.669907 10.6348 0.658453 10.9319 0.658453 11.3262C0.658453 11.7205 0.658449 12.0176 1.17406 12.0633C1.68967 12.1091 1.85008 12.3605 2.00477 12.8462C2.30268 13.6919 2.30268 14.3433 1.47197 14.7948H1.44333Z" fill="#1C4481"/>
<path d="M10.9823 4.66884V0.668841C10.9823 0.377412 10.9823 0.0974139 11.3662 0.0231281C12.0765 -0.0911576 12.3974 0.0231269 12.575 0.445984C12.7067 0.754555 12.575 1.18884 13.0677 1.34884C13.2671 1.4592 13.501 1.48991 13.7223 1.43474C13.9435 1.37958 14.1354 1.24266 14.2593 1.0517C14.3064 0.970383 14.3712 0.900732 14.4491 0.847944C14.5269 0.795156 14.6157 0.7606 14.7088 0.746861C14.8019 0.733123 14.8969 0.740558 14.9867 0.768607C15.0766 0.796657 15.1589 0.844594 15.2275 0.90884C15.3765 1.00027 15.5369 1.07455 15.6916 1.16598C16.5967 1.6917 16.5967 1.6917 16.379 2.68598C16.3699 2.81067 16.3875 2.93587 16.4307 3.05324C16.4738 3.17061 16.5416 3.27746 16.6294 3.36667C16.7172 3.45588 16.8231 3.5254 16.9399 3.57061C17.0568 3.61581 17.182 3.63567 17.3071 3.62885C18.3269 3.42885 18.3269 3.42885 18.8483 4.34313C18.9285 4.48027 18.9857 4.63455 19.0774 4.76598C19.1466 4.83605 19.1981 4.92145 19.2278 5.0152C19.2575 5.10894 19.2646 5.20837 19.2484 5.30536C19.2322 5.40234 19.1932 5.49412 19.1346 5.57319C19.076 5.65226 18.9995 5.71637 18.9113 5.76027C18.3727 6.10884 18.4873 6.57741 18.6878 7.0117C18.7623 7.18313 19.0717 7.24598 19.2607 7.35455C19.4498 7.46312 19.9081 7.58313 19.9425 7.74884C20.0016 8.21821 19.9919 8.69366 19.9139 9.16027C19.9139 9.24027 19.6274 9.34884 19.4727 9.34884C16.8087 9.34884 14.1447 9.34884 11.4865 9.34884C11.0396 9.34884 10.9594 9.09741 10.9651 8.72599C10.988 7.39456 10.9823 6.02884 10.9823 4.66884ZM16.253 8.66884C16.5165 6.38313 14.1046 3.7717 11.7271 3.79456V8.66884H16.253ZM17.9717 4.24598C16.8259 4.43455 16.8259 4.41741 15.9837 3.67455C15.8182 3.57338 15.6964 3.41419 15.6424 3.22815C15.5883 3.04211 15.6059 2.84264 15.6916 2.66884C15.7295 2.57073 15.7582 2.46935 15.7775 2.36598C15.8921 1.90313 15.4681 1.88027 15.2046 1.70884C14.9411 1.53742 14.7807 1.42313 14.5687 1.70884C14.5016 1.83348 14.4091 1.94269 14.2971 2.02945C14.1851 2.1162 14.0561 2.17855 13.9184 2.21247C13.7807 2.2464 13.6374 2.25115 13.4978 2.22641C13.3582 2.20166 13.2253 2.14799 13.1078 2.06884C12.976 2.00027 12.7755 2.03456 12.6552 1.94884C12.4531 1.81946 12.2796 1.65029 12.1453 1.4517C12.0329 1.22336 11.9445 0.983974 11.8818 0.737409L11.7271 0.788845V3.01741C14.9697 3.54884 16.7228 5.4517 17.0551 8.64027H19.2493C19.3811 8.24027 19.2493 8.02313 18.8654 7.98313C18.7414 7.9859 18.6181 7.96269 18.5036 7.91502C18.389 7.86735 18.2858 7.79627 18.2005 7.70635C18.1152 7.61644 18.0498 7.50969 18.0084 7.393C17.967 7.2763 17.9506 7.15225 17.9603 7.02884C17.9521 6.88615 17.9109 6.74729 17.8399 6.62313C17.7893 6.54957 17.7545 6.46634 17.7378 6.37871C17.721 6.29107 17.7227 6.20092 17.7426 6.11394C17.7625 6.02697 17.8003 5.94504 17.8535 5.87335C17.9067 5.80166 17.9743 5.74176 18.0519 5.69741C18.5561 5.35456 18.5045 4.97741 18.1665 4.55456C18.092 4.45741 18.0347 4.34884 17.9488 4.22313L17.9717 4.24598Z" fill="#1C4481"/>
<path d="M7.67733 12.0058H7.05859V11.3486H7.6315L7.67733 12.0058Z" fill="#1C4481"/>
<path d="M9.00602 12.7314V13.3029H8.35863V12.7314H9.00602Z" fill="#1C4481"/>
<path d="M12.9645 8.0061H12.3916V7.40039H12.9645V8.0061Z" fill="#1C4481"/>
</g>
<defs>
<clipPath id="clip0_1_8364">
<rect width="20" height="20" fill="white"/>
</clipPath>
</defs>
</svg>
