<svg width="17" height="17" viewBox="0 0 24 25" fill="none" xmlns="http://www.w3.org/2000/svg">
<path d="M14.25 4.5H9.75C6.56802 4.5 4.97703 4.5 3.98851 5.50421C3 6.50841 3 8.12465 3 11.3571V13.6429C3 16.8753 3 18.4916 3.98851 19.4958C4.97703 20.5 6.56802 20.5 9.75 20.5H14.25C17.432 20.5 19.023 20.5 20.0115 19.4958C21 18.4916 21 16.8753 21 13.6429V11.3571C21 8.12465 21 6.50841 20.0115 5.50421C19.023 4.5 17.432 4.5 14.25 4.5Z" stroke="#1C4481" stroke-width="2"/>
<path d="M7 8.5H10" stroke="#1C4481" stroke-width="2" stroke-linecap="round"/>
<path d="M19 16.5H17C16.0572 16.5 15.5858 16.5 15.2929 16.2071C15 15.9142 15 15.4428 15 14.5C15 13.5572 15 13.0858 15.2929 12.7929C15.5858 12.5 16.0572 12.5 17 12.5H19C19.9428 12.5 20.4142 12.5 20.7071 12.7929C21 13.0858 21 13.5572 21 14.5C21 15.4428 21 15.9142 20.7071 16.2071C20.4142 16.5 19.9428 16.5 19 16.5Z" stroke="#1C4481" stroke-width="2"/>
</svg>
