<svg width="23" height="20" viewBox="0 0 23 20" fill="none" xmlns="http://www.w3.org/2000/svg">
<g clip-path="url(#clip0_6_555)">
<path d="M5.62939 2C7.036 1.99922 8.0841 2.69729 8.52414 3.78821C8.66471 4.13725 8.70215 4.4988 8.67553 4.86975C8.62728 5.53103 8.34363 6.09215 7.85036 6.55622C7.52678 6.86065 7.13915 7.07899 6.69994 7.20969C6.56352 7.25038 6.56519 7.26525 6.56768 7.39907C6.57434 7.78254 6.57351 8.16522 6.57351 8.54869C6.57351 9.71162 6.57683 10.8738 6.57101 12.0367C6.57018 12.2409 6.59264 12.4452 6.56103 12.6487C6.54855 12.7277 6.60262 12.7473 6.66667 12.7661C7.15662 12.9077 7.57752 13.1597 7.92106 13.5126C8.41517 14.019 8.69216 14.6177 8.68551 15.3134C8.67885 16.0302 8.40685 16.6477 7.87698 17.1658C7.5118 17.5234 7.08258 17.7856 6.57184 17.903C5.62855 18.1205 4.77094 17.9405 4.01981 17.3544C3.44086 16.902 3.10646 16.319 3.02494 15.6162C2.87355 14.3038 3.71785 13.1949 4.98722 12.7809C5.08288 12.7496 5.12031 12.7089 5.12447 12.6103C5.15192 12.0359 5.11449 11.4615 5.11865 10.8871C5.12696 9.72414 5.11865 8.56121 5.12197 7.39907C5.12197 7.29029 5.0862 7.23864 4.97474 7.20499C4.17286 6.96239 3.60556 6.46153 3.24954 5.75564C3.03409 5.32521 2.95923 4.86349 3.02078 4.38611C3.10563 3.72404 3.41257 3.16371 3.92498 2.71059C4.45984 2.23634 5.1095 2.01252 5.62939 2Z" fill="white"/>
<path d="M12.5618 3.9862C12.6009 3.98855 12.6283 3.9909 12.6558 3.99168C13.4593 3.99638 14.2637 4.00733 15.0673 4.00264C15.7793 3.99872 16.3882 4.23741 16.9172 4.67019C17.4155 5.07713 17.7108 5.5952 17.8406 6.20014C17.8805 6.38483 17.8805 6.575 17.8813 6.76282C17.883 7.17212 17.873 7.58141 17.8755 7.98992C17.878 8.42504 17.8797 8.86016 17.8797 9.29528C17.8797 9.775 17.8655 10.2547 17.873 10.7345C17.8813 11.2604 17.8797 11.7863 17.8822 12.3122C17.8822 12.4256 17.8655 12.5383 17.878 12.6526C17.8855 12.7175 17.9079 12.7465 17.977 12.7653C19.0567 13.0689 19.8627 14.0049 19.9842 15.059C20.1056 16.1171 19.4951 17.1845 18.5027 17.6682C17.4845 18.1643 16.4805 18.1041 15.5264 17.4905C14.9583 17.1251 14.5848 16.6156 14.4101 15.9997C14.1597 15.1169 14.3727 14.314 14.9957 13.6128C15.3517 13.2121 15.8018 12.9359 16.3283 12.7723C16.4223 12.7434 16.4464 12.698 16.4448 12.6103C16.4331 12.1048 16.4273 11.5992 16.4381 11.0929C16.4448 10.7947 16.429 10.4958 16.4298 10.1968C16.4331 9.44084 16.4456 8.68486 16.4448 7.92888C16.4448 7.50706 16.4256 7.08525 16.4298 6.66265C16.4364 6.01154 15.964 5.58425 15.5322 5.43477C15.3692 5.37843 15.1987 5.35573 15.0248 5.35573C14.3203 5.35651 13.6166 5.35573 12.912 5.35573C12.8255 5.35573 12.7398 5.35182 12.6533 5.3526C12.6283 5.3526 12.5926 5.34478 12.5826 5.37764C12.5751 5.4019 12.6009 5.41756 12.6175 5.43321C12.739 5.54903 12.8604 5.66407 12.9827 5.77833C13.1682 5.95285 13.3545 6.12658 13.5392 6.30188C13.6365 6.39423 13.6315 6.39188 13.535 6.48109C13.2772 6.72056 13.0201 6.96082 12.7681 7.20577C12.6092 7.35994 12.6491 7.37089 12.477 7.2089C11.8905 6.65796 11.3057 6.10623 10.7201 5.55529C10.5812 5.4246 10.4406 5.29469 10.3042 5.16165C9.99146 4.85957 9.99479 4.47689 10.3134 4.17715C10.9547 3.573 11.5977 2.96962 12.2399 2.36546C12.3447 2.26686 12.4512 2.16904 12.5518 2.06652C12.6042 2.0133 12.645 2.0133 12.6974 2.06417C12.9835 2.33651 13.2713 2.60807 13.56 2.87806C13.6149 2.92971 13.619 2.96806 13.56 3.02284C13.2605 3.30144 12.9644 3.58317 12.6674 3.86412C12.6317 3.89777 12.5884 3.92594 12.561 3.98464L12.5618 3.9862Z" fill="white"/>
</g>
<defs>
<clipPath id="clip0_6_555">
<rect width="17" height="16" fill="white" transform="translate(3 2)"/>
</clipPath>
</defs>
</svg>
