<svg width="30" height="30" viewBox="0 0 52 52" fill="none" xmlns="http://www.w3.org/2000/svg">
<rect width="52" height="52" rx="26" fill="#9EEAB3"/>
<path d="M24.4104 27.1701H36.8413C37.9288 27.1701 38.1725 27.488 38.0225 28.5446C37.9194 29.2646 37.3007 29.2459 36.8319 29.3394C36.5355 29.3635 36.2566 29.4895 36.0429 29.6958C35.8291 29.9022 35.6939 30.1761 35.6601 30.4709C35.5707 30.712 35.5655 30.9762 35.6455 31.2206C35.7255 31.465 35.8859 31.6753 36.1007 31.8174C36.2714 31.9134 36.4176 32.0473 36.528 32.2088C36.6384 32.3703 36.7099 32.555 36.7371 32.7486C36.7643 32.9421 36.7465 33.1393 36.6849 33.3249C36.6233 33.5104 36.5196 33.6793 36.3819 33.8184C36.2759 33.9909 36.1789 34.1689 36.0913 34.3514C35.257 35.7914 35.257 35.7914 33.6258 35.4641C33.4224 35.4499 33.2183 35.4779 33.0263 35.5464C32.8344 35.615 32.6588 35.7225 32.5108 35.8623C32.3627 36.0021 32.2453 36.171 32.1662 36.3584C32.087 36.5458 32.0477 36.7475 32.0508 36.9509C32.4071 38.5872 32.4071 38.5966 30.954 39.4381C30.7009 39.5878 30.4384 39.7093 30.1946 39.8683C30.0746 39.9758 29.9319 40.0552 29.777 40.1004C29.6221 40.1456 29.459 40.1556 29.2998 40.1296C29.1405 40.1035 28.9891 40.0422 28.8568 39.95C28.7245 39.8579 28.6146 39.7373 28.5353 39.5971C28.3681 39.3129 28.0988 39.1026 27.7821 39.0089C27.4653 38.9151 27.1247 38.9449 26.8291 39.0922C26.6264 39.1415 26.4417 39.2465 26.2959 39.3952C26.1501 39.544 26.049 39.7306 26.0041 39.9337C25.6197 41.3363 25.601 41.327 24.1292 41.327H23.7823C21.7292 41.327 22.0386 41.5233 21.523 39.7467C21.4318 39.5712 21.3049 39.4167 21.1504 39.2929C20.9959 39.1691 20.8173 39.0787 20.6258 39.0277C20.4344 38.9767 20.2344 38.966 20.0386 38.9964C19.8427 39.0269 19.6555 39.0977 19.4886 39.2044C18.4106 40.3639 18.5512 40.5041 16.6762 39.4755C16.5068 39.3607 16.3315 39.2546 16.1512 39.1576C15.9732 39.1004 15.8099 39.0048 15.673 38.8776C15.5362 38.7504 15.429 38.5947 15.3593 38.4216C15.2895 38.2485 15.2587 38.0621 15.2692 37.8758C15.2797 37.6895 15.3312 37.5078 15.42 37.3436C15.5371 37.0927 15.5738 36.8119 15.5252 36.5394C15.4766 36.2669 15.3449 36.016 15.1482 35.8208C14.9515 35.6256 14.6992 35.4956 14.4258 35.4485C14.1523 35.4014 13.871 35.4395 13.62 35.5576C13.4539 35.644 13.2708 35.6929 13.0836 35.7007C12.8964 35.7084 12.7098 35.675 12.5371 35.6027C12.3643 35.5303 12.2097 35.421 12.0841 35.2823C11.9586 35.1436 11.8653 34.979 11.8107 34.8002C11.6795 34.5197 11.4826 34.2579 11.3326 33.9774C10.6389 32.715 10.6389 32.715 11.642 31.6397C11.8032 31.4649 11.9166 31.2516 11.9713 31.0204C12.026 30.7892 12.0201 30.5479 11.9542 30.3196C11.8882 30.0914 11.7645 29.8839 11.5949 29.7171C11.4253 29.5504 11.2155 29.43 10.9857 29.3675C9.57952 28.9654 9.57952 28.9654 9.57952 27.4974V27.0579C9.57952 25.0568 9.42016 25.3841 11.1545 24.8885C11.3443 24.8036 11.5133 24.6786 11.6498 24.522C11.7863 24.3654 11.887 24.1811 11.945 23.9819C12.003 23.7826 12.0168 23.5732 11.9855 23.368C11.9542 23.1629 11.8786 22.967 11.7638 22.794C10.6482 21.5036 10.6482 21.4942 11.5014 19.9888C11.5978 19.8446 11.6855 19.6947 11.7638 19.54C11.8151 19.3437 11.9121 19.1623 12.0468 19.0105C12.1815 18.8586 12.3502 18.7405 12.5392 18.6659C12.7282 18.5912 12.9323 18.562 13.1347 18.5806C13.3371 18.5993 13.5323 18.6653 13.7044 18.7732C13.9228 18.8813 14.1714 18.9125 14.4098 18.8615C14.6481 18.8106 14.8621 18.6806 15.0169 18.4927C15.2702 18.3117 15.4496 18.0455 15.5219 17.7432C15.5942 17.4408 15.5547 17.1226 15.4106 16.847C15.323 16.7041 15.2689 16.5433 15.2523 16.3766C15.2357 16.2099 15.257 16.0417 15.3147 15.8844C15.3724 15.7271 15.4649 15.5848 15.5854 15.4681C15.7059 15.3515 15.8513 15.2634 16.0106 15.2106C16.3293 15.061 16.6106 14.8459 16.9481 14.6776C18.2793 13.9296 18.2887 13.9296 19.3668 14.9675C19.5394 15.1158 19.7458 15.2198 19.9679 15.2703C20.19 15.3208 20.4212 15.3164 20.6412 15.2574C20.8612 15.1984 21.0634 15.0866 21.2302 14.9317C21.3969 14.7769 21.5232 14.5837 21.598 14.3691C22.0011 12.742 22.0011 12.9945 23.4729 12.9478C24.2135 12.9478 24.4104 13.2844 24.4104 13.9576C24.4104 16.3046 24.4104 18.6329 24.4104 20.9987V27.1701ZM23.2479 19.1566C19.3199 19.1566 15.7481 22.8968 15.7012 26.9083C15.6107 29.0155 16.349 31.0747 17.7588 32.6468C19.1686 34.2189 21.1383 35.1795 23.2479 35.3239C27.6822 35.4922 31.5727 32.3503 31.8071 28.3389H24.551C23.3417 28.3389 23.2948 28.2922 23.2948 27.0485L23.2479 19.1566ZM11.9982 32.8459C12.1482 33.1358 12.2701 33.3322 12.3545 33.5472C12.3824 33.7317 12.4567 33.9061 12.5705 34.0541C12.6843 34.2021 12.8338 34.3189 13.0052 34.3937C13.1766 34.4684 13.3641 34.4985 13.5503 34.4813C13.7365 34.4641 13.9154 34.4001 14.07 34.2953C14.2171 34.2281 14.377 34.1932 14.5388 34.1932C14.7006 34.1932 14.8604 34.2281 15.0075 34.2953C15.6813 34.7736 16.276 35.3541 16.77 36.0158C16.9762 36.3431 16.77 36.9976 16.5918 37.4839C16.4043 38.2319 17.0325 38.3254 17.4356 38.5872C17.8387 38.8491 18.1481 39.0922 18.5605 38.5872C18.8418 38.2413 19.2637 37.727 19.5918 37.7457C20.4542 37.7949 21.3013 37.9943 22.0948 38.3348C22.4042 38.4657 22.5823 39.1015 22.6479 39.5316C22.7792 40.3265 23.3323 40.1675 23.8292 40.1768C24.326 40.1862 24.8885 40.3078 25.001 39.5223C25.0666 39.1109 25.2072 38.5124 25.4885 38.3815C26.2461 38.0219 27.062 37.8002 27.8978 37.727C28.2634 37.727 28.7228 38.1852 29.0415 38.5405C29.1016 38.6296 29.1812 38.7039 29.2743 38.7579C29.3674 38.8119 29.4715 38.8442 29.5789 38.8523C29.6862 38.8604 29.7941 38.8441 29.8942 38.8047C29.9944 38.7653 30.0842 38.7037 30.1571 38.6246C30.5602 38.3161 31.3571 38.2319 31.029 37.4745C30.915 37.2677 30.8437 37.0402 30.8194 36.8055C30.795 36.5707 30.818 36.3335 30.887 36.1077C30.9561 35.882 31.0697 35.6724 31.2213 35.4912C31.3729 35.31 31.5593 35.1609 31.7696 35.0527C31.9112 34.9519 32.0322 34.8249 32.1258 34.6787C32.1876 34.5539 32.2746 34.4432 32.3814 34.3535C32.4881 34.2639 32.6123 34.1972 32.7461 34.1577C32.8799 34.1182 33.0205 34.1067 33.1589 34.1239C33.2974 34.1412 33.4308 34.1868 33.5508 34.2579C34.4883 34.6787 34.9382 34.3327 35.257 33.5005C35.3414 33.2948 35.4632 33.0984 35.5382 32.9394C35.1726 32.1166 33.832 31.808 34.4789 30.5924C34.882 29.8444 34.4789 28.6288 35.7257 28.3389H32.9883C32.0977 33.1639 28.3665 36.4459 23.801 36.4366C21.6347 36.4219 19.5404 35.6594 17.874 34.2786C16.2077 32.8978 15.0722 30.984 14.6606 28.8626C14.2541 26.7046 14.6437 24.4728 15.7575 22.5789C16.5051 21.2589 17.5663 20.1422 18.8478 19.327C20.1294 18.5118 21.592 18.023 23.1073 17.9036V14.1633H22.8917C22.7511 14.5467 22.6292 14.9394 22.4792 15.3228C22.3854 15.5566 22.3104 15.9213 22.1323 15.9774C21.3599 16.2993 20.5455 16.5102 19.7136 16.6039C19.348 16.6039 18.8793 16.155 18.5793 15.7997C18.1106 15.2387 17.7262 15.5472 17.3043 15.7997C16.8825 16.0522 16.2637 16.2579 16.5918 16.9405C16.7053 17.1319 16.778 17.3446 16.8053 17.5654C16.8327 17.7861 16.8141 18.0101 16.7507 18.2233C16.6874 18.4365 16.5807 18.6344 16.4372 18.8047C16.2937 18.9749 16.1166 19.1138 15.9169 19.2127C15.7486 19.3338 15.6053 19.4862 15.495 19.6615C15.4311 19.7844 15.3431 19.8931 15.236 19.9812C15.129 20.0693 15.0053 20.135 14.8723 20.1743C14.7392 20.2136 14.5996 20.2257 14.4617 20.2099C14.3239 20.1941 14.1907 20.1507 14.07 20.0823C13.1888 19.6709 12.6732 19.9794 12.3638 20.8303C12.2795 21.0361 12.1576 21.2324 11.9982 21.5503C13.2919 22.2516 13.4326 23.2335 12.9357 24.5893C12.6544 25.3841 12.3826 25.8891 11.5576 25.9639C10.7326 26.0387 10.7139 26.5249 10.7139 27.1701C10.7139 27.8153 10.7139 28.3015 11.5576 28.3763C12.4013 28.4511 12.6638 28.8626 12.9169 29.6574C13.4044 31.0413 13.4044 32.1072 12.0451 32.8459H11.9982Z" fill="#09A02A" stroke="#09A02A" stroke-width="0.5"/>
<path d="M27.6077 16.2762V9.73079C27.6077 9.2539 27.6077 8.79572 28.2358 8.67417C29.3983 8.48715 29.9232 8.67416 30.2139 9.36611C30.4295 9.87105 30.2139 10.5817 31.0201 10.8435C31.3464 11.0241 31.7292 11.0744 32.0912 10.9841C32.4532 10.8938 32.7674 10.6698 32.97 10.3573C33.047 10.2242 33.1532 10.1102 33.2805 10.0239C33.4079 9.93748 33.5532 9.88094 33.7056 9.85846C33.8579 9.83597 34.0134 9.84814 34.1604 9.89404C34.3074 9.93994 34.4421 10.0184 34.5544 10.1235C34.7981 10.2731 35.0606 10.3947 35.3137 10.5443C36.7949 11.4045 36.7949 11.4046 36.4387 13.0316C36.4237 13.2356 36.4526 13.4405 36.5232 13.6325C36.5938 13.8246 36.7047 13.9994 36.8484 14.1454C36.9921 14.2914 37.1653 14.4052 37.3565 14.4791C37.5478 14.5531 37.7526 14.5856 37.9574 14.5744C39.6261 14.2472 39.6261 14.2472 40.4792 15.7433C40.6105 15.9677 40.7042 16.2201 40.8542 16.4352C40.9674 16.5498 41.0517 16.6896 41.1004 16.843C41.149 16.9964 41.1605 17.1591 41.134 17.3178C41.1075 17.4765 41.0437 17.6267 40.9478 17.7561C40.8519 17.8855 40.7267 17.9904 40.5824 18.0622C39.7011 18.6326 39.8886 19.3994 40.2167 20.11C40.3386 20.3905 40.8448 20.4934 41.1542 20.671C41.4636 20.8487 42.2135 21.0451 42.2698 21.3162C42.3665 22.0843 42.3507 22.8623 42.2229 23.6258C42.2229 23.7568 41.7542 23.9344 41.5011 23.9344C37.1418 23.9344 32.7825 23.9344 28.4327 23.9344C27.7014 23.9344 27.5702 23.523 27.5796 22.9152C27.6171 20.7365 27.6077 18.5017 27.6077 16.2762ZM36.2325 22.8217C36.6637 19.0814 32.7169 14.8082 28.8264 14.8456V22.8217H36.2325ZM39.0449 15.5843C37.1699 15.8929 37.1699 15.8648 35.7919 14.6492C35.5209 14.4837 35.3216 14.2232 35.2332 13.9187C35.1448 13.6143 35.1735 13.2879 35.3137 13.0035C35.3757 12.843 35.4228 12.6771 35.4544 12.5079C35.6419 11.7505 34.9481 11.7131 34.5169 11.4326C34.0856 11.1521 33.8232 10.9651 33.4763 11.4326C33.3666 11.6366 33.2151 11.8153 33.0318 11.9572C32.8486 12.0992 32.6375 12.2012 32.4122 12.2567C32.1869 12.3122 31.9524 12.32 31.724 12.2795C31.4955 12.239 31.278 12.1512 31.0857 12.0217C30.8701 11.9095 30.542 11.9656 30.3451 11.8253C30.0144 11.6136 29.7305 11.3368 29.5108 11.0118C29.3268 10.6382 29.1822 10.2465 29.0795 9.84299L28.8264 9.92716V13.5739C34.1325 14.4435 37.0012 17.5573 37.5449 22.7749H41.1355C41.3511 22.1204 41.1355 21.7651 40.5074 21.6996C40.3043 21.7042 40.1026 21.6662 39.9152 21.5882C39.7278 21.5102 39.5589 21.3938 39.4193 21.2467C39.2797 21.0996 39.1726 20.9249 39.1049 20.7339C39.0372 20.543 39.0104 20.34 39.0261 20.1381C39.0128 19.9046 38.9454 19.6773 38.8293 19.4742C38.7464 19.3538 38.6895 19.2176 38.6621 19.0742C38.6347 18.9308 38.6373 18.7833 38.6699 18.641C38.7025 18.4986 38.7643 18.3646 38.8514 18.2473C38.9386 18.1299 39.0491 18.0319 39.1761 17.9594C40.0011 17.3983 39.9167 16.7812 39.3636 16.0892C39.2418 15.9303 39.148 15.7526 39.0074 15.5469L39.0449 15.5843Z" fill="#09A02A" stroke="#09A02A" stroke-width="0.5"/>
<path d="M22.1992 28.2821H21.1868V27.2068H22.1242L22.1992 28.2821Z" fill="#09A02A"/>
<path d="M24.3734 29.4697V30.4048H23.3141V29.4697H24.3734Z" fill="#09A02A"/>
<path d="M30.851 21.7373H29.9136V20.7461H30.851V21.7373Z" fill="#09A02A"/>
</svg>
