<svg width="17" height="17" viewBox="0 0 24 24" fill="none" xmlns="http://www.w3.org/2000/svg">
<circle cx="12" cy="8" r="3" stroke="#1C4481" stroke-width="2" stroke-linecap="round"/>
<path d="M15.2679 8C15.5332 7.54063 15.97 7.20543 16.4824 7.06815C16.9947 6.93086 17.5406 7.00273 18 7.26795C18.4594 7.53317 18.7946 7.97 18.9319 8.48236C19.0691 8.99472 18.9973 9.54063 18.7321 10C18.4668 10.4594 18.03 10.7946 17.5176 10.9319C17.0053 11.0691 16.4594 10.9973 16 10.7321C15.5406 10.4668 15.2054 10.03 15.0681 9.51764C14.9309 9.00528 15.0027 8.45937 15.2679 8L15.2679 8Z" stroke="#1C4481" stroke-width="2"/>
<path d="M5.26795 8C5.53317 7.54063 5.97 7.20543 6.48236 7.06815C6.99472 6.93086 7.54063 7.00273 8 7.26795C8.45937 7.53317 8.79457 7.97 8.93185 8.48236C9.06914 8.99472 8.99727 9.54063 8.73205 10C8.46683 10.4594 8.03 10.7946 7.51764 10.9319C7.00528 11.0691 6.45937 10.9973 6 10.7321C5.54063 10.4668 5.20543 10.03 5.06815 9.51764C4.93086 9.00528 5.00273 8.45937 5.26795 8L5.26795 8Z" stroke="#1C4481" stroke-width="2"/>
<path d="M16.8821 18L15.9017 18.1974L16.0634 19H16.8821V18ZM20.7206 16.9042L21.6631 16.5699L20.7206 16.9042ZM14.7812 14.7105L14.1764 13.9142L13.0198 14.7927L14.2531 15.5597L14.7812 14.7105ZM19.8676 17H16.8821V19H19.8676V17ZM19.7782 17.2384C19.7711 17.2186 19.7646 17.181 19.773 17.1354C19.7808 17.0921 19.7987 17.0593 19.8156 17.0383C19.8478 16.9982 19.8744 17 19.8676 17V19C21.0137 19 22.1418 17.9194 21.6631 16.5699L19.7782 17.2384ZM17.0004 15C18.642 15 19.4031 16.1811 19.7782 17.2384L21.6631 16.5699C21.1981 15.2588 19.949 13 17.0004 13V15ZM15.3861 15.5069C15.7706 15.2148 16.2824 15 17.0004 15V13C15.8385 13 14.9032 13.3622 14.1764 13.9142L15.3861 15.5069ZM14.2531 15.5597C15.2923 16.206 15.7275 17.3324 15.9017 18.1974L17.8624 17.8026C17.6444 16.7204 17.0378 14.9364 15.3094 13.8614L14.2531 15.5597Z" fill="#1C4481"/>
<path d="M9.21826 14.7105L9.74639 15.5597L10.9797 14.7927L9.82312 13.9142L9.21826 14.7105ZM3.27888 16.9041L4.22135 17.2384L4.22135 17.2384L3.27888 16.9041ZM7.11744 18V19H7.93612L8.09775 18.1974L7.11744 18ZM6.9991 15C7.71712 15 8.22894 15.2148 8.61341 15.5069L9.82312 13.9142C9.09631 13.3621 8.16098 13 6.9991 13V15ZM4.22135 17.2384C4.5964 16.1811 5.35751 15 6.9991 15V13C4.05059 13 2.80147 15.2587 2.33642 16.5699L4.22135 17.2384ZM4.13187 17C4.12509 17 4.15172 16.9982 4.18394 17.0383C4.20084 17.0593 4.21869 17.0921 4.22657 17.1354C4.23488 17.181 4.2284 17.2186 4.22135 17.2384L2.33642 16.5699C1.85772 17.9194 2.98585 19 4.13187 19V17ZM7.11744 17H4.13187V19H7.11744V17ZM8.09775 18.1974C8.27197 17.3324 8.70723 16.206 9.74639 15.5597L8.69014 13.8614C6.96165 14.9363 6.35508 16.7203 6.13712 17.8026L8.09775 18.1974Z" fill="#1C4481"/>
<path d="M12 14C15.5715 14 16.5919 16.5512 16.8834 18.0089C16.9917 18.5504 16.5523 19 16 19H8C7.44772 19 7.00829 18.5504 7.11659 18.0089C7.4081 16.5512 8.42846 14 12 14Z" stroke="#1C4481" stroke-width="2" stroke-linecap="round"/>
</svg>
