<svg width="17" height="17" viewBox="0 0 24 32" fill="none" xmlns="http://www.w3.org/2000/svg">
<circle cx="7" cy="24.125" r="2.625" fill="#1C4481" stroke="#1C4481" stroke-width="2"/>
<path d="M16.0196 16.5196C16.4101 16.1291 16.4101 15.4959 16.0196 15.1054C15.6291 14.7149 14.9959 14.7149 14.6054 15.1054L16.0196 16.5196ZM15.9179 19.5821L16.625 20.2892L18.0392 18.875L17.3321 18.1679L15.9179 19.5821ZM14.1679 19.5821L14.875 20.2892L16.2892 18.875L15.5821 18.1679L14.1679 19.5821ZM8.04289 21.6679C7.65237 22.0584 7.65237 22.6916 8.04289 23.0821C8.43342 23.4726 9.06658 23.4726 9.45711 23.0821L8.04289 21.6679ZM13.7304 20.8946L14.4375 21.6017L15.8517 20.1875L15.1446 19.4804L13.7304 20.8946ZM15.1446 17.3946L16.0196 16.5196L14.6054 15.1054L13.7304 15.9804L15.1446 17.3946ZM13.7304 17.3946L15.9179 19.5821L17.3321 18.1679L15.1446 15.9804L13.7304 17.3946ZM14.2696 18.2696L15.1446 17.3946L13.7304 15.9804L12.8554 16.8554L14.2696 18.2696ZM12.8554 18.2696L14.1679 19.5821L15.5821 18.1679L14.2696 16.8554L12.8554 18.2696ZM9.45711 23.0821L13.3946 19.1446L11.9804 17.7304L8.04289 21.6679L9.45711 23.0821ZM13.3946 19.1446L14.2696 18.2696L12.8554 16.8554L11.9804 17.7304L13.3946 19.1446ZM11.9804 19.1446L13.7304 20.8946L15.1446 19.4804L13.3946 17.7304L11.9804 19.1446Z" fill="#1C4481"/>
<path d="M8 9.84615L7.284 10.5443L6.60335 9.84615L7.284 9.14805L8 9.84615ZM21 16C21 16.5523 20.5523 17 20 17C19.4477 17 19 16.5523 19 16L21 16ZM11.034 14.3904L7.284 10.5443L8.716 9.14805L12.466 12.9942L11.034 14.3904ZM7.284 9.14805L11.034 5.3019L12.466 6.6981L8.716 10.5443L7.284 9.14805ZM8 8.84615L14 8.84615L14 10.8462L8 10.8462L8 8.84615ZM21 15.8462L21 16L19 16L19 15.8462L21 15.8462ZM14 8.84615C17.866 8.84615 21 11.9802 21 15.8462L19 15.8462C19 13.0847 16.7614 10.8462 14 10.8462L14 8.84615Z" fill="#1C4481"/>
</svg>
