<svg width="25" height="25" viewBox="0 0 31 34" fill="none" xmlns="http://www.w3.org/2000/svg">
<path d="M4.62973 19.6939C3.74867 18.109 3.74867 16.1814 4.62973 14.5965V14.5965C4.9233 14.0685 5.43027 13.6926 6.02086 13.5651L8.02566 13.1323C8.15301 13.1048 8.26653 13.0332 8.34615 12.9301L11.6189 8.69137C12.8076 7.15185 13.4019 6.38209 13.9436 6.56688C14.4853 6.75167 14.4853 7.72418 14.4853 9.66919L14.4853 24.6212C14.4853 26.5662 14.4853 27.5387 13.9436 27.7235C13.4019 27.9083 12.8076 27.1386 11.6189 25.599L8.34615 21.3603C8.26653 21.2572 8.15301 21.1856 8.02566 21.1581L6.02086 20.7253C5.43027 20.5978 4.9233 20.2219 4.62973 19.6939V19.6939Z" stroke="white" stroke-width="3"/>
<path d="M20.1653 12.3664C21.3337 13.6275 21.993 15.3358 21.9995 17.1192C22.006 18.9025 21.3592 20.6164 20.2001 21.8874" stroke="white" stroke-width="3" stroke-linecap="round"/>
<path d="M25.3278 9.49855C27.1972 11.5162 28.252 14.2496 28.2625 17.103C28.2729 19.9564 27.238 22.6986 25.3834 24.7321" stroke="white" stroke-width="3" stroke-linecap="round"/>
</svg>
