<svg width="17" height="17" viewBox="0 0 26 24" fill="none" xmlns="http://www.w3.org/2000/svg">
<g clip-path="url(#clip0_138_3117)">
<path d="M2.31963 16.9484H0.324196C0.279956 16.9546 0.234879 16.9504 0.192543 16.9361C0.150207 16.9218 0.111778 16.8979 0.0803049 16.8661C0.0488318 16.8344 0.0251811 16.7957 0.0112308 16.7533C-0.00271954 16.7108 -0.00658551 16.6656 -6.11967e-05 16.6214V10.6149C-0.0052679 10.5718 -0.000607342 10.5281 0.0135669 10.4872C0.0277412 10.4462 0.0510562 10.409 0.0817412 10.3784C0.112426 10.3478 0.149675 10.3246 0.190657 10.3106C0.231639 10.2965 0.275277 10.292 0.318258 10.2974H2.33744C2.30894 10.2653 2.29231 10.2463 2.27331 10.2273L0.924014 8.87662C0.762479 8.71374 0.762479 8.56036 0.924014 8.40104L5.16074 4.1589C5.18778 4.12496 5.2221 4.09755 5.26117 4.07871C5.30024 4.05988 5.34305 4.0501 5.38642 4.0501C5.42978 4.0501 5.47259 4.05988 5.51166 4.07871C5.55073 4.09755 5.58506 4.12496 5.61209 4.1589L6.97207 5.52142L7.04215 5.58801V3.58226C7.04215 3.35279 7.14548 3.24698 7.37234 3.24698C9.12072 3.24698 10.8683 3.24698 12.6151 3.24698C12.649 3.25042 12.6831 3.24337 12.7128 3.22678C12.7426 3.2102 12.7665 3.18488 12.7814 3.15424C13.3636 2.23618 14.1729 1.48425 15.1308 0.971342C15.9769 0.502952 16.9037 0.198795 17.8626 0.0748777C19.3404 -0.135332 20.8475 0.0649636 22.2193 0.653892C23.1622 1.04888 24.0023 1.65443 24.6756 2.42423C25.3085 3.13262 25.7353 4.00109 25.9097 4.93528C26.1131 6.02078 25.9401 7.14329 25.4191 8.11689C24.9169 9.06127 24.1739 9.85582 23.2657 10.4199C22.5165 10.9013 21.6882 11.2462 20.8189 11.4388L20.7334 11.459V16.5952C20.7355 16.6459 20.7315 16.6966 20.7215 16.7462C20.704 16.809 20.6651 16.8636 20.6115 16.9005C20.5578 16.9374 20.493 16.9544 20.4282 16.9484H18.3924L18.4601 17.0197L19.8046 18.3656C19.9733 18.5344 19.9744 18.6806 19.8046 18.8495L15.575 23.0857C15.548 23.1205 15.5134 23.1487 15.4739 23.168C15.4344 23.1874 15.391 23.1975 15.3469 23.1975C15.3029 23.1975 15.2595 23.1874 15.22 23.168C15.1805 23.1487 15.1459 23.1205 15.1189 23.0857L13.7589 21.7243L13.6912 21.6613V23.6683C13.6977 23.7131 13.6937 23.7589 13.6795 23.8019C13.6653 23.845 13.6413 23.8841 13.6094 23.9163C13.5775 23.9485 13.5386 23.9728 13.4957 23.9873C13.4528 24.0018 13.4071 24.0062 13.3622 24H7.36997C7.32578 24.0065 7.28067 24.0026 7.23823 23.9887C7.19579 23.9747 7.15719 23.951 7.12549 23.9195C7.09378 23.888 7.06985 23.8496 7.05559 23.8072C7.04133 23.7648 7.03714 23.7197 7.04334 23.6754V21.6613C7.01364 21.6887 6.99345 21.7041 6.97563 21.722L5.64178 23.0571C5.45649 23.2426 5.31634 23.245 5.13105 23.0571L1.68655 19.6092L0.92045 18.8423C0.885188 18.815 0.856644 18.78 0.837007 18.7399C0.81737 18.6998 0.80716 18.6557 0.80716 18.6111C0.80716 18.5664 0.81737 18.5224 0.837007 18.4823C0.856644 18.4422 0.885188 18.4072 0.92045 18.3798C1.3718 17.9265 1.82354 17.4747 2.27568 17.0244C2.29792 17.0074 2.3228 16.9942 2.34932 16.9852L2.31963 16.9484ZM19.238 18.5915C19.2166 18.5773 19.1963 18.5614 19.1775 18.5439C18.6287 17.9958 18.0824 17.4465 17.5324 16.8996C17.4825 16.8599 17.4466 16.8052 17.4301 16.7435C17.4137 16.6819 17.4175 16.6165 17.441 16.5572C17.4649 16.4982 17.5078 16.4489 17.5629 16.417C17.6179 16.3852 17.682 16.3726 17.745 16.3812C18.5206 16.3812 19.2891 16.3812 20.0707 16.3812H20.1597V11.5577C19.0387 11.7128 17.898 11.6404 16.8055 11.3449C17.4671 13.4315 17.2949 15.4229 16.1166 17.2706C14.9384 19.1182 13.2351 20.1787 11.0615 20.4082C10.1274 20.5063 9.18306 20.4097 8.28809 20.1244C7.39312 19.839 6.56691 19.3712 5.86154 18.7503C5.15617 18.1295 4.58694 17.3691 4.18974 16.5171C3.79254 15.6651 3.57597 14.74 3.55371 13.8C3.50501 11.8799 4.15471 10.2023 5.51351 8.8469C7.36997 6.9969 9.61127 6.44999 12.1531 7.02068C11.8841 5.95055 11.9816 4.82104 12.4298 3.81291H7.70611C7.69185 3.81291 7.67285 3.80697 7.66216 3.81291C7.64159 3.82349 7.62433 3.83953 7.61227 3.85928C7.60804 3.87927 7.60804 3.89993 7.61227 3.91992C7.61227 4.69035 7.61227 5.46555 7.61227 6.23241C7.61411 6.30006 7.599 6.36709 7.56833 6.4274C7.54461 6.46577 7.51207 6.49791 7.47342 6.52113C7.43477 6.54436 7.39113 6.55799 7.34615 6.5609C7.30117 6.56381 7.25614 6.55591 7.21483 6.53786C7.17352 6.5198 7.13712 6.49212 7.10866 6.45712C6.60426 5.95222 6.09947 5.44652 5.59427 4.94003C5.52657 4.87226 5.46362 4.80211 5.40542 4.7391L1.50245 8.64478L1.55471 8.69947L3.20451 10.3521C3.25473 10.3916 3.29039 10.4466 3.30588 10.5086C3.32136 10.5706 3.31579 10.636 3.29003 10.6945C3.2647 10.7515 3.22193 10.7988 3.1679 10.8298C3.11388 10.8608 3.05141 10.8738 2.98952 10.8669C2.21511 10.8669 1.44544 10.8669 0.663894 10.8669H0.574813V16.3848H0.669834C1.45296 16.3848 2.23609 16.3848 3.01922 16.3848C3.08885 16.3805 3.15754 16.4026 3.21167 16.4466C3.2658 16.4907 3.3014 16.5535 3.3114 16.6226C3.3168 16.6758 3.30875 16.7294 3.288 16.7787C3.26724 16.8279 3.23445 16.8711 3.19263 16.9044L1.59272 18.5071C1.56144 18.5366 1.52853 18.5644 1.49414 18.5903L5.41373 22.5079C5.4285 22.4815 5.44602 22.4568 5.466 22.4341C6.01474 21.8793 6.56467 21.3292 7.11579 20.7839C7.15828 20.7409 7.21101 20.7094 7.26901 20.6923C7.31194 20.6811 7.35694 20.6804 7.40021 20.6902C7.44348 20.7 7.48376 20.7201 7.51765 20.7488C7.55153 20.7775 7.57803 20.8139 7.59492 20.855C7.6118 20.896 7.61857 20.9406 7.61465 20.9848C7.61465 21.7711 7.61465 22.5574 7.61465 23.3437C7.61465 23.4103 7.6289 23.434 7.70135 23.434C9.4822 23.434 11.2638 23.434 13.0463 23.434H13.1294V23.3342C13.1294 22.559 13.1294 21.783 13.1294 21.0062C13.1292 20.9538 13.1389 20.9017 13.1579 20.8528C13.1785 20.8098 13.2095 20.7727 13.2481 20.7448C13.2867 20.7168 13.3317 20.699 13.379 20.693C13.4262 20.687 13.4742 20.6929 13.5186 20.7102C13.563 20.7276 13.6023 20.7557 13.633 20.7922L15.2816 22.4437L15.3422 22.5019L19.238 18.5915ZM18.8354 0.564722C18.656 0.580178 18.308 0.599203 17.9624 0.640816C17.2401 0.728957 16.5359 0.929533 15.8755 1.23529C14.8552 1.70492 13.9846 2.36478 13.361 3.31118C12.4892 4.63566 12.3205 6.04575 12.9275 7.52479C13.3432 8.53302 14.0582 9.2987 14.9586 9.89317C16.0071 10.5803 17.2182 10.9785 18.4696 11.0476C19.5301 11.1271 20.5955 10.9812 21.5957 10.6196C22.6575 10.2547 23.6013 9.60982 24.3276 8.75297C24.9629 8.0161 25.3455 7.09476 25.4191 6.12422C25.4767 5.3508 25.3236 4.57623 24.9761 3.88306C24.4941 2.92632 23.7431 2.13159 22.8156 1.59672C21.6432 0.890493 20.3628 0.580178 18.8354 0.564722ZM8.91405 14.9509C8.91405 14.7524 8.91405 14.5705 8.91405 14.3886C8.9096 14.3449 8.89223 14.3035 8.86417 14.2697C8.74539 14.121 8.62068 13.9843 8.52091 13.8274C8.25468 13.3897 8.10236 12.8922 8.07787 12.3804C8.07452 12.2852 8.04714 12.1923 7.99829 12.1105C7.8123 11.8309 7.68921 11.5142 7.63753 11.1822C7.58585 10.8503 7.60681 10.5111 7.69898 10.188C7.8537 9.66002 8.1622 9.19018 8.58505 8.83857C9.20862 8.29998 9.92127 7.97422 10.7598 7.97897C11.2117 7.97179 11.6502 8.13279 11.9903 8.43077C12.2696 8.6869 12.4713 9.0165 12.5723 9.38192C12.5823 9.42278 12.6019 9.46068 12.6294 9.49249C13.0213 9.84918 13.1484 10.2986 13.1235 10.8063C13.0899 11.2809 12.9645 11.7445 12.7541 12.1712C12.7397 12.203 12.7297 12.2366 12.7244 12.2711C12.6971 12.4767 12.684 12.6848 12.6436 12.8869C12.552 13.4083 12.3033 13.8891 11.931 14.2649C11.8888 14.3008 11.856 14.3464 11.8353 14.3977C11.8146 14.4491 11.8067 14.5047 11.8122 14.5598C11.8217 14.687 11.8122 14.8154 11.8122 14.9604C12.6662 14.8903 13.437 15.0722 14.0689 15.6643C14.7008 16.2564 14.9764 16.9935 14.9431 17.8579C14.9728 17.8356 14.9998 17.8101 15.0239 17.7818C16.0197 16.6728 16.5816 15.241 16.606 13.7501C16.6297 12.863 16.4586 11.9814 16.1047 11.1677C16.0866 11.1336 16.0572 11.1067 16.0216 11.0916C15.4688 10.8756 14.944 10.5938 14.4585 10.2522C13.5518 9.62774 12.8363 8.76333 12.3918 7.75545C12.3728 7.71945 12.341 7.69188 12.3027 7.67817C11.098 7.28102 9.80091 7.26177 8.585 7.623C7.36909 7.98422 6.29245 8.70869 5.49925 9.69937C4.3115 11.1784 3.89578 12.8691 4.21172 14.7345C4.39397 15.7855 4.84997 16.7698 5.5337 17.588C5.60853 17.6784 5.68692 17.7652 5.76412 17.8543C5.77763 17.7854 5.78321 17.7152 5.78075 17.6451C5.77313 17.2057 5.87954 16.7719 6.08957 16.386C6.58724 15.4895 7.34978 15.0056 8.376 14.9486C8.55535 14.945 8.72995 14.9533 8.91405 14.9533V14.9509ZM9.02095 10.5304C9.02095 10.5566 9.02095 10.5721 9.01383 10.5863C8.98515 11.1043 8.87034 11.6138 8.67413 12.0939C8.64878 12.1614 8.63785 12.2335 8.64206 12.3055C8.6529 12.4483 8.67353 12.5901 8.70382 12.73C8.78327 13.2104 9.02624 13.6485 9.39153 13.9701C9.682 14.2217 10.0555 14.3564 10.4395 14.348C10.8236 14.3397 11.1908 14.1889 11.4701 13.9249C11.8811 13.5432 12.064 13.0534 12.1412 12.5112C12.1786 12.1996 12.1726 11.8843 12.1234 11.5743C12.0937 11.2851 12.0133 11.0033 11.8858 10.7421C11.8704 10.7123 11.8514 10.685 11.8336 10.6565L11.7706 10.6862C11.2271 10.9703 10.5943 11.0308 10.0068 10.855C9.74073 10.7777 9.4818 10.6767 9.21931 10.5875C9.15161 10.5637 9.08747 10.5507 9.02095 10.5328V10.5304ZM12.5403 10.8312H12.5569C12.5569 10.7575 12.5569 10.6826 12.5569 10.6089C12.5562 10.4693 12.5244 10.3317 12.4638 10.206C12.4032 10.0803 12.3153 9.96978 12.2065 9.88247C12.1297 9.82374 12.0766 9.73935 12.0569 9.64468C11.9931 9.3329 11.8296 9.05037 11.5913 8.83976C11.2492 8.55561 10.8489 8.49735 10.4273 8.56512C9.70886 8.6746 9.06063 9.05805 8.6183 9.63517C8.44558 9.8345 8.31837 10.0691 8.24555 10.3227C8.17272 10.5763 8.15603 10.8428 8.19665 11.1035C8.21565 11.2141 8.25129 11.3223 8.2786 11.4317H8.29998C8.39449 11.1169 8.4429 10.7901 8.4437 10.4615C8.44096 10.357 8.47886 10.2556 8.54941 10.1785C8.62667 10.0882 8.72919 10.0232 8.84373 9.99185C8.95827 9.96048 9.07958 9.96421 9.19199 10.0026C9.42954 10.0668 9.66709 10.1535 9.90464 10.2403C10.191 10.3575 10.5011 10.4048 10.8092 10.3781C11.1174 10.3514 11.4148 10.2516 11.6768 10.087C11.7098 10.0599 11.7478 10.0397 11.7888 10.0276C11.8297 10.0155 11.8726 10.0117 11.915 10.0165C11.9574 10.0212 11.9984 10.0344 12.0356 10.0553C12.0729 10.0762 12.1055 10.1044 12.1317 10.1381C12.2929 10.3075 12.4146 10.5105 12.488 10.7326C12.513 10.7623 12.526 10.798 12.5403 10.8336V10.8312ZM8.34749 19.5521V19.4713C8.35462 19.0088 8.36294 18.5463 8.36769 18.085C8.36996 18.0376 8.36101 17.9903 8.34156 17.9471C7.99315 17.286 7.64355 16.6262 7.29277 15.9675C7.28191 15.9478 7.27002 15.9288 7.25713 15.9104C7.24169 15.9199 7.22981 15.9259 7.22031 15.933C6.96567 16.1174 6.7561 16.3573 6.60737 16.6345C6.45863 16.9116 6.37459 17.219 6.36156 17.5333C6.34731 17.8103 6.36156 18.0886 6.36156 18.3656C6.36221 18.3822 6.36636 18.3986 6.37372 18.4135C6.38109 18.4285 6.39152 18.4417 6.40432 18.4524C6.62287 18.6141 6.84498 18.7722 7.06709 18.9279C7.08558 18.9395 7.10506 18.9495 7.12529 18.9577V18.8578C7.12529 18.4488 7.12529 18.0386 7.12529 17.6296C7.12529 17.5539 7.15533 17.4814 7.20879 17.4278C7.26225 17.3743 7.33475 17.3443 7.41035 17.3443C7.48596 17.3443 7.55846 17.3743 7.61192 17.4278C7.66538 17.4814 7.69542 17.5539 7.69542 17.6296C7.69542 18.1551 7.69542 18.6806 7.69542 19.2062C7.69542 19.2335 7.70729 19.2787 7.7263 19.287C7.92703 19.3786 8.12895 19.4618 8.34749 19.5521ZM12.3918 19.5391C12.4298 19.5272 12.4536 19.5212 12.4761 19.5117C12.6424 19.4451 12.8063 19.375 12.9738 19.3108C12.9986 19.3038 13.0198 19.2876 13.033 19.2655C13.0463 19.2434 13.0506 19.2171 13.0451 19.1919C13.0451 18.6822 13.0451 18.1718 13.0451 17.6605C13.043 17.6129 13.0482 17.5651 13.0605 17.519C13.0807 17.4549 13.1232 17.4001 13.1803 17.3646C13.2373 17.3291 13.3052 17.3152 13.3716 17.3254C13.438 17.3356 13.4986 17.3692 13.5424 17.4202C13.5862 17.4712 13.6103 17.5362 13.6104 17.6035C13.6104 18.0259 13.6104 18.448 13.6104 18.8697V18.9589C13.6248 18.9533 13.6388 18.9465 13.652 18.9386C13.8824 18.7746 14.1117 18.6105 14.3397 18.4429C14.352 18.4315 14.3617 18.4177 14.3682 18.4023C14.3748 18.387 14.378 18.3704 14.3777 18.3537C14.3777 18.1159 14.3777 17.8781 14.3777 17.6403C14.3802 17.1789 14.2303 16.7296 13.9513 16.3622C13.8213 16.1865 13.6637 16.0332 13.4845 15.908C13.4691 15.9354 13.4548 15.9556 13.4442 15.9782C13.1021 16.6226 12.7612 17.2674 12.4215 17.9126C12.394 17.968 12.3797 18.0291 12.3799 18.0909C12.3799 18.3656 12.3871 18.6414 12.3894 18.9172C12.3859 19.1241 12.3859 19.3262 12.3859 19.5391H12.3918ZM11.3003 19.8149C11.4618 19.7816 11.6091 19.7483 11.7575 19.7233C11.8229 19.7126 11.8359 19.6841 11.8347 19.6235C11.8229 19.0825 11.8157 18.5427 11.8051 18.0018C11.8026 17.9084 11.8252 17.816 11.8704 17.7342C12.2267 17.0661 12.583 16.3975 12.9394 15.7285C12.9536 15.7023 12.9655 15.6762 12.9833 15.6429C12.8859 15.6156 12.7992 15.5882 12.7113 15.568C12.5712 15.5347 12.5712 15.5371 12.4987 15.6655L12.4488 15.7499C12.1503 16.2722 11.8518 16.7934 11.5533 17.3134C11.528 17.3708 11.4842 17.4181 11.4288 17.4474C11.3733 17.4768 11.3096 17.4865 11.248 17.4751C11.1951 17.4612 11.1434 17.4429 11.0936 17.4204C11.0525 17.5559 11.0352 17.6975 11.0425 17.8389C11.1173 18.3608 11.1815 18.884 11.2504 19.4071C11.2587 19.5391 11.2777 19.671 11.2967 19.8149H11.3003ZM9.43667 19.8149C9.44379 19.7721 9.45092 19.7424 9.45448 19.7126C9.53525 19.0992 9.61127 18.4857 9.69797 17.8745C9.71334 17.7201 9.69594 17.5641 9.6469 17.4168C9.4236 17.5297 9.29057 17.4905 9.1718 17.2777L8.89386 16.7914C8.66819 16.3951 8.44172 16.0012 8.21447 15.6096C8.20021 15.5846 8.1622 15.549 8.14201 15.5525C8.02324 15.5739 7.89734 15.606 7.76906 15.6358L7.81419 15.7249C8.17052 16.3955 8.52684 17.0672 8.88317 17.7366C8.92803 17.8188 8.94978 17.9117 8.94612 18.0053C8.93662 18.5554 8.9291 19.1059 8.92356 19.6568C8.92482 19.6697 8.92929 19.6821 8.93654 19.6929C8.9438 19.7037 8.95362 19.7125 8.96513 19.7186C9.11479 19.7519 9.27038 19.7804 9.4331 19.8137L9.43667 19.8149ZM10.3869 16.002C10.6636 15.719 10.9416 15.436 11.2183 15.1531C11.2337 15.14 11.2438 15.1219 11.2468 15.1019C11.2468 14.983 11.2468 14.8701 11.2468 14.7452C10.9675 14.8649 10.6661 14.9241 10.3623 14.919C10.0586 14.9139 9.7593 14.8445 9.48418 14.7155C9.48418 14.8344 9.48418 14.9533 9.48418 15.0651C9.48645 15.0986 9.49983 15.1304 9.52219 15.1554C9.62671 15.2684 9.73361 15.379 9.84407 15.4871C10.0222 15.6572 10.2028 15.8212 10.3857 16.0008L10.3869 16.002ZM10.723 19.872L10.4855 17.9804H10.2479L10.0104 19.872H10.723ZM9.93909 16.4074C9.92365 16.3896 9.91296 16.3753 9.90108 16.3634C9.6564 16.1125 9.40341 15.8688 9.16823 15.6084C9.06252 15.4895 8.9485 15.5276 8.81191 15.5204L9.52456 16.7569L9.93909 16.4074ZM11.9108 15.5192C11.857 15.5223 11.803 15.5223 11.7492 15.5192C11.7171 15.5157 11.6845 15.5204 11.6548 15.5331C11.625 15.5459 11.599 15.5661 11.5794 15.5918C11.3668 15.8141 11.1506 16.0317 10.9356 16.2516L10.7836 16.4098L11.2017 16.7581L11.9108 15.5192ZM10.3667 16.8045C10.3002 16.8604 10.2313 16.9151 10.1671 16.9745C10.1605 16.9825 10.1558 16.9919 10.1534 17.002C10.1509 17.0121 10.1507 17.0226 10.1529 17.0328C10.1683 17.1172 10.1861 17.2004 10.2075 17.2836C10.2455 17.4346 10.2075 17.4025 10.3655 17.4085C10.5235 17.4144 10.508 17.4085 10.5401 17.267C10.5603 17.1766 10.6114 17.0744 10.5852 16.9983C10.5591 16.9222 10.4558 16.8723 10.3857 16.8116L10.3667 16.8045Z" fill="#1C4481" stroke="#1C4481" stroke-width="0.3"/>
<path d="M15.3925 6.31924C15.3925 5.99585 15.3925 5.67246 15.3925 5.34907C15.3925 5.28962 15.3735 5.26703 15.3176 5.25039C14.7586 5.09186 14.1996 4.92937 13.6405 4.76292C13.5993 4.75546 13.5603 4.73905 13.5262 4.71485C13.492 4.69066 13.4636 4.65926 13.4428 4.62288C13.4221 4.58649 13.4096 4.546 13.4062 4.50426C13.4028 4.46252 13.4086 4.42053 13.4232 4.38127C13.4414 4.33392 13.4714 4.29198 13.5102 4.25934C13.5491 4.2267 13.5955 4.20443 13.6453 4.19461L15.6846 3.60013C16.7528 3.28863 17.8218 2.97832 18.8916 2.66919C18.9639 2.64901 19.0403 2.64901 19.1125 2.66919C20.8656 3.17647 22.618 3.68732 24.3695 4.20174C24.5857 4.26475 24.6748 4.48352 24.5453 4.64878C24.498 4.70467 24.4358 4.74591 24.366 4.76767C23.8117 4.93413 23.255 5.09662 22.696 5.25514C22.6823 5.25664 22.6691 5.26101 22.6572 5.26799C22.6453 5.27497 22.6351 5.28438 22.6271 5.29562C22.6192 5.30685 22.6137 5.31965 22.611 5.33317C22.6083 5.34668 22.6085 5.36061 22.6116 5.37404C22.6116 5.98277 22.6045 6.5927 22.6116 7.20144C22.6177 7.38704 22.5621 7.56942 22.4536 7.72001C22.3451 7.87061 22.1897 7.98093 22.0118 8.0337C21.1139 8.32856 20.2151 8.62144 19.3156 8.91233C19.2431 8.93997 19.1689 8.963 19.0935 8.98129C19.035 8.99613 18.9738 8.99613 18.9153 8.98129C17.9414 8.6682 16.9686 8.35115 15.997 8.03013C15.845 7.98873 15.7082 7.90435 15.6029 7.78712C15.4976 7.66988 15.4282 7.52474 15.4031 7.36908C15.3956 7.31394 15.3928 7.25825 15.3948 7.20263L15.3925 6.31924ZM14.7178 4.47876L14.7831 4.50373L18.951 5.71526C18.9868 5.72474 19.0244 5.72474 19.0603 5.71526L22.7922 4.62857L23.2875 4.48233L23.1901 4.44904C21.8234 4.05272 20.4563 3.65641 19.0888 3.2601C19.0312 3.24466 18.9706 3.24466 18.913 3.2601L15.0646 4.38008L14.7178 4.47876ZM22.0427 5.44418C22.0106 5.45251 21.9857 5.45726 21.9631 5.4644C21.0921 5.71724 20.2235 5.9697 19.3572 6.22175C19.3458 6.22333 19.3348 6.2272 19.3249 6.23313C19.3151 6.23906 19.3065 6.24692 19.2997 6.25625C19.293 6.26557 19.2881 6.27617 19.2856 6.2874C19.283 6.29864 19.2827 6.31028 19.2847 6.32162C19.2847 6.95573 19.2847 7.59221 19.2847 8.23107C19.2847 8.25484 19.2847 8.27862 19.2847 8.30835C19.3097 8.30121 19.3275 8.29765 19.3429 8.2917L21.1555 7.70317C21.3776 7.63065 21.6009 7.55931 21.823 7.48322C21.8897 7.47072 21.9491 7.43303 21.9889 7.37793C22.0287 7.32284 22.0458 7.25455 22.0368 7.18717V5.44418H22.0427ZM18.7111 8.31072C18.7111 8.28932 18.7111 8.27981 18.7111 8.2703C18.7111 7.61281 18.7111 6.95652 18.7111 6.29903C18.7111 6.24315 18.6814 6.23483 18.641 6.22294L16.2096 5.50958L15.9531 5.43705V7.14199C15.9531 7.35957 16.0006 7.42496 16.2096 7.49273L18.0138 8.08126L18.7111 8.31072Z" fill="#1C4481" stroke="#1C4481" stroke-width="0.5"/>
</g>
<defs>
<clipPath id="clip0_138_3117">
<rect width="26" height="24" fill="white"/>
</clipPath>
</defs>
</svg>
