<svg width="130" height="144" viewBox="0 0 130 144" fill="none" xmlns="http://www.w3.org/2000/svg">
<path d="M37.2143 37.2462C35.7977 40.6704 38.9834 44.2822 42.5661 44.6998C48.4336 60.1732 62.2475 62.9264 70.616 54.9967C74.9799 50.8558 74.8851 43.5744 74.5903 38.0732C79.316 36.2191 78.1288 29.1808 74.7174 28.0109C75.1722 18.7083 69.1088 11.2074 61.2716 10.2086C56.3722 9.58866 50.93 12.1797 48.1955 16.331C41.3463 16.0124 34.8289 23.7022 39.1955 35.2033C38.2977 35.6058 37.5886 36.337 37.2143 37.2462ZM50.9602 52.6728C47.6428 49.6638 45.3221 45.1722 43.6613 38.5842C43.6577 38.5684 43.6654 38.5538 43.6657 38.5389C44.5327 38.8609 45.7079 38.9626 47.261 38.4309C49.1636 37.7784 50.0834 36.1378 53.7024 31.5786C56.6071 36.182 61.2975 35.0933 63.6029 30.248C63.7372 29.9364 63.8988 29.6373 64.0857 29.3541C64.1996 29.2172 64.327 29.0921 64.466 28.9806C64.7979 29.1704 67.3211 33.6822 70.1032 33.8494C70.3299 33.8614 70.557 33.8617 70.7837 33.8503C70.8225 33.9372 70.8706 34.0197 70.9271 34.0963C71.53 37.9181 72.0221 41.95 71.3195 45.8514C70.5624 50.0553 68.3154 53.5592 65.3107 55.2346C60.6262 57.8569 54.5411 55.9279 50.9602 52.6728ZM42.3072 22.2012C43.8064 20.0639 46.4439 18.8513 48.7024 19.2347C48.9962 19.2836 49.298 19.2405 49.5663 19.1111C49.8346 18.9818 50.0562 18.7726 50.2008 18.5124C52.1513 14.925 56.8693 12.5056 60.9152 13.0239C68.8039 14.0294 73.4775 22.7579 71.4239 30.8775C71.0611 31.0134 70.6709 31.0598 70.2864 31.0128C70.2864 31.0128 69.4344 30.9016 67.4855 28.2567C66.7744 27.2118 66.3303 26.6136 65.4111 26.298C63.9583 25.8001 62.5417 26.6366 61.7821 27.6937C61.1491 28.5777 61.0503 29.1545 60.6223 29.8197C59.9409 30.8792 58.8508 31.8496 57.9686 31.6548C57.3829 31.5195 56.6314 30.8792 56.1101 30.0493C55.87 29.6729 55.5436 29.3591 55.1578 29.134C54.7721 28.9088 54.3381 28.7788 53.8919 28.7548C53.4457 28.7307 53.0002 28.8133 52.5922 28.9956C52.1843 29.1779 51.8257 29.4548 51.5461 29.8032C47.6545 34.6004 47.1669 35.4492 46.3422 35.7307C45.4346 36.046 44.7692 36.0306 44.3626 35.7009C43.4816 34.9794 42.0006 33.3187 41.4819 32.468C41.4077 32.3609 41.3185 32.265 41.217 32.1833C40.0051 27.7864 40.7482 24.4243 42.309 22.2008L42.3072 22.2012Z" fill="white" fill-opacity="0.64"/>
<path d="M34.5793 93.5017C34.4154 94.6087 35.2682 95.804 36.8055 95.6546L38.5891 97.9255C46.2149 96.8174 55.2536 95.1229 64.4996 93.2036L62.6682 100.325L49.7971 105.028C49.548 105.119 49.3294 105.278 49.1659 105.487C49.0024 105.695 48.9005 105.946 48.8719 106.209C48.8433 106.472 48.889 106.739 49.0039 106.977C49.1187 107.216 49.2982 107.418 49.522 107.56L61.0818 114.907L61.5708 128.59C61.5808 128.855 61.6647 129.112 61.813 129.332C61.9612 129.551 62.1679 129.725 62.4098 129.834C62.6517 129.942 62.9192 129.981 63.1821 129.946C63.4449 129.91 63.6927 129.803 63.8976 129.634L74.47 120.915C88.0794 124.727 87.689 124.839 88.3547 124.686C88.5645 124.639 88.7608 124.545 88.9284 124.41C89.096 124.276 89.2304 124.105 89.3212 123.91C89.6483 123.517 89.9395 123.095 90.1915 122.65C90.9311 121.393 91.5973 120.509 91.1436 119.264L87.9887 110.62C89.6448 107.949 91.3948 105.221 93.2712 102.818C93.5861 102.424 93.7929 101.956 93.871 101.458C93.9491 100.96 93.896 100.451 93.7167 99.9802C93.3982 99.1556 92.6032 97.9951 92.1236 97.4033C92.0224 97.1163 91.8299 96.8705 91.5755 96.7033C91.3212 96.5361 91.0189 96.4569 90.7151 96.4777L80.8712 97.088C79.2329 95.1605 77.4402 92.971 75.7319 90.8028C80.7514 89.6737 85.7301 88.6001 94.9002 86.4064C96.8116 85.9532 99.2161 83.9019 99.6442 81.9474C99.7031 81.8656 99.7977 81.8106 99.8393 81.718C99.9828 81.4357 100.061 81.1247 100.067 80.8082C100.074 80.4917 100.009 80.1779 99.8767 79.8901C97.1479 73.9257 93.7956 69.015 86.3008 64.4226C79.3183 60.145 68.1275 58.5429 59.0268 62.3129C46.4657 67.5692 37.2403 78.4697 34.5793 93.5017ZM81.5474 109.081C81.4188 109.272 81.3385 109.492 81.3134 109.721C81.2883 109.95 81.3192 110.181 81.4034 110.396L85.6497 121.147C74.1407 117.931 74.085 117.543 73.2296 118.247L64.3075 125.61L63.8914 114.058C63.8825 113.828 63.818 113.605 63.7034 113.406C63.5889 113.207 63.4277 113.039 63.2338 112.916L53.4746 106.713L64.3396 102.743C64.5553 102.663 64.7485 102.532 64.9025 102.362C65.0565 102.191 65.1669 101.985 65.2241 101.763L68.1151 90.5716L75.2468 99.6672C75.389 99.8488 75.5732 99.9931 75.7837 100.088C75.9941 100.182 76.2244 100.224 76.4548 100.21L88.0009 99.4922L81.5474 109.081ZM73.1806 63.2188C73.5468 68.8459 64.3812 71.6075 59.7055 70.4634C57.7893 69.9924 56.2016 68.7773 55.5045 67.2859C61.5087 63.7588 66.4543 62.5008 73.1806 63.2188ZM53.0888 68.8207C54.2126 70.9475 56.3822 72.5795 59.0271 73.2289C63.2881 74.2741 69.8505 72.7135 73.111 69.7511C74.9395 68.0905 76.0086 65.8191 76.0576 63.6228C79.3822 64.2529 82.3169 65.3271 84.8038 66.8513C91.3807 70.8839 94.4039 75.0205 96.9095 80.2862C88.403 82.6972 79.8414 84.755 71.8732 86.5383C70.581 85.9364 69.1296 85.7644 67.7319 86.0474C67.3785 85.9792 67.0122 86.0474 66.707 86.2384C66.4018 86.4294 66.1805 86.729 66.0877 87.0766L65.8938 87.8432C55.635 90.0226 45.3178 91.9068 37.6306 92.7225C39.7416 82.3622 45.4033 73.9728 53.0888 68.8207Z" fill="white" fill-opacity="0.64"/>
<path d="M112.115 95.0401C111.426 94.7551 110.702 94.5616 109.962 94.4644C109.777 94.3179 109.558 94.2197 109.326 94.1785C109.093 94.1373 108.854 94.1545 108.63 94.2285C108.405 94.3025 108.203 94.431 108.04 94.6024C107.878 94.7739 107.76 94.9829 107.699 95.2108L105.52 103.64L97.3304 106.626C97.0808 106.717 96.8615 106.876 96.6973 107.085C96.5332 107.293 96.4308 107.544 96.4016 107.808C96.3725 108.071 96.4178 108.338 96.5325 108.577C96.6471 108.817 96.8265 109.019 97.0504 109.162L104.407 113.828L104.72 122.53C104.731 122.795 104.815 123.051 104.964 123.27C105.112 123.489 105.318 123.663 105.56 123.771C105.802 123.88 106.069 123.919 106.332 123.884C106.594 123.849 106.842 123.741 107.047 123.574L113.769 118.028C122.529 120.451 122.215 120.581 122.856 120.434C123.136 120.371 123.391 120.223 123.585 120.011C123.779 119.799 123.903 119.532 123.94 119.247C124.043 119.112 124.148 118.981 124.248 118.838C124.493 118.488 124.651 118.084 124.707 117.66C124.763 117.236 124.717 116.805 124.571 116.403L122.506 110.743C123.564 108.981 124.716 107.276 125.957 105.637C126.163 105.379 126.299 105.072 126.35 104.746C126.401 104.42 126.366 104.087 126.248 103.778C126.105 103.405 125.762 102.538 125.754 102.518C125.77 102.316 125.743 102.113 125.673 101.922C125.604 101.732 125.495 101.559 125.353 101.414C125.21 101.27 125.039 101.158 124.849 101.086C124.66 101.013 124.457 100.983 124.255 100.996L117.444 101.418C112.589 95.6536 112.903 95.3876 112.115 95.0401ZM117.89 109.471C117.761 109.662 117.681 109.882 117.656 110.111C117.631 110.34 117.662 110.571 117.746 110.786L120.161 116.9L113.831 115.097C112.774 114.798 112.57 115.403 107.458 119.555L107.222 112.985C107.213 112.756 107.148 112.532 107.034 112.333C106.919 112.134 106.758 111.966 106.564 111.843L101.014 108.314L107.194 106.054C107.41 105.975 107.603 105.844 107.757 105.674C107.911 105.503 108.022 105.298 108.079 105.075L109.723 98.7101L113.777 103.876C113.92 104.057 114.104 104.201 114.315 104.295C114.525 104.39 114.755 104.432 114.985 104.419L121.548 104.011L117.89 109.471Z" fill="white" fill-opacity="0.64"/>
<path d="M34.7463 113.125L32.5846 121.515L24.4407 124.491C24.1915 124.583 23.9727 124.742 23.8091 124.951C23.6455 125.159 23.5435 125.41 23.5148 125.673C23.486 125.937 23.5316 126.203 23.6463 126.442C23.7611 126.681 23.9405 126.884 24.1642 127.026L31.4813 131.674L31.7928 140.335C31.8031 140.6 31.8871 140.857 32.0354 141.076C32.1836 141.296 32.3903 141.47 32.632 141.578C32.8738 141.687 33.1411 141.726 33.404 141.691C33.6668 141.656 33.9148 141.549 34.1199 141.381L40.8042 135.862C49.5317 138.284 49.2116 138.403 49.858 138.255C50.1401 138.192 50.3957 138.043 50.5899 137.829C50.7841 137.614 50.9072 137.346 50.9425 137.059C51.0417 136.927 51.1439 136.8 51.2428 136.659C51.4864 136.31 51.6428 135.908 51.6988 135.486C51.7548 135.064 51.7089 134.635 51.5648 134.234L49.5067 128.598C50.5644 126.843 51.7142 125.146 52.9512 123.512C53.9091 122.287 52.9248 121.132 52.7535 120.417C52.7713 120.215 52.745 120.01 52.6764 119.819C52.6078 119.627 52.4986 119.453 52.3562 119.307C52.2138 119.162 52.0416 119.049 51.8514 118.976C51.6612 118.904 51.4575 118.873 51.2543 118.886L44.4692 119.307C39.6363 113.552 39.949 113.302 39.1568 112.952C38.4735 112.67 37.7564 112.478 37.0235 112.381C36.8405 112.226 36.6205 112.12 36.3848 112.074C36.149 112.027 35.9053 112.042 35.6769 112.117C35.4485 112.192 35.243 112.323 35.0801 112.5C34.9172 112.677 34.8022 112.892 34.7463 113.125ZM44.8957 127.325C44.7672 127.516 44.687 127.735 44.6619 127.964C44.6367 128.192 44.6674 128.424 44.7513 128.638L47.153 134.716C40.9624 133.013 40.8166 132.756 40.1562 132.907C39.566 133.043 39.7566 133.108 34.5207 137.357L34.2838 130.826C34.2754 130.597 34.211 130.373 34.0964 130.174C33.9819 129.975 33.8205 129.807 33.6262 129.684L28.1112 126.178L34.2526 123.935C34.4681 123.855 34.6611 123.724 34.8151 123.554C34.9692 123.383 35.0798 123.178 35.1374 122.956L36.77 116.629L40.8024 121.771C40.9447 121.952 41.129 122.096 41.3393 122.191C41.5497 122.285 41.7798 122.327 42.01 122.313L48.536 121.907L44.8957 127.325Z" fill="white" fill-opacity="0.64"/>
</svg>
