<svg width="130" height="144" viewBox="0 0 130 144" fill="none" xmlns="http://www.w3.org/2000/svg">
<path d="M37.2143 37.2463C35.7977 40.6706 38.9834 44.2823 42.5661 44.6999C48.4336 60.1733 62.2475 62.9265 70.616 54.9968C74.9799 50.856 74.8851 43.5745 74.5903 38.0733C79.316 36.2192 78.1288 29.1809 74.7174 28.011C75.1722 18.7085 69.1088 11.2076 61.2716 10.2087C56.3722 9.58878 50.93 12.1798 48.1955 16.3311C41.3463 16.0125 34.8289 23.7023 39.1955 35.2034C38.2977 35.6059 37.5886 36.3371 37.2143 37.2463ZM50.9602 52.6729C47.6428 49.664 45.3221 45.1723 43.6613 38.5844C43.6577 38.5686 43.6654 38.5539 43.6657 38.539C44.5327 38.861 45.7079 38.9627 47.261 38.431C49.1636 37.7786 50.0834 36.138 53.7024 31.5787C56.6071 36.1821 61.2975 35.0934 63.6029 30.2481C63.7372 29.9365 63.8988 29.6374 64.0857 29.3542C64.1996 29.2173 64.327 29.0922 64.466 28.9807C64.7979 29.1706 67.3211 33.6823 70.1032 33.8495C70.3299 33.8616 70.557 33.8618 70.7837 33.8504C70.8225 33.9373 70.8706 34.0198 70.9271 34.0964C71.53 37.9182 72.0221 41.9501 71.3195 45.8515C70.5624 50.0554 68.3154 53.5593 65.3107 55.2348C60.6262 57.857 54.5411 55.928 50.9602 52.6729ZM42.3072 22.2014C43.8064 20.064 46.4439 18.8514 48.7024 19.2348C48.9962 19.2838 49.298 19.2406 49.5663 19.1112C49.8346 18.9819 50.0562 18.7727 50.2008 18.5125C52.1513 14.9251 56.8693 12.5057 60.9152 13.024C68.8039 14.0295 73.4775 22.758 71.4239 30.8776C71.0611 31.0135 70.6709 31.0599 70.2864 31.0129C70.2864 31.0129 69.4344 30.9017 67.4855 28.2568C66.7744 27.2119 66.3303 26.6138 65.4111 26.2982C63.9583 25.8002 62.5417 26.6367 61.7821 27.6938C61.1491 28.5778 61.0503 29.1546 60.6223 29.8198C59.9409 30.8793 58.8508 31.8497 57.9686 31.6549C57.3829 31.5196 56.6314 30.8793 56.1101 30.0495C55.87 29.673 55.5436 29.3592 55.1578 29.1341C54.7721 28.909 54.3381 28.7789 53.8919 28.7549C53.4457 28.7308 53.0002 28.8134 52.5922 28.9957C52.1843 29.178 51.8257 29.4549 51.5461 29.8033C47.6545 34.6006 47.1669 35.4493 46.3422 35.7308C45.4346 36.0461 44.7692 36.0307 44.3626 35.701C43.4816 34.9795 42.0006 33.3188 41.4819 32.4681C41.4077 32.361 41.3185 32.2651 41.217 32.1835C40.0051 27.7866 40.7482 24.4244 42.309 22.201L42.3072 22.2014Z" fill="#1C4481" fill-opacity="0.21"/>
<path d="M34.5793 93.5019C34.4154 94.609 35.2682 95.8042 36.8055 95.6548L38.5891 97.9258C46.2149 96.8177 55.2536 95.1232 64.4996 93.2038L62.6682 100.325L49.7971 105.028C49.548 105.119 49.3294 105.278 49.1659 105.487C49.0024 105.696 48.9005 105.946 48.8719 106.209C48.8433 106.473 48.889 106.739 49.0039 106.978C49.1187 107.217 49.2982 107.418 49.522 107.561L61.0818 114.907L61.5708 128.591C61.5808 128.855 61.6647 129.112 61.813 129.332C61.9612 129.551 62.1679 129.725 62.4098 129.834C62.6517 129.942 62.9192 129.981 63.1821 129.946C63.4449 129.911 63.6927 129.803 63.8976 129.634L74.47 120.915C88.0794 124.727 87.689 124.839 88.3547 124.686C88.5645 124.639 88.7608 124.545 88.9284 124.411C89.096 124.276 89.2304 124.105 89.3212 123.91C89.6483 123.517 89.9395 123.095 90.1915 122.651C90.9311 121.393 91.5973 120.509 91.1436 119.265L87.9887 110.62C89.6448 107.95 91.3948 105.221 93.2712 102.818C93.5861 102.425 93.7929 101.956 93.871 101.458C93.9491 100.961 93.896 100.451 93.7167 99.9804C93.3982 99.1558 92.6032 97.9954 92.1236 97.4035C92.0224 97.1166 91.8299 96.8707 91.5755 96.7035C91.3212 96.5364 91.0189 96.4571 90.7151 96.478L80.8712 97.0882C79.2329 95.1607 77.4402 92.9712 75.7319 90.8031C80.7514 89.6739 85.7301 88.6004 94.9002 86.4066C96.8116 85.9534 99.2161 83.9021 99.6442 81.9477C99.7031 81.8658 99.7977 81.8109 99.8393 81.7182C99.9828 81.4359 100.061 81.125 100.067 80.8085C100.074 80.492 100.009 80.1781 99.8767 79.8903C97.1479 73.926 93.7956 69.0152 86.3008 64.4229C79.3183 60.1453 68.1275 58.5432 59.0268 62.3132C46.4657 67.5695 37.2403 78.47 34.5793 93.5019ZM81.5474 109.081C81.4188 109.272 81.3385 109.492 81.3134 109.721C81.2883 109.95 81.3192 110.182 81.4034 110.396L85.6497 121.147C74.1407 117.932 74.085 117.544 73.2296 118.248L64.3075 125.61L63.8914 114.058C63.8825 113.829 63.818 113.605 63.7034 113.406C63.5889 113.207 63.4277 113.039 63.2338 112.916L53.4746 106.713L64.3396 102.744C64.5553 102.664 64.7485 102.533 64.9025 102.362C65.0565 102.191 65.1669 101.986 65.2241 101.763L68.1151 90.5719L75.2468 99.6674C75.389 99.849 75.5732 99.9933 75.7837 100.088C75.9941 100.183 76.2244 100.225 76.4548 100.21L88.0009 99.4924L81.5474 109.081ZM73.1806 63.2191C73.5468 68.8461 64.3812 71.6077 59.7055 70.4637C57.7893 69.9926 56.2016 68.7775 55.5045 67.2861C61.5087 63.7591 66.4543 62.501 73.1806 63.2191ZM53.0888 68.821C54.2126 70.9478 56.3822 72.5798 59.0271 73.2291C63.2881 74.2743 69.8505 72.7138 73.111 69.7513C74.9395 68.0907 76.0086 65.8193 76.0576 63.623C79.3822 64.2532 82.3169 65.3274 84.8038 66.8515C91.3807 70.8842 94.4039 75.0208 96.9095 80.2864C88.403 82.6974 79.8414 84.7553 71.8732 86.5385C70.581 85.9367 69.1296 85.7646 67.7319 86.0477C67.3785 85.9794 67.0122 86.0477 66.707 86.2387C66.4018 86.4297 66.1805 86.7292 66.0877 87.0768L65.8938 87.8435C55.635 90.0228 45.3178 91.9071 37.6306 92.7227C39.7416 82.3624 45.4033 73.9731 53.0888 68.821Z" fill="#1C4481" fill-opacity="0.21"/>
<path d="M112.115 95.0402C111.426 94.7552 110.702 94.5617 109.962 94.4645C109.777 94.318 109.558 94.2198 109.326 94.1786C109.093 94.1374 108.854 94.1546 108.63 94.2286C108.405 94.3026 108.203 94.4311 108.04 94.6025C107.878 94.774 107.76 94.983 107.699 95.2109L105.52 103.64L97.3304 106.627C97.0808 106.717 96.8615 106.876 96.6973 107.085C96.5332 107.293 96.4308 107.544 96.4016 107.808C96.3725 108.071 96.4178 108.338 96.5325 108.578C96.6471 108.817 96.8265 109.019 97.0504 109.162L104.407 113.829L104.72 122.53C104.731 122.795 104.815 123.051 104.964 123.27C105.112 123.489 105.318 123.663 105.56 123.771C105.802 123.88 106.069 123.919 106.332 123.884C106.594 123.849 106.842 123.742 107.047 123.574L113.769 118.028C122.529 120.452 122.215 120.581 122.856 120.434C123.136 120.371 123.391 120.223 123.585 120.011C123.779 119.799 123.903 119.532 123.94 119.247C124.043 119.112 124.148 118.981 124.248 118.838C124.493 118.488 124.651 118.084 124.707 117.66C124.763 117.236 124.717 116.805 124.571 116.403L122.506 110.743C123.564 108.981 124.716 107.276 125.957 105.637C126.163 105.379 126.299 105.072 126.35 104.746C126.401 104.42 126.366 104.087 126.248 103.779C126.105 103.405 125.762 102.538 125.754 102.518C125.77 102.316 125.743 102.113 125.673 101.922C125.604 101.732 125.495 101.559 125.353 101.414C125.21 101.27 125.039 101.158 124.849 101.086C124.66 101.014 124.457 100.983 124.255 100.996L117.444 101.418C112.589 95.6537 112.903 95.3877 112.115 95.0402ZM117.89 109.471C117.761 109.662 117.681 109.882 117.656 110.111C117.631 110.34 117.662 110.571 117.746 110.786L120.161 116.9L113.831 115.097C112.774 114.798 112.57 115.403 107.458 119.555L107.222 112.985C107.213 112.756 107.148 112.532 107.034 112.333C106.919 112.134 106.758 111.966 106.564 111.843L101.014 108.314L107.194 106.054C107.41 105.975 107.603 105.844 107.757 105.674C107.911 105.503 108.022 105.298 108.079 105.076L109.723 98.7103L113.777 103.876C113.92 104.057 114.104 104.201 114.315 104.295C114.525 104.39 114.755 104.432 114.985 104.419L121.548 104.011L117.89 109.471Z" fill="#1C4481" fill-opacity="0.21"/>
<path d="M34.7463 113.125L32.5846 121.515L24.4407 124.492C24.1915 124.583 23.9727 124.742 23.8091 124.951C23.6455 125.16 23.5435 125.41 23.5148 125.674C23.486 125.937 23.5316 126.204 23.6463 126.443C23.7611 126.682 23.9405 126.884 24.1642 127.026L31.4813 131.674L31.7928 140.336C31.8031 140.6 31.8871 140.857 32.0354 141.076C32.1836 141.296 32.3903 141.47 32.632 141.578C32.8738 141.687 33.1411 141.726 33.404 141.691C33.6668 141.656 33.9148 141.549 34.1199 141.381L40.8042 135.862C49.5317 138.284 49.2116 138.404 49.858 138.255C50.1401 138.192 50.3957 138.043 50.5899 137.829C50.7841 137.615 50.9072 137.346 50.9425 137.059C51.0417 136.927 51.1439 136.8 51.2428 136.659C51.4864 136.31 51.6428 135.908 51.6988 135.486C51.7548 135.064 51.7089 134.635 51.5648 134.234L49.5067 128.598C50.5644 126.843 51.7142 125.146 52.9512 123.512C53.9091 122.288 52.9248 121.132 52.7535 120.417C52.7713 120.215 52.745 120.011 52.6764 119.819C52.6078 119.627 52.4986 119.453 52.3562 119.308C52.2138 119.162 52.0416 119.049 51.8514 118.977C51.6612 118.904 51.4575 118.873 51.2543 118.887L44.4692 119.307C39.6363 113.552 39.949 113.303 39.1568 112.952C38.4735 112.671 37.7564 112.479 37.0235 112.381C36.8405 112.226 36.6205 112.12 36.3848 112.074C36.149 112.028 35.9053 112.042 35.6769 112.117C35.4485 112.192 35.243 112.324 35.0801 112.5C34.9172 112.677 34.8022 112.892 34.7463 113.125ZM44.8957 127.325C44.7672 127.516 44.687 127.735 44.6619 127.964C44.6367 128.192 44.6674 128.424 44.7513 128.638L47.153 134.716C40.9624 133.013 40.8166 132.756 40.1562 132.908C39.566 133.043 39.7566 133.108 34.5207 137.357L34.2838 130.826C34.2754 130.597 34.211 130.373 34.0964 130.174C33.9819 129.975 33.8205 129.807 33.6262 129.684L28.1112 126.178L34.2526 123.935C34.4681 123.855 34.6611 123.724 34.8151 123.554C34.9692 123.384 35.0798 123.178 35.1374 122.956L36.77 116.629L40.8024 121.771C40.9447 121.953 41.129 122.097 41.3393 122.191C41.5497 122.285 41.7798 122.327 42.01 122.313L48.536 121.907L44.8957 127.325Z" fill="#1C4481" fill-opacity="0.21"/>
</svg>
