<svg width="17" height="17" viewBox="0 0 24 25" fill="none" xmlns="http://www.w3.org/2000/svg">
<path d="M12.398 18.009L12.8585 18.8967L12.8585 18.8967L12.398 18.009ZM11.602 18.009L11.1415 18.8967L11.1415 18.8967L11.602 18.009ZM18 9.20508C18 11.3509 16.9079 13.121 15.545 14.4957C14.183 15.8695 12.6342 16.76 11.9376 17.1214L12.8585 18.8967C13.6448 18.4889 15.397 17.4856 16.9653 15.9038C18.5326 14.3229 20 12.0756 20 9.20508H18ZM12 3.20508C15.3137 3.20508 18 5.89137 18 9.20508H20C20 4.7868 16.4183 1.20508 12 1.20508V3.20508ZM6 9.20508C6 5.89137 8.68629 3.20508 12 3.20508V1.20508C7.58172 1.20508 4 4.7868 4 9.20508H6ZM12.0624 17.1214C11.3658 16.76 9.81702 15.8695 8.45503 14.4957C7.09211 13.121 6 11.3509 6 9.20508H4C4 12.0756 5.46741 14.3229 7.03474 15.9038C8.60299 17.4856 10.3552 18.4889 11.1415 18.8967L12.0624 17.1214ZM11.9376 17.1214C11.9514 17.1142 11.9733 17.1074 12 17.1074C12.0267 17.1074 12.0486 17.1142 12.0624 17.1214L11.1415 18.8967C11.6831 19.1776 12.3169 19.1776 12.8585 18.8967L11.9376 17.1214ZM14 9.20508C14 10.3096 13.1046 11.2051 12 11.2051V13.2051C14.2091 13.2051 16 11.4142 16 9.20508H14ZM12 7.20508C13.1046 7.20508 14 8.10051 14 9.20508H16C16 6.99594 14.2091 5.20508 12 5.20508V7.20508ZM10 9.20508C10 8.10051 10.8954 7.20508 12 7.20508V5.20508C9.79086 5.20508 8 6.99594 8 9.20508H10ZM12 11.2051C10.8954 11.2051 10 10.3096 10 9.20508H8C8 11.4142 9.79086 13.2051 12 13.2051V11.2051Z" fill="#1C4481"/>
<path d="M19.7942 17.7051C20.5841 18.1611 21 18.6785 21 19.2051C21 19.7317 20.5841 20.249 19.7942 20.7051C19.0043 21.1611 17.8682 21.5398 16.5 21.8032C15.1318 22.0665 13.5798 22.2051 12 22.2051C10.4202 22.2051 8.86817 22.0665 7.5 21.8032C6.13183 21.5398 4.99569 21.1611 4.20577 20.7051C3.41586 20.249 3 19.7317 3 19.2051C3 18.6785 3.41586 18.1611 4.20577 17.7051" stroke="#1C4481" stroke-width="2" stroke-linecap="round"/>
</svg>
