<svg width="87" height="87" viewBox="0 0 87 87" fill="none" xmlns="http://www.w3.org/2000/svg">
<g clip-path="url(#clip0_294_2268)">
<path d="M45.9402 79.9699C42.2378 78.4723 38.5276 76.9938 34.8394 75.4797C31.9303 74.2807 30.9657 72.2569 31.7924 69.2497C32.9686 64.9805 34.7939 63.4502 39.2075 63.0969C41.167 62.939 43.1264 62.8121 45.0858 62.716C46.6659 62.6349 47.3048 61.7869 46.9569 60.3318C46.4927 58.3767 46.5741 56.3787 45.2551 54.5086C44.0037 52.74 44.4641 50.4164 45.9255 48.739C47.0163 47.4178 47.8744 45.9224 48.4641 44.3154C50.9512 38.1667 57.239 35.449 63.1809 37.9304C69.0274 40.3696 71.5809 46.6895 69.1577 52.7266C68.5369 54.2614 67.9805 55.7665 67.9051 57.4996C67.7865 60.1732 65.711 62.0997 63.133 62.6014C61.0677 63.0024 59.8097 64.7139 58.3209 65.9866C57.6106 66.5941 58.1303 67.5135 58.6883 68.1439C59.985 69.6152 61.3397 71.0356 62.641 72.5051C66.5235 76.901 65.4382 78.556 62.9734 83.3807C62.0903 85.1101 59.6868 85.5043 57.5426 84.6556C53.658 83.1177 49.8049 81.5294 45.9402 79.9699ZM46.8966 77.6055C50.6473 79.1226 54.3948 80.6385 58.1455 82.1556C59.0534 82.5229 59.9331 82.719 60.7349 81.9963C62.586 80.3281 62.8864 76.7515 61.2641 74.8255C59.858 73.143 58.2869 71.609 56.8802 69.9187C56.1865 69.0774 55.6906 69.0996 54.9004 69.7193C53.4104 70.8839 51.8688 71.9906 50.3086 73.06C48.8986 74.0267 48.0789 73.6915 47.733 72.0182C47.375 70.2174 47.0531 68.4016 46.7968 66.59C46.6482 65.5311 46.2151 65.0923 45.1026 65.2215C43.4467 65.4348 41.7778 65.5387 40.1067 65.5324C37.0827 65.4602 35.2628 66.7179 34.4612 69.6721C33.8954 71.7563 34.0295 72.3786 36.1325 73.2367C39.7358 74.7202 43.3294 76.1626 46.9159 77.6133L46.8966 77.6055ZM61.051 51.9203C60.8773 52.5072 60.8076 52.7166 60.7604 52.9166C60.5679 53.7075 60.4326 54.5698 59.3833 54.6355C58.4332 54.6967 58.182 53.9008 57.8341 53.2329C57.3073 52.2104 56.7638 51.1923 56.2506 50.1642C54.9252 47.5043 54.9439 47.523 52.4068 49.1552C51.5194 49.7282 50.7245 50.7581 49.5029 50.3605C48.7244 50.1087 48.0406 49.743 47.6541 50.7265C47.2675 51.71 46.7892 52.9757 47.7427 53.6101C49.2233 54.5803 49.0845 55.8496 49.1144 57.2206C49.1903 59.8949 49.9447 62.1975 52.7302 63.3502C55.7011 64.5816 57.8734 63.2029 59.8471 61.2686C60.7676 60.3637 61.5327 59.5928 63.0932 59.8564C64.3948 60.0747 64.779 58.7079 65.1695 57.6963C65.5967 56.6401 64.6518 56.67 64.073 56.3877C63.4941 56.1053 63.2157 55.4691 62.8818 54.9331C62.3389 54.034 61.7896 53.1138 61.0704 51.9281L61.051 51.9203ZM58.6246 48.7408C58.9506 47.7588 59.0094 46.7059 60.1526 46.7599C61.2167 46.7967 61.4974 47.7605 61.9387 48.4662C62.894 49.9665 63.7591 51.5417 64.699 53.0617C65.0296 53.5964 65.5534 54.3392 66.063 53.3201C67.1197 51.2079 67.9703 49.0124 67.4202 46.5474C66.9716 44.561 65.8453 42.7862 64.2328 41.5247C62.6202 40.2632 60.6212 39.5931 58.5756 39.6282C54.2794 39.6726 51.0708 42.6222 50.2194 47.5241C51.6403 46.6137 52.9369 45.7978 54.2045 44.9517C55.3251 44.2094 56.13 44.4793 56.7481 45.6279C57.2852 46.5877 57.6058 47.6567 58.6439 48.7486L58.6246 48.7408ZM54.522 66.8299C54.4944 66.6851 54.4636 66.539 54.4328 66.3928C52.5005 66.3538 50.8955 65.4224 48.9789 64.1868L49.8203 69.0345C49.9396 69.6657 50.1976 70.0188 50.8459 69.5459C52.0975 68.6561 53.3174 67.7424 54.5413 66.8377L54.522 66.8299Z" fill="#1C4481" fill-opacity="0.35"/>
<path d="M35.3056 39.754C39.0915 30.3944 42.8774 21.0348 46.6633 11.6752C47.5668 9.44161 47.8554 9.32075 50.1496 10.2339C51.3312 10.7118 52.5095 11.1885 53.6911 11.6664C56.6884 12.8788 56.7611 13.0418 55.5892 15.9391C52.9649 22.427 50.3405 28.9149 47.7162 35.4028L38.0364 59.3337C37.8634 59.7612 37.6918 60.1856 37.5201 60.61C37.1278 61.5058 36.7417 62.6825 35.4829 62.1362C34.2241 61.5899 34.8073 60.4817 35.1699 59.5851C40.9546 45.284 46.7393 30.9829 52.524 16.6819C53.3719 14.5855 51.9216 12.7254 49.5834 12.8934C49.382 12.9081 49.19 12.982 49.0318 13.1058C48.8736 13.2297 48.7564 13.3978 48.6953 13.5886C48.5043 14.0052 48.3326 14.4296 48.1597 14.8571C41.1489 32.1895 34.1364 49.526 27.1221 66.8669C26.2187 69.1004 26.2109 69.1196 28.3537 70.1385C29.1392 70.512 29.895 70.9588 29.4988 71.9383C29.1026 72.9179 28.2389 72.8025 27.4308 72.4942C22.3819 70.5559 22.7276 70.8405 24.4577 66.5725C28.0853 57.6291 31.7012 48.6896 35.3056 39.754Z" fill="#1C4481" fill-opacity="0.35"/>
<path d="M17.1208 45.4417C14.7796 51.2298 12.4375 57.02 10.0945 62.8123C9.26464 64.864 8.94764 64.9808 6.84079 64.1509C5.71396 63.6951 4.58714 63.2393 3.46354 62.7848C0.060533 61.4083 0.0335376 61.3454 1.36807 58.0461L14.1326 26.4893C14.4333 25.7459 14.734 25.0024 15.036 24.2558C15.8432 22.3806 16.3194 22.1759 18.2022 22.9115C19.8119 23.5626 21.401 24.2648 23.0391 24.8457C24.5859 25.3934 24.9208 26.2417 24.2961 27.749C21.864 33.6228 19.5046 39.5483 17.1208 45.4417ZM10.3877 42.5734C8.28133 47.7807 6.23165 53.0147 4.02808 58.1939C3.35378 59.7776 3.89758 60.3688 5.30975 60.8138C6.54225 61.2121 7.65327 62.133 8.46124 60.0985C12.6108 49.6483 16.8239 39.2326 21.1006 28.8511C21.9311 26.8443 20.5476 26.6894 19.3617 26.1206C18.0411 25.4862 17.2192 25.499 16.6016 27.1093C14.6144 32.2906 12.4708 37.4235 10.3864 42.5766L10.3877 42.5734Z" fill="#1C4481" fill-opacity="0.35"/>
<path d="M26.2732 55.8789C24.7244 59.7078 23.1756 63.5368 21.6359 67.3434C20.8021 69.4046 20.3209 69.5849 18.2204 68.7576C16.6654 68.1286 15.1336 67.4422 13.5618 66.8732C11.99 66.3043 11.6468 65.3561 12.2063 63.9265C12.8551 62.2731 13.5099 60.6233 14.1708 58.9773C16.5748 53.0339 18.9793 47.0895 21.3842 41.144C22.3896 38.6584 22.7955 38.507 25.2449 39.4903C26.7452 40.0972 28.221 40.7647 29.7522 41.3135C31.3382 41.8659 31.5964 42.802 30.9956 44.2595C29.3889 48.1207 27.84 52.0053 26.2732 55.8789ZM23.8656 55.0053C25.1975 51.7124 26.4941 48.4052 27.8859 45.1217C28.3828 43.9489 28.1392 43.2823 26.9086 42.9071C26.4143 42.7443 25.9314 42.5489 25.463 42.3224C24.5449 41.9064 23.936 42.1242 23.5546 43.0764C20.8262 49.8217 18.0978 56.567 15.3693 63.3123C14.9821 64.2695 15.2522 64.8429 16.2162 65.1734C16.7116 65.333 17.1947 65.5284 17.6617 65.7581C18.7852 66.3425 19.4147 66.0551 19.8962 64.8649C21.1631 61.5754 22.5336 58.2982 23.8656 55.0053Z" fill="#1C4481" fill-opacity="0.35"/>
<path d="M52.4648 29.8683C53.345 27.6922 54.2265 25.5129 55.1067 23.3368C55.6424 22.0126 56.4735 21.6248 57.8321 22.2115C59.635 22.9964 61.4624 23.7207 63.3053 24.4253C64.5287 24.9202 64.8315 25.6813 64.3378 26.8739C63.2021 29.6261 62.1037 32.3971 60.9821 35.1699C60.6608 35.9644 60.1726 36.6989 59.1759 36.2549C58.1792 35.8109 58.3615 34.9527 58.6622 34.1721C59.4425 32.1412 60.2337 30.1111 61.1144 28.1097C61.6139 26.9491 61.3477 26.2548 60.1423 25.8823C59.7544 25.7662 59.3782 25.614 59.0187 25.4278C57.8346 24.8078 57.1497 25.1025 56.6599 26.3784C55.3485 29.8058 53.9321 33.187 52.5524 36.598C52.3807 37.0224 52.209 37.4467 52.0168 37.8665C51.6974 38.5541 51.2108 39.0256 50.3904 38.7569C49.4722 38.4337 49.409 37.673 49.6923 36.9077C50.2519 35.4039 50.8694 33.9235 51.4702 32.4289C51.8136 31.5801 52.1569 30.7314 52.5028 29.8763L52.4648 29.8683Z" fill="#1C4481" fill-opacity="0.35"/>
</g>
<defs>
<clipPath id="clip0_294_2268">
<rect width="66.8742" height="66.2433" fill="white" transform="translate(24.8398) rotate(22.023)"/>
</clipPath>
</defs>
</svg>
