<svg width="24" height="26" viewBox="0 0 24 26" fill="none" xmlns="http://www.w3.org/2000/svg">
<g clip-path="url(#clip0_6_565)">
<path d="M13.6991 2.00094C12.3003 1.97537 10.9859 2.4744 9.99995 3.40334C9.00512 4.33985 8.43004 5.63714 8.42414 6.96284C8.41726 8.31032 8.95891 9.57637 9.94785 10.529C10.9201 11.4645 12.2039 11.9749 13.5733 11.9702C13.6018 11.9702 13.6303 11.9702 13.6588 11.9702C14.9997 11.9702 16.2688 11.4598 17.241 10.5271C18.2369 9.57258 18.7972 8.26676 18.7785 6.9458C18.7412 4.22243 16.5097 2.05018 13.6991 2.00094ZM16.8645 6.94201C16.894 7.77626 16.5765 8.56978 15.97 9.17582C15.3546 9.79037 14.4974 10.1445 13.6185 10.1464H13.6107C11.8038 10.1464 10.3578 8.79042 10.3185 7.05754C10.2988 6.18542 10.6379 5.36916 11.273 4.75839C11.8972 4.15899 12.7308 3.83135 13.6284 3.83135C13.6579 3.83135 13.6873 3.83135 13.7168 3.8323C15.444 3.87301 16.8862 5.29057 16.8655 6.92591V6.93349V6.94106L16.8645 6.94201Z" fill="white"/>
<path d="M9.74151 17.8544C9.74544 18.0684 9.70612 18.2777 9.64419 18.4813C9.61667 18.5712 9.64124 18.6214 9.72283 18.6631C9.94992 18.7786 10.1318 18.9472 10.3048 19.1261C10.4287 19.2549 10.4867 19.4074 10.4758 19.5778C10.4483 19.9926 10.4139 20.4073 10.3795 20.8221C10.3697 20.9405 10.3058 21.0361 10.2262 21.1232C10.0236 21.3429 9.76805 21.4878 9.49084 21.5976C9.40531 21.6317 9.38467 21.6686 9.40138 21.7558C9.44955 22.0133 9.4407 22.2718 9.3827 22.5285C9.34829 22.6838 9.27162 22.8163 9.13399 22.9082C8.77518 23.1477 8.41735 23.3883 8.05559 23.6231C7.91207 23.7159 7.74495 23.7178 7.58177 23.6875C7.33207 23.642 7.09221 23.5644 6.87398 23.4366C6.8032 23.3949 6.75503 23.394 6.69506 23.4574C6.52795 23.6373 6.32839 23.7803 6.10917 23.8977C5.92337 23.9971 5.73266 24.0322 5.52229 23.9649C5.20477 23.8636 4.88823 23.7557 4.56284 23.6837C4.20403 23.6042 4.00251 23.3892 3.87668 23.0767C3.81377 22.9214 3.76756 22.7642 3.74594 22.5995C3.73414 22.5086 3.69187 22.4716 3.59455 22.4707C3.33306 22.4688 3.09123 22.3912 2.85038 22.3002C2.58988 22.2018 2.50337 21.9792 2.41981 21.7586C2.30578 21.4594 2.18191 21.1649 2.05609 20.8704C1.98039 20.6933 1.98137 20.521 2.06493 20.3458C2.17503 20.1157 2.30774 19.9007 2.49256 19.7189C2.54564 19.6668 2.54564 19.6318 2.50042 19.5712C2.34412 19.3581 2.22419 19.1271 2.16127 18.8705C2.12195 18.7104 2.13768 18.558 2.22124 18.4141C2.43554 18.0476 2.64984 17.6821 2.86611 17.3166C2.93099 17.2067 3.0293 17.1348 3.15513 17.094C3.43333 17.0041 3.71644 16.9605 4.00939 16.9861C4.09393 16.9937 4.1421 16.9738 4.16963 16.8857C4.23451 16.6783 4.3279 16.4833 4.45274 16.3005C4.59528 16.0931 4.7801 15.9748 5.03962 15.9435C5.41121 15.8981 5.77788 15.8157 6.15046 15.775C6.34707 15.7541 6.52303 15.793 6.68032 15.9085C6.87594 16.0524 7.05387 16.2153 7.18658 16.416C7.24852 16.5098 7.30848 16.5136 7.40875 16.4747C7.63977 16.3848 7.88061 16.3289 8.13424 16.328C8.3279 16.328 8.49698 16.3867 8.63755 16.5098C8.94623 16.7787 9.25097 17.0505 9.55473 17.3241C9.69531 17.451 9.74348 17.5997 9.74151 17.8525V17.8544ZM3.94156 21.2823C4.07722 21.2662 4.2001 21.3259 4.30824 21.4149C4.4262 21.5124 4.53139 21.6232 4.65427 21.7132C4.8961 21.8893 5.02389 22.1033 4.95311 22.4035C4.92952 22.5048 4.97572 22.5692 5.08779 22.6052C5.22345 22.6497 5.36304 22.679 5.49673 22.7235C5.71104 22.7945 5.72972 22.7927 5.83097 22.6042C5.92829 22.4205 6.0787 22.3059 6.29005 22.269C6.43456 22.2444 6.58103 22.2283 6.72455 22.1999C7.02635 22.1402 7.29177 22.1762 7.48543 22.4385C7.5395 22.5114 7.61126 22.5133 7.68794 22.4593C7.81573 22.3684 7.94648 22.2813 8.07525 22.1914C8.24729 22.072 8.25319 22.0559 8.16471 21.8732C8.07722 21.6904 8.06248 21.5115 8.17258 21.3325C8.25122 21.2037 8.3279 21.074 8.40163 20.9433C8.54122 20.6971 8.73094 20.5267 9.04159 20.5191C9.14677 20.5162 9.19691 20.4556 9.2028 20.3496C9.21067 20.1886 9.23131 20.0286 9.24409 19.8685C9.25491 19.7435 9.2087 19.6858 9.07992 19.6649C8.8381 19.6261 8.67098 19.4992 8.57759 19.2814C8.50681 19.1138 8.438 18.9462 8.36722 18.7786C8.29841 18.6129 8.29742 18.4481 8.38393 18.2891C8.41342 18.2332 8.45176 18.1821 8.48813 18.13C8.53532 18.0637 8.52745 18.0069 8.46651 17.9529C8.34657 17.8468 8.22861 17.7379 8.10868 17.6309C7.96024 17.4984 7.91698 17.4917 7.76855 17.6177C7.60536 17.7559 7.42251 17.7825 7.22001 17.7389C7.00472 17.6925 6.79632 17.6234 6.58889 17.5514C6.467 17.5088 6.36968 17.4349 6.29693 17.3279C6.2468 17.2541 6.22025 17.1726 6.18683 17.0921C6.15734 17.0221 6.11802 16.9681 6.02365 16.9823C5.85849 17.0079 5.69236 17.0249 5.52819 17.0524C5.34633 17.0827 5.31291 17.1177 5.32372 17.2948C5.33748 17.5145 5.23131 17.6726 5.06125 17.7976C4.93542 17.8904 4.79779 17.9699 4.67098 18.0618C4.43996 18.2275 4.19715 18.2824 3.92583 18.1612C3.83048 18.1186 3.76068 18.1499 3.70956 18.2332C3.63682 18.3516 3.56309 18.469 3.49231 18.5883C3.37336 18.7881 3.3714 18.7928 3.55817 18.9453C3.67614 19.0419 3.74495 19.1545 3.77641 19.3004C3.8118 19.4642 3.76461 19.6204 3.76265 19.7805C3.7597 20.1072 3.68105 20.3969 3.33404 20.5484C3.28489 20.5702 3.25147 20.6185 3.27506 20.6772C3.35075 20.8675 3.42645 21.0588 3.50804 21.2473C3.53655 21.3126 3.59553 21.3344 3.67024 21.3173C3.7538 21.2984 3.83638 21.2747 3.93665 21.2814L3.94156 21.2823Z" fill="white"/>
<path d="M21.9961 21.2406C21.9912 21.1488 21.9873 21.0664 21.9843 20.9897C21.9774 20.8249 21.9715 20.6829 21.9509 20.5352C21.8064 19.4642 21.5656 18.6016 21.194 17.8203C20.8538 17.1054 20.4213 16.4634 19.9091 15.9132C19.3026 15.2617 18.5535 14.7343 17.6835 14.3451C17.0406 14.0572 16.4193 13.866 15.7843 13.7609C15.22 13.6671 14.6567 13.6122 14.1121 13.5989C13.1419 13.5753 11.9976 13.5904 10.8681 13.8915C10.4631 13.9995 9.93419 14.1538 9.43087 14.3962C8.93247 14.6358 8.73783 15.1519 8.95705 15.6509C9.0524 15.8678 9.25688 16.0534 9.5046 16.1471C9.75233 16.2418 10.0187 16.2371 10.2547 16.1367C10.3038 16.1159 10.3549 16.0979 10.4051 16.0799C10.4591 16.0609 10.5132 16.0411 10.5663 16.0202C11.2918 15.7267 12.0989 15.5591 12.9629 15.5231C13.4938 15.5013 13.9204 15.506 14.3048 15.5392C14.8238 15.5827 15.3606 15.6291 15.8669 15.7598C17.2549 16.1197 18.2674 16.8157 18.9615 17.8885C19.3714 18.522 19.6614 19.2351 19.8452 20.0693C19.9317 20.4594 19.9819 20.8666 19.9986 21.3117C20.0123 21.6677 20.209 21.9783 20.5255 22.1431C20.672 22.2188 20.8312 22.2567 20.9915 22.2567C21.1704 22.2567 21.3493 22.2094 21.5115 22.1147C21.8438 21.9205 22.0325 21.5797 21.9971 21.2425L21.9961 21.2406Z" fill="white"/>
<path d="M6.18775 21.609C5.2578 21.6223 4.43794 20.8448 4.42811 19.932C4.41631 18.9529 5.21454 18.2408 6.09338 18.1896C7.09805 18.1309 7.97492 18.9027 7.98279 19.8808C7.99065 20.8391 7.16391 21.6223 6.18775 21.608V21.609ZM5.652 19.8941C5.6225 20.1905 5.87121 20.4452 6.22904 20.4395C6.52887 20.4348 6.7766 20.1924 6.77463 19.8988C6.77266 19.5977 6.51707 19.3581 6.19955 19.3591C5.87318 19.36 5.65003 19.5788 5.65298 19.8941H5.652Z" fill="white"/>
</g>
<defs>
<clipPath id="clip0_6_565">
<rect width="20" height="22" fill="white" transform="translate(2 2)"/>
</clipPath>
</defs>
</svg>
