<svg width="27" height="32" viewBox="0 0 27 32" fill="none" xmlns="http://www.w3.org/2000/svg">
<path fill-rule="evenodd" clip-rule="evenodd" d="M21.8439 1.51117C22.5707 0.220513 24.2401 -0.219774 25.5693 0.527784C26.9003 1.27534 27.3905 2.92903 26.6637 4.21853L26.2508 4.95272L21.431 2.24537L21.8439 1.51117ZM10.2246 14.1673H10.2243H10.2243H10.2243H10.2243H10.2242H10.2242H10.2242H10.2242C9.79148 14.1682 9.37323 14.169 8.95398 14.161C8.90177 14.161 8.84804 14.1078 8.79926 14.0595L8.79925 14.0595C8.78772 14.0481 8.77647 14.0369 8.76558 14.0268C8.7484 14.0112 8.74118 13.9851 8.73389 13.9588C8.73033 13.9459 8.72674 13.9329 8.72197 13.9211C8.59029 13.5866 8.52386 13.4179 8.39998 13.3328C8.27389 13.2461 8.08827 13.2461 7.71371 13.2461C7.61403 13.2461 7.51435 13.2468 7.41467 13.2475H7.4146C7.16542 13.2491 6.91625 13.2508 6.66708 13.2421C6.51357 13.2369 6.44728 13.2967 6.39611 13.4326C6.37272 13.4949 6.35211 13.5628 6.33131 13.6314C6.27144 13.8287 6.20993 14.0314 6.07572 14.1215C5.94721 14.2078 5.74735 14.1928 5.54895 14.178C5.46817 14.172 5.38764 14.166 5.31226 14.1668C5.10349 14.1691 4.89498 14.1684 4.67624 14.1676C4.56295 14.1672 4.44691 14.1668 4.32668 14.1668C4.34189 14.1243 4.35501 14.086 4.36714 14.0505L4.36715 14.0505L4.36716 14.0505C4.39117 13.9803 4.41127 13.9215 4.436 13.8648C4.64371 13.3905 4.85189 12.9164 5.06008 12.4423C5.54308 11.3424 6.02607 10.2425 6.5031 9.14009C6.57985 8.96177 6.66417 8.88801 6.86361 8.89556C7.06841 8.9031 7.27362 8.90204 7.47891 8.90098C7.70026 8.89984 7.9217 8.89869 8.14283 8.90834C8.23994 8.9124 8.38356 8.99198 8.42077 9.07504C9.02214 10.4285 9.61489 11.7862 10.2077 13.1441L10.2077 13.1441L10.2078 13.1442L10.2078 13.1443L10.2078 13.1444L10.2079 13.1444L10.2079 13.1445L10.2079 13.1446L10.5978 14.0373C10.6048 14.0539 10.6093 14.0715 10.6168 14.1015C10.6211 14.1186 10.6264 14.1396 10.6338 14.1668C10.4959 14.1668 10.3599 14.1671 10.2253 14.1673H10.2251H10.2248H10.2246ZM7.96607 11.9596L7.46484 10.673L6.9706 11.9572L7.96607 11.9596ZM19.7378 25.6985H11.6863V23.9489H12.0038C12.5882 23.9489 13.1727 23.9492 13.7572 23.9495H13.7573H13.7574H13.7574H13.7575H13.7576C15.6415 23.9505 17.5257 23.9514 19.4099 23.9426C19.6878 23.9426 19.7529 24.0291 19.7431 24.2864C19.73 24.6104 19.7327 24.935 19.7355 25.2682V25.2682V25.2683V25.2683V25.2684V25.2685V25.2685V25.2686V25.2687V25.2689V25.2691V25.2692V25.2694C19.7366 25.4107 19.7378 25.5535 19.7378 25.6985ZM11.6805 19.0222V20.7304H19.7146V19.0222H11.6805ZM5.61462 18.6905L6.47228 19.4357L8.57719 17.4248L9.77675 18.7027L6.51241 21.801L4.46042 20.0061L5.61462 18.6905ZM8.60277 22.3876L6.49612 24.4119L5.61346 23.6469L4.461 24.9643L6.48101 26.7301L9.78082 23.6161L9.6036 23.4312L9.59902 23.4264C9.25003 23.0622 8.92132 22.7192 8.60277 22.3876ZM10.7106 10.8949H11.916V9.7163H13.2795V10.878H14.5064V12.178H13.2987V13.3501H11.9258V12.1884H10.7106V10.8949ZM24.0773 10.5905L22.3213 13.7114V30.077H1.75951V3.86188H16.9904C18.9214 3.86188 19.0627 3.86885 19.0627 3.86885C19.2075 3.60747 19.9047 2.22039 19.9535 2.09667H0V31.8364H24.0726C24.0738 24.7542 24.0754 17.6722 24.0773 10.5905ZM15.9432 17.6269L14.9966 13.6742L21.1339 2.7722L25.9537 5.48014L19.8163 16.3816L15.9432 17.6269Z" fill="white"/>
</svg>
