<svg width="117" height="116" viewBox="0 0 117 116" fill="none" xmlns="http://www.w3.org/2000/svg">
<path d="M102.09 64.6915C99.5026 65.2109 95.4321 67.8768 93.9161 68.8577C87.8893 72.7286 87.7967 72.6342 75.7152 76.0918C68.6701 78.1074 68.9192 78.2746 61.4925 79.1892C59.7541 79.3681 58.0029 79.389 56.2604 79.2516C61.1756 76.1457 66.0394 70.7832 66.1344 70.6396C66.3752 70.4539 68.6239 67.9289 70.8851 65.7212C72.6214 64.0171 73.4964 62.3369 73.4802 60.7272C73.4598 57.8763 70.2885 55.0192 65.7811 55.9025C61.2737 56.7858 58.0599 60.2798 54.4649 62.2836C45.6822 67.1922 40.6119 66.7321 33.7006 69.585C31.0082 70.7096 28.2608 71.9449 25.4763 72.6039C25.177 71.703 24.8697 70.8039 24.5219 69.9135C23.6318 67.6436 20.9616 66.2063 18.1752 66.4998C13.3374 67.0101 11.4485 67.5616 9.22592 68.0217C7.23625 68.4337 5.66424 68.757 4.90971 69.937C4.53171 70.5268 4.43521 71.2316 4.62242 72.0275C6.62837 80.5624 6.66472 90.2715 8.32891 96.5603C8.36842 96.7097 8.43703 96.85 8.53084 96.973C8.62464 97.096 8.74183 97.1994 8.87565 97.2773C9.00947 97.3552 9.15731 97.406 9.31077 97.4269C9.46424 97.4477 9.62031 97.4382 9.77005 97.3989C9.91979 97.3596 10.0603 97.2912 10.1835 97.1977C10.3067 97.1041 10.4103 96.9873 10.4882 96.8538C10.5662 96.7203 10.617 96.5728 10.6378 96.4197C10.6586 96.2665 10.6489 96.1108 10.6094 95.9613C9.03029 89.9801 8.94723 80.1248 6.91864 71.4928C6.88642 71.4002 6.87953 71.3006 6.89866 71.2045C7.18675 70.7545 9.52608 70.3987 11.3111 69.9804C13.6565 69.4546 16.0324 69.0738 18.4251 68.8402C20.1462 68.6564 21.822 69.4887 22.3238 70.7683C25.6634 79.2958 26.7131 88.3558 25.3625 96.9715C25.329 97.1554 25.2322 97.3217 25.0889 97.442C24.9456 97.5623 24.7648 97.629 24.5775 97.6306C20.1474 97.7096 15.4067 97.9755 10.9186 98.0967C10.763 98.0996 10.6096 98.1331 10.4671 98.1955C10.3246 98.2578 10.1959 98.3476 10.0885 98.4599C9.98101 98.5721 9.89691 98.7044 9.84098 98.8493C9.78504 98.9942 9.75837 99.1487 9.76257 99.3039C9.76676 99.4591 9.80171 99.612 9.86539 99.7537C9.92907 99.8954 10.0203 100.023 10.1336 100.13C10.247 100.236 10.3803 100.319 10.526 100.374C10.6716 100.429 10.8267 100.454 10.9822 100.449C11.2722 100.441 11.574 100.427 11.8657 100.418C12.9992 101.091 14.2284 102.584 16.5967 102.575C20.3591 102.56 23.9216 102.255 27.6455 102C28.8823 101.916 29.8185 101.122 29.8135 100.118C29.8043 97.7952 29.7584 95.4173 29.7612 93.1149C59.2794 103.674 87.4722 96.424 103.858 78.5555C105.193 77.1041 106.474 75.5327 107.098 73.611C107.509 72.3472 107.751 70.4005 107.071 68.9466C107.626 66.2159 105.324 64.0379 102.09 64.6915ZM50.5181 91.5046C50.5722 91.502 50.6265 91.5059 50.6797 91.5163L50.5181 91.5046ZM70.9986 60.1252C70.1051 61.0042 68.471 62.2278 67.5768 62.5982C66.868 62.8949 65.8489 62.8549 65.4367 62.2789C65.1737 61.9104 65.1559 61.2979 65.3909 60.7521C65.6756 60.0918 66.8471 58.799 67.6281 58.1272C69.5159 58.2124 70.6452 59.154 71.0016 60.1257L70.9986 60.1252ZM34.6067 71.7623C42.0617 68.682 48.8688 69.3803 59.3133 61.8896C60.7562 60.8535 62.1506 59.8565 63.6045 59.1374C62.0234 61.5902 63.0679 64.6237 65.941 65.0726C66.8015 65.2021 67.6809 65.0965 68.4857 64.7669L68.5251 64.7474C67.4498 65.8214 64.5808 68.832 64.4696 68.9821C63.4337 69.8042 59.4418 74.9679 53.1421 78.3494C53.0031 78.4227 52.8808 78.5238 52.7826 78.6464C52.3382 78.5176 51.9212 78.3082 51.5528 78.0287C51.3137 77.8272 51.0043 77.7287 50.6926 77.7549C50.3809 77.781 50.0925 77.9297 49.8908 78.1681C49.6891 78.4066 49.5906 78.7153 49.617 79.0263C49.6434 79.3374 49.7926 79.6253 50.0317 79.8268C53.9225 83.1027 66.1992 81.319 71.0922 79.8742C88.6818 74.6649 87.806 75.5753 95.1912 70.8316C97.1533 69.5703 102.561 65.9633 104.236 67.1486C104.699 67.4804 104.779 67.7903 104.797 68.0239C104.931 69.7396 101.979 72.6287 101.01 73.5788C96.7977 77.3061 93.5075 80.9405 84.4949 85.5296C73.4717 91.0615 63.8857 91.4215 65.1369 91.3318C60.2658 91.9199 55.5575 91.8437 50.6824 91.4986C50.6286 91.4944 50.5746 91.4941 50.5208 91.4975L50.5224 91.4872C42.5312 90.8846 35.7463 89.7144 28.7225 88.5732C28.5839 88.4824 28.4264 88.4243 28.262 88.4032C28.1521 83.8174 27.4513 79.2644 26.1771 74.8563C29.0947 74.1487 31.7961 72.9364 34.6096 71.7627L34.6067 71.7623Z" fill="#ffffff" fill-opacity="0.21"/>
<path d="M19.5644 76.0023C21.8039 74.4462 20.0192 71.1553 18.4088 71.5888C16.7949 70.9895 15.2212 71.7306 14.7677 73.1326C13.9284 75.736 17.4807 77.4424 19.5644 76.0023Z" fill="#ffffff" fill-opacity="0.21"/>
<path d="M69.2223 23.6642C69.1259 23.5432 69.0065 23.4423 68.8711 23.3673C68.7357 23.2924 68.5868 23.2447 68.4329 23.2271C68.2791 23.2095 68.1233 23.2223 67.9745 23.2648C67.8256 23.3073 67.6867 23.3787 67.5655 23.4748C67.4443 23.5709 67.3433 23.6899 67.2682 23.825C67.1932 23.9601 67.1455 24.1086 67.128 24.2621C67.1105 24.4156 67.1234 24.5711 67.1661 24.7196C67.2088 24.8682 67.2804 25.007 67.3768 25.1279L71.8999 30.804C72.0905 31.0443 72.3676 31.201 72.6721 31.2407C72.9766 31.2804 73.2845 31.1999 73.5303 31.0165C77.2132 28.2756 81.1103 25.8334 85.1841 23.7133C85.4504 23.563 85.6478 23.3154 85.7345 23.0226C85.8213 22.7299 85.7907 22.4148 85.6492 22.144C85.5077 21.8731 85.2664 21.6676 84.9762 21.5707C84.6859 21.4739 84.3694 21.4933 84.0933 21.6248C80.2477 23.6281 76.5548 25.9105 73.0445 28.4536L69.2223 23.6642Z" fill="#ffffff" fill-opacity="0.21"/>
<path d="M70.9141 39.9808C76.452 40.8461 82.1351 37.8586 84.4244 32.8862C84.489 32.7458 84.5253 32.594 84.5312 32.4395C84.537 32.2851 84.5123 32.131 84.4585 31.986C84.4047 31.8411 84.3228 31.7081 84.2175 31.5946C84.1122 31.4812 83.9855 31.3896 83.8448 31.325C83.704 31.2604 83.5519 31.2241 83.3972 31.2182C83.2424 31.2122 83.088 31.2368 82.9427 31.2904C82.7975 31.344 82.6643 31.4256 82.5507 31.5306C82.4371 31.6356 82.3454 31.7619 82.2807 31.9024C80.4211 35.9444 75.7914 38.366 71.2752 37.6604C62.0434 36.2181 59.2283 23.443 67.437 18.5201C71.0255 16.3644 75.9958 16.7093 79.2587 19.3288C79.5038 19.512 79.8106 19.5931 80.1143 19.5549C80.418 19.5167 80.6949 19.3623 80.8866 19.1242C81.0782 18.8861 81.1696 18.5829 81.1414 18.2787C81.1133 17.9745 80.9678 17.693 80.7357 17.4936C76.7296 14.2781 70.627 13.8619 66.2199 16.5039C56.1019 22.5636 59.5136 38.1997 70.9141 39.9808Z" fill="#ffffff" fill-opacity="0.21"/>
<path d="M96.0441 15.0276C93.2045 12.2449 88.9433 11.5912 85.4187 11.0631L66.6799 7.98456C62.0564 7.21995 56.2984 6.26301 52.3633 9.91137C49.9952 12.1068 48.7888 15.1432 47.995 17.5424C46.1689 23.1124 44.5787 32.003 46.7432 37.4902C48.069 40.8437 51.1218 43.4138 54.6589 44.2683C55.0863 47.2053 55.5081 50.1334 55.9241 53.0526C55.9588 53.3066 56.0509 53.5493 56.1936 53.7625C56.3362 53.9756 56.5257 54.1536 56.7475 54.2828C56.9693 54.412 57.2177 54.4891 57.4738 54.5082C57.7298 54.5273 57.9869 54.4879 58.2253 54.3931C62.5446 54.3752 61.7869 54.3459 66.3517 48.3029C71.7827 49.088 77.9303 49.9036 83.1181 50.6764C86.6963 51.2098 90.585 51.6921 93.7298 49.9077C96.9005 48.1123 98.4913 44.4644 99.4678 40.9544C100.557 37.0307 101.144 32.9847 101.214 28.9131C101.308 23.5781 100.38 18.2207 96.0441 15.0276ZM56.3849 42.3498C56.2313 42.2661 56.0696 42.1983 55.9023 42.1476C52.8019 41.6632 50.0786 39.5007 48.9469 36.6378C47.0216 31.7493 48.6126 23.289 50.2483 18.2793C53.2081 9.25712 57.2628 8.80257 66.2988 10.3079L85.0715 13.3918C88.8265 13.9649 93.0677 14.6018 95.2193 17.6739C97.7522 21.287 97.1189 26.1636 96.584 30.2843C95.8983 35.7472 95.4065 42.1866 90.8413 45.3563C87.179 47.8973 81.0848 46.082 76.5406 45.372C65.0337 43.5742 65.4761 43.5015 64.9177 43.9289C63.9343 44.8316 61.2424 46.747 58.0366 51.0994C56.8229 42.6536 56.9452 42.7421 56.3795 42.3549L56.3849 42.3498Z" fill="#ffffff" fill-opacity="0.21"/>
</svg>
