<svg width="17" height="17" viewBox="0 0 21 22" fill="none" xmlns="http://www.w3.org/2000/svg">
<path fill-rule="evenodd" clip-rule="evenodd" d="M19 11C19 15.6944 15.1944 19.5 10.5 19.5C5.80558 19.5 2 15.6944 2 11C2 6.30558 5.80558 2.5 10.5 2.5C15.1944 2.5 19 6.30558 19 11ZM21 11C21 16.799 16.299 21.5 10.5 21.5C4.70101 21.5 0 16.799 0 11C0 5.20101 4.70101 0.5 10.5 0.5C16.299 0.5 21 5.20101 21 11ZM6.8152 7.2928C6.47173 7.62133 6.3 8.088 6.3 8.6928C6.3 9.2976 6.47173 9.76427 6.8152 10.0928C7.16613 10.4213 7.61787 10.5856 8.1704 10.5856C8.72293 10.5856 9.17093 10.4213 9.5144 10.0928C9.85787 9.76427 10.0296 9.2976 10.0296 8.6928C10.0296 8.088 9.85787 7.62133 9.5144 7.2928C9.17093 6.96427 8.72293 6.8 8.1704 6.8C7.61787 6.8 7.16613 6.96427 6.8152 7.2928ZM9.5928 14.808L13.9048 6.9232H12.0568L7.7448 14.808H9.5928ZM7.6216 8.6928C7.6216 8.1776 7.8008 7.92 8.1592 7.92C8.52507 7.92 8.708 8.1776 8.708 8.6928C8.708 8.94667 8.65947 9.13707 8.5624 9.264C8.46533 9.39093 8.33093 9.4544 8.1592 9.4544C7.8008 9.4544 7.6216 9.20053 7.6216 8.6928ZM12.1464 11.6384C11.8029 11.9669 11.6312 12.4336 11.6312 13.0384C11.6312 13.6432 11.8029 14.1099 12.1464 14.4384C12.4899 14.7669 12.9379 14.9312 13.4904 14.9312C14.0429 14.9312 14.4909 14.7669 14.8344 14.4384C15.1779 14.1099 15.3496 13.6432 15.3496 13.0384C15.3496 12.4336 15.1779 11.9669 14.8344 11.6384C14.4909 11.3099 14.0429 11.1456 13.4904 11.1456C12.9379 11.1456 12.4899 11.3099 12.1464 11.6384ZM13.076 12.456C13.1731 12.3291 13.3075 12.2656 13.4792 12.2656C13.6509 12.2656 13.7853 12.3328 13.8824 12.4672C13.9795 12.5941 14.028 12.7845 14.028 13.0384C14.028 13.2923 13.9795 13.4827 13.8824 13.6096C13.7853 13.7365 13.6509 13.8 13.4792 13.8C13.1208 13.8 12.9416 13.5461 12.9416 13.0384C12.9416 12.7771 12.9864 12.5829 13.076 12.456Z" fill="#1C4481"/>
</svg>
