<svg width="24" height="24" viewBox="0 0 24 24" fill="none" xmlns="http://www.w3.org/2000/svg">
<g clip-path="url(#clip0_2622_8766)">
<path d="M14.5321 8.31592V8.56792H16.6201V10.0439H14.4241C14.2921 10.8479 14.0401 11.4899 13.6681 11.9699C13.3081 12.4379 12.7921 12.7799 12.1201 12.9959C11.4481 13.1999 10.5781 13.3019 9.51013 13.3019V14.4359C9.51013 15.0959 9.64813 15.6179 9.92413 16.0019C10.2121 16.3859 10.6921 16.5779 11.3641 16.5779C12.5881 16.5779 13.2001 15.8879 13.2001 14.5079H15.0901C15.0781 15.7199 14.7481 16.6379 14.1001 17.2619C13.4641 17.8739 12.5401 18.1799 11.3281 18.1799C10.1161 18.1799 9.18613 17.8439 8.53813 17.1719C7.90213 16.4999 7.58413 15.5579 7.58413 14.3459V11.8799C8.91613 11.8799 9.89412 11.8439 10.5181 11.7719C11.1421 11.6879 11.6041 11.5199 11.9041 11.2679C12.2161 11.0159 12.4201 10.6079 12.5161 10.0439H6.82812V8.56792H12.6061V8.31592V6.96592H6.82812V5.47192H16.6201V6.96592H14.5321V8.31592Z" fill="#A7C8FF"/>
</g>
<defs>
<clipPath id="clip0_2622_8766">
<rect width="24" height="24" fill="#A7C8FF"/>
</clipPath>
</defs>
</svg>
