<svg width="17" height="17" viewBox="0 0 21 22" fill="none" xmlns="http://www.w3.org/2000/svg">
<path fill-rule="evenodd" clip-rule="evenodd" d="M19 11C19 15.6944 15.1944 19.5 10.5 19.5C5.80558 19.5 2 15.6944 2 11C2 6.30558 5.80558 2.5 10.5 2.5C15.1944 2.5 19 6.30558 19 11ZM21 11C21 16.799 16.299 21.5 10.5 21.5C4.70101 21.5 0 16.799 0 11C0 5.20101 4.70101 0.5 10.5 0.5C16.299 0.5 21 5.20101 21 11ZM7.18421 11.9752L10.0515 17.0789H12.887L9.76479 12.1215C10.5506 11.959 11.1931 11.6556 11.6923 11.2113C12.1914 10.7562 12.494 10.1277 12.6002 9.32585H14.3684V8.12307H12.5684C12.5259 7.84133 12.4409 7.58127 12.3135 7.34288C12.1967 7.10449 12.048 6.88235 11.8675 6.67647H14.3684V5.47368H7.18421V6.67647H8.44264C8.79309 6.67647 9.09044 6.74149 9.33469 6.87152C9.58957 6.99071 9.79134 7.15867 9.94002 7.37539C10.0993 7.59211 10.2108 7.84133 10.2745 8.12307H7.18421V9.32585H10.2905C10.2161 9.62926 10.0781 9.88932 9.8763 10.106C9.68514 10.3228 9.44089 10.4907 9.14354 10.6099C8.85681 10.7183 8.52229 10.7724 8.13998 10.7724H7.18421V11.9752Z" fill="#1C4481"/>
</svg>
