<svg width="52" height="52" viewBox="0 0 52 52" fill="none" xmlns="http://www.w3.org/2000/svg">
<rect width="52" height="52" rx="26" fill="#FFE1EB"/>
<path fill-rule="evenodd" clip-rule="evenodd" d="M25.625 40C33.5641 40 40 33.5641 40 25.625C40 17.6859 33.5641 11.25 25.625 11.25C17.6859 11.25 11.25 17.6859 11.25 25.625C11.25 33.5641 17.6859 40 25.625 40ZM26.5 16C26.5 15.1716 25.8284 14.5 25 14.5C24.1716 14.5 23.5 15.1716 23.5 16V26.75C23.5 27.7165 24.2835 28.5 25.25 28.5H34.5C35.3284 28.5 36 27.8284 36 27C36 26.1716 35.3284 25.5 34.5 25.5H26.5V16Z" fill="#FF7DA9"/>
</svg>
