<svg width="52" height="53" viewBox="0 0 52 53" fill="none" xmlns="http://www.w3.org/2000/svg">
<rect y="0.5" width="52" height="52" rx="26" fill="#FFEFB5"/>
<circle cx="26.5" cy="19.5" r="4.5" stroke="#604E10" stroke-width="2" stroke-linecap="round"/>
<path d="M30.6687 19.3125C31.0831 18.5947 31.7656 18.071 32.5662 17.8565C33.3668 17.642 34.2197 17.7543 34.9375 18.1687C35.6553 18.5831 36.179 19.2656 36.3935 20.0662C36.608 20.8668 36.4957 21.7197 36.0813 22.4375C35.6669 23.1553 34.9844 23.679 34.1838 23.8935C33.3832 24.108 32.5303 23.9957 31.8125 23.5813C31.0947 23.1669 30.571 22.4844 30.3565 21.6838C30.142 20.8832 30.2543 20.0303 30.6687 19.3125L30.6687 19.3125Z" stroke="#604E10" stroke-width="2"/>
<path d="M16.9187 19.3125C17.3331 18.5947 18.0156 18.071 18.8162 17.8565C19.6168 17.642 20.4697 17.7543 21.1875 18.1687C21.9053 18.5831 22.429 19.2656 22.6435 20.0662C22.858 20.8668 22.7457 21.7197 22.3313 22.4375C21.9169 23.1553 21.2344 23.679 20.4338 23.8935C19.6332 24.108 18.7803 23.9957 18.0625 23.5813C17.3447 23.1669 16.821 22.4844 16.6065 21.6838C16.392 20.8832 16.5043 20.0303 16.9187 19.3125L16.9187 19.3125Z" stroke="#604E10" stroke-width="2"/>
<path d="M33.2122 33.25L32.2319 33.4474L32.3935 34.25H33.2122V33.25ZM38.6229 32.1479L39.5804 31.8593L38.6229 32.1479ZM30.3236 28.727L29.7188 27.9307L28.5622 28.8091L29.7955 29.5761L30.3236 28.727ZM37.7422 32.25H33.2122V34.25H37.7422V32.25ZM37.6655 32.4366C37.661 32.4218 37.6571 32.3926 37.6646 32.357C37.6717 32.3235 37.6859 32.298 37.6996 32.2813C37.7262 32.2488 37.7485 32.25 37.7422 32.25V34.25C38.9067 34.25 39.9774 33.1764 39.5804 31.8593L37.6655 32.4366ZM33.375 28.75C34.7781 28.75 35.7104 29.3063 36.3658 30.0222C37.0473 30.7665 37.4456 31.7074 37.6655 32.4366L39.5804 31.8593C39.3162 30.9831 38.8052 29.7249 37.841 28.6717C36.8507 27.5899 35.401 26.75 33.375 26.75V28.75ZM30.9285 29.5233C31.5213 29.073 32.3045 28.75 33.375 28.75V26.75C31.8606 26.75 30.6539 27.2203 29.7188 27.9307L30.9285 29.5233ZM29.7955 29.5761C31.3535 30.5452 31.9841 32.2173 32.2319 33.4474L34.1925 33.0526C33.901 31.6052 33.0991 29.2756 30.8517 27.8778L29.7955 29.5761Z" fill="#604E10"/>
<path d="M22.6764 28.727L23.2045 29.5761L24.4378 28.8091L23.2812 27.9306L22.6764 28.727ZM14.3771 32.1479L15.3345 32.4366H15.3345L14.3771 32.1479ZM19.7877 33.25V34.25H20.6064L20.7681 33.4474L19.7877 33.25ZM19.625 28.75C20.6955 28.75 21.4787 29.073 22.0715 29.5233L23.2812 27.9306C22.3461 27.2203 21.1394 26.75 19.625 26.75V28.75ZM15.3345 32.4366C15.5544 31.7074 15.9528 30.7666 16.6342 30.0222C17.2896 29.3063 18.2219 28.75 19.625 28.75V26.75C17.599 26.75 16.1494 27.5899 15.159 28.6717C14.1948 29.7249 13.6838 30.9831 13.4196 31.8593L15.3345 32.4366ZM15.2578 32.25C15.2514 32.25 15.2738 32.2488 15.3004 32.2813C15.3141 32.298 15.3283 32.3235 15.3354 32.357C15.3429 32.3926 15.339 32.4218 15.3345 32.4366L13.4196 31.8593C13.0225 33.1764 14.0933 34.25 15.2578 34.25V32.25ZM19.7877 32.25H15.2578V34.25H19.7877V32.25ZM20.7681 33.4474C21.0158 32.2173 21.6464 30.5452 23.2045 29.5761L22.1483 27.8778C19.9008 29.2755 19.0989 31.6052 18.8074 33.0526L20.7681 33.4474Z" fill="#604E10"/>
<path d="M26.5 27.75C31.7302 27.75 32.9815 31.7289 33.2809 33.6327C33.3666 34.1783 32.9273 34.625 32.375 34.625H20.625C20.0727 34.625 19.6334 34.1783 19.7191 33.6327C20.0185 31.7289 21.2698 27.75 26.5 27.75Z" stroke="#604E10" stroke-width="2" stroke-linecap="round"/>
</svg>
