<svg width="220" height="215" viewBox="0 0 220 215" fill="none" xmlns="http://www.w3.org/2000/svg">
<circle cx="107.5" cy="107.5" r="107.5" fill="#D9D9D9"/>
<path fill-rule="evenodd" clip-rule="evenodd" d="M34 186.199C37.1233 184.642 40.2788 183.143 43.4371 181.651C48.3993 179.306 53.4372 177.132 58.4749 174.958C62.5074 173.218 66.5399 171.478 70.5336 169.65C72.2956 168.842 73.9715 167.771 75.537 166.617C78.7956 164.213 80.0094 160.73 80.168 156.83C80.3108 153.272 80.1774 149.718 80.0439 146.164C79.9421 143.453 79.8402 140.741 79.8611 138.027C79.8687 137.212 79.5223 136.543 79.1752 135.872C79.0501 135.63 78.925 135.388 78.8163 135.139C78.0992 133.494 77.2827 131.897 76.4663 130.3C76.1757 129.732 75.8851 129.163 75.5991 128.593C75.3129 126.652 74.8405 124.762 74.0025 122.983C73.6198 118.381 72.3301 113.79 70.5853 110.184C70.2025 105.983 69.4336 101.831 68.3646 97.7198C68.2274 97.1879 68.0178 96.6758 67.8078 96.1627C67.6905 95.8761 67.5731 95.5891 67.468 95.2982C66.4336 92.4344 66.3612 89.6673 68.468 87.2077C68.9622 86.6329 68.8343 86.0868 68.6981 85.5049C68.6926 85.4818 68.6872 85.4587 68.6818 85.4355C66.3922 75.5418 66.0405 65.4822 66.4784 55.4122C66.7163 49.9748 70.1646 46.2542 74.5163 43.3939C78.8818 40.5266 83.7542 39.0723 88.9301 38.6301C89.7266 38.561 90.3301 38.2466 90.9128 37.7319C94.4783 34.5848 98.7232 33.355 103.399 33.0856C115.713 32.3774 126.627 36.0841 136.351 43.4734C142.609 48.2337 146.037 54.4622 146.064 62.5424C146.092 70.7331 145.999 78.8823 143.83 86.8553C143.63 87.5981 143.523 88.2372 144.423 88.7553C146.306 89.8401 146.785 91.0457 145.999 93.077C143.979 98.2956 143.047 103.76 142.114 109.23L142.099 109.32C142.036 109.692 141.989 110.068 141.943 110.442C141.789 111.684 141.636 112.917 140.882 113.984C140.64 114.177 140.447 114.405 140.296 114.657C140.277 114.67 140.263 114.685 140.249 114.7C140.244 114.706 140.239 114.711 140.233 114.716C139.968 114.958 139.775 115.49 139.868 115.987C139.768 116.274 139.709 116.599 139.702 116.955C139.655 119.887 138.889 122.633 138.121 125.388C137.604 127.241 137.086 129.098 136.785 131.018C136.782 131.042 136.778 131.07 136.775 131.094C135.956 132.944 134.992 134.73 134.029 136.513C133.836 136.87 133.642 137.227 133.451 137.585C132.885 138.646 132.582 139.672 132.589 140.857C132.609 145.924 132.609 150.989 132.589 156.053C132.564 161.715 135.027 165.812 140.047 168.476C143.636 170.38 147.365 171.959 151.093 173.538C152.545 174.153 153.997 174.768 155.44 175.402C163.486 178.932 171.517 182.498 179.343 186.473C160.333 204.173 134.84 215 106.818 215C78.6513 215 53.0398 204.061 34 186.199Z" fill="#888888"/>
</svg>
