<svg width="161" height="156" viewBox="0 0 161 156" fill="none" xmlns="http://www.w3.org/2000/svg">
<circle cx="78.75" cy="78" r="75" fill="#E7F0FE" stroke="#ABBBD3" stroke-width="6"/>
<rect x="28" y="44" width="100.5" height="65.8318" rx="9" fill="white" stroke="#1C4481" stroke-width="4"/>
<circle cx="57.04" cy="76.9158" r="20.0486" fill="#E7F0FE" stroke="#ABBBD3" stroke-width="2"/>
<path d="M69.0272 87.9783C69.6168 87.8554 69.9677 87.2403 69.7013 86.7001C68.8086 84.8895 67.2875 83.2982 65.2951 82.1091C62.9269 80.6958 60.0253 79.9297 57.0402 79.9297C54.0552 79.9297 51.1535 80.6958 48.7853 82.1091C46.793 83.2982 45.2718 84.8895 44.3791 86.7001C44.1128 87.2402 44.4637 87.8554 45.0533 87.9783L48.8794 88.7757C54.2621 89.8975 59.8183 89.8975 65.2011 88.7757L69.0272 87.9783Z" fill="#1C4481"/>
<circle cx="57.0402" cy="70.8894" r="7.53341" fill="#1C4481"/>
<rect x="83.6958" y="64.2866" width="37.1446" height="4.45735" rx="2.22867" fill="#1C4481"/>
<rect x="83.6958" y="75.6777" width="37.1446" height="4.45735" rx="2.22867" fill="#1C4481"/>
<rect x="83.6958" y="87.0688" width="37.1446" height="4.45735" rx="2.22867" fill="#1C4481"/>
<circle cx="134.25" cy="123" r="24" fill="#1C4481" stroke="white" stroke-width="4"/>
<g clip-path="url(#clip0_818_6175)">
<path d="M121.25 131.154V118.661C121.272 118.606 121.291 118.549 121.305 118.492C121.562 117.105 122.709 115.986 124.082 115.882C125.07 115.809 126.065 115.839 127.057 115.835C127.134 115.841 127.211 115.824 127.278 115.787C127.346 115.75 127.401 115.693 127.438 115.624C127.884 114.919 128.342 114.22 128.802 113.524C129.422 112.585 130.296 112.047 131.401 112.029C133.632 111.994 135.864 111.997 138.095 112.029C138.578 112.027 139.054 112.145 139.481 112.371C139.909 112.598 140.276 112.927 140.551 113.33C141.069 114.06 141.55 114.82 142.028 115.579C142.155 115.78 142.292 115.841 142.517 115.837C143.316 115.824 144.116 115.828 144.916 115.833C146.864 115.845 148.249 117.259 148.25 119.233C148.25 123.022 148.249 126.811 148.246 130.6C148.252 130.885 148.224 131.17 148.165 131.449C147.806 132.994 146.537 133.997 144.944 133.997C139.54 133.997 134.137 133.997 128.733 133.997C127.301 133.997 125.869 134.018 124.437 133.99C123.223 133.966 122.277 133.406 121.676 132.324C121.478 131.963 121.389 131.544 121.25 131.154ZM134.751 116.53C130.748 116.526 127.464 119.829 127.477 123.891C127.492 128.014 130.708 131.265 134.745 131.292C138.728 131.317 142.018 127.982 142.027 123.931C142.036 119.879 138.757 116.534 134.751 116.53ZM143.946 120.472C144.21 120.461 144.466 120.467 144.717 120.434C145.185 120.371 145.499 119.961 145.482 119.471C145.465 118.98 145.099 118.563 144.634 118.546C144.187 118.53 143.739 118.529 143.293 118.546C142.815 118.563 142.449 118.952 142.417 119.446C142.401 119.68 142.473 119.912 142.618 120.094C142.762 120.277 142.97 120.397 143.198 120.432C143.446 120.467 143.7 120.46 143.946 120.472Z" fill="white"/>
<path d="M138.806 123.894C138.806 126.153 136.971 128.025 134.75 128.025C132.53 128.026 130.697 126.181 130.694 123.931C130.691 121.681 132.53 119.799 134.75 119.798C136.969 119.797 138.803 121.646 138.806 123.894Z" fill="white"/>
</g>
<defs>
<clipPath id="clip0_818_6175">
<rect width="27" height="22" fill="white" transform="translate(121.25 112)"/>
</clipPath>
</defs>
</svg>
