<svg width="84" height="84" viewBox="0 0 84 84" fill="none" xmlns="http://www.w3.org/2000/svg">
<g filter="url(#filter0_d_2061_30686)">
<circle cx="42" cy="39.9995" r="39" fill="white"/>
</g>
<path d="M23.8297 21.8292C22.9187 22.7401 22.5474 23.8737 22.3786 25.1293C22.2186 26.3189 22.2187 27.8173 22.2187 29.6143L22.2188 29.7183V50.2808L22.2187 50.3848C22.2187 52.1817 22.2186 53.6802 22.3786 54.8697C22.5474 56.1253 22.9187 57.2589 23.8297 58.1698C24.7406 59.0808 25.8742 59.4521 27.1298 59.6209C28.3194 59.7809 29.8178 59.7808 31.6148 59.7808H31.7187H52.2812H52.3852C54.1822 59.7808 55.6806 59.7809 56.8702 59.6209C58.1258 59.4521 59.2594 59.0808 60.1703 58.1698C61.0813 57.2589 61.4526 56.1253 61.6214 54.8697C61.7814 53.6802 61.7813 52.1817 61.7812 50.3847V50.2808V29.7183V29.6143C61.7813 27.8173 61.7814 26.3189 61.6214 25.1293C61.4526 23.8737 61.0813 22.7401 60.1703 21.8292C59.2594 20.9182 58.1258 20.5469 56.8702 20.3781C55.6806 20.2182 54.1822 20.2182 52.3852 20.2183L52.2812 20.2183H31.7188L31.6148 20.2183C29.8178 20.2182 28.3194 20.2182 27.1298 20.3781C25.8742 20.5469 24.7406 20.9182 23.8297 21.8292Z" fill="white" stroke="#1C4481" stroke-width="3"/>
<path fill-rule="evenodd" clip-rule="evenodd" d="M58.2812 46.7406L53.6604 42.1198L53.6139 42.0733C52.9871 41.4464 52.447 40.9063 51.9564 40.5319C51.4305 40.1307 50.8457 39.8269 50.1249 39.8269C49.4041 39.8269 48.8193 40.1307 48.2934 40.5319C47.8028 40.9063 47.2627 41.4464 46.6359 42.0733L46.5894 42.1198L43.3816 45.3275C42.8852 45.824 42.5911 46.1144 42.3627 46.284L42.3527 46.2913L42.3462 46.2808C42.1972 46.0385 42.0319 45.6597 41.7554 45.0144L39.1526 38.9412L39.1212 38.8679C38.6208 37.7003 38.2014 36.7214 37.7687 36.0181C37.3161 35.2826 36.7257 34.6404 35.7988 34.4619C34.872 34.2834 34.0853 34.6604 33.392 35.1752C32.729 35.6676 31.976 36.4206 31.0778 37.3189L31.0214 37.3753L25.7188 42.6779V45.5064L32.4356 38.7895C33.4052 37.8199 34.0542 37.1746 34.5843 36.7809C35.0979 36.3996 35.3054 36.4036 35.4206 36.4258C35.5358 36.448 35.73 36.5213 36.0652 37.0661C36.4112 37.6285 36.7742 38.4687 37.3143 39.7291L39.9171 45.8022L39.9439 45.8647C40.1842 46.4257 40.4067 46.9451 40.6428 47.3288C40.8984 47.7442 41.2927 48.2076 41.959 48.3359C42.6253 48.4642 43.1635 48.1805 43.5551 47.8897C43.9168 47.6211 44.3163 47.2215 44.7478 46.7898L44.7958 46.7418L48.0036 43.534C48.6902 42.8474 49.1356 42.405 49.5066 42.1219C49.8545 41.8565 50.0172 41.8269 50.1249 41.8269C50.2326 41.8269 50.3953 41.8565 50.7432 42.1219C51.1142 42.405 51.5596 42.8474 52.2462 43.534L57.5428 48.8306L58.2812 48.0921V46.7406ZM42.216 46.3765C42.216 46.3764 42.2175 46.3758 42.2204 46.3748C42.2174 46.3761 42.2159 46.3766 42.216 46.3765ZM42.4476 46.4206C42.447 46.4201 42.446 46.4192 42.4446 46.418C42.4457 46.4191 42.4465 46.4199 42.4471 46.4204C42.4478 46.421 42.4481 46.4213 42.4481 46.4212C42.4481 46.4212 42.4479 46.421 42.4476 46.4206Z" fill="#1C4481"/>
<circle cx="51.1406" cy="30.8589" r="3.04688" fill="#1C4481"/>
<defs>
<filter id="filter0_d_2061_30686" x="0" y="-0.000488281" width="84" height="84" filterUnits="userSpaceOnUse" color-interpolation-filters="sRGB">
<feFlood flood-opacity="0" result="BackgroundImageFix"/>
<feColorMatrix in="SourceAlpha" type="matrix" values="0 0 0 0 0 0 0 0 0 0 0 0 0 0 0 0 0 0 127 0" result="hardAlpha"/>
<feOffset dy="2"/>
<feGaussianBlur stdDeviation="1.5"/>
<feComposite in2="hardAlpha" operator="out"/>
<feColorMatrix type="matrix" values="0 0 0 0 0 0 0 0 0 0 0 0 0 0 0 0 0 0 0.12 0"/>
<feBlend mode="normal" in2="BackgroundImageFix" result="effect1_dropShadow_2061_30686"/>
<feBlend mode="normal" in="SourceGraphic" in2="effect1_dropShadow_2061_30686" result="shape"/>
</filter>
</defs>
</svg>
