<svg width="157" height="156" viewBox="0 0 157 156" fill="none" xmlns="http://www.w3.org/2000/svg">
<circle cx="78.5" cy="78" r="75" fill="#E7F0FE" stroke="#ABBBD3" stroke-width="6"/>
<path d="M125.927 122.366C126.516 122.244 126.865 121.631 126.649 121.069C123.628 113.197 117.489 106.256 109.09 101.243C100.314 96.0059 89.5617 93.167 78.4999 93.167C67.4382 93.167 56.6856 96.0059 47.9097 101.243C39.5111 106.256 33.3721 113.197 30.3504 121.068C30.1346 121.631 30.4837 122.243 31.0733 122.366L70.3391 130.55C75.7218 131.671 81.278 131.671 86.6608 130.55L125.927 122.366Z" fill="#1C4481"/>
<ellipse cx="78.4999" cy="59.6667" rx="27.9167" ry="27.9167" fill="#1C4481"/>
<circle cx="130.5" cy="130" r="24" fill="#1C4481" stroke="white" stroke-width="4"/>
<g clip-path="url(#clip0_822_7456)">
<path d="M117.5 138.154V125.661C117.522 125.606 117.541 125.549 117.555 125.492C117.812 124.105 118.959 122.986 120.332 122.882C121.32 122.809 122.315 122.839 123.307 122.835C123.384 122.841 123.461 122.824 123.528 122.787C123.596 122.75 123.651 122.693 123.688 122.624C124.134 121.919 124.592 121.22 125.052 120.524C125.672 119.585 126.546 119.047 127.651 119.029C129.882 118.994 132.114 118.997 134.345 119.029C134.828 119.027 135.304 119.145 135.731 119.371C136.159 119.598 136.526 119.927 136.801 120.33C137.319 121.06 137.8 121.82 138.278 122.579C138.405 122.78 138.542 122.841 138.767 122.837C139.566 122.824 140.366 122.828 141.166 122.833C143.114 122.845 144.499 124.259 144.5 126.233C144.5 130.022 144.499 133.811 144.496 137.6C144.502 137.885 144.474 138.17 144.415 138.449C144.056 139.994 142.787 140.997 141.194 140.997C135.79 140.997 130.387 140.997 124.983 140.997C123.551 140.997 122.119 141.018 120.687 140.99C119.473 140.966 118.527 140.406 117.926 139.324C117.728 138.963 117.639 138.544 117.5 138.154ZM131.001 123.53C126.998 123.526 123.714 126.829 123.727 130.891C123.742 135.014 126.958 138.265 130.995 138.292C134.978 138.317 138.268 134.982 138.277 130.931C138.286 126.879 135.007 123.534 131.001 123.53ZM140.196 127.472C140.46 127.461 140.716 127.467 140.967 127.434C141.435 127.371 141.749 126.961 141.732 126.471C141.715 125.98 141.349 125.563 140.884 125.546C140.437 125.53 139.989 125.529 139.543 125.546C139.065 125.563 138.699 125.952 138.667 126.446C138.651 126.68 138.723 126.912 138.868 127.094C139.012 127.277 139.22 127.397 139.448 127.432C139.696 127.467 139.95 127.46 140.196 127.472Z" fill="white"/>
<path d="M135.056 130.894C135.056 133.153 133.221 135.025 131 135.025C128.78 135.026 126.947 133.181 126.944 130.931C126.941 128.681 128.78 126.799 131 126.798C133.219 126.797 135.053 128.646 135.056 130.894Z" fill="white"/>
</g>
<defs>
<clipPath id="clip0_822_7456">
<rect width="27" height="22" fill="white" transform="translate(117.5 119)"/>
</clipPath>
</defs>
</svg>
