<svg width="20" height="20" viewBox="0 0 20 20" fill="none" xmlns="http://www.w3.org/2000/svg">
<g clip-path="url(#clip0_2186_46428)">
<path d="M4.97676 7.86298C4.95146 8.00127 4.92552 8.13509 4.90276 8.26934C4.7437 9.20905 4.80984 10.1339 5.09478 11.0425C5.12646 11.1438 5.11285 11.2076 5.03566 11.284C4.44069 11.872 3.84933 12.4639 3.25988 13.0575C2.72933 13.5919 2.46331 14.2355 2.47565 14.992C2.49542 16.2185 3.42255 17.2914 4.63611 17.4769C5.52645 17.6131 6.29834 17.3633 6.93713 16.7259C8.31718 15.3488 9.6949 13.9693 11.072 12.589C11.574 12.0859 11.8347 11.4719 11.8396 10.7643C11.8492 9.40542 10.8551 8.32805 9.58433 8.167C9.53117 8.16019 9.4493 8.17658 9.43314 8.1236C9.41825 8.07446 9.48758 8.03127 9.5267 7.99212C10.12 7.39727 10.7147 6.80391 11.307 6.208C11.3635 6.1512 11.4101 6.14098 11.4826 6.17821C13.0258 6.97028 13.9667 8.21742 14.2536 9.9273C14.4896 11.3342 14.1596 12.6228 13.3215 13.7783C13.1548 14.0083 12.9617 14.2159 12.7608 14.4167C11.399 15.7771 10.0394 17.1397 8.67783 18.5003C7.83193 19.3455 6.81273 19.8476 5.62533 19.9689C4.11938 20.1227 2.78313 19.7006 1.65463 18.6811C0.684122 17.8039 0.139116 16.7008 0.0234377 15.3997C-0.109677 13.9017 0.323265 12.578 1.34693 11.471C2.088 10.6696 2.88435 9.92091 3.65305 9.14565C4.05495 8.74036 4.4594 8.33784 4.86364 7.93489C4.89213 7.9066 4.91318 7.86426 4.97676 7.86277V7.86298Z" fill="#1C4481"/>
<path d="M15.0312 12.1166C15.0329 11.9886 15.0695 11.8771 15.0886 11.7633C15.2464 10.8246 15.1945 9.89894 14.9098 8.98986C14.8673 8.85413 14.8845 8.76881 14.9889 8.66648C15.5783 8.08822 16.1593 7.50103 16.7432 6.91704C17.7607 5.89924 17.7724 4.26957 16.7694 3.23667C15.8231 2.26206 14.2098 2.20356 13.2059 3.12306C12.5969 3.68089 12.0319 4.28468 11.4469 4.8674C10.6082 5.70287 9.77295 6.54196 8.93556 7.37892C8.4905 7.82378 8.21194 8.3565 8.16345 8.98369C8.08095 10.053 8.49709 10.8901 9.40465 11.4697C9.72915 11.6769 10.0915 11.786 10.4749 11.8235C10.5059 11.8265 10.5466 11.8192 10.5619 11.8509C10.581 11.8911 10.5402 11.9143 10.517 11.9377C9.89905 12.5579 9.27983 13.1768 8.66231 13.7974C8.61234 13.8476 8.56918 13.8435 8.51155 13.8148C7.76156 13.4419 7.13298 12.9234 6.64135 12.2441C6.02298 11.3897 5.69827 10.4336 5.67616 9.37792C5.64745 8.01504 6.07508 6.81279 7.00391 5.81541C7.91211 4.84038 8.88006 3.92279 9.8191 2.97754C10.3086 2.4846 10.8 1.99357 11.2925 1.50361C12.1473 0.653246 13.171 0.12669 14.3722 0.0243567C16.4498 -0.152439 18.0903 0.633035 19.2339 2.38716C19.8123 3.27433 20.0496 4.27021 19.9918 5.32524C19.921 6.61536 19.4325 7.73208 18.5203 8.6518C17.3994 9.78172 16.2711 10.9044 15.1456 12.0296C15.1163 12.059 15.092 12.0958 15.0312 12.1164V12.1166Z" fill="#1C4481"/>
</g>
<defs>
<clipPath id="clip0_2186_46428">
<rect width="20" height="20" fill="white"/>
</clipPath>
</defs>
</svg>
