<svg width="17" height="17" viewBox="0 0 17 17" fill="none" xmlns="http://www.w3.org/2000/svg">
<g clip-path="url(#clip0_1_834)">
<path d="M-4.68412e-07 11.155C0.454198 9.885 1.20288 8.915 2.59043 8.58C2.63081 8.56438 2.6726 8.55265 2.71521 8.545C5.16089 8.545 7.60825 8.545 10.0573 8.545C10.0922 8.545 10.1271 8.59 10.207 8.645C9.67293 9.21 9.42336 9.96 8.53992 10.255C8.12774 10.4018 7.7711 10.6729 7.51905 11.031C7.26699 11.3892 7.1319 11.8168 7.1324 12.255C7.08249 13.09 7.1324 13.93 7.1324 14.855H6.13416C4.36728 14.855 2.60041 14.855 0.838516 14.855C0.54607 14.8088 0.260844 14.7248 -0.0099926 14.605L-4.68412e-07 11.155Z" fill="#1C4481"/>
<path d="M9.28901 17C9.00676 16.8293 8.78011 16.5801 8.63657 16.2827C8.49302 15.9854 8.43878 15.6526 8.48044 15.325C8.53534 14.495 8.48044 13.655 8.48044 12.715C9.72325 13.365 10.9012 13.95 12.0492 14.59C12.2486 14.7212 12.4819 14.7911 12.7205 14.7911C12.959 14.7911 13.1924 14.7212 13.3918 14.59C14.5398 13.95 15.7177 13.365 16.9605 12.715C16.9605 13.85 17.0304 14.89 16.9255 15.91C16.8856 16.295 16.4264 16.63 16.1719 16.99L9.28901 17Z" fill="#1C4481"/>
<path d="M6.3583 3.62568e-06C7.29359 -0.00409422 8.19288 0.36082 8.86166 1.01581C9.53045 1.6708 9.91497 2.56321 9.93201 3.5C9.9307 3.97056 9.83679 4.43624 9.65567 4.87041C9.47456 5.30458 9.20977 5.69872 8.87647 6.03029C8.54317 6.36186 8.14787 6.62437 7.71321 6.80277C7.27855 6.98117 6.81307 7.07198 6.34334 7.07001C5.40597 7.06213 4.50943 6.68457 3.84799 6.01915C3.18655 5.35374 2.81348 4.45405 2.80957 3.515C2.82008 2.57911 3.1986 1.68512 3.86298 1.02706C4.52736 0.368992 5.42399 -5.56231e-05 6.3583 3.62568e-06Z" fill="#1C4481"/>
<path d="M14.8588 11.215L16.5558 11.51L16.5857 11.73C16.0567 12.01 15.5376 12.305 15.0035 12.58C14.2598 12.96 13.5062 13.615 12.7625 13.62C12.0188 13.625 11.2651 12.97 10.5164 12.595C9.98738 12.325 9.46331 12.04 8.8993 11.74C9.34352 11.14 9.99237 11.375 10.5813 11.275C10.5813 11.075 10.5813 10.885 10.6213 10.695C10.64 10.3942 10.7711 10.1115 10.9884 9.90301C11.2057 9.69457 11.4934 9.5757 11.7942 9.57C12.4131 9.57 13.032 9.57 13.6459 9.57C13.9588 9.56329 14.2616 9.68107 14.488 9.89755C14.7144 10.114 14.8459 10.4116 14.8538 10.725C14.8688 10.895 14.8588 11.07 14.8588 11.215ZM13.7607 11.275C13.8705 10.81 13.7607 10.58 13.2616 10.615C12.911 10.64 12.5591 10.64 12.2085 10.615C11.7093 10.585 11.5995 10.815 11.7093 11.275H13.7607Z" fill="#1C4481"/>
</g>
<defs>
<clipPath id="clip0_1_834">
<rect width="17" height="17" fill="white"/>
</clipPath>
</defs>
</svg>
