<svg width="17" height="17" viewBox="0 0 31 28" fill="none" xmlns="http://www.w3.org/2000/svg">
<ellipse cx="13.3801" cy="14.9" rx="2.7" ry="2.7" fill="white"/>
<path d="M8.83042 21.4269C9.26034 19.3847 11.293 18.275 13.38 18.275V18.275C15.467 18.275 17.4997 19.3847 17.9296 21.4269C17.9775 21.6544 18.0178 21.8873 18.0476 22.1233C18.1085 22.605 17.7114 23 17.2259 23H9.53413C9.04861 23 8.65157 22.605 8.71245 22.1233C8.74227 21.8873 8.78254 21.6544 8.83042 21.4269Z" fill="white"/>
<mask id="path-3-inside-1_1_669" fill="white">
<path d="M4.41262 13.7475C5.28078 12.23 6.52408 10.9608 8.0234 10.0616C9.52272 9.16233 11.2278 8.66317 12.9754 8.6119C14.7229 8.56062 16.4544 8.95895 18.0038 9.76872C19.5533 10.5785 20.8689 11.7726 21.8245 13.2366L20.636 14.0124C19.8132 12.7519 18.6805 11.7238 17.3465 11.0266C16.0124 10.3294 14.5216 9.98644 13.017 10.0306C11.5124 10.0747 10.0443 10.5045 8.75341 11.2787C7.46251 12.053 6.39205 13.1457 5.64457 14.4523L4.41262 13.7475Z"/>
</mask>
<path d="M4.41262 13.7475C5.28078 12.23 6.52408 10.9608 8.0234 10.0616C9.52272 9.16233 11.2278 8.66317 12.9754 8.6119C14.7229 8.56062 16.4544 8.95895 18.0038 9.76872C19.5533 10.5785 20.8689 11.7726 21.8245 13.2366L20.636 14.0124C19.8132 12.7519 18.6805 11.7238 17.3465 11.0266C16.0124 10.3294 14.5216 9.98644 13.017 10.0306C11.5124 10.0747 10.0443 10.5045 8.75341 11.2787C7.46251 12.053 6.39205 13.1457 5.64457 14.4523L4.41262 13.7475Z" stroke="white" stroke-width="6" mask="url(#path-3-inside-1_1_669)"/>
<path d="M4.5 1.94L5.51031 5.04942H8.77975L6.13472 6.97115L7.14503 10.0806L4.5 8.15885L1.85497 10.0806L2.86528 6.97115L0.220246 5.04942H3.48969L4.5 1.94Z" fill="white"/>
<path d="M12.48 0.5L13.4903 3.29848L16.7597 3.29848L14.1147 5.02804L15.125 7.82652L12.48 6.09696L9.83495 7.82652L10.8453 5.02804L8.20023 3.29848L11.4697 3.29848L12.48 0.5Z" fill="white"/>
<path d="M19.41 1.94L20.3193 4.73848L23.2618 4.73848L20.8812 6.46804L21.7905 9.26652L19.41 7.53696L17.0295 9.26652L17.9387 6.46804L15.5582 4.73848L18.5007 4.73848L19.41 1.94Z" fill="white"/>
</svg>
