<svg width="17" height="17" viewBox="0 0 20 19" fill="none" xmlns="http://www.w3.org/2000/svg">
<g clip-path="url(#clip0_1_657)">
<path d="M18.4766 19H0.429687C0.241025 18.9153 0.0891538 18.771 0 18.5918V0.408203C0.0885738 0.228586 0.240617 0.0841451 0.429687 0H11.3281C11.4458 0.0836198 11.5755 0.155365 11.6786 0.252839C12.7948 1.30724 13.9052 2.36758 15.0219 3.42198C15.1062 3.49811 15.1725 3.59044 15.2163 3.69283C15.2602 3.79521 15.2805 3.90529 15.276 4.01573C15.2698 5.59906 15.2729 7.1824 15.2734 8.76227V8.98146C15.5969 8.98146 15.8896 8.98146 16.1823 8.98146C17.0333 8.98393 17.6146 9.53513 17.6177 10.3431C17.6177 10.6257 17.6177 10.9082 17.6177 11.2065C18.1625 11.2065 18.6885 11.2209 19.213 11.2016C19.5776 11.1882 19.8443 11.2931 19.9995 11.6147V17.5522C19.9854 17.5992 19.9698 17.6458 19.9573 17.6933C19.8068 18.2588 19.451 18.6581 18.8833 18.8808C18.75 18.927 18.6142 18.9668 18.4766 19ZM1.1849 1.12219V17.8748H9.52083C9.49792 17.7056 9.45781 17.5473 9.45729 17.389C9.45174 15.515 9.45035 13.6412 9.45312 11.7676C9.45312 11.443 9.70469 11.212 10.0505 11.2085C10.5193 11.2036 10.988 11.2085 11.4568 11.2085H11.7578C11.7578 10.9225 11.7578 10.6578 11.7578 10.3931C11.7578 9.51039 12.3115 8.98393 13.2365 8.98344H14.0859V4.45313H11.2615C10.8167 4.45313 10.5844 4.23542 10.5844 3.81534C10.5844 2.98673 10.5844 2.15795 10.5844 1.32901V1.12219H1.1849ZM10.6229 15.1743C10.6229 15.8947 10.6229 16.5923 10.6229 17.29C10.6229 17.6596 10.8667 17.8862 11.262 17.8867C13.5717 17.8867 15.8818 17.8867 18.1922 17.8867C18.5828 17.8867 18.8245 17.6557 18.826 17.2841C18.826 16.6285 18.826 15.9734 18.826 15.3178C18.826 15.2757 18.8203 15.2332 18.8161 15.1782L15.3193 15.5944C15.2484 16.003 15.049 16.2079 14.7286 16.2153C14.4083 16.2227 14.2078 16.0273 14.1068 15.5894L10.6229 15.1743ZM18.8224 12.3332H10.6354V14.0521L14.125 14.4662C14.2094 14.1877 14.3766 14.0031 14.6849 13.9902C15.0297 13.9764 15.2141 14.1763 15.3099 14.4702L18.8224 14.0521V12.3332ZM16.4464 11.2001C16.4464 10.9032 16.4464 10.6257 16.4464 10.3481C16.4464 10.1551 16.3823 10.0972 16.1766 10.0957C15.8839 10.0957 15.5911 10.0957 15.2984 10.0957C14.5964 10.0957 13.8922 10.0957 13.1917 10.0957C13.0625 10.0957 12.9411 10.117 12.9365 10.2605C12.926 10.5727 12.9333 10.8854 12.9333 11.2006L16.4464 11.2001ZM11.7677 3.325H13.1937L11.7677 1.96878V3.325Z" fill="white"/>
<path d="M7.63542 10.0774C6.89376 10.0774 6.15209 10.0774 5.41042 10.0774C4.91042 10.0774 4.68438 9.84586 4.71407 9.37136C4.75085 8.67897 5.05952 8.02484 5.57913 7.53807C6.09875 7.05131 6.79157 6.76727 7.52084 6.74203C9.00365 6.67524 10.3042 7.69649 10.5359 9.11703C10.6401 9.76026 10.4839 10.1135 9.68438 10.0848C9.00209 10.0581 8.31824 10.0774 7.63542 10.0774ZM9.27084 8.95573C9.07084 8.23828 8.2573 7.77565 7.39115 7.86719C6.74844 7.93547 6.04792 8.49013 6.02344 8.95573H9.27084Z" fill="white"/>
<path d="M9.39115 5.0726C9.37917 5.94096 8.6698 6.73411 7.62292 6.72125C6.53855 6.70789 5.86823 5.88357 5.8823 5.02708C5.88524 4.80559 5.93455 4.58687 6.02736 4.38366C6.12017 4.18046 6.25462 3.99683 6.42288 3.84348C6.59114 3.69013 6.78983 3.57012 7.0074 3.49045C7.22496 3.41078 7.45704 3.37304 7.69011 3.37942C8.15053 3.39389 8.58661 3.57934 8.90468 3.89594C9.22274 4.21253 9.3974 4.635 9.39115 5.0726ZM7.63751 4.49172C7.48299 4.49301 7.33519 4.55193 7.22598 4.65578C7.11676 4.75962 7.05487 4.90008 7.05365 5.04687C7.05378 5.19378 7.11499 5.33469 7.22394 5.43894C7.3329 5.54319 7.48079 5.60234 7.63542 5.60351C7.79006 5.60286 7.93817 5.54422 8.04751 5.44034C8.15686 5.33646 8.21859 5.19576 8.21928 5.04885C8.21874 4.90202 8.15742 4.76127 8.04857 4.65703C7.93971 4.55279 7.79206 4.4934 7.63751 4.49172Z" fill="white"/>
<path d="M6.19377 12.3203C5.72502 12.3203 5.25627 12.3203 4.78752 12.3203C4.40679 12.3203 4.14273 12.0937 4.13909 11.7706C4.13492 11.4391 4.3995 11.2085 4.79325 11.208C5.72277 11.208 6.65245 11.208 7.58232 11.208C7.97763 11.208 8.24221 11.4346 8.24013 11.7666C8.23804 12.0986 7.97711 12.3203 7.57867 12.3203H6.19377Z" fill="white"/>
<path d="M6.21197 13.3965C6.67343 13.3965 7.13541 13.3965 7.59687 13.3965C7.97864 13.3965 8.2401 13.6226 8.24218 13.9482C8.24427 14.2737 7.98177 14.5078 7.60572 14.5088C6.66232 14.5088 5.71944 14.5088 4.77708 14.5088C4.40208 14.5088 4.13802 14.2718 4.14114 13.9472C4.14427 13.6226 4.40729 13.3975 4.78802 13.3965C5.26041 13.3955 5.7375 13.3965 6.21197 13.3965Z" fill="white"/>
<path d="M6.19011 15.6216C6.65886 15.6216 7.12761 15.6216 7.59636 15.6216C7.98073 15.6216 8.24063 15.8452 8.24375 16.1713C8.24688 16.4973 7.98334 16.7338 7.58959 16.7343C6.66007 16.7343 5.73021 16.7343 4.8 16.7343C4.40782 16.7343 4.14063 16.5048 4.14271 16.1742C4.1448 15.8437 4.40886 15.6225 4.80677 15.6216C5.26789 15.6209 5.729 15.6209 6.19011 15.6216Z" fill="white"/>
<path d="M3.52237 11.731C3.52154 11.8776 3.45954 12.0178 3.34998 12.1209C3.24042 12.2241 3.09225 12.2817 2.93799 12.2812C2.784 12.2775 2.63754 12.2171 2.5295 12.1128C2.42145 12.0085 2.36026 11.8684 2.35883 11.7221C2.36247 11.5756 2.426 11.4362 2.53595 11.3334C2.64589 11.2306 2.79363 11.1725 2.94789 11.1714C3.02429 11.1723 3.09975 11.1875 3.16997 11.2161C3.24019 11.2447 3.30379 11.2862 3.35714 11.3382C3.41049 11.3901 3.45253 11.4516 3.48088 11.519C3.50923 11.5864 3.52333 11.6584 3.52237 11.731Z" fill="white"/>
<path d="M3.52239 13.962C3.52006 14.1084 3.45673 14.2478 3.34631 14.3499C3.23588 14.4519 3.08736 14.5082 2.93333 14.5063C2.77959 14.5012 2.63394 14.4396 2.52707 14.3344C2.4202 14.2293 2.36045 14.0889 2.36041 13.9427C2.36568 13.7966 2.43058 13.658 2.54137 13.5565C2.65217 13.4549 2.80019 13.3983 2.95416 13.3985C3.10815 13.4017 3.25448 13.4629 3.36102 13.5686C3.46756 13.6742 3.5256 13.8157 3.52239 13.962Z" fill="white"/>
<path d="M3.52237 16.1752C3.52362 16.3218 3.4636 16.4628 3.35551 16.5674C3.24741 16.6719 3.10006 16.7314 2.9458 16.7329C2.79159 16.7308 2.64423 16.6721 2.53474 16.5689C2.42525 16.4657 2.36218 16.3262 2.35883 16.1797C2.36043 16.0333 2.42203 15.8933 2.53056 15.7893C2.63909 15.6854 2.786 15.6257 2.94008 15.623C3.01651 15.6229 3.09224 15.637 3.16291 15.6647C3.23358 15.6923 3.29781 15.733 3.35191 15.7843C3.40601 15.8356 3.44891 15.8965 3.47816 15.9636C3.50741 16.0307 3.52244 16.1026 3.52237 16.1752Z" fill="white"/>
</g>
<defs>
<clipPath id="clip0_1_657">
<rect width="20" height="19" fill="white"/>
</clipPath>
</defs>
</svg>
