<svg width="21" height="20" viewBox="0 0 21 20" fill="none" xmlns="http://www.w3.org/2000/svg">
<path fill-rule="evenodd" clip-rule="evenodd" d="M18 4C18 1.79086 16.2091 0 14 0H7C4.79086 0 3 1.79086 3 4V5.12602C1.27477 5.57006 0 7.13616 0 9V16C0 18.2091 1.79086 20 4 20H17C19.2091 20 21 18.2091 21 16V9C21 7.13616 19.7252 5.57006 18 5.12602V4ZM17.0014 7H17L4 7C2.89543 7 2 7.89543 2 9V10H8C8 9.44771 8.44771 9 9 9H12C12.5523 9 13 9.44771 13 10L19 10L19 9C19 7.8959 18.1053 7.00075 17.0014 7ZM8 12V13C8 13.5523 8.44771 14 9 14H12C12.5523 14 13 13.5523 13 13V12L19 12L19 16C19 17.1046 18.1046 18 17 18H4C2.89543 18 2 17.1046 2 16V12L8 12ZM16 5V4C16 2.89543 15.1046 2 14 2L7 2C5.89543 2 5 2.89543 5 4V5L16 5Z" fill="#1C4481"/>
</svg>
